# ProBuilder 5.0.7
# https://unity3d.com/unity/features/worldbuilding/probuilder
# 18.01.2025 16:41:07

mtllib ./FloorCentral_2.mtl
o FloorCentral_2

g FloorCentral_2
v 10 0 -10
v 10 0 -9
v 9 0 -10
v 9 0 -9
v 10 0 -8
v 9 0 -8
v 10 0 -7
v 9 0 -7
v 10 0 -6
v 9 0 -6
v 10 0 -5
v 9 0 -5
v 10 0 -4
v 9 0 -4
v 10 0 -3
v 9 0 -3
v 10 0 -2
v 9 0 -2
v 10 0 -1
v 9 0 -1
v 10 0 0
v 9 0 0
v 10 0 1
v 9 0 1
v 10 0 2
v 9 0 2
v 10 0 3
v 9 0 3
v 10 0 4
v 9 0 4
v 10 0 5
v 9 0 5
v 10 0 6
v 9 0 6
v 10 0 7
v 9 0 7
v 9.999998 -0.4821968 7.999999
v 8.999998 -0.4821968 8
v 9.999998 -0.4821968 8.999999
v 8.999998 -0.4821968 8.999999
v 9.999998 -0.4821968 9.999999
v 8.999998 -0.4821968 9.999999
v 8 0 -10
v 8 0 -9
v 8 0 -8
v 8 0 -7
v 8 0 -6
v 8 0 -5
v 8 0 -4
v 8 0 -3
v 8 0 -2
v 8 0 -1
v 8 0 0
v 8 0 1
v 8 0 2
v 8 0 3
v 8 0 4
v 8 0 5
v 8 0 6
v 8 0 7
v 8 0 8
v 7.999998 -0.4821968 8.999999
v 7.999998 -0.4821968 9.999999
v 7 0 -10
v 7 0 -9
v 7 0 -8
v 7 0 -7
v 7 0 -6
v 7 0 -5
v 7 0 -4
v 7 0 -3
v 7 0 -2
v 7 0 -1
v 7 0 0
v 7 0 1
v 7 0 2
v 7 0 3
v 7 0 4
v 7 0 5
v 7 0 6
v 7 0 7
v 7 0 8
v 7 0 9
v 7 0 10
v 6 0 -10
v 6 0 -9
v 6 0 -8
v 6 0 -7
v 6 0 -6
v 6 0 -5
v 6 0 -4
v 6 0 -3
v 6 0 -2
v 6 0 -1
v 6 0 0
v 6 0 1
v 6 0 2
v 6 0 3
v 6 0 4
v 6 0 5
v 6 0 6
v 6 0 7
v 6 0 8
v 6 0 9
v 6 0 10
v 5 0 -10
v 5 0 -9
v 5 0 -8
v 5 0 -7
v 5 0 -6
v 5 0 -5
v 5 0 -4
v 5 0 -3
v 5 0 -2
v 5 0 -1
v 5 0 0
v 5 0 1
v 5 0 2
v 5 0 3
v 5 0 4
v 5 0 5
v 5 0 6
v 5 0 7
v 5 0 8
v 5 0 9
v 5 0 10
v 4 0 -10
v 4 0 -9
v 4 0 -8
v 4 0 -7
v 4 0 -6
v 4 0 -5
v 4 0 -4
v 4 0 -3
v 4 0 -2
v 4 0 -1
v 4 0 0
v 4 0 1
v 4 0 2
v 4 0 3
v 4 0 4
v 4 0 5
v 4 0 6
v 4 0 7
v 4 0 8
v 4 0 9
v 4 0 10
v 3 0 -10
v 3 0 -9
v 3 0 -8
v 3 0 -7
v 3 0 -6
v 3 0 -5
v 3 0 -4
v 3 0 -3
v 3 0 -2
v 3 0 -1
v 3 0 0
v 3 0 1
v 3 0 2
v 3 0 3
v 3 0 4
v 3 0 5
v 3 0 6
v 3 0 7
v 3 0 8
v 3 0 9
v 3 0 10
v 2 0 -10
v 2 0 -9
v 2 0 -8
v 2 0 -7
v 2 0 -6
v 2 0 -5
v 2 0 -4
v 2 0 -3
v 2 0 -2
v 2 0 -1
v 2 0 0
v 2 0 1
v 2 0 2
v 2 0 3
v 2 0 4
v 2 0 5
v 2 0 6
v 2 0 7
v 2 0 8
v 2 0 9
v 2 0 10
v 1 0 -10
v 1 0 -9
v 1 0 -8
v 1 0 -7
v 1 0 -6
v 1 0 -5
v 1 0 -4
v 1 0 -3
v 1 0 -2
v 1 0 -1
v 1 0 0
v 1 0 1
v 1 0 2
v 1 0 3
v 1 0 4
v 1 0 5
v 1 0 6
v 1 0 7
v 1 0 8
v 1 0 9
v 1 0 10
v 0 0 -10
v 0 0 -9
v 0 0 -8
v 0 0 -7
v 0 0 -6
v 0 0 -5
v 0 0 -4
v 0 0 -3
v 0 0 -2
v 0 0 -1
v 0 0 0
v 0 0 1
v 0 0 2
v 0 0 3
v 0 0 4
v 0 0 5
v 0 0 6
v 0 0 7
v 0 0 8
v 0 0 9
v 0 0 10
v -1 0 -10
v -1 0 -9
v -1 0 -8
v -1 0 -7
v -1 0 -6
v -1 0 -5
v -1 0 -4
v -1 0 -3
v -1 0 -2
v -1 0 -1
v -1 0 0
v -1 0 1
v -1 0 2
v -1 0 3
v -1 0 4
v -1 0 5
v -1 0 6
v -1 0 7
v -1 0 8
v -1 0 9
v -1 0 10
v -2 0 -10
v -2 0 -9
v -2 0 -8
v -2 0 -7
v -2 0 -6
v -2 0 -5
v -2 0 -4
v -2 0 -3
v -2 0 -2
v -2 0 -1
v -2 0 0
v -2 0 1
v -2 0 2
v -2 0 3
v -2 0 4
v -2 0 5
v -2 0 6
v -2 0 7
v -2 0 8
v -2 0 9
v -2 0 10
v -3 0 -10
v -3 0 -9
v -3 0 -8
v -3 0 -7
v -3 0 -6
v -3 0 -5
v -3 0 -4
v -3 0 -3
v -3 0 -2
v -3 0 -1
v -3 0 0
v -3 0 1
v -3 0 2
v -3 0 3
v -3 0 4
v -3 0 5
v -3 0 6
v -3 0 7
v -3 0 8
v -3 0 9
v -3 0 10
v -4 0 -10
v -4 0 -9
v -4 0 -8
v -4 0 -7
v -4 0 -6
v -4 0 -5
v -4 0 -4
v -4 0 -3
v -4 0 -2
v -4 0 -1
v -4 0 0
v -4 0 1
v -4 0 2
v -4 0 3
v -4 0 4
v -4 0 5
v -4 0 6
v -4 0 7
v -4 0 8
v -4 0 9
v -4 0 10
v -5 0 -10
v -5 0 -9
v -5 0 -8
v -5 0 -7
v -5 0 -6
v -5 0 -5
v -5 0 -4
v -5 0 -3
v -5 0 -2
v -5 0 -1
v -5 0 0
v -5 0 1
v -5 0 2
v -5 0 3
v -5 0 4
v -5 0 5
v -5 0 6
v -5 0 7
v -5 0 8
v -5 0 9
v -5 0 10
v -6 0 -10
v -6 0 -9
v -6 0 -8
v -6 0 -7
v -6 0 -6
v -6 0 -5
v -6 0 -4
v -6 0 -3
v -6 0 -2
v -6 0 -1
v -6 0 0
v -6 0 1
v -6 0 2
v -6 0 3
v -6 0 4
v -6 0 5
v -6 0 6
v -6 0 7
v -6 0 8
v -6 0 9
v -6 0 10
v -7 0 -10
v -7 0 -9
v -7 0 -8
v -7 0 -7
v -7 0 -6
v -7 0 -5
v -7 0 -4
v -7 0 -3
v -7 0 -2
v -7 0 -1
v -7 0 0
v -7 0 1
v -7 0 2
v -7 0 3
v -7 0 4
v -7 0 5
v -7 0 6
v -7 0 7
v -7 0 8
v -7 0 9
v -7 0 10
v -8 0 -10
v -8 0 -9
v -8 0 -8
v -8 0 -7
v -8 0 -6
v -8 0 -5
v -8 0 -4
v -8 0 -3
v -8 0 -2
v -8 0 -1
v -8 0 0
v -8 0 1
v -8 0 2
v -8 0 3
v -8 0 4
v -8 0 5
v -8 0 6
v -8 0 7
v -8 0 8
v -8 0 9
v -8 0 10
v -9 0 -10
v -9 0 -9
v -9 0 -8
v -9 0 -7
v -9 0 -6
v -9 0 -5
v -9 0 -4
v -9 0 -3
v -9 0 -2
v -9 0 -1
v -9 0 0
v -9 0 1
v -9 0 2
v -9 0 3
v -9 0 4
v -9 0 5
v -9 0 6
v -9 0 7
v -9 0 8
v -9 0 9
v -9 0 10
v -10 0 -10
v -10 0 -9
v -10 0 -8
v -10 0 -7
v -10 0 -6
v -10 0 -5
v -10 0 -4
v -10 0 -3
v -10 0 -2
v -10 0 -1
v -10 0 0
v -10 0 1
v -10 0 2
v -10 0 3
v -10 0 4
v -10 0 5
v -10 0 6
v -10 0 7
v -10 0 8
v -10 0 9
v -10 0 10

vt -10 -10
vt -10 -9
vt -9 -10
vt -9 -9
vt -10 -8
vt -9 -8
vt -10 -7
vt -9 -7
vt -10 -6
vt -9 -6
vt -10 -5
vt -9 -5
vt -10 -4
vt -9 -4
vt -10 -3
vt -9 -3
vt -10 -2
vt -9 -2
vt -10 -1
vt -9 -1
vt -10 0
vt -9 0
vt -10 1
vt -9 1
vt -10 2
vt -9 2
vt -10 3
vt -9 3
vt -10 4
vt -9 4
vt -10 5
vt -9 5
vt -10 6
vt -9 6
vt -10 7
vt -9 7
vt -10 6.305246
vt -9.999998 7.415432
vt -9 6.305246
vt -8.999998 7.415432
vt -9.999998 7.999999
vt -9.999998 8.999999
vt -8.999998 8
vt -8.999998 8.999999
vt -9.999998 9.999999
vt -8.999998 9.999999
vt -8 -10
vt -8 -9
vt -8 -8
vt -8 -7
vt -8 -6
vt -8 -5
vt -8 -4
vt -8 -3
vt -8 -2
vt -8 -1
vt -8 0
vt -8 1
vt -8 2
vt -8 3
vt -8 4
vt -8 5
vt -8 6
vt -8 7
vt -8 6.305247
vt -8 7.205997
vt -8.31618 8
vt -8.31618 8.999999
vt -7.205995 8
vt -7.415431 8.999999
vt -7.999998 8.999999
vt -7.999998 9.999999
vt -7 -10
vt -7 -9
vt -7 -8
vt -7 -7
vt -7 -6
vt -7 -5
vt -7 -4
vt -7 -3
vt -7 -2
vt -7 -1
vt -7 0
vt -7 1
vt -7 2
vt -7 3
vt -7 4
vt -7 5
vt -7 6
vt -7 7
vt -8 8
vt -7 8
vt -7.999998 8.316181
vt -7 7.205996
vt -7 8.106746
vt -7.41543 9.999999
vt -6.305245 9
vt -6.305245 10
vt -6 -10
vt -6 -9
vt -6 -8
vt -6 -7
vt -6 -6
vt -6 -5
vt -6 -4
vt -6 -3
vt -6 -2
vt -6 -1
vt -6 0
vt -6 1
vt -6 2
vt -6 3
vt -6 4
vt -6 5
vt -6 6
vt -6 7
vt -6 8
vt -7 9
vt -6 9
vt -7 10
vt -6 10
vt -5 -10
vt -5 -9
vt -5 -8
vt -5 -7
vt -5 -6
vt -5 -5
vt -5 -4
vt -5 -3
vt -5 -2
vt -5 -1
vt -5 0
vt -5 1
vt -5 2
vt -5 3
vt -5 4
vt -5 5
vt -5 6
vt -5 7
vt -5 8
vt -5 9
vt -5 10
vt -4 -10
vt -4 -9
vt -4 -8
vt -4 -7
vt -4 -6
vt -4 -5
vt -4 -4
vt -4 -3
vt -4 -2
vt -4 -1
vt -4 0
vt -4 1
vt -4 2
vt -4 3
vt -4 4
vt -4 5
vt -4 6
vt -4 7
vt -4 8
vt -4 9
vt -4 10
vt -3 -10
vt -3 -9
vt -3 -8
vt -3 -7
vt -3 -6
vt -3 -5
vt -3 -4
vt -3 -3
vt -3 -2
vt -3 -1
vt -3 0
vt -3 1
vt -3 2
vt -3 3
vt -3 4
vt -3 5
vt -3 6
vt -3 7
vt -3 8
vt -3 9
vt -3 10
vt -2 -10
vt -2 -9
vt -2 -8
vt -2 -7
vt -2 -6
vt -2 -5
vt -2 -4
vt -2 -3
vt -2 -2
vt -2 -1
vt -2 0
vt -2 1
vt -2 2
vt -2 3
vt -2 4
vt -2 5
vt -2 6
vt -2 7
vt -2 8
vt -2 9
vt -2 10
vt -1 -10
vt -1 -9
vt -1 -8
vt -1 -7
vt -1 -6
vt -1 -5
vt -1 -4
vt -1 -3
vt -1 -2
vt -1 -1
vt -1 0
vt -1 1
vt -1 2
vt -1 3
vt -1 4
vt -1 5
vt -1 6
vt -1 7
vt -1 8
vt -1 9
vt -1 10
vt 0 -10
vt 0 -9
vt 0 -8
vt 0 -7
vt 0 -6
vt 0 -5
vt 0 -4
vt 0 -3
vt 0 -2
vt 0 -1
vt 0 0
vt 0 1
vt 0 2
vt 0 3
vt 0 4
vt 0 5
vt 0 6
vt 0 7
vt 0 8
vt 0 9
vt 0 10
vt 1 -10
vt 1 -9
vt 1 -8
vt 1 -7
vt 1 -6
vt 1 -5
vt 1 -4
vt 1 -3
vt 1 -2
vt 1 -1
vt 1 0
vt 1 1
vt 1 2
vt 1 3
vt 1 4
vt 1 5
vt 1 6
vt 1 7
vt 1 8
vt 1 9
vt 1 10
vt 2 -10
vt 2 -9
vt 2 -8
vt 2 -7
vt 2 -6
vt 2 -5
vt 2 -4
vt 2 -3
vt 2 -2
vt 2 -1
vt 2 0
vt 2 1
vt 2 2
vt 2 3
vt 2 4
vt 2 5
vt 2 6
vt 2 7
vt 2 8
vt 2 9
vt 2 10
vt 3 -10
vt 3 -9
vt 3 -8
vt 3 -7
vt 3 -6
vt 3 -5
vt 3 -4
vt 3 -3
vt 3 -2
vt 3 -1
vt 3 0
vt 3 1
vt 3 2
vt 3 3
vt 3 4
vt 3 5
vt 3 6
vt 3 7
vt 3 8
vt 3 9
vt 3 10
vt 4 -10
vt 4 -9
vt 4 -8
vt 4 -7
vt 4 -6
vt 4 -5
vt 4 -4
vt 4 -3
vt 4 -2
vt 4 -1
vt 4 0
vt 4 1
vt 4 2
vt 4 3
vt 4 4
vt 4 5
vt 4 6
vt 4 7
vt 4 8
vt 4 9
vt 4 10
vt 5 -10
vt 5 -9
vt 5 -8
vt 5 -7
vt 5 -6
vt 5 -5
vt 5 -4
vt 5 -3
vt 5 -2
vt 5 -1
vt 5 0
vt 5 1
vt 5 2
vt 5 3
vt 5 4
vt 5 5
vt 5 6
vt 5 7
vt 5 8
vt 5 9
vt 5 10
vt 6 -10
vt 6 -9
vt 6 -8
vt 6 -7
vt 6 -6
vt 6 -5
vt 6 -4
vt 6 -3
vt 6 -2
vt 6 -1
vt 6 0
vt 6 1
vt 6 2
vt 6 3
vt 6 4
vt 6 5
vt 6 6
vt 6 7
vt 6 8
vt 6 9
vt 6 10
vt 7 -10
vt 7 -9
vt 7 -8
vt 7 -7
vt 7 -6
vt 7 -5
vt 7 -4
vt 7 -3
vt 7 -2
vt 7 -1
vt 7 0
vt 7 1
vt 7 2
vt 7 3
vt 7 4
vt 7 5
vt 7 6
vt 7 7
vt 7 8
vt 7 9
vt 7 10
vt 8 -10
vt 8 -9
vt 8 -8
vt 8 -7
vt 8 -6
vt 8 -5
vt 8 -4
vt 8 -3
vt 8 -2
vt 8 -1
vt 8 0
vt 8 1
vt 8 2
vt 8 3
vt 8 4
vt 8 5
vt 8 6
vt 8 7
vt 8 8
vt 8 9
vt 8 10
vt 9 -10
vt 9 -9
vt 9 -8
vt 9 -7
vt 9 -6
vt 9 -5
vt 9 -4
vt 9 -3
vt 9 -2
vt 9 -1
vt 9 0
vt 9 1
vt 9 2
vt 9 3
vt 9 4
vt 9 5
vt 9 6
vt 9 7
vt 9 8
vt 9 9
vt 9 10
vt 10 -10
vt 10 -9
vt 10 -8
vt 10 -7
vt 10 -6
vt 10 -5
vt 10 -4
vt 10 -3
vt 10 -2
vt 10 -1
vt 10 0
vt 10 1
vt 10 2
vt 10 3
vt 10 4
vt 10 5
vt 10 6
vt 10 7
vt 10 8
vt 10 9
vt 10 10

vn 0 1 0
vn 0 0.9007495 0.434339
vn 0.2171696 0.9007494 0.2171694
vn 0.4343393 0.9007493 0

usemtl RedSandAll
f 3/3/1 4/4/1 2/2/1 1/1/1
f 4/4/1 6/6/1 5/5/1 2/2/1
f 6/6/1 8/8/1 7/7/1 5/5/1
f 10/10/1 12/12/1 11/11/1 9/9/1
f 12/12/1 14/14/1 13/13/1 11/11/1
f 14/14/1 16/16/1 15/15/1 13/13/1
f 16/16/1 18/18/1 17/17/1 15/15/1
f 18/18/1 20/20/1 19/19/1 17/17/1
f 20/20/1 22/22/1 21/21/1 19/19/1
f 22/22/1 24/24/1 23/23/1 21/21/1
f 24/24/1 26/26/1 25/25/1 23/23/1
f 26/26/1 28/28/1 27/27/1 25/25/1
f 28/28/1 30/30/1 29/29/1 27/27/1
f 30/30/1 32/32/1 31/31/1 29/29/1
f 32/32/1 34/34/1 33/33/1 31/31/1
f 38/43/1 40/44/1 39/42/1 37/41/1
f 40/44/1 42/46/1 41/45/1 39/42/1
f 43/47/1 44/48/1 4/4/1 3/3/1
f 44/48/1 45/49/1 6/6/1 4/4/1
f 45/49/1 46/50/1 8/8/1 6/6/1
f 47/51/1 48/52/1 12/12/1 10/10/1
f 48/52/1 49/53/1 14/14/1 12/12/1
f 49/53/1 50/54/1 16/16/1 14/14/1
f 50/54/1 51/55/1 18/18/1 16/16/1
f 51/55/1 52/56/1 20/20/1 18/18/1
f 52/56/1 53/57/1 22/22/1 20/20/1
f 53/57/1 54/58/1 24/24/1 22/22/1
f 54/58/1 55/59/1 26/26/1 24/24/1
f 55/59/1 56/60/1 28/28/1 26/26/1
f 56/60/1 57/61/1 30/30/1 28/28/1
f 57/61/1 58/62/1 32/32/1 30/30/1
f 58/62/1 59/63/1 34/34/1 32/32/1
f 62/71/1 63/72/1 42/46/1 40/44/1
f 64/73/1 65/74/1 44/48/1 43/47/1
f 65/74/1 66/75/1 45/49/1 44/48/1
f 68/77/1 69/78/1 48/52/1 47/51/1
f 69/78/1 70/79/1 49/53/1 48/52/1
f 70/79/1 71/80/1 50/54/1 49/53/1
f 71/80/1 72/81/1 51/55/1 50/54/1
f 72/81/1 73/82/1 52/56/1 51/55/1
f 73/82/1 74/83/1 53/57/1 52/56/1
f 74/83/1 75/84/1 54/58/1 53/57/1
f 75/84/1 76/85/1 55/59/1 54/58/1
f 76/85/1 77/86/1 56/60/1 55/59/1
f 77/86/1 78/87/1 57/61/1 56/60/1
f 78/87/1 79/88/1 58/62/1 57/61/1
f 79/88/1 80/89/1 59/63/1 58/62/1
f 80/89/1 81/90/1 60/64/1 59/63/1
f 89/103/1 90/104/1 69/78/1 68/77/1
f 90/104/1 91/105/1 70/79/1 69/78/1
f 91/105/1 92/106/1 71/80/1 70/79/1
f 92/106/1 93/107/1 72/81/1 71/80/1
f 93/107/1 94/108/1 73/82/1 72/81/1
f 94/108/1 95/109/1 74/83/1 73/82/1
f 95/109/1 96/110/1 75/84/1 74/83/1
f 96/110/1 97/111/1 76/85/1 75/84/1
f 97/111/1 98/112/1 77/86/1 76/85/1
f 98/112/1 99/113/1 78/87/1 77/86/1
f 99/113/1 100/114/1 79/88/1 78/87/1
f 100/114/1 101/115/1 80/89/1 79/88/1
f 101/115/1 102/116/1 81/90/1 80/89/1
f 109/125/1 110/126/1 89/103/1 88/102/1
f 110/126/1 111/127/1 90/104/1 89/103/1
f 111/127/1 112/128/1 91/105/1 90/104/1
f 112/128/1 113/129/1 92/106/1 91/105/1
f 113/129/1 114/130/1 93/107/1 92/106/1
f 114/130/1 115/131/1 94/108/1 93/107/1
f 117/133/1 118/134/1 97/111/1 96/110/1
f 118/134/1 119/135/1 98/112/1 97/111/1
f 119/135/1 120/136/1 99/113/1 98/112/1
f 120/136/1 121/137/1 100/114/1 99/113/1
f 121/137/1 122/138/1 101/115/1 100/114/1
f 122/138/1 123/139/1 102/116/1 101/115/1
f 123/139/1 124/140/1 103/117/1 102/116/1
f 124/140/1 125/141/1 104/119/1 103/117/1
f 125/141/1 126/142/1 105/121/1 104/119/1
f 127/143/1 128/144/1 107/123/1 106/122/1
f 128/144/1 129/145/1 108/124/1 107/123/1
f 129/145/1 130/146/1 109/125/1 108/124/1
f 130/146/1 131/147/1 110/126/1 109/125/1
f 131/147/1 132/148/1 111/127/1 110/126/1
f 135/151/1 136/152/1 115/131/1 114/130/1
f 138/154/1 139/155/1 118/134/1 117/133/1
f 142/158/1 143/159/1 122/138/1 121/137/1
f 143/159/1 144/160/1 123/139/1 122/138/1
f 144/160/1 145/161/1 124/140/1 123/139/1
f 145/161/1 146/162/1 125/141/1 124/140/1
f 146/162/1 147/163/1 126/142/1 125/141/1
f 148/164/1 149/165/1 128/144/1 127/143/1
f 149/165/1 150/166/1 129/145/1 128/144/1
f 150/166/1 151/167/1 130/146/1 129/145/1
f 151/167/1 152/168/1 131/147/1 130/146/1
f 152/168/1 153/169/1 132/148/1 131/147/1
f 156/172/1 157/173/1 136/152/1 135/151/1
f 157/173/1 158/174/1 137/153/1 136/152/1
f 158/174/1 159/175/1 138/154/1 137/153/1
f 159/175/1 160/176/1 139/155/1 138/154/1
f 163/179/1 164/180/1 143/159/1 142/158/1
f 164/180/1 165/181/1 144/160/1 143/159/1
f 165/181/1 166/182/1 145/161/1 144/160/1
f 166/182/1 167/183/1 146/162/1 145/161/1
f 167/183/1 168/184/1 147/163/1 146/162/1
f 169/185/1 170/186/1 149/165/1 148/164/1
f 170/186/1 171/187/1 150/166/1 149/165/1
f 171/187/1 172/188/1 151/167/1 150/166/1
f 172/188/1 173/189/1 152/168/1 151/167/1
f 173/189/1 174/190/1 153/169/1 152/168/1
f 177/193/1 178/194/1 157/173/1 156/172/1
f 178/194/1 179/195/1 158/174/1 157/173/1
f 179/195/1 180/196/1 159/175/1 158/174/1
f 180/196/1 181/197/1 160/176/1 159/175/1
f 184/200/1 185/201/1 164/180/1 163/179/1
f 185/201/1 186/202/1 165/181/1 164/180/1
f 186/202/1 187/203/1 166/182/1 165/181/1
f 187/203/1 188/204/1 167/183/1 166/182/1
f 188/204/1 189/205/1 168/184/1 167/183/1
f 190/206/1 191/207/1 170/186/1 169/185/1
f 191/207/1 192/208/1 171/187/1 170/186/1
f 192/208/1 193/209/1 172/188/1 171/187/1
f 193/209/1 194/210/1 173/189/1 172/188/1
f 194/210/1 195/211/1 174/190/1 173/189/1
f 195/211/1 196/212/1 175/191/1 174/190/1
f 196/212/1 197/213/1 176/192/1 175/191/1
f 197/213/1 198/214/1 177/193/1 176/192/1
f 202/218/1 203/219/1 182/198/1 181/197/1
f 203/219/1 204/220/1 183/199/1 182/198/1
f 204/220/1 205/221/1 184/200/1 183/199/1
f 205/221/1 206/222/1 185/201/1 184/200/1
f 206/222/1 207/223/1 186/202/1 185/201/1
f 207/223/1 208/224/1 187/203/1 186/202/1
f 208/224/1 209/225/1 188/204/1 187/203/1
f 209/225/1 210/226/1 189/205/1 188/204/1
f 211/227/1 212/228/1 191/207/1 190/206/1
f 212/228/1 213/229/1 192/208/1 191/207/1
f 213/229/1 214/230/1 193/209/1 192/208/1
f 214/230/1 215/231/1 194/210/1 193/209/1
f 217/233/1 218/234/1 197/213/1 196/212/1
f 218/234/1 219/235/1 198/214/1 197/213/1
f 220/236/1 221/237/1 200/216/1 199/215/1
f 221/237/1 222/238/1 201/217/1 200/216/1
f 223/239/1 224/240/1 203/219/1 202/218/1
f 224/240/1 225/241/1 204/220/1 203/219/1
f 227/243/1 228/244/1 207/223/1 206/222/1
f 228/244/1 229/245/1 208/224/1 207/223/1
f 229/245/1 230/246/1 209/225/1 208/224/1
f 230/246/1 231/247/1 210/226/1 209/225/1
f 232/248/1 233/249/1 212/228/1 211/227/1
f 233/249/1 234/250/1 213/229/1 212/228/1
f 234/250/1 235/251/1 214/230/1 213/229/1
f 235/251/1 236/252/1 215/231/1 214/230/1
f 238/254/1 239/255/1 218/234/1 217/233/1
f 239/255/1 240/256/1 219/235/1 218/234/1
f 241/257/1 242/258/1 221/237/1 220/236/1
f 242/258/1 243/259/1 222/238/1 221/237/1
f 244/260/1 245/261/1 224/240/1 223/239/1
f 245/261/1 246/262/1 225/241/1 224/240/1
f 248/264/1 249/265/1 228/244/1 227/243/1
f 249/265/1 250/266/1 229/245/1 228/244/1
f 250/266/1 251/267/1 230/246/1 229/245/1
f 251/267/1 252/268/1 231/247/1 230/246/1
f 253/269/1 254/270/1 233/249/1 232/248/1
f 254/270/1 255/271/1 234/250/1 233/249/1
f 255/271/1 256/272/1 235/251/1 234/250/1
f 256/272/1 257/273/1 236/252/1 235/251/1
f 257/273/1 258/274/1 237/253/1 236/252/1
f 258/274/1 259/275/1 238/254/1 237/253/1
f 259/275/1 260/276/1 239/255/1 238/254/1
f 260/276/1 261/277/1 240/256/1 239/255/1
f 265/281/1 266/282/1 245/261/1 244/260/1
f 266/282/1 267/283/1 246/262/1 245/261/1
f 267/283/1 268/284/1 247/263/1 246/262/1
f 268/284/1 269/285/1 248/264/1 247/263/1
f 269/285/1 270/286/1 249/265/1 248/264/1
f 270/286/1 271/287/1 250/266/1 249/265/1
f 271/287/1 272/288/1 251/267/1 250/266/1
f 272/288/1 273/289/1 252/268/1 251/267/1
f 274/290/1 275/291/1 254/270/1 253/269/1
f 275/291/1 276/292/1 255/271/1 254/270/1
f 276/292/1 277/293/1 256/272/1 255/271/1
f 277/293/1 278/294/1 257/273/1 256/272/1
f 278/294/1 279/295/1 258/274/1 257/273/1
f 282/298/1 283/299/1 262/278/1 261/277/1
f 283/299/1 284/300/1 263/279/1 262/278/1
f 284/300/1 285/301/1 264/280/1 263/279/1
f 285/301/1 286/302/1 265/281/1 264/280/1
f 289/305/1 290/306/1 269/285/1 268/284/1
f 290/306/1 291/307/1 270/286/1 269/285/1
f 291/307/1 292/308/1 271/287/1 270/286/1
f 292/308/1 293/309/1 272/288/1 271/287/1
f 293/309/1 294/310/1 273/289/1 272/288/1
f 295/311/1 296/312/1 275/291/1 274/290/1
f 296/312/1 297/313/1 276/292/1 275/291/1
f 297/313/1 298/314/1 277/293/1 276/292/1
f 298/314/1 299/315/1 278/294/1 277/293/1
f 299/315/1 300/316/1 279/295/1 278/294/1
f 303/319/1 304/320/1 283/299/1 282/298/1
f 304/320/1 305/321/1 284/300/1 283/299/1
f 305/321/1 306/322/1 285/301/1 284/300/1
f 306/322/1 307/323/1 286/302/1 285/301/1
f 310/326/1 311/327/1 290/306/1 289/305/1
f 311/327/1 312/328/1 291/307/1 290/306/1
f 312/328/1 313/329/1 292/308/1 291/307/1
f 313/329/1 314/330/1 293/309/1 292/308/1
f 314/330/1 315/331/1 294/310/1 293/309/1
f 316/332/1 317/333/1 296/312/1 295/311/1
f 317/333/1 318/334/1 297/313/1 296/312/1
f 318/334/1 319/335/1 298/314/1 297/313/1
f 319/335/1 320/336/1 299/315/1 298/314/1
f 320/336/1 321/337/1 300/316/1 299/315/1
f 324/340/1 325/341/1 304/320/1 303/319/1
f 327/343/1 328/344/1 307/323/1 306/322/1
f 331/347/1 332/348/1 311/327/1 310/326/1
f 332/348/1 333/349/1 312/328/1 311/327/1
f 333/349/1 334/350/1 313/329/1 312/328/1
f 334/350/1 335/351/1 314/330/1 313/329/1
f 335/351/1 336/352/1 315/331/1 314/330/1
f 337/353/1 338/354/1 317/333/1 316/332/1
f 338/354/1 339/355/1 318/334/1 317/333/1
f 339/355/1 340/356/1 319/335/1 318/334/1
f 340/356/1 341/357/1 320/336/1 319/335/1
f 341/357/1 342/358/1 321/337/1 320/336/1
f 342/358/1 343/359/1 322/338/1 321/337/1
f 343/359/1 344/360/1 323/339/1 322/338/1
f 344/360/1 345/361/1 324/340/1 323/339/1
f 345/361/1 346/362/1 325/341/1 324/340/1
f 348/364/1 349/365/1 328/344/1 327/343/1
f 349/365/1 350/366/1 329/345/1 328/344/1
f 350/366/1 351/367/1 330/346/1 329/345/1
f 351/367/1 352/368/1 331/347/1 330/346/1
f 352/368/1 353/369/1 332/348/1 331/347/1
f 353/369/1 354/370/1 333/349/1 332/348/1
f 362/378/1 363/379/1 342/358/1 341/357/1
f 363/379/1 364/380/1 343/359/1 342/358/1
f 364/380/1 365/381/1 344/360/1 343/359/1
f 365/381/1 366/382/1 345/361/1 344/360/1
f 366/382/1 367/383/1 346/362/1 345/361/1
f 367/383/1 368/384/1 347/363/1 346/362/1
f 368/384/1 369/385/1 348/364/1 347/363/1
f 369/385/1 370/386/1 349/365/1 348/364/1
f 370/386/1 371/387/1 350/366/1 349/365/1
f 371/387/1 372/388/1 351/367/1 350/366/1
f 372/388/1 373/389/1 352/368/1 351/367/1
f 373/389/1 374/390/1 353/369/1 352/368/1
f 379/395/1 380/396/1 359/375/1 358/374/1
f 380/396/1 381/397/1 360/376/1 359/375/1
f 383/399/1 384/400/1 363/379/1 362/378/1
f 384/400/1 385/401/1 364/380/1 363/379/1
f 385/401/1 386/402/1 365/381/1 364/380/1
f 386/402/1 387/403/1 366/382/1 365/381/1
f 387/403/1 388/404/1 367/383/1 366/382/1
f 388/404/1 389/405/1 368/384/1 367/383/1
f 389/405/1 390/406/1 369/385/1 368/384/1
f 390/406/1 391/407/1 370/386/1 369/385/1
f 391/407/1 392/408/1 371/387/1 370/386/1
f 392/408/1 393/409/1 372/388/1 371/387/1
f 393/409/1 394/410/1 373/389/1 372/388/1
f 394/410/1 395/411/1 374/390/1 373/389/1
f 400/416/1 401/417/1 380/396/1 379/395/1
f 401/417/1 402/418/1 381/397/1 380/396/1
f 402/418/1 403/419/1 382/398/1 381/397/1
f 404/420/1 405/421/1 384/400/1 383/399/1
f 405/421/1 406/422/1 385/401/1 384/400/1
f 406/422/1 407/423/1 386/402/1 385/401/1
f 407/423/1 408/424/1 387/403/1 386/402/1
f 408/424/1 409/425/1 388/404/1 387/403/1
f 409/425/1 410/426/1 389/405/1 388/404/1
f 410/426/1 411/427/1 390/406/1 389/405/1
f 411/427/1 412/428/1 391/407/1 390/406/1
f 412/428/1 413/429/1 392/408/1 391/407/1
f 413/429/1 414/430/1 393/409/1 392/408/1
f 414/430/1 415/431/1 394/410/1 393/409/1
f 415/431/1 416/432/1 395/411/1 394/410/1
f 421/437/1 422/438/1 401/417/1 400/416/1
f 422/438/1 423/439/1 402/418/1 401/417/1
f 423/439/1 424/440/1 403/419/1 402/418/1
f 425/441/1 426/442/1 405/421/1 404/420/1
f 426/442/1 427/443/1 406/422/1 405/421/1
f 427/443/1 428/444/1 407/423/1 406/422/1
f 428/444/1 429/445/1 408/424/1 407/423/1
f 429/445/1 430/446/1 409/425/1 408/424/1
f 430/446/1 431/447/1 410/426/1 409/425/1
f 431/447/1 432/448/1 411/427/1 410/426/1
f 432/448/1 433/449/1 412/428/1 411/427/1
f 433/449/1 434/450/1 413/429/1 412/428/1
f 434/450/1 435/451/1 414/430/1 413/429/1
f 435/451/1 436/452/1 415/431/1 414/430/1
f 436/452/1 437/453/1 416/432/1 415/431/1

usemtl RedSandDarkAll
f 8/8/1 10/10/1 9/9/1 7/7/1
f 46/50/1 47/51/1 10/10/1 8/8/1
f 66/75/1 67/76/1 46/50/1 45/49/1
f 67/76/1 68/77/1 47/51/1 46/50/1
f 85/99/1 86/100/1 65/74/1 64/73/1
f 86/100/1 87/101/1 66/75/1 65/74/1
f 87/101/1 88/102/1 67/76/1 66/75/1
f 106/122/1 107/123/1 86/100/1 85/99/1
f 107/123/1 108/124/1 87/101/1 86/100/1
f 115/131/1 116/132/1 95/109/1 94/108/1
f 116/132/1 117/133/1 96/110/1 95/109/1
f 133/149/1 134/150/1 113/129/1 112/128/1
f 136/152/1 137/153/1 116/132/1 115/131/1
f 137/153/1 138/154/1 117/133/1 116/132/1
f 140/156/1 141/157/1 120/136/1 119/135/1
f 153/169/1 154/170/1 133/149/1 132/148/1
f 154/170/1 155/171/1 134/150/1 133/149/1
f 155/171/1 156/172/1 135/151/1 134/150/1
f 160/176/1 161/177/1 140/156/1 139/155/1
f 161/177/1 162/178/1 141/157/1 140/156/1
f 162/178/1 163/179/1 142/158/1 141/157/1
f 175/191/1 176/192/1 155/171/1 154/170/1
f 182/198/1 183/199/1 162/178/1 161/177/1
f 199/215/1 200/216/1 179/195/1 178/194/1
f 200/216/1 201/217/1 180/196/1 179/195/1
f 215/231/1 216/232/1 195/211/1 194/210/1
f 216/232/1 217/233/1 196/212/1 195/211/1
f 219/235/1 220/236/1 199/215/1 198/214/1
f 222/238/1 223/239/1 202/218/1 201/217/1
f 225/241/1 226/242/1 205/221/1 204/220/1
f 226/242/1 227/243/1 206/222/1 205/221/1
f 236/252/1 237/253/1 216/232/1 215/231/1
f 237/253/1 238/254/1 217/233/1 216/232/1
f 240/256/1 241/257/1 220/236/1 219/235/1
f 243/259/1 244/260/1 223/239/1 222/238/1
f 246/262/1 247/263/1 226/242/1 225/241/1
f 247/263/1 248/264/1 227/243/1 226/242/1
f 262/278/1 263/279/1 242/258/1 241/257/1
f 263/279/1 264/280/1 243/259/1 242/258/1
f 280/296/1 281/297/1 260/276/1 259/275/1
f 287/303/1 288/304/1 267/283/1 266/282/1
f 300/316/1 301/317/1 280/296/1 279/295/1
f 301/317/1 302/318/1 281/297/1 280/296/1
f 302/318/1 303/319/1 282/298/1 281/297/1
f 307/323/1 308/324/1 287/303/1 286/302/1
f 308/324/1 309/325/1 288/304/1 287/303/1
f 309/325/1 310/326/1 289/305/1 288/304/1
f 322/338/1 323/339/1 302/318/1 301/317/1
f 325/341/1 326/342/1 305/321/1 304/320/1
f 326/342/1 327/343/1 306/322/1 305/321/1
f 329/345/1 330/346/1 309/325/1 308/324/1
f 346/362/1 347/363/1 326/342/1 325/341/1
f 347/363/1 348/364/1 327/343/1 326/342/1
f 355/371/1 356/372/1 335/351/1 334/350/1
f 358/374/1 359/375/1 338/354/1 337/353/1
f 359/375/1 360/376/1 339/355/1 338/354/1
f 360/376/1 361/377/1 340/356/1 339/355/1
f 375/391/1 376/392/1 355/371/1 354/370/1
f 376/392/1 377/393/1 356/372/1 355/371/1
f 377/393/1 378/394/1 357/373/1 356/372/1
f 381/397/1 382/398/1 361/377/1 360/376/1
f 382/398/1 383/399/1 362/378/1 361/377/1
f 395/411/1 396/412/1 375/391/1 374/390/1
f 396/412/1 397/413/1 376/392/1 375/391/1
f 397/413/1 398/414/1 377/393/1 376/392/1
f 398/414/1 399/415/1 378/394/1 377/393/1
f 403/419/1 404/420/1 383/399/1 382/398/1
f 416/432/1 417/433/1 396/412/1 395/411/1
f 417/433/1 418/434/1 397/413/1 396/412/1
f 418/434/1 419/435/1 398/414/1 397/413/1
f 419/435/1 420/436/1 399/415/1 398/414/1
f 424/440/1 425/441/1 404/420/1 403/419/1
f 437/453/1 438/454/1 417/433/1 416/432/1
f 438/454/1 439/455/1 418/434/1 417/433/1
f 439/455/1 440/456/1 419/435/1 418/434/1
f 440/456/1 441/457/1 420/436/1 419/435/1

usemtl MidSand_1
f 134/150/1 135/151/1 114/130/1 113/129/1
f 141/157/1 142/158/1 121/137/1 120/136/1
f 201/217/1 202/218/1 181/197/1 180/196/1
f 281/297/1 282/298/1 261/277/1 260/276/1
f 288/304/1 289/305/1 268/284/1 267/283/1
f 356/372/1 357/373/1 336/352/1 335/351/1
f 361/377/1 362/378/1 341/357/1 340/356/1

usemtl MidSand_2
f 88/102/1 89/103/1 68/77/1 67/76/1
f 108/124/1 109/125/1 88/102/1 87/101/1
f 176/192/1 177/193/1 156/172/1 155/171/1
f 183/199/1 184/200/1 163/179/1 162/178/1
f 264/280/1 265/281/1 244/260/1 243/259/1
f 323/339/1 324/340/1 303/319/1 302/318/1
f 330/346/1 331/347/1 310/326/1 309/325/1

usemtl MidSand_4
f 132/148/1 133/149/1 112/128/1 111/127/1
f 139/155/1 140/156/1 119/135/1 118/134/1
f 198/214/1 199/215/1 178/194/1 177/193/1
f 279/295/1 280/296/1 259/275/1 258/274/1
f 286/302/1 287/303/1 266/282/1 265/281/1
f 354/370/1 355/371/1 334/350/1 333/349/1
f 374/390/1 375/391/1 354/370/1 353/369/1

usemtl MidSand_3
f 174/190/1 175/191/1 154/170/1 153/169/1
f 181/197/1 182/198/1 161/177/1 160/176/1
f 261/277/1 262/278/1 241/257/1 240/256/1
f 321/337/1 322/338/1 301/317/1 300/316/1
f 328/344/1 329/345/1 308/324/1 307/323/1

usemtl GravelRedSand_2
f 59/63/1 60/64/1 36/36/1 34/34/1
f 102/116/1 103/117/1 82/92/1 81/90/1

usemtl GravelAll
f 34/34/1 36/36/1 35/35/1 33/33/1
f 81/90/1 82/92/1 61/91/1 60/64/1
f 103/117/1 104/119/1 83/118/1 82/92/1
f 104/119/1 105/121/1 84/120/1 83/118/1

usemtl GravelHor
f 83/97/4 84/98/4 63/96/4 62/70/4

usemtl GravelVert
f 36/39/2 38/40/2 37/38/2 35/37/2

usemtl GravelBase
f 60/65/3 61/66/4 38/40/3 36/39/2
f 61/69/3 62/70/2 40/68/3 38/67/4
f 82/94/3 83/95/4 62/93/3 61/66/2

