# Blender 3.4.1
# www.blender.org
mtllib RP.mtl
o RP
v 0.300000 -0.100000 0.000000
v 0.300000 -0.100000 -0.400000
v 0.300000 0.000000 -0.400000
v 0.300000 0.100000 -0.499900
v 0.300000 0.300000 -0.300000
v 0.300000 0.100000 -0.600000
v 0.300000 0.300000 -0.600000
v 0.300000 -0.100000 0.499900
v 0.300000 -0.200000 0.499900
v 0.300000 -0.200000 0.000000
v 0.300000 0.000000 0.400000
v 0.300000 0.000000 -0.499900
v -0.300000 0.000000 0.400000
v -0.300000 -0.100000 0.000000
v -0.300000 -0.200000 0.000000
v -0.300000 0.100000 -0.499900
v -0.300000 0.300000 -0.300000
v -0.300000 0.300000 -0.600000
v -0.300000 0.100000 -0.600000
v -0.300000 0.000000 -0.499900
v -0.300000 0.000000 -0.400000
v -0.300000 -0.100000 -0.400000
v -0.300000 -0.200000 0.499900
v -0.300000 -0.100000 0.499900
v -0.300000 -0.200000 0.499900
v 0.300000 -0.200000 0.499900
v 0.300000 -0.100000 0.499900
v -0.300000 -0.100000 0.499900
v 0.300000 0.000000 0.400000
v -0.300000 0.000000 0.400000
v -0.300000 -0.100000 0.499900
v 0.300000 -0.100000 0.499900
v -0.300000 0.000000 0.400000
v 0.300000 0.000000 0.400000
v 0.300000 0.300000 -0.300000
v -0.300000 0.300000 -0.300000
v -0.300000 0.300000 -0.300000
v 0.300000 0.300000 -0.300000
v 0.300000 0.300000 -0.600000
v -0.300000 0.300000 -0.600000
v -0.300000 0.100000 -0.600000
v -0.300000 0.100000 -0.499900
v -0.300000 0.000000 -0.499900
v -0.300000 0.000000 -0.400000
v -0.300000 -0.100000 -0.400000
v -0.300000 -0.100000 0.000000
v -0.300000 -0.200000 0.000000
v -0.300000 -0.200000 0.499900
vn 1.0000 -0.0000 -0.0000
vn -1.0000 -0.0000 -0.0000
vn -0.0000 -0.0000 1.0000
vn -0.0000 0.7071 0.7071
vn -0.0000 0.9191 0.3939
vn -0.0000 1.0000 -0.0000
s 0
usemtl App0
f 1//1 2//1 3//1
f 4//1 5//1 3//1
f 4//1 6//1 7//1
f 8//1 9//1 10//1
f 11//1 8//1 10//1
f 3//1 5//1 1//1
f 10//1 1//1 11//1
f 5//1 11//1 1//1
f 7//1 5//1 4//1
f 3//1 12//1 4//1
f 13//2 14//2 15//2
f 16//2 17//2 18//2
f 18//2 19//2 16//2
f 16//2 20//2 21//2
f 21//2 17//2 16//2
f 14//2 13//2 17//2
f 21//2 22//2 14//2
f 15//2 23//2 24//2
f 14//2 17//2 21//2
f 15//2 24//2 13//2
f 25//3 26//3 27//3
f 27//3 28//3 25//3
f 29//4 30//4 31//4
f 31//4 32//4 29//4
f 33//5 34//5 35//5
f 35//5 36//5 33//5
f 37//6 38//6 39//6
f 39//6 40//6 37//6
