# Blender 3.4.1
# www.blender.org
mtllib COMBAT_outline.mtl
o Untitled
v -10.500000 -1.400000 2.300000
v -10.500000 -1.400000 -2.400000
v -10.500000 1.500000 2.300000
v -10.500000 1.500000 -2.400000
v 9.400000 -2.000000 2.300000
v 9.400000 -2.000000 -2.400000
v 9.400000 0.600000 2.300000
v 9.400000 0.600000 -2.400000
v 10.600000 0.600000 2.300000
v 10.600000 0.600000 -2.400000
v 10.600000 2.099999 2.300000
v 10.600000 2.100000 -2.400000
v -10.500000 -1.400000 2.300000
v -10.500000 1.500000 2.300000
v -10.300000 -1.600000 2.300000
v -10.300000 -1.400000 2.300000
v -10.300000 1.500000 2.300000
v -10.300000 1.700000 2.300000
v -10.100000 -1.800000 2.300000
v -10.100000 -1.600000 2.300000
v -10.100000 1.700000 2.300000
v -10.100000 1.900000 2.300000
v -9.900000 -2.000000 2.300000
v -9.900000 -1.800000 2.300000
v -9.900000 1.900000 2.300000
v -9.900000 2.099999 2.300000
v 9.400000 -2.000000 2.300000
v 9.400000 0.600000 2.300000
v 10.600000 0.600000 2.300000
v 10.600000 2.099999 2.300000
v -10.500000 -1.400000 -2.400000
v -10.500000 1.500000 -2.400000
v -10.300000 -1.600000 -2.400000
v -10.300000 -1.400000 -2.400000
v -10.300000 1.500000 -2.400000
v -10.300000 1.700000 -2.400000
v -10.100000 -1.800000 -2.400000
v -10.100000 -1.600000 -2.400000
v -10.100000 1.700000 -2.400000
v -10.100000 1.900000 -2.400000
v -9.900000 -2.000000 -2.400000
v -9.900000 -1.800000 -2.400000
v -9.900000 1.900000 -2.400000
v -9.900000 2.100000 -2.400000
v 9.400000 -2.000000 -2.400000
v 9.400000 0.600000 -2.400000
v 10.600000 0.600000 -2.400000
v 10.600000 2.100000 -2.400000
v -9.900000 -2.000000 2.300000
v 9.400000 -2.000000 2.300000
v -9.900000 -2.000000 -2.400000
v 9.400000 -2.000000 -2.400000
v 9.400000 0.600000 2.300000
v 10.600000 0.600000 2.300000
v 9.400000 0.600000 -2.400000
v 10.600000 0.600000 -2.400000
v -9.900000 2.099999 2.300000
v 10.600000 2.099999 2.300000
v -9.900000 2.100000 -2.400000
v 10.600000 2.100000 -2.400000
vn -1.0000 -0.0000 -0.0000
vn -0.0000 -0.0000 -1.0000
vn -0.0000 -0.0000 1.0000
vn -0.7071 0.7071 -0.0000
vn 1.0000 -0.0000 -0.0000
vn -0.0000 -1.0000 -0.0000
vn -0.7071 -0.7071 -0.0000
vn -0.0000 1.0000 -0.0000
vt 0.990234 0.500000
vt 0.990234 0.500000
vt 0.990234 0.500000
vt 0.990234 0.500000
vt 0.990234 0.500000
vt 0.990234 0.500000
vt 0.990234 0.500000
vt 0.990234 0.500000
vt 0.990234 0.500000
vt 0.990234 0.500000
vt 0.990234 0.500000
vt 0.990234 0.500000
vt 0.990234 0.500000
vt 0.000000 0.000000
vt 0.000000 0.000000
vt 0.990234 0.500000
vt 0.990234 0.500000
vt 0.990234 0.500000
vt 0.990234 0.500000
vt 0.990234 0.500000
vt 0.990234 0.500000
vt 0.990234 0.500000
vt 0.990234 0.500000
vt 0.990234 0.500000
vt 0.990234 0.500000
vt 0.990234 0.500000
vt 0.990234 0.500000
vt 0.990234 0.500000
vt 0.990234 0.500000
vt 0.990234 0.500000
vt 0.990234 0.500000
vt 0.990234 0.500000
vt 0.990234 0.500000
vt 0.000000 0.000000
vt 0.000000 0.000000
vt 0.990234 0.500000
vt 0.990234 0.500000
vt 0.990234 0.500000
vt 0.990234 0.500000
vt 0.990234 0.500000
vt 0.990234 0.500000
vt 0.990234 0.500000
vt 0.990234 0.500000
vt 0.990234 0.500000
vt 0.990234 0.500000
vt 0.990234 0.500000
vt 0.990234 0.500000
vt 0.990234 0.500000
vt 0.990234 0.500000
vt 0.990234 0.500000
vt 0.990234 0.500000
vt 0.990234 0.500000
vt 0.000000 0.000000
vt 0.990234 0.500000
vt 0.990234 0.500000
vt 0.990234 0.500000
vt 0.000000 0.000000
vt 0.990234 0.500000
vt 0.990234 0.500000
vt 0.990234 0.500000
vt 0.990234 0.500000
vt 0.990234 0.500000
vt 0.000000 0.000000
vt 0.990234 0.500000
vt 0.990234 0.500000
vt 0.000000 0.000000
vt 0.990234 0.500000
vt 0.990234 0.500000
s 0
usemtl palette
f 3/3/1 2/2/1 1/1/1
f 4/4/1 2/2/1 3/3/1
f 37/41/2 33/37/2 38/42/2
f 33/37/2 31/33/2 34/38/2
f 49/53/3 24/26/3 19/21/3
f 19/21/3 20/22/3 15/17/3
f 16/18/3 13/13/3 15/17/3
f 32/35/4 14/15/4 57/64/4 59/67/4
f 35/39/2 32/36/2 36/40/2
f 39/43/2 36/40/2 40/44/2
f 59/66/2 43/47/2 40/44/2
f 17/19/3 18/20/3 14/16/3
f 21/23/3 22/24/3 18/20/3
f 25/27/3 57/63/3 22/24/3
f 5/5/5 6/6/5 7/7/5
f 7/7/5 6/6/5 8/8/5
f 9/9/5 10/10/5 11/11/5
f 11/11/5 10/10/5 12/12/5
f 16/18/3 14/16/3 13/13/3
f 17/19/3 14/16/3 16/18/3
f 20/22/3 16/18/3 15/17/3
f 20/22/3 18/20/3 17/19/3
f 20/22/3 17/19/3 16/18/3
f 21/23/3 18/20/3 20/22/3
f 24/26/3 20/22/3 19/21/3
f 24/26/3 22/24/3 21/23/3
f 24/26/3 21/23/3 20/22/3
f 25/27/3 22/24/3 24/26/3
f 27/29/3 24/26/3 23/25/3
f 27/29/3 26/28/3 25/27/3
f 27/29/3 25/27/3 24/26/3
f 28/30/3 26/28/3 27/29/3
f 29/31/3 26/28/3 28/30/3
f 30/32/3 26/28/3 29/31/3
f 31/33/2 32/36/2 34/38/2
f 34/38/2 32/36/2 35/39/2
f 33/37/2 34/38/2 38/42/2
f 35/39/2 36/40/2 38/42/2
f 34/38/2 35/39/2 38/42/2
f 38/42/2 36/40/2 39/43/2
f 37/41/2 38/42/2 42/46/2
f 39/43/2 40/44/2 42/46/2
f 38/42/2 39/43/2 42/46/2
f 42/46/2 40/44/2 43/47/2
f 41/45/2 42/46/2 45/49/2
f 43/47/2 44/48/2 45/49/2
f 42/46/2 43/47/2 45/49/2
f 45/49/2 44/48/2 46/50/2
f 46/50/2 44/48/2 47/51/2
f 47/51/2 44/48/2 48/52/2
f 51/56/6 50/55/6 49/54/6
f 52/58/6 50/55/6 51/56/6
f 13/14/7 31/34/7 51/56/7 49/54/7
f 42/46/2 51/57/2 37/41/2
f 55/61/6 54/60/6 53/59/6
f 56/62/6 54/60/6 55/61/6
f 57/64/8 58/65/8 59/67/8
f 59/67/8 58/65/8 60/68/8
