# Blender 3.4.1
# www.blender.org
mtllib tank_platform.mtl
o Untitled
v 2.500000 -0.000000 2.500000
v -2.500000 -0.000000 2.500000
v 2.500000 0.100000 2.500000
v -2.500000 0.100000 2.500000
v 0.100000 0.200000 2.400000
v -2.200000 0.200000 2.400000
v -2.300000 0.100000 0.100000
v 2.300000 0.200000 0.100000
v -2.300000 0.200000 0.100000
v 2.200000 0.100000 -2.200000
v -2.400000 0.200000 -2.200000
v 0.100000 0.100000 -2.300000
v -0.100000 0.200000 2.300000
v -2.200000 0.100000 2.200000
v -2.200000 0.200000 2.200000
v -2.300000 0.100000 -0.100000
v -2.300000 0.200000 -0.100000
v 2.400000 0.100000 -2.400000
v 2.200000 0.100000 -2.400000
v -2.200000 0.100000 -2.400000
v -2.400000 0.200000 -2.400000
v 2.500000 0.000000 -2.500000
v 2.500000 0.100000 -2.500000
v 2.400000 0.200000 2.400000
v 2.400000 0.200000 2.200000
v 2.400000 0.100000 0.100000
v 2.400000 0.100000 -0.100000
v 2.400000 0.200000 -0.100000
v 2.400000 0.100000 -2.200000
v 2.400000 0.200000 -2.400000
v 0.100000 0.100000 2.400000
v 0.100000 0.100000 2.300000
v 0.100000 0.200000 -2.300000
v 0.100000 0.100000 -2.400000
v -2.200000 0.100000 2.400000
v -2.200000 0.100000 -2.200000
v 2.300000 0.100000 0.100000
v 2.300000 0.100000 -0.100000
v 2.200000 0.100000 2.400000
v 2.200000 0.100000 2.200000
v 2.200000 0.200000 2.200000
v 2.200000 0.200000 -2.400000
v -0.100000 0.100000 2.400000
v -0.100000 0.100000 2.300000
v -0.100000 0.200000 -2.300000
v -2.400000 0.100000 2.400000
v -2.400000 0.100000 0.100000
v -2.400000 0.200000 0.100000
v -2.400000 0.200000 -0.100000
v -2.400000 0.100000 -2.400000
v 2.400000 -0.000000 2.400000
v 2.400000 -0.000000 2.200000
v 2.400000 -0.000000 0.100000
v 2.400000 0.000000 -0.100000
v 2.400000 0.000000 -2.200000
v 2.400000 0.000000 -2.400000
v 2.300000 -0.000000 0.100000
v 2.300000 0.000000 -0.100000
v 2.200000 -0.000000 2.400000
v 2.200000 -0.000000 2.200000
v 2.200000 0.000000 -2.200000
v 2.200000 0.000000 -2.400000
v 2.100000 -0.000000 2.100000
v 2.100000 0.000000 -2.100000
v 1.400000 -0.000000 1.400000
v 1.400000 0.000000 -1.400000
v 1.300000 -0.000000 1.300000
v 1.300000 0.000000 -1.300000
v 1.200000 -0.000000 0.200000
v 1.200000 0.000000 -0.000000
v 1.100000 -0.000000 0.400000
v 1.100000 -0.000000 0.200000
v 1.000000 -0.000000 0.500000
v 1.000000 -0.000000 0.400000
v 0.900000 -0.000000 0.600000
v 0.900000 -0.000000 0.500000
v 0.900000 0.000000 -0.000000
v 0.900000 0.000000 -0.100000
v 0.700000 0.000000 -0.100000
v 0.700000 0.000000 -0.400000
v 0.500000 0.000000 -0.400000
v 0.500000 0.000000 -0.500000
v 0.100000 -0.000000 2.400000
v 0.100000 -0.000000 2.300000
v 0.100000 0.000000 -2.300000
v 0.100000 0.000000 -2.400000
v -0.100000 -0.000000 2.400000
v -0.100000 -0.000000 2.300000
v -0.100000 0.000000 -0.400000
v -0.100000 0.000000 -0.500000
v -0.100000 0.000000 -2.300000
v -0.100000 0.000000 -2.400000
v -0.300000 0.000000 -0.100000
v -0.300000 0.000000 -0.200000
v -0.300000 0.000000 -0.300000
v -0.300000 0.000000 -0.400000
v -0.500000 0.000000 -0.000000
v -0.500000 0.000000 -0.100000
v -0.600000 -0.000000 0.600000
v -0.600000 -0.000000 0.500000
v -0.700000 -0.000000 0.500000
v -0.700000 -0.000000 0.400000
v -0.800000 -0.000000 0.400000
v -0.800000 -0.000000 0.200000
v -0.900000 -0.000000 0.200000
v -0.900000 0.000000 -0.000000
v -1.200000 0.000000 -0.200000
v -1.200000 0.000000 -0.300000
v -1.300000 -0.000000 1.300000
v -1.300000 0.000000 -1.300000
v -1.400000 -0.000000 1.400000
v -1.400000 0.000000 -1.400000
v -2.100000 -0.000000 2.100000
v -2.100000 0.000000 -2.100000
v -2.200000 -0.000000 2.400000
v -2.200000 -0.000000 2.200000
v -2.200000 0.000000 -2.200000
v -2.200000 0.000000 -2.400000
v -2.300000 -0.000000 0.100000
v -2.300000 0.000000 -0.100000
v -2.400000 -0.000000 2.400000
v -2.400000 -0.000000 2.200000
v -2.400000 -0.000000 0.100000
v -2.400000 0.000000 -0.100000
v -2.400000 0.000000 -2.200000
v -2.400000 0.000000 -2.400000
v -2.500000 0.000000 -2.500000
v 2.400000 0.100000 2.400000
v 2.400000 0.100000 2.200000
v 2.100000 0.100000 2.100000
v 2.100000 0.100000 -2.100000
v 1.400000 0.100000 1.400000
v 1.400000 0.100000 -1.400000
v 1.300000 0.100000 1.300000
v 1.300000 0.100000 -1.300000
v 1.200000 0.100000 0.200000
v 1.200000 0.100000 -0.000000
v 1.100000 0.100000 0.400000
v 1.100000 0.100000 0.200000
v 1.000000 0.100000 0.500000
v 1.000000 0.100000 0.400000
v 0.900000 0.100000 0.600000
v 0.900000 0.100000 0.500000
v 0.900000 0.100000 -0.000000
v 0.900000 0.100000 -0.100000
v 0.700000 0.100000 -0.100000
v 0.700000 0.100000 -0.400000
v 0.500000 0.100000 -0.400000
v 0.500000 0.100000 -0.500000
v -0.100000 0.100000 -0.400000
v -0.100000 0.100000 -0.500000
v -0.100000 0.100000 -2.300000
v -0.100000 0.100000 -2.400000
v -0.300000 0.100000 -0.100000
v -0.300000 0.100000 -0.200000
v -0.300000 0.100000 -0.300000
v -0.300000 0.100000 -0.400000
v -0.500000 0.100000 -0.000000
v -0.500000 0.100000 -0.100000
v -0.600000 0.100000 0.600000
v -0.600000 0.100000 0.500000
v -0.700000 0.100000 0.500000
v -0.700000 0.100000 0.400000
v -0.800000 0.100000 0.400000
v -0.800000 0.100000 0.200000
v -0.900000 0.100000 0.200000
v -0.900000 0.100000 -0.000000
v -1.200000 0.100000 -0.200000
v -1.200000 0.100000 -0.300000
v -1.300000 0.100000 1.300000
v -1.300000 0.100000 -1.300000
v -1.400000 0.100000 1.400000
v -1.400000 0.100000 -1.400000
v -2.100000 0.100000 2.100000
v -2.100000 0.100000 -2.100000
v -2.400000 0.100000 2.200000
v -2.400000 0.100000 -0.100000
v -2.400000 0.100000 -2.200000
v -2.500000 0.100000 -2.500000
v 2.400000 0.200000 0.100000
v 2.400000 0.200000 -2.200000
v 2.300000 0.200000 -0.100000
v 2.200000 0.200000 2.400000
v 2.200000 0.200000 -2.200000
v 0.100000 0.200000 2.300000
v 0.100000 0.200000 -2.400000
v -0.100000 0.200000 2.400000
v -0.100000 0.200000 -2.400000
v -2.200000 0.200000 -2.200000
v -2.200000 0.200000 -2.400000
v -2.400000 0.200000 2.400000
v -2.400000 0.200000 2.200000
vn -0.0000 -0.0000 1.0000
vn -0.0000 -0.0000 -1.0000
vn 1.0000 -0.0000 -0.0000
vn -1.0000 -0.0000 -0.0000
vn -0.0000 -1.0000 -0.0000
vn -0.0000 1.0000 -0.0000
vt 0.701172 0.500000
vt 0.701172 0.500000
vt 0.701172 0.500000
vt 0.701172 0.500000
vt 0.013672 0.500000
vt 0.013672 0.500000
vt 0.013672 0.500000
vt 0.701172 0.500000
vt 0.013672 0.500000
vt 0.013672 0.500000
vt 0.013672 0.500000
vt 0.701172 0.500000
vt 0.013672 0.500000
vt 0.013672 0.500000
vt 0.701172 0.500000
vt 0.013672 0.500000
vt 0.013672 0.500000
vt 0.701172 0.500000
vt 0.013672 0.500000
vt 0.013672 0.500000
vt 0.701172 0.500000
vt 0.013672 0.500000
vt 0.013672 0.500000
vt 0.701172 0.500000
vt 0.013672 0.500000
vt 0.701172 0.500000
vt 0.013672 0.500000
vt 0.701172 0.500000
vt 0.013672 0.500000
vt 0.701172 0.500000
vt 0.701172 0.500000
vt 0.013672 0.500000
vt 0.013672 0.500000
vt 0.013672 0.500000
vt 0.701172 0.500000
vt 0.013672 0.500000
vt 0.701172 0.500000
vt 0.013672 0.500000
vt 0.013672 0.500000
vt 0.701172 0.500000
vt 0.013672 0.500000
vt 0.013672 0.500000
vt 0.701172 0.500000
vt 0.013672 0.500000
vt 0.701172 0.500000
vt 0.013672 0.500000
vt 0.013672 0.500000
vt 0.701172 0.500000
vt 0.013672 0.500000
vt 0.701172 0.500000
vt 0.013672 0.500000
vt 0.701172 0.500000
vt 0.013672 0.500000
vt 0.701172 0.500000
vt 0.013672 0.500000
vt 0.701172 0.500000
vt 0.013672 0.500000
vt 0.701172 0.500000
vt 0.013672 0.500000
vt 0.701172 0.500000
vt 0.013672 0.500000
vt 0.013672 0.500000
vt 0.013672 0.500000
vt 0.701172 0.500000
vt 0.013672 0.500000
vt 0.701172 0.500000
vt 0.013672 0.500000
vt 0.013672 0.500000
vt 0.701172 0.500000
vt 0.013672 0.500000
vt 0.701172 0.500000
vt 0.013672 0.500000
vt 0.013672 0.500000
vt 0.013672 0.500000
vt 0.701172 0.500000
vt 0.701172 0.500000
vt 0.095703 0.500000
vt 0.095703 0.500000
vt 0.701172 0.500000
vt 0.701172 0.500000
vt 0.095703 0.500000
vt 0.701172 0.500000
vt 0.095703 0.500000
vt 0.701172 0.500000
vt 0.095703 0.500000
vt 0.701172 0.500000
vt 0.095703 0.500000
vt 0.095703 0.500000
vt 0.701172 0.500000
vt 0.095703 0.500000
vt 0.701172 0.500000
vt 0.095703 0.500000
vt 0.701172 0.500000
vt 0.095703 0.500000
vt 0.701172 0.500000
vt 0.095703 0.500000
vt 0.701172 0.500000
vt 0.095703 0.500000
vt 0.701172 0.500000
vt 0.017578 0.500000
vt 0.701172 0.500000
vt 0.017578 0.500000
vt 0.701172 0.500000
vt 0.068359 0.500000
vt 0.017578 0.500000
vt 0.068359 0.500000
vt 0.017578 0.500000
vt 0.068359 0.500000
vt 0.017578 0.500000
vt 0.017578 0.500000
vt 0.068359 0.500000
vt 0.701172 0.500000
vt 0.017578 0.500000
vt 0.017578 0.500000
vt 0.701172 0.500000
vt 0.701172 0.500000
vt 0.017578 0.500000
vt 0.017578 0.500000
vt 0.701172 0.500000
vt 0.701172 0.500000
vt 0.017578 0.500000
vt 0.017578 0.500000
vt 0.701172 0.500000
vt 0.017578 0.500000
vt 0.701172 0.500000
vt 0.017578 0.500000
vt 0.701172 0.500000
vt 0.017578 0.500000
vt 0.701172 0.500000
vt 0.017578 0.500000
vt 0.701172 0.500000
vt 0.017578 0.500000
vt 0.701172 0.500000
vt 0.701172 0.500000
vt 0.017578 0.500000
vt 0.017578 0.500000
vt 0.701172 0.500000
vt 0.017578 0.500000
vt 0.701172 0.500000
vt 0.701172 0.500000
vt 0.095703 0.500000
vt 0.701172 0.500000
vt 0.095703 0.500000
vt 0.701172 0.500000
vt 0.095703 0.500000
vt 0.701172 0.500000
vt 0.095703 0.500000
vt 0.095703 0.500000
vt 0.701172 0.500000
vt 0.095703 0.500000
vt 0.701172 0.500000
vt 0.017578 0.500000
vt 0.701172 0.500000
vt 0.701172 0.500000
vt 0.017578 0.500000
vt 0.095703 0.500000
vt 0.701172 0.500000
vt 0.095703 0.500000
vt 0.701172 0.500000
vt 0.017578 0.500000
vt 0.701172 0.500000
vt 0.017578 0.500000
vt 0.701172 0.500000
vt 0.017578 0.500000
vt 0.701172 0.500000
vt 0.701172 0.500000
vt 0.017578 0.500000
vt 0.017578 0.500000
vt 0.701172 0.500000
vt 0.701172 0.500000
vt 0.017578 0.500000
vt 0.701172 0.500000
vt 0.017578 0.500000
vt 0.017578 0.500000
vt 0.701172 0.500000
vt 0.701172 0.500000
vt 0.017578 0.500000
vt 0.017578 0.500000
vt 0.701172 0.500000
vt 0.701172 0.500000
vt 0.017578 0.500000
vt 0.017578 0.500000
vt 0.701172 0.500000
vt 0.701172 0.500000
vt 0.017578 0.500000
vt 0.701172 0.500000
vt 0.017578 0.500000
vt 0.701172 0.500000
vt 0.017578 0.500000
vt 0.701172 0.500000
vt 0.017578 0.500000
vt 0.017578 0.500000
vt 0.068359 0.500000
vt 0.017578 0.500000
vt 0.068359 0.500000
vt 0.068359 0.500000
vt 0.017578 0.500000
vt 0.068359 0.500000
vt 0.017578 0.500000
vt 0.017578 0.500000
vt 0.701172 0.500000
vt 0.017578 0.500000
vt 0.701172 0.500000
vt 0.095703 0.500000
vt 0.701172 0.500000
vt 0.701172 0.500000
vt 0.095703 0.500000
vt 0.095703 0.500000
vt 0.701172 0.500000
vt 0.701172 0.500000
vt 0.095703 0.500000
vt 0.095703 0.500000
vt 0.701172 0.500000
vt 0.701172 0.500000
vt 0.095703 0.500000
vt 0.095703 0.500000
vt 0.701172 0.500000
vt 0.095703 0.500000
vt 0.701172 0.500000
vt 0.095703 0.500000
vt 0.701172 0.500000
vt 0.095703 0.500000
vt 0.701172 0.500000
vt 0.095703 0.500000
vt 0.701172 0.500000
vt 0.095703 0.500000
vt 0.701172 0.500000
vt 0.701172 0.500000
vt 0.013672 0.500000
vt 0.701172 0.500000
vt 0.013672 0.500000
vt 0.701172 0.500000
vt 0.017578 0.500000
vt 0.701172 0.500000
vt 0.017578 0.500000
vt 0.701172 0.500000
vt 0.068359 0.500000
vt 0.017578 0.500000
vt 0.068359 0.500000
vt 0.017578 0.500000
vt 0.068359 0.500000
vt 0.017578 0.500000
vt 0.017578 0.500000
vt 0.068359 0.500000
vt 0.701172 0.500000
vt 0.017578 0.500000
vt 0.017578 0.500000
vt 0.701172 0.500000
vt 0.701172 0.500000
vt 0.017578 0.500000
vt 0.017578 0.500000
vt 0.701172 0.500000
vt 0.701172 0.500000
vt 0.017578 0.500000
vt 0.017578 0.500000
vt 0.701172 0.500000
vt 0.017578 0.500000
vt 0.701172 0.500000
vt 0.017578 0.500000
vt 0.701172 0.500000
vt 0.017578 0.500000
vt 0.701172 0.500000
vt 0.017578 0.500000
vt 0.701172 0.500000
vt 0.017578 0.500000
vt 0.701172 0.500000
vt 0.701172 0.500000
vt 0.017578 0.500000
vt 0.017578 0.500000
vt 0.701172 0.500000
vt 0.017578 0.500000
vt 0.701172 0.500000
vt 0.017578 0.500000
vt 0.701172 0.500000
vt 0.701172 0.500000
vt 0.017578 0.500000
vt 0.013672 0.500000
vt 0.701172 0.500000
vt 0.013672 0.500000
vt 0.701172 0.500000
vt 0.017578 0.500000
vt 0.701172 0.500000
vt 0.017578 0.500000
vt 0.701172 0.500000
vt 0.017578 0.500000
vt 0.701172 0.500000
vt 0.701172 0.500000
vt 0.017578 0.500000
vt 0.017578 0.500000
vt 0.701172 0.500000
vt 0.701172 0.500000
vt 0.017578 0.500000
vt 0.701172 0.500000
vt 0.017578 0.500000
vt 0.017578 0.500000
vt 0.701172 0.500000
vt 0.701172 0.500000
vt 0.017578 0.500000
vt 0.017578 0.500000
vt 0.701172 0.500000
vt 0.701172 0.500000
vt 0.017578 0.500000
vt 0.017578 0.500000
vt 0.701172 0.500000
vt 0.701172 0.500000
vt 0.017578 0.500000
vt 0.701172 0.500000
vt 0.017578 0.500000
vt 0.701172 0.500000
vt 0.017578 0.500000
vt 0.701172 0.500000
vt 0.017578 0.500000
vt 0.017578 0.500000
vt 0.068359 0.500000
vt 0.017578 0.500000
vt 0.068359 0.500000
vt 0.068359 0.500000
vt 0.017578 0.500000
vt 0.068359 0.500000
vt 0.017578 0.500000
vt 0.017578 0.500000
vt 0.701172 0.500000
vt 0.017578 0.500000
vt 0.701172 0.500000
vt 0.013672 0.500000
vt 0.701172 0.500000
vt 0.013672 0.500000
vt 0.701172 0.500000
vt 0.013672 0.500000
vt 0.701172 0.500000
vt 0.701172 0.500000
vt 0.013672 0.500000
vt 0.013672 0.500000
vt 0.013672 0.500000
vt 0.013672 0.500000
vt 0.013672 0.500000
vt 0.013672 0.500000
vt 0.013672 0.500000
vt 0.013672 0.500000
vt 0.013672 0.500000
vt 0.013672 0.500000
vt 0.013672 0.500000
vt 0.013672 0.500000
vt 0.013672 0.500000
s 0
usemtl palette.003
f 3/3/1 2/2/1 1/1/1
f 4/4/1 2/2/1 3/3/1
f 24/32/1 39/57/1 128/229/1
f 183/335/1 39/57/1 24/32/1
f 5/5/1 43/63/1 31/42/1
f 187/339/1 43/63/1 5/5/1
f 6/6/1 46/68/1 35/49/1
f 191/343/1 46/68/1 6/6/1
f 180/332/1 37/53/1 26/34/1
f 8/9/1 37/53/1 180/332/1
f 9/10/1 47/70/1 7/7/1
f 48/72/1 47/70/1 9/10/1
f 181/333/1 10/11/1 29/39/1
f 184/336/1 10/11/1 181/333/1
f 189/341/1 178/329/1 36/51/1
f 11/13/1 178/329/1 189/341/1
f 33/46/1 152/277/1 12/14/1
f 45/67/1 152/277/1 33/46/1
f 32/44/2 44/65/2 185/337/2
f 185/337/2 44/65/2 13/16/2
f 129/231/2 40/59/2 25/33/2
f 25/33/2 40/59/2 41/61/2
f 14/17/2 176/325/2 15/19/2
f 15/19/2 176/325/2 192/344/2
f 27/36/2 38/55/2 28/38/2
f 28/38/2 38/55/2 182/334/2
f 16/20/2 177/327/2 17/22/2
f 17/22/2 177/327/2 49/73/2
f 18/23/2 19/25/2 30/41/2
f 30/41/2 19/25/2 42/62/2
f 34/47/2 153/279/2 186/338/2
f 186/338/2 153/279/2 188/340/2
f 20/27/2 50/74/2 190/342/2
f 190/342/2 50/74/2 21/29/2
f 22/30/2 127/228/2 23/31/2
f 23/31/2 127/228/2 179/331/2
f 22/30/3 3/3/3 1/1/3
f 23/31/3 3/3/3 22/30/3
f 129/231/3 24/32/3 128/229/3
f 25/33/3 24/32/3 129/231/3
f 27/36/3 180/332/3 26/34/3
f 28/38/3 180/332/3 27/36/3
f 18/23/3 181/333/3 29/39/3
f 30/41/3 181/333/3 18/23/3
f 32/44/3 5/5/3 31/42/3
f 185/337/3 5/5/3 32/44/3
f 34/47/3 33/46/3 12/14/3
f 186/338/3 33/46/3 34/47/3
f 14/17/3 6/6/3 35/49/3
f 15/19/3 6/6/3 14/17/3
f 20/27/3 189/341/3 36/51/3
f 190/342/3 189/341/3 20/27/3
f 16/20/3 9/10/3 7/7/3
f 17/22/3 9/10/3 16/20/3
f 37/53/4 8/9/4 38/55/4
f 38/55/4 8/9/4 182/334/4
f 39/57/4 183/335/4 40/59/4
f 40/59/4 183/335/4 41/61/4
f 10/11/4 184/336/4 19/25/4
f 19/25/4 184/336/4 42/62/4
f 43/63/4 187/339/4 44/65/4
f 44/65/4 187/339/4 13/16/4
f 152/277/4 45/67/4 153/279/4
f 153/279/4 45/67/4 188/340/4
f 46/68/4 191/343/4 176/325/4
f 176/325/4 191/343/4 192/344/4
f 47/70/4 48/72/4 177/327/4
f 177/327/4 48/72/4 49/73/4
f 178/329/4 11/13/4 50/74/4
f 50/74/4 11/13/4 21/29/4
f 2/2/4 4/4/4 127/228/4
f 127/228/4 4/4/4 179/331/4
f 51/76/5 22/30/5 1/1/5
f 52/79/5 22/30/5 51/76/5
f 53/80/5 22/30/5 52/79/5
f 54/82/5 22/30/5 53/80/5
f 55/84/5 22/30/5 54/82/5
f 56/86/5 22/30/5 55/84/5
f 57/89/5 53/80/5 52/79/5
f 57/88/5 54/83/5 53/81/5
f 58/91/5 55/84/5 54/82/5
f 58/90/5 54/83/5 57/88/5
f 59/93/5 51/76/5 1/1/5
f 59/92/5 52/78/5 51/77/5
f 60/95/5 58/91/5 57/89/5
f 60/94/5 52/78/5 59/92/5
f 60/95/5 57/89/5 52/79/5
f 61/97/5 55/84/5 58/91/5
f 61/97/5 58/91/5 60/95/5
f 61/96/5 56/87/5 55/85/5
f 62/99/5 22/30/5 56/86/5
f 62/98/5 56/87/5 61/96/5
f 63/101/5 60/95/5 59/93/5
f 63/101/5 61/97/5 60/95/5
f 63/101/5 62/99/5 61/97/5
f 64/103/5 62/99/5 63/101/5
f 65/105/5 64/102/5 63/100/5
f 66/107/5 64/102/5 65/105/5
f 67/108/5 66/106/5 65/104/5
f 68/111/5 66/106/5 67/108/5
f 69/113/5 68/110/5 67/109/5
f 70/114/5 68/110/5 69/113/5
f 71/117/5 69/113/5 67/109/5
f 72/119/5 70/115/5 69/112/5
f 72/118/5 69/113/5 71/117/5
f 73/121/5 71/117/5 67/109/5
f 74/123/5 72/119/5 71/116/5
f 74/122/5 71/117/5 73/121/5
f 75/124/5 73/121/5 67/109/5
f 76/127/5 74/123/5 73/120/5
f 76/126/5 73/121/5 75/124/5
f 77/128/5 68/110/5 70/114/5
f 77/129/5 74/123/5 76/127/5
f 77/129/5 70/115/5 72/119/5
f 77/129/5 72/119/5 74/123/5
f 78/130/5 68/110/5 77/128/5
f 79/133/5 76/127/5 75/125/5
f 79/132/5 68/110/5 78/130/5
f 79/133/5 78/131/5 77/129/5
f 79/133/5 77/129/5 76/127/5
f 80/135/5 68/110/5 79/132/5
f 81/137/5 80/134/5 79/133/5
f 81/136/5 68/110/5 80/135/5
f 82/138/5 68/110/5 81/136/5
f 83/140/5 59/93/5 1/1/5
f 83/140/5 63/101/5 59/93/5
f 84/142/5 63/101/5 83/140/5
f 85/144/5 62/99/5 64/103/5
f 86/146/5 22/30/5 62/99/5
f 86/146/5 62/99/5 85/144/5
f 87/149/5 83/140/5 1/1/5
f 87/148/5 84/143/5 83/141/5
f 88/151/5 63/101/5 84/142/5
f 88/150/5 84/143/5 87/148/5
f 89/153/5 82/139/5 81/137/5
f 89/153/5 81/137/5 79/133/5
f 90/155/5 68/110/5 82/138/5
f 90/154/5 82/139/5 89/153/5
f 91/157/5 85/144/5 64/103/5
f 91/156/5 86/147/5 85/145/5
f 92/159/5 22/30/5 86/146/5
f 92/158/5 86/147/5 91/156/5
f 93/161/5 89/153/5 79/133/5
f 93/161/5 79/133/5 75/125/5
f 94/163/5 89/153/5 93/161/5
f 95/165/5 89/153/5 94/163/5
f 96/167/5 90/155/5 89/152/5
f 96/166/5 89/153/5 95/165/5
f 97/169/5 93/161/5 75/125/5
f 98/171/5 94/162/5 93/160/5
f 98/170/5 93/161/5 97/169/5
f 99/173/5 75/124/5 67/109/5
f 99/172/5 97/169/5 75/125/5
f 100/175/5 97/169/5 99/172/5
f 101/177/5 100/174/5 99/173/5
f 101/176/5 97/169/5 100/175/5
f 102/179/5 97/169/5 101/176/5
f 103/181/5 102/178/5 101/177/5
f 103/180/5 97/169/5 102/179/5
f 104/183/5 97/169/5 103/180/5
f 105/185/5 104/182/5 103/181/5
f 105/184/5 97/169/5 104/183/5
f 106/187/5 98/171/5 97/168/5
f 106/186/5 97/169/5 105/184/5
f 107/189/5 94/162/5 98/171/5
f 107/189/5 98/171/5 106/187/5
f 107/189/5 106/187/5 105/185/5
f 107/188/5 95/165/5 94/163/5
f 108/191/5 96/167/5 95/164/5
f 108/190/5 95/165/5 107/188/5
f 109/193/5 67/108/5 65/104/5
f 109/192/5 103/181/5 101/177/5
f 109/192/5 108/191/5 107/189/5
f 109/192/5 99/173/5 67/109/5
f 109/192/5 107/189/5 105/185/5
f 109/192/5 105/185/5 103/181/5
f 109/192/5 101/177/5 99/173/5
f 110/194/5 68/110/5 90/155/5
f 110/194/5 108/191/5 109/192/5
f 110/194/5 96/167/5 108/191/5
f 110/195/5 66/106/5 68/111/5
f 110/194/5 90/155/5 96/167/5
f 111/196/5 109/193/5 65/104/5
f 111/197/5 65/105/5 63/100/5
f 111/196/5 110/195/5 109/193/5
f 112/198/5 66/106/5 110/195/5
f 112/198/5 110/195/5 111/196/5
f 112/199/5 64/102/5 66/107/5
f 113/200/5 111/197/5 63/100/5
f 113/201/5 63/101/5 88/151/5
f 113/200/5 112/199/5 111/197/5
f 113/201/5 88/151/5 87/149/5
f 114/202/5 64/102/5 112/199/5
f 114/202/5 112/199/5 113/200/5
f 114/203/5 91/157/5 64/103/5
f 114/203/5 92/159/5 91/157/5
f 115/205/5 113/201/5 87/149/5
f 115/205/5 87/149/5 1/1/5
f 115/205/5 114/203/5 113/201/5
f 116/206/5 114/203/5 115/205/5
f 117/209/5 92/159/5 114/203/5
f 117/209/5 114/203/5 116/206/5
f 118/210/5 22/30/5 92/159/5
f 118/210/5 92/159/5 117/209/5
f 119/213/5 117/209/5 116/206/5
f 120/214/5 117/209/5 119/213/5
f 121/216/5 116/207/5 115/204/5
f 121/217/5 115/205/5 1/1/5
f 122/219/5 119/213/5 116/206/5
f 122/218/5 116/207/5 121/216/5
f 123/220/5 120/215/5 119/212/5
f 123/221/5 119/213/5 122/219/5
f 124/223/5 117/209/5 120/214/5
f 124/222/5 120/215/5 123/220/5
f 125/224/5 118/211/5 117/208/5
f 125/225/5 117/209/5 124/223/5
f 126/227/5 22/30/5 118/210/5
f 126/226/5 118/211/5 125/224/5
f 2/2/5 123/221/5 122/219/5
f 2/2/5 125/225/5 124/223/5
f 2/2/5 126/227/5 125/225/5
f 2/2/5 121/217/5 1/1/5
f 2/2/5 124/223/5 123/221/5
f 2/2/5 122/219/5 121/217/5
f 127/228/5 22/30/5 126/227/5
f 127/228/5 126/227/5 2/2/5
f 3/3/6 23/31/6 128/230/6
f 128/230/6 23/31/6 129/232/6
f 129/232/6 23/31/6 26/35/6
f 26/35/6 23/31/6 27/37/6
f 27/37/6 23/31/6 29/40/6
f 29/40/6 23/31/6 18/24/6
f 129/232/6 26/35/6 37/54/6
f 27/37/6 29/40/6 38/56/6
f 3/3/6 128/230/6 39/58/6
f 37/54/6 38/56/6 40/60/6
f 129/232/6 37/54/6 40/60/6
f 38/56/6 29/40/6 10/12/6
f 40/60/6 38/56/6 10/12/6
f 18/24/6 23/31/6 19/26/6
f 40/60/6 10/12/6 130/234/6
f 10/12/6 19/26/6 130/234/6
f 39/58/6 40/60/6 130/234/6
f 130/234/6 19/26/6 131/236/6
f 130/233/6 131/235/6 132/238/6
f 132/238/6 131/235/6 133/240/6
f 132/237/6 133/239/6 134/241/6
f 134/241/6 133/239/6 135/244/6
f 134/242/6 135/243/6 136/246/6
f 136/246/6 135/243/6 137/247/6
f 134/242/6 136/246/6 138/250/6
f 136/245/6 137/248/6 139/252/6
f 138/250/6 136/246/6 139/251/6
f 134/242/6 138/250/6 140/254/6
f 138/249/6 139/252/6 141/256/6
f 140/254/6 138/250/6 141/255/6
f 134/242/6 140/254/6 142/257/6
f 140/253/6 141/256/6 143/260/6
f 142/257/6 140/254/6 143/259/6
f 137/247/6 135/243/6 144/261/6
f 143/260/6 141/256/6 144/262/6
f 139/252/6 137/248/6 144/262/6
f 141/256/6 139/252/6 144/262/6
f 144/261/6 135/243/6 145/263/6
f 142/258/6 143/260/6 146/266/6
f 145/263/6 135/243/6 146/265/6
f 144/262/6 145/264/6 146/266/6
f 143/260/6 144/262/6 146/266/6
f 146/265/6 135/243/6 147/268/6
f 146/266/6 147/267/6 148/270/6
f 147/268/6 135/243/6 148/269/6
f 148/269/6 135/243/6 149/271/6
f 3/3/6 39/58/6 31/43/6
f 39/58/6 130/234/6 31/43/6
f 31/43/6 130/234/6 32/45/6
f 131/236/6 19/26/6 12/15/6
f 19/26/6 23/31/6 34/48/6
f 12/15/6 19/26/6 34/48/6
f 3/3/6 31/43/6 43/64/6
f 32/45/6 130/234/6 44/66/6
f 148/270/6 149/272/6 150/274/6
f 146/266/6 148/270/6 150/274/6
f 149/271/6 135/243/6 151/276/6
f 150/274/6 149/272/6 151/275/6
f 131/236/6 12/15/6 152/278/6
f 34/48/6 23/31/6 153/280/6
f 146/266/6 150/274/6 154/282/6
f 142/258/6 146/266/6 154/282/6
f 154/282/6 150/274/6 155/284/6
f 155/284/6 150/274/6 156/286/6
f 150/273/6 151/276/6 157/288/6
f 156/286/6 150/274/6 157/287/6
f 142/258/6 154/282/6 158/290/6
f 154/281/6 155/283/6 159/292/6
f 158/290/6 154/282/6 159/291/6
f 134/242/6 142/257/6 160/294/6
f 142/258/6 158/290/6 160/293/6
f 160/293/6 158/290/6 161/296/6
f 160/294/6 161/295/6 162/298/6
f 161/296/6 158/290/6 162/297/6
f 162/297/6 158/290/6 163/300/6
f 162/298/6 163/299/6 164/302/6
f 163/300/6 158/290/6 164/301/6
f 164/301/6 158/290/6 165/304/6
f 164/302/6 165/303/6 166/306/6
f 165/304/6 158/290/6 166/305/6
f 158/289/6 159/292/6 167/308/6
f 166/305/6 158/290/6 167/307/6
f 159/292/6 155/283/6 168/310/6
f 167/308/6 159/292/6 168/310/6
f 166/306/6 167/308/6 168/310/6
f 155/284/6 156/286/6 168/309/6
f 156/285/6 157/288/6 169/312/6
f 168/309/6 156/286/6 169/311/6
f 132/237/6 134/241/6 170/314/6
f 162/298/6 164/302/6 170/313/6
f 168/310/6 169/312/6 170/313/6
f 134/242/6 160/294/6 170/313/6
f 166/306/6 168/310/6 170/313/6
f 164/302/6 166/306/6 170/313/6
f 160/294/6 162/298/6 170/313/6
f 151/276/6 135/243/6 171/315/6
f 170/313/6 169/312/6 171/315/6
f 169/312/6 157/288/6 171/315/6
f 135/244/6 133/239/6 171/316/6
f 157/288/6 151/276/6 171/315/6
f 132/237/6 170/314/6 172/317/6
f 130/233/6 132/238/6 172/318/6
f 170/314/6 171/316/6 172/317/6
f 171/316/6 133/239/6 173/319/6
f 172/317/6 171/316/6 173/319/6
f 133/240/6 131/235/6 173/320/6
f 130/233/6 172/318/6 174/321/6
f 43/64/6 44/66/6 174/322/6
f 172/318/6 173/320/6 174/321/6
f 44/66/6 130/234/6 174/322/6
f 152/278/6 153/280/6 175/324/6
f 174/321/6 173/320/6 175/323/6
f 173/320/6 131/235/6 175/323/6
f 131/236/6 152/278/6 175/324/6
f 43/64/6 174/322/6 35/50/6
f 3/3/6 43/64/6 35/50/6
f 174/322/6 175/324/6 35/50/6
f 35/50/6 175/324/6 14/18/6
f 175/324/6 153/280/6 36/52/6
f 14/18/6 175/324/6 36/52/6
f 153/280/6 23/31/6 20/28/6
f 36/52/6 153/280/6 20/28/6
f 14/18/6 36/52/6 7/8/6
f 7/8/6 36/52/6 16/21/6
f 3/3/6 35/50/6 46/69/6
f 14/18/6 7/8/6 176/326/6
f 176/326/6 7/8/6 47/71/6
f 16/21/6 36/52/6 177/328/6
f 177/328/6 36/52/6 178/330/6
f 20/28/6 23/31/6 50/75/6
f 177/328/6 178/330/6 4/4/6
f 178/330/6 50/75/6 4/4/6
f 176/326/6 47/71/6 4/4/6
f 3/3/6 46/69/6 4/4/6
f 47/71/6 177/328/6 4/4/6
f 46/69/6 176/326/6 4/4/6
f 50/75/6 23/31/6 179/331/6
f 4/4/6 50/75/6 179/331/6
f 180/332/6 28/38/6 8/9/6
f 8/9/6 28/38/6 182/334/6
f 24/32/6 25/33/6 183/335/6
f 183/335/6 25/33/6 41/61/6
f 181/333/6 30/41/6 184/336/6
f 184/336/6 30/41/6 42/62/6
f 5/5/6 185/337/6 187/339/6
f 187/339/6 185/337/6 13/16/6
f 33/46/6 186/338/6 45/67/6
f 45/67/6 186/338/6 188/340/6
f 6/6/6 15/19/6 191/343/6
f 191/343/6 15/19/6 192/344/6
f 9/10/6 17/22/6 48/72/6
f 48/72/6 17/22/6 49/73/6
f 189/341/6 190/342/6 11/13/6
f 11/13/6 190/342/6 21/29/6
