# Blender 3.4.1
# www.blender.org
mtllib key_yellow.mtl
o Untitled
v -1.000000 -1.000000 0.300000
v -1.000000 -0.600000 -0.300000
v -1.000000 -0.400000 -0.300000
v -1.000000 0.400000 0.300000
v -1.000000 1.000000 -0.300000
v -0.300000 -1.000000 -1.000000
v -0.300000 -0.600000 0.300000
v -0.300000 -0.400000 1.000000
v -0.300000 -0.400000 0.300000
v -0.300000 -0.400000 -0.300000
v -0.300000 -0.400000 -1.000000
v -0.300000 0.400000 1.000000
v -0.300000 0.400000 0.300000
v -0.300000 0.600000 0.300000
v -0.300000 1.000000 1.000000
v 0.300000 -1.000000 0.300000
v 0.300000 -1.000000 -0.300000
v 0.300000 -0.600000 0.300000
v 0.300000 -0.600000 -0.300000
v 0.300000 -0.400000 -1.000000
v 0.300000 0.400000 1.000000
v 0.300000 0.400000 -0.300000
v 0.300000 0.400000 -1.000000
v 0.300000 0.600000 1.000000
v 0.300000 0.600000 -0.300000
v 0.300000 1.000000 1.000000
v 0.300000 1.000000 0.300000
v 0.300000 1.000000 -0.300000
v 0.300000 1.000000 -1.000000
v 1.000000 -1.000000 -0.300000
v 1.000000 -0.400000 0.300000
v 1.000000 -0.400000 -0.300000
v -0.300000 -1.000000 1.000000
v -0.300000 -0.600000 1.000000
v -0.300000 0.600000 1.000000
v 0.300000 -0.600000 1.000000
v 0.300000 -0.400000 1.000000
v -1.000000 -0.600000 0.300000
v -1.000000 -0.400000 0.300000
v -1.000000 0.600000 0.300000
v -0.300000 -1.000000 0.300000
v 0.300000 -0.400000 0.300000
v 0.300000 0.400000 0.300000
v 0.300000 0.600000 0.300000
v 1.000000 -1.000000 0.300000
v 1.000000 -0.600000 0.300000
v 1.000000 0.400000 0.300000
v 1.000000 0.600000 0.300000
v -1.000000 -1.000000 -0.300000
v -1.000000 0.400000 -0.300000
v -1.000000 0.600000 -0.300000
v -0.300000 -0.600000 -0.300000
v -0.300000 0.400000 -0.300000
v -0.300000 0.600000 -0.300000
v -0.300000 1.000000 -0.300000
v 0.300000 -0.400000 -0.300000
v 1.000000 -0.600000 -0.300000
v 1.000000 0.400000 -0.300000
v 1.000000 0.600000 -0.300000
v 1.000000 1.000000 -0.300000
v -0.300000 -0.600000 -1.000000
v -0.300000 0.400000 -1.000000
v -0.300000 0.600000 -1.000000
v -0.300000 1.000000 -1.000000
v 0.300000 -1.000000 -1.000000
v 0.300000 -0.600000 -1.000000
v 0.300000 0.600000 -1.000000
v 0.300000 -1.000000 1.000000
v -0.300000 -1.000000 -0.300000
v -1.000000 1.000000 0.300000
v -0.300000 1.000000 0.300000
v 1.000000 1.000000 0.300000
vn -1.0000 -0.0000 -0.0000
vn 1.0000 -0.0000 -0.0000
vn -0.0000 -0.0000 1.0000
vn -0.0000 -0.0000 -1.0000
vn -0.0000 -1.0000 -0.0000
vn -0.0000 1.0000 -0.0000
vt 0.818359 0.500000
vt 0.392578 0.500000
vt 0.818359 0.500000
vt 0.818359 0.500000
vt 0.392578 0.500000
vt 0.392578 0.500000
vt 0.818359 0.500000
vt 0.818359 0.500000
vt 0.818359 0.500000
vt 0.818359 0.500000
vt 0.392578 0.500000
vt 0.818359 0.500000
vt 0.392578 0.500000
vt 0.392578 0.500000
vt 0.818359 0.500000
vt 0.392578 0.500000
vt 0.818359 0.500000
vt 0.818359 0.500000
vt 0.392578 0.500000
vt 0.392578 0.500000
vt 0.818359 0.500000
vt 0.818359 0.500000
vt 0.392578 0.500000
vt 0.392578 0.500000
vt 0.818359 0.500000
vt 0.818359 0.500000
vt 0.818359 0.500000
vt 0.818359 0.500000
vt 0.392578 0.500000
vt 0.818359 0.500000
vt 0.392578 0.500000
vt 0.818359 0.500000
vt 0.392578 0.500000
vt 0.818359 0.500000
vt 0.818359 0.500000
vt 0.392578 0.500000
vt 0.392578 0.500000
vt 0.818359 0.500000
vt 0.818359 0.500000
vt 0.392578 0.500000
vt 0.392578 0.500000
vt 0.818359 0.500000
vt 0.818359 0.500000
vt 0.392578 0.500000
vt 0.818359 0.500000
vt 0.818359 0.500000
vt 0.818359 0.500000
vt 0.818359 0.500000
vt 0.818359 0.500000
vt 0.392578 0.500000
vt 0.818359 0.500000
vt 0.392578 0.500000
vt 0.818359 0.500000
vt 0.818359 0.500000
vt 0.392578 0.500000
vt 0.818359 0.500000
vt 0.818359 0.500000
vt 0.392578 0.500000
vt 0.818359 0.500000
vt 0.392578 0.500000
vt 0.392578 0.500000
vt 0.818359 0.500000
vt 0.392578 0.500000
vt 0.818359 0.500000
vt 0.818359 0.500000
vt 0.392578 0.500000
vt 0.818359 0.500000
vt 0.392578 0.500000
vt 0.818359 0.500000
vt 0.818359 0.500000
vt 0.392578 0.500000
vt 0.392578 0.500000
vt 0.818359 0.500000
vt 0.818359 0.500000
vt 0.392578 0.500000
vt 0.818359 0.500000
vt 0.818359 0.500000
vt 0.392578 0.500000
vt 0.818359 0.500000
vt 0.392578 0.500000
vt 0.392578 0.500000
vt 0.818359 0.500000
vt 0.818359 0.500000
vt 0.392578 0.500000
vt 0.818359 0.500000
vt 0.818359 0.500000
vt 0.392578 0.500000
vt 0.818359 0.500000
vt 0.392578 0.500000
vt 0.818359 0.500000
vt 0.392578 0.500000
vt 0.392578 0.500000
vt 0.818359 0.500000
vt 0.818359 0.500000
vt 0.818359 0.500000
vt 0.392578 0.500000
vt 0.818359 0.500000
vt 0.392578 0.500000
vt 0.818359 0.500000
vt 0.392578 0.500000
vt 0.392578 0.500000
vt 0.818359 0.500000
vt 0.818359 0.500000
vt 0.392578 0.500000
vt 0.818359 0.500000
vt 0.392578 0.500000
vt 0.818359 0.500000
vt 0.818359 0.500000
vt 0.392578 0.500000
vt 0.818359 0.500000
vt 0.818359 0.500000
vt 0.818359 0.500000
vt 0.392578 0.500000
vt 0.392578 0.500000
vt 0.818359 0.500000
vt 0.818359 0.500000
vt 0.818359 0.500000
vt 0.818359 0.500000
vt 0.818359 0.500000
vt 0.818359 0.500000
s 0
usemtl palette
f 38/64/1 49/83/1 1/1/1
f 2/3/1 49/83/1 38/64/1
f 39/66/1 2/2/1 38/63/1
f 3/5/1 2/2/1 39/66/1
f 4/7/1 3/4/1 39/65/1
f 50/85/1 3/4/1 4/7/1
f 40/68/1 50/84/1 4/6/1
f 51/87/1 50/84/1 40/68/1
f 70/118/1 51/86/1 40/67/1
f 5/8/1 51/86/1 70/118/1
f 34/56/1 41/69/1 33/54/1
f 7/10/1 41/69/1 34/56/1
f 52/88/1 6/9/1 69/117/1
f 61/105/1 6/9/1 52/88/1
f 8/13/1 7/11/1 34/55/1
f 9/14/1 7/11/1 8/13/1
f 10/16/1 61/104/1 52/89/1
f 11/19/1 61/104/1 10/16/1
f 12/21/1 9/15/1 8/12/1
f 13/22/1 9/15/1 12/21/1
f 53/90/1 11/18/1 10/17/1
f 62/107/1 11/18/1 53/90/1
f 35/58/1 13/23/1 12/20/1
f 14/24/1 13/23/1 35/58/1
f 54/92/1 62/106/1 53/91/1
f 63/109/1 62/106/1 54/92/1
f 15/26/1 14/25/1 35/57/1
f 71/119/1 14/25/1 15/26/1
f 55/94/1 63/108/1 54/93/1
f 64/110/1 63/108/1 55/94/1
f 68/116/2 16/27/2 36/59/2
f 36/59/2 16/27/2 18/30/2
f 17/28/2 65/111/2 19/32/2
f 19/32/2 65/111/2 66/112/2
f 36/60/2 18/29/2 37/61/2
f 37/61/2 18/29/2 42/71/2
f 19/31/2 66/113/2 56/96/2
f 56/96/2 66/113/2 20/33/2
f 37/62/2 42/70/2 21/35/2
f 21/35/2 42/70/2 43/73/2
f 56/95/2 20/34/2 22/38/2
f 22/38/2 20/34/2 23/39/2
f 21/36/2 43/72/2 24/41/2
f 24/41/2 43/72/2 44/75/2
f 22/37/2 23/40/2 25/44/2
f 25/44/2 23/40/2 67/114/2
f 24/42/2 44/74/2 26/45/2
f 26/45/2 44/74/2 27/46/2
f 25/43/2 67/115/2 28/47/2
f 28/47/2 67/115/2 29/48/2
f 45/76/2 30/49/2 46/77/2
f 46/77/2 30/49/2 57/97/2
f 46/78/2 57/98/2 31/50/2
f 31/50/2 57/98/2 32/52/2
f 31/51/2 32/53/2 47/79/2
f 47/79/2 32/53/2 58/99/2
f 47/80/2 58/100/2 48/81/2
f 48/81/2 58/100/2 59/101/2
f 48/82/2 59/102/2 72/120/2
f 72/120/2 59/102/2 60/103/2
f 68/116/3 34/56/3 33/54/3
f 36/60/3 8/13/3 34/55/3
f 36/59/3 34/56/3 68/116/3
f 37/62/3 12/21/3 8/12/3
f 37/61/3 8/13/3 36/60/3
f 21/36/3 35/58/3 12/20/3
f 21/35/3 12/21/3 37/62/3
f 24/42/3 15/26/3 35/57/3
f 24/41/3 35/58/3 21/36/3
f 26/45/3 15/26/3 24/42/3
f 41/69/3 38/64/3 1/1/3
f 7/11/3 39/66/3 38/63/3
f 7/10/3 38/64/3 41/69/3
f 9/15/3 4/7/3 39/65/3
f 9/14/3 39/66/3 7/11/3
f 13/23/3 40/68/3 4/6/3
f 13/22/3 4/7/3 9/15/3
f 14/25/3 70/118/3 40/67/3
f 14/24/3 40/68/3 13/23/3
f 71/119/3 70/118/3 14/25/3
f 45/76/3 18/30/3 16/27/3
f 46/78/3 42/71/3 18/29/3
f 46/77/3 18/30/3 45/76/3
f 31/51/3 43/73/3 42/70/3
f 31/50/3 42/71/3 46/78/3
f 47/80/3 44/75/3 43/72/3
f 47/79/3 43/73/3 31/51/3
f 48/82/3 27/46/3 44/74/3
f 48/81/3 44/75/3 47/80/3
f 72/120/3 27/46/3 48/82/3
f 49/83/4 2/3/4 69/117/4
f 2/2/4 3/5/4 52/89/4
f 69/117/4 2/3/4 52/88/4
f 3/4/4 50/85/4 10/17/4
f 52/89/4 3/5/4 10/16/4
f 50/84/4 51/87/4 53/91/4
f 10/17/4 50/85/4 53/90/4
f 51/86/4 5/8/4 54/93/4
f 53/91/4 51/87/4 54/92/4
f 54/93/4 5/8/4 55/94/4
f 17/28/4 19/32/4 30/49/4
f 19/31/4 56/96/4 57/98/4
f 30/49/4 19/32/4 57/97/4
f 56/95/4 22/38/4 32/53/4
f 57/98/4 56/96/4 32/52/4
f 22/37/4 25/44/4 58/100/4
f 32/53/4 22/38/4 58/99/4
f 25/43/4 28/47/4 59/102/4
f 58/100/4 25/44/4 59/101/4
f 59/102/4 28/47/4 60/103/4
f 6/9/4 61/105/4 65/111/4
f 61/104/4 11/19/4 66/113/4
f 65/111/4 61/105/4 66/112/4
f 11/18/4 62/107/4 20/34/4
f 66/113/4 11/19/4 20/33/4
f 62/106/4 63/109/4 23/40/4
f 20/34/4 62/107/4 23/39/4
f 63/108/4 64/110/4 67/115/4
f 23/40/4 63/109/4 67/114/4
f 67/115/4 64/110/4 29/48/4
f 41/69/5 68/116/5 33/54/5
f 16/27/5 68/116/5 41/69/5
f 49/83/5 41/69/5 1/1/5
f 49/83/5 45/76/5 16/27/5
f 49/83/5 16/27/5 41/69/5
f 69/117/5 45/76/5 49/83/5
f 17/28/5 45/76/5 69/117/5
f 30/49/5 45/76/5 17/28/5
f 6/9/5 17/28/5 69/117/5
f 65/111/5 17/28/5 6/9/5
f 15/26/6 26/45/6 71/119/6
f 71/119/6 26/45/6 27/46/6
f 70/118/6 71/119/6 5/8/6
f 27/46/6 72/120/6 5/8/6
f 71/119/6 27/46/6 5/8/6
f 5/8/6 72/120/6 55/94/6
f 55/94/6 72/120/6 28/47/6
f 28/47/6 72/120/6 60/103/6
f 55/94/6 28/47/6 64/110/6
f 64/110/6 28/47/6 29/48/6
