# Blender 3.4.1
# www.blender.org
mtllib key_blue.mtl
o Untitled
v -1.000000 -1.000000 -1.000000
v -1.000000 -0.600000 1.000000
v -1.000000 -0.600000 -1.000000
v -1.000000 -0.400000 1.000000
v -1.000000 -0.400000 -1.000000
v -1.000000 0.600000 1.000000
v -1.000000 1.000000 -1.000000
v 1.000000 -0.600000 1.000000
v 1.000000 -0.600000 -1.000000
v 1.000000 0.400000 1.000000
v 1.000000 0.400000 -1.000000
v 1.000000 0.600000 1.000000
v -1.000000 0.400000 1.000000
v -1.000000 1.000000 1.000000
v 1.000000 -0.400000 1.000000
v 1.000000 1.000000 1.000000
v -1.000000 0.400000 -1.000000
v -1.000000 0.600000 -1.000000
v 1.000000 -1.000000 -1.000000
v 1.000000 -0.400000 -1.000000
v 1.000000 0.600000 -1.000000
v 1.000000 1.000000 -1.000000
v -1.000000 -1.000000 1.000000
v 1.000000 -1.000000 1.000000
vn -1.0000 -0.0000 -0.0000
vn 1.0000 -0.0000 -0.0000
vn -0.0000 -0.0000 1.0000
vn -0.0000 -0.0000 -1.0000
vn -0.0000 -1.0000 -0.0000
vn -0.0000 1.0000 -0.0000
vt 0.638672 0.500000
vt 0.361328 0.500000
vt 0.638672 0.500000
vt 0.361328 0.500000
vt 0.638672 0.500000
vt 0.638672 0.500000
vt 0.361328 0.500000
vt 0.638672 0.500000
vt 0.361328 0.500000
vt 0.638672 0.500000
vt 0.361328 0.500000
vt 0.638672 0.500000
vt 0.638672 0.500000
vt 0.361328 0.500000
vt 0.638672 0.500000
vt 0.361328 0.500000
vt 0.638672 0.500000
vt 0.361328 0.500000
vt 0.638672 0.500000
vt 0.361328 0.500000
vt 0.361328 0.500000
vt 0.638672 0.500000
vt 0.361328 0.500000
vt 0.638672 0.500000
vt 0.638672 0.500000
vt 0.361328 0.500000
vt 0.638672 0.500000
vt 0.638672 0.500000
vt 0.361328 0.500000
vt 0.638672 0.500000
vt 0.638672 0.500000
vt 0.361328 0.500000
vt 0.638672 0.500000
vt 0.361328 0.500000
vt 0.638672 0.500000
vt 0.361328 0.500000
vt 0.638672 0.500000
vt 0.638672 0.500000
vt 0.638672 0.500000
vt 0.638672 0.500000
s 0
usemtl palette
f 2/3/1 1/1/1 23/39/1
f 3/5/1 1/1/1 2/3/1
f 4/7/1 3/4/1 2/2/1
f 5/9/1 3/4/1 4/7/1
f 13/24/1 5/8/1 4/6/1
f 17/30/1 5/8/1 13/24/1
f 6/11/1 17/29/1 13/23/1
f 18/32/1 17/29/1 6/11/1
f 14/25/1 18/31/1 6/10/1
f 7/12/1 18/31/1 14/25/1
f 24/40/2 19/33/2 8/13/2
f 8/13/2 19/33/2 9/15/2
f 8/14/2 9/16/2 15/26/2
f 15/26/2 9/16/2 20/34/2
f 15/27/2 20/35/2 10/17/2
f 10/17/2 20/35/2 11/19/2
f 10/18/2 11/20/2 12/21/2
f 12/21/2 11/20/2 21/36/2
f 12/22/2 21/37/2 16/28/2
f 16/28/2 21/37/2 22/38/2
f 24/40/3 2/3/3 23/39/3
f 8/14/3 4/7/3 2/2/3
f 8/13/3 2/3/3 24/40/3
f 15/27/3 13/24/3 4/6/3
f 15/26/3 4/7/3 8/14/3
f 10/18/3 6/11/3 13/23/3
f 10/17/3 13/24/3 15/27/3
f 12/22/3 14/25/3 6/10/3
f 12/21/3 6/11/3 10/18/3
f 16/28/3 14/25/3 12/22/3
f 1/1/4 3/5/4 19/33/4
f 3/4/4 5/9/4 9/16/4
f 19/33/4 3/5/4 9/15/4
f 5/8/4 17/30/4 20/35/4
f 9/16/4 5/9/4 20/34/4
f 17/29/4 18/32/4 11/20/4
f 20/35/4 17/30/4 11/19/4
f 18/31/4 7/12/4 21/37/4
f 11/20/4 18/32/4 21/36/4
f 21/37/4 7/12/4 22/38/4
f 1/1/5 24/40/5 23/39/5
f 19/33/5 24/40/5 1/1/5
f 14/25/6 16/28/6 7/12/6
f 7/12/6 16/28/6 22/38/6
