# Blender 3.4.1
# www.blender.org
mtllib key_blue_outline.mtl
o Untitled
v -1.000000 -1.000000 -1.000000
v -1.000000 -0.600000 1.000000
v -1.000000 -0.600000 -1.000000
v -1.000000 -0.400000 1.000000
v -1.000000 -0.400000 -1.000000
v -1.000000 0.600000 1.000000
v -1.000000 1.000000 -1.000000
v 1.000000 -0.600000 1.000000
v 1.000000 -0.600000 -1.000000
v 1.000000 0.400000 1.000000
v 1.000000 0.400000 -1.000000
v 1.000000 0.600000 1.000000
v -1.000000 0.400000 1.000000
v -1.000000 1.000000 1.000000
v 1.000000 -0.400000 1.000000
v 1.000000 1.000000 1.000000
v -1.000000 0.400000 -1.000000
v -1.000000 0.600000 -1.000000
v 1.000000 -1.000000 -1.000000
v 1.000000 -0.400000 -1.000000
v 1.000000 0.600000 -1.000000
v 1.000000 1.000000 -1.000000
v -1.000000 -1.000000 1.000000
v 1.000000 -1.000000 1.000000
v -1.017321 -1.017320 -1.017321
v -1.021213 -0.600000 1.021213
v -1.021213 -0.600000 -1.021213
v -1.021213 -0.400000 1.021213
v -1.021213 -0.400000 -1.021213
v -1.021213 0.600000 1.021213
v -1.017321 1.017321 -1.017320
v 1.021213 -0.600000 1.021213
v 1.021213 -0.600000 -1.021213
v 1.021213 0.400000 1.021213
v 1.021213 0.400000 -1.021213
v 1.021213 0.600000 1.021213
v -1.021213 0.400000 1.021213
v -1.017321 1.017320 1.017321
v 1.021213 -0.400000 1.021213
v 1.017321 1.017320 1.017321
v -1.021213 0.400000 -1.021213
v -1.021213 0.600000 -1.021213
v 1.017321 -1.017320 -1.017321
v 1.021213 -0.400000 -1.021213
v 1.021213 0.600000 -1.021213
v 1.017321 1.017321 -1.017320
v -1.017321 -1.017321 1.017320
v 1.017321 -1.017321 1.017320
vn -1.0000 -0.0000 -0.0000
vn 1.0000 -0.0000 -0.0000
vn -0.0000 -0.0000 1.0000
vn -0.0000 -0.0000 -1.0000
vn -0.0000 -1.0000 -0.0000
vn -0.0000 1.0000 -0.0000
vn 1.0000 0.0093 -0.0000
vn 1.0000 -0.0093 -0.0000
vn -1.0000 0.0093 -0.0000
vn -1.0000 -0.0093 -0.0000
vn -0.0000 0.0093 -1.0000
vn -0.0000 -0.0093 -1.0000
vn -0.0000 0.0093 1.0000
vn -0.0000 -0.0093 1.0000
vt 0.638672 0.500000
vt 0.361328 0.500000
vt 0.638672 0.500000
vt 0.361328 0.500000
vt 0.638672 0.500000
vt 0.638672 0.500000
vt 0.361328 0.500000
vt 0.638672 0.500000
vt 0.361328 0.500000
vt 0.638672 0.500000
vt 0.361328 0.500000
vt 0.638672 0.500000
vt 0.638672 0.500000
vt 0.361328 0.500000
vt 0.638672 0.500000
vt 0.361328 0.500000
vt 0.638672 0.500000
vt 0.361328 0.500000
vt 0.638672 0.500000
vt 0.361328 0.500000
vt 0.361328 0.500000
vt 0.638672 0.500000
vt 0.361328 0.500000
vt 0.638672 0.500000
vt 0.638672 0.500000
vt 0.361328 0.500000
vt 0.638672 0.500000
vt 0.638672 0.500000
vt 0.361328 0.500000
vt 0.638672 0.500000
vt 0.638672 0.500000
vt 0.361328 0.500000
vt 0.638672 0.500000
vt 0.361328 0.500000
vt 0.638672 0.500000
vt 0.361328 0.500000
vt 0.638672 0.500000
vt 0.638672 0.500000
vt 0.638672 0.500000
vt 0.638672 0.500000
vt 0.638672 0.500000
vt 0.361328 0.500000
vt 0.638672 0.500000
vt 0.361328 0.500000
vt 0.638672 0.500000
vt 0.638672 0.500000
vt 0.361328 0.500000
vt 0.638672 0.500000
vt 0.361328 0.500000
vt 0.638672 0.500000
vt 0.361328 0.500000
vt 0.638672 0.500000
vt 0.638672 0.500000
vt 0.361328 0.500000
vt 0.638672 0.500000
vt 0.361328 0.500000
vt 0.638672 0.500000
vt 0.361328 0.500000
vt 0.638672 0.500000
vt 0.361328 0.500000
vt 0.361328 0.500000
vt 0.638672 0.500000
vt 0.361328 0.500000
vt 0.638672 0.500000
vt 0.638672 0.500000
vt 0.361328 0.500000
vt 0.638672 0.500000
vt 0.638672 0.500000
vt 0.361328 0.500000
vt 0.638672 0.500000
vt 0.638672 0.500000
vt 0.361328 0.500000
vt 0.638672 0.500000
vt 0.361328 0.500000
vt 0.638672 0.500000
vt 0.361328 0.500000
vt 0.638672 0.500000
vt 0.638672 0.500000
vt 0.638672 0.500000
vt 0.638672 0.500000
s 0
usemtl palette
f 2/3/1 1/1/1 23/39/1
f 3/5/1 1/1/1 2/3/1
f 4/7/1 3/4/1 2/2/1
f 5/9/1 3/4/1 4/7/1
f 13/24/1 5/8/1 4/6/1
f 17/30/1 5/8/1 13/24/1
f 6/11/1 17/29/1 13/23/1
f 18/32/1 17/29/1 6/11/1
f 14/25/1 18/31/1 6/10/1
f 7/12/1 18/31/1 14/25/1
f 24/40/2 19/33/2 8/13/2
f 8/13/2 19/33/2 9/15/2
f 8/14/2 9/16/2 15/26/2
f 15/26/2 9/16/2 20/34/2
f 15/27/2 20/35/2 10/17/2
f 10/17/2 20/35/2 11/19/2
f 10/18/2 11/20/2 12/21/2
f 12/21/2 11/20/2 21/36/2
f 12/22/2 21/37/2 16/28/2
f 16/28/2 21/37/2 22/38/2
f 24/40/3 2/3/3 23/39/3
f 8/14/3 4/7/3 2/2/3
f 8/13/3 2/3/3 24/40/3
f 15/27/3 13/24/3 4/6/3
f 15/26/3 4/7/3 8/14/3
f 10/18/3 6/11/3 13/23/3
f 10/17/3 13/24/3 15/27/3
f 12/22/3 14/25/3 6/10/3
f 12/21/3 6/11/3 10/18/3
f 16/28/3 14/25/3 12/22/3
f 1/1/4 3/5/4 19/33/4
f 3/4/4 5/9/4 9/16/4
f 19/33/4 3/5/4 9/15/4
f 5/8/4 17/30/4 20/35/4
f 9/16/4 5/9/4 20/34/4
f 17/29/4 18/32/4 11/20/4
f 20/35/4 17/30/4 11/19/4
f 18/31/4 7/12/4 21/37/4
f 11/20/4 18/32/4 21/36/4
f 21/37/4 7/12/4 22/38/4
f 1/1/5 24/40/5 23/39/5
f 19/33/5 24/40/5 1/1/5
f 14/25/6 16/28/6 7/12/6
f 7/12/6 16/28/6 22/38/6
usemtl Material.001
f 26/43/7 47/79/7 25/41/7
f 27/45/7 26/43/7 25/41/7
f 28/47/2 26/42/2 27/44/2
f 29/49/2 28/47/2 27/44/2
f 37/64/2 28/46/2 29/48/2
f 41/70/2 37/64/2 29/48/2
f 30/51/2 37/63/2 41/69/2
f 42/72/2 30/51/2 41/69/2
f 38/65/8 30/50/8 42/71/8
f 31/52/8 38/65/8 42/71/8
f 48/80/9 32/53/9 43/73/9
f 32/53/9 33/55/9 43/73/9
f 32/54/1 39/66/1 33/56/1
f 39/66/1 44/74/1 33/56/1
f 39/67/1 34/57/1 44/75/1
f 34/57/1 35/59/1 44/75/1
f 34/58/1 36/61/1 35/60/1
f 36/61/1 45/76/1 35/60/1
f 36/62/10 40/68/10 45/77/10
f 40/68/10 46/78/10 45/77/10
f 48/80/11 47/79/11 26/43/11
f 32/54/4 26/42/4 28/47/4
f 32/53/11 48/80/11 26/43/11
f 39/67/4 28/46/4 37/64/4
f 39/66/4 32/54/4 28/47/4
f 34/58/4 37/63/4 30/51/4
f 34/57/4 39/67/4 37/64/4
f 36/62/12 30/50/12 38/65/12
f 36/61/4 34/58/4 30/51/4
f 40/68/12 36/62/12 38/65/12
f 25/41/13 43/73/13 27/45/13
f 27/44/3 33/56/3 29/49/3
f 43/73/13 33/55/13 27/45/13
f 29/48/3 44/75/3 41/70/3
f 33/56/3 44/74/3 29/49/3
f 41/69/3 35/60/3 42/72/3
f 44/75/3 35/59/3 41/70/3
f 42/71/14 45/77/14 31/52/14
f 35/60/3 45/76/3 42/72/3
f 45/77/14 46/78/14 31/52/14
f 25/41/6 47/79/6 48/80/6
f 43/73/6 25/41/6 48/80/6
f 38/65/5 31/52/5 40/68/5
f 31/52/5 46/78/5 40/68/5
