# Blender 3.4.1
# www.blender.org
mtllib fuel_heli_glass.mtl
o fuel_heli_glass
v -0.400000 0.100000 -0.400000
v -0.400000 0.300000 -0.500000
v -0.400000 0.100000 -0.500000
v -0.400000 0.000000 -0.300000
v -0.400000 0.000000 -0.400000
v -0.400000 0.200000 -0.300000
v -0.400000 -0.100000 -0.100000
v -0.400000 -0.100000 -0.300000
v -0.400000 -0.200000 -0.000000
v -0.400000 -0.200000 -0.100000
v -0.400000 0.000000 0.000000
v -0.400000 -0.100000 0.100000
v -0.400000 -0.300000 -0.000000
v -0.400000 -0.000000 0.100000
v -0.400000 -0.200000 0.300000
v 0.400000 0.100000 -0.500000
v 0.400000 0.100000 -0.400000
v 0.400000 0.000000 -0.400000
v 0.400000 0.000000 -0.300000
v 0.400000 0.300000 -0.300000
v 0.400000 -0.100000 -0.300000
v 0.400000 -0.100000 -0.100000
v 0.400000 0.100000 -0.100000
v 0.400000 -0.200000 -0.100000
v 0.400000 -0.200000 -0.000000
v 0.400000 0.000000 0.000000
v 0.400000 0.100000 0.000000
v 0.400000 -0.300000 -0.000000
v 0.400000 -0.000000 0.100000
v 0.400000 -0.200000 0.200000
v 0.400000 -0.100000 0.200000
v 0.400000 -0.300000 0.300000
v 0.400000 -0.200000 0.300000
v -0.400000 -0.300000 0.300000
v -0.300000 -0.300000 0.400000
v 0.300000 -0.300000 0.400000
v -0.400000 -0.200000 0.200000
v -0.300000 -0.200000 0.400000
v 0.300000 -0.200000 0.400000
v -0.400000 -0.100000 0.200000
v -0.300000 -0.100000 0.300000
v 0.300000 -0.100000 0.300000
v 0.400000 -0.100000 0.100000
v -0.300000 -0.000000 0.200000
v 0.300000 -0.000000 0.200000
v -0.400000 0.100000 -0.100000
v -0.400000 0.100000 0.000000
v -0.300000 0.100000 0.100000
v 0.300000 0.100000 0.100000
v -0.400000 0.200000 -0.100000
v -0.300000 0.200000 0.000000
v 0.300000 0.200000 0.000000
v 0.400000 0.200000 -0.300000
v 0.400000 0.200000 -0.100000
v -0.400000 0.300000 -0.300000
v -0.300000 0.300000 -0.100000
v 0.300000 0.300000 -0.100000
v 0.400000 0.300000 -0.500000
v -0.300000 0.400000 -0.500000
v -0.300000 0.400000 -0.300000
v -0.200000 0.400000 -0.300000
v -0.200000 0.400000 -0.200000
v 0.200000 0.400000 -0.300000
v 0.200000 0.400000 -0.200000
v 0.300000 0.400000 -0.500000
v 0.300000 0.400000 -0.300000
vn -0.0000 -0.0000 1.0000
vn -1.0000 -0.0000 -0.0000
vn -0.9937 0.0193 -0.1103
vn -0.9531 0.1390 0.2689
vn -0.9914 0.0162 -0.1295
vn -0.9869 0.0864 -0.1360
vn -0.9877 0.0483 -0.1487
vn -0.6797 -0.1173 0.7241
vn -0.9914 -0.1035 -0.0795
vn -0.6430 0.1900 0.7419
vn -0.9058 0.0115 0.4236
vn -0.7660 0.5284 0.3662
vn 1.0000 -0.0000 -0.0000
vn 0.9952 -0.0980 -0.0000
vn 0.9937 -0.0000 -0.1119
vn 0.8536 -0.0620 -0.5172
vn 0.9914 -0.1305 -0.0000
vn 0.9706 0.1242 -0.2060
vn 0.9877 -0.1564 -0.0000
vn 0.7428 0.6379 -0.2035
vn 0.9914 -0.0179 -0.1293
vn 0.6874 0.7207 0.0900
vn 0.9877 0.0846 -0.1316
vn 0.7568 0.2303 0.6117
vn 0.7080 0.6206 0.3371
vn -0.1422 0.9145 -0.3787
vn -0.0000 1.0000 -0.0000
vn 0.1768 0.9268 0.3314
vn 0.1986 0.9030 0.3809
vn 0.1173 0.9480 0.2959
vn -0.4300 0.9015 -0.0489
vn 0.5158 0.8554 -0.0480
vn -0.2418 0.6861 0.6861
vn -0.3022 0.7201 0.6246
vn 0.2472 0.7095 0.6600
vn 0.2418 0.6861 0.6861
vn 0.3180 0.6341 0.7048
vn -0.3180 0.7048 0.6341
vn -0.3029 0.6739 0.6739
vn 0.3029 0.6739 0.6739
vn -0.3734 0.5990 0.7084
vn 0.1384 0.7795 0.6110
vn 0.7071 -0.0000 0.7071
vn -0.7071 -0.0000 0.7071
vt 0.814453 0.500000
vt 0.814453 0.500000
vt 0.814453 0.500000
vt 0.814453 0.500000
vt 0.814453 0.500000
vt 0.814453 0.500000
vt 0.814453 0.500000
vt 0.814453 0.500000
vt 0.814453 0.500000
vt 0.814453 0.500000
vt 0.814453 0.500000
vt 0.814453 0.500000
vt 0.814453 0.500000
vt 0.814453 0.500000
vt 0.000000 0.000000
vt 0.814453 0.500000
vt 0.000000 0.000000
vt 0.814453 0.500000
vt 0.814453 0.500000
vt 0.814453 0.500000
vt 0.814453 0.500000
vt 0.814453 0.500000
vt 0.814453 0.500000
vt 0.814453 0.500000
vt 0.814453 0.500000
vt 0.814453 0.500000
vt 0.814453 0.500000
vt 0.814453 0.500000
vt 0.814453 0.500000
vt 0.000000 0.000000
vt 0.814453 0.500000
vt 0.814453 0.500000
vt 0.000000 0.000000
vt 0.814453 0.500000
vt 0.814453 0.500000
vt 0.000000 0.000000
vt 0.814453 0.500000
vt 0.000000 0.000000
vt 0.814453 0.500000
vt 0.000000 0.000000
vt 0.814453 0.500000
vt 0.000000 0.000000
vt 0.000000 0.000000
vt 0.000000 0.000000
vt 0.814453 0.500000
vt 0.000000 0.000000
vt 0.000000 0.000000
vt 0.814453 0.500000
vt 0.000000 0.000000
vt 0.814453 0.500000
vt 0.814453 0.500000
vt 0.814453 0.500000
vt 0.814453 0.500000
vt 0.814453 0.500000
vt 0.814453 0.500000
vt 0.814453 0.500000
vt 0.000000 0.000000
vt 0.814453 0.500000
vt 0.814453 0.500000
vt 0.814453 0.500000
vt 0.000000 0.000000
vt 0.814453 0.500000
vt 0.814453 0.500000
vt 0.814453 0.500000
vt 0.814453 0.500000
vt 0.000000 0.000000
vt 0.814453 0.500000
vt 0.814453 0.500000
vt 0.814453 0.500000
vt 0.814453 0.500000
vt 0.814453 0.500000
vt 0.814453 0.500000
vt 0.814453 0.500000
vt 0.814453 0.500000
vt 0.814453 0.500000
vt 0.814453 0.500000
vt 0.814453 0.500000
vt 0.814453 0.500000
vt 0.000000 0.000000
s 0
usemtl palette
f 36/44/1 39/47/1 38/46/1 35/43/1
s 1
f 1/1/2 2/2/2 3/3/2
f 4/4/2 1/1/2 5/5/2
f 6/6/3 2/2/2 1/1/2
f 6/6/3 1/1/2 4/4/2
f 55/67/4 2/2/2 6/6/3
f 7/7/2 4/4/2 8/8/2
f 7/7/2 6/6/3 4/4/2
f 46/55/5 6/6/3 7/7/2
f 50/60/6 6/6/3 46/55/5
f 9/9/2 7/7/2 10/10/2
f 9/9/2 46/55/5 7/7/2
f 11/11/7 46/55/5 9/9/2
f 47/56/8 46/55/5 11/11/7
f 12/12/9 9/9/2 13/13/2
f 12/12/9 11/11/7 9/9/2
f 14/14/10 11/11/7 12/12/9
f 37/45/7 12/12/9 13/13/2
f 40/48/11 12/12/9 37/45/7
f 34/41/2 37/45/7 13/13/2
f 15/16/12 37/45/7 34/41/2
f 16/18/13 58/70/14 17/19/13
f 18/20/13 17/19/13 19/21/13
f 17/19/13 58/70/14 53/64/15
f 19/21/13 17/19/13 53/64/15
f 53/64/15 58/70/14 20/22/16
f 21/23/13 19/21/13 22/24/13
f 19/21/13 53/64/15 22/24/13
f 22/24/13 53/64/15 23/25/17
f 23/25/17 53/64/15 54/65/18
f 24/26/13 22/24/13 25/27/13
f 22/24/13 23/25/17 25/27/13
f 25/27/13 23/25/17 26/28/19
f 26/28/19 23/25/17 27/29/20
f 28/31/13 25/27/13 43/52/21
f 25/27/13 26/28/19 43/52/21
f 43/52/21 26/28/19 29/32/22
f 28/31/13 43/52/21 30/34/23
f 30/34/23 43/52/21 31/35/24
f 28/31/13 30/34/23 32/37/13
f 32/37/13 30/34/23 33/39/25
f 59/71/26 61/73/27 63/75/27 65/77/28
f 62/74/29 64/76/30 63/75/27 61/73/27
f 60/72/31 61/73/27 59/71/26
f 66/78/32 65/77/28 63/75/27
f 38/46/33 41/50/34 15/17/12
f 42/51/35 39/47/36 33/40/25
f 38/46/33 39/47/36 42/51/35 41/50/34
f 42/51/35 45/54/37 44/53/38 41/50/34
f 48/58/39 44/53/38 45/54/37 49/59/40
f 48/58/39 49/59/40 52/63/40 51/62/39
f 56/68/41 51/62/39 52/63/40 57/69/42
s 0
f 33/40/43 39/47/43 36/44/43 32/38/43
s 1
f 42/51/35 33/40/25 31/36/24
f 42/51/35 31/36/24 45/54/37
f 45/54/37 31/36/24 29/33/22
f 49/59/40 45/54/37 29/33/22
f 29/33/22 27/30/20 49/59/40
f 52/63/40 49/59/40 27/30/20
f 52/63/40 27/30/20 54/66/18
f 52/63/40 54/66/18 57/69/42
f 33/40/25 30/34/23 31/36/24
f 31/36/24 43/52/21 29/33/22
f 29/33/22 26/28/19 27/30/20
f 27/30/20 23/25/17 54/66/18
s 0
f 38/46/44 15/17/44 34/42/44 35/43/44
s 1
f 40/49/11 15/17/12 41/50/34
f 41/50/34 44/53/38 40/49/11
f 14/15/10 40/49/11 44/53/38
f 48/58/39 14/15/10 44/53/38
f 47/57/8 14/15/10 48/58/39
f 51/62/39 47/57/8 48/58/39
f 47/57/8 51/62/39 50/61/6
f 51/62/39 56/68/41 50/61/6
f 15/17/12 40/49/11 37/45/7
f 40/49/11 14/15/10 12/12/9
f 14/15/10 47/57/8 11/11/7
f 47/57/8 50/61/6 46/55/5
f 20/22/16 58/70/14 65/77/28 66/78/32
f 60/72/31 59/71/26 2/2/2 55/67/4
f 50/61/6 56/68/41 60/72/31 55/67/4
f 64/76/30 57/69/42 66/79/32
f 66/79/32 63/75/27 64/76/30
f 57/69/42 54/66/18 20/22/16 66/79/32
f 54/66/18 53/64/15 20/22/16
f 61/73/27 60/72/31 62/74/29
f 62/74/29 60/72/31 56/68/41
f 64/76/30 62/74/29 56/68/41 57/69/42
f 50/61/6 55/67/4 6/6/3
