# ProBuilder 5.0.7
# https://unity3d.com/unity/features/worldbuilding/probuilder
# 01.04.2025 16:23:16

mtllib ./FloorCentral_4.mtl
o FloorCentral_4

g FloorCentral_4
v 10 -0.737945 -10
v 10 -0.737945 -9
v 9 -0.737945 -10
v 9 -0.737945 -9
v 10 -0.737945 -8
v 9 -0.737945 -8
v 10 0 -7
v 9 0 -7
v 10 0 -6
v 9 0 -6
v 10 0 -5
v 9 0 -5
v 10 0 -4
v 9 0 -4
v 10 0 -3
v 9 0 -3
v 10 0 -2
v 9 0 -2
v 10 0 -1
v 9 0 -1
v 10 0 0
v 9 0 0
v 10 0 1
v 9 0 1
v 10 0 2
v 9 0 2
v 10 0 3
v 9 0 3
v 10 0 4
v 9 0 4
v 10 0 5
v 9 0 5
v 10 0 6
v 9 0 6
v 10 0 7
v 9 0 7
v 10 0 8
v 9 0 8
v 10 0 9
v 9 0 9
v 10 0 10
v 9 0 10
v 8 -0.737945 -10
v 8 -0.737945 -9
v 8 0 -8
v 8 0 -7
v 8 0 -6
v 8 0 -5
v 8 0 -4
v 8 0 -3
v 8 0 -2
v 8 0 -1
v 8 0 0
v 8 0 1
v 8 0 2
v 8 0 3
v 8 0 4
v 8 0 5
v 8 0 6
v 8 0 7
v 8 0 8
v 8 0 9
v 8 0 10
v 7 0 -10
v 7 0 -9
v 7 0 -8
v 7 0 -7
v 7 0 -6
v 7 0 -5
v 7 0 -4
v 7 0 -3
v 7 0 -2
v 7 0 -1
v 7 0 0
v 7 0 1
v 7 0 2
v 7 0 3
v 7 0 4
v 7 0 5
v 7 0 6
v 7 0 7
v 7 0 8
v 7 0 9
v 7 0 10
v 6 0 -10
v 6 0 -9
v 6 0 -8
v 6 0 -7
v 6 0 -6
v 6 0 -5
v 6 0 -4
v 6 0 -3
v 6 0 -2
v 6 0 -1
v 6 0 0
v 6 0 1
v 6 0 2
v 6 0 3
v 6 0 4
v 6 0 5
v 6 0 6
v 6 0 7
v 6 0 8
v 6 0 9
v 6 0 10
v 5 0 -10
v 5 0 -9
v 5 0 -8
v 5 0 -7
v 5 0 -6
v 5 0 -5
v 5 0 -4
v 5 0 -3
v 5 0 -2
v 5 0 -1
v 5 0 0
v 5 0 1
v 5 0 2
v 5 0 3
v 5 0 4
v 5 0 5
v 5 0 6
v 5 0 7
v 5 0 8
v 5 0 9
v 5 0 10
v 4 0 -10
v 4 0 -9
v 4 0 -8
v 4 0 -7
v 4 0 -6
v 4 0 -5
v 4 0 -4
v 4 0 -3
v 4 0 -2
v 4 0 -1
v 4 0 0
v 4 0 1
v 4 0 2
v 4 0 3
v 4 0 4
v 4 0 5
v 4 0 6
v 4 0 7
v 4 0 8
v 4 0 9
v 4 0 10
v 3 0 -10
v 3 0 -9
v 3 0 -8
v 3 0 -7
v 3 0 -6
v 3 0 -5
v 3 0 -4
v 3 0 -3
v 3 0 -2
v 3 0 -1
v 3 0 0
v 3 0 1
v 3 0 2
v 3 0 3
v 3 0 4
v 3 0 5
v 3 0 6
v 3 0 7
v 3 0 8
v 3 0 9
v 3 0 10
v 2 0 -10
v 2 0 -9
v 2 0 -8
v 2 0 -7
v 2 0 -6
v 2 0 -5
v 2 0 -4
v 2 0 -3
v 2 0 -2
v 2 0 -1
v 2 0 0
v 2 0 1
v 2 0 2
v 2 0 3
v 2 0 4
v 2 0 5
v 2 0 6
v 2 0 7
v 2 0 8
v 2 0 9
v 2 0 10
v 1 0 -10
v 1 0 -9
v 1 0 -8
v 1 0 -7
v 1 0 -6
v 1 0 -5
v 1 0 -4
v 1 0 -3
v 1 0 -2
v 1 0 -1
v 1 0 0
v 1 0 1
v 1 0 2
v 1 0 3
v 1 0 4
v 1 0 5
v 1 0 6
v 1 0 7
v 1 0 8
v 1 0 9
v 1 0 10
v 0 0 -10
v 0 0 -9
v 0 0 -8
v 0 0 -7
v 0 0 -6
v 0 0 -5
v 0 0 -4
v 0 0 -3
v 0 0 -2
v 0 0 -1
v 0 0 0
v 0 0 1
v 0 0 2
v 0 0 3
v 0 0 4
v 0 0 5
v 0 0 6
v 0 0 7
v 0 0 8
v 0 0 9
v 0 0 10
v -1 0 -10
v -1 0 -9
v -1 0 -8
v -1 0 -7
v -1 0 -6
v -1 0 -5
v -1 0 -4
v -1 0 -3
v -1 0 -2
v -1 0 -1
v -1 0 0
v -1 0 1
v -1 0 2
v -1 0 3
v -1 0 4
v -1 0 5
v -1 0 6
v -1 0 7
v -1 0 8
v -1 0 9
v -1 0 10
v -2 0 -10
v -2 0 -9
v -2 0 -8
v -2 0 -7
v -2 0 -6
v -2 0 -5
v -2 0 -4
v -2 0 -3
v -2 0 -2
v -2 0 -1
v -2 0 0
v -2 0 1
v -2 0 2
v -2 0 3
v -2 0 4
v -2 0 5
v -2 0 6
v -2 0 7
v -2 0 8
v -2 0 9
v -2 0 10
v -3 0 -10
v -3 0 -9
v -3 0 -8
v -3 0 -7
v -3 0 -6
v -3 0 -5
v -3 0 -4
v -3 0 -3
v -3 0 -2
v -3 0 -1
v -3 0 0
v -3 0 1
v -3 0 2
v -3 0 3
v -3 0 4
v -3 0 5
v -3 0 6
v -3 0 7
v -3 0 8
v -3 0 9
v -3 0 10
v -4 0 -10
v -4 0 -9
v -4 0 -8
v -4 0 -7
v -4 0 -6
v -4 0 -5
v -4 0 -4
v -4 0 -3
v -4 0 -2
v -4 0 -1
v -4 0 0
v -4 0 1
v -4 0 2
v -4 0 3
v -4 0 4
v -4 0 5
v -4 0 6
v -4 0 7
v -4 0 8
v -4 0 9
v -4 0 10
v -5 0 -10
v -5 0 -9
v -5 0 -8
v -5 0 -7
v -5 0 -6
v -5 0 -5
v -5 0 -4
v -5 0 -3
v -5 0 -2
v -5 0 -1
v -5 0 0
v -5 0 1
v -5 0 2
v -5 0 3
v -5 0 4
v -5 0 5
v -5 0 6
v -5 0 7
v -5 0 8
v -5 0 9
v -5 0 10
v -6 0 -10
v -6 0 -9
v -6 0 -8
v -6 0 -7
v -6 0 -6
v -6 0 -5
v -6 0 -4
v -6 0 -3
v -6 0 -2
v -6 0 -1
v -6 0 0
v -6 0 1
v -6 0 2
v -6 0 3
v -6 0 4
v -6 0 5
v -6 0 6
v -6 0 7
v -6 0 8
v -6 0 9
v -6 0 10
v -7 0 -10
v -7 0 -9
v -7 0 -8
v -7 0 -7
v -7 0 -6
v -7 0 -5
v -7 0 -4
v -7 0 -3
v -7 0 -2
v -7 0 -1
v -7 0 0
v -7 0 1
v -7 0 2
v -7 0 3
v -7 0 4
v -7 0 5
v -7 0 6
v -7 0 7
v -7 0 8
v -7 0 9
v -7 0 10
v -8 0 -10
v -8 0 -9
v -8 0 -8
v -8 0 -7
v -8 0 -6
v -8 0 -5
v -8 0 -4
v -8 0 -3
v -8 0 -2
v -8 0 -1
v -8 0 0
v -8 0 1
v -8 0 2
v -8 0 3
v -8 0 4
v -8 0 5
v -8 0 6
v -8 0 7
v -8 0 8
v -8 0 9
v -8 0 10
v -9 0 -10
v -9 0 -9
v -9 0 -8
v -9 0 -7
v -9 0 -6
v -9 0 -5
v -9 0 -4
v -9 0 -3
v -9 0 -2
v -9 0 -1
v -9 0 0
v -9 0 1
v -9 0 2
v -9 0 3
v -9 0 4
v -9 0 5
v -9 0 6
v -9 0 7
v -9 0 8
v -9 0 9
v -9 0 10
v -10 0 -10
v -10 0 -9
v -10 0 -8
v -10 0 -7
v -10 0 -6
v -10 0 -5
v -10 0 -4
v -10 0 -3
v -10 0 -2
v -10 0 -1
v -10 0 0
v -10 0 1
v -10 0 2
v -10 0 3
v -10 0 4
v -10 0 5
v -10 0 6
v -10 0 7
v -10 0 8
v -10 0 9
v -10 0 10

vt -10 -10
vt -10 -9
vt -9 -10
vt -9 -9
vt -10 -8
vt -9 -8
vt -10 -6.875227
vt -10 -5.632423
vt -9 -6.875227
vt -9 -5.632423
vt -10 -7
vt -10 -6
vt -9 -7
vt -9 -6
vt -10 -5
vt -9 -5
vt -10 -4
vt -9 -4
vt -10 -3
vt -9 -3
vt -10 -2
vt -9 -2
vt -10 -1
vt -9 -1
vt -10 0
vt -9 0
vt -10 1
vt -9 1
vt -10 2
vt -9 2
vt -10 3
vt -9 3
vt -10 4
vt -9 4
vt -10 5
vt -9 5
vt -10 6
vt -9 6
vt -10 7
vt -9 7
vt -10 8
vt -9 8
vt -10 9
vt -9 9
vt -10 10
vt -9 10
vt -8 -10
vt -8 -9
vt -8 -8
vt -7.679859 -4.453535
vt -7.241686 -3.290535
vt -6.437054 -4.453535
vt -6.437054 -3.593689
vt -8 -7
vt -8 -6
vt -8 -5
vt -8 -4
vt -8 -3
vt -8 -2
vt -8 -1
vt -8 0
vt -8 1
vt -8 2
vt -8 3
vt -8 4
vt -8 5
vt -8 6
vt -8 7
vt -8 8
vt -8 9
vt -8 10
vt -6.875227 -10
vt -6.875227 -9
vt -5.632423 -10
vt -5.632423 -9
vt -6.875227 -5.616534
vt -5.632422 -5.616534
vt -5.632422 -4.756689
vt -7 -8
vt -7 -7
vt -7 -6
vt -7 -5
vt -7 -4
vt -7 -3
vt -7 -2
vt -7 -1
vt -7 0
vt -7 1
vt -7 2
vt -7 3
vt -7 4
vt -7 5
vt -7 6
vt -7 7
vt -7 8
vt -7 9
vt -7 10
vt -7 -10
vt -7 -9
vt -6 -10
vt -6 -9
vt -6 -8
vt -6 -7
vt -6 -6
vt -6 -5
vt -6 -4
vt -6 -3
vt -6 -2
vt -6 -1
vt -6 0
vt -6 1
vt -6 2
vt -6 3
vt -6 4
vt -6 5
vt -6 6
vt -6 7
vt -6 8
vt -6 9
vt -6 10
vt -5 -10
vt -5 -9
vt -5 -8
vt -5 -7
vt -5 -6
vt -5 -5
vt -5 -4
vt -5 -3
vt -5 -2
vt -5 -1
vt -5 0
vt -5 1
vt -5 2
vt -5 3
vt -5 4
vt -5 5
vt -5 6
vt -5 7
vt -5 8
vt -5 9
vt -5 10
vt -4 -10
vt -4 -9
vt -4 -8
vt -4 -7
vt -4 -6
vt -4 -5
vt -4 -4
vt -4 -3
vt -4 -2
vt -4 -1
vt -4 0
vt -4 1
vt -4 2
vt -4 3
vt -4 4
vt -4 5
vt -4 6
vt -4 7
vt -4 8
vt -4 9
vt -4 10
vt -3 -10
vt -3 -9
vt -3 -8
vt -3 -7
vt -3 -6
vt -3 -5
vt -3 -4
vt -3 -3
vt -3 -2
vt -3 -1
vt -3 0
vt -3 1
vt -3 2
vt -3 3
vt -3 4
vt -3 5
vt -3 6
vt -3 7
vt -3 8
vt -3 9
vt -3 10
vt -2 -10
vt -2 -9
vt -2 -8
vt -2 -7
vt -2 -6
vt -2 -5
vt -2 -4
vt -2 -3
vt -2 -2
vt -2 -1
vt -2 0
vt -2 1
vt -2 2
vt -2 3
vt -2 4
vt -2 5
vt -2 6
vt -2 7
vt -2 8
vt -2 9
vt -2 10
vt -1 -10
vt -1 -9
vt -1 -8
vt -1 -7
vt -1 -6
vt -1 -5
vt -1 -4
vt -1 -3
vt -1 -2
vt -1 -1
vt -1 0
vt -1 1
vt -1 2
vt -1 3
vt -1 4
vt -1 5
vt -1 6
vt -1 7
vt -1 8
vt -1 9
vt -1 10
vt 0 -10
vt 0 -9
vt 0 -8
vt 0 -7
vt 0 -6
vt 0 -5
vt 0 -4
vt 0 -3
vt 0 -2
vt 0 -1
vt 0 0
vt 0 1
vt 0 2
vt 0 3
vt 0 4
vt 0 5
vt 0 6
vt 0 7
vt 0 8
vt 0 9
vt 0 10
vt 1 -10
vt 1 -9
vt 1 -8
vt 1 -7
vt 1 -6
vt 1 -5
vt 1 -4
vt 1 -3
vt 1 -2
vt 1 -1
vt 1 0
vt 1 1
vt 1 2
vt 1 3
vt 1 4
vt 1 5
vt 1 6
vt 1 7
vt 1 8
vt 1 9
vt 1 10
vt 2 -10
vt 2 -9
vt 2 -8
vt 2 -7
vt 2 -6
vt 2 -5
vt 2 -4
vt 2 -3
vt 2 -2
vt 2 -1
vt 2 0
vt 2 1
vt 2 2
vt 2 3
vt 2 4
vt 2 5
vt 2 6
vt 2 7
vt 2 8
vt 2 9
vt 2 10
vt 3 -10
vt 3 -9
vt 3 -8
vt 3 -7
vt 3 -6
vt 3 -5
vt 3 -4
vt 3 -3
vt 3 -2
vt 3 -1
vt 3 0
vt 3 1
vt 3 2
vt 3 3
vt 3 4
vt 3 5
vt 3 6
vt 3 7
vt 3 8
vt 3 9
vt 3 10
vt 4 -10
vt 4 -9
vt 4 -8
vt 4 -7
vt 4 -6
vt 4 -5
vt 4 -4
vt 4 -3
vt 4 -2
vt 4 -1
vt 4 0
vt 4 1
vt 4 2
vt 4 3
vt 4 4
vt 4 5
vt 4 6
vt 4 7
vt 4 8
vt 4 9
vt 4 10
vt 5 -10
vt 5 -9
vt 5 -8
vt 5 -7
vt 5 -6
vt 5 -5
vt 5 -4
vt 5 -3
vt 5 -2
vt 5 -1
vt 5 0
vt 5 1
vt 5 2
vt 5 3
vt 5 4
vt 5 5
vt 5 6
vt 5 7
vt 5 8
vt 5 9
vt 5 10
vt 6 -10
vt 6 -9
vt 6 -8
vt 6 -7
vt 6 -6
vt 6 -5
vt 6 -4
vt 6 -3
vt 6 -2
vt 6 -1
vt 6 0
vt 6 1
vt 6 2
vt 6 3
vt 6 4
vt 6 5
vt 6 6
vt 6 7
vt 6 8
vt 6 9
vt 6 10
vt 7 -10
vt 7 -9
vt 7 -8
vt 7 -7
vt 7 -6
vt 7 -5
vt 7 -4
vt 7 -3
vt 7 -2
vt 7 -1
vt 7 0
vt 7 1
vt 7 2
vt 7 3
vt 7 4
vt 7 5
vt 7 6
vt 7 7
vt 7 8
vt 7 9
vt 7 10
vt 8 -10
vt 8 -9
vt 8 -8
vt 8 -7
vt 8 -6
vt 8 -5
vt 8 -4
vt 8 -3
vt 8 -2
vt 8 -1
vt 8 0
vt 8 1
vt 8 2
vt 8 3
vt 8 4
vt 8 5
vt 8 6
vt 8 7
vt 8 8
vt 8 9
vt 8 10
vt 9 -10
vt 9 -9
vt 9 -8
vt 9 -7
vt 9 -6
vt 9 -5
vt 9 -4
vt 9 -3
vt 9 -2
vt 9 -1
vt 9 0
vt 9 1
vt 9 2
vt 9 3
vt 9 4
vt 9 5
vt 9 6
vt 9 7
vt 9 8
vt 9 9
vt 9 10
vt 10 -10
vt 10 -9
vt 10 -8
vt 10 -7
vt 10 -6
vt 10 -5
vt 10 -4
vt 10 -3
vt 10 -2
vt 10 -1
vt 10 0
vt 10 1
vt 10 2
vt 10 3
vt 10 4
vt 10 5
vt 10 6
vt 10 7
vt 10 8
vt 10 9
vt 10 10

vn 0 1 0
vn 0 0.8046318 -0.5937741
vn 0.255277 0.8459296 -0.255277
vn 0.5105541 0.6918592 -0.5105541
vn 0.5937741 0.8046318 0

usemtl SandAll
f 3/3/1 4/4/1 2/2/1 1/1/1
f 4/4/1 6/6/1 5/5/1 2/2/1
f 8/13/1 10/14/1 9/12/1 7/11/1
f 10/14/1 12/16/1 11/15/1 9/12/1
f 12/16/1 14/18/1 13/17/1 11/15/1
f 14/18/1 16/20/1 15/19/1 13/17/1
f 16/20/1 18/22/1 17/21/1 15/19/1
f 18/22/1 20/24/1 19/23/1 17/21/1
f 20/24/1 22/26/1 21/25/1 19/23/1
f 22/26/1 24/28/1 23/27/1 21/25/1
f 24/28/1 26/30/1 25/29/1 23/27/1
f 26/30/1 28/32/1 27/31/1 25/29/1
f 28/32/1 30/34/1 29/33/1 27/31/1
f 30/34/1 32/36/1 31/35/1 29/33/1
f 36/40/1 38/42/1 37/41/1 35/39/1
f 38/42/1 40/44/1 39/43/1 37/41/1
f 40/44/1 42/46/1 41/45/1 39/43/1
f 43/47/1 44/48/1 4/4/1 3/3/1
f 46/54/1 47/55/1 10/14/1 8/13/1
f 47/55/1 48/56/1 12/16/1 10/14/1
f 48/56/1 49/57/1 14/18/1 12/16/1
f 49/57/1 50/58/1 16/20/1 14/18/1
f 50/58/1 51/59/1 18/22/1 16/20/1
f 51/59/1 52/60/1 20/24/1 18/22/1
f 52/60/1 53/61/1 22/26/1 20/24/1
f 53/61/1 54/62/1 24/28/1 22/26/1
f 54/62/1 55/63/1 26/30/1 24/28/1
f 55/63/1 56/64/1 28/32/1 26/30/1
f 56/64/1 57/65/1 30/34/1 28/32/1
f 57/65/1 58/66/1 32/36/1 30/34/1
f 60/68/1 61/69/1 38/42/1 36/40/1
f 61/69/1 62/70/1 40/44/1 38/42/1
f 62/70/1 63/71/1 42/46/1 40/44/1
f 67/80/1 68/81/1 47/55/1 46/54/1
f 68/81/1 69/82/1 48/56/1 47/55/1
f 69/82/1 70/83/1 49/57/1 48/56/1
f 70/83/1 71/84/1 50/58/1 49/57/1
f 71/84/1 72/85/1 51/59/1 50/58/1
f 72/85/1 73/86/1 52/60/1 51/59/1
f 73/86/1 74/87/1 53/61/1 52/60/1
f 74/87/1 75/88/1 54/62/1 53/61/1
f 75/88/1 76/89/1 55/63/1 54/62/1
f 76/89/1 77/90/1 56/64/1 55/63/1
f 77/90/1 78/91/1 57/65/1 56/64/1
f 78/91/1 79/92/1 58/66/1 57/65/1
f 79/92/1 80/93/1 59/67/1 58/66/1
f 82/95/1 83/96/1 62/70/1 61/69/1
f 83/96/1 84/97/1 63/71/1 62/70/1
f 85/100/1 86/101/1 65/99/1 64/98/1
f 86/101/1 87/102/1 66/79/1 65/99/1
f 87/102/1 88/103/1 67/80/1 66/79/1
f 88/103/1 89/104/1 68/81/1 67/80/1
f 89/104/1 90/105/1 69/82/1 68/81/1
f 90/105/1 91/106/1 70/83/1 69/82/1
f 91/106/1 92/107/1 71/84/1 70/83/1
f 92/107/1 93/108/1 72/85/1 71/84/1
f 93/108/1 94/109/1 73/86/1 72/85/1
f 94/109/1 95/110/1 74/87/1 73/86/1
f 95/110/1 96/111/1 75/88/1 74/87/1
f 96/111/1 97/112/1 76/89/1 75/88/1
f 97/112/1 98/113/1 77/90/1 76/89/1
f 98/113/1 99/114/1 78/91/1 77/90/1
f 99/114/1 100/115/1 79/92/1 78/91/1
f 100/115/1 101/116/1 80/93/1 79/92/1
f 101/116/1 102/117/1 81/94/1 80/93/1
f 106/121/1 107/122/1 86/101/1 85/100/1
f 107/122/1 108/123/1 87/102/1 86/101/1
f 108/123/1 109/124/1 88/103/1 87/102/1
f 109/124/1 110/125/1 89/104/1 88/103/1
f 110/125/1 111/126/1 90/105/1 89/104/1
f 111/126/1 112/127/1 91/106/1 90/105/1
f 112/127/1 113/128/1 92/107/1 91/106/1
f 113/128/1 114/129/1 93/108/1 92/107/1
f 114/129/1 115/130/1 94/109/1 93/108/1
f 117/132/1 118/133/1 97/112/1 96/111/1
f 118/133/1 119/134/1 98/113/1 97/112/1
f 119/134/1 120/135/1 99/114/1 98/113/1
f 120/135/1 121/136/1 100/115/1 99/114/1
f 121/136/1 122/137/1 101/116/1 100/115/1
f 122/137/1 123/138/1 102/117/1 101/116/1
f 123/138/1 124/139/1 103/118/1 102/117/1
f 124/139/1 125/140/1 104/119/1 103/118/1
f 125/140/1 126/141/1 105/120/1 104/119/1
f 127/142/1 128/143/1 107/122/1 106/121/1
f 128/143/1 129/144/1 108/123/1 107/122/1
f 129/144/1 130/145/1 109/124/1 108/123/1
f 130/145/1 131/146/1 110/125/1 109/124/1
f 131/146/1 132/147/1 111/126/1 110/125/1
f 135/150/1 136/151/1 115/130/1 114/129/1
f 138/153/1 139/154/1 118/133/1 117/132/1
f 142/157/1 143/158/1 122/137/1 121/136/1
f 143/158/1 144/159/1 123/138/1 122/137/1
f 144/159/1 145/160/1 124/139/1 123/138/1
f 145/160/1 146/161/1 125/140/1 124/139/1
f 146/161/1 147/162/1 126/141/1 125/140/1
f 148/163/1 149/164/1 128/143/1 127/142/1
f 149/164/1 150/165/1 129/144/1 128/143/1
f 150/165/1 151/166/1 130/145/1 129/144/1
f 151/166/1 152/167/1 131/146/1 130/145/1
f 152/167/1 153/168/1 132/147/1 131/146/1
f 156/171/1 157/172/1 136/151/1 135/150/1
f 157/172/1 158/173/1 137/152/1 136/151/1
f 158/173/1 159/174/1 138/153/1 137/152/1
f 159/174/1 160/175/1 139/154/1 138/153/1
f 163/178/1 164/179/1 143/158/1 142/157/1
f 164/179/1 165/180/1 144/159/1 143/158/1
f 165/180/1 166/181/1 145/160/1 144/159/1
f 166/181/1 167/182/1 146/161/1 145/160/1
f 167/182/1 168/183/1 147/162/1 146/161/1
f 169/184/1 170/185/1 149/164/1 148/163/1
f 170/185/1 171/186/1 150/165/1 149/164/1
f 171/186/1 172/187/1 151/166/1 150/165/1
f 172/187/1 173/188/1 152/167/1 151/166/1
f 173/188/1 174/189/1 153/168/1 152/167/1
f 177/192/1 178/193/1 157/172/1 156/171/1
f 178/193/1 179/194/1 158/173/1 157/172/1
f 179/194/1 180/195/1 159/174/1 158/173/1
f 180/195/1 181/196/1 160/175/1 159/174/1
f 184/199/1 185/200/1 164/179/1 163/178/1
f 185/200/1 186/201/1 165/180/1 164/179/1
f 186/201/1 187/202/1 166/181/1 165/180/1
f 187/202/1 188/203/1 167/182/1 166/181/1
f 188/203/1 189/204/1 168/183/1 167/182/1
f 190/205/1 191/206/1 170/185/1 169/184/1
f 191/206/1 192/207/1 171/186/1 170/185/1
f 192/207/1 193/208/1 172/187/1 171/186/1
f 193/208/1 194/209/1 173/188/1 172/187/1
f 194/209/1 195/210/1 174/189/1 173/188/1
f 195/210/1 196/211/1 175/190/1 174/189/1
f 196/211/1 197/212/1 176/191/1 175/190/1
f 197/212/1 198/213/1 177/192/1 176/191/1
f 202/217/1 203/218/1 182/197/1 181/196/1
f 203/218/1 204/219/1 183/198/1 182/197/1
f 204/219/1 205/220/1 184/199/1 183/198/1
f 205/220/1 206/221/1 185/200/1 184/199/1
f 206/221/1 207/222/1 186/201/1 185/200/1
f 207/222/1 208/223/1 187/202/1 186/201/1
f 208/223/1 209/224/1 188/203/1 187/202/1
f 209/224/1 210/225/1 189/204/1 188/203/1
f 211/226/1 212/227/1 191/206/1 190/205/1
f 212/227/1 213/228/1 192/207/1 191/206/1
f 213/228/1 214/229/1 193/208/1 192/207/1
f 214/229/1 215/230/1 194/209/1 193/208/1
f 217/232/1 218/233/1 197/212/1 196/211/1
f 218/233/1 219/234/1 198/213/1 197/212/1
f 220/235/1 221/236/1 200/215/1 199/214/1
f 221/236/1 222/237/1 201/216/1 200/215/1
f 223/238/1 224/239/1 203/218/1 202/217/1
f 224/239/1 225/240/1 204/219/1 203/218/1
f 227/242/1 228/243/1 207/222/1 206/221/1
f 228/243/1 229/244/1 208/223/1 207/222/1
f 229/244/1 230/245/1 209/224/1 208/223/1
f 230/245/1 231/246/1 210/225/1 209/224/1
f 232/247/1 233/248/1 212/227/1 211/226/1
f 233/248/1 234/249/1 213/228/1 212/227/1
f 234/249/1 235/250/1 214/229/1 213/228/1
f 235/250/1 236/251/1 215/230/1 214/229/1
f 238/253/1 239/254/1 218/233/1 217/232/1
f 239/254/1 240/255/1 219/234/1 218/233/1
f 241/256/1 242/257/1 221/236/1 220/235/1
f 242/257/1 243/258/1 222/237/1 221/236/1
f 244/259/1 245/260/1 224/239/1 223/238/1
f 245/260/1 246/261/1 225/240/1 224/239/1
f 248/263/1 249/264/1 228/243/1 227/242/1
f 249/264/1 250/265/1 229/244/1 228/243/1
f 250/265/1 251/266/1 230/245/1 229/244/1
f 251/266/1 252/267/1 231/246/1 230/245/1
f 253/268/1 254/269/1 233/248/1 232/247/1
f 254/269/1 255/270/1 234/249/1 233/248/1
f 255/270/1 256/271/1 235/250/1 234/249/1
f 256/271/1 257/272/1 236/251/1 235/250/1
f 257/272/1 258/273/1 237/252/1 236/251/1
f 258/273/1 259/274/1 238/253/1 237/252/1
f 259/274/1 260/275/1 239/254/1 238/253/1
f 260/275/1 261/276/1 240/255/1 239/254/1
f 265/280/1 266/281/1 245/260/1 244/259/1
f 266/281/1 267/282/1 246/261/1 245/260/1
f 267/282/1 268/283/1 247/262/1 246/261/1
f 268/283/1 269/284/1 248/263/1 247/262/1
f 269/284/1 270/285/1 249/264/1 248/263/1
f 270/285/1 271/286/1 250/265/1 249/264/1
f 271/286/1 272/287/1 251/266/1 250/265/1
f 272/287/1 273/288/1 252/267/1 251/266/1
f 274/289/1 275/290/1 254/269/1 253/268/1
f 275/290/1 276/291/1 255/270/1 254/269/1
f 276/291/1 277/292/1 256/271/1 255/270/1
f 277/292/1 278/293/1 257/272/1 256/271/1
f 278/293/1 279/294/1 258/273/1 257/272/1
f 282/297/1 283/298/1 262/277/1 261/276/1
f 283/298/1 284/299/1 263/278/1 262/277/1
f 284/299/1 285/300/1 264/279/1 263/278/1
f 285/300/1 286/301/1 265/280/1 264/279/1
f 289/304/1 290/305/1 269/284/1 268/283/1
f 290/305/1 291/306/1 270/285/1 269/284/1
f 291/306/1 292/307/1 271/286/1 270/285/1
f 292/307/1 293/308/1 272/287/1 271/286/1
f 293/308/1 294/309/1 273/288/1 272/287/1
f 295/310/1 296/311/1 275/290/1 274/289/1
f 296/311/1 297/312/1 276/291/1 275/290/1
f 297/312/1 298/313/1 277/292/1 276/291/1
f 298/313/1 299/314/1 278/293/1 277/292/1
f 299/314/1 300/315/1 279/294/1 278/293/1
f 303/318/1 304/319/1 283/298/1 282/297/1
f 304/319/1 305/320/1 284/299/1 283/298/1
f 305/320/1 306/321/1 285/300/1 284/299/1
f 306/321/1 307/322/1 286/301/1 285/300/1
f 310/325/1 311/326/1 290/305/1 289/304/1
f 311/326/1 312/327/1 291/306/1 290/305/1
f 312/327/1 313/328/1 292/307/1 291/306/1
f 313/328/1 314/329/1 293/308/1 292/307/1
f 314/329/1 315/330/1 294/309/1 293/308/1
f 316/331/1 317/332/1 296/311/1 295/310/1
f 317/332/1 318/333/1 297/312/1 296/311/1
f 318/333/1 319/334/1 298/313/1 297/312/1
f 319/334/1 320/335/1 299/314/1 298/313/1
f 320/335/1 321/336/1 300/315/1 299/314/1
f 324/339/1 325/340/1 304/319/1 303/318/1
f 327/342/1 328/343/1 307/322/1 306/321/1
f 331/346/1 332/347/1 311/326/1 310/325/1
f 332/347/1 333/348/1 312/327/1 311/326/1
f 333/348/1 334/349/1 313/328/1 312/327/1
f 334/349/1 335/350/1 314/329/1 313/328/1
f 335/350/1 336/351/1 315/330/1 314/329/1
f 339/354/1 340/355/1 319/334/1 318/333/1
f 340/355/1 341/356/1 320/335/1 319/334/1
f 341/356/1 342/357/1 321/336/1 320/335/1
f 342/357/1 343/358/1 322/337/1 321/336/1
f 343/358/1 344/359/1 323/338/1 322/337/1
f 344/359/1 345/360/1 324/339/1 323/338/1
f 345/360/1 346/361/1 325/340/1 324/339/1
f 348/363/1 349/364/1 328/343/1 327/342/1
f 349/364/1 350/365/1 329/344/1 328/343/1
f 350/365/1 351/366/1 330/345/1 329/344/1
f 351/366/1 352/367/1 331/346/1 330/345/1
f 352/367/1 353/368/1 332/347/1 331/346/1
f 353/368/1 354/369/1 333/348/1 332/347/1
f 354/369/1 355/370/1 334/349/1 333/348/1
f 355/370/1 356/371/1 335/350/1 334/349/1
f 356/371/1 357/372/1 336/351/1 335/350/1
f 362/377/1 363/378/1 342/357/1 341/356/1
f 363/378/1 364/379/1 343/358/1 342/357/1
f 364/379/1 365/380/1 344/359/1 343/358/1
f 365/380/1 366/381/1 345/360/1 344/359/1
f 366/381/1 367/382/1 346/361/1 345/360/1
f 367/382/1 368/383/1 347/362/1 346/361/1
f 368/383/1 369/384/1 348/363/1 347/362/1
f 369/384/1 370/385/1 349/364/1 348/363/1
f 370/385/1 371/386/1 350/365/1 349/364/1
f 371/386/1 372/387/1 351/366/1 350/365/1
f 372/387/1 373/388/1 352/367/1 351/366/1
f 373/388/1 374/389/1 353/368/1 352/367/1
f 374/389/1 375/390/1 354/369/1 353/368/1
f 375/390/1 376/391/1 355/370/1 354/369/1
f 379/394/1 380/395/1 359/374/1 358/373/1
f 380/395/1 381/396/1 360/375/1 359/374/1
f 383/398/1 384/399/1 363/378/1 362/377/1
f 384/399/1 385/400/1 364/379/1 363/378/1
f 385/400/1 386/401/1 365/380/1 364/379/1
f 386/401/1 387/402/1 366/381/1 365/380/1
f 387/402/1 388/403/1 367/382/1 366/381/1
f 388/403/1 389/404/1 368/383/1 367/382/1
f 389/404/1 390/405/1 369/384/1 368/383/1
f 390/405/1 391/406/1 370/385/1 369/384/1
f 391/406/1 392/407/1 371/386/1 370/385/1
f 392/407/1 393/408/1 372/387/1 371/386/1
f 393/408/1 394/409/1 373/388/1 372/387/1
f 394/409/1 395/410/1 374/389/1 373/388/1
f 395/410/1 396/411/1 375/390/1 374/389/1
f 400/415/1 401/416/1 380/395/1 379/394/1
f 401/416/1 402/417/1 381/396/1 380/395/1
f 402/417/1 403/418/1 382/397/1 381/396/1
f 405/420/1 406/421/1 385/400/1 384/399/1
f 406/421/1 407/422/1 386/401/1 385/400/1
f 407/422/1 408/423/1 387/402/1 386/401/1
f 408/423/1 409/424/1 388/403/1 387/402/1
f 409/424/1 410/425/1 389/404/1 388/403/1
f 410/425/1 411/426/1 390/405/1 389/404/1
f 411/426/1 412/427/1 391/406/1 390/405/1
f 412/427/1 413/428/1 392/407/1 391/406/1
f 413/428/1 414/429/1 393/408/1 392/407/1
f 414/429/1 415/430/1 394/409/1 393/408/1
f 415/430/1 416/431/1 395/410/1 394/409/1
f 421/436/1 422/437/1 401/416/1 400/415/1
f 422/437/1 423/438/1 402/417/1 401/416/1
f 423/438/1 424/439/1 403/418/1 402/417/1
f 426/441/1 427/442/1 406/421/1 405/420/1
f 427/442/1 428/443/1 407/422/1 406/421/1
f 428/443/1 429/444/1 408/423/1 407/422/1
f 429/444/1 430/445/1 409/424/1 408/423/1
f 430/445/1 431/446/1 410/425/1 409/424/1
f 431/446/1 432/447/1 411/426/1 410/425/1
f 432/447/1 433/448/1 412/427/1 411/426/1
f 433/448/1 434/449/1 413/428/1 412/427/1
f 434/449/1 435/450/1 414/429/1 413/428/1
f 435/450/1 436/451/1 415/430/1 414/429/1
f 436/451/1 437/452/1 416/431/1 415/430/1

usemtl SandDarkAll
f 32/36/1 34/38/1 33/37/1 31/35/1
f 34/38/1 36/40/1 35/39/1 33/37/1
f 44/48/3 45/49/4 6/6/3 4/4/1
f 59/67/1 60/68/1 36/40/1 34/38/1
f 81/94/1 82/95/1 61/69/1 60/68/1
f 103/118/1 104/119/1 83/96/1 82/95/1
f 104/119/1 105/120/1 84/97/1 83/96/1
f 115/130/1 116/131/1 95/110/1 94/109/1
f 116/131/1 117/132/1 96/111/1 95/110/1
f 133/148/1 134/149/1 113/128/1 112/127/1
f 136/151/1 137/152/1 116/131/1 115/130/1
f 137/152/1 138/153/1 117/132/1 116/131/1
f 140/155/1 141/156/1 120/135/1 119/134/1
f 153/168/1 154/169/1 133/148/1 132/147/1
f 154/169/1 155/170/1 134/149/1 133/148/1
f 155/170/1 156/171/1 135/150/1 134/149/1
f 160/175/1 161/176/1 140/155/1 139/154/1
f 161/176/1 162/177/1 141/156/1 140/155/1
f 162/177/1 163/178/1 142/157/1 141/156/1
f 175/190/1 176/191/1 155/170/1 154/169/1
f 182/197/1 183/198/1 162/177/1 161/176/1
f 199/214/1 200/215/1 179/194/1 178/193/1
f 200/215/1 201/216/1 180/195/1 179/194/1
f 215/230/1 216/231/1 195/210/1 194/209/1
f 216/231/1 217/232/1 196/211/1 195/210/1
f 219/234/1 220/235/1 199/214/1 198/213/1
f 222/237/1 223/238/1 202/217/1 201/216/1
f 225/240/1 226/241/1 205/220/1 204/219/1
f 226/241/1 227/242/1 206/221/1 205/220/1
f 236/251/1 237/252/1 216/231/1 215/230/1
f 237/252/1 238/253/1 217/232/1 216/231/1
f 240/255/1 241/256/1 220/235/1 219/234/1
f 243/258/1 244/259/1 223/238/1 222/237/1
f 246/261/1 247/262/1 226/241/1 225/240/1
f 247/262/1 248/263/1 227/242/1 226/241/1
f 262/277/1 263/278/1 242/257/1 241/256/1
f 263/278/1 264/279/1 243/258/1 242/257/1
f 280/295/1 281/296/1 260/275/1 259/274/1
f 287/302/1 288/303/1 267/282/1 266/281/1
f 300/315/1 301/316/1 280/295/1 279/294/1
f 301/316/1 302/317/1 281/296/1 280/295/1
f 302/317/1 303/318/1 282/297/1 281/296/1
f 307/322/1 308/323/1 287/302/1 286/301/1
f 308/323/1 309/324/1 288/303/1 287/302/1
f 309/324/1 310/325/1 289/304/1 288/303/1
f 322/337/1 323/338/1 302/317/1 301/316/1
f 325/340/1 326/341/1 305/320/1 304/319/1
f 326/341/1 327/342/1 306/321/1 305/320/1
f 329/344/1 330/345/1 309/324/1 308/323/1
f 337/352/1 338/353/1 317/332/1 316/331/1
f 346/361/1 347/362/1 326/341/1 325/340/1
f 347/362/1 348/363/1 327/342/1 326/341/1
f 358/373/1 359/374/1 338/353/1 337/352/1
f 359/374/1 360/375/1 339/354/1 338/353/1
f 360/375/1 361/376/1 340/355/1 339/354/1
f 377/392/1 378/393/1 357/372/1 356/371/1
f 381/396/1 382/397/1 361/376/1 360/375/1
f 382/397/1 383/398/1 362/377/1 361/376/1
f 397/412/1 398/413/1 377/392/1 376/391/1
f 398/413/1 399/414/1 378/393/1 377/392/1
f 403/418/1 404/419/1 383/398/1 382/397/1
f 417/432/1 418/433/1 397/412/1 396/411/1
f 418/433/1 419/434/1 398/413/1 397/412/1
f 419/434/1 420/435/1 399/414/1 398/413/1
f 424/439/1 425/440/1 404/419/1 403/418/1
f 425/440/1 426/441/1 405/420/1 404/419/1
f 437/452/1 438/453/1 417/432/1 416/431/1
f 438/453/1 439/454/1 418/433/1 417/432/1
f 439/454/1 440/455/1 419/434/1 418/433/1
f 440/455/1 441/456/1 420/435/1 419/434/1

usemtl MidSand_4
f 132/147/1 133/148/1 112/127/1 111/126/1
f 139/154/1 140/155/1 119/134/1 118/133/1
f 198/213/1 199/214/1 178/193/1 177/192/1
f 279/294/1 280/295/1 259/274/1 258/273/1
f 286/301/1 287/302/1 266/281/1 265/280/1
f 376/391/1 377/392/1 356/371/1 355/370/1
f 396/411/1 397/412/1 376/391/1 375/390/1
f 416/431/1 417/432/1 396/411/1 395/410/1

usemtl MidSand_1
f 134/149/1 135/150/1 114/129/1 113/128/1
f 141/156/1 142/157/1 121/136/1 120/135/1
f 201/216/1 202/217/1 181/196/1 180/195/1
f 281/296/1 282/297/1 261/276/1 260/275/1
f 288/303/1 289/304/1 268/283/1 267/282/1
f 338/353/1 339/354/1 318/333/1 317/332/1
f 361/376/1 362/377/1 341/356/1 340/355/1
f 404/419/1 405/420/1 384/399/1 383/398/1

usemtl MidSand_2
f 66/79/1 67/80/1 46/54/1 45/49/1
f 176/191/1 177/192/1 156/171/1 155/170/1
f 183/198/1 184/199/1 163/178/1 162/177/1
f 264/279/1 265/280/1 244/259/1 243/258/1
f 323/338/1 324/339/1 303/318/1 302/317/1
f 330/345/1 331/346/1 310/325/1 309/324/1

usemtl MidSand_3
f 58/66/1 59/67/1 34/38/1 32/36/1
f 80/93/1 81/94/1 60/68/1 59/67/1
f 102/117/1 103/118/1 82/95/1 81/94/1
f 174/189/1 175/190/1 154/169/1 153/168/1
f 181/196/1 182/197/1 161/176/1 160/175/1
f 261/276/1 262/277/1 241/256/1 240/255/1
f 321/336/1 322/337/1 301/316/1 300/315/1
f 328/343/1 329/344/1 308/323/1 307/322/1

usemtl SandDarkBase
f 45/52/3 46/53/1 8/51/3 6/50/4
f 65/77/3 66/78/1 45/52/3 44/76/4

usemtl SandDarkHor
f 64/74/5 65/75/5 44/73/5 43/72/5

usemtl SandDarkVert
f 6/9/2 8/10/2 7/8/2 5/7/2

