# Blender 3.4.1
# www.blender.org
mtllib bomb_heli_glass.mtl
o helicopter_bomber_glass
v -0.500000 -0.100000 0.100000
v -0.500000 -0.200000 -0.200000
v -0.500000 -0.100000 -0.000000
v -0.500000 -0.100000 -0.200000
v -0.500000 -0.100000 -0.300000
v -0.500000 0.000000 -0.200000
v -0.500000 0.000000 -0.300000
v -0.500000 0.000000 -0.400000
v -0.500000 0.100000 -0.300000
v -0.500000 0.200000 -0.300000
v -0.500000 0.200000 -0.400000
v 0.200000 0.200000 -0.200000
v 0.200000 0.200000 -0.300000
v 0.400000 0.200000 -0.400000
v -0.400000 0.200000 -0.400000
v -0.200000 0.200000 -0.200000
v -0.200000 0.200000 -0.300000
v 0.500000 -0.200000 -0.200000
v 0.500000 -0.100000 -0.200000
v 0.500000 -0.100000 -0.300000
v 0.500000 0.000000 0.000000
v 0.500000 0.000000 -0.200000
v 0.500000 0.000000 -0.300000
v 0.500000 0.000000 -0.400000
v 0.500000 0.100000 -0.200000
v 0.500000 0.200000 -0.300000
v 0.500000 0.200000 -0.400000
v 0.300000 -0.200000 0.300000
v -0.300000 -0.200000 0.300000
v -0.400000 -0.200000 0.200000
v 0.400000 -0.200000 0.200000
v -0.500000 -0.200000 0.100000
v 0.500000 -0.200000 0.100000
v -0.300000 -0.100000 0.300000
v 0.300000 -0.100000 0.300000
v -0.400000 -0.100000 0.200000
v 0.400000 -0.100000 0.200000
v 0.500000 -0.100000 0.100000
v 0.500000 -0.100000 -0.000000
v -0.300000 -0.000000 0.200000
v 0.300000 -0.000000 0.200000
v -0.400000 -0.000000 0.100000
v 0.400000 -0.000000 0.100000
v -0.500000 0.000000 0.000000
v -0.300000 0.100000 0.100000
v 0.300000 0.100000 0.100000
v -0.400000 0.100000 0.000000
v 0.400000 0.100000 0.000000
v -0.500000 0.100000 -0.200000
v 0.500000 0.100000 -0.300000
v -0.300000 0.200000 0.000000
v 0.300000 0.200000 0.000000
v -0.400000 0.200000 -0.200000
v -0.400000 0.200000 -0.300000
v 0.400000 0.200000 -0.200000
v 0.400000 0.200000 -0.300000
vn -0.9327 0.3124 0.1803
vn -1.0000 -0.0000 -0.0000
vn -0.9808 -0.1316 -0.1440
vn -0.9672 0.0144 -0.2535
vn -0.9808 -0.1622 -0.1084
vn -0.9756 0.0679 -0.2089
vn -0.9659 -0.2241 -0.1294
vn -0.9899 0.1421 -0.0000
vn -0.5000 0.5000 0.7071
vn 1.0000 -0.0000 -0.0000
vn 0.9327 -0.3607 -0.0000
vn 0.9808 -0.0746 0.1802
vn 0.9672 -0.2054 0.1493
vn 0.9756 -0.1390 0.1701
vn 0.9659 -0.1294 0.2242
vn 0.9899 0.1421 -0.0000
vn 0.5000 0.5000 0.7071
vn -0.0000 1.0000 -0.0000
vn 0.7071 -0.0000 0.7071
vn 0.5774 0.5773 0.5774
vn -0.7071 0.7071 -0.0000
vn -0.7071 0.7071 -0.0003
vn 0.5774 0.5774 0.5774
vn -0.7071 -0.0000 0.7071
vn 0.7071 0.7071 0.0003
vn 0.7071 0.7071 -0.0000
vn -0.5774 0.5773 0.5774
vn -0.5774 0.5774 0.5774
vn 0.4714 0.3375 0.8148
vn -0.0000 0.7071 0.7071
vn -0.0000 -0.0980 0.9952
vn 0.6667 0.6667 0.3333
vn -0.6667 0.6667 0.3333
vn 0.2209 0.8742 -0.4323
vn 0.4323 0.2209 0.8742
vn -0.0000 -0.0000 1.0000
vt 0.814453 0.500000
vt 0.000000 0.000000
vt 0.814453 0.500000
vt 0.814453 0.500000
vt 0.814453 0.500000
vt 0.814453 0.500000
vt 0.814453 0.500000
vt 0.814453 0.500000
vt 0.814453 0.500000
vt 0.814453 0.500000
vt 0.814453 0.500000
vt 0.000000 0.000000
vt 0.814453 0.500000
vt 0.000000 0.000000
vt 0.814453 0.500000
vt 0.814453 0.500000
vt 0.000000 0.000000
vt 0.000000 0.000000
vt 0.814453 0.500000
vt 0.814453 0.500000
vt 0.814453 0.500000
vt 0.814453 0.500000
vt 0.814453 0.500000
vt 0.814453 0.500000
vt 0.000000 0.000000
vt 0.814453 0.500000
vt 0.814453 0.500000
vt 0.814453 0.500000
vt 0.814453 0.500000
vt 0.000000 0.000000
vt 0.814453 0.500000
vt 0.000000 0.000000
vt 0.814453 0.500000
vt 0.000000 0.000000
vt 0.000000 0.000000
vt 0.000000 0.000000
vt 0.000000 0.000000
vt 0.000000 0.000000
vt 0.814453 0.500000
vt 0.000000 0.000000
vt 0.814453 0.500000
vt 0.000000 0.000000
vt 0.000000 0.000000
vt 0.000000 0.000000
vt 0.000000 0.000000
vt 0.000000 0.000000
vt 0.814453 0.500000
vt 0.000000 0.000000
vt 0.814453 0.500000
vt 0.814453 0.500000
vt 0.000000 0.000000
vt 0.000000 0.000000
vt 0.000000 0.000000
vt 0.000000 0.000000
vt 0.814453 0.500000
vt 0.000000 0.000000
vt 0.000000 0.000000
vt 0.000000 0.000000
vt 0.000000 0.000000
vt 0.000000 0.000000
vt 0.000000 0.000000
vt 0.814453 0.500000
vt 0.814453 0.500000
vt 0.000000 0.000000
vt 0.000000 0.000000
vt 0.000000 0.000000
vt 0.814453 0.500000
vt 0.814453 0.500000
vt 0.814453 0.500000
vt 0.000000 0.000000
vt 0.814453 0.500000
s 1
usemtl palette
f 1/1/1 2/3/2 32/39/2
f 3/4/3 2/3/2 1/1/1
f 4/5/2 2/3/2 3/4/3
f 44/55/4 5/6/2 4/5/2
f 44/55/4 4/5/2 3/4/3
f 6/7/5 5/6/2 44/55/4
f 7/8/2 5/6/2 6/7/5
f 49/62/6 8/9/2 7/8/2
f 49/62/6 7/8/2 6/7/5
f 9/10/7 8/9/2 49/62/6
f 10/11/8 8/9/2 9/10/7
f 11/13/9 8/9/2 10/11/8
f 33/41/10 18/21/10 38/47/11
f 38/47/11 18/21/10 39/49/12
f 39/49/12 18/21/10 19/22/10
f 19/22/10 20/23/10 21/24/13
f 39/49/12 19/22/10 21/24/13
f 21/24/13 20/23/10 22/26/12
f 22/26/12 20/23/10 23/27/10
f 23/27/10 24/28/10 25/29/14
f 22/26/12 23/27/10 25/29/14
f 25/29/14 24/28/10 50/63/15
f 50/63/15 24/28/10 26/31/16
f 26/31/16 24/28/10 27/33/17
f 26/32/16 27/34/17 14/17/18 56/71/18
s 0
f 31/38/19 37/46/19 35/44/19 28/35/19
f 33/42/19 38/48/19 37/46/19 31/38/19
s 1
f 11/14/9 10/11/8 54/68/18 15/18/18
s 0
f 43/54/20 41/52/20 37/46/20
s 1
f 56/71/18 13/16/21 12/15/22 55/69/18
s 0
f 21/25/23 43/54/23 38/48/23
s 1
f 39/49/12 21/25/13 38/48/11
s 0
f 46/58/23 41/52/23 43/54/23
f 43/54/23 48/60/23 46/58/23
f 43/54/20 21/25/20 48/60/20
f 52/65/23 46/58/23 48/60/23
f 30/37/24 29/36/24 34/43/24 36/45/24
f 32/40/24 30/37/24 36/45/24 1/2/24
s 1
f 17/20/25 54/68/18 53/67/18 16/19/26
s 0
f 42/53/27 36/45/27 40/51/27
f 45/57/28 42/53/28 40/51/28
f 42/53/28 45/57/28 47/59/28
f 44/56/28 1/2/28 42/53/28
s 1
f 3/4/3 1/2/1 44/56/4
s 0
f 42/53/27 47/59/27 44/56/27
f 51/64/28 47/59/28 45/57/28
s 1
f 35/44/29 41/52/30 40/50/30 34/43/31
s 0
f 45/57/30 40/51/30 41/52/30 46/58/30
f 51/64/30 45/57/30 46/58/30 52/65/30
f 25/30/32 48/60/32 21/25/32
f 48/60/32 55/70/32 52/65/32
f 25/30/32 55/70/32 48/60/32
f 55/70/23 25/30/23 26/32/23
s 1
f 25/30/14 50/63/15 26/32/16
f 21/25/13 22/26/12 25/30/14
f 56/71/18 55/69/18 26/32/16
s 0
f 49/61/33 44/56/33 47/59/33
f 47/59/33 51/64/33 53/66/33
f 49/61/33 47/59/33 53/66/33
f 51/64/18 52/65/18 55/70/18 53/66/18
s 1
f 44/56/4 49/61/6 6/7/5
f 54/68/18 10/11/8 53/67/18
f 10/12/8 9/10/7 49/62/6
s 0
f 49/62/28 53/67/28 10/12/28
f 37/46/23 41/52/23 35/44/34
f 37/46/20 38/48/20 43/54/20
f 36/45/28 34/43/35 40/51/28
f 36/45/27 42/53/27 1/2/27
s 1
f 34/43/31 29/36/36 28/35/36 35/44/29
