# MagicaVoxel @ Ephtracy

# group
o 

# material
mtllib blue_part_3.mtl
usemtl palette

# normals
vn -1 0 0
vn 1 0 0
vn 0 0 1
vn 0 0 -1
vn 0 -1 0
vn 0 1 0

# texcoords
vt 0.970703 0.5
vt 0.974609 0.5

# verts
v 0 -0.6 0.1
v 0 -0.6 0
v 0 -0.4 0.1
v 0 -0.4 0
v 0 -0.2 0.1
v 0 -0.2 0
v 0 0.3 0.1
v 0 0.3 0
v 0 0.4 0.1
v 0 0.4 0
v 0 0.6 0.1
v 0 0.6 0
v 0.3 -0.6 0.1
v 0.3 -0.6 0
v 0.3 -0.5 0.1
v 0.3 -0.5 0
v 0.3 -0.4 0.1
v 0.3 -0.4 0
v 0.3 -0.1 0.1
v 0.3 -0.1 0
v 0.3 -5.96046e-08 0.1
v 0.3 -5.96046e-08 0
v 0.3 0.4 0.1
v 0.3 0.4 0
v 0.3 0.5 0.1
v 0.3 0.5 0
v 0.3 0.6 0.1
v 0.3 0.6 0
v 0 -0.6 0.1
v 0 -0.4 0.1
v 0 -0.2 0.1
v 0 0.3 0.1
v 0 0.4 0.1
v 0 0.6 0.1
v 0.1 -0.3 0.1
v 0.1 -0.2 0.1
v 0.1 -0.1 0.1
v 0.2 -0.5 0.1
v 0.2 -0.4 0.1
v 0.2 -0.3 0.1
v 0.2 -0.2 0.1
v 0.2 -0.1 0.1
v 0.2 -5.96046e-08 0.1
v 0.2 0.3 0.1
v 0.2 0.4 0.1
v 0.2 0.5 0.1
v 0.3 -0.6 0.1
v 0.3 -0.5 0.1
v 0.3 -0.4 0.1
v 0.3 -0.1 0.1
v 0.3 -5.96046e-08 0.1
v 0.3 0.4 0.1
v 0.3 0.5 0.1
v 0.3 0.6 0.1
v 0 -0.6 0
v 0 -0.4 0
v 0 -0.2 0
v 0 0.3 0
v 0 0.4 0
v 0 0.6 0
v 0.1 -0.3 0
v 0.1 -0.2 0
v 0.1 -0.1 0
v 0.2 -0.5 0
v 0.2 -0.4 0
v 0.2 -0.3 0
v 0.2 -0.2 0
v 0.2 -0.1 0
v 0.2 -5.96046e-08 0
v 0.2 0.3 0
v 0.2 0.4 0
v 0.2 0.5 0
v 0.3 -0.6 0
v 0.3 -0.5 0
v 0.3 -0.4 0
v 0.3 -0.1 0
v 0.3 -5.96046e-08 0
v 0.3 0.4 0
v 0.3 0.5 0
v 0.3 0.6 0
v 0 -0.6 0.1
v 0.3 -0.6 0.1
v 0 -0.6 0
v 0.3 -0.6 0
v 0 0.6 0.1
v 0.3 0.6 0.1
v 0 0.6 0
v 0.3 0.6 0

# faces
f 3/2/1 2/2/1 1/2/1
f 4/2/1 2/2/1 3/2/1
f 5/1/1 4/1/1 3/1/1
f 6/1/1 4/1/1 5/1/1
f 7/2/1 6/2/1 5/2/1
f 8/2/1 6/2/1 7/2/1
f 9/1/1 8/1/1 7/1/1
f 10/1/1 8/1/1 9/1/1
f 11/2/1 10/2/1 9/2/1
f 12/2/1 10/2/1 11/2/1
f 13/2/2 14/2/2 15/2/2
f 15/2/2 14/2/2 16/2/2
f 15/1/2 16/1/2 17/1/2
f 17/1/2 16/1/2 18/1/2
f 17/2/2 18/2/2 19/2/2
f 19/2/2 18/2/2 20/2/2
f 19/1/2 20/1/2 21/1/2
f 21/1/2 20/1/2 22/1/2
f 21/2/2 22/2/2 23/2/2
f 23/2/2 22/2/2 24/2/2
f 23/1/2 24/1/2 25/1/2
f 25/1/2 24/1/2 26/1/2
f 25/2/2 26/2/2 27/2/2
f 27/2/2 26/2/2 28/2/2
f 35/1/3 31/1/3 30/1/3
f 36/2/3 32/2/3 31/2/3
f 36/1/3 31/1/3 35/1/3
f 37/2/3 32/2/3 36/2/3
f 38/2/3 30/2/3 29/2/3
f 39/1/3 35/1/3 30/1/3
f 39/2/3 30/2/3 38/2/3
f 40/2/3 36/2/3 35/2/3
f 40/1/3 35/1/3 39/1/3
f 41/1/3 37/1/3 36/1/3
f 41/2/3 36/2/3 40/2/3
f 42/2/3 32/2/3 37/2/3
f 42/1/3 37/1/3 41/1/3
f 43/2/3 32/2/3 42/2/3
f 44/1/3 33/1/3 32/1/3
f 44/2/3 32/2/3 43/2/3
f 45/2/3 34/2/3 33/2/3
f 45/1/3 33/1/3 44/1/3
f 46/2/3 34/2/3 45/2/3
f 47/2/3 38/2/3 29/2/3
f 48/1/3 39/1/3 38/1/3
f 48/2/3 38/2/3 47/2/3
f 49/2/3 41/2/3 40/2/3
f 49/1/3 39/1/3 48/1/3
f 49/2/3 40/2/3 39/2/3
f 49/2/3 42/2/3 41/2/3
f 50/1/3 43/1/3 42/1/3
f 50/2/3 42/2/3 49/2/3
f 51/2/3 44/2/3 43/2/3
f 51/1/3 43/1/3 50/1/3
f 51/2/3 45/2/3 44/2/3
f 52/1/3 46/1/3 45/1/3
f 52/2/3 45/2/3 51/2/3
f 53/2/3 34/2/3 46/2/3
f 53/1/3 46/1/3 52/1/3
f 54/2/3 34/2/3 53/2/3
f 56/1/4 57/1/4 61/1/4
f 57/2/4 58/2/4 62/2/4
f 61/1/4 57/1/4 62/1/4
f 62/2/4 58/2/4 63/2/4
f 55/2/4 56/2/4 64/2/4
f 56/1/4 61/1/4 65/1/4
f 64/2/4 56/2/4 65/2/4
f 61/2/4 62/2/4 66/2/4
f 65/1/4 61/1/4 66/1/4
f 62/1/4 63/1/4 67/1/4
f 66/2/4 62/2/4 67/2/4
f 63/2/4 58/2/4 68/2/4
f 67/1/4 63/1/4 68/1/4
f 68/2/4 58/2/4 69/2/4
f 58/1/4 59/1/4 70/1/4
f 69/2/4 58/2/4 70/2/4
f 59/2/4 60/2/4 71/2/4
f 70/1/4 59/1/4 71/1/4
f 71/2/4 60/2/4 72/2/4
f 55/2/4 64/2/4 73/2/4
f 64/1/4 65/1/4 74/1/4
f 73/2/4 64/2/4 74/2/4
f 66/2/4 67/2/4 75/2/4
f 74/1/4 65/1/4 75/1/4
f 65/2/4 66/2/4 75/2/4
f 67/2/4 68/2/4 75/2/4
f 68/1/4 69/1/4 76/1/4
f 75/2/4 68/2/4 76/2/4
f 69/2/4 70/2/4 77/2/4
f 76/1/4 69/1/4 77/1/4
f 70/2/4 71/2/4 77/2/4
f 71/1/4 72/1/4 78/1/4
f 77/2/4 71/2/4 78/2/4
f 72/2/4 60/2/4 79/2/4
f 78/1/4 72/1/4 79/1/4
f 79/2/4 60/2/4 80/2/4
f 83/2/5 82/2/5 81/2/5
f 84/2/5 82/2/5 83/2/5
f 85/2/6 86/2/6 87/2/6
f 87/2/6 86/2/6 88/2/6
