# MagicaVoxel @ Ephtracy

# group
o 

# material
mtllib walker_leg.mtl
usemtl palette

# normals
vn -1 0 0
vn 1 0 0
vn 0 0 1
vn 0 0 -1
vn 0 -1 0
vn 0 1 0

# texcoords
vt 0.458984 0.5
vt 0.974609 0.5

# verts
v -0.3 -1.5 0.3
v -0.3 -1.5 -0.4
v -0.3 -1.3 0.1
v -0.3 -1.3 -0.2
v -0.3 0.8 0.1
v -0.3 0.8 -0.2
v -0.3 0.9 0
v -0.3 0.9 -0.1
v -0.3 1 0.1
v -0.3 1 0
v -0.3 1 -0.1
v -0.3 1 -0.2
v -0.3 1.1 0.2
v -0.3 1.1 0.1
v -0.3 1.1 -0.2
v -0.3 1.1 -0.3
v -0.3 1.2 0.2
v -0.3 1.2 0.1
v -0.3 1.2 -0.2
v -0.3 1.2 -0.3
v -0.3 1.3 0.1
v -0.3 1.3 0
v -0.3 1.3 -0.1
v -0.3 1.3 -0.2
v -0.3 1.4 0
v -0.3 1.4 -0.1
v -0.3 1.5 0.3
v -0.3 1.5 -0.4
v -0.2 -1.3 0.1
v -0.2 -1.3 -0.2
v -0.2 0.8 0.1
v -0.2 0.8 -0.2
v 0.3 -1.3 0.1
v 0.3 -1.3 -0.2
v 0.3 0.8 0.1
v 0.3 0.8 -0.2
v 0.4 -1.5 0.3
v 0.4 -1.5 -0.4
v 0.4 -1.3 0.1
v 0.4 -1.3 -0.2
v 0.4 0.8 0.1
v 0.4 0.8 -0.2
v 0.4 0.9 0
v 0.4 0.9 -0.1
v 0.4 1 0.1
v 0.4 1 0
v 0.4 1 -0.1
v 0.4 1 -0.2
v 0.4 1.1 0.2
v 0.4 1.1 0.1
v 0.4 1.1 -0.2
v 0.4 1.1 -0.3
v 0.4 1.2 0.2
v 0.4 1.2 0.1
v 0.4 1.2 -0.2
v 0.4 1.2 -0.3
v 0.4 1.3 0.1
v 0.4 1.3 0
v 0.4 1.3 -0.1
v 0.4 1.3 -0.2
v 0.4 1.4 0
v 0.4 1.4 -0.1
v 0.4 1.5 0.3
v 0.4 1.5 -0.4
v -0.3 -1.5 0.3
v -0.3 1.5 0.3
v 0.4 -1.5 0.3
v 0.4 1.5 0.3
v -0.3 -1.3 -0.2
v -0.3 0.8 -0.2
v -0.2 -1.3 -0.2
v -0.2 0.8 -0.2
v 0.3 -1.3 -0.2
v 0.3 0.8 -0.2
v 0.4 -1.3 -0.2
v 0.4 0.8 -0.2
v -0.3 -1.3 0.1
v -0.3 0.8 0.1
v -0.2 -1.3 0.1
v -0.2 0.8 0.1
v 0.3 -1.3 0.1
v 0.3 0.8 0.1
v 0.4 -1.3 0.1
v 0.4 0.8 0.1
v -0.3 -1.5 -0.4
v -0.3 1.5 -0.4
v 0.4 -1.5 -0.4
v 0.4 1.5 -0.4
v -0.3 -1.5 0.3
v 0.4 -1.5 0.3
v -0.3 -1.5 -0.4
v 0.4 -1.5 -0.4
v -0.3 0.8 0.1
v -0.2 0.8 0.1
v 0.3 0.8 0.1
v 0.4 0.8 0.1
v -0.3 0.8 -0.2
v -0.2 0.8 -0.2
v 0.3 0.8 -0.2
v 0.4 0.8 -0.2
v -0.3 -1.3 0.1
v -0.2 -1.3 0.1
v 0.3 -1.3 0.1
v 0.4 -1.3 0.1
v -0.3 -1.3 -0.2
v -0.2 -1.3 -0.2
v 0.3 -1.3 -0.2
v 0.4 -1.3 -0.2
v -0.3 1.5 0.3
v 0.4 1.5 0.3
v -0.3 1.5 -0.4
v 0.4 1.5 -0.4

# faces
f 3/2/1 2/2/1 1/2/1
f 4/2/1 2/2/1 3/2/1
f 5/2/1 3/2/1 1/2/1
f 6/2/1 2/2/1 4/2/1
f 7/2/1 6/2/1 5/2/1
f 8/2/1 6/2/1 7/2/1
f 9/2/1 5/2/1 1/2/1
f 9/2/1 7/2/1 5/2/1
f 10/1/1 8/1/1 7/1/1
f 10/2/1 7/2/1 9/2/1
f 11/2/1 6/2/1 8/2/1
f 11/1/1 8/1/1 10/1/1
f 12/2/1 2/2/1 6/2/1
f 12/2/1 6/2/1 11/2/1
f 13/2/1 9/2/1 1/2/1
f 14/1/1 10/1/1 9/1/1
f 14/2/1 9/2/1 13/2/1
f 14/1/1 11/1/1 10/1/1
f 14/1/1 12/1/1 11/1/1
f 15/2/1 2/2/1 12/2/1
f 15/1/1 12/1/1 14/1/1
f 16/2/1 2/2/1 15/2/1
f 17/2/1 13/2/1 1/2/1
f 17/1/1 14/1/1 13/1/1
f 17/1/1 16/1/1 15/1/1
f 17/1/1 15/1/1 14/1/1
f 18/1/1 16/1/1 17/1/1
f 19/1/1 16/1/1 18/1/1
f 20/2/1 2/2/1 16/2/1
f 20/1/1 16/1/1 19/1/1
f 21/1/1 19/1/1 18/1/1
f 21/2/1 18/2/1 17/2/1
f 22/1/1 19/1/1 21/1/1
f 23/1/1 19/1/1 22/1/1
f 24/2/1 20/2/1 19/2/1
f 24/1/1 19/1/1 23/1/1
f 25/1/1 23/1/1 22/1/1
f 25/2/1 22/2/1 21/2/1
f 26/2/1 24/2/1 23/2/1
f 26/1/1 23/1/1 25/1/1
f 27/2/1 17/2/1 1/2/1
f 27/2/1 21/2/1 17/2/1
f 27/2/1 26/2/1 25/2/1
f 27/2/1 25/2/1 21/2/1
f 28/2/1 2/2/1 20/2/1
f 28/2/1 26/2/1 27/2/1
f 28/2/1 24/2/1 26/2/1
f 28/2/1 20/2/1 24/2/1
f 31/2/1 30/2/1 29/2/1
f 32/2/1 30/2/1 31/2/1
f 33/2/2 34/2/2 35/2/2
f 35/2/2 34/2/2 36/2/2
f 37/2/2 38/2/2 39/2/2
f 39/2/2 38/2/2 40/2/2
f 37/2/2 39/2/2 41/2/2
f 40/2/2 38/2/2 42/2/2
f 41/2/2 42/2/2 43/2/2
f 43/2/2 42/2/2 44/2/2
f 37/2/2 41/2/2 45/2/2
f 41/2/2 43/2/2 45/2/2
f 43/1/2 44/1/2 46/1/2
f 45/2/2 43/2/2 46/2/2
f 44/2/2 42/2/2 47/2/2
f 46/1/2 44/1/2 47/1/2
f 42/2/2 38/2/2 48/2/2
f 47/2/2 42/2/2 48/2/2
f 37/2/2 45/2/2 49/2/2
f 45/1/2 46/1/2 50/1/2
f 49/2/2 45/2/2 50/2/2
f 46/1/2 47/1/2 50/1/2
f 47/1/2 48/1/2 50/1/2
f 48/2/2 38/2/2 51/2/2
f 50/1/2 48/1/2 51/1/2
f 51/2/2 38/2/2 52/2/2
f 37/2/2 49/2/2 53/2/2
f 49/1/2 50/1/2 53/1/2
f 51/1/2 52/1/2 53/1/2
f 50/1/2 51/1/2 53/1/2
f 53/1/2 52/1/2 54/1/2
f 54/1/2 52/1/2 55/1/2
f 52/2/2 38/2/2 56/2/2
f 55/1/2 52/1/2 56/1/2
f 54/1/2 55/1/2 57/1/2
f 53/2/2 54/2/2 57/2/2
f 57/1/2 55/1/2 58/1/2
f 58/1/2 55/1/2 59/1/2
f 55/2/2 56/2/2 60/2/2
f 59/1/2 55/1/2 60/1/2
f 58/1/2 59/1/2 61/1/2
f 57/2/2 58/2/2 61/2/2
f 59/2/2 60/2/2 62/2/2
f 61/1/2 59/1/2 62/1/2
f 37/2/2 53/2/2 63/2/2
f 53/2/2 57/2/2 63/2/2
f 61/2/2 62/2/2 63/2/2
f 57/2/2 61/2/2 63/2/2
f 56/2/2 38/2/2 64/2/2
f 63/2/2 62/2/2 64/2/2
f 62/2/2 60/2/2 64/2/2
f 60/2/2 56/2/2 64/2/2
f 67/2/3 66/2/3 65/2/3
f 68/2/3 66/2/3 67/2/3
f 71/2/3 70/2/3 69/2/3
f 72/2/3 70/2/3 71/2/3
f 75/2/3 74/2/3 73/2/3
f 76/2/3 74/2/3 75/2/3
f 77/2/4 78/2/4 79/2/4
f 79/2/4 78/2/4 80/2/4
f 81/2/4 82/2/4 83/2/4
f 83/2/4 82/2/4 84/2/4
f 85/2/4 86/2/4 87/2/4
f 87/2/4 86/2/4 88/2/4
f 91/2/5 90/2/5 89/2/5
f 92/2/5 90/2/5 91/2/5
f 97/2/5 94/2/5 93/2/5
f 98/2/5 94/2/5 97/2/5
f 99/2/5 96/2/5 95/2/5
f 100/2/5 96/2/5 99/2/5
f 101/2/6 102/2/6 105/2/6
f 105/2/6 102/2/6 106/2/6
f 103/2/6 104/2/6 107/2/6
f 107/2/6 104/2/6 108/2/6
f 109/2/6 110/2/6 111/2/6
f 111/2/6 110/2/6 112/2/6
