# MagicaVoxel @ Ephtracy

# group
o 

# material
mtllib long_wing_green.mtl
usemtl palette

# normals
vn -1 0 0
vn 1 0 0
vn 0 0 1
vn 0 0 -1
vn 0 -1 0
vn 0 1 0

# texcoords
vt 0.00195312 0.5
vt 0.00585938 0.5
vt 0.0253906 0.5
vt 0.0566406 0.5
vt 0.0644531 0.5
vt 0.0722656 0.5
vt 0.0878906 0.5
vt 0.0917969 0.5
vt 0.103516 0.5
vt 0.119141 0.5
vt 0.123047 0.5
vt 0.126953 0.5
vt 0.138672 0.5
vt 0.150391 0.5
vt 0.169922 0.5
vt 0.177734 0.5
vt 0.181641 0.5
vt 0.189453 0.5
vt 0.205078 0.5
vt 0.216797 0.5
vt 0.220703 0.5
vt 0.240234 0.5
vt 0.251953 0.5
vt 0.287109 0.5
vt 0.302734 0.5
vt 0.306641 0.5
vt 0.314453 0.5
vt 0.322266 0.5
vt 0.326172 0.5
vt 0.341797 0.5
vt 0.365234 0.5
vt 0.376953 0.5
vt 0.400391 0.5
vt 0.408203 0.5
vt 0.412109 0.5
vt 0.416016 0.5
vt 0.443359 0.5
vt 0.490234 0.5
vt 0.505859 0.5
vt 0.513672 0.5
vt 0.517578 0.5
vt 0.525391 0.5
vt 0.529297 0.5
vt 0.541016 0.5
vt 0.572266 0.5
vt 0.576172 0.5
vt 0.591797 0.5
vt 0.595703 0.5
vt 0.599609 0.5
vt 0.615234 0.5
vt 0.619141 0.5
vt 0.658203 0.5
vt 0.669922 0.5
vt 0.673828 0.5
vt 0.693359 0.5
vt 0.705078 0.5
vt 0.708984 0.5
vt 0.720703 0.5
vt 0.736328 0.5
vt 0.740234 0.5
vt 0.744141 0.5
vt 0.767578 0.5
vt 0.771484 0.5
vt 0.802734 0.5
vt 0.826172 0.5
vt 0.833984 0.5
vt 0.837891 0.5
vt 0.841797 0.5
vt 0.849609 0.5
vt 0.861328 0.5
vt 0.865234 0.5
vt 0.873047 0.5
vt 0.880859 0.5
vt 0.896484 0.5
vt 0.912109 0.5
vt 0.919922 0.5
vt 0.923828 0.5
vt 0.931641 0.5
vt 0.939453 0.5
vt 0.943359 0.5
vt 0.951172 0.5
vt 0.955078 0.5
vt 0.958984 0.5
vt 0.962891 0.5
vt 0.974609 0.5
vt 0.986328 0.5

# verts
v 0 -0.1 0.3
v 0 -0.1 0.2
v 0 -0.1 0.1
v 0 -0.1 0
v 0 -0.1 -0.1
v 0 -0.1 -0.2
v 0 -0.1 -0.3
v 0 -0.1 -0.4
v 0 0 0.3
v 0 0 0.2
v 0 0 0.1
v 0 0 0
v 0 0 -0.1
v 0 0 -0.2
v 0 0 -0.3
v 0 0 -0.4
v 0 0.1 0.3
v 0 0.1 0.2
v 0 0.1 0.1
v 0 0.1 0
v 0 0.1 -0.1
v 0 0.1 -0.2
v 0 0.1 -0.3
v 0 0.1 -0.4
v 0.9 -0.1 0.4
v 0.9 -0.1 0.3
v 0.9 0 0.4
v 0.9 0 0.3
v 0.1 0 0.3
v 0.1 0 0.2
v 0.1 0 0.1
v 0.1 0 0
v 0.1 0 -0.1
v 0.1 0.1 0.3
v 0.1 0.1 0.2
v 0.1 0.1 0.1
v 0.1 0.1 0
v 0.1 0.1 -0.1
v 0.5 0 -0.1
v 0.5 0 -0.2
v 0.5 0.1 -0.1
v 0.5 0.1 -0.2
v 0.7 0 -0.2
v 0.7 0 -0.3
v 0.7 0.1 -0.2
v 0.7 0.1 -0.3
v 0.9 0 -0.3
v 0.9 0 -0.4
v 0.9 0.1 -0.3
v 0.9 0.1 -0.4
v 1 -0.1 0.4
v 1 -0.1 0.3
v 1 -0.1 0.2
v 1 -0.1 0.1
v 1 -0.1 0
v 1 -0.1 -0.1
v 1 -0.1 -0.2
v 1 -0.1 -0.3
v 1 -0.1 -0.4
v 1 0 0.4
v 1 0 0.3
v 1 0 0.2
v 1 0 0.1
v 1 0 0
v 1 0 -0.1
v 1 0 -0.2
v 1 0 -0.3
v 1 0 -0.4
v 0.9 -0.1 0.4
v 0.9 0 0.4
v 1 -0.1 0.4
v 1 0 0.4
v 0 -0.1 0.3
v 0 0 0.3
v 0 0.1 0.3
v 0.1 -0.1 0.3
v 0.1 0 0.3
v 0.1 0.1 0.3
v 0.2 -0.1 0.3
v 0.2 0 0.3
v 0.3 -0.1 0.3
v 0.3 0 0.3
v 0.4 -0.1 0.3
v 0.4 0 0.3
v 0.5 -0.1 0.3
v 0.5 0 0.3
v 0.6 -0.1 0.3
v 0.6 0 0.3
v 0.7 -0.1 0.3
v 0.7 0 0.3
v 0.8 -0.1 0.3
v 0.8 0 0.3
v 0.9 -0.1 0.3
v 0.9 0 0.3
v 0.1 0 -0.1
v 0.1 0.1 -0.1
v 0.2 0 -0.1
v 0.2 0.1 -0.1
v 0.3 0 -0.1
v 0.3 0.1 -0.1
v 0.4 0 -0.1
v 0.4 0.1 -0.1
v 0.5 0 -0.1
v 0.5 0.1 -0.1
v 0.5 0 -0.2
v 0.5 0.1 -0.2
v 0.6 0 -0.2
v 0.6 0.1 -0.2
v 0.7 0 -0.2
v 0.7 0.1 -0.2
v 0.7 0 -0.3
v 0.7 0.1 -0.3
v 0.8 0 -0.3
v 0.8 0.1 -0.3
v 0.9 0 -0.3
v 0.9 0.1 -0.3
v 0 -0.1 -0.4
v 0 0 -0.4
v 0 0.1 -0.4
v 0.1 -0.1 -0.4
v 0.1 0 -0.4
v 0.1 0.1 -0.4
v 0.2 -0.1 -0.4
v 0.2 0 -0.4
v 0.2 0.1 -0.4
v 0.3 -0.1 -0.4
v 0.3 0 -0.4
v 0.3 0.1 -0.4
v 0.4 -0.1 -0.4
v 0.4 0 -0.4
v 0.4 0.1 -0.4
v 0.5 -0.1 -0.4
v 0.5 0 -0.4
v 0.5 0.1 -0.4
v 0.6 -0.1 -0.4
v 0.6 0 -0.4
v 0.6 0.1 -0.4
v 0.7 -0.1 -0.4
v 0.7 0 -0.4
v 0.7 0.1 -0.4
v 0.8 -0.1 -0.4
v 0.8 0 -0.4
v 0.8 0.1 -0.4
v 0.9 -0.1 -0.4
v 0.9 0 -0.4
v 0.9 0.1 -0.4
v 1 -0.1 -0.4
v 1 0 -0.4
v 0.9 -0.1 0.4
v 1 -0.1 0.4
v 0 -0.1 0.3
v 0.1 -0.1 0.3
v 0.2 -0.1 0.3
v 0.3 -0.1 0.3
v 0.4 -0.1 0.3
v 0.5 -0.1 0.3
v 0.6 -0.1 0.3
v 0.7 -0.1 0.3
v 0.8 -0.1 0.3
v 0.9 -0.1 0.3
v 1 -0.1 0.3
v 0 -0.1 0.2
v 0.1 -0.1 0.2
v 0.2 -0.1 0.2
v 0.3 -0.1 0.2
v 0.4 -0.1 0.2
v 0.5 -0.1 0.2
v 0.6 -0.1 0.2
v 0.7 -0.1 0.2
v 0.8 -0.1 0.2
v 0.9 -0.1 0.2
v 1 -0.1 0.2
v 0 -0.1 0.1
v 0.1 -0.1 0.1
v 0.2 -0.1 0.1
v 0.3 -0.1 0.1
v 0.4 -0.1 0.1
v 0.5 -0.1 0.1
v 0.6 -0.1 0.1
v 0.7 -0.1 0.1
v 0.8 -0.1 0.1
v 0.9 -0.1 0.1
v 1 -0.1 0.1
v 0 -0.1 0
v 0.1 -0.1 0
v 0.2 -0.1 0
v 0.3 -0.1 0
v 0.4 -0.1 0
v 0.5 -0.1 0
v 0.6 -0.1 0
v 0.7 -0.1 0
v 0.8 -0.1 0
v 0.9 -0.1 0
v 1 -0.1 0
v 0 -0.1 -0.1
v 0.1 -0.1 -0.1
v 0.2 -0.1 -0.1
v 0.3 -0.1 -0.1
v 0.4 -0.1 -0.1
v 0.5 -0.1 -0.1
v 0.6 -0.1 -0.1
v 0.7 -0.1 -0.1
v 0.8 -0.1 -0.1
v 0.9 -0.1 -0.1
v 1 -0.1 -0.1
v 0 -0.1 -0.2
v 0.1 -0.1 -0.2
v 0.2 -0.1 -0.2
v 0.3 -0.1 -0.2
v 0.4 -0.1 -0.2
v 0.5 -0.1 -0.2
v 0.6 -0.1 -0.2
v 0.7 -0.1 -0.2
v 0.8 -0.1 -0.2
v 0.9 -0.1 -0.2
v 1 -0.1 -0.2
v 0 -0.1 -0.3
v 0.1 -0.1 -0.3
v 0.2 -0.1 -0.3
v 0.3 -0.1 -0.3
v 0.4 -0.1 -0.3
v 0.5 -0.1 -0.3
v 0.6 -0.1 -0.3
v 0.7 -0.1 -0.3
v 0.8 -0.1 -0.3
v 0.9 -0.1 -0.3
v 1 -0.1 -0.3
v 0 -0.1 -0.4
v 0.1 -0.1 -0.4
v 0.2 -0.1 -0.4
v 0.3 -0.1 -0.4
v 0.4 -0.1 -0.4
v 0.5 -0.1 -0.4
v 0.6 -0.1 -0.4
v 0.7 -0.1 -0.4
v 0.8 -0.1 -0.4
v 0.9 -0.1 -0.4
v 1 -0.1 -0.4
v 0.9 0 0.4
v 1 0 0.4
v 0.1 0 0.3
v 0.2 0 0.3
v 0.3 0 0.3
v 0.4 0 0.3
v 0.5 0 0.3
v 0.6 0 0.3
v 0.7 0 0.3
v 0.8 0 0.3
v 0.9 0 0.3
v 1 0 0.3
v 0.1 0 0.2
v 0.2 0 0.2
v 0.3 0 0.2
v 0.4 0 0.2
v 0.5 0 0.2
v 0.6 0 0.2
v 0.7 0 0.2
v 0.8 0 0.2
v 0.9 0 0.2
v 1 0 0.2
v 0.1 0 0.1
v 0.2 0 0.1
v 0.3 0 0.1
v 0.4 0 0.1
v 0.5 0 0.1
v 0.6 0 0.1
v 0.7 0 0.1
v 0.8 0 0.1
v 0.9 0 0.1
v 1 0 0.1
v 0.1 0 0
v 0.2 0 0
v 0.3 0 0
v 0.4 0 0
v 0.5 0 0
v 0.6 0 0
v 0.7 0 0
v 0.8 0 0
v 0.9 0 0
v 1 0 0
v 0.1 0 -0.1
v 0.2 0 -0.1
v 0.3 0 -0.1
v 0.4 0 -0.1
v 0.5 0 -0.1
v 0.6 0 -0.1
v 0.7 0 -0.1
v 0.8 0 -0.1
v 0.9 0 -0.1
v 1 0 -0.1
v 0.5 0 -0.2
v 0.6 0 -0.2
v 0.7 0 -0.2
v 0.8 0 -0.2
v 0.9 0 -0.2
v 1 0 -0.2
v 0.7 0 -0.3
v 0.8 0 -0.3
v 0.9 0 -0.3
v 1 0 -0.3
v 0.9 0 -0.4
v 1 0 -0.4
v 0 0.1 0.3
v 0.1 0.1 0.3
v 0 0.1 0.2
v 0.1 0.1 0.2
v 0 0.1 0.1
v 0.1 0.1 0.1
v 0 0.1 0
v 0.1 0.1 0
v 0 0.1 -0.1
v 0.1 0.1 -0.1
v 0.2 0.1 -0.1
v 0.3 0.1 -0.1
v 0.4 0.1 -0.1
v 0.5 0.1 -0.1
v 0 0.1 -0.2
v 0.1 0.1 -0.2
v 0.2 0.1 -0.2
v 0.3 0.1 -0.2
v 0.4 0.1 -0.2
v 0.5 0.1 -0.2
v 0.6 0.1 -0.2
v 0.7 0.1 -0.2
v 0 0.1 -0.3
v 0.1 0.1 -0.3
v 0.2 0.1 -0.3
v 0.3 0.1 -0.3
v 0.4 0.1 -0.3
v 0.5 0.1 -0.3
v 0.6 0.1 -0.3
v 0.7 0.1 -0.3
v 0.8 0.1 -0.3
v 0.9 0.1 -0.3
v 0 0.1 -0.4
v 0.1 0.1 -0.4
v 0.2 0.1 -0.4
v 0.3 0.1 -0.4
v 0.4 0.1 -0.4
v 0.5 0.1 -0.4
v 0.6 0.1 -0.4
v 0.7 0.1 -0.4
v 0.8 0.1 -0.4
v 0.9 0.1 -0.4

# faces
f 9/18/1 2/18/1 1/18/1
f 10/82/1 3/82/1 2/82/1
f 10/18/1 2/18/1 9/18/1
f 11/45/1 4/45/1 3/45/1
f 11/82/1 3/82/1 10/82/1
f 12/23/1 5/23/1 4/23/1
f 12/45/1 4/45/1 11/45/1
f 13/74/1 6/74/1 5/74/1
f 13/23/1 5/23/1 12/23/1
f 14/53/1 7/53/1 6/53/1
f 14/74/1 6/74/1 13/74/1
f 15/67/1 8/67/1 7/67/1
f 15/53/1 7/53/1 14/53/1
f 16/67/1 8/67/1 15/67/1
f 17/14/1 10/14/1 9/14/1
f 18/6/1 11/6/1 10/6/1
f 18/14/1 10/14/1 17/14/1
f 19/25/1 12/25/1 11/25/1
f 19/6/1 11/6/1 18/6/1
f 20/26/1 13/26/1 12/26/1
f 20/25/1 12/25/1 19/25/1
f 21/47/1 14/47/1 13/47/1
f 21/26/1 13/26/1 20/26/1
f 22/70/1 15/70/1 14/70/1
f 22/47/1 14/47/1 21/47/1
f 23/62/1 16/62/1 15/62/1
f 23/70/1 15/70/1 22/70/1
f 24/62/1 16/62/1 23/62/1
f 27/52/1 26/52/1 25/52/1
f 28/52/1 26/52/1 27/52/1
f 29/14/2 30/14/2 34/14/2
f 30/6/2 31/6/2 35/6/2
f 34/14/2 30/14/2 35/14/2
f 31/25/2 32/25/2 36/25/2
f 35/6/2 31/6/2 36/6/2
f 32/26/2 33/26/2 37/26/2
f 36/25/2 32/25/2 37/25/2
f 37/26/2 33/26/2 38/26/2
f 39/1/2 40/1/2 41/1/2
f 41/1/2 40/1/2 42/1/2
f 43/30/2 44/30/2 45/30/2
f 45/30/2 44/30/2 46/30/2
f 47/6/2 48/6/2 49/6/2
f 49/6/2 48/6/2 50/6/2
f 51/52/2 52/52/2 60/52/2
f 52/16/2 53/16/2 61/16/2
f 60/52/2 52/52/2 61/52/2
f 53/20/2 54/20/2 62/20/2
f 61/16/2 53/16/2 62/16/2
f 54/79/2 55/79/2 63/79/2
f 62/20/2 54/20/2 63/20/2
f 55/84/2 56/84/2 64/84/2
f 63/79/2 55/79/2 64/79/2
f 56/30/2 57/30/2 65/30/2
f 64/84/2 56/84/2 65/84/2
f 57/57/2 58/57/2 66/57/2
f 65/30/2 57/30/2 66/30/2
f 58/32/2 59/32/2 67/32/2
f 66/57/2 58/57/2 67/57/2
f 67/32/2 59/32/2 68/32/2
f 71/52/3 70/52/3 69/52/3
f 72/52/3 70/52/3 71/52/3
f 76/18/3 74/18/3 73/18/3
f 77/14/3 75/14/3 74/14/3
f 77/18/3 74/18/3 76/18/3
f 78/14/3 75/14/3 77/14/3
f 79/69/3 77/69/3 76/69/3
f 80/69/3 77/69/3 79/69/3
f 81/24/3 80/24/3 79/24/3
f 82/24/3 80/24/3 81/24/3
f 83/68/3 82/68/3 81/68/3
f 84/68/3 82/68/3 83/68/3
f 85/46/3 84/46/3 83/46/3
f 86/46/3 84/46/3 85/46/3
f 87/81/3 86/81/3 85/81/3
f 88/81/3 86/81/3 87/81/3
f 89/13/3 88/13/3 87/13/3
f 90/13/3 88/13/3 89/13/3
f 91/59/3 90/59/3 89/59/3
f 92/59/3 90/59/3 91/59/3
f 93/76/3 92/76/3 91/76/3
f 94/76/3 92/76/3 93/76/3
f 97/63/3 96/63/3 95/63/3
f 98/63/3 96/63/3 97/63/3
f 99/28/3 98/28/3 97/28/3
f 100/28/3 98/28/3 99/28/3
f 101/5/3 100/5/3 99/5/3
f 102/5/3 100/5/3 101/5/3
f 103/1/3 102/1/3 101/1/3
f 104/1/3 102/1/3 103/1/3
f 107/29/3 106/29/3 105/29/3
f 108/29/3 106/29/3 107/29/3
f 109/30/3 108/30/3 107/30/3
f 110/30/3 108/30/3 109/30/3
f 113/4/3 112/4/3 111/4/3
f 114/4/3 112/4/3 113/4/3
f 115/6/3 114/6/3 113/6/3
f 116/6/3 114/6/3 115/6/3
f 117/67/4 118/67/4 120/67/4
f 118/62/4 119/62/4 121/62/4
f 120/67/4 118/67/4 121/67/4
f 121/62/4 119/62/4 122/62/4
f 120/85/4 121/85/4 123/85/4
f 121/11/4 122/11/4 124/11/4
f 123/85/4 121/85/4 124/85/4
f 124/11/4 122/11/4 125/11/4
f 123/58/4 124/58/4 126/58/4
f 124/31/4 125/31/4 127/31/4
f 126/58/4 124/58/4 127/58/4
f 127/31/4 125/31/4 128/31/4
f 126/40/4 127/40/4 129/40/4
f 127/8/4 128/8/4 130/8/4
f 129/40/4 127/40/4 130/40/4
f 130/8/4 128/8/4 131/8/4
f 129/33/4 130/33/4 132/33/4
f 130/66/4 131/66/4 133/66/4
f 132/33/4 130/33/4 133/33/4
f 133/66/4 131/66/4 134/66/4
f 132/48/4 133/48/4 135/48/4
f 133/39/4 134/39/4 136/39/4
f 135/48/4 133/48/4 136/48/4
f 136/39/4 134/39/4 137/39/4
f 135/81/4 136/81/4 138/81/4
f 136/55/4 137/55/4 139/55/4
f 138/81/4 136/81/4 139/81/4
f 139/55/4 137/55/4 140/55/4
f 138/72/4 139/72/4 141/72/4
f 139/4/4 140/4/4 142/4/4
f 141/72/4 139/72/4 142/72/4
f 142/4/4 140/4/4 143/4/4
f 141/65/4 142/65/4 144/65/4
f 142/6/4 143/6/4 145/6/4
f 144/65/4 142/65/4 145/65/4
f 145/6/4 143/6/4 146/6/4
f 144/32/4 145/32/4 147/32/4
f 147/32/4 145/32/4 148/32/4
f 160/52/5 150/52/5 149/52/5
f 161/52/5 150/52/5 160/52/5
f 162/18/5 152/18/5 151/18/5
f 163/69/5 153/69/5 152/69/5
f 163/18/5 152/18/5 162/18/5
f 164/24/5 154/24/5 153/24/5
f 164/69/5 153/69/5 163/69/5
f 165/68/5 155/68/5 154/68/5
f 165/24/5 154/24/5 164/24/5
f 166/46/5 156/46/5 155/46/5
f 166/68/5 155/68/5 165/68/5
f 167/81/5 157/81/5 156/81/5
f 167/46/5 156/46/5 166/46/5
f 168/13/5 158/13/5 157/13/5
f 168/81/5 157/81/5 167/81/5
f 169/59/5 159/59/5 158/59/5
f 169/13/5 158/13/5 168/13/5
f 170/76/5 160/76/5 159/76/5
f 170/59/5 159/59/5 169/59/5
f 171/16/5 161/16/5 160/16/5
f 171/76/5 160/76/5 170/76/5
f 172/16/5 161/16/5 171/16/5
f 173/82/5 163/82/5 162/82/5
f 174/44/5 164/44/5 163/44/5
f 174/82/5 163/82/5 173/82/5
f 175/27/5 165/27/5 164/27/5
f 175/44/5 164/44/5 174/44/5
f 176/77/5 166/77/5 165/77/5
f 176/27/5 165/27/5 175/27/5
f 177/21/5 167/21/5 166/21/5
f 177/77/5 166/77/5 176/77/5
f 178/86/5 168/86/5 167/86/5
f 178/21/5 167/21/5 177/21/5
f 179/37/5 169/37/5 168/37/5
f 179/86/5 168/86/5 178/86/5
f 180/7/5 170/7/5 169/7/5
f 180/37/5 169/37/5 179/37/5
f 181/43/5 171/43/5 170/43/5
f 181/7/5 170/7/5 180/7/5
f 182/20/5 172/20/5 171/20/5
f 182/43/5 171/43/5 181/43/5
f 183/20/5 172/20/5 182/20/5
f 184/45/5 174/45/5 173/45/5
f 185/9/5 175/9/5 174/9/5
f 185/45/5 174/45/5 184/45/5
f 186/50/5 176/50/5 175/50/5
f 186/9/5 175/9/5 185/9/5
f 187/54/5 177/54/5 176/54/5
f 187/50/5 176/50/5 186/50/5
f 188/61/5 178/61/5 177/61/5
f 188/54/5 177/54/5 187/54/5
f 189/71/5 179/71/5 178/71/5
f 189/61/5 178/61/5 188/61/5
f 190/75/5 180/75/5 179/75/5
f 190/71/5 179/71/5 189/71/5
f 191/80/5 181/80/5 180/80/5
f 191/75/5 180/75/5 190/75/5
f 192/73/5 182/73/5 181/73/5
f 192/80/5 181/80/5 191/80/5
f 193/79/5 183/79/5 182/79/5
f 193/73/5 182/73/5 192/73/5
f 194/79/5 183/79/5 193/79/5
f 195/23/5 185/23/5 184/23/5
f 196/43/5 186/43/5 185/43/5
f 196/23/5 185/23/5 195/23/5
f 197/38/5 187/38/5 186/38/5
f 197/43/5 186/43/5 196/43/5
f 198/19/5 188/19/5 187/19/5
f 198/38/5 187/38/5 197/38/5
f 199/36/5 189/36/5 188/36/5
f 199/19/5 188/19/5 198/19/5
f 200/51/5 190/51/5 189/51/5
f 200/36/5 189/36/5 199/36/5
f 201/49/5 191/49/5 190/49/5
f 201/51/5 190/51/5 200/51/5
f 202/60/5 192/60/5 191/60/5
f 202/49/5 191/49/5 201/49/5
f 203/22/5 193/22/5 192/22/5
f 203/60/5 192/60/5 202/60/5
f 204/84/5 194/84/5 193/84/5
f 204/22/5 193/22/5 203/22/5
f 205/84/5 194/84/5 204/84/5
f 206/74/5 196/74/5 195/74/5
f 207/38/5 197/38/5 196/38/5
f 207/74/5 196/74/5 206/74/5
f 208/15/5 198/15/5 197/15/5
f 208/38/5 197/38/5 207/38/5
f 209/7/5 199/7/5 198/7/5
f 209/15/5 198/15/5 208/15/5
f 210/42/5 200/42/5 199/42/5
f 210/7/5 199/7/5 209/7/5
f 211/34/5 201/34/5 200/34/5
f 211/42/5 200/42/5 210/42/5
f 212/70/5 202/70/5 201/70/5
f 212/34/5 201/34/5 211/34/5
f 213/3/5 203/3/5 202/3/5
f 213/70/5 202/70/5 212/70/5
f 214/49/5 204/49/5 203/49/5
f 214/3/5 203/3/5 213/3/5
f 215/30/5 205/30/5 204/30/5
f 215/49/5 204/49/5 214/49/5
f 216/30/5 205/30/5 215/30/5
f 217/53/5 207/53/5 206/53/5
f 218/56/5 208/56/5 207/56/5
f 218/53/5 207/53/5 217/53/5
f 219/44/5 209/44/5 208/44/5
f 219/56/5 208/56/5 218/56/5
f 220/12/5 210/12/5 209/12/5
f 220/44/5 209/44/5 219/44/5
f 221/10/5 211/10/5 210/10/5
f 221/12/5 210/12/5 220/12/5
f 222/35/5 212/35/5 211/35/5
f 222/10/5 211/10/5 221/10/5
f 223/2/5 213/2/5 212/2/5
f 223/35/5 212/35/5 222/35/5
f 224/17/5 214/17/5 213/17/5
f 224/2/5 213/2/5 223/2/5
f 225/78/5 215/78/5 214/78/5
f 225/17/5 214/17/5 224/17/5
f 226/57/5 216/57/5 215/57/5
f 226/78/5 215/78/5 225/78/5
f 227/57/5 216/57/5 226/57/5
f 228/67/5 218/67/5 217/67/5
f 229/85/5 219/85/5 218/85/5
f 229/67/5 218/67/5 228/67/5
f 230/58/5 220/58/5 219/58/5
f 230/85/5 219/85/5 229/85/5
f 231/40/5 221/40/5 220/40/5
f 231/58/5 220/58/5 230/58/5
f 232/33/5 222/33/5 221/33/5
f 232/40/5 221/40/5 231/40/5
f 233/48/5 223/48/5 222/48/5
f 233/33/5 222/33/5 232/33/5
f 234/81/5 224/81/5 223/81/5
f 234/48/5 223/48/5 233/48/5
f 235/72/5 225/72/5 224/72/5
f 235/81/5 224/81/5 234/81/5
f 236/65/5 226/65/5 225/65/5
f 236/72/5 225/72/5 235/72/5
f 237/32/5 227/32/5 226/32/5
f 237/65/5 226/65/5 236/65/5
f 238/32/5 227/32/5 237/32/5
f 239/52/6 240/52/6 249/52/6
f 249/52/6 240/52/6 250/52/6
f 241/69/6 242/69/6 251/69/6
f 242/24/6 243/24/6 252/24/6
f 251/69/6 242/69/6 252/69/6
f 243/68/6 244/68/6 253/68/6
f 252/24/6 243/24/6 253/24/6
f 244/46/6 245/46/6 254/46/6
f 253/68/6 244/68/6 254/68/6
f 245/81/6 246/81/6 255/81/6
f 254/46/6 245/46/6 255/46/6
f 246/13/6 247/13/6 256/13/6
f 255/81/6 246/81/6 256/81/6
f 247/59/6 248/59/6 257/59/6
f 256/13/6 247/13/6 257/13/6
f 248/76/6 249/76/6 258/76/6
f 257/59/6 248/59/6 258/59/6
f 249/16/6 250/16/6 259/16/6
f 258/76/6 249/76/6 259/76/6
f 259/16/6 250/16/6 260/16/6
f 251/44/6 252/44/6 261/44/6
f 252/27/6 253/27/6 262/27/6
f 261/44/6 252/44/6 262/44/6
f 253/77/6 254/77/6 263/77/6
f 262/27/6 253/27/6 263/27/6
f 254/21/6 255/21/6 264/21/6
f 263/77/6 254/77/6 264/77/6
f 255/86/6 256/86/6 265/86/6
f 264/21/6 255/21/6 265/21/6
f 256/37/6 257/37/6 266/37/6
f 265/86/6 256/86/6 266/86/6
f 257/7/6 258/7/6 267/7/6
f 266/37/6 257/37/6 267/37/6
f 258/43/6 259/43/6 268/43/6
f 267/7/6 258/7/6 268/7/6
f 259/20/6 260/20/6 269/20/6
f 268/43/6 259/43/6 269/43/6
f 269/20/6 260/20/6 270/20/6
f 261/9/6 262/9/6 271/9/6
f 262/50/6 263/50/6 272/50/6
f 271/9/6 262/9/6 272/9/6
f 263/54/6 264/54/6 273/54/6
f 272/50/6 263/50/6 273/50/6
f 264/61/6 265/61/6 274/61/6
f 273/54/6 264/54/6 274/54/6
f 265/71/6 266/71/6 275/71/6
f 274/61/6 265/61/6 275/61/6
f 266/75/6 267/75/6 276/75/6
f 275/71/6 266/71/6 276/71/6
f 267/80/6 268/80/6 277/80/6
f 276/75/6 267/75/6 277/75/6
f 268/73/6 269/73/6 278/73/6
f 277/80/6 268/80/6 278/80/6
f 269/79/6 270/79/6 279/79/6
f 278/73/6 269/73/6 279/73/6
f 279/79/6 270/79/6 280/79/6
f 271/43/6 272/43/6 281/43/6
f 272/38/6 273/38/6 282/38/6
f 281/43/6 272/43/6 282/43/6
f 273/19/6 274/19/6 283/19/6
f 282/38/6 273/38/6 283/38/6
f 274/36/6 275/36/6 284/36/6
f 283/19/6 274/19/6 284/19/6
f 275/51/6 276/51/6 285/51/6
f 284/36/6 275/36/6 285/36/6
f 276/49/6 277/49/6 286/49/6
f 285/51/6 276/51/6 286/51/6
f 277/60/6 278/60/6 287/60/6
f 286/49/6 277/49/6 287/49/6
f 278/22/6 279/22/6 288/22/6
f 287/60/6 278/60/6 288/60/6
f 279/84/6 280/84/6 289/84/6
f 288/22/6 279/22/6 289/22/6
f 289/84/6 280/84/6 290/84/6
f 285/34/6 286/34/6 291/34/6
f 286/70/6 287/70/6 292/70/6
f 291/34/6 286/34/6 292/34/6
f 287/3/6 288/3/6 293/3/6
f 292/70/6 287/70/6 293/70/6
f 288/49/6 289/49/6 294/49/6
f 293/3/6 288/3/6 294/3/6
f 289/30/6 290/30/6 295/30/6
f 294/49/6 289/49/6 295/49/6
f 295/30/6 290/30/6 296/30/6
f 293/17/6 294/17/6 297/17/6
f 294/78/6 295/78/6 298/78/6
f 297/17/6 294/17/6 298/17/6
f 295/57/6 296/57/6 299/57/6
f 298/78/6 295/78/6 299/78/6
f 299/57/6 296/57/6 300/57/6
f 299/32/6 300/32/6 301/32/6
f 301/32/6 300/32/6 302/32/6
f 303/14/6 304/14/6 305/14/6
f 305/14/6 304/14/6 306/14/6
f 305/6/6 306/6/6 307/6/6
f 307/6/6 306/6/6 308/6/6
f 307/25/6 308/25/6 309/25/6
f 309/25/6 308/25/6 310/25/6
f 309/26/6 310/26/6 311/26/6
f 311/26/6 310/26/6 312/26/6
f 311/47/6 312/47/6 317/47/6
f 312/63/6 313/63/6 318/63/6
f 317/47/6 312/47/6 318/47/6
f 313/28/6 314/28/6 319/28/6
f 318/63/6 313/63/6 319/63/6
f 314/5/6 315/5/6 320/5/6
f 319/28/6 314/28/6 320/28/6
f 315/1/6 316/1/6 321/1/6
f 320/5/6 315/5/6 321/5/6
f 321/1/6 316/1/6 322/1/6
f 317/70/6 318/70/6 325/70/6
f 318/47/6 319/47/6 326/47/6
f 325/70/6 318/70/6 326/70/6
f 319/83/6 320/83/6 327/83/6
f 326/47/6 319/47/6 327/47/6
f 320/41/6 321/41/6 328/41/6
f 327/83/6 320/83/6 328/83/6
f 321/64/6 322/64/6 329/64/6
f 328/41/6 321/41/6 329/41/6
f 322/29/6 323/29/6 330/29/6
f 329/64/6 322/64/6 330/64/6
f 323/30/6 324/30/6 331/30/6
f 330/29/6 323/29/6 331/29/6
f 331/30/6 324/30/6 332/30/6
f 325/62/6 326/62/6 335/62/6
f 326/11/6 327/11/6 336/11/6
f 335/62/6 326/62/6 336/62/6
f 327/31/6 328/31/6 337/31/6
f 336/11/6 327/11/6 337/11/6
f 328/8/6 329/8/6 338/8/6
f 337/31/6 328/31/6 338/31/6
f 329/66/6 330/66/6 339/66/6
f 338/8/6 329/8/6 339/8/6
f 330/39/6 331/39/6 340/39/6
f 339/66/6 330/66/6 340/66/6
f 331/55/6 332/55/6 341/55/6
f 340/39/6 331/39/6 341/39/6
f 332/4/6 333/4/6 342/4/6
f 341/55/6 332/55/6 342/55/6
f 333/6/6 334/6/6 343/6/6
f 342/4/6 333/4/6 343/4/6
f 343/6/6 334/6/6 344/6/6
