# MagicaVoxel @ Ephtracy

# group
o 

# material
mtllib long_wing_blue.mtl
usemtl palette

# normals
vn 0 0 1
vn 0 0 -1
vn 1 0 0
vn -1 0 0
vn 0 -1 0
vn 0 1 0

# texcoords
vt 0.00195312 0.5
vt 0.00585938 0.5
vt 0.0253906 0.5
vt 0.0566406 0.5
vt 0.0644531 0.5
vt 0.0722656 0.5
vt 0.0878906 0.5
vt 0.0917969 0.5
vt 0.103516 0.5
vt 0.119141 0.5
vt 0.123047 0.5
vt 0.126953 0.5
vt 0.138672 0.5
vt 0.150391 0.5
vt 0.169922 0.5
vt 0.177734 0.5
vt 0.181641 0.5
vt 0.189453 0.5
vt 0.205078 0.5
vt 0.216797 0.5
vt 0.220703 0.5
vt 0.240234 0.5
vt 0.251953 0.5
vt 0.287109 0.5
vt 0.302734 0.5
vt 0.306641 0.5
vt 0.314453 0.5
vt 0.322266 0.5
vt 0.326172 0.5
vt 0.341797 0.5
vt 0.365234 0.5
vt 0.376953 0.5
vt 0.400391 0.5
vt 0.408203 0.5
vt 0.412109 0.5
vt 0.416016 0.5
vt 0.443359 0.5
vt 0.490234 0.5
vt 0.505859 0.5
vt 0.513672 0.5
vt 0.517578 0.5
vt 0.525391 0.5
vt 0.529297 0.5
vt 0.541016 0.5
vt 0.572266 0.5
vt 0.576172 0.5
vt 0.591797 0.5
vt 0.595703 0.5
vt 0.599609 0.5
vt 0.615234 0.5
vt 0.619141 0.5
vt 0.658203 0.5
vt 0.669922 0.5
vt 0.673828 0.5
vt 0.693359 0.5
vt 0.705078 0.5
vt 0.708984 0.5
vt 0.720703 0.5
vt 0.736328 0.5
vt 0.740234 0.5
vt 0.744141 0.5
vt 0.767578 0.5
vt 0.771484 0.5
vt 0.802734 0.5
vt 0.826172 0.5
vt 0.833984 0.5
vt 0.837891 0.5
vt 0.841797 0.5
vt 0.849609 0.5
vt 0.861328 0.5
vt 0.865234 0.5
vt 0.873047 0.5
vt 0.880859 0.5
vt 0.896484 0.5
vt 0.912109 0.5
vt 0.919922 0.5
vt 0.923828 0.5
vt 0.931641 0.5
vt 0.939453 0.5
vt 0.943359 0.5
vt 0.951172 0.5
vt 0.955078 0.5
vt 0.958984 0.5
vt 0.962891 0.5
vt 0.974609 0.5
vt 0.986328 0.5

# verts
v 1 -0.1 0.4
v 0.9 -0.1 0.4
v 1 0 0.4
v 0.9 0 0.4
v 0.9 -0.1 0.3
v 0.8 -0.1 0.3
v 0.7 -0.1 0.3
v 0.6 -0.1 0.3
v 0.5 -0.1 0.3
v 0.4 -0.1 0.3
v 0.3 -0.1 0.3
v 0.2 -0.1 0.3
v 0.1 -0.1 0.3
v 0 -0.1 0.3
v 0.9 0 0.3
v 0.8 0 0.3
v 0.7 0 0.3
v 0.6 0 0.3
v 0.5 0 0.3
v 0.4 0 0.3
v 0.3 0 0.3
v 0.2 0 0.3
v 0.1 0 0.3
v 0 0 0.3
v 0.1 0.1 0.3
v 0 0.1 0.3
v 0.5 0 -0.1
v 0.4 0 -0.1
v 0.3 0 -0.1
v 0.2 0 -0.1
v 0.1 0 -0.1
v 0.5 0.1 -0.1
v 0.4 0.1 -0.1
v 0.3 0.1 -0.1
v 0.2 0.1 -0.1
v 0.1 0.1 -0.1
v 0.7 0 -0.2
v 0.6 0 -0.2
v 0.5 0 -0.2
v 0.7 0.1 -0.2
v 0.6 0.1 -0.2
v 0.5 0.1 -0.2
v 0.9 0 -0.3
v 0.8 0 -0.3
v 0.7 0 -0.3
v 0.9 0.1 -0.3
v 0.8 0.1 -0.3
v 0.7 0.1 -0.3
v 1 -0.1 -0.4
v 0.9 -0.1 -0.4
v 0.8 -0.1 -0.4
v 0.7 -0.1 -0.4
v 0.6 -0.1 -0.4
v 0.5 -0.1 -0.4
v 0.4 -0.1 -0.4
v 0.3 -0.1 -0.4
v 0.2 -0.1 -0.4
v 0.1 -0.1 -0.4
v 0 -0.1 -0.4
v 1 0 -0.4
v 0.9 0 -0.4
v 0.8 0 -0.4
v 0.7 0 -0.4
v 0.6 0 -0.4
v 0.5 0 -0.4
v 0.4 0 -0.4
v 0.3 0 -0.4
v 0.2 0 -0.4
v 0.1 0 -0.4
v 0 0 -0.4
v 0.9 0.1 -0.4
v 0.8 0.1 -0.4
v 0.7 0.1 -0.4
v 0.6 0.1 -0.4
v 0.5 0.1 -0.4
v 0.4 0.1 -0.4
v 0.3 0.1 -0.4
v 0.2 0.1 -0.4
v 0.1 0.1 -0.4
v 0 0.1 -0.4
v 1 -0.1 0.4
v 1 0 0.4
v 1 -0.1 0.3
v 1 0 0.3
v 1 -0.1 0.2
v 1 0 0.2
v 1 -0.1 0.1
v 1 0 0.1
v 1 -0.1 0
v 1 0 0
v 1 -0.1 -0.1
v 1 0 -0.1
v 1 -0.1 -0.2
v 1 0 -0.2
v 1 -0.1 -0.3
v 1 0 -0.3
v 1 -0.1 -0.4
v 1 0 -0.4
v 0.9 0 -0.3
v 0.9 0.1 -0.3
v 0.9 0 -0.4
v 0.9 0.1 -0.4
v 0.7 0 -0.2
v 0.7 0.1 -0.2
v 0.7 0 -0.3
v 0.7 0.1 -0.3
v 0.5 0 -0.1
v 0.5 0.1 -0.1
v 0.5 0 -0.2
v 0.5 0.1 -0.2
v 0.1 0 0.3
v 0.1 0.1 0.3
v 0.1 0 0.2
v 0.1 0.1 0.2
v 0.1 0 0.1
v 0.1 0.1 0.1
v 0.1 0 0
v 0.1 0.1 0
v 0.1 0 -0.1
v 0.1 0.1 -0.1
v 0.9 -0.1 0.4
v 0.9 0 0.4
v 0.9 -0.1 0.3
v 0.9 0 0.3
v 0 -0.1 0.3
v 0 0 0.3
v 0 0.1 0.3
v 0 -0.1 0.2
v 0 0 0.2
v 0 0.1 0.2
v 0 -0.1 0.1
v 0 0 0.1
v 0 0.1 0.1
v 0 -0.1 0
v 0 0 0
v 0 0.1 0
v 0 -0.1 -0.1
v 0 0 -0.1
v 0 0.1 -0.1
v 0 -0.1 -0.2
v 0 0 -0.2
v 0 0.1 -0.2
v 0 -0.1 -0.3
v 0 0 -0.3
v 0 0.1 -0.3
v 0 -0.1 -0.4
v 0 0 -0.4
v 0 0.1 -0.4
v 1 -0.1 0.4
v 1 -0.1 0.3
v 1 -0.1 0.2
v 1 -0.1 0.1
v 1 -0.1 0
v 1 -0.1 -0.1
v 1 -0.1 -0.2
v 1 -0.1 -0.3
v 1 -0.1 -0.4
v 0.9 -0.1 0.4
v 0.9 -0.1 0.3
v 0.9 -0.1 0.2
v 0.9 -0.1 0.1
v 0.9 -0.1 0
v 0.9 -0.1 -0.1
v 0.9 -0.1 -0.2
v 0.9 -0.1 -0.3
v 0.9 -0.1 -0.4
v 0.8 -0.1 0.3
v 0.8 -0.1 0.2
v 0.8 -0.1 0.1
v 0.8 -0.1 0
v 0.8 -0.1 -0.1
v 0.8 -0.1 -0.2
v 0.8 -0.1 -0.3
v 0.8 -0.1 -0.4
v 0.7 -0.1 0.3
v 0.7 -0.1 0.2
v 0.7 -0.1 0.1
v 0.7 -0.1 0
v 0.7 -0.1 -0.1
v 0.7 -0.1 -0.2
v 0.7 -0.1 -0.3
v 0.7 -0.1 -0.4
v 0.6 -0.1 0.3
v 0.6 -0.1 0.2
v 0.6 -0.1 0.1
v 0.6 -0.1 0
v 0.6 -0.1 -0.1
v 0.6 -0.1 -0.2
v 0.6 -0.1 -0.3
v 0.6 -0.1 -0.4
v 0.5 -0.1 0.3
v 0.5 -0.1 0.2
v 0.5 -0.1 0.1
v 0.5 -0.1 0
v 0.5 -0.1 -0.1
v 0.5 -0.1 -0.2
v 0.5 -0.1 -0.3
v 0.5 -0.1 -0.4
v 0.4 -0.1 0.3
v 0.4 -0.1 0.2
v 0.4 -0.1 0.1
v 0.4 -0.1 0
v 0.4 -0.1 -0.1
v 0.4 -0.1 -0.2
v 0.4 -0.1 -0.3
v 0.4 -0.1 -0.4
v 0.3 -0.1 0.3
v 0.3 -0.1 0.2
v 0.3 -0.1 0.1
v 0.3 -0.1 0
v 0.3 -0.1 -0.1
v 0.3 -0.1 -0.2
v 0.3 -0.1 -0.3
v 0.3 -0.1 -0.4
v 0.2 -0.1 0.3
v 0.2 -0.1 0.2
v 0.2 -0.1 0.1
v 0.2 -0.1 0
v 0.2 -0.1 -0.1
v 0.2 -0.1 -0.2
v 0.2 -0.1 -0.3
v 0.2 -0.1 -0.4
v 0.1 -0.1 0.3
v 0.1 -0.1 0.2
v 0.1 -0.1 0.1
v 0.1 -0.1 0
v 0.1 -0.1 -0.1
v 0.1 -0.1 -0.2
v 0.1 -0.1 -0.3
v 0.1 -0.1 -0.4
v 0 -0.1 0.3
v 0 -0.1 0.2
v 0 -0.1 0.1
v 0 -0.1 0
v 0 -0.1 -0.1
v 0 -0.1 -0.2
v 0 -0.1 -0.3
v 0 -0.1 -0.4
v 1 0 0.4
v 1 0 0.3
v 1 0 0.2
v 1 0 0.1
v 1 0 0
v 1 0 -0.1
v 1 0 -0.2
v 1 0 -0.3
v 1 0 -0.4
v 0.9 0 0.4
v 0.9 0 0.3
v 0.9 0 0.2
v 0.9 0 0.1
v 0.9 0 0
v 0.9 0 -0.1
v 0.9 0 -0.2
v 0.9 0 -0.3
v 0.9 0 -0.4
v 0.8 0 0.3
v 0.8 0 0.2
v 0.8 0 0.1
v 0.8 0 0
v 0.8 0 -0.1
v 0.8 0 -0.2
v 0.8 0 -0.3
v 0.7 0 0.3
v 0.7 0 0.2
v 0.7 0 0.1
v 0.7 0 0
v 0.7 0 -0.1
v 0.7 0 -0.2
v 0.7 0 -0.3
v 0.6 0 0.3
v 0.6 0 0.2
v 0.6 0 0.1
v 0.6 0 0
v 0.6 0 -0.1
v 0.6 0 -0.2
v 0.5 0 0.3
v 0.5 0 0.2
v 0.5 0 0.1
v 0.5 0 0
v 0.5 0 -0.1
v 0.5 0 -0.2
v 0.4 0 0.3
v 0.4 0 0.2
v 0.4 0 0.1
v 0.4 0 0
v 0.4 0 -0.1
v 0.3 0 0.3
v 0.3 0 0.2
v 0.3 0 0.1
v 0.3 0 0
v 0.3 0 -0.1
v 0.2 0 0.3
v 0.2 0 0.2
v 0.2 0 0.1
v 0.2 0 0
v 0.2 0 -0.1
v 0.1 0 0.3
v 0.1 0 0.2
v 0.1 0 0.1
v 0.1 0 0
v 0.1 0 -0.1
v 0.9 0.1 -0.3
v 0.9 0.1 -0.4
v 0.8 0.1 -0.3
v 0.8 0.1 -0.4
v 0.7 0.1 -0.2
v 0.7 0.1 -0.3
v 0.7 0.1 -0.4
v 0.6 0.1 -0.2
v 0.6 0.1 -0.3
v 0.6 0.1 -0.4
v 0.5 0.1 -0.1
v 0.5 0.1 -0.2
v 0.5 0.1 -0.3
v 0.5 0.1 -0.4
v 0.4 0.1 -0.1
v 0.4 0.1 -0.2
v 0.4 0.1 -0.3
v 0.4 0.1 -0.4
v 0.3 0.1 -0.1
v 0.3 0.1 -0.2
v 0.3 0.1 -0.3
v 0.3 0.1 -0.4
v 0.2 0.1 -0.1
v 0.2 0.1 -0.2
v 0.2 0.1 -0.3
v 0.2 0.1 -0.4
v 0.1 0.1 0.3
v 0.1 0.1 0.2
v 0.1 0.1 0.1
v 0.1 0.1 0
v 0.1 0.1 -0.1
v 0.1 0.1 -0.2
v 0.1 0.1 -0.3
v 0.1 0.1 -0.4
v 0 0.1 0.3
v 0 0.1 0.2
v 0 0.1 0.1
v 0 0.1 0
v 0 0.1 -0.1
v 0 0.1 -0.2
v 0 0.1 -0.3
v 0 0.1 -0.4

# faces
f 3/52/1 2/52/1 1/52/1
f 4/52/1 2/52/1 3/52/1
f 15/76/1 6/76/1 5/76/1
f 16/59/1 7/59/1 6/59/1
f 16/76/1 6/76/1 15/76/1
f 17/13/1 8/13/1 7/13/1
f 17/59/1 7/59/1 16/59/1
f 18/81/1 9/81/1 8/81/1
f 18/13/1 8/13/1 17/13/1
f 19/46/1 10/46/1 9/46/1
f 19/81/1 9/81/1 18/81/1
f 20/68/1 11/68/1 10/68/1
f 20/46/1 10/46/1 19/46/1
f 21/24/1 12/24/1 11/24/1
f 21/68/1 11/68/1 20/68/1
f 22/69/1 13/69/1 12/69/1
f 22/24/1 12/24/1 21/24/1
f 23/18/1 14/18/1 13/18/1
f 23/69/1 13/69/1 22/69/1
f 24/18/1 14/18/1 23/18/1
f 25/14/1 24/14/1 23/14/1
f 26/14/1 24/14/1 25/14/1
f 32/1/1 28/1/1 27/1/1
f 33/5/1 29/5/1 28/5/1
f 33/1/1 28/1/1 32/1/1
f 34/28/1 30/28/1 29/28/1
f 34/5/1 29/5/1 33/5/1
f 35/63/1 31/63/1 30/63/1
f 35/28/1 30/28/1 34/28/1
f 36/63/1 31/63/1 35/63/1
f 40/30/1 38/30/1 37/30/1
f 41/29/1 39/29/1 38/29/1
f 41/30/1 38/30/1 40/30/1
f 42/29/1 39/29/1 41/29/1
f 46/6/1 44/6/1 43/6/1
f 47/4/1 45/4/1 44/4/1
f 47/6/1 44/6/1 46/6/1
f 48/4/1 45/4/1 47/4/1
f 49/32/2 50/32/2 60/32/2
f 50/65/2 51/65/2 61/65/2
f 60/32/2 50/32/2 61/32/2
f 51/72/2 52/72/2 62/72/2
f 61/65/2 51/65/2 62/65/2
f 52/81/2 53/81/2 63/81/2
f 62/72/2 52/72/2 63/72/2
f 53/48/2 54/48/2 64/48/2
f 63/81/2 53/81/2 64/81/2
f 54/33/2 55/33/2 65/33/2
f 64/48/2 54/48/2 65/48/2
f 55/40/2 56/40/2 66/40/2
f 65/33/2 55/33/2 66/33/2
f 56/58/2 57/58/2 67/58/2
f 66/40/2 56/40/2 67/40/2
f 57/85/2 58/85/2 68/85/2
f 67/58/2 57/58/2 68/58/2
f 58/67/2 59/67/2 69/67/2
f 68/85/2 58/85/2 69/85/2
f 69/67/2 59/67/2 70/67/2
f 61/6/2 62/6/2 71/6/2
f 62/4/2 63/4/2 72/4/2
f 71/6/2 62/6/2 72/6/2
f 63/55/2 64/55/2 73/55/2
f 72/4/2 63/4/2 73/4/2
f 64/39/2 65/39/2 74/39/2
f 73/55/2 64/55/2 74/55/2
f 65/66/2 66/66/2 75/66/2
f 74/39/2 65/39/2 75/39/2
f 66/8/2 67/8/2 76/8/2
f 75/66/2 66/66/2 76/66/2
f 67/31/2 68/31/2 77/31/2
f 76/8/2 67/8/2 77/8/2
f 68/11/2 69/11/2 78/11/2
f 77/31/2 68/31/2 78/31/2
f 69/62/2 70/62/2 79/62/2
f 78/11/2 69/11/2 79/11/2
f 79/62/2 70/62/2 80/62/2
f 83/52/3 82/52/3 81/52/3
f 84/52/3 82/52/3 83/52/3
f 85/16/3 84/16/3 83/16/3
f 86/16/3 84/16/3 85/16/3
f 87/20/3 86/20/3 85/20/3
f 88/20/3 86/20/3 87/20/3
f 89/79/3 88/79/3 87/79/3
f 90/79/3 88/79/3 89/79/3
f 91/84/3 90/84/3 89/84/3
f 92/84/3 90/84/3 91/84/3
f 93/30/3 92/30/3 91/30/3
f 94/30/3 92/30/3 93/30/3
f 95/57/3 94/57/3 93/57/3
f 96/57/3 94/57/3 95/57/3
f 97/32/3 96/32/3 95/32/3
f 98/32/3 96/32/3 97/32/3
f 101/6/3 100/6/3 99/6/3
f 102/6/3 100/6/3 101/6/3
f 105/30/3 104/30/3 103/30/3
f 106/30/3 104/30/3 105/30/3
f 109/1/3 108/1/3 107/1/3
f 110/1/3 108/1/3 109/1/3
f 113/14/3 112/14/3 111/14/3
f 114/14/3 112/14/3 113/14/3
f 115/6/3 114/6/3 113/6/3
f 116/6/3 114/6/3 115/6/3
f 117/25/3 116/25/3 115/25/3
f 118/25/3 116/25/3 117/25/3
f 119/26/3 118/26/3 117/26/3
f 120/26/3 118/26/3 119/26/3
f 121/52/4 122/52/4 123/52/4
f 123/52/4 122/52/4 124/52/4
f 125/18/4 126/18/4 128/18/4
f 126/14/4 127/14/4 129/14/4
f 128/18/4 126/18/4 129/18/4
f 129/14/4 127/14/4 130/14/4
f 128/82/4 129/82/4 131/82/4
f 129/6/4 130/6/4 132/6/4
f 131/82/4 129/82/4 132/82/4
f 132/6/4 130/6/4 133/6/4
f 131/45/4 132/45/4 134/45/4
f 132/25/4 133/25/4 135/25/4
f 134/45/4 132/45/4 135/45/4
f 135/25/4 133/25/4 136/25/4
f 134/23/4 135/23/4 137/23/4
f 135/26/4 136/26/4 138/26/4
f 137/23/4 135/23/4 138/23/4
f 138/26/4 136/26/4 139/26/4
f 137/74/4 138/74/4 140/74/4
f 138/47/4 139/47/4 141/47/4
f 140/74/4 138/74/4 141/74/4
f 141/47/4 139/47/4 142/47/4
f 140/53/4 141/53/4 143/53/4
f 141/70/4 142/70/4 144/70/4
f 143/53/4 141/53/4 144/53/4
f 144/70/4 142/70/4 145/70/4
f 143/67/4 144/67/4 146/67/4
f 144/62/4 145/62/4 147/62/4
f 146/67/4 144/67/4 147/67/4
f 147/62/4 145/62/4 148/62/4
f 158/52/5 150/52/5 149/52/5
f 159/16/5 151/16/5 150/16/5
f 159/52/5 150/52/5 158/52/5
f 160/20/5 152/20/5 151/20/5
f 160/16/5 151/16/5 159/16/5
f 161/79/5 153/79/5 152/79/5
f 161/20/5 152/20/5 160/20/5
f 162/84/5 154/84/5 153/84/5
f 162/79/5 153/79/5 161/79/5
f 163/30/5 155/30/5 154/30/5
f 163/84/5 154/84/5 162/84/5
f 164/57/5 156/57/5 155/57/5
f 164/30/5 155/30/5 163/30/5
f 165/32/5 157/32/5 156/32/5
f 165/57/5 156/57/5 164/57/5
f 166/32/5 157/32/5 165/32/5
f 167/76/5 160/76/5 159/76/5
f 168/43/5 161/43/5 160/43/5
f 168/76/5 160/76/5 167/76/5
f 169/73/5 162/73/5 161/73/5
f 169/43/5 161/43/5 168/43/5
f 170/22/5 163/22/5 162/22/5
f 170/73/5 162/73/5 169/73/5
f 171/49/5 164/49/5 163/49/5
f 171/22/5 163/22/5 170/22/5
f 172/78/5 165/78/5 164/78/5
f 172/49/5 164/49/5 171/49/5
f 173/65/5 166/65/5 165/65/5
f 173/78/5 165/78/5 172/78/5
f 174/65/5 166/65/5 173/65/5
f 175/59/5 168/59/5 167/59/5
f 176/7/5 169/7/5 168/7/5
f 176/59/5 168/59/5 175/59/5
f 177/80/5 170/80/5 169/80/5
f 177/7/5 169/7/5 176/7/5
f 178/60/5 171/60/5 170/60/5
f 178/80/5 170/80/5 177/80/5
f 179/3/5 172/3/5 171/3/5
f 179/60/5 171/60/5 178/60/5
f 180/17/5 173/17/5 172/17/5
f 180/3/5 172/3/5 179/3/5
f 181/72/5 174/72/5 173/72/5
f 181/17/5 173/17/5 180/17/5
f 182/72/5 174/72/5 181/72/5
f 183/13/5 176/13/5 175/13/5
f 184/37/5 177/37/5 176/37/5
f 184/13/5 176/13/5 183/13/5
f 185/75/5 178/75/5 177/75/5
f 185/37/5 177/37/5 184/37/5
f 186/49/5 179/49/5 178/49/5
f 186/75/5 178/75/5 185/75/5
f 187/70/5 180/70/5 179/70/5
f 187/49/5 179/49/5 186/49/5
f 188/2/5 181/2/5 180/2/5
f 188/70/5 180/70/5 187/70/5
f 189/81/5 182/81/5 181/81/5
f 189/2/5 181/2/5 188/2/5
f 190/81/5 182/81/5 189/81/5
f 191/81/5 184/81/5 183/81/5
f 192/86/5 185/86/5 184/86/5
f 192/81/5 184/81/5 191/81/5
f 193/71/5 186/71/5 185/71/5
f 193/86/5 185/86/5 192/86/5
f 194/51/5 187/51/5 186/51/5
f 194/71/5 186/71/5 193/71/5
f 195/34/5 188/34/5 187/34/5
f 195/51/5 187/51/5 194/51/5
f 196/35/5 189/35/5 188/35/5
f 196/34/5 188/34/5 195/34/5
f 197/48/5 190/48/5 189/48/5
f 197/35/5 189/35/5 196/35/5
f 198/48/5 190/48/5 197/48/5
f 199/46/5 192/46/5 191/46/5
f 200/21/5 193/21/5 192/21/5
f 200/46/5 192/46/5 199/46/5
f 201/61/5 194/61/5 193/61/5
f 201/21/5 193/21/5 200/21/5
f 202/36/5 195/36/5 194/36/5
f 202/61/5 194/61/5 201/61/5
f 203/42/5 196/42/5 195/42/5
f 203/36/5 195/36/5 202/36/5
f 204/10/5 197/10/5 196/10/5
f 204/42/5 196/42/5 203/42/5
f 205/33/5 198/33/5 197/33/5
f 205/10/5 197/10/5 204/10/5
f 206/33/5 198/33/5 205/33/5
f 207/68/5 200/68/5 199/68/5
f 208/77/5 201/77/5 200/77/5
f 208/68/5 200/68/5 207/68/5
f 209/54/5 202/54/5 201/54/5
f 209/77/5 201/77/5 208/77/5
f 210/19/5 203/19/5 202/19/5
f 210/54/5 202/54/5 209/54/5
f 211/7/5 204/7/5 203/7/5
f 211/19/5 203/19/5 210/19/5
f 212/12/5 205/12/5 204/12/5
f 212/7/5 204/7/5 211/7/5
f 213/40/5 206/40/5 205/40/5
f 213/12/5 205/12/5 212/12/5
f 214/40/5 206/40/5 213/40/5
f 215/24/5 208/24/5 207/24/5
f 216/27/5 209/27/5 208/27/5
f 216/24/5 208/24/5 215/24/5
f 217/50/5 210/50/5 209/50/5
f 217/27/5 209/27/5 216/27/5
f 218/38/5 211/38/5 210/38/5
f 218/50/5 210/50/5 217/50/5
f 219/15/5 212/15/5 211/15/5
f 219/38/5 211/38/5 218/38/5
f 220/44/5 213/44/5 212/44/5
f 220/15/5 212/15/5 219/15/5
f 221/58/5 214/58/5 213/58/5
f 221/44/5 213/44/5 220/44/5
f 222/58/5 214/58/5 221/58/5
f 223/69/5 216/69/5 215/69/5
f 224/44/5 217/44/5 216/44/5
f 224/69/5 216/69/5 223/69/5
f 225/9/5 218/9/5 217/9/5
f 225/44/5 217/44/5 224/44/5
f 226/43/5 219/43/5 218/43/5
f 226/9/5 218/9/5 225/9/5
f 227/38/5 220/38/5 219/38/5
f 227/43/5 219/43/5 226/43/5
f 228/56/5 221/56/5 220/56/5
f 228/38/5 220/38/5 227/38/5
f 229/85/5 222/85/5 221/85/5
f 229/56/5 221/56/5 228/56/5
f 230/85/5 222/85/5 229/85/5
f 231/18/5 224/18/5 223/18/5
f 232/82/5 225/82/5 224/82/5
f 232/18/5 224/18/5 231/18/5
f 233/45/5 226/45/5 225/45/5
f 233/82/5 225/82/5 232/82/5
f 234/23/5 227/23/5 226/23/5
f 234/45/5 226/45/5 233/45/5
f 235/74/5 228/74/5 227/74/5
f 235/23/5 227/23/5 234/23/5
f 236/53/5 229/53/5 228/53/5
f 236/74/5 228/74/5 235/74/5
f 237/67/5 230/67/5 229/67/5
f 237/53/5 229/53/5 236/53/5
f 238/67/5 230/67/5 237/67/5
f 239/52/6 240/52/6 248/52/6
f 240/16/6 241/16/6 249/16/6
f 248/52/6 240/52/6 249/52/6
f 241/20/6 242/20/6 250/20/6
f 249/16/6 241/16/6 250/16/6
f 242/79/6 243/79/6 251/79/6
f 250/20/6 242/20/6 251/20/6
f 243/84/6 244/84/6 252/84/6
f 251/79/6 243/79/6 252/79/6
f 244/30/6 245/30/6 253/30/6
f 252/84/6 244/84/6 253/84/6
f 245/57/6 246/57/6 254/57/6
f 253/30/6 245/30/6 254/30/6
f 246/32/6 247/32/6 255/32/6
f 254/57/6 246/57/6 255/57/6
f 255/32/6 247/32/6 256/32/6
f 249/76/6 250/76/6 257/76/6
f 250/43/6 251/43/6 258/43/6
f 257/76/6 250/76/6 258/76/6
f 251/73/6 252/73/6 259/73/6
f 258/43/6 251/43/6 259/43/6
f 252/22/6 253/22/6 260/22/6
f 259/73/6 252/73/6 260/73/6
f 253/49/6 254/49/6 261/49/6
f 260/22/6 253/22/6 261/22/6
f 254/78/6 255/78/6 262/78/6
f 261/49/6 254/49/6 262/49/6
f 262/78/6 255/78/6 263/78/6
f 257/59/6 258/59/6 264/59/6
f 258/7/6 259/7/6 265/7/6
f 264/59/6 258/59/6 265/59/6
f 259/80/6 260/80/6 266/80/6
f 265/7/6 259/7/6 266/7/6
f 260/60/6 261/60/6 267/60/6
f 266/80/6 260/80/6 267/80/6
f 261/3/6 262/3/6 268/3/6
f 267/60/6 261/60/6 268/60/6
f 262/17/6 263/17/6 269/17/6
f 268/3/6 262/3/6 269/3/6
f 269/17/6 263/17/6 270/17/6
f 264/13/6 265/13/6 271/13/6
f 265/37/6 266/37/6 272/37/6
f 271/13/6 265/13/6 272/13/6
f 266/75/6 267/75/6 273/75/6
f 272/37/6 266/37/6 273/37/6
f 267/49/6 268/49/6 274/49/6
f 273/75/6 267/75/6 274/75/6
f 268/70/6 269/70/6 275/70/6
f 274/49/6 268/49/6 275/49/6
f 275/70/6 269/70/6 276/70/6
f 271/81/6 272/81/6 277/81/6
f 272/86/6 273/86/6 278/86/6
f 277/81/6 272/81/6 278/81/6
f 273/71/6 274/71/6 279/71/6
f 278/86/6 273/86/6 279/86/6
f 274/51/6 275/51/6 280/51/6
f 279/71/6 274/71/6 280/71/6
f 275/34/6 276/34/6 281/34/6
f 280/51/6 275/51/6 281/51/6
f 281/34/6 276/34/6 282/34/6
f 277/46/6 278/46/6 283/46/6
f 278/21/6 279/21/6 284/21/6
f 283/46/6 278/46/6 284/46/6
f 279/61/6 280/61/6 285/61/6
f 284/21/6 279/21/6 285/21/6
f 280/36/6 281/36/6 286/36/6
f 285/61/6 280/61/6 286/61/6
f 286/36/6 281/36/6 287/36/6
f 283/68/6 284/68/6 288/68/6
f 284/77/6 285/77/6 289/77/6
f 288/68/6 284/68/6 289/68/6
f 285/54/6 286/54/6 290/54/6
f 289/77/6 285/77/6 290/77/6
f 286/19/6 287/19/6 291/19/6
f 290/54/6 286/54/6 291/54/6
f 291/19/6 287/19/6 292/19/6
f 288/24/6 289/24/6 293/24/6
f 289/27/6 290/27/6 294/27/6
f 293/24/6 289/24/6 294/24/6
f 290/50/6 291/50/6 295/50/6
f 294/27/6 290/27/6 295/27/6
f 291/38/6 292/38/6 296/38/6
f 295/50/6 291/50/6 296/50/6
f 296/38/6 292/38/6 297/38/6
f 293/69/6 294/69/6 298/69/6
f 294/44/6 295/44/6 299/44/6
f 298/69/6 294/69/6 299/69/6
f 295/9/6 296/9/6 300/9/6
f 299/44/6 295/44/6 300/44/6
f 296/43/6 297/43/6 301/43/6
f 300/9/6 296/9/6 301/9/6
f 301/43/6 297/43/6 302/43/6
f 303/6/6 304/6/6 305/6/6
f 305/6/6 304/6/6 306/6/6
f 305/4/6 306/4/6 308/4/6
f 308/4/6 306/4/6 309/4/6
f 307/30/6 308/30/6 310/30/6
f 308/55/6 309/55/6 311/55/6
f 310/30/6 308/30/6 311/30/6
f 311/55/6 309/55/6 312/55/6
f 310/29/6 311/29/6 314/29/6
f 311/39/6 312/39/6 315/39/6
f 314/29/6 311/29/6 315/29/6
f 315/39/6 312/39/6 316/39/6
f 313/1/6 314/1/6 317/1/6
f 314/64/6 315/64/6 318/64/6
f 317/1/6 314/1/6 318/1/6
f 315/66/6 316/66/6 319/66/6
f 318/64/6 315/64/6 319/64/6
f 319/66/6 316/66/6 320/66/6
f 317/5/6 318/5/6 321/5/6
f 318/41/6 319/41/6 322/41/6
f 321/5/6 318/5/6 322/5/6
f 319/8/6 320/8/6 323/8/6
f 322/41/6 319/41/6 323/41/6
f 323/8/6 320/8/6 324/8/6
f 321/28/6 322/28/6 325/28/6
f 322/83/6 323/83/6 326/83/6
f 325/28/6 322/28/6 326/28/6
f 323/31/6 324/31/6 327/31/6
f 326/83/6 323/83/6 327/83/6
f 327/31/6 324/31/6 328/31/6
f 325/63/6 326/63/6 333/63/6
f 326/47/6 327/47/6 334/47/6
f 333/63/6 326/63/6 334/63/6
f 327/11/6 328/11/6 335/11/6
f 334/47/6 327/47/6 335/47/6
f 335/11/6 328/11/6 336/11/6
f 329/14/6 330/14/6 337/14/6
f 330/6/6 331/6/6 338/6/6
f 337/14/6 330/14/6 338/14/6
f 331/25/6 332/25/6 339/25/6
f 338/6/6 331/6/6 339/6/6
f 332/26/6 333/26/6 340/26/6
f 339/25/6 332/25/6 340/25/6
f 333/47/6 334/47/6 341/47/6
f 340/26/6 333/26/6 341/26/6
f 334/70/6 335/70/6 342/70/6
f 341/47/6 334/47/6 342/47/6
f 335/62/6 336/62/6 343/62/6
f 342/70/6 335/70/6 343/70/6
f 343/62/6 336/62/6 344/62/6
