# MagicaVoxel @ Ephtracy

# group
o 

# material
mtllib long_wing_blue.mtl
usemtl palette

# normals
vn 0 0 1
vn 0 0 -1
vn 1 0 0
vn -1 0 0
vn 0 -1 0
vn 0 1 0

# texcoords
vt 0.443359 0.5
vt 0.447266 0.5
vt 0.451172 0.5

# verts
v 1 -0.1 0.4
v 0.9 -0.1 0.4
v 1 0 0.4
v 0.9 0 0.4
v 0.9 -0.1 0.3
v 0.8 -0.1 0.3
v 0.7 -0.1 0.3
v 0.6 -0.1 0.3
v 0.4 -0.1 0.3
v 0.3 -0.1 0.3
v 0.2 -0.1 0.3
v 0 -0.1 0.3
v 0.9 0 0.3
v 0.8 0 0.3
v 0.7 0 0.3
v 0.6 0 0.3
v 0.4 0 0.3
v 0.3 0 0.3
v 0.2 0 0.3
v 0.1 0 0.3
v 0 0 0.3
v 0.1 0.1 0.3
v 0 0.1 0.3
v 0.5 0 -0.1
v 0.3 0 -0.1
v 0.2 0 -0.1
v 0.1 0 -0.1
v 0.5 0.1 -0.1
v 0.2 0.1 -0.1
v 0.1 0.1 -0.1
v 0.7 0 -0.2
v 0.5 0 -0.2
v 0.7 0.1 -0.2
v 0.5 0.1 -0.2
v 0.9 0 -0.3
v 0.8 0 -0.3
v 0.7 0 -0.3
v 0.9 0.1 -0.3
v 0.7 0.1 -0.3
v 1 -0.1 -0.4
v 0.9 -0.1 -0.4
v 0.7 -0.1 -0.4
v 0.6 -0.1 -0.4
v 0.5 -0.1 -0.4
v 0.4 -0.1 -0.4
v 0.2 -0.1 -0.4
v 0.1 -0.1 -0.4
v 0 -0.1 -0.4
v 1 0 -0.4
v 0.9 0 -0.4
v 0.6 0 -0.4
v 0.5 0 -0.4
v 0.4 0 -0.4
v 0.3 0 -0.4
v 0.2 0 -0.4
v 0.1 0 -0.4
v 0 0 -0.4
v 0.9 0.1 -0.4
v 0.7 0.1 -0.4
v 0.5 0.1 -0.4
v 0.4 0.1 -0.4
v 0.3 0.1 -0.4
v 0.1 0.1 -0.4
v 0 0.1 -0.4
v 1 -0.1 0.4
v 1 0 0.4
v 1 -0.1 0.3
v 1 0 0.3
v 1 -0.1 0.1
v 1 0 0.1
v 1 -0.1 0
v 1 0 0
v 1 -0.1 -0.3
v 1 0 -0.3
v 1 -0.1 -0.4
v 1 0 -0.4
v 0.9 0 -0.3
v 0.9 0.1 -0.3
v 0.9 0 -0.4
v 0.9 0.1 -0.4
v 0.7 0 -0.2
v 0.7 0.1 -0.2
v 0.7 0 -0.3
v 0.7 0.1 -0.3
v 0.5 0 -0.1
v 0.5 0.1 -0.1
v 0.5 0 -0.2
v 0.5 0.1 -0.2
v 0.1 0 0.3
v 0.1 0.1 0.3
v 0.1 0 0.1
v 0.1 0.1 0.1
v 0.1 0 0
v 0.1 0.1 0
v 0.1 0 -0.1
v 0.1 0.1 -0.1
v 0.9 -0.1 0.4
v 0.9 0 0.4
v 0.9 -0.1 0.3
v 0.9 0 0.3
v 0 -0.1 0.3
v 0 0 0.3
v 0 0.1 0.3
v 0 -0.1 0.2
v 0 0 0.2
v 0 0 0.1
v 0 0.1 0.1
v 0 0 0
v 0 0.1 0
v 0 0 -0.3
v 0 0.1 -0.3
v 0 -0.1 -0.4
v 0 0 -0.4
v 0 0.1 -0.4
v 1 -0.1 0.4
v 1 -0.1 0.3
v 1 -0.1 0.1
v 1 -0.1 0
v 1 -0.1 -0.3
v 1 -0.1 -0.4
v 0.9 -0.1 0.4
v 0.9 -0.1 0.3
v 0.9 -0.1 0.1
v 0.9 -0.1 0
v 0.9 -0.1 -0.2
v 0.9 -0.1 -0.3
v 0.9 -0.1 -0.4
v 0.8 -0.1 0.3
v 0.8 -0.1 0.1
v 0.8 -0.1 0
v 0.8 -0.1 -0.2
v 0.8 -0.1 -0.3
v 0.7 -0.1 0.3
v 0.7 -0.1 0
v 0.7 -0.1 -0.2
v 0.7 -0.1 -0.4
v 0.6 -0.1 0.3
v 0.6 -0.1 0
v 0.6 -0.1 -0.3
v 0.6 -0.1 -0.4
v 0.5 -0.1 -0.2
v 0.5 -0.1 -0.3
v 0.5 -0.1 -0.4
v 0.4 -0.1 0.3
v 0.4 -0.1 0
v 0.4 -0.1 -0.1
v 0.4 -0.1 -0.2
v 0.4 -0.1 -0.3
v 0.4 -0.1 -0.4
v 0.3 -0.1 0.3
v 0.3 -0.1 0
v 0.3 -0.1 -0.1
v 0.3 -0.1 -0.2
v 0.3 -0.1 -0.3
v 0.2 -0.1 0.3
v 0.2 -0.1 0.1
v 0.2 -0.1 0
v 0.2 -0.1 -0.1
v 0.2 -0.1 -0.2
v 0.2 -0.1 -0.3
v 0.2 -0.1 -0.4
v 0.1 -0.1 0.2
v 0.1 -0.1 0.1
v 0.1 -0.1 -0.3
v 0.1 -0.1 -0.4
v 0 -0.1 0.3
v 0 -0.1 0.2
v 0 -0.1 -0.4
v 1 0 0.4
v 1 0 0.3
v 1 0 0.1
v 1 0 0
v 1 0 -0.3
v 1 0 -0.4
v 0.9 0 0.4
v 0.9 0 0.3
v 0.9 0 0.1
v 0.9 0 0
v 0.9 0 -0.2
v 0.9 0 -0.3
v 0.9 0 -0.4
v 0.8 0 0.3
v 0.8 0 0.1
v 0.8 0 0
v 0.8 0 -0.2
v 0.8 0 -0.3
v 0.7 0 0.3
v 0.7 0 0
v 0.7 0 -0.2
v 0.7 0 -0.3
v 0.6 0 0.3
v 0.6 0 0
v 0.5 0 -0.1
v 0.5 0 -0.2
v 0.4 0 0.3
v 0.4 0 0
v 0.3 0 0.3
v 0.3 0 0
v 0.3 0 -0.1
v 0.2 0 0.3
v 0.2 0 0.1
v 0.2 0 0
v 0.2 0 -0.1
v 0.1 0 0.3
v 0.1 0 0.1
v 0.1 0 0
v 0.1 0 -0.1
v 0.9 0.1 -0.3
v 0.9 0.1 -0.4
v 0.7 0.1 -0.2
v 0.7 0.1 -0.3
v 0.7 0.1 -0.4
v 0.5 0.1 -0.1
v 0.5 0.1 -0.2
v 0.5 0.1 -0.3
v 0.5 0.1 -0.4
v 0.4 0.1 -0.3
v 0.4 0.1 -0.4
v 0.3 0.1 -0.2
v 0.3 0.1 -0.4
v 0.2 0.1 -0.1
v 0.2 0.1 -0.3
v 0.1 0.1 0.3
v 0.1 0.1 0.1
v 0.1 0.1 0
v 0.1 0.1 -0.1
v 0.1 0.1 -0.3
v 0.1 0.1 -0.4
v 0 0.1 0.3
v 0 0.1 0.1
v 0 0.1 0
v 0 0.1 -0.3
v 0 0.1 -0.4

# faces
f 3/3/1 2/3/1 1/3/1
f 4/3/1 2/3/1 3/3/1
f 13/3/1 6/3/1 5/3/1
f 14/1/1 7/1/1 6/1/1
f 14/3/1 6/3/1 13/3/1
f 15/3/1 8/3/1 7/3/1
f 15/1/1 7/1/1 14/1/1
f 16/2/1 9/2/1 8/2/1
f 16/3/1 8/3/1 15/3/1
f 17/3/1 10/3/1 9/3/1
f 17/2/1 9/2/1 16/2/1
f 18/1/1 11/1/1 10/1/1
f 18/3/1 10/3/1 17/3/1
f 19/3/1 12/3/1 11/3/1
f 19/1/1 11/1/1 18/1/1
f 20/3/1 12/3/1 19/3/1
f 21/3/1 12/3/1 20/3/1
f 22/2/1 21/2/1 20/2/1
f 23/2/1 21/2/1 22/2/1
f 28/2/1 25/2/1 24/2/1
f 28/2/1 26/2/1 25/2/1
f 29/3/1 27/3/1 26/3/1
f 29/2/1 26/2/1 28/2/1
f 30/3/1 27/3/1 29/3/1
f 33/2/1 32/2/1 31/2/1
f 34/2/1 32/2/1 33/2/1
f 38/2/1 36/2/1 35/2/1
f 38/2/1 37/2/1 36/2/1
f 39/2/1 37/2/1 38/2/1
f 40/3/2 41/3/2 49/3/2
f 41/2/2 42/2/2 50/2/2
f 49/3/2 41/3/2 50/3/2
f 42/3/2 43/3/2 51/3/2
f 43/1/2 44/1/2 51/1/2
f 44/3/2 45/3/2 52/3/2
f 51/1/2 44/1/2 52/1/2
f 45/2/2 46/2/2 53/2/2
f 52/3/2 45/3/2 53/3/2
f 53/2/2 46/2/2 54/2/2
f 46/3/2 47/3/2 55/3/2
f 54/2/2 46/2/2 55/2/2
f 47/1/2 48/1/2 56/1/2
f 55/3/2 47/3/2 56/3/2
f 56/1/2 48/1/2 57/1/2
f 50/2/2 42/2/2 58/2/2
f 42/3/2 51/3/2 59/3/2
f 58/2/2 42/2/2 59/2/2
f 51/3/2 52/3/2 59/3/2
f 52/1/2 53/1/2 60/1/2
f 59/3/2 52/3/2 60/3/2
f 53/3/2 54/3/2 61/3/2
f 60/1/2 53/1/2 61/1/2
f 54/2/2 55/2/2 62/2/2
f 61/3/2 54/3/2 62/3/2
f 55/2/2 56/2/2 62/2/2
f 56/3/2 57/3/2 63/3/2
f 62/2/2 56/2/2 63/2/2
f 63/3/2 57/3/2 64/3/2
f 67/3/3 66/3/3 65/3/3
f 68/3/3 66/3/3 67/3/3
f 69/2/3 68/2/3 67/2/3
f 70/2/3 68/2/3 69/2/3
f 71/3/3 70/3/3 69/3/3
f 72/3/3 70/3/3 71/3/3
f 73/1/3 72/1/3 71/1/3
f 74/1/3 72/1/3 73/1/3
f 75/3/3 74/3/3 73/3/3
f 76/3/3 74/3/3 75/3/3
f 79/2/3 78/2/3 77/2/3
f 80/2/3 78/2/3 79/2/3
f 83/2/3 82/2/3 81/2/3
f 84/2/3 82/2/3 83/2/3
f 87/2/3 86/2/3 85/2/3
f 88/2/3 86/2/3 87/2/3
f 91/2/3 90/2/3 89/2/3
f 92/2/3 90/2/3 91/2/3
f 93/3/3 92/3/3 91/3/3
f 94/3/3 92/3/3 93/3/3
f 95/1/3 94/1/3 93/1/3
f 96/1/3 94/1/3 95/1/3
f 97/3/4 98/3/4 99/3/4
f 99/3/4 98/3/4 100/3/4
f 101/3/4 102/3/4 104/3/4
f 102/2/4 103/2/4 105/2/4
f 104/3/4 102/3/4 105/3/4
f 104/1/4 105/1/4 106/1/4
f 105/2/4 103/2/4 106/2/4
f 106/2/4 103/2/4 107/2/4
f 104/1/4 106/1/4 108/1/4
f 106/3/4 107/3/4 108/3/4
f 108/3/4 107/3/4 109/3/4
f 104/1/4 108/1/4 110/1/4
f 108/1/4 109/1/4 110/1/4
f 110/1/4 109/1/4 111/1/4
f 104/1/4 110/1/4 112/1/4
f 110/3/4 111/3/4 113/3/4
f 112/1/4 110/1/4 113/1/4
f 113/3/4 111/3/4 114/3/4
f 121/3/5 116/3/5 115/3/5
f 122/2/5 117/2/5 116/2/5
f 122/3/5 116/3/5 121/3/5
f 123/3/5 118/3/5 117/3/5
f 123/2/5 117/2/5 122/2/5
f 124/1/5 119/1/5 118/1/5
f 124/3/5 118/3/5 123/3/5
f 125/1/5 119/1/5 124/1/5
f 126/3/5 120/3/5 119/3/5
f 126/1/5 119/1/5 125/1/5
f 127/3/5 120/3/5 126/3/5
f 128/3/5 123/3/5 122/3/5
f 129/1/5 125/1/5 124/1/5
f 129/3/5 123/3/5 128/3/5
f 129/1/5 124/1/5 123/1/5
f 130/1/5 125/1/5 129/1/5
f 131/3/5 126/3/5 125/3/5
f 131/1/5 125/1/5 130/1/5
f 132/2/5 127/2/5 126/2/5
f 132/3/5 126/3/5 131/3/5
f 133/1/5 130/1/5 129/1/5
f 133/1/5 129/1/5 128/1/5
f 134/3/5 131/3/5 130/3/5
f 134/1/5 130/1/5 133/1/5
f 135/2/5 132/2/5 131/2/5
f 135/3/5 131/3/5 134/3/5
f 136/2/5 127/2/5 132/2/5
f 136/2/5 132/2/5 135/2/5
f 137/3/5 134/3/5 133/3/5
f 138/2/5 135/2/5 134/2/5
f 138/3/5 134/3/5 137/3/5
f 139/3/5 136/3/5 135/3/5
f 140/3/5 136/3/5 139/3/5
f 141/2/5 135/2/5 138/2/5
f 141/2/5 138/2/5 137/2/5
f 141/3/5 139/3/5 135/3/5
f 142/1/5 140/1/5 139/1/5
f 142/3/5 139/3/5 141/3/5
f 143/1/5 140/1/5 142/1/5
f 144/2/5 141/2/5 137/2/5
f 144/2/5 142/2/5 141/2/5
f 145/2/5 142/2/5 144/2/5
f 146/2/5 142/2/5 145/2/5
f 147/2/5 142/2/5 146/2/5
f 148/3/5 143/3/5 142/3/5
f 148/2/5 142/2/5 147/2/5
f 149/3/5 143/3/5 148/3/5
f 150/3/5 145/3/5 144/3/5
f 151/2/5 146/2/5 145/2/5
f 151/3/5 145/3/5 150/3/5
f 152/3/5 147/3/5 146/3/5
f 152/2/5 146/2/5 151/2/5
f 153/2/5 148/2/5 147/2/5
f 153/3/5 147/3/5 152/3/5
f 153/2/5 149/2/5 148/2/5
f 154/2/5 149/2/5 153/2/5
f 155/1/5 151/1/5 150/1/5
f 156/1/5 151/1/5 155/1/5
f 157/3/5 152/3/5 151/3/5
f 157/1/5 151/1/5 156/1/5
f 158/1/5 153/1/5 152/1/5
f 158/3/5 152/3/5 157/3/5
f 159/3/5 154/3/5 153/3/5
f 159/1/5 153/1/5 158/1/5
f 160/2/5 149/2/5 154/2/5
f 160/3/5 154/3/5 159/3/5
f 161/2/5 149/2/5 160/2/5
f 162/3/5 156/3/5 155/3/5
f 163/1/5 159/1/5 158/1/5
f 163/3/5 156/3/5 162/3/5
f 163/1/5 157/1/5 156/1/5
f 163/1/5 158/1/5 157/1/5
f 163/1/5 160/1/5 159/1/5
f 164/3/5 161/3/5 160/3/5
f 164/1/5 160/1/5 163/1/5
f 165/3/5 161/3/5 164/3/5
f 166/3/5 162/3/5 155/3/5
f 167/1/5 163/1/5 162/1/5
f 167/3/5 162/3/5 166/3/5
f 167/1/5 164/1/5 163/1/5
f 167/1/5 165/1/5 164/1/5
f 168/1/5 165/1/5 167/1/5
f 169/3/6 170/3/6 175/3/6
f 170/2/6 171/2/6 176/2/6
f 175/3/6 170/3/6 176/3/6
f 171/3/6 172/3/6 177/3/6
f 176/2/6 171/2/6 177/2/6
f 172/1/6 173/1/6 178/1/6
f 177/3/6 172/3/6 178/3/6
f 178/1/6 173/1/6 179/1/6
f 173/3/6 174/3/6 180/3/6
f 179/1/6 173/1/6 180/1/6
f 180/3/6 174/3/6 181/3/6
f 176/3/6 177/3/6 182/3/6
f 178/1/6 179/1/6 183/1/6
f 182/3/6 177/3/6 183/3/6
f 177/1/6 178/1/6 183/1/6
f 183/1/6 179/1/6 184/1/6
f 179/3/6 180/3/6 185/3/6
f 184/1/6 179/1/6 185/1/6
f 185/3/6 180/3/6 186/3/6
f 183/1/6 184/1/6 187/1/6
f 182/1/6 183/1/6 187/1/6
f 184/3/6 185/3/6 188/3/6
f 187/1/6 184/1/6 188/1/6
f 185/2/6 186/2/6 189/2/6
f 188/3/6 185/3/6 189/3/6
f 189/2/6 186/2/6 190/2/6
f 187/3/6 188/3/6 191/3/6
f 188/2/6 189/2/6 192/2/6
f 191/3/6 188/3/6 192/3/6
f 191/2/6 192/2/6 193/2/6
f 192/2/6 189/2/6 193/2/6
f 193/2/6 189/2/6 194/2/6
f 191/2/6 193/2/6 195/2/6
f 195/2/6 193/2/6 196/2/6
f 195/3/6 196/3/6 197/3/6
f 196/2/6 193/2/6 198/2/6
f 197/3/6 196/3/6 198/3/6
f 198/2/6 193/2/6 199/2/6
f 197/1/6 198/1/6 200/1/6
f 200/1/6 198/1/6 201/1/6
f 198/3/6 199/3/6 202/3/6
f 201/1/6 198/1/6 202/1/6
f 202/3/6 199/3/6 203/3/6
f 200/3/6 201/3/6 204/3/6
f 201/1/6 202/1/6 205/1/6
f 204/3/6 201/3/6 205/3/6
f 202/1/6 203/1/6 205/1/6
f 205/1/6 203/1/6 206/1/6
f 206/1/6 203/1/6 207/1/6
f 208/2/6 209/2/6 211/2/6
f 211/2/6 209/2/6 212/2/6
f 210/2/6 211/2/6 214/2/6
f 211/3/6 212/3/6 215/3/6
f 214/2/6 211/2/6 215/2/6
f 215/3/6 212/3/6 216/3/6
f 214/3/6 215/3/6 217/3/6
f 215/1/6 216/1/6 217/1/6
f 217/1/6 216/1/6 218/1/6
f 213/2/6 214/2/6 219/2/6
f 214/3/6 217/3/6 219/3/6
f 217/3/6 218/3/6 219/3/6
f 219/3/6 218/3/6 220/3/6
f 213/2/6 219/2/6 221/2/6
f 219/2/6 220/2/6 221/2/6
f 221/2/6 220/2/6 222/2/6
f 221/3/6 222/3/6 226/3/6
f 222/2/6 220/2/6 227/2/6
f 226/3/6 222/3/6 227/3/6
f 227/2/6 220/2/6 228/2/6
f 223/2/6 224/2/6 229/2/6
f 224/3/6 225/3/6 230/3/6
f 229/2/6 224/2/6 230/2/6
f 225/1/6 226/1/6 231/1/6
f 230/3/6 225/3/6 231/3/6
f 226/1/6 227/1/6 231/1/6
f 227/3/6 228/3/6 232/3/6
f 231/1/6 227/1/6 232/1/6
f 232/3/6 228/3/6 233/3/6
