# MagicaVoxel @ Ephtracy

# group
o 

# material
mtllib short_wing_blue.mtl
usemtl palette

# normals
vn 0 0 1
vn 0 0 -1
vn 1 0 0
vn -1 0 0
vn 0 -1 0
vn 0 1 0

# texcoords
vt 0.0253906 0.5
vt 0.0878906 0.5
vt 0.103516 0.5
vt 0.119141 0.5
vt 0.126953 0.5
vt 0.138672 0.5
vt 0.169922 0.5
vt 0.177734 0.5
vt 0.189453 0.5
vt 0.205078 0.5
vt 0.216797 0.5
vt 0.220703 0.5
vt 0.240234 0.5
vt 0.251953 0.5
vt 0.287109 0.5
vt 0.314453 0.5
vt 0.341797 0.5
vt 0.408203 0.5
vt 0.416016 0.5
vt 0.443359 0.5
vt 0.490234 0.5
vt 0.525391 0.5
vt 0.529297 0.5
vt 0.541016 0.5
vt 0.572266 0.5
vt 0.576172 0.5
vt 0.599609 0.5
vt 0.615234 0.5
vt 0.619141 0.5
vt 0.658203 0.5
vt 0.669922 0.5
vt 0.673828 0.5
vt 0.705078 0.5
vt 0.736328 0.5
vt 0.740234 0.5
vt 0.744141 0.5
vt 0.841797 0.5
vt 0.849609 0.5
vt 0.861328 0.5
vt 0.865234 0.5
vt 0.880859 0.5
vt 0.896484 0.5
vt 0.912109 0.5
vt 0.919922 0.5
vt 0.923828 0.5
vt 0.939453 0.5
vt 0.943359 0.5
vt 0.951172 0.5
vt 0.955078 0.5
vt 0.962891 0.5
vt 0.986328 0.5

# verts
v 0.6 -0.1 0.4
v 0.5 -0.1 0.4
v 0.6 0 0.4
v 0.5 0 0.4
v 0.5 -0.1 0.3
v 0.4 -0.1 0.3
v 0.3 -0.1 0.3
v 0.2 -0.1 0.3
v 0.1 -0.1 0.3
v 5.96046e-08 -0.1 0.3
v 0.5 0 0.3
v 0.4 0 0.3
v 0.3 0 0.3
v 0.2 0 0.3
v 0.1 0 0.3
v 5.96046e-08 0 0.3
v 0.1 0.1 0.3
v 5.96046e-08 0.1 0.3
v 0.3 0 -0.2
v 0.2 0 -0.2
v 0.1 0 -0.2
v 0.3 0.1 -0.2
v 0.2 0.1 -0.2
v 0.1 0.1 -0.2
v 0.5 0 -0.3
v 0.4 0 -0.3
v 0.3 0 -0.3
v 0.5 0.1 -0.3
v 0.4 0.1 -0.3
v 0.3 0.1 -0.3
v 0.6 -0.1 -0.4
v 0.5 -0.1 -0.4
v 0.4 -0.1 -0.4
v 0.3 -0.1 -0.4
v 0.2 -0.1 -0.4
v 0.1 -0.1 -0.4
v 5.96046e-08 -0.1 -0.4
v 0.6 0 -0.4
v 0.5 0 -0.4
v 0.4 0 -0.4
v 0.3 0 -0.4
v 0.2 0 -0.4
v 0.1 0 -0.4
v 5.96046e-08 0 -0.4
v 0.5 0.1 -0.4
v 0.4 0.1 -0.4
v 0.3 0.1 -0.4
v 0.2 0.1 -0.4
v 0.1 0.1 -0.4
v 5.96046e-08 0.1 -0.4
v 0.6 -0.1 0.4
v 0.6 0 0.4
v 0.6 -0.1 0.3
v 0.6 0 0.3
v 0.6 -0.1 0.2
v 0.6 0 0.2
v 0.6 -0.1 0.1
v 0.6 0 0.1
v 0.6 -0.1 0
v 0.6 0 0
v 0.6 -0.1 -0.1
v 0.6 0 -0.1
v 0.6 -0.1 -0.2
v 0.6 0 -0.2
v 0.6 -0.1 -0.3
v 0.6 0 -0.3
v 0.6 -0.1 -0.4
v 0.6 0 -0.4
v 0.5 0 -0.3
v 0.5 0.1 -0.3
v 0.5 0 -0.4
v 0.5 0.1 -0.4
v 0.3 0 -0.2
v 0.3 0.1 -0.2
v 0.3 0 -0.3
v 0.3 0.1 -0.3
v 0.1 0 0.3
v 0.1 0.1 0.3
v 0.1 0 0.2
v 0.1 0.1 0.2
v 0.1 0 0.1
v 0.1 0.1 0.1
v 0.1 0 0
v 0.1 0.1 0
v 0.1 0 -0.1
v 0.1 0.1 -0.1
v 0.1 0 -0.2
v 0.1 0.1 -0.2
v 0.5 -0.1 0.4
v 0.5 0 0.4
v 0.5 -0.1 0.3
v 0.5 0 0.3
v 5.96046e-08 -0.1 0.3
v 5.96046e-08 0 0.3
v 5.96046e-08 0.1 0.3
v 5.96046e-08 -0.1 0.2
v 5.96046e-08 0 0.2
v 5.96046e-08 0.1 0.2
v 5.96046e-08 -0.1 0.1
v 5.96046e-08 0 0.1
v 5.96046e-08 0.1 0.1
v 5.96046e-08 -0.1 0
v 5.96046e-08 0 0
v 5.96046e-08 0.1 0
v 5.96046e-08 -0.1 -0.1
v 5.96046e-08 0 -0.1
v 5.96046e-08 0.1 -0.1
v 5.96046e-08 -0.1 -0.2
v 5.96046e-08 0 -0.2
v 5.96046e-08 0.1 -0.2
v 5.96046e-08 -0.1 -0.3
v 5.96046e-08 0 -0.3
v 5.96046e-08 0.1 -0.3
v 5.96046e-08 -0.1 -0.4
v 5.96046e-08 0 -0.4
v 5.96046e-08 0.1 -0.4
v 0.6 -0.1 0.4
v 0.6 -0.1 0.3
v 0.6 -0.1 0.2
v 0.6 -0.1 0.1
v 0.6 -0.1 0
v 0.6 -0.1 -0.1
v 0.6 -0.1 -0.2
v 0.6 -0.1 -0.3
v 0.6 -0.1 -0.4
v 0.5 -0.1 0.4
v 0.5 -0.1 0.3
v 0.5 -0.1 0.2
v 0.5 -0.1 0.1
v 0.5 -0.1 0
v 0.5 -0.1 -0.1
v 0.5 -0.1 -0.2
v 0.5 -0.1 -0.3
v 0.5 -0.1 -0.4
v 0.4 -0.1 0.3
v 0.4 -0.1 0.2
v 0.4 -0.1 0.1
v 0.4 -0.1 0
v 0.4 -0.1 -0.1
v 0.4 -0.1 -0.2
v 0.4 -0.1 -0.3
v 0.4 -0.1 -0.4
v 0.3 -0.1 0.3
v 0.3 -0.1 0.2
v 0.3 -0.1 0.1
v 0.3 -0.1 0
v 0.3 -0.1 -0.1
v 0.3 -0.1 -0.2
v 0.3 -0.1 -0.3
v 0.3 -0.1 -0.4
v 0.2 -0.1 0.3
v 0.2 -0.1 0.2
v 0.2 -0.1 0.1
v 0.2 -0.1 0
v 0.2 -0.1 -0.1
v 0.2 -0.1 -0.2
v 0.2 -0.1 -0.3
v 0.2 -0.1 -0.4
v 0.1 -0.1 0.3
v 0.1 -0.1 0.2
v 0.1 -0.1 0.1
v 0.1 -0.1 0
v 0.1 -0.1 -0.1
v 0.1 -0.1 -0.2
v 0.1 -0.1 -0.3
v 0.1 -0.1 -0.4
v 5.96046e-08 -0.1 0.3
v 5.96046e-08 -0.1 0.2
v 5.96046e-08 -0.1 0.1
v 5.96046e-08 -0.1 0
v 5.96046e-08 -0.1 -0.1
v 5.96046e-08 -0.1 -0.2
v 5.96046e-08 -0.1 -0.3
v 5.96046e-08 -0.1 -0.4
v 0.6 0 0.4
v 0.6 0 0.3
v 0.6 0 0.2
v 0.6 0 0.1
v 0.6 0 0
v 0.6 0 -0.1
v 0.6 0 -0.2
v 0.6 0 -0.3
v 0.6 0 -0.4
v 0.5 0 0.4
v 0.5 0 0.3
v 0.5 0 0.2
v 0.5 0 0.1
v 0.5 0 0
v 0.5 0 -0.1
v 0.5 0 -0.2
v 0.5 0 -0.3
v 0.5 0 -0.4
v 0.4 0 0.3
v 0.4 0 0.2
v 0.4 0 0.1
v 0.4 0 0
v 0.4 0 -0.1
v 0.4 0 -0.2
v 0.4 0 -0.3
v 0.3 0 0.3
v 0.3 0 0.2
v 0.3 0 0.1
v 0.3 0 0
v 0.3 0 -0.1
v 0.3 0 -0.2
v 0.3 0 -0.3
v 0.2 0 0.3
v 0.2 0 0.2
v 0.2 0 0.1
v 0.2 0 0
v 0.2 0 -0.1
v 0.2 0 -0.2
v 0.1 0 0.3
v 0.1 0 0.2
v 0.1 0 0.1
v 0.1 0 0
v 0.1 0 -0.1
v 0.1 0 -0.2
v 0.5 0.1 -0.3
v 0.5 0.1 -0.4
v 0.4 0.1 -0.3
v 0.4 0.1 -0.4
v 0.3 0.1 -0.2
v 0.3 0.1 -0.3
v 0.3 0.1 -0.4
v 0.2 0.1 -0.2
v 0.2 0.1 -0.3
v 0.2 0.1 -0.4
v 0.1 0.1 0.3
v 0.1 0.1 0.2
v 0.1 0.1 0.1
v 0.1 0.1 0
v 0.1 0.1 -0.1
v 0.1 0.1 -0.2
v 0.1 0.1 -0.3
v 0.1 0.1 -0.4
v 5.96046e-08 0.1 0.3
v 5.96046e-08 0.1 0.2
v 5.96046e-08 0.1 0.1
v 5.96046e-08 0.1 0
v 5.96046e-08 0.1 -0.1
v 5.96046e-08 0.1 -0.2
v 5.96046e-08 0.1 -0.3
v 5.96046e-08 0.1 -0.4

# faces
f 3/30/1 2/30/1 1/30/1
f 4/30/1 2/30/1 3/30/1
f 11/26/1 6/26/1 5/26/1
f 12/37/1 7/37/1 6/37/1
f 12/26/1 6/26/1 11/26/1
f 13/15/1 8/15/1 7/15/1
f 13/37/1 7/37/1 12/37/1
f 14/38/1 9/38/1 8/38/1
f 14/15/1 8/15/1 13/15/1
f 15/9/1 10/9/1 9/9/1
f 15/38/1 9/38/1 14/38/1
f 16/9/1 10/9/1 15/9/1
f 17/7/1 16/7/1 15/7/1
f 18/7/1 16/7/1 17/7/1
f 22/17/1 20/17/1 19/17/1
f 23/27/1 21/27/1 20/27/1
f 23/17/1 20/17/1 22/17/1
f 24/27/1 21/27/1 23/27/1
f 28/4/1 26/4/1 25/4/1
f 29/5/1 27/5/1 26/5/1
f 29/4/1 26/4/1 28/4/1
f 30/5/1 27/5/1 29/5/1
f 31/21/2 32/21/2 38/21/2
f 32/42/2 33/42/2 39/42/2
f 38/21/2 32/21/2 39/21/2
f 33/50/2 34/50/2 40/50/2
f 39/42/2 33/42/2 40/42/2
f 34/13/2 35/13/2 41/13/2
f 40/50/2 34/50/2 41/50/2
f 35/35/2 36/35/2 42/35/2
f 41/13/2 35/13/2 42/13/2
f 36/27/2 37/27/2 43/27/2
f 42/35/2 36/35/2 43/35/2
f 43/27/2 37/27/2 44/27/2
f 39/4/2 40/4/2 45/4/2
f 40/5/2 41/5/2 46/5/2
f 45/4/2 40/4/2 46/4/2
f 41/24/2 42/24/2 47/24/2
f 46/5/2 41/5/2 47/5/2
f 42/33/2 43/33/2 48/33/2
f 47/24/2 42/24/2 48/24/2
f 43/31/2 44/31/2 49/31/2
f 48/33/2 43/33/2 49/33/2
f 49/31/2 44/31/2 50/31/2
f 53/30/3 52/30/3 51/30/3
f 54/30/3 52/30/3 53/30/3
f 55/48/3 54/48/3 53/48/3
f 56/48/3 54/48/3 55/48/3
f 57/24/3 56/24/3 55/24/3
f 58/24/3 56/24/3 57/24/3
f 59/2/3 58/2/3 57/2/3
f 60/2/3 58/2/3 59/2/3
f 61/32/3 60/32/3 59/32/3
f 62/32/3 60/32/3 61/32/3
f 63/46/3 62/46/3 61/46/3
f 64/46/3 62/46/3 63/46/3
f 65/29/3 64/29/3 63/29/3
f 66/29/3 64/29/3 65/29/3
f 67/21/3 66/21/3 65/21/3
f 68/21/3 66/21/3 67/21/3
f 71/4/3 70/4/3 69/4/3
f 72/4/3 70/4/3 71/4/3
f 75/17/3 74/17/3 73/17/3
f 76/17/3 74/17/3 75/17/3
f 79/7/3 78/7/3 77/7/3
f 80/7/3 78/7/3 79/7/3
f 81/2/3 80/2/3 79/2/3
f 82/2/3 80/2/3 81/2/3
f 83/22/3 82/22/3 81/22/3
f 84/22/3 82/22/3 83/22/3
f 85/18/3 84/18/3 83/18/3
f 86/18/3 84/18/3 85/18/3
f 87/39/3 86/39/3 85/39/3
f 88/39/3 86/39/3 87/39/3
f 89/30/4 90/30/4 91/30/4
f 91/30/4 90/30/4 92/30/4
f 93/9/4 94/9/4 96/9/4
f 94/7/4 95/7/4 97/7/4
f 96/9/4 94/9/4 97/9/4
f 97/7/4 95/7/4 98/7/4
f 96/6/4 97/6/4 99/6/4
f 97/2/4 98/2/4 100/2/4
f 99/6/4 97/6/4 100/6/4
f 100/2/4 98/2/4 101/2/4
f 99/16/4 100/16/4 102/16/4
f 100/22/4 101/22/4 103/22/4
f 102/16/4 100/16/4 103/16/4
f 103/22/4 101/22/4 104/22/4
f 102/23/4 103/23/4 105/23/4
f 103/18/4 104/18/4 106/18/4
f 105/23/4 103/23/4 106/23/4
f 106/18/4 104/18/4 107/18/4
f 105/36/4 106/36/4 108/36/4
f 106/39/4 107/39/4 109/39/4
f 108/36/4 106/36/4 109/36/4
f 109/39/4 107/39/4 110/39/4
f 108/14/4 109/14/4 111/14/4
f 109/1/4 110/1/4 112/1/4
f 111/14/4 109/14/4 112/14/4
f 112/1/4 110/1/4 113/1/4
f 111/27/4 112/27/4 114/27/4
f 112/31/4 113/31/4 115/31/4
f 114/27/4 112/27/4 115/27/4
f 115/31/4 113/31/4 116/31/4
f 126/30/5 118/30/5 117/30/5
f 127/48/5 119/48/5 118/48/5
f 127/30/5 118/30/5 126/30/5
f 128/24/5 120/24/5 119/24/5
f 128/48/5 119/48/5 127/48/5
f 129/2/5 121/2/5 120/2/5
f 129/24/5 120/24/5 128/24/5
f 130/32/5 122/32/5 121/32/5
f 130/2/5 121/2/5 129/2/5
f 131/46/5 123/46/5 122/46/5
f 131/32/5 122/32/5 130/32/5
f 132/29/5 124/29/5 123/29/5
f 132/46/5 123/46/5 131/46/5
f 133/21/5 125/21/5 124/21/5
f 133/29/5 124/29/5 132/29/5
f 134/21/5 125/21/5 133/21/5
f 135/26/5 128/26/5 127/26/5
f 136/49/5 129/49/5 128/49/5
f 136/26/5 128/26/5 135/26/5
f 137/20/5 130/20/5 129/20/5
f 137/49/5 129/49/5 136/49/5
f 138/28/5 131/28/5 130/28/5
f 138/20/5 130/20/5 137/20/5
f 139/41/5 132/41/5 131/41/5
f 139/28/5 131/28/5 138/28/5
f 140/19/5 133/19/5 132/19/5
f 140/41/5 132/41/5 139/41/5
f 141/42/5 134/42/5 133/42/5
f 141/19/5 133/19/5 140/19/5
f 142/42/5 134/42/5 141/42/5
f 143/37/5 136/37/5 135/37/5
f 144/8/5 137/8/5 136/8/5
f 144/37/5 136/37/5 143/37/5
f 145/51/5 138/51/5 137/51/5
f 145/8/5 137/8/5 144/8/5
f 146/3/5 139/3/5 138/3/5
f 146/51/5 138/51/5 145/51/5
f 147/47/5 140/47/5 139/47/5
f 147/3/5 139/3/5 146/3/5
f 148/10/5 141/10/5 140/10/5
f 148/47/5 140/47/5 147/47/5
f 149/50/5 142/50/5 141/50/5
f 149/10/5 141/10/5 148/10/5
f 150/50/5 142/50/5 149/50/5
f 151/15/5 144/15/5 143/15/5
f 152/44/5 145/44/5 144/44/5
f 152/15/5 144/15/5 151/15/5
f 153/12/5 146/12/5 145/12/5
f 153/44/5 145/44/5 152/44/5
f 154/25/5 147/25/5 146/25/5
f 154/12/5 146/12/5 153/12/5
f 155/43/5 148/43/5 147/43/5
f 155/25/5 147/25/5 154/25/5
f 156/21/5 149/21/5 148/21/5
f 156/43/5 148/43/5 155/43/5
f 157/13/5 150/13/5 149/13/5
f 157/21/5 149/21/5 156/21/5
f 158/13/5 150/13/5 157/13/5
f 159/38/5 152/38/5 151/38/5
f 160/34/5 153/34/5 152/34/5
f 160/38/5 152/38/5 159/38/5
f 161/45/5 154/45/5 153/45/5
f 161/34/5 153/34/5 160/34/5
f 162/11/5 155/11/5 154/11/5
f 162/45/5 154/45/5 161/45/5
f 163/40/5 156/40/5 155/40/5
f 163/11/5 155/11/5 162/11/5
f 164/23/5 157/23/5 156/23/5
f 164/40/5 156/40/5 163/40/5
f 165/35/5 158/35/5 157/35/5
f 165/23/5 157/23/5 164/23/5
f 166/35/5 158/35/5 165/35/5
f 167/9/5 160/9/5 159/9/5
f 168/6/5 161/6/5 160/6/5
f 168/9/5 160/9/5 167/9/5
f 169/16/5 162/16/5 161/16/5
f 169/6/5 161/6/5 168/6/5
f 170/23/5 163/23/5 162/23/5
f 170/16/5 162/16/5 169/16/5
f 171/36/5 164/36/5 163/36/5
f 171/23/5 163/23/5 170/23/5
f 172/14/5 165/14/5 164/14/5
f 172/36/5 164/36/5 171/36/5
f 173/27/5 166/27/5 165/27/5
f 173/14/5 165/14/5 172/14/5
f 174/27/5 166/27/5 173/27/5
f 175/30/6 176/30/6 184/30/6
f 176/48/6 177/48/6 185/48/6
f 184/30/6 176/30/6 185/30/6
f 177/24/6 178/24/6 186/24/6
f 185/48/6 177/48/6 186/48/6
f 178/2/6 179/2/6 187/2/6
f 186/24/6 178/24/6 187/24/6
f 179/32/6 180/32/6 188/32/6
f 187/2/6 179/2/6 188/2/6
f 180/46/6 181/46/6 189/46/6
f 188/32/6 180/32/6 189/32/6
f 181/29/6 182/29/6 190/29/6
f 189/46/6 181/46/6 190/46/6
f 182/21/6 183/21/6 191/21/6
f 190/29/6 182/29/6 191/29/6
f 191/21/6 183/21/6 192/21/6
f 185/26/6 186/26/6 193/26/6
f 186/49/6 187/49/6 194/49/6
f 193/26/6 186/26/6 194/26/6
f 187/20/6 188/20/6 195/20/6
f 194/49/6 187/49/6 195/49/6
f 188/28/6 189/28/6 196/28/6
f 195/20/6 188/20/6 196/20/6
f 189/41/6 190/41/6 197/41/6
f 196/28/6 189/28/6 197/28/6
f 190/19/6 191/19/6 198/19/6
f 197/41/6 190/41/6 198/41/6
f 198/19/6 191/19/6 199/19/6
f 193/37/6 194/37/6 200/37/6
f 194/8/6 195/8/6 201/8/6
f 200/37/6 194/37/6 201/37/6
f 195/51/6 196/51/6 202/51/6
f 201/8/6 195/8/6 202/8/6
f 196/3/6 197/3/6 203/3/6
f 202/51/6 196/51/6 203/51/6
f 197/47/6 198/47/6 204/47/6
f 203/3/6 197/3/6 204/3/6
f 198/10/6 199/10/6 205/10/6
f 204/47/6 198/47/6 205/47/6
f 205/10/6 199/10/6 206/10/6
f 200/15/6 201/15/6 207/15/6
f 201/44/6 202/44/6 208/44/6
f 207/15/6 201/15/6 208/15/6
f 202/12/6 203/12/6 209/12/6
f 208/44/6 202/44/6 209/44/6
f 203/25/6 204/25/6 210/25/6
f 209/12/6 203/12/6 210/12/6
f 204/43/6 205/43/6 211/43/6
f 210/25/6 204/25/6 211/25/6
f 211/43/6 205/43/6 212/43/6
f 207/38/6 208/38/6 213/38/6
f 208/34/6 209/34/6 214/34/6
f 213/38/6 208/38/6 214/38/6
f 209/45/6 210/45/6 215/45/6
f 214/34/6 209/34/6 215/34/6
f 210/11/6 211/11/6 216/11/6
f 215/45/6 210/45/6 216/45/6
f 211/40/6 212/40/6 217/40/6
f 216/11/6 211/11/6 217/11/6
f 217/40/6 212/40/6 218/40/6
f 219/4/6 220/4/6 221/4/6
f 221/4/6 220/4/6 222/4/6
f 221/5/6 222/5/6 224/5/6
f 224/5/6 222/5/6 225/5/6
f 223/17/6 224/17/6 226/17/6
f 224/24/6 225/24/6 227/24/6
f 226/17/6 224/17/6 227/17/6
f 227/24/6 225/24/6 228/24/6
f 226/27/6 227/27/6 234/27/6
f 227/33/6 228/33/6 235/33/6
f 234/27/6 227/27/6 235/27/6
f 235/33/6 228/33/6 236/33/6
f 229/7/6 230/7/6 237/7/6
f 230/2/6 231/2/6 238/2/6
f 237/7/6 230/7/6 238/7/6
f 231/22/6 232/22/6 239/22/6
f 238/2/6 231/2/6 239/2/6
f 232/18/6 233/18/6 240/18/6
f 239/22/6 232/22/6 240/22/6
f 233/39/6 234/39/6 241/39/6
f 240/18/6 233/18/6 241/18/6
f 234/1/6 235/1/6 242/1/6
f 241/39/6 234/39/6 242/39/6
f 235/31/6 236/31/6 243/31/6
f 242/1/6 235/1/6 243/1/6
f 243/31/6 236/31/6 244/31/6
