# MagicaVoxel @ Ephtracy

# group
o 

# material
mtllib short_wing_red.mtl
usemtl palette

# normals
vn -1 0 0
vn 1 0 0
vn 0 0 1
vn 0 0 -1
vn 0 -1 0
vn 0 1 0

# texcoords
vt 0.0292969 0.5
vt 0.0332031 0.5
vt 0.0410156 0.5
vt 0.0527344 0.5
vt 0.0644531 0.5
vt 0.0800781 0.5
vt 0.107422 0.5
vt 0.115234 0.5
vt 0.158203 0.5
vt 0.162109 0.5
vt 0.181641 0.5
vt 0.197266 0.5
vt 0.228516 0.5
vt 0.240234 0.5
vt 0.251953 0.5
vt 0.255859 0.5
vt 0.326172 0.5
vt 0.330078 0.5
vt 0.349609 0.5
vt 0.353516 0.5
vt 0.416016 0.5
vt 0.431641 0.5
vt 0.462891 0.5
vt 0.474609 0.5
vt 0.478516 0.5
vt 0.498047 0.5
vt 0.521484 0.5
vt 0.541016 0.5
vt 0.560547 0.5
vt 0.564453 0.5
vt 0.580078 0.5
vt 0.611328 0.5
vt 0.634766 0.5
vt 0.650391 0.5
vt 0.673828 0.5
vt 0.677734 0.5
vt 0.681641 0.5
vt 0.708984 0.5
vt 0.716797 0.5
vt 0.767578 0.5
vt 0.787109 0.5
vt 0.802734 0.5
vt 0.806641 0.5
vt 0.884766 0.5
vt 0.892578 0.5
vt 0.923828 0.5
vt 0.927734 0.5
vt 0.943359 0.5
vt 0.966797 0.5
vt 0.974609 0.5
vt 0.986328 0.5

# verts
v 0 -0.1 0.3
v 0 -0.1 0.2
v 0 -0.1 0.1
v 0 -0.1 0
v 0 -0.1 -0.1
v 0 -0.1 -0.2
v 0 -0.1 -0.3
v 0 -0.1 -0.4
v 0 0 0.3
v 0 0 0.2
v 0 0 0.1
v 0 0 0
v 0 0 -0.1
v 0 0 -0.2
v 0 0 -0.3
v 0 0 -0.4
v 0 0.1 0.3
v 0 0.1 0.2
v 0 0.1 0.1
v 0 0.1 0
v 0 0.1 -0.1
v 0 0.1 -0.2
v 0 0.1 -0.3
v 0 0.1 -0.4
v 0.5 -0.1 0.4
v 0.5 -0.1 0.3
v 0.5 0 0.4
v 0.5 0 0.3
v 0.1 0 0.3
v 0.1 0 0.2
v 0.1 0 0.1
v 0.1 0 0
v 0.1 0 -0.1
v 0.1 0 -0.2
v 0.1 0.1 0.3
v 0.1 0.1 0.2
v 0.1 0.1 0.1
v 0.1 0.1 0
v 0.1 0.1 -0.1
v 0.1 0.1 -0.2
v 0.3 0 -0.2
v 0.3 0 -0.3
v 0.3 0.1 -0.2
v 0.3 0.1 -0.3
v 0.5 0 -0.3
v 0.5 0 -0.4
v 0.5 0.1 -0.3
v 0.5 0.1 -0.4
v 0.6 -0.1 0.4
v 0.6 -0.1 0.3
v 0.6 -0.1 0.2
v 0.6 -0.1 0.1
v 0.6 -0.1 0
v 0.6 -0.1 -0.1
v 0.6 -0.1 -0.2
v 0.6 -0.1 -0.3
v 0.6 -0.1 -0.4
v 0.6 0 0.4
v 0.6 0 0.3
v 0.6 0 0.2
v 0.6 0 0.1
v 0.6 0 0
v 0.6 0 -0.1
v 0.6 0 -0.2
v 0.6 0 -0.3
v 0.6 0 -0.4
v 0.5 -0.1 0.4
v 0.5 0 0.4
v 0.6 -0.1 0.4
v 0.6 0 0.4
v 0 -0.1 0.3
v 0 0 0.3
v 0 0.1 0.3
v 0.1 -0.1 0.3
v 0.1 0 0.3
v 0.1 0.1 0.3
v 0.2 -0.1 0.3
v 0.2 0 0.3
v 0.3 -0.1 0.3
v 0.3 0 0.3
v 0.4 -0.1 0.3
v 0.4 0 0.3
v 0.5 -0.1 0.3
v 0.5 0 0.3
v 0.1 0 -0.2
v 0.1 0.1 -0.2
v 0.2 0 -0.2
v 0.2 0.1 -0.2
v 0.3 0 -0.2
v 0.3 0.1 -0.2
v 0.3 0 -0.3
v 0.3 0.1 -0.3
v 0.4 0 -0.3
v 0.4 0.1 -0.3
v 0.5 0 -0.3
v 0.5 0.1 -0.3
v 0 -0.1 -0.4
v 0 0 -0.4
v 0 0.1 -0.4
v 0.1 -0.1 -0.4
v 0.1 0 -0.4
v 0.1 0.1 -0.4
v 0.2 -0.1 -0.4
v 0.2 0 -0.4
v 0.2 0.1 -0.4
v 0.3 -0.1 -0.4
v 0.3 0 -0.4
v 0.3 0.1 -0.4
v 0.4 -0.1 -0.4
v 0.4 0 -0.4
v 0.4 0.1 -0.4
v 0.5 -0.1 -0.4
v 0.5 0 -0.4
v 0.5 0.1 -0.4
v 0.6 -0.1 -0.4
v 0.6 0 -0.4
v 0.5 -0.1 0.4
v 0.6 -0.1 0.4
v 0 -0.1 0.3
v 0.1 -0.1 0.3
v 0.2 -0.1 0.3
v 0.3 -0.1 0.3
v 0.4 -0.1 0.3
v 0.5 -0.1 0.3
v 0.6 -0.1 0.3
v 0 -0.1 0.2
v 0.1 -0.1 0.2
v 0.2 -0.1 0.2
v 0.3 -0.1 0.2
v 0.4 -0.1 0.2
v 0.5 -0.1 0.2
v 0.6 -0.1 0.2
v 0 -0.1 0.1
v 0.1 -0.1 0.1
v 0.2 -0.1 0.1
v 0.3 -0.1 0.1
v 0.4 -0.1 0.1
v 0.5 -0.1 0.1
v 0.6 -0.1 0.1
v 0 -0.1 0
v 0.1 -0.1 0
v 0.2 -0.1 0
v 0.3 -0.1 0
v 0.4 -0.1 0
v 0.5 -0.1 0
v 0.6 -0.1 0
v 0 -0.1 -0.1
v 0.1 -0.1 -0.1
v 0.2 -0.1 -0.1
v 0.3 -0.1 -0.1
v 0.4 -0.1 -0.1
v 0.5 -0.1 -0.1
v 0.6 -0.1 -0.1
v 0 -0.1 -0.2
v 0.1 -0.1 -0.2
v 0.2 -0.1 -0.2
v 0.3 -0.1 -0.2
v 0.4 -0.1 -0.2
v 0.5 -0.1 -0.2
v 0.6 -0.1 -0.2
v 0 -0.1 -0.3
v 0.1 -0.1 -0.3
v 0.2 -0.1 -0.3
v 0.3 -0.1 -0.3
v 0.4 -0.1 -0.3
v 0.5 -0.1 -0.3
v 0.6 -0.1 -0.3
v 0 -0.1 -0.4
v 0.1 -0.1 -0.4
v 0.2 -0.1 -0.4
v 0.3 -0.1 -0.4
v 0.4 -0.1 -0.4
v 0.5 -0.1 -0.4
v 0.6 -0.1 -0.4
v 0.5 0 0.4
v 0.6 0 0.4
v 0.1 0 0.3
v 0.2 0 0.3
v 0.3 0 0.3
v 0.4 0 0.3
v 0.5 0 0.3
v 0.6 0 0.3
v 0.1 0 0.2
v 0.2 0 0.2
v 0.3 0 0.2
v 0.4 0 0.2
v 0.5 0 0.2
v 0.6 0 0.2
v 0.1 0 0.1
v 0.2 0 0.1
v 0.3 0 0.1
v 0.4 0 0.1
v 0.5 0 0.1
v 0.6 0 0.1
v 0.1 0 0
v 0.2 0 0
v 0.3 0 0
v 0.4 0 0
v 0.5 0 0
v 0.6 0 0
v 0.1 0 -0.1
v 0.2 0 -0.1
v 0.3 0 -0.1
v 0.4 0 -0.1
v 0.5 0 -0.1
v 0.6 0 -0.1
v 0.1 0 -0.2
v 0.2 0 -0.2
v 0.3 0 -0.2
v 0.4 0 -0.2
v 0.5 0 -0.2
v 0.6 0 -0.2
v 0.3 0 -0.3
v 0.4 0 -0.3
v 0.5 0 -0.3
v 0.6 0 -0.3
v 0.5 0 -0.4
v 0.6 0 -0.4
v 0 0.1 0.3
v 0.1 0.1 0.3
v 0 0.1 0.2
v 0.1 0.1 0.2
v 0 0.1 0.1
v 0.1 0.1 0.1
v 0 0.1 0
v 0.1 0.1 0
v 0 0.1 -0.1
v 0.1 0.1 -0.1
v 0 0.1 -0.2
v 0.1 0.1 -0.2
v 0.2 0.1 -0.2
v 0.3 0.1 -0.2
v 0 0.1 -0.3
v 0.1 0.1 -0.3
v 0.2 0.1 -0.3
v 0.3 0.1 -0.3
v 0.4 0.1 -0.3
v 0.5 0.1 -0.3
v 0 0.1 -0.4
v 0.1 0.1 -0.4
v 0.2 0.1 -0.4
v 0.3 0.1 -0.4
v 0.4 0.1 -0.4
v 0.5 0.1 -0.4

# faces
f 9/30/1 2/30/1 1/30/1
f 10/23/1 3/23/1 2/23/1
f 10/30/1 2/30/1 9/30/1
f 11/12/1 4/12/1 3/12/1
f 11/23/1 3/23/1 10/23/1
f 12/5/1 5/5/1 4/5/1
f 12/12/1 4/12/1 11/12/1
f 13/24/1 6/24/1 5/24/1
f 13/5/1 5/5/1 12/5/1
f 14/8/1 7/8/1 6/8/1
f 14/24/1 6/24/1 13/24/1
f 15/21/1 8/21/1 7/21/1
f 15/8/1 7/8/1 14/8/1
f 16/21/1 8/21/1 15/21/1
f 17/4/1 10/4/1 9/4/1
f 18/22/1 11/22/1 10/22/1
f 18/4/1 10/4/1 17/4/1
f 19/48/1 12/48/1 11/48/1
f 19/22/1 11/22/1 18/22/1
f 20/9/1 13/9/1 12/9/1
f 20/48/1 12/48/1 19/48/1
f 21/10/1 14/10/1 13/10/1
f 21/9/1 13/9/1 20/9/1
f 22/25/1 15/25/1 14/25/1
f 22/10/1 14/10/1 21/10/1
f 23/14/1 16/14/1 15/14/1
f 23/25/1 15/25/1 22/25/1
f 24/14/1 16/14/1 23/14/1
f 27/40/1 26/40/1 25/40/1
f 28/40/1 26/40/1 27/40/1
f 29/4/2 30/4/2 35/4/2
f 30/22/2 31/22/2 36/22/2
f 35/4/2 30/4/2 36/4/2
f 31/48/2 32/48/2 37/48/2
f 36/22/2 31/22/2 37/22/2
f 32/9/2 33/9/2 38/9/2
f 37/48/2 32/48/2 38/48/2
f 33/10/2 34/10/2 39/10/2
f 38/9/2 33/9/2 39/9/2
f 39/10/2 34/10/2 40/10/2
f 41/15/2 42/15/2 43/15/2
f 43/15/2 42/15/2 44/15/2
f 45/18/2 46/18/2 47/18/2
f 47/18/2 46/18/2 48/18/2
f 49/40/2 50/40/2 58/40/2
f 50/50/2 51/50/2 59/50/2
f 58/40/2 50/40/2 59/40/2
f 51/38/2 52/38/2 60/38/2
f 59/50/2 51/50/2 60/50/2
f 52/42/2 53/42/2 61/42/2
f 60/38/2 52/38/2 61/38/2
f 53/36/2 54/36/2 62/36/2
f 61/42/2 53/42/2 62/42/2
f 54/28/2 55/28/2 63/28/2
f 62/36/2 54/36/2 63/36/2
f 55/3/2 56/3/2 64/3/2
f 63/28/2 55/28/2 64/28/2
f 56/16/2 57/16/2 65/16/2
f 64/3/2 56/3/2 65/3/2
f 65/16/2 57/16/2 66/16/2
f 69/40/3 68/40/3 67/40/3
f 70/40/3 68/40/3 69/40/3
f 74/30/3 72/30/3 71/30/3
f 75/4/3 73/4/3 72/4/3
f 75/30/3 72/30/3 74/30/3
f 76/4/3 73/4/3 75/4/3
f 77/41/3 75/41/3 74/41/3
f 78/41/3 75/41/3 77/41/3
f 79/37/3 78/37/3 77/37/3
f 80/37/3 78/37/3 79/37/3
f 81/31/3 80/31/3 79/31/3
f 82/31/3 80/31/3 81/31/3
f 83/27/3 82/27/3 81/27/3
f 84/27/3 82/27/3 83/27/3
f 87/14/3 86/14/3 85/14/3
f 88/14/3 86/14/3 87/14/3
f 89/15/3 88/15/3 87/15/3
f 90/15/3 88/15/3 89/15/3
f 93/44/3 92/44/3 91/44/3
f 94/44/3 92/44/3 93/44/3
f 95/18/3 94/18/3 93/18/3
f 96/18/3 94/18/3 95/18/3
f 97/21/4 98/21/4 100/21/4
f 98/14/4 99/14/4 101/14/4
f 100/21/4 98/21/4 101/21/4
f 101/14/4 99/14/4 102/14/4
f 100/43/4 101/43/4 103/43/4
f 101/23/4 102/23/4 104/23/4
f 103/43/4 101/43/4 104/43/4
f 104/23/4 102/23/4 105/23/4
f 103/19/4 104/19/4 106/19/4
f 104/2/4 105/2/4 107/2/4
f 106/19/4 104/19/4 107/19/4
f 107/2/4 105/2/4 108/2/4
f 106/49/4 107/49/4 109/49/4
f 107/44/4 108/44/4 110/44/4
f 109/49/4 107/49/4 110/49/4
f 110/44/4 108/44/4 111/44/4
f 109/20/4 110/20/4 112/20/4
f 110/18/4 111/18/4 113/18/4
f 112/20/4 110/20/4 113/20/4
f 113/18/4 111/18/4 114/18/4
f 112/16/4 113/16/4 115/16/4
f 115/16/4 113/16/4 116/16/4
f 124/40/5 118/40/5 117/40/5
f 125/40/5 118/40/5 124/40/5
f 126/30/5 120/30/5 119/30/5
f 127/41/5 121/41/5 120/41/5
f 127/30/5 120/30/5 126/30/5
f 128/37/5 122/37/5 121/37/5
f 128/41/5 121/41/5 127/41/5
f 129/31/5 123/31/5 122/31/5
f 129/37/5 122/37/5 128/37/5
f 130/27/5 124/27/5 123/27/5
f 130/31/5 123/31/5 129/31/5
f 131/50/5 125/50/5 124/50/5
f 131/27/5 124/27/5 130/27/5
f 132/50/5 125/50/5 131/50/5
f 133/23/5 127/23/5 126/23/5
f 134/1/5 128/1/5 127/1/5
f 134/23/5 127/23/5 133/23/5
f 135/51/5 129/51/5 128/51/5
f 135/1/5 128/1/5 134/1/5
f 136/49/5 130/49/5 129/49/5
f 136/51/5 129/51/5 135/51/5
f 137/13/5 131/13/5 130/13/5
f 137/49/5 130/49/5 136/49/5
f 138/38/5 132/38/5 131/38/5
f 138/13/5 131/13/5 137/13/5
f 139/38/5 132/38/5 138/38/5
f 140/12/5 134/12/5 133/12/5
f 141/46/5 135/46/5 134/46/5
f 141/12/5 134/12/5 140/12/5
f 142/26/5 136/26/5 135/26/5
f 142/46/5 135/46/5 141/46/5
f 143/45/5 137/45/5 136/45/5
f 143/26/5 136/26/5 142/26/5
f 144/37/5 138/37/5 137/37/5
f 144/45/5 137/45/5 143/45/5
f 145/42/5 139/42/5 138/42/5
f 145/37/5 138/37/5 144/37/5
f 146/42/5 139/42/5 145/42/5
f 147/5/5 141/5/5 140/5/5
f 148/17/5 142/17/5 141/17/5
f 148/5/5 141/5/5 147/5/5
f 149/47/5 143/47/5 142/47/5
f 149/17/5 142/17/5 148/17/5
f 150/6/5 144/6/5 143/6/5
f 150/47/5 143/47/5 149/47/5
f 151/7/5 145/7/5 144/7/5
f 151/6/5 144/6/5 150/6/5
f 152/36/5 146/36/5 145/36/5
f 152/7/5 145/7/5 151/7/5
f 153/36/5 146/36/5 152/36/5
f 154/24/5 148/24/5 147/24/5
f 155/21/5 149/21/5 148/21/5
f 155/24/5 148/24/5 154/24/5
f 156/11/5 150/11/5 149/11/5
f 156/21/5 149/21/5 155/21/5
f 157/29/5 151/29/5 150/29/5
f 157/11/5 150/11/5 156/11/5
f 158/35/5 152/35/5 151/35/5
f 158/29/5 151/29/5 157/29/5
f 159/28/5 153/28/5 152/28/5
f 159/35/5 152/35/5 158/35/5
f 160/28/5 153/28/5 159/28/5
f 161/8/5 155/8/5 154/8/5
f 162/39/5 156/39/5 155/39/5
f 162/8/5 155/8/5 161/8/5
f 163/34/5 157/34/5 156/34/5
f 163/39/5 156/39/5 162/39/5
f 164/33/5 158/33/5 157/33/5
f 164/34/5 157/34/5 163/34/5
f 165/32/5 159/32/5 158/32/5
f 165/33/5 158/33/5 164/33/5
f 166/3/5 160/3/5 159/3/5
f 166/32/5 159/32/5 165/32/5
f 167/3/5 160/3/5 166/3/5
f 168/21/5 162/21/5 161/21/5
f 169/43/5 163/43/5 162/43/5
f 169/21/5 162/21/5 168/21/5
f 170/19/5 164/19/5 163/19/5
f 170/43/5 163/43/5 169/43/5
f 171/49/5 165/49/5 164/49/5
f 171/19/5 164/19/5 170/19/5
f 172/20/5 166/20/5 165/20/5
f 172/49/5 165/49/5 171/49/5
f 173/16/5 167/16/5 166/16/5
f 173/20/5 166/20/5 172/20/5
f 174/16/5 167/16/5 173/16/5
f 175/40/6 176/40/6 181/40/6
f 181/40/6 176/40/6 182/40/6
f 177/41/6 178/41/6 183/41/6
f 178/37/6 179/37/6 184/37/6
f 183/41/6 178/41/6 184/41/6
f 179/31/6 180/31/6 185/31/6
f 184/37/6 179/37/6 185/37/6
f 180/27/6 181/27/6 186/27/6
f 185/31/6 180/31/6 186/31/6
f 181/50/6 182/50/6 187/50/6
f 186/27/6 181/27/6 187/27/6
f 187/50/6 182/50/6 188/50/6
f 183/1/6 184/1/6 189/1/6
f 184/51/6 185/51/6 190/51/6
f 189/1/6 184/1/6 190/1/6
f 185/49/6 186/49/6 191/49/6
f 190/51/6 185/51/6 191/51/6
f 186/13/6 187/13/6 192/13/6
f 191/49/6 186/49/6 192/49/6
f 187/38/6 188/38/6 193/38/6
f 192/13/6 187/13/6 193/13/6
f 193/38/6 188/38/6 194/38/6
f 189/46/6 190/46/6 195/46/6
f 190/26/6 191/26/6 196/26/6
f 195/46/6 190/46/6 196/46/6
f 191/45/6 192/45/6 197/45/6
f 196/26/6 191/26/6 197/26/6
f 192/37/6 193/37/6 198/37/6
f 197/45/6 192/45/6 198/45/6
f 193/42/6 194/42/6 199/42/6
f 198/37/6 193/37/6 199/37/6
f 199/42/6 194/42/6 200/42/6
f 195/17/6 196/17/6 201/17/6
f 196/47/6 197/47/6 202/47/6
f 201/17/6 196/17/6 202/17/6
f 197/6/6 198/6/6 203/6/6
f 202/47/6 197/47/6 203/47/6
f 198/7/6 199/7/6 204/7/6
f 203/6/6 198/6/6 204/6/6
f 199/36/6 200/36/6 205/36/6
f 204/7/6 199/7/6 205/7/6
f 205/36/6 200/36/6 206/36/6
f 201/21/6 202/21/6 207/21/6
f 202/11/6 203/11/6 208/11/6
f 207/21/6 202/21/6 208/21/6
f 203/29/6 204/29/6 209/29/6
f 208/11/6 203/11/6 209/11/6
f 204/35/6 205/35/6 210/35/6
f 209/29/6 204/29/6 210/29/6
f 205/28/6 206/28/6 211/28/6
f 210/35/6 205/35/6 211/35/6
f 211/28/6 206/28/6 212/28/6
f 209/33/6 210/33/6 213/33/6
f 210/32/6 211/32/6 214/32/6
f 213/33/6 210/33/6 214/33/6
f 211/3/6 212/3/6 215/3/6
f 214/32/6 211/32/6 215/32/6
f 215/3/6 212/3/6 216/3/6
f 215/16/6 216/16/6 217/16/6
f 217/16/6 216/16/6 218/16/6
f 219/4/6 220/4/6 221/4/6
f 221/4/6 220/4/6 222/4/6
f 221/22/6 222/22/6 223/22/6
f 223/22/6 222/22/6 224/22/6
f 223/48/6 224/48/6 225/48/6
f 225/48/6 224/48/6 226/48/6
f 225/9/6 226/9/6 227/9/6
f 227/9/6 226/9/6 228/9/6
f 227/10/6 228/10/6 229/10/6
f 229/10/6 228/10/6 230/10/6
f 229/25/6 230/25/6 233/25/6
f 230/14/6 231/14/6 234/14/6
f 233/25/6 230/25/6 234/25/6
f 231/15/6 232/15/6 235/15/6
f 234/14/6 231/14/6 235/14/6
f 235/15/6 232/15/6 236/15/6
f 233/14/6 234/14/6 239/14/6
f 234/23/6 235/23/6 240/23/6
f 239/14/6 234/14/6 240/14/6
f 235/2/6 236/2/6 241/2/6
f 240/23/6 235/23/6 241/23/6
f 236/44/6 237/44/6 242/44/6
f 241/2/6 236/2/6 242/2/6
f 237/18/6 238/18/6 243/18/6
f 242/44/6 237/44/6 243/44/6
f 243/18/6 238/18/6 244/18/6
