# Blender 3.4.1
# www.blender.org
mtllib short_wing_red.mtl
o Untitled
v 0.000000 -0.100000 -0.300000
v 0.000000 -0.100000 -0.400000
v 0.000000 -0.000000 0.200000
v 0.000000 -0.000000 0.100000
v 0.000000 0.000000 0.000000
v 0.000000 0.000000 -0.100000
v 0.000000 0.000000 -0.200000
v 0.000000 0.000000 -0.300000
v 0.000000 0.100000 0.000000
v 0.500000 -0.100000 0.300000
v 0.500000 -0.000000 0.400000
v 0.500000 -0.000000 0.300000
v 0.100000 -0.000000 0.200000
v 0.100000 -0.000000 0.100000
v 0.100000 0.000000 0.000000
v 0.100000 0.000000 -0.100000
v 0.100000 0.000000 -0.200000
v 0.100000 0.100000 0.300000
v 0.100000 0.100000 0.200000
v 0.100000 0.100000 0.000000
v 0.300000 0.000000 -0.200000
v 0.300000 0.000000 -0.300000
v 0.500000 0.000000 -0.300000
v 0.500000 0.000000 -0.400000
v 0.500000 0.100000 -0.400000
v 0.600000 -0.100000 0.300000
v 0.600000 -0.100000 0.200000
v 0.600000 -0.100000 0.100000
v 0.600000 -0.100000 -0.100000
v 0.600000 -0.100000 -0.200000
v 0.600000 -0.100000 -0.300000
v 0.600000 -0.000000 0.400000
v 0.600000 -0.000000 0.300000
v 0.600000 -0.000000 0.200000
v 0.600000 -0.000000 0.100000
v 0.600000 0.000000 -0.100000
v 0.600000 0.000000 -0.200000
v 0.600000 0.000000 -0.400000
v 0.600000 -0.100000 0.400000
v 0.000000 -0.100000 0.300000
v 0.000000 -0.000000 0.300000
v 0.000000 0.100000 0.300000
v 0.200000 -0.100000 0.300000
v 0.300000 -0.000000 0.300000
v 0.400000 -0.100000 0.300000
v 0.100000 0.100000 -0.200000
v 0.200000 0.000000 -0.200000
v 0.200000 0.100000 -0.200000
v 0.300000 0.100000 -0.200000
v 0.400000 0.000000 -0.300000
v 0.400000 0.100000 -0.300000
v 0.500000 0.100000 -0.300000
v 0.000000 0.000000 -0.400000
v 0.000000 0.100000 -0.400000
v 0.100000 -0.100000 -0.400000
v 0.100000 0.000000 -0.400000
v 0.100000 0.100000 -0.400000
v 0.200000 0.000000 -0.400000
v 0.200000 0.100000 -0.400000
v 0.300000 0.000000 -0.400000
v 0.400000 0.000000 -0.400000
v 0.400000 0.100000 -0.400000
v 0.600000 -0.100000 -0.400000
v 0.500000 -0.100000 0.400000
v 0.100000 -0.100000 0.300000
v 0.300000 -0.100000 0.300000
v 0.000000 -0.100000 0.200000
v 0.100000 -0.100000 0.200000
v 0.200000 -0.100000 0.200000
v 0.300000 -0.100000 0.200000
v 0.400000 -0.100000 0.200000
v 0.500000 -0.100000 0.200000
v 0.000000 -0.100000 0.100000
v 0.100000 -0.100000 0.100000
v 0.200000 -0.100000 0.100000
v 0.300000 -0.100000 0.100000
v 0.400000 -0.100000 0.100000
v 0.500000 -0.100000 0.100000
v 0.000000 -0.100000 -0.000000
v 0.100000 -0.100000 -0.000000
v 0.200000 -0.100000 -0.000000
v 0.300000 -0.100000 -0.000000
v 0.400000 -0.100000 -0.000000
v 0.500000 -0.100000 -0.000000
v 0.600000 -0.100000 -0.000000
v 0.000000 -0.100000 -0.100000
v 0.100000 -0.100000 -0.100000
v 0.200000 -0.100000 -0.100000
v 0.300000 -0.100000 -0.100000
v 0.400000 -0.100000 -0.100000
v 0.500000 -0.100000 -0.100000
v 0.000000 -0.100000 -0.200000
v 0.100000 -0.100000 -0.200000
v 0.200000 -0.100000 -0.200000
v 0.300000 -0.100000 -0.200000
v 0.400000 -0.100000 -0.200000
v 0.500000 -0.100000 -0.200000
v 0.100000 -0.100000 -0.300000
v 0.200000 -0.100000 -0.300000
v 0.300000 -0.100000 -0.300000
v 0.400000 -0.100000 -0.300000
v 0.500000 -0.100000 -0.300000
v 0.200000 -0.100000 -0.400000
v 0.300000 -0.100000 -0.400000
v 0.400000 -0.100000 -0.400000
v 0.500000 -0.100000 -0.400000
v 0.100000 -0.000000 0.300000
v 0.200000 -0.000000 0.300000
v 0.400000 -0.000000 0.300000
v 0.200000 -0.000000 0.200000
v 0.300000 -0.000000 0.200000
v 0.400000 -0.000000 0.200000
v 0.500000 -0.000000 0.200000
v 0.200000 -0.000000 0.100000
v 0.300000 -0.000000 0.100000
v 0.400000 -0.000000 0.100000
v 0.500000 -0.000000 0.100000
v 0.200000 0.000000 0.000000
v 0.300000 0.000000 0.000000
v 0.400000 0.000000 0.000000
v 0.500000 0.000000 0.000000
v 0.600000 0.000000 0.000000
v 0.200000 0.000000 -0.100000
v 0.300000 0.000000 -0.100000
v 0.400000 0.000000 -0.100000
v 0.500000 0.000000 -0.100000
v 0.400000 0.000000 -0.200000
v 0.500000 0.000000 -0.200000
v 0.600000 0.000000 -0.300000
v 0.000000 0.100000 0.200000
v 0.000000 0.100000 0.100000
v 0.100000 0.100000 0.100000
v 0.000000 0.100000 -0.100000
v 0.100000 0.100000 -0.100000
v 0.000000 0.100000 -0.200000
v 0.000000 0.100000 -0.300000
v 0.100000 0.100000 -0.300000
v 0.200000 0.100000 -0.300000
v 0.300000 0.100000 -0.300000
v 0.300000 0.100000 -0.400000
vn -1.0000 -0.0000 -0.0000
vn 1.0000 -0.0000 -0.0000
vn -0.0000 -0.0000 1.0000
vn -0.0000 -0.0000 -1.0000
vn -0.0000 -1.0000 -0.0000
vn -0.0000 1.0000 -0.0000
vt 0.357422 0.500000
vt 0.431641 0.500000
vt 0.431641 0.500000
vt 0.861328 0.500000
vt 0.396484 0.500000
vt 0.810547 0.500000
vt 0.564453 0.500000
vt 0.396484 0.500000
vt 0.087891 0.500000
vt 0.271484 0.500000
vt 0.810547 0.500000
vt 0.087891 0.500000
vt 0.576172 0.500000
vt 0.771484 0.500000
vt 0.271484 0.500000
vt 0.576172 0.500000
vt 0.556641 0.500000
vt 0.451172 0.500000
vt 0.771484 0.500000
vt 0.556641 0.500000
vt 0.357422 0.500000
vt 0.162109 0.500000
vt 0.451172 0.500000
vt 0.357422 0.500000
vt 0.431641 0.500000
vt 0.869141 0.500000
vt 0.162109 0.500000
vt 0.271484 0.500000
vt 0.771484 0.500000
vt 0.943359 0.500000
vt 0.939453 0.500000
vt 0.056641 0.500000
vt 0.943359 0.500000
vt 0.943359 0.500000
vt 0.939453 0.500000
vt 0.056641 0.500000
vt 0.810547 0.500000
vt 0.564453 0.500000
vt 0.107422 0.500000
vt 0.861328 0.500000
vt 0.271484 0.500000
vt 0.810547 0.500000
vt 0.861328 0.500000
vt 0.216797 0.500000
vt 0.771484 0.500000
vt 0.271484 0.500000
vt 0.216797 0.500000
vt 0.701172 0.500000
vt 0.451172 0.500000
vt 0.771484 0.500000
vt 0.701172 0.500000
vt 0.775391 0.500000
vt 0.451172 0.500000
vt 0.759766 0.500000
vt 0.775391 0.500000
vt 0.564453 0.500000
vt 0.564453 0.500000
vt 0.810547 0.500000
vt 0.271484 0.500000
vt 0.771484 0.500000
vt 0.845703 0.500000
vt 0.056641 0.500000
vt 0.072266 0.500000
vt 0.912109 0.500000
vt 0.845703 0.500000
vt 0.052734 0.500000
vt 0.912109 0.500000
vt 0.119141 0.500000
vt 0.224609 0.500000
vt 0.748047 0.500000
vt 0.376953 0.500000
vt 0.982422 0.500000
vt 0.119141 0.500000
vt 0.376953 0.500000
vt 0.119141 0.500000
vt 0.943359 0.500000
vt 0.939453 0.500000
vt 0.939453 0.500000
vt 0.978516 0.500000
vt 0.978516 0.500000
vt 0.521484 0.500000
vt 0.154297 0.500000
vt 0.912109 0.500000
vt 0.912109 0.500000
vt 0.748047 0.500000
vt 0.748047 0.500000
vt 0.376953 0.500000
vt 0.943359 0.500000
vt 0.943359 0.500000
vt 0.939453 0.500000
vt 0.939453 0.500000
vt 0.978516 0.500000
vt 0.978516 0.500000
vt 0.521484 0.500000
vt 0.154297 0.500000
vt 0.912109 0.500000
vt 0.912109 0.500000
vt 0.748047 0.500000
vt 0.376953 0.500000
vt 0.943359 0.500000
vt 0.861328 0.500000
vt 0.564453 0.500000
vt 0.861328 0.500000
vt 0.564453 0.500000
vt 0.345703 0.500000
vt 0.107422 0.500000
vt 0.064453 0.500000
vt 0.345703 0.500000
vt 0.056641 0.500000
vt 0.064453 0.500000
vt 0.451172 0.500000
vt 0.759766 0.500000
vt 0.162109 0.500000
vt 0.759766 0.500000
vt 0.845703 0.500000
vt 0.775391 0.500000
vt 0.056641 0.500000
vt 0.845703 0.500000
vt 0.759766 0.500000
vt 0.845703 0.500000
vt 0.052734 0.500000
vt 0.119141 0.500000
vt 0.912109 0.500000
vt 0.224609 0.500000
vt 0.119141 0.500000
vt 0.052734 0.500000
vt 0.119141 0.500000
vt 0.869141 0.500000
vt 0.431641 0.500000
vt 0.869141 0.500000
vt 0.431641 0.500000
vt 0.314453 0.500000
vt 0.431641 0.500000
vt 0.869141 0.500000
vt 0.544922 0.500000
vt 0.314453 0.500000
vt 0.869141 0.500000
vt 0.544922 0.500000
vt 0.314453 0.500000
vt 0.544922 0.500000
vt 0.275391 0.500000
vt 0.330078 0.500000
vt 0.544922 0.500000
vt 0.275391 0.500000
vt 0.330078 0.500000
vt 0.275391 0.500000
vt 0.052734 0.500000
vt 0.205078 0.500000
vt 0.205078 0.500000
vt 0.052734 0.500000
vt 0.119141 0.500000
vt 0.982422 0.500000
vt 0.052734 0.500000
vt 0.119141 0.500000
vt 0.376953 0.500000
vt 0.943359 0.500000
vt 0.107422 0.500000
vt 0.861328 0.500000
vt 0.064453 0.500000
vt 0.345703 0.500000
vt 0.861328 0.500000
vt 0.396484 0.500000
vt 0.107422 0.500000
vt 0.861328 0.500000
vt 0.396484 0.500000
vt 0.345703 0.500000
vt 0.107422 0.500000
vt 0.861328 0.500000
vt 0.345703 0.500000
vt 0.064453 0.500000
vt 0.779297 0.500000
vt 0.107422 0.500000
vt 0.064453 0.500000
vt 0.056641 0.500000
vt 0.271484 0.500000
vt 0.779297 0.500000
vt 0.056641 0.500000
vt 0.939453 0.500000
vt 0.978516 0.500000
vt 0.271484 0.500000
vt 0.396484 0.500000
vt 0.087891 0.500000
vt 0.396484 0.500000
vt 0.861328 0.500000
vt 0.216797 0.500000
vt 0.087891 0.500000
vt 0.861328 0.500000
vt 0.107422 0.500000
vt 0.130859 0.500000
vt 0.216797 0.500000
vt 0.107422 0.500000
vt 0.779297 0.500000
vt 0.048828 0.500000
vt 0.130859 0.500000
vt 0.779297 0.500000
vt 0.271484 0.500000
vt 0.712891 0.500000
vt 0.048828 0.500000
vt 0.271484 0.500000
vt 0.978516 0.500000
vt 0.521484 0.500000
vt 0.712891 0.500000
vt 0.087891 0.500000
vt 0.576172 0.500000
vt 0.087891 0.500000
vt 0.216797 0.500000
vt 0.701172 0.500000
vt 0.576172 0.500000
vt 0.216797 0.500000
vt 0.130859 0.500000
vt 0.900391 0.500000
vt 0.701172 0.500000
vt 0.130859 0.500000
vt 0.048828 0.500000
vt 0.091797 0.500000
vt 0.900391 0.500000
vt 0.048828 0.500000
vt 0.712891 0.500000
vt 0.490234 0.500000
vt 0.091797 0.500000
vt 0.712891 0.500000
vt 0.521484 0.500000
vt 0.154297 0.500000
vt 0.490234 0.500000
vt 0.521484 0.500000
vt 0.154297 0.500000
vt 0.576172 0.500000
vt 0.556641 0.500000
vt 0.576172 0.500000
vt 0.701172 0.500000
vt 0.775391 0.500000
vt 0.556641 0.500000
vt 0.701172 0.500000
vt 0.900391 0.500000
vt 0.056641 0.500000
vt 0.775391 0.500000
vt 0.900391 0.500000
vt 0.091797 0.500000
vt 0.072266 0.500000
vt 0.056641 0.500000
vt 0.091797 0.500000
vt 0.490234 0.500000
vt 0.634766 0.500000
vt 0.072266 0.500000
vt 0.490234 0.500000
vt 0.154297 0.500000
vt 0.912109 0.500000
vt 0.634766 0.500000
vt 0.556641 0.500000
vt 0.357422 0.500000
vt 0.556641 0.500000
vt 0.775391 0.500000
vt 0.927734 0.500000
vt 0.357422 0.500000
vt 0.775391 0.500000
vt 0.056641 0.500000
vt 0.955078 0.500000
vt 0.927734 0.500000
vt 0.056641 0.500000
vt 0.072266 0.500000
vt 0.912109 0.500000
vt 0.955078 0.500000
vt 0.072266 0.500000
vt 0.634766 0.500000
vt 0.224609 0.500000
vt 0.912109 0.500000
vt 0.634766 0.500000
vt 0.912109 0.500000
vt 0.748047 0.500000
vt 0.224609 0.500000
vt 0.357422 0.500000
vt 0.927734 0.500000
vt 0.314453 0.500000
vt 0.431641 0.500000
vt 0.927734 0.500000
vt 0.955078 0.500000
vt 0.330078 0.500000
vt 0.314453 0.500000
vt 0.955078 0.500000
vt 0.912109 0.500000
vt 0.205078 0.500000
vt 0.330078 0.500000
vt 0.912109 0.500000
vt 0.224609 0.500000
vt 0.982422 0.500000
vt 0.205078 0.500000
vt 0.224609 0.500000
vt 0.748047 0.500000
vt 0.376953 0.500000
vt 0.982422 0.500000
vt 0.314453 0.500000
vt 0.330078 0.500000
vt 0.330078 0.500000
vt 0.205078 0.500000
vt 0.205078 0.500000
vt 0.982422 0.500000
vt 0.982422 0.500000
vt 0.376953 0.500000
vt 0.861328 0.500000
vt 0.564453 0.500000
vt 0.107422 0.500000
vt 0.345703 0.500000
vt 0.107422 0.500000
vt 0.056641 0.500000
vt 0.064453 0.500000
vt 0.345703 0.500000
vt 0.107422 0.500000
vt 0.861328 0.500000
vt 0.345703 0.500000
vt 0.064453 0.500000
vt 0.779297 0.500000
vt 0.107422 0.500000
vt 0.064453 0.500000
vt 0.056641 0.500000
vt 0.271484 0.500000
vt 0.779297 0.500000
vt 0.056641 0.500000
vt 0.939453 0.500000
vt 0.978516 0.500000
vt 0.271484 0.500000
vt 0.861328 0.500000
vt 0.107422 0.500000
vt 0.130859 0.500000
vt 0.216797 0.500000
vt 0.107422 0.500000
vt 0.779297 0.500000
vt 0.048828 0.500000
vt 0.130859 0.500000
vt 0.779297 0.500000
vt 0.271484 0.500000
vt 0.712891 0.500000
vt 0.048828 0.500000
vt 0.271484 0.500000
vt 0.978516 0.500000
vt 0.521484 0.500000
vt 0.712891 0.500000
vt 0.216797 0.500000
vt 0.130859 0.500000
vt 0.900391 0.500000
vt 0.701172 0.500000
vt 0.130859 0.500000
vt 0.048828 0.500000
vt 0.091797 0.500000
vt 0.900391 0.500000
vt 0.048828 0.500000
vt 0.712891 0.500000
vt 0.490234 0.500000
vt 0.091797 0.500000
vt 0.712891 0.500000
vt 0.521484 0.500000
vt 0.154297 0.500000
vt 0.490234 0.500000
vt 0.521484 0.500000
vt 0.154297 0.500000
vt 0.701172 0.500000
vt 0.900391 0.500000
vt 0.056641 0.500000
vt 0.775391 0.500000
vt 0.900391 0.500000
vt 0.091797 0.500000
vt 0.072266 0.500000
vt 0.056641 0.500000
vt 0.091797 0.500000
vt 0.490234 0.500000
vt 0.634766 0.500000
vt 0.072266 0.500000
vt 0.490234 0.500000
vt 0.154297 0.500000
vt 0.912109 0.500000
vt 0.634766 0.500000
vt 0.072266 0.500000
vt 0.634766 0.500000
vt 0.224609 0.500000
vt 0.912109 0.500000
vt 0.634766 0.500000
vt 0.912109 0.500000
vt 0.748047 0.500000
vt 0.224609 0.500000
vt 0.748047 0.500000
vt 0.376953 0.500000
vt 0.564453 0.500000
vt 0.810547 0.500000
vt 0.810547 0.500000
vt 0.271484 0.500000
vt 0.810547 0.500000
vt 0.271484 0.500000
vt 0.771484 0.500000
vt 0.451172 0.500000
vt 0.771484 0.500000
vt 0.451172 0.500000
vt 0.451172 0.500000
vt 0.162109 0.500000
vt 0.162109 0.500000
vt 0.869141 0.500000
vt 0.162109 0.500000
vt 0.759766 0.500000
vt 0.544922 0.500000
vt 0.869141 0.500000
vt 0.759766 0.500000
vt 0.845703 0.500000
vt 0.275391 0.500000
vt 0.544922 0.500000
vt 0.845703 0.500000
vt 0.052734 0.500000
vt 0.275391 0.500000
vt 0.275391 0.500000
vt 0.052734 0.500000
s 0
usemtl palette.003
f 41/103/1 67/161/1 40/101/1
f 3/5/1 73/181/1 67/162/1
f 3/4/1 67/161/1 41/103/1
f 4/9/1 79/203/1 73/182/1
f 4/8/1 73/181/1 3/5/1
f 5/13/1 86/227/1 79/204/1
f 5/12/1 79/203/1 4/9/1
f 6/17/1 92/249/1 86/228/1
f 6/16/1 86/227/1 5/13/1
f 7/21/1 1/1/1 92/250/1
f 7/20/1 92/249/1 6/17/1
f 8/25/1 2/3/1 1/2/1
f 8/24/1 1/1/1 7/21/1
f 53/129/1 2/3/1 8/25/1
f 42/104/1 3/7/1 41/102/1
f 130/382/1 4/11/1 3/6/1
f 130/381/1 3/7/1 42/104/1
f 131/384/1 5/15/1 4/10/1
f 131/383/1 4/11/1 130/382/1
f 9/29/1 6/19/1 5/14/1
f 9/28/1 5/15/1 131/384/1
f 133/388/1 7/23/1 6/18/1
f 133/387/1 6/19/1 9/29/1
f 135/392/1 8/27/1 7/22/1
f 135/391/1 7/23/1 133/388/1
f 136/394/1 53/128/1 8/26/1
f 136/393/1 8/27/1 135/392/1
f 54/130/1 53/128/1 136/394/1
f 11/33/1 10/30/1 64/156/1
f 12/34/1 10/30/1 11/33/1
f 107/300/2 13/38/2 18/56/2
f 13/37/2 14/42/2 19/58/2
f 18/56/2 13/38/2 19/57/2
f 14/41/2 15/46/2 132/386/2
f 19/58/2 14/42/2 132/385/2
f 15/45/2 16/50/2 20/60/2
f 132/386/2 15/46/2 20/59/2
f 16/49/2 17/53/2 134/390/2
f 20/60/2 16/50/2 134/389/2
f 134/390/2 17/53/2 46/111/2
f 21/61/2 22/65/2 49/120/2
f 49/120/2 22/65/2 139/403/2
f 23/68/2 24/73/2 52/127/2
f 52/127/2 24/73/2 25/75/2
f 39/100/2 26/76/2 32/88/2
f 26/77/2 27/78/2 33/90/2
f 32/88/2 26/76/2 33/89/2
f 27/79/2 28/80/2 34/92/2
f 33/90/2 27/78/2 34/91/2
f 28/81/2 85/225/2 35/94/2
f 34/92/2 28/80/2 35/93/2
f 85/226/2 29/82/2 122/354/2
f 35/94/2 85/225/2 122/353/2
f 29/83/2 30/84/2 36/96/2
f 122/354/2 29/82/2 36/95/2
f 30/85/2 31/86/2 37/98/2
f 36/96/2 30/84/2 37/97/2
f 31/87/2 63/155/2 129/380/2
f 37/98/2 31/86/2 129/379/2
f 129/380/2 63/155/2 38/99/2
f 39/100/3 11/33/3 64/156/3
f 32/88/3 11/33/3 39/100/3
f 65/158/3 41/103/3 40/101/3
f 107/300/3 42/104/3 41/102/3
f 107/299/3 41/103/3 65/158/3
f 18/56/3 42/104/3 107/300/3
f 43/106/3 107/301/3 65/157/3
f 108/303/3 107/301/3 43/106/3
f 66/160/3 108/302/3 43/105/3
f 44/108/3 108/302/3 66/160/3
f 45/110/3 44/107/3 66/159/3
f 109/305/3 44/107/3 45/110/3
f 10/32/3 109/304/3 45/109/3
f 12/36/3 109/304/3 10/32/3
f 47/114/3 46/112/3 17/54/3
f 48/119/3 46/112/3 47/114/3
f 21/61/3 48/118/3 47/115/3
f 49/120/3 48/118/3 21/61/3
f 50/121/3 139/404/3 22/66/3
f 51/126/3 139/404/3 50/121/3
f 23/68/3 51/125/3 50/122/3
f 52/127/3 51/125/3 23/68/3
f 2/3/4 53/129/4 55/131/4
f 53/128/4 54/130/4 56/134/4
f 55/131/4 53/129/4 56/133/4
f 56/134/4 54/130/4 57/137/4
f 55/132/4 56/136/4 103/291/4
f 56/135/4 57/138/4 58/140/4
f 103/291/4 56/136/4 58/139/4
f 58/140/4 57/138/4 59/143/4
f 103/292/4 58/142/4 104/293/4
f 58/141/4 59/144/4 60/146/4
f 104/293/4 58/142/4 60/145/4
f 60/146/4 59/144/4 140/406/4
f 104/294/4 60/148/4 105/295/4
f 60/147/4 140/407/4 61/150/4
f 105/295/4 60/148/4 61/149/4
f 61/150/4 140/407/4 62/153/4
f 105/296/4 61/152/4 106/297/4
f 61/151/4 62/154/4 24/73/4
f 106/297/4 61/152/4 24/72/4
f 24/73/4 62/154/4 25/75/4
f 106/298/4 24/74/4 63/155/4
f 63/155/4 24/74/4 38/99/4
f 10/30/5 39/100/5 64/156/5
f 26/76/5 39/100/5 10/30/5
f 67/161/5 65/158/5 40/101/5
f 68/163/5 43/106/5 65/157/5
f 68/164/5 65/158/5 67/161/5
f 69/166/5 66/160/5 43/105/5
f 69/167/5 43/106/5 68/163/5
f 70/170/5 45/110/5 66/159/5
f 70/169/5 66/160/5 69/166/5
f 71/174/5 10/32/5 45/109/5
f 71/173/5 45/110/5 70/170/5
f 72/178/5 26/77/5 10/31/5
f 72/177/5 10/32/5 71/174/5
f 27/78/5 26/77/5 72/178/5
f 73/181/5 68/165/5 67/162/5
f 74/184/5 69/168/5 68/164/5
f 74/183/5 68/165/5 73/181/5
f 75/188/5 70/172/5 69/167/5
f 75/187/5 69/168/5 74/184/5
f 76/192/5 71/176/5 70/171/5
f 76/191/5 70/172/5 75/188/5
f 77/196/5 72/180/5 71/175/5
f 77/195/5 71/176/5 76/192/5
f 78/200/5 27/79/5 72/179/5
f 78/199/5 72/180/5 77/196/5
f 28/80/5 27/79/5 78/200/5
f 79/203/5 74/186/5 73/182/5
f 80/206/5 75/190/5 74/185/5
f 80/205/5 74/186/5 79/203/5
f 81/210/5 76/194/5 75/189/5
f 81/209/5 75/190/5 80/206/5
f 82/214/5 77/198/5 76/193/5
f 82/213/5 76/194/5 81/210/5
f 83/218/5 78/202/5 77/197/5
f 83/217/5 77/198/5 82/214/5
f 84/222/5 28/81/5 78/201/5
f 84/221/5 78/202/5 83/218/5
f 85/225/5 28/81/5 84/222/5
f 86/227/5 80/208/5 79/204/5
f 87/230/5 81/212/5 80/207/5
f 87/229/5 80/208/5 86/227/5
f 88/234/5 82/216/5 81/211/5
f 88/233/5 81/212/5 87/230/5
f 89/238/5 83/220/5 82/215/5
f 89/237/5 82/216/5 88/234/5
f 90/242/5 84/224/5 83/219/5
f 90/241/5 83/220/5 89/238/5
f 91/246/5 85/226/5 84/223/5
f 91/245/5 84/224/5 90/242/5
f 29/82/5 85/226/5 91/246/5
f 92/249/5 87/232/5 86/228/5
f 93/252/5 88/236/5 87/231/5
f 93/251/5 87/232/5 92/249/5
f 94/256/5 89/240/5 88/235/5
f 94/255/5 88/236/5 93/252/5
f 95/260/5 90/244/5 89/239/5
f 95/259/5 89/240/5 94/256/5
f 96/264/5 91/248/5 90/243/5
f 96/263/5 90/244/5 95/260/5
f 97/268/5 29/83/5 91/247/5
f 97/267/5 91/248/5 96/264/5
f 30/84/5 29/83/5 97/268/5
f 1/1/5 93/254/5 92/250/5
f 98/272/5 94/258/5 93/253/5
f 98/271/5 93/254/5 1/1/5
f 99/276/5 95/262/5 94/257/5
f 99/275/5 94/258/5 98/272/5
f 100/280/5 96/266/5 95/261/5
f 100/279/5 95/262/5 99/276/5
f 101/284/5 97/270/5 96/265/5
f 101/283/5 96/266/5 100/280/5
f 102/288/5 30/85/5 97/269/5
f 102/287/5 97/270/5 101/284/5
f 31/86/5 30/85/5 102/288/5
f 2/3/5 98/274/5 1/2/5
f 55/132/5 99/278/5 98/273/5
f 55/131/5 98/274/5 2/3/5
f 103/292/5 100/282/5 99/277/5
f 103/291/5 99/278/5 55/132/5
f 104/294/5 101/286/5 100/281/5
f 104/293/5 100/282/5 103/292/5
f 105/296/5 102/290/5 101/285/5
f 105/295/5 101/286/5 104/294/5
f 106/298/5 31/87/5 102/289/5
f 106/297/5 102/290/5 105/296/5
f 63/155/5 31/87/5 106/298/5
f 11/33/6 32/88/6 12/34/6
f 12/34/6 32/88/6 33/89/6
f 107/301/6 108/303/6 13/39/6
f 108/302/6 44/108/6 110/306/6
f 13/39/6 108/303/6 110/307/6
f 44/107/6 109/305/6 111/310/6
f 110/306/6 44/108/6 111/309/6
f 109/304/6 12/36/6 112/314/6
f 111/310/6 109/305/6 112/313/6
f 12/35/6 33/90/6 113/318/6
f 112/314/6 12/36/6 113/317/6
f 113/318/6 33/90/6 34/91/6
f 13/40/6 110/308/6 14/43/6
f 110/307/6 111/312/6 114/322/6
f 14/43/6 110/308/6 114/321/6
f 111/311/6 112/316/6 115/326/6
f 114/322/6 111/312/6 115/325/6
f 112/315/6 113/320/6 116/330/6
f 115/326/6 112/316/6 116/329/6
f 113/319/6 34/92/6 117/334/6
f 116/330/6 113/320/6 117/333/6
f 117/334/6 34/92/6 35/93/6
f 14/44/6 114/324/6 15/47/6
f 114/323/6 115/328/6 118/338/6
f 15/47/6 114/324/6 118/337/6
f 115/327/6 116/332/6 119/342/6
f 118/338/6 115/328/6 119/341/6
f 116/331/6 117/336/6 120/346/6
f 119/342/6 116/332/6 120/345/6
f 117/335/6 35/94/6 121/350/6
f 120/346/6 117/336/6 121/349/6
f 121/350/6 35/94/6 122/353/6
f 15/48/6 118/340/6 16/51/6
f 118/339/6 119/344/6 123/356/6
f 16/51/6 118/340/6 123/355/6
f 119/343/6 120/348/6 124/360/6
f 123/356/6 119/344/6 124/359/6
f 120/347/6 121/352/6 125/364/6
f 124/360/6 120/348/6 125/363/6
f 121/351/6 122/354/6 126/368/6
f 125/364/6 121/352/6 126/367/6
f 126/368/6 122/354/6 36/95/6
f 16/52/6 123/358/6 17/55/6
f 123/357/6 124/362/6 47/117/6
f 17/55/6 123/358/6 47/116/6
f 124/361/6 125/366/6 21/63/6
f 47/117/6 124/362/6 21/62/6
f 125/365/6 126/370/6 127/372/6
f 21/63/6 125/366/6 127/371/6
f 126/369/6 36/96/6 128/376/6
f 127/372/6 126/370/6 128/375/6
f 128/376/6 36/96/6 37/97/6
f 21/64/6 127/374/6 22/67/6
f 127/373/6 128/378/6 50/124/6
f 22/67/6 127/374/6 50/123/6
f 128/377/6 37/98/6 23/70/6
f 50/124/6 128/378/6 23/69/6
f 23/70/6 37/98/6 129/379/6
f 23/71/6 129/380/6 24/74/6
f 24/74/6 129/380/6 38/99/6
f 42/104/6 18/56/6 130/381/6
f 130/381/6 18/56/6 19/57/6
f 130/382/6 19/58/6 131/383/6
f 131/383/6 19/58/6 132/385/6
f 131/384/6 132/386/6 9/28/6
f 9/28/6 132/386/6 20/59/6
f 9/29/6 20/60/6 133/387/6
f 133/387/6 20/60/6 134/389/6
f 133/388/6 134/390/6 135/391/6
f 135/391/6 134/390/6 46/111/6
f 135/392/6 46/113/6 136/393/6
f 46/112/6 48/119/6 137/396/6
f 136/393/6 46/113/6 137/395/6
f 48/118/6 49/120/6 138/400/6
f 137/396/6 48/119/6 138/399/6
f 138/400/6 49/120/6 139/403/6
f 136/394/6 137/398/6 54/130/6
f 137/397/6 138/402/6 57/138/6
f 54/130/6 137/398/6 57/137/6
f 138/401/6 139/405/6 59/144/6
f 57/138/6 138/402/6 59/143/6
f 139/404/6 51/126/6 140/407/6
f 59/144/6 139/405/6 140/406/6
f 51/125/6 52/127/6 62/154/6
f 140/407/6 51/126/6 62/153/6
f 62/154/6 52/127/6 25/75/6
