# Blender 3.4.1
# www.blender.org
mtllib short_wing_yellow.mtl
o Untitled
v 0.000000 -0.100000 -0.300000
v 0.000000 -0.100000 -0.400000
v 0.000000 -0.000000 0.200000
v 0.000000 -0.000000 0.100000
v 0.000000 0.000000 0.000000
v 0.000000 0.000000 -0.100000
v 0.000000 0.000000 -0.200000
v 0.000000 0.000000 -0.300000
v 0.000000 0.100000 0.000000
v 0.500000 -0.100000 0.300000
v 0.500000 -0.000000 0.400000
v 0.500000 -0.000000 0.300000
v 0.100000 -0.000000 0.200000
v 0.100000 -0.000000 0.100000
v 0.100000 0.000000 0.000000
v 0.100000 0.000000 -0.100000
v 0.100000 0.000000 -0.200000
v 0.100000 0.100000 0.300000
v 0.100000 0.100000 0.200000
v 0.100000 0.100000 0.000000
v 0.300000 0.000000 -0.200000
v 0.300000 0.000000 -0.300000
v 0.500000 0.000000 -0.300000
v 0.500000 0.000000 -0.400000
v 0.500000 0.100000 -0.400000
v 0.600000 -0.100000 0.300000
v 0.600000 -0.100000 0.200000
v 0.600000 -0.100000 0.100000
v 0.600000 -0.100000 -0.100000
v 0.600000 -0.100000 -0.200000
v 0.600000 -0.100000 -0.300000
v 0.600000 -0.000000 0.400000
v 0.600000 -0.000000 0.300000
v 0.600000 -0.000000 0.200000
v 0.600000 -0.000000 0.100000
v 0.600000 0.000000 -0.100000
v 0.600000 0.000000 -0.200000
v 0.600000 0.000000 -0.400000
v 0.600000 -0.100000 0.400000
v 0.000000 -0.100000 0.300000
v 0.000000 -0.000000 0.300000
v 0.000000 0.100000 0.300000
v 0.200000 -0.100000 0.300000
v 0.300000 -0.000000 0.300000
v 0.400000 -0.100000 0.300000
v 0.100000 0.100000 -0.200000
v 0.200000 0.000000 -0.200000
v 0.200000 0.100000 -0.200000
v 0.300000 0.100000 -0.200000
v 0.400000 0.000000 -0.300000
v 0.400000 0.100000 -0.300000
v 0.500000 0.100000 -0.300000
v 0.000000 0.000000 -0.400000
v 0.000000 0.100000 -0.400000
v 0.100000 -0.100000 -0.400000
v 0.100000 0.000000 -0.400000
v 0.100000 0.100000 -0.400000
v 0.200000 0.000000 -0.400000
v 0.200000 0.100000 -0.400000
v 0.300000 0.000000 -0.400000
v 0.400000 0.000000 -0.400000
v 0.400000 0.100000 -0.400000
v 0.600000 -0.100000 -0.400000
v 0.500000 -0.100000 0.400000
v 0.100000 -0.100000 0.300000
v 0.300000 -0.100000 0.300000
v 0.000000 -0.100000 0.200000
v 0.100000 -0.100000 0.200000
v 0.200000 -0.100000 0.200000
v 0.300000 -0.100000 0.200000
v 0.400000 -0.100000 0.200000
v 0.500000 -0.100000 0.200000
v 0.000000 -0.100000 0.100000
v 0.100000 -0.100000 0.100000
v 0.200000 -0.100000 0.100000
v 0.300000 -0.100000 0.100000
v 0.400000 -0.100000 0.100000
v 0.500000 -0.100000 0.100000
v 0.000000 -0.100000 -0.000000
v 0.100000 -0.100000 -0.000000
v 0.200000 -0.100000 -0.000000
v 0.300000 -0.100000 -0.000000
v 0.400000 -0.100000 -0.000000
v 0.500000 -0.100000 -0.000000
v 0.600000 -0.100000 -0.000000
v 0.000000 -0.100000 -0.100000
v 0.100000 -0.100000 -0.100000
v 0.200000 -0.100000 -0.100000
v 0.300000 -0.100000 -0.100000
v 0.400000 -0.100000 -0.100000
v 0.500000 -0.100000 -0.100000
v 0.000000 -0.100000 -0.200000
v 0.100000 -0.100000 -0.200000
v 0.200000 -0.100000 -0.200000
v 0.300000 -0.100000 -0.200000
v 0.400000 -0.100000 -0.200000
v 0.500000 -0.100000 -0.200000
v 0.100000 -0.100000 -0.300000
v 0.200000 -0.100000 -0.300000
v 0.300000 -0.100000 -0.300000
v 0.400000 -0.100000 -0.300000
v 0.500000 -0.100000 -0.300000
v 0.200000 -0.100000 -0.400000
v 0.300000 -0.100000 -0.400000
v 0.400000 -0.100000 -0.400000
v 0.500000 -0.100000 -0.400000
v 0.100000 -0.000000 0.300000
v 0.200000 -0.000000 0.300000
v 0.400000 -0.000000 0.300000
v 0.200000 -0.000000 0.200000
v 0.300000 -0.000000 0.200000
v 0.400000 -0.000000 0.200000
v 0.500000 -0.000000 0.200000
v 0.200000 -0.000000 0.100000
v 0.300000 -0.000000 0.100000
v 0.400000 -0.000000 0.100000
v 0.500000 -0.000000 0.100000
v 0.200000 0.000000 0.000000
v 0.300000 0.000000 0.000000
v 0.400000 0.000000 0.000000
v 0.500000 0.000000 0.000000
v 0.600000 0.000000 0.000000
v 0.200000 0.000000 -0.100000
v 0.300000 0.000000 -0.100000
v 0.400000 0.000000 -0.100000
v 0.500000 0.000000 -0.100000
v 0.400000 0.000000 -0.200000
v 0.500000 0.000000 -0.200000
v 0.600000 0.000000 -0.300000
v 0.000000 0.100000 0.200000
v 0.000000 0.100000 0.100000
v 0.100000 0.100000 0.100000
v 0.000000 0.100000 -0.100000
v 0.100000 0.100000 -0.100000
v 0.000000 0.100000 -0.200000
v 0.000000 0.100000 -0.300000
v 0.100000 0.100000 -0.300000
v 0.200000 0.100000 -0.300000
v 0.300000 0.100000 -0.300000
v 0.300000 0.100000 -0.400000
vn -1.0000 -0.0000 -0.0000
vn 1.0000 -0.0000 -0.0000
vn -0.0000 -0.0000 1.0000
vn -0.0000 -0.0000 -1.0000
vn -0.0000 -1.0000 -0.0000
vn -0.0000 1.0000 -0.0000
vt 0.115234 0.500000
vt 0.416016 0.500000
vt 0.416016 0.500000
vt 0.564453 0.500000
vt 0.462891 0.500000
vt 0.431641 0.500000
vt 0.052734 0.500000
vt 0.462891 0.500000
vt 0.197266 0.500000
vt 0.943359 0.500000
vt 0.431641 0.500000
vt 0.197266 0.500000
vt 0.064453 0.500000
vt 0.158203 0.500000
vt 0.943359 0.500000
vt 0.064453 0.500000
vt 0.474609 0.500000
vt 0.162109 0.500000
vt 0.158203 0.500000
vt 0.474609 0.500000
vt 0.115234 0.500000
vt 0.478516 0.500000
vt 0.162109 0.500000
vt 0.115234 0.500000
vt 0.416016 0.500000
vt 0.240234 0.500000
vt 0.478516 0.500000
vt 0.943359 0.500000
vt 0.158203 0.500000
vt 0.767578 0.500000
vt 0.974609 0.500000
vt 0.521484 0.500000
vt 0.767578 0.500000
vt 0.767578 0.500000
vt 0.974609 0.500000
vt 0.521484 0.500000
vt 0.431641 0.500000
vt 0.052734 0.500000
vt 0.787109 0.500000
vt 0.029297 0.500000
vt 0.943359 0.500000
vt 0.431641 0.500000
vt 0.029297 0.500000
vt 0.923828 0.500000
vt 0.158203 0.500000
vt 0.943359 0.500000
vt 0.923828 0.500000
vt 0.326172 0.500000
vt 0.162109 0.500000
vt 0.158203 0.500000
vt 0.326172 0.500000
vt 0.416016 0.500000
vt 0.162109 0.500000
vt 0.240234 0.500000
vt 0.416016 0.500000
vt 0.052734 0.500000
vt 0.052734 0.500000
vt 0.431641 0.500000
vt 0.943359 0.500000
vt 0.158203 0.500000
vt 0.251953 0.500000
vt 0.181641 0.500000
vt 0.560547 0.500000
vt 0.634766 0.500000
vt 0.251953 0.500000
vt 0.884766 0.500000
vt 0.634766 0.500000
vt 0.330078 0.500000
vt 0.611328 0.500000
vt 0.041016 0.500000
vt 0.255859 0.500000
vt 0.353516 0.500000
vt 0.330078 0.500000
vt 0.255859 0.500000
vt 0.330078 0.500000
vt 0.767578 0.500000
vt 0.974609 0.500000
vt 0.974609 0.500000
vt 0.708984 0.500000
vt 0.708984 0.500000
vt 0.802734 0.500000
vt 0.677734 0.500000
vt 0.541016 0.500000
vt 0.541016 0.500000
vt 0.041016 0.500000
vt 0.041016 0.500000
vt 0.255859 0.500000
vt 0.767578 0.500000
vt 0.767578 0.500000
vt 0.974609 0.500000
vt 0.974609 0.500000
vt 0.708984 0.500000
vt 0.708984 0.500000
vt 0.802734 0.500000
vt 0.677734 0.500000
vt 0.541016 0.500000
vt 0.541016 0.500000
vt 0.041016 0.500000
vt 0.255859 0.500000
vt 0.767578 0.500000
vt 0.564453 0.500000
vt 0.052734 0.500000
vt 0.564453 0.500000
vt 0.052734 0.500000
vt 0.681641 0.500000
vt 0.787109 0.500000
vt 0.580078 0.500000
vt 0.681641 0.500000
vt 0.521484 0.500000
vt 0.580078 0.500000
vt 0.162109 0.500000
vt 0.240234 0.500000
vt 0.478516 0.500000
vt 0.240234 0.500000
vt 0.251953 0.500000
vt 0.416016 0.500000
vt 0.181641 0.500000
vt 0.251953 0.500000
vt 0.240234 0.500000
vt 0.251953 0.500000
vt 0.884766 0.500000
vt 0.330078 0.500000
vt 0.634766 0.500000
vt 0.611328 0.500000
vt 0.330078 0.500000
vt 0.884766 0.500000
vt 0.330078 0.500000
vt 0.240234 0.500000
vt 0.416016 0.500000
vt 0.240234 0.500000
vt 0.416016 0.500000
vt 0.806641 0.500000
vt 0.416016 0.500000
vt 0.240234 0.500000
vt 0.462891 0.500000
vt 0.806641 0.500000
vt 0.240234 0.500000
vt 0.462891 0.500000
vt 0.806641 0.500000
vt 0.462891 0.500000
vt 0.033203 0.500000
vt 0.349609 0.500000
vt 0.462891 0.500000
vt 0.033203 0.500000
vt 0.349609 0.500000
vt 0.033203 0.500000
vt 0.884766 0.500000
vt 0.966797 0.500000
vt 0.966797 0.500000
vt 0.884766 0.500000
vt 0.330078 0.500000
vt 0.353516 0.500000
vt 0.884766 0.500000
vt 0.330078 0.500000
vt 0.255859 0.500000
vt 0.767578 0.500000
vt 0.787109 0.500000
vt 0.564453 0.500000
vt 0.580078 0.500000
vt 0.681641 0.500000
vt 0.564453 0.500000
vt 0.462891 0.500000
vt 0.564453 0.500000
vt 0.787109 0.500000
vt 0.029297 0.500000
vt 0.462891 0.500000
vt 0.787109 0.500000
vt 0.681641 0.500000
vt 0.986328 0.500000
vt 0.029297 0.500000
vt 0.681641 0.500000
vt 0.580078 0.500000
vt 0.966797 0.500000
vt 0.986328 0.500000
vt 0.580078 0.500000
vt 0.521484 0.500000
vt 0.228516 0.500000
vt 0.966797 0.500000
vt 0.521484 0.500000
vt 0.974609 0.500000
vt 0.708984 0.500000
vt 0.228516 0.500000
vt 0.462891 0.500000
vt 0.197266 0.500000
vt 0.462891 0.500000
vt 0.029297 0.500000
vt 0.923828 0.500000
vt 0.197266 0.500000
vt 0.029297 0.500000
vt 0.986328 0.500000
vt 0.498047 0.500000
vt 0.923828 0.500000
vt 0.986328 0.500000
vt 0.966797 0.500000
vt 0.892578 0.500000
vt 0.498047 0.500000
vt 0.966797 0.500000
vt 0.228516 0.500000
vt 0.681641 0.500000
vt 0.892578 0.500000
vt 0.228516 0.500000
vt 0.708984 0.500000
vt 0.802734 0.500000
vt 0.681641 0.500000
vt 0.197266 0.500000
vt 0.064453 0.500000
vt 0.197266 0.500000
vt 0.923828 0.500000
vt 0.326172 0.500000
vt 0.064453 0.500000
vt 0.923828 0.500000
vt 0.498047 0.500000
vt 0.927734 0.500000
vt 0.326172 0.500000
vt 0.498047 0.500000
vt 0.892578 0.500000
vt 0.080078 0.500000
vt 0.927734 0.500000
vt 0.892578 0.500000
vt 0.681641 0.500000
vt 0.107422 0.500000
vt 0.080078 0.500000
vt 0.681641 0.500000
vt 0.802734 0.500000
vt 0.677734 0.500000
vt 0.107422 0.500000
vt 0.802734 0.500000
vt 0.677734 0.500000
vt 0.064453 0.500000
vt 0.474609 0.500000
vt 0.064453 0.500000
vt 0.326172 0.500000
vt 0.416016 0.500000
vt 0.474609 0.500000
vt 0.326172 0.500000
vt 0.927734 0.500000
vt 0.181641 0.500000
vt 0.416016 0.500000
vt 0.927734 0.500000
vt 0.080078 0.500000
vt 0.560547 0.500000
vt 0.181641 0.500000
vt 0.080078 0.500000
vt 0.107422 0.500000
vt 0.673828 0.500000
vt 0.560547 0.500000
vt 0.107422 0.500000
vt 0.677734 0.500000
vt 0.541016 0.500000
vt 0.673828 0.500000
vt 0.474609 0.500000
vt 0.115234 0.500000
vt 0.474609 0.500000
vt 0.416016 0.500000
vt 0.716797 0.500000
vt 0.115234 0.500000
vt 0.416016 0.500000
vt 0.181641 0.500000
vt 0.650391 0.500000
vt 0.716797 0.500000
vt 0.181641 0.500000
vt 0.560547 0.500000
vt 0.634766 0.500000
vt 0.650391 0.500000
vt 0.560547 0.500000
vt 0.673828 0.500000
vt 0.611328 0.500000
vt 0.634766 0.500000
vt 0.673828 0.500000
vt 0.541016 0.500000
vt 0.041016 0.500000
vt 0.611328 0.500000
vt 0.115234 0.500000
vt 0.716797 0.500000
vt 0.806641 0.500000
vt 0.416016 0.500000
vt 0.716797 0.500000
vt 0.650391 0.500000
vt 0.349609 0.500000
vt 0.806641 0.500000
vt 0.650391 0.500000
vt 0.634766 0.500000
vt 0.966797 0.500000
vt 0.349609 0.500000
vt 0.634766 0.500000
vt 0.611328 0.500000
vt 0.353516 0.500000
vt 0.966797 0.500000
vt 0.611328 0.500000
vt 0.041016 0.500000
vt 0.255859 0.500000
vt 0.353516 0.500000
vt 0.806641 0.500000
vt 0.349609 0.500000
vt 0.349609 0.500000
vt 0.966797 0.500000
vt 0.966797 0.500000
vt 0.353516 0.500000
vt 0.353516 0.500000
vt 0.255859 0.500000
vt 0.564453 0.500000
vt 0.052734 0.500000
vt 0.787109 0.500000
vt 0.681641 0.500000
vt 0.787109 0.500000
vt 0.521484 0.500000
vt 0.580078 0.500000
vt 0.787109 0.500000
vt 0.681641 0.500000
vt 0.986328 0.500000
vt 0.029297 0.500000
vt 0.681641 0.500000
vt 0.580078 0.500000
vt 0.966797 0.500000
vt 0.986328 0.500000
vt 0.580078 0.500000
vt 0.521484 0.500000
vt 0.228516 0.500000
vt 0.966797 0.500000
vt 0.521484 0.500000
vt 0.974609 0.500000
vt 0.708984 0.500000
vt 0.228516 0.500000
vt 0.029297 0.500000
vt 0.986328 0.500000
vt 0.498047 0.500000
vt 0.923828 0.500000
vt 0.986328 0.500000
vt 0.966797 0.500000
vt 0.892578 0.500000
vt 0.498047 0.500000
vt 0.966797 0.500000
vt 0.228516 0.500000
vt 0.681641 0.500000
vt 0.892578 0.500000
vt 0.228516 0.500000
vt 0.708984 0.500000
vt 0.802734 0.500000
vt 0.681641 0.500000
vt 0.923828 0.500000
vt 0.498047 0.500000
vt 0.927734 0.500000
vt 0.326172 0.500000
vt 0.498047 0.500000
vt 0.892578 0.500000
vt 0.080078 0.500000
vt 0.927734 0.500000
vt 0.892578 0.500000
vt 0.681641 0.500000
vt 0.107422 0.500000
vt 0.080078 0.500000
vt 0.681641 0.500000
vt 0.802734 0.500000
vt 0.677734 0.500000
vt 0.107422 0.500000
vt 0.802734 0.500000
vt 0.677734 0.500000
vt 0.326172 0.500000
vt 0.927734 0.500000
vt 0.181641 0.500000
vt 0.416016 0.500000
vt 0.927734 0.500000
vt 0.080078 0.500000
vt 0.560547 0.500000
vt 0.181641 0.500000
vt 0.080078 0.500000
vt 0.107422 0.500000
vt 0.673828 0.500000
vt 0.560547 0.500000
vt 0.107422 0.500000
vt 0.677734 0.500000
vt 0.541016 0.500000
vt 0.673828 0.500000
vt 0.560547 0.500000
vt 0.673828 0.500000
vt 0.611328 0.500000
vt 0.634766 0.500000
vt 0.673828 0.500000
vt 0.541016 0.500000
vt 0.041016 0.500000
vt 0.611328 0.500000
vt 0.041016 0.500000
vt 0.255859 0.500000
vt 0.052734 0.500000
vt 0.431641 0.500000
vt 0.431641 0.500000
vt 0.943359 0.500000
vt 0.431641 0.500000
vt 0.943359 0.500000
vt 0.158203 0.500000
vt 0.162109 0.500000
vt 0.158203 0.500000
vt 0.162109 0.500000
vt 0.162109 0.500000
vt 0.478516 0.500000
vt 0.478516 0.500000
vt 0.240234 0.500000
vt 0.478516 0.500000
vt 0.462891 0.500000
vt 0.240234 0.500000
vt 0.240234 0.500000
vt 0.251953 0.500000
vt 0.033203 0.500000
vt 0.462891 0.500000
vt 0.251953 0.500000
vt 0.884766 0.500000
vt 0.033203 0.500000
vt 0.033203 0.500000
vt 0.884766 0.500000
s 0
usemtl palette.048
f 41/103/1 67/161/1 40/101/1
f 3/5/1 73/183/1 67/162/1
f 3/4/1 67/161/1 41/103/1
f 4/9/1 79/205/1 73/184/1
f 4/8/1 73/183/1 3/5/1
f 5/13/1 86/229/1 79/206/1
f 5/12/1 79/205/1 4/9/1
f 6/17/1 92/251/1 86/230/1
f 6/16/1 86/229/1 5/13/1
f 7/21/1 1/1/1 92/252/1
f 7/20/1 92/251/1 6/17/1
f 8/25/1 2/3/1 1/2/1
f 8/24/1 1/1/1 7/21/1
f 53/129/1 2/3/1 8/25/1
f 42/104/1 3/7/1 41/102/1
f 130/385/1 4/11/1 3/6/1
f 130/384/1 3/7/1 42/104/1
f 131/387/1 5/15/1 4/10/1
f 131/386/1 4/11/1 130/385/1
f 9/29/1 6/19/1 5/14/1
f 9/28/1 5/15/1 131/387/1
f 133/391/1 7/23/1 6/18/1
f 133/390/1 6/19/1 9/29/1
f 135/395/1 8/27/1 7/22/1
f 135/394/1 7/23/1 133/391/1
f 136/397/1 53/128/1 8/26/1
f 136/396/1 8/27/1 135/395/1
f 54/130/1 53/128/1 136/397/1
f 11/33/1 10/30/1 64/156/1
f 12/34/1 10/30/1 11/33/1
f 107/302/2 13/38/2 18/56/2
f 13/37/2 14/42/2 19/58/2
f 18/56/2 13/38/2 19/57/2
f 14/41/2 15/46/2 132/389/2
f 19/58/2 14/42/2 132/388/2
f 15/45/2 16/50/2 20/60/2
f 132/389/2 15/46/2 20/59/2
f 16/49/2 17/53/2 134/393/2
f 20/60/2 16/50/2 134/392/2
f 134/393/2 17/53/2 46/111/2
f 21/61/2 22/65/2 49/120/2
f 49/120/2 22/65/2 139/405/2
f 23/68/2 24/73/2 52/127/2
f 52/127/2 24/73/2 25/75/2
f 39/100/2 26/76/2 32/88/2
f 26/77/2 27/78/2 33/90/2
f 32/88/2 26/76/2 33/89/2
f 27/79/2 28/80/2 34/92/2
f 33/90/2 27/78/2 34/91/2
f 28/81/2 85/227/2 35/94/2
f 34/92/2 28/80/2 35/93/2
f 85/228/2 29/82/2 122/357/2
f 35/94/2 85/227/2 122/356/2
f 29/83/2 30/84/2 36/96/2
f 122/357/2 29/82/2 36/95/2
f 30/85/2 31/86/2 37/98/2
f 36/96/2 30/84/2 37/97/2
f 31/87/2 63/155/2 129/383/2
f 37/98/2 31/86/2 129/382/2
f 129/383/2 63/155/2 38/99/2
f 39/100/3 11/33/3 64/156/3
f 32/88/3 11/33/3 39/100/3
f 65/158/3 41/103/3 40/101/3
f 107/302/3 42/104/3 41/102/3
f 107/301/3 41/103/3 65/158/3
f 18/56/3 42/104/3 107/302/3
f 43/106/3 107/303/3 65/157/3
f 108/305/3 107/303/3 43/106/3
f 66/160/3 108/304/3 43/105/3
f 44/108/3 108/304/3 66/160/3
f 45/110/3 44/107/3 66/159/3
f 109/307/3 44/107/3 45/110/3
f 10/32/3 109/306/3 45/109/3
f 12/36/3 109/306/3 10/32/3
f 47/114/3 46/112/3 17/54/3
f 48/119/3 46/112/3 47/114/3
f 21/61/3 48/118/3 47/115/3
f 49/120/3 48/118/3 21/61/3
f 50/121/3 139/406/3 22/66/3
f 51/126/3 139/406/3 50/121/3
f 23/68/3 51/125/3 50/122/3
f 52/127/3 51/125/3 23/68/3
f 2/3/4 53/129/4 55/131/4
f 53/128/4 54/130/4 56/134/4
f 55/131/4 53/129/4 56/133/4
f 56/134/4 54/130/4 57/137/4
f 55/132/4 56/136/4 103/293/4
f 56/135/4 57/138/4 58/140/4
f 103/293/4 56/136/4 58/139/4
f 58/140/4 57/138/4 59/143/4
f 103/294/4 58/142/4 104/295/4
f 58/141/4 59/144/4 60/146/4
f 104/295/4 58/142/4 60/145/4
f 60/146/4 59/144/4 140/408/4
f 104/296/4 60/148/4 105/297/4
f 60/147/4 140/409/4 61/150/4
f 105/297/4 60/148/4 61/149/4
f 61/150/4 140/409/4 62/153/4
f 105/298/4 61/152/4 106/299/4
f 61/151/4 62/154/4 24/73/4
f 106/299/4 61/152/4 24/72/4
f 24/73/4 62/154/4 25/75/4
f 106/300/4 24/74/4 63/155/4
f 63/155/4 24/74/4 38/99/4
f 10/30/5 39/100/5 64/156/5
f 26/76/5 39/100/5 10/30/5
f 67/161/5 65/158/5 40/101/5
f 68/164/5 43/106/5 65/157/5
f 68/163/5 65/158/5 67/161/5
f 69/168/5 66/160/5 43/105/5
f 69/167/5 43/106/5 68/164/5
f 70/172/5 45/110/5 66/159/5
f 70/171/5 66/160/5 69/168/5
f 71/176/5 10/32/5 45/109/5
f 71/175/5 45/110/5 70/172/5
f 72/180/5 26/77/5 10/31/5
f 72/179/5 10/32/5 71/176/5
f 27/78/5 26/77/5 72/180/5
f 73/183/5 68/166/5 67/162/5
f 74/186/5 69/170/5 68/165/5
f 74/185/5 68/166/5 73/183/5
f 75/190/5 70/174/5 69/169/5
f 75/189/5 69/170/5 74/186/5
f 76/194/5 71/178/5 70/173/5
f 76/193/5 70/174/5 75/190/5
f 77/198/5 72/182/5 71/177/5
f 77/197/5 71/178/5 76/194/5
f 78/202/5 27/79/5 72/181/5
f 78/201/5 72/182/5 77/198/5
f 28/80/5 27/79/5 78/202/5
f 79/205/5 74/188/5 73/184/5
f 80/208/5 75/192/5 74/187/5
f 80/207/5 74/188/5 79/205/5
f 81/212/5 76/196/5 75/191/5
f 81/211/5 75/192/5 80/208/5
f 82/216/5 77/200/5 76/195/5
f 82/215/5 76/196/5 81/212/5
f 83/220/5 78/204/5 77/199/5
f 83/219/5 77/200/5 82/216/5
f 84/224/5 28/81/5 78/203/5
f 84/223/5 78/204/5 83/220/5
f 85/227/5 28/81/5 84/224/5
f 86/229/5 80/210/5 79/206/5
f 87/232/5 81/214/5 80/209/5
f 87/231/5 80/210/5 86/229/5
f 88/236/5 82/218/5 81/213/5
f 88/235/5 81/214/5 87/232/5
f 89/240/5 83/222/5 82/217/5
f 89/239/5 82/218/5 88/236/5
f 90/244/5 84/226/5 83/221/5
f 90/243/5 83/222/5 89/240/5
f 91/248/5 85/228/5 84/225/5
f 91/247/5 84/226/5 90/244/5
f 29/82/5 85/228/5 91/248/5
f 92/251/5 87/234/5 86/230/5
f 93/254/5 88/238/5 87/233/5
f 93/253/5 87/234/5 92/251/5
f 94/258/5 89/242/5 88/237/5
f 94/257/5 88/238/5 93/254/5
f 95/262/5 90/246/5 89/241/5
f 95/261/5 89/242/5 94/258/5
f 96/266/5 91/250/5 90/245/5
f 96/265/5 90/246/5 95/262/5
f 97/270/5 29/83/5 91/249/5
f 97/269/5 91/250/5 96/266/5
f 30/84/5 29/83/5 97/270/5
f 1/1/5 93/256/5 92/252/5
f 98/274/5 94/260/5 93/255/5
f 98/273/5 93/256/5 1/1/5
f 99/278/5 95/264/5 94/259/5
f 99/277/5 94/260/5 98/274/5
f 100/282/5 96/268/5 95/263/5
f 100/281/5 95/264/5 99/278/5
f 101/286/5 97/272/5 96/267/5
f 101/285/5 96/268/5 100/282/5
f 102/290/5 30/85/5 97/271/5
f 102/289/5 97/272/5 101/286/5
f 31/86/5 30/85/5 102/290/5
f 2/3/5 98/276/5 1/2/5
f 55/132/5 99/280/5 98/275/5
f 55/131/5 98/276/5 2/3/5
f 103/294/5 100/284/5 99/279/5
f 103/293/5 99/280/5 55/132/5
f 104/296/5 101/288/5 100/283/5
f 104/295/5 100/284/5 103/294/5
f 105/298/5 102/292/5 101/287/5
f 105/297/5 101/288/5 104/296/5
f 106/300/5 31/87/5 102/291/5
f 106/299/5 102/292/5 105/298/5
f 63/155/5 31/87/5 106/300/5
f 11/33/6 32/88/6 12/34/6
f 12/34/6 32/88/6 33/89/6
f 107/303/6 108/305/6 13/39/6
f 108/304/6 44/108/6 110/309/6
f 13/39/6 108/305/6 110/308/6
f 44/107/6 109/307/6 111/313/6
f 110/309/6 44/108/6 111/312/6
f 109/306/6 12/36/6 112/317/6
f 111/313/6 109/307/6 112/316/6
f 12/35/6 33/90/6 113/321/6
f 112/317/6 12/36/6 113/320/6
f 113/321/6 33/90/6 34/91/6
f 13/40/6 110/311/6 14/43/6
f 110/310/6 111/315/6 114/325/6
f 14/43/6 110/311/6 114/324/6
f 111/314/6 112/319/6 115/329/6
f 114/325/6 111/315/6 115/328/6
f 112/318/6 113/323/6 116/333/6
f 115/329/6 112/319/6 116/332/6
f 113/322/6 34/92/6 117/337/6
f 116/333/6 113/323/6 117/336/6
f 117/337/6 34/92/6 35/93/6
f 14/44/6 114/327/6 15/47/6
f 114/326/6 115/331/6 118/341/6
f 15/47/6 114/327/6 118/340/6
f 115/330/6 116/335/6 119/345/6
f 118/341/6 115/331/6 119/344/6
f 116/334/6 117/339/6 120/349/6
f 119/345/6 116/335/6 120/348/6
f 117/338/6 35/94/6 121/353/6
f 120/349/6 117/339/6 121/352/6
f 121/353/6 35/94/6 122/356/6
f 15/48/6 118/343/6 16/51/6
f 118/342/6 119/347/6 123/359/6
f 16/51/6 118/343/6 123/358/6
f 119/346/6 120/351/6 124/363/6
f 123/359/6 119/347/6 124/362/6
f 120/350/6 121/355/6 125/367/6
f 124/363/6 120/351/6 125/366/6
f 121/354/6 122/357/6 126/371/6
f 125/367/6 121/355/6 126/370/6
f 126/371/6 122/357/6 36/95/6
f 16/52/6 123/361/6 17/55/6
f 123/360/6 124/365/6 47/117/6
f 17/55/6 123/361/6 47/116/6
f 124/364/6 125/369/6 21/63/6
f 47/117/6 124/365/6 21/62/6
f 125/368/6 126/373/6 127/375/6
f 21/63/6 125/369/6 127/374/6
f 126/372/6 36/96/6 128/379/6
f 127/375/6 126/373/6 128/378/6
f 128/379/6 36/96/6 37/97/6
f 21/64/6 127/377/6 22/67/6
f 127/376/6 128/381/6 50/124/6
f 22/67/6 127/377/6 50/123/6
f 128/380/6 37/98/6 23/70/6
f 50/124/6 128/381/6 23/69/6
f 23/70/6 37/98/6 129/382/6
f 23/71/6 129/383/6 24/74/6
f 24/74/6 129/383/6 38/99/6
f 42/104/6 18/56/6 130/384/6
f 130/384/6 18/56/6 19/57/6
f 130/385/6 19/58/6 131/386/6
f 131/386/6 19/58/6 132/388/6
f 131/387/6 132/389/6 9/28/6
f 9/28/6 132/389/6 20/59/6
f 9/29/6 20/60/6 133/390/6
f 133/390/6 20/60/6 134/392/6
f 133/391/6 134/393/6 135/394/6
f 135/394/6 134/393/6 46/111/6
f 135/395/6 46/113/6 136/396/6
f 46/112/6 48/119/6 137/400/6
f 136/396/6 46/113/6 137/398/6
f 48/118/6 49/120/6 138/402/6
f 137/400/6 48/119/6 138/401/6
f 138/402/6 49/120/6 139/405/6
f 136/397/6 137/400/6 54/130/6
f 137/399/6 138/404/6 57/138/6
f 54/130/6 137/400/6 57/137/6
f 138/403/6 139/407/6 59/144/6
f 57/138/6 138/404/6 59/143/6
f 139/406/6 51/126/6 140/409/6
f 59/144/6 139/407/6 140/408/6
f 51/125/6 52/127/6 62/154/6
f 140/409/6 51/126/6 62/153/6
f 62/154/6 52/127/6 25/75/6
