# Blender 3.4.1
# www.blender.org
mtllib short_wing_blue.mtl
o Untitled
v 0.500000 -0.000000 0.400000
v 0.400000 -0.100000 0.300000
v 0.300000 -0.000000 0.300000
v 0.100000 -0.000000 0.300000
v 0.000000 -0.000000 0.300000
v 0.100000 0.100000 0.300000
v 0.200000 0.000000 -0.200000
v 0.100000 0.000000 -0.200000
v 0.400000 0.000000 -0.300000
v 0.400000 0.100000 -0.300000
v 0.500000 -0.100000 -0.400000
v 0.200000 -0.100000 -0.400000
v 0.100000 -0.100000 -0.400000
v 0.000000 -0.100000 -0.400000
v 0.400000 0.000000 -0.400000
v 0.300000 0.000000 -0.400000
v 0.200000 0.000000 -0.400000
v 0.100000 0.000000 -0.400000
v 0.500000 0.100000 -0.400000
v 0.400000 0.100000 -0.400000
v 0.300000 0.100000 -0.400000
v 0.200000 0.100000 -0.400000
v 0.100000 0.100000 -0.400000
v 0.600000 -0.100000 0.400000
v 0.600000 -0.000000 0.400000
v 0.600000 -0.000000 0.300000
v 0.600000 0.000000 0.000000
v 0.600000 -0.100000 -0.100000
v 0.600000 0.000000 -0.100000
v 0.600000 -0.100000 -0.200000
v 0.600000 0.000000 -0.200000
v 0.600000 0.000000 -0.300000
v 0.600000 0.000000 -0.400000
v 0.500000 0.100000 -0.300000
v 0.300000 0.000000 -0.200000
v 0.300000 0.100000 -0.200000
v 0.300000 0.000000 -0.300000
v 0.100000 -0.000000 0.200000
v 0.100000 -0.000000 0.100000
v 0.100000 0.100000 0.100000
v 0.100000 0.000000 0.000000
v 0.100000 0.000000 -0.100000
v 0.100000 0.100000 -0.200000
v 0.500000 -0.100000 0.400000
v 0.500000 -0.100000 0.300000
v 0.500000 -0.000000 0.300000
v 0.000000 -0.100000 0.200000
v 0.000000 -0.000000 0.200000
v 0.000000 -0.100000 0.100000
v 0.000000 -0.000000 0.100000
v 0.000000 -0.100000 -0.000000
v 0.000000 0.000000 0.000000
v 0.000000 0.000000 -0.100000
v 0.000000 0.000000 -0.200000
v 0.000000 0.100000 -0.200000
v 0.000000 0.000000 -0.300000
v 0.000000 0.000000 -0.400000
v 0.000000 0.100000 -0.400000
v 0.600000 -0.100000 0.300000
v 0.600000 -0.100000 0.200000
v 0.600000 -0.100000 0.100000
v 0.600000 -0.100000 -0.000000
v 0.600000 -0.100000 -0.300000
v 0.600000 -0.100000 -0.400000
v 0.500000 -0.100000 0.200000
v 0.500000 -0.100000 0.100000
v 0.500000 -0.100000 -0.000000
v 0.500000 -0.100000 -0.100000
v 0.500000 -0.100000 -0.200000
v 0.500000 -0.100000 -0.300000
v 0.400000 -0.100000 0.200000
v 0.400000 -0.100000 0.100000
v 0.400000 -0.100000 -0.000000
v 0.400000 -0.100000 -0.100000
v 0.400000 -0.100000 -0.200000
v 0.400000 -0.100000 -0.300000
v 0.400000 -0.100000 -0.400000
v 0.300000 -0.100000 0.300000
v 0.300000 -0.100000 0.200000
v 0.300000 -0.100000 0.100000
v 0.300000 -0.100000 -0.000000
v 0.300000 -0.100000 -0.100000
v 0.300000 -0.100000 -0.200000
v 0.300000 -0.100000 -0.300000
v 0.300000 -0.100000 -0.400000
v 0.200000 -0.100000 0.300000
v 0.200000 -0.100000 0.200000
v 0.200000 -0.100000 0.100000
v 0.200000 -0.100000 -0.000000
v 0.200000 -0.100000 -0.100000
v 0.200000 -0.100000 -0.200000
v 0.200000 -0.100000 -0.300000
v 0.100000 -0.100000 0.300000
v 0.100000 -0.100000 0.200000
v 0.100000 -0.100000 0.100000
v 0.100000 -0.100000 -0.000000
v 0.100000 -0.100000 -0.100000
v 0.100000 -0.100000 -0.200000
v 0.100000 -0.100000 -0.300000
v 0.000000 -0.100000 0.300000
v 0.000000 -0.100000 -0.100000
v 0.000000 -0.100000 -0.200000
v 0.000000 -0.100000 -0.300000
v 0.600000 -0.000000 0.200000
v 0.600000 -0.000000 0.100000
v 0.500000 -0.000000 0.200000
v 0.500000 -0.000000 0.100000
v 0.500000 0.000000 0.000000
v 0.500000 0.000000 -0.100000
v 0.500000 0.000000 -0.200000
v 0.500000 0.000000 -0.300000
v 0.500000 0.000000 -0.400000
v 0.400000 -0.000000 0.300000
v 0.400000 -0.000000 0.200000
v 0.400000 -0.000000 0.100000
v 0.400000 0.000000 0.000000
v 0.400000 0.000000 -0.100000
v 0.400000 0.000000 -0.200000
v 0.300000 -0.000000 0.200000
v 0.300000 -0.000000 0.100000
v 0.300000 0.000000 0.000000
v 0.300000 0.000000 -0.100000
v 0.200000 -0.000000 0.300000
v 0.200000 -0.000000 0.200000
v 0.200000 -0.000000 0.100000
v 0.200000 0.000000 0.000000
v 0.200000 0.000000 -0.100000
v 0.300000 0.100000 -0.300000
v 0.200000 0.100000 -0.200000
v 0.200000 0.100000 -0.300000
v 0.100000 0.100000 0.200000
v 0.100000 0.100000 0.000000
v 0.100000 0.100000 -0.100000
v 0.100000 0.100000 -0.300000
v 0.000000 0.100000 0.300000
v 0.000000 0.100000 0.200000
v 0.000000 0.100000 0.100000
v 0.000000 0.100000 0.000000
v 0.000000 0.100000 -0.100000
v 0.000000 0.100000 -0.300000
vn -0.0000 -0.0000 1.0000
vn -0.0000 -0.0000 -1.0000
vn 1.0000 -0.0000 -0.0000
vn -1.0000 -0.0000 -0.0000
vn -0.0000 -1.0000 -0.0000
vn -0.0000 1.0000 -0.0000
vt 0.658203 0.500000
vt 0.576172 0.500000
vt 0.841797 0.500000
vt 0.841797 0.500000
vt 0.287109 0.500000
vt 0.189453 0.500000
vt 0.169922 0.500000
vt 0.849609 0.500000
vt 0.169922 0.500000
vt 0.189453 0.500000
vt 0.169922 0.500000
vt 0.599609 0.500000
vt 0.341797 0.500000
vt 0.912109 0.500000
vt 0.865234 0.500000
vt 0.599609 0.500000
vt 0.861328 0.500000
vt 0.865234 0.500000
vt 0.126953 0.500000
vt 0.119141 0.500000
vt 0.416016 0.500000
vt 0.205078 0.500000
vt 0.119141 0.500000
vt 0.126953 0.500000
vt 0.490234 0.500000
vt 0.896484 0.500000
vt 0.240234 0.500000
vt 0.740234 0.500000
vt 0.740234 0.500000
vt 0.599609 0.500000
vt 0.599609 0.500000
vt 0.896484 0.500000
vt 0.962891 0.500000
vt 0.126953 0.500000
vt 0.119141 0.500000
vt 0.962891 0.500000
vt 0.240234 0.500000
vt 0.541016 0.500000
vt 0.126953 0.500000
vt 0.240234 0.500000
vt 0.740234 0.500000
vt 0.705078 0.500000
vt 0.541016 0.500000
vt 0.740234 0.500000
vt 0.599609 0.500000
vt 0.669922 0.500000
vt 0.705078 0.500000
vt 0.119141 0.500000
vt 0.119141 0.500000
vt 0.126953 0.500000
vt 0.126953 0.500000
vt 0.541016 0.500000
vt 0.541016 0.500000
vt 0.705078 0.500000
vt 0.705078 0.500000
vt 0.669922 0.500000
vt 0.658203 0.500000
vt 0.658203 0.500000
vt 0.951172 0.500000
vt 0.658203 0.500000
vt 0.673828 0.500000
vt 0.087891 0.500000
vt 0.939453 0.500000
vt 0.673828 0.500000
vt 0.939453 0.500000
vt 0.673828 0.500000
vt 0.619141 0.500000
vt 0.939453 0.500000
vt 0.619141 0.500000
vt 0.939453 0.500000
vt 0.490234 0.500000
vt 0.619141 0.500000
vt 0.490234 0.500000
vt 0.119141 0.500000
vt 0.341797 0.500000
vt 0.943359 0.500000
vt 0.205078 0.500000
vt 0.912109 0.500000
vt 0.341797 0.500000
vt 0.126953 0.500000
vt 0.341797 0.500000
vt 0.205078 0.500000
vt 0.169922 0.500000
vt 0.087891 0.500000
vt 0.849609 0.500000
vt 0.736328 0.500000
vt 0.087891 0.500000
vt 0.525391 0.500000
vt 0.736328 0.500000
vt 0.923828 0.500000
vt 0.525391 0.500000
vt 0.087891 0.500000
vt 0.525391 0.500000
vt 0.408203 0.500000
vt 0.923828 0.500000
vt 0.216797 0.500000
vt 0.408203 0.500000
vt 0.861328 0.500000
vt 0.216797 0.500000
vt 0.865234 0.500000
vt 0.599609 0.500000
vt 0.025391 0.500000
vt 0.861328 0.500000
vt 0.658203 0.500000
vt 0.658203 0.500000
vt 0.951172 0.500000
vt 0.576172 0.500000
vt 0.658203 0.500000
vt 0.951172 0.500000
vt 0.576172 0.500000
vt 0.189453 0.500000
vt 0.138672 0.500000
vt 0.189453 0.500000
vt 0.169922 0.500000
vt 0.087891 0.500000
vt 0.138672 0.500000
vt 0.138672 0.500000
vt 0.314453 0.500000
vt 0.138672 0.500000
vt 0.087891 0.500000
vt 0.525391 0.500000
vt 0.314453 0.500000
vt 0.314453 0.500000
vt 0.529297 0.500000
vt 0.314453 0.500000
vt 0.525391 0.500000
vt 0.408203 0.500000
vt 0.529297 0.500000
vt 0.529297 0.500000
vt 0.408203 0.500000
vt 0.861328 0.500000
vt 0.744141 0.500000
vt 0.744141 0.500000
vt 0.861328 0.500000
vt 0.025391 0.500000
vt 0.251953 0.500000
vt 0.861328 0.500000
vt 0.025391 0.500000
vt 0.251953 0.500000
vt 0.025391 0.500000
vt 0.669922 0.500000
vt 0.599609 0.500000
vt 0.599609 0.500000
vt 0.669922 0.500000
vt 0.669922 0.500000
vt 0.951172 0.500000
vt 0.658203 0.500000
vt 0.541016 0.500000
vt 0.951172 0.500000
vt 0.087891 0.500000
vt 0.541016 0.500000
vt 0.673828 0.500000
vt 0.087891 0.500000
vt 0.490234 0.500000
vt 0.619141 0.500000
vt 0.490234 0.500000
vt 0.951172 0.500000
vt 0.541016 0.500000
vt 0.955078 0.500000
vt 0.576172 0.500000
vt 0.541016 0.500000
vt 0.087891 0.500000
vt 0.443359 0.500000
vt 0.955078 0.500000
vt 0.087891 0.500000
vt 0.673828 0.500000
vt 0.615234 0.500000
vt 0.443359 0.500000
vt 0.673828 0.500000
vt 0.939453 0.500000
vt 0.880859 0.500000
vt 0.615234 0.500000
vt 0.939453 0.500000
vt 0.619141 0.500000
vt 0.416016 0.500000
vt 0.880859 0.500000
vt 0.619141 0.500000
vt 0.490234 0.500000
vt 0.896484 0.500000
vt 0.416016 0.500000
vt 0.576172 0.500000
vt 0.955078 0.500000
vt 0.177734 0.500000
vt 0.841797 0.500000
vt 0.955078 0.500000
vt 0.443359 0.500000
vt 0.986328 0.500000
vt 0.177734 0.500000
vt 0.443359 0.500000
vt 0.615234 0.500000
vt 0.103516 0.500000
vt 0.986328 0.500000
vt 0.615234 0.500000
vt 0.880859 0.500000
vt 0.943359 0.500000
vt 0.103516 0.500000
vt 0.880859 0.500000
vt 0.416016 0.500000
vt 0.205078 0.500000
vt 0.943359 0.500000
vt 0.416016 0.500000
vt 0.896484 0.500000
vt 0.962891 0.500000
vt 0.205078 0.500000
vt 0.896484 0.500000
vt 0.962891 0.500000
vt 0.841797 0.500000
vt 0.287109 0.500000
vt 0.841797 0.500000
vt 0.177734 0.500000
vt 0.919922 0.500000
vt 0.287109 0.500000
vt 0.177734 0.500000
vt 0.986328 0.500000
vt 0.220703 0.500000
vt 0.919922 0.500000
vt 0.986328 0.500000
vt 0.103516 0.500000
vt 0.572266 0.500000
vt 0.220703 0.500000
vt 0.103516 0.500000
vt 0.943359 0.500000
vt 0.912109 0.500000
vt 0.572266 0.500000
vt 0.943359 0.500000
vt 0.205078 0.500000
vt 0.490234 0.500000
vt 0.912109 0.500000
vt 0.205078 0.500000
vt 0.962891 0.500000
vt 0.240234 0.500000
vt 0.490234 0.500000
vt 0.962891 0.500000
vt 0.240234 0.500000
vt 0.287109 0.500000
vt 0.849609 0.500000
vt 0.287109 0.500000
vt 0.919922 0.500000
vt 0.736328 0.500000
vt 0.849609 0.500000
vt 0.919922 0.500000
vt 0.220703 0.500000
vt 0.923828 0.500000
vt 0.736328 0.500000
vt 0.220703 0.500000
vt 0.572266 0.500000
vt 0.216797 0.500000
vt 0.923828 0.500000
vt 0.572266 0.500000
vt 0.912109 0.500000
vt 0.865234 0.500000
vt 0.216797 0.500000
vt 0.912109 0.500000
vt 0.490234 0.500000
vt 0.529297 0.500000
vt 0.865234 0.500000
vt 0.490234 0.500000
vt 0.240234 0.500000
vt 0.740234 0.500000
vt 0.529297 0.500000
vt 0.849609 0.500000
vt 0.189453 0.500000
vt 0.849609 0.500000
vt 0.736328 0.500000
vt 0.138672 0.500000
vt 0.189453 0.500000
vt 0.736328 0.500000
vt 0.923828 0.500000
vt 0.314453 0.500000
vt 0.138672 0.500000
vt 0.923828 0.500000
vt 0.216797 0.500000
vt 0.529297 0.500000
vt 0.314453 0.500000
vt 0.216797 0.500000
vt 0.865234 0.500000
vt 0.744141 0.500000
vt 0.529297 0.500000
vt 0.865234 0.500000
vt 0.529297 0.500000
vt 0.251953 0.500000
vt 0.744141 0.500000
vt 0.529297 0.500000
vt 0.740234 0.500000
vt 0.599609 0.500000
vt 0.251953 0.500000
vt 0.189453 0.500000
vt 0.529297 0.500000
vt 0.744141 0.500000
vt 0.744141 0.500000
vt 0.251953 0.500000
vt 0.251953 0.500000
vt 0.599609 0.500000
vt 0.541016 0.500000
vt 0.951172 0.500000
vt 0.087891 0.500000
vt 0.541016 0.500000
vt 0.951172 0.500000
vt 0.541016 0.500000
vt 0.955078 0.500000
vt 0.576172 0.500000
vt 0.541016 0.500000
vt 0.087891 0.500000
vt 0.443359 0.500000
vt 0.955078 0.500000
vt 0.087891 0.500000
vt 0.673828 0.500000
vt 0.615234 0.500000
vt 0.443359 0.500000
vt 0.673828 0.500000
vt 0.939453 0.500000
vt 0.880859 0.500000
vt 0.615234 0.500000
vt 0.939453 0.500000
vt 0.619141 0.500000
vt 0.416016 0.500000
vt 0.880859 0.500000
vt 0.119141 0.500000
vt 0.619141 0.500000
vt 0.490234 0.500000
vt 0.416016 0.500000
vt 0.896484 0.500000
vt 0.119141 0.500000
vt 0.490234 0.500000
vt 0.576172 0.500000
vt 0.841797 0.500000
vt 0.576172 0.500000
vt 0.955078 0.500000
vt 0.177734 0.500000
vt 0.841797 0.500000
vt 0.955078 0.500000
vt 0.443359 0.500000
vt 0.986328 0.500000
vt 0.177734 0.500000
vt 0.443359 0.500000
vt 0.615234 0.500000
vt 0.103516 0.500000
vt 0.986328 0.500000
vt 0.615234 0.500000
vt 0.880859 0.500000
vt 0.943359 0.500000
vt 0.103516 0.500000
vt 0.880859 0.500000
vt 0.416016 0.500000
vt 0.205078 0.500000
vt 0.943359 0.500000
vt 0.841797 0.500000
vt 0.177734 0.500000
vt 0.919922 0.500000
vt 0.287109 0.500000
vt 0.177734 0.500000
vt 0.986328 0.500000
vt 0.220703 0.500000
vt 0.919922 0.500000
vt 0.986328 0.500000
vt 0.103516 0.500000
vt 0.572266 0.500000
vt 0.220703 0.500000
vt 0.103516 0.500000
vt 0.943359 0.500000
vt 0.912109 0.500000
vt 0.572266 0.500000
vt 0.287109 0.500000
vt 0.849609 0.500000
vt 0.287109 0.500000
vt 0.919922 0.500000
vt 0.736328 0.500000
vt 0.849609 0.500000
vt 0.919922 0.500000
vt 0.220703 0.500000
vt 0.923828 0.500000
vt 0.736328 0.500000
vt 0.220703 0.500000
vt 0.572266 0.500000
vt 0.216797 0.500000
vt 0.923828 0.500000
vt 0.572266 0.500000
vt 0.912109 0.500000
vt 0.865234 0.500000
vt 0.216797 0.500000
vt 0.126953 0.500000
vt 0.541016 0.500000
vt 0.341797 0.500000
vt 0.341797 0.500000
vt 0.599609 0.500000
vt 0.341797 0.500000
vt 0.541016 0.500000
vt 0.705078 0.500000
vt 0.599609 0.500000
vt 0.087891 0.500000
vt 0.169922 0.500000
vt 0.408203 0.500000
vt 0.525391 0.500000
vt 0.861328 0.500000
vt 0.408203 0.500000
vt 0.599609 0.500000
vt 0.705078 0.500000
vt 0.669922 0.500000
vt 0.025391 0.500000
vt 0.169922 0.500000
vt 0.169922 0.500000
vt 0.087891 0.500000
vt 0.087891 0.500000
vt 0.525391 0.500000
vt 0.525391 0.500000
vt 0.408203 0.500000
vt 0.408203 0.500000
vt 0.861328 0.500000
vt 0.025391 0.500000
vt 0.669922 0.500000
s 0
usemtl palette.045
f 25/58/1 44/104/1 24/57/1
f 1/1/1 44/104/1 25/58/1
f 46/110/1 2/2/1 45/107/1
f 113/326/1 78/207/1 2/3/1
f 113/325/1 2/2/1 46/110/1
f 3/5/1 86/235/1 78/208/1
f 3/4/1 78/207/1 113/326/1
f 123/364/1 93/261/1 86/236/1
f 123/363/1 86/235/1 3/5/1
f 4/6/1 100/287/1 93/262/1
f 4/8/1 93/261/1 123/364/1
f 5/10/1 100/287/1 4/6/1
f 6/11/1 5/9/1 4/7/1
f 135/400/1 5/9/1 6/11/1
f 36/79/1 7/13/1 35/75/1
f 129/385/1 8/16/1 7/12/1
f 129/384/1 7/13/1 36/79/1
f 43/101/1 8/16/1 129/385/1
f 34/74/1 9/20/1 111/318/1
f 10/24/1 37/80/1 9/19/1
f 10/23/1 9/20/1 34/74/1
f 128/381/1 37/80/1 10/24/1
f 64/156/2 11/25/2 33/73/2
f 11/26/2 77/205/2 112/322/2
f 33/73/2 11/25/2 112/324/2
f 77/206/2 85/233/2 15/33/2
f 112/322/2 77/205/2 15/32/2
f 85/234/2 12/27/2 16/37/2
f 15/33/2 85/233/2 16/36/2
f 12/28/2 13/29/2 17/41/2
f 16/37/2 12/27/2 17/40/2
f 13/30/2 14/31/2 18/45/2
f 17/41/2 13/29/2 18/44/2
f 18/45/2 14/31/2 57/143/2
f 112/323/2 15/35/2 19/48/2
f 15/34/2 16/39/2 20/50/2
f 19/48/2 15/35/2 20/49/2
f 16/38/2 17/43/2 21/52/2
f 20/50/2 16/39/2 21/51/2
f 17/42/2 18/47/2 22/54/2
f 21/52/2 17/43/2 22/53/2
f 18/46/2 57/144/2 23/56/2
f 22/54/2 18/47/2 23/55/2
f 23/56/2 57/144/2 58/145/2
f 59/147/3 25/58/3 24/57/3
f 26/60/3 25/58/3 59/147/3
f 60/149/3 26/59/3 59/146/3
f 104/295/3 26/59/3 60/149/3
f 61/151/3 104/294/3 60/148/3
f 105/297/3 104/294/3 61/151/3
f 62/153/3 105/296/3 61/150/3
f 27/62/3 105/296/3 62/153/3
f 28/64/3 27/61/3 62/152/3
f 29/66/3 27/61/3 28/64/3
f 30/68/3 29/65/3 28/63/3
f 31/70/3 29/65/3 30/68/3
f 63/155/3 31/69/3 30/67/3
f 32/72/3 31/69/3 63/155/3
f 64/156/3 32/71/3 63/154/3
f 33/73/3 32/71/3 64/156/3
f 112/323/3 34/74/3 111/318/3
f 19/48/3 34/74/3 112/323/3
f 37/81/3 36/79/3 35/75/3
f 128/383/3 36/79/3 37/81/3
f 38/83/3 6/11/3 4/7/3
f 131/391/3 6/11/3 38/83/3
f 39/87/3 131/390/3 38/84/3
f 40/92/3 131/390/3 39/87/3
f 41/93/3 40/91/3 39/88/3
f 132/393/3 40/91/3 41/93/3
f 42/97/3 132/392/3 41/94/3
f 133/395/3 132/392/3 42/97/3
f 8/17/3 133/394/3 42/98/3
f 43/103/3 133/394/3 8/17/3
f 44/104/4 1/1/4 45/105/4
f 45/105/4 1/1/4 46/108/4
f 100/287/4 5/10/4 47/111/4
f 5/9/4 135/400/4 48/114/4
f 47/111/4 5/10/4 48/113/4
f 48/114/4 135/400/4 136/401/4
f 47/112/4 48/116/4 49/117/4
f 48/115/4 136/402/4 50/120/4
f 49/117/4 48/116/4 50/119/4
f 50/120/4 136/402/4 137/403/4
f 49/118/4 50/122/4 51/123/4
f 50/121/4 137/404/4 52/126/4
f 51/123/4 50/122/4 52/125/4
f 52/126/4 137/404/4 138/405/4
f 51/124/4 52/128/4 101/288/4
f 52/127/4 138/406/4 53/130/4
f 101/288/4 52/128/4 53/129/4
f 53/130/4 138/406/4 139/407/4
f 101/289/4 53/132/4 102/290/4
f 53/131/4 139/408/4 54/134/4
f 102/290/4 53/132/4 54/133/4
f 54/134/4 139/408/4 55/137/4
f 102/291/4 54/136/4 103/292/4
f 54/135/4 55/138/4 56/140/4
f 103/292/4 54/136/4 56/139/4
f 56/140/4 55/138/4 140/409/4
f 103/293/4 56/142/4 14/31/4
f 56/141/4 140/410/4 57/144/4
f 14/31/4 56/142/4 57/143/4
f 57/144/4 140/410/4 58/145/4
f 44/104/5 59/147/5 24/57/5
f 45/106/5 60/149/5 59/146/5
f 45/105/5 59/147/5 44/104/5
f 65/158/5 61/151/5 60/148/5
f 65/157/5 60/149/5 45/106/5
f 66/162/5 62/153/5 61/150/5
f 66/161/5 61/151/5 65/158/5
f 67/166/5 28/64/5 62/152/5
f 67/165/5 62/153/5 66/162/5
f 68/170/5 30/68/5 28/63/5
f 68/169/5 28/64/5 67/166/5
f 69/174/5 63/155/5 30/67/5
f 69/173/5 30/68/5 68/170/5
f 70/178/5 64/156/5 63/154/5
f 70/177/5 63/155/5 69/174/5
f 11/25/5 64/156/5 70/178/5
f 2/2/5 65/160/5 45/107/5
f 71/182/5 66/164/5 65/159/5
f 71/181/5 65/160/5 2/2/5
f 72/186/5 67/168/5 66/163/5
f 72/185/5 66/164/5 71/182/5
f 73/190/5 68/172/5 67/167/5
f 73/189/5 67/168/5 72/186/5
f 74/194/5 69/176/5 68/171/5
f 74/193/5 68/172/5 73/190/5
f 75/198/5 70/180/5 69/175/5
f 75/197/5 69/176/5 74/194/5
f 76/202/5 11/26/5 70/179/5
f 76/201/5 70/180/5 75/198/5
f 77/205/5 11/26/5 76/202/5
f 78/207/5 71/184/5 2/3/5
f 79/210/5 72/188/5 71/183/5
f 79/209/5 71/184/5 78/207/5
f 80/214/5 73/192/5 72/187/5
f 80/213/5 72/188/5 79/210/5
f 81/218/5 74/196/5 73/191/5
f 81/217/5 73/192/5 80/214/5
f 82/222/5 75/200/5 74/195/5
f 82/221/5 74/196/5 81/218/5
f 83/226/5 76/204/5 75/199/5
f 83/225/5 75/200/5 82/222/5
f 84/230/5 77/206/5 76/203/5
f 84/229/5 76/204/5 83/226/5
f 85/233/5 77/206/5 84/230/5
f 86/235/5 79/212/5 78/208/5
f 87/238/5 80/216/5 79/211/5
f 87/237/5 79/212/5 86/235/5
f 88/242/5 81/220/5 80/215/5
f 88/241/5 80/216/5 87/238/5
f 89/246/5 82/224/5 81/219/5
f 89/245/5 81/220/5 88/242/5
f 90/250/5 83/228/5 82/223/5
f 90/249/5 82/224/5 89/246/5
f 91/254/5 84/232/5 83/227/5
f 91/253/5 83/228/5 90/250/5
f 92/258/5 85/234/5 84/231/5
f 92/257/5 84/232/5 91/254/5
f 12/27/5 85/234/5 92/258/5
f 93/261/5 87/240/5 86/236/5
f 94/264/5 88/244/5 87/239/5
f 94/263/5 87/240/5 93/261/5
f 95/268/5 89/248/5 88/243/5
f 95/267/5 88/244/5 94/264/5
f 96/272/5 90/252/5 89/247/5
f 96/271/5 89/248/5 95/268/5
f 97/276/5 91/256/5 90/251/5
f 97/275/5 90/252/5 96/272/5
f 98/280/5 92/260/5 91/255/5
f 98/279/5 91/256/5 97/276/5
f 99/284/5 12/28/5 92/259/5
f 99/283/5 92/260/5 98/280/5
f 13/29/5 12/28/5 99/284/5
f 100/287/5 94/266/5 93/262/5
f 47/112/5 95/270/5 94/265/5
f 47/111/5 94/266/5 100/287/5
f 49/118/5 96/274/5 95/269/5
f 49/117/5 95/270/5 47/112/5
f 51/124/5 97/278/5 96/273/5
f 51/123/5 96/274/5 49/118/5
f 101/289/5 98/282/5 97/277/5
f 101/288/5 97/278/5 51/124/5
f 102/291/5 99/286/5 98/281/5
f 102/290/5 98/282/5 101/289/5
f 103/293/5 13/30/5 99/285/5
f 103/292/5 99/286/5 102/291/5
f 14/31/5 13/30/5 103/293/5
f 25/58/6 26/60/6 1/1/6
f 26/59/6 104/295/6 46/109/6
f 1/1/6 26/60/6 46/108/6
f 104/294/6 105/297/6 106/299/6
f 46/109/6 104/295/6 106/298/6
f 105/296/6 27/62/6 107/303/6
f 106/299/6 105/297/6 107/302/6
f 27/61/6 29/66/6 108/307/6
f 107/303/6 27/62/6 108/306/6
f 29/65/6 31/70/6 109/311/6
f 108/307/6 29/66/6 109/310/6
f 31/69/6 32/72/6 110/315/6
f 109/311/6 31/70/6 110/314/6
f 32/71/6 33/73/6 111/320/6
f 110/315/6 32/72/6 111/319/6
f 111/320/6 33/73/6 112/324/6
f 46/110/6 106/301/6 113/325/6
f 106/300/6 107/305/6 114/328/6
f 113/325/6 106/301/6 114/327/6
f 107/304/6 108/309/6 115/332/6
f 114/328/6 107/305/6 115/331/6
f 108/308/6 109/313/6 116/336/6
f 115/332/6 108/309/6 116/335/6
f 109/312/6 110/317/6 117/340/6
f 116/336/6 109/313/6 117/339/6
f 110/316/6 111/321/6 118/344/6
f 117/340/6 110/317/6 118/343/6
f 118/344/6 111/321/6 9/21/6
f 113/326/6 114/330/6 3/4/6
f 114/329/6 115/334/6 119/348/6
f 3/4/6 114/330/6 119/347/6
f 115/333/6 116/338/6 120/352/6
f 119/348/6 115/334/6 120/351/6
f 116/337/6 117/342/6 121/356/6
f 120/352/6 116/338/6 121/355/6
f 117/341/6 118/346/6 122/360/6
f 121/356/6 117/342/6 122/359/6
f 118/345/6 9/22/6 35/77/6
f 122/360/6 118/346/6 35/76/6
f 35/77/6 9/22/6 37/82/6
f 3/5/6 119/350/6 123/363/6
f 119/349/6 120/354/6 124/366/6
f 123/363/6 119/350/6 124/365/6
f 120/353/6 121/358/6 125/370/6
f 124/366/6 120/354/6 125/369/6
f 121/357/6 122/362/6 126/374/6
f 125/370/6 121/358/6 126/373/6
f 122/361/6 35/78/6 127/378/6
f 126/374/6 122/362/6 127/377/6
f 127/378/6 35/78/6 7/14/6
f 123/364/6 124/368/6 4/8/6
f 124/367/6 125/372/6 38/86/6
f 4/8/6 124/368/6 38/85/6
f 125/371/6 126/376/6 39/90/6
f 38/86/6 125/372/6 39/89/6
f 126/375/6 127/380/6 41/96/6
f 39/90/6 126/376/6 41/95/6
f 127/379/6 7/15/6 42/100/6
f 41/96/6 127/380/6 42/99/6
f 42/100/6 7/15/6 8/18/6
f 34/74/6 19/48/6 10/23/6
f 10/23/6 19/48/6 20/49/6
f 10/24/6 20/50/6 128/381/6
f 128/381/6 20/50/6 21/51/6
f 36/79/6 128/383/6 129/384/6
f 128/382/6 21/52/6 130/387/6
f 129/384/6 128/383/6 130/386/6
f 130/387/6 21/52/6 22/53/6
f 129/385/6 130/389/6 43/101/6
f 130/388/6 22/54/6 134/397/6
f 43/101/6 130/389/6 134/396/6
f 134/397/6 22/54/6 23/55/6
f 6/11/6 131/391/6 135/400/6
f 131/390/6 40/92/6 136/402/6
f 135/400/6 131/391/6 136/401/6
f 40/91/6 132/393/6 137/404/6
f 136/402/6 40/92/6 137/403/6
f 132/392/6 133/395/6 138/406/6
f 137/404/6 132/393/6 138/405/6
f 133/394/6 43/103/6 139/408/6
f 138/406/6 133/395/6 139/407/6
f 43/102/6 134/399/6 55/138/6
f 139/408/6 43/103/6 55/137/6
f 134/398/6 23/56/6 140/410/6
f 55/138/6 134/399/6 140/409/6
f 140/410/6 23/56/6 58/145/6
