# MagicaVoxel @ Ephtracy

# group
o 

# material
mtllib short_wing_green.mtl
usemtl palette

# normals
vn -1 0 0
vn 1 0 0
vn 0 0 1
vn 0 0 -1
vn 0 -1 0
vn 0 1 0

# texcoords
vt 0.0253906 0.5
vt 0.0878906 0.5
vt 0.103516 0.5
vt 0.119141 0.5
vt 0.126953 0.5
vt 0.138672 0.5
vt 0.169922 0.5
vt 0.177734 0.5
vt 0.189453 0.5
vt 0.205078 0.5
vt 0.216797 0.5
vt 0.220703 0.5
vt 0.240234 0.5
vt 0.251953 0.5
vt 0.287109 0.5
vt 0.314453 0.5
vt 0.341797 0.5
vt 0.408203 0.5
vt 0.416016 0.5
vt 0.443359 0.5
vt 0.490234 0.5
vt 0.525391 0.5
vt 0.529297 0.5
vt 0.541016 0.5
vt 0.572266 0.5
vt 0.576172 0.5
vt 0.599609 0.5
vt 0.615234 0.5
vt 0.619141 0.5
vt 0.658203 0.5
vt 0.669922 0.5
vt 0.673828 0.5
vt 0.705078 0.5
vt 0.736328 0.5
vt 0.740234 0.5
vt 0.744141 0.5
vt 0.841797 0.5
vt 0.849609 0.5
vt 0.861328 0.5
vt 0.865234 0.5
vt 0.880859 0.5
vt 0.896484 0.5
vt 0.912109 0.5
vt 0.919922 0.5
vt 0.923828 0.5
vt 0.939453 0.5
vt 0.943359 0.5
vt 0.951172 0.5
vt 0.955078 0.5
vt 0.962891 0.5
vt 0.986328 0.5

# verts
v 0 -0.1 0.3
v 0 -0.1 0.2
v 0 -0.1 0.1
v 0 -0.1 0
v 0 -0.1 -0.1
v 0 -0.1 -0.2
v 0 -0.1 -0.3
v 0 -0.1 -0.4
v 0 0 0.3
v 0 0 0.2
v 0 0 0.1
v 0 0 0
v 0 0 -0.1
v 0 0 -0.2
v 0 0 -0.3
v 0 0 -0.4
v 0 0.1 0.3
v 0 0.1 0.2
v 0 0.1 0.1
v 0 0.1 0
v 0 0.1 -0.1
v 0 0.1 -0.2
v 0 0.1 -0.3
v 0 0.1 -0.4
v 0.5 -0.1 0.4
v 0.5 -0.1 0.3
v 0.5 0 0.4
v 0.5 0 0.3
v 0.1 0 0.3
v 0.1 0 0.2
v 0.1 0 0.1
v 0.1 0 0
v 0.1 0 -0.1
v 0.1 0 -0.2
v 0.1 0.1 0.3
v 0.1 0.1 0.2
v 0.1 0.1 0.1
v 0.1 0.1 0
v 0.1 0.1 -0.1
v 0.1 0.1 -0.2
v 0.3 0 -0.2
v 0.3 0 -0.3
v 0.3 0.1 -0.2
v 0.3 0.1 -0.3
v 0.5 0 -0.3
v 0.5 0 -0.4
v 0.5 0.1 -0.3
v 0.5 0.1 -0.4
v 0.6 -0.1 0.4
v 0.6 -0.1 0.3
v 0.6 -0.1 0.2
v 0.6 -0.1 0.1
v 0.6 -0.1 0
v 0.6 -0.1 -0.1
v 0.6 -0.1 -0.2
v 0.6 -0.1 -0.3
v 0.6 -0.1 -0.4
v 0.6 0 0.4
v 0.6 0 0.3
v 0.6 0 0.2
v 0.6 0 0.1
v 0.6 0 0
v 0.6 0 -0.1
v 0.6 0 -0.2
v 0.6 0 -0.3
v 0.6 0 -0.4
v 0.5 -0.1 0.4
v 0.5 0 0.4
v 0.6 -0.1 0.4
v 0.6 0 0.4
v 0 -0.1 0.3
v 0 0 0.3
v 0 0.1 0.3
v 0.1 -0.1 0.3
v 0.1 0 0.3
v 0.1 0.1 0.3
v 0.2 -0.1 0.3
v 0.2 0 0.3
v 0.3 -0.1 0.3
v 0.3 0 0.3
v 0.4 -0.1 0.3
v 0.4 0 0.3
v 0.5 -0.1 0.3
v 0.5 0 0.3
v 0.1 0 -0.2
v 0.1 0.1 -0.2
v 0.2 0 -0.2
v 0.2 0.1 -0.2
v 0.3 0 -0.2
v 0.3 0.1 -0.2
v 0.3 0 -0.3
v 0.3 0.1 -0.3
v 0.4 0 -0.3
v 0.4 0.1 -0.3
v 0.5 0 -0.3
v 0.5 0.1 -0.3
v 0 -0.1 -0.4
v 0 0 -0.4
v 0 0.1 -0.4
v 0.1 -0.1 -0.4
v 0.1 0 -0.4
v 0.1 0.1 -0.4
v 0.2 -0.1 -0.4
v 0.2 0 -0.4
v 0.2 0.1 -0.4
v 0.3 -0.1 -0.4
v 0.3 0 -0.4
v 0.3 0.1 -0.4
v 0.4 -0.1 -0.4
v 0.4 0 -0.4
v 0.4 0.1 -0.4
v 0.5 -0.1 -0.4
v 0.5 0 -0.4
v 0.5 0.1 -0.4
v 0.6 -0.1 -0.4
v 0.6 0 -0.4
v 0.5 -0.1 0.4
v 0.6 -0.1 0.4
v 0 -0.1 0.3
v 0.1 -0.1 0.3
v 0.2 -0.1 0.3
v 0.3 -0.1 0.3
v 0.4 -0.1 0.3
v 0.5 -0.1 0.3
v 0.6 -0.1 0.3
v 0 -0.1 0.2
v 0.1 -0.1 0.2
v 0.2 -0.1 0.2
v 0.3 -0.1 0.2
v 0.4 -0.1 0.2
v 0.5 -0.1 0.2
v 0.6 -0.1 0.2
v 0 -0.1 0.1
v 0.1 -0.1 0.1
v 0.2 -0.1 0.1
v 0.3 -0.1 0.1
v 0.4 -0.1 0.1
v 0.5 -0.1 0.1
v 0.6 -0.1 0.1
v 0 -0.1 0
v 0.1 -0.1 0
v 0.2 -0.1 0
v 0.3 -0.1 0
v 0.4 -0.1 0
v 0.5 -0.1 0
v 0.6 -0.1 0
v 0 -0.1 -0.1
v 0.1 -0.1 -0.1
v 0.2 -0.1 -0.1
v 0.3 -0.1 -0.1
v 0.4 -0.1 -0.1
v 0.5 -0.1 -0.1
v 0.6 -0.1 -0.1
v 0 -0.1 -0.2
v 0.1 -0.1 -0.2
v 0.2 -0.1 -0.2
v 0.3 -0.1 -0.2
v 0.4 -0.1 -0.2
v 0.5 -0.1 -0.2
v 0.6 -0.1 -0.2
v 0 -0.1 -0.3
v 0.1 -0.1 -0.3
v 0.2 -0.1 -0.3
v 0.3 -0.1 -0.3
v 0.4 -0.1 -0.3
v 0.5 -0.1 -0.3
v 0.6 -0.1 -0.3
v 0 -0.1 -0.4
v 0.1 -0.1 -0.4
v 0.2 -0.1 -0.4
v 0.3 -0.1 -0.4
v 0.4 -0.1 -0.4
v 0.5 -0.1 -0.4
v 0.6 -0.1 -0.4
v 0.5 0 0.4
v 0.6 0 0.4
v 0.1 0 0.3
v 0.2 0 0.3
v 0.3 0 0.3
v 0.4 0 0.3
v 0.5 0 0.3
v 0.6 0 0.3
v 0.1 0 0.2
v 0.2 0 0.2
v 0.3 0 0.2
v 0.4 0 0.2
v 0.5 0 0.2
v 0.6 0 0.2
v 0.1 0 0.1
v 0.2 0 0.1
v 0.3 0 0.1
v 0.4 0 0.1
v 0.5 0 0.1
v 0.6 0 0.1
v 0.1 0 0
v 0.2 0 0
v 0.3 0 0
v 0.4 0 0
v 0.5 0 0
v 0.6 0 0
v 0.1 0 -0.1
v 0.2 0 -0.1
v 0.3 0 -0.1
v 0.4 0 -0.1
v 0.5 0 -0.1
v 0.6 0 -0.1
v 0.1 0 -0.2
v 0.2 0 -0.2
v 0.3 0 -0.2
v 0.4 0 -0.2
v 0.5 0 -0.2
v 0.6 0 -0.2
v 0.3 0 -0.3
v 0.4 0 -0.3
v 0.5 0 -0.3
v 0.6 0 -0.3
v 0.5 0 -0.4
v 0.6 0 -0.4
v 0 0.1 0.3
v 0.1 0.1 0.3
v 0 0.1 0.2
v 0.1 0.1 0.2
v 0 0.1 0.1
v 0.1 0.1 0.1
v 0 0.1 0
v 0.1 0.1 0
v 0 0.1 -0.1
v 0.1 0.1 -0.1
v 0 0.1 -0.2
v 0.1 0.1 -0.2
v 0.2 0.1 -0.2
v 0.3 0.1 -0.2
v 0 0.1 -0.3
v 0.1 0.1 -0.3
v 0.2 0.1 -0.3
v 0.3 0.1 -0.3
v 0.4 0.1 -0.3
v 0.5 0.1 -0.3
v 0 0.1 -0.4
v 0.1 0.1 -0.4
v 0.2 0.1 -0.4
v 0.3 0.1 -0.4
v 0.4 0.1 -0.4
v 0.5 0.1 -0.4

# faces
f 9/9/1 2/9/1 1/9/1
f 10/6/1 3/6/1 2/6/1
f 10/9/1 2/9/1 9/9/1
f 11/16/1 4/16/1 3/16/1
f 11/6/1 3/6/1 10/6/1
f 12/23/1 5/23/1 4/23/1
f 12/16/1 4/16/1 11/16/1
f 13/36/1 6/36/1 5/36/1
f 13/23/1 5/23/1 12/23/1
f 14/14/1 7/14/1 6/14/1
f 14/36/1 6/36/1 13/36/1
f 15/27/1 8/27/1 7/27/1
f 15/14/1 7/14/1 14/14/1
f 16/27/1 8/27/1 15/27/1
f 17/7/1 10/7/1 9/7/1
f 18/2/1 11/2/1 10/2/1
f 18/7/1 10/7/1 17/7/1
f 19/22/1 12/22/1 11/22/1
f 19/2/1 11/2/1 18/2/1
f 20/18/1 13/18/1 12/18/1
f 20/22/1 12/22/1 19/22/1
f 21/39/1 14/39/1 13/39/1
f 21/18/1 13/18/1 20/18/1
f 22/1/1 15/1/1 14/1/1
f 22/39/1 14/39/1 21/39/1
f 23/31/1 16/31/1 15/31/1
f 23/1/1 15/1/1 22/1/1
f 24/31/1 16/31/1 23/31/1
f 27/30/1 26/30/1 25/30/1
f 28/30/1 26/30/1 27/30/1
f 29/7/2 30/7/2 35/7/2
f 30/2/2 31/2/2 36/2/2
f 35/7/2 30/7/2 36/7/2
f 31/22/2 32/22/2 37/22/2
f 36/2/2 31/2/2 37/2/2
f 32/18/2 33/18/2 38/18/2
f 37/22/2 32/22/2 38/22/2
f 33/39/2 34/39/2 39/39/2
f 38/18/2 33/18/2 39/18/2
f 39/39/2 34/39/2 40/39/2
f 41/17/2 42/17/2 43/17/2
f 43/17/2 42/17/2 44/17/2
f 45/4/2 46/4/2 47/4/2
f 47/4/2 46/4/2 48/4/2
f 49/30/2 50/30/2 58/30/2
f 50/48/2 51/48/2 59/48/2
f 58/30/2 50/30/2 59/30/2
f 51/24/2 52/24/2 60/24/2
f 59/48/2 51/48/2 60/48/2
f 52/2/2 53/2/2 61/2/2
f 60/24/2 52/24/2 61/24/2
f 53/32/2 54/32/2 62/32/2
f 61/2/2 53/2/2 62/2/2
f 54/46/2 55/46/2 63/46/2
f 62/32/2 54/32/2 63/32/2
f 55/29/2 56/29/2 64/29/2
f 63/46/2 55/46/2 64/46/2
f 56/21/2 57/21/2 65/21/2
f 64/29/2 56/29/2 65/29/2
f 65/21/2 57/21/2 66/21/2
f 69/30/3 68/30/3 67/30/3
f 70/30/3 68/30/3 69/30/3
f 74/9/3 72/9/3 71/9/3
f 75/7/3 73/7/3 72/7/3
f 75/9/3 72/9/3 74/9/3
f 76/7/3 73/7/3 75/7/3
f 77/38/3 75/38/3 74/38/3
f 78/38/3 75/38/3 77/38/3
f 79/15/3 78/15/3 77/15/3
f 80/15/3 78/15/3 79/15/3
f 81/37/3 80/37/3 79/37/3
f 82/37/3 80/37/3 81/37/3
f 83/26/3 82/26/3 81/26/3
f 84/26/3 82/26/3 83/26/3
f 87/27/3 86/27/3 85/27/3
f 88/27/3 86/27/3 87/27/3
f 89/17/3 88/17/3 87/17/3
f 90/17/3 88/17/3 89/17/3
f 93/5/3 92/5/3 91/5/3
f 94/5/3 92/5/3 93/5/3
f 95/4/3 94/4/3 93/4/3
f 96/4/3 94/4/3 95/4/3
f 97/27/4 98/27/4 100/27/4
f 98/31/4 99/31/4 101/31/4
f 100/27/4 98/27/4 101/27/4
f 101/31/4 99/31/4 102/31/4
f 100/35/4 101/35/4 103/35/4
f 101/33/4 102/33/4 104/33/4
f 103/35/4 101/35/4 104/35/4
f 104/33/4 102/33/4 105/33/4
f 103/13/4 104/13/4 106/13/4
f 104/24/4 105/24/4 107/24/4
f 106/13/4 104/13/4 107/13/4
f 107/24/4 105/24/4 108/24/4
f 106/50/4 107/50/4 109/50/4
f 107/5/4 108/5/4 110/5/4
f 109/50/4 107/50/4 110/50/4
f 110/5/4 108/5/4 111/5/4
f 109/42/4 110/42/4 112/42/4
f 110/4/4 111/4/4 113/4/4
f 112/42/4 110/42/4 113/42/4
f 113/4/4 111/4/4 114/4/4
f 112/21/4 113/21/4 115/21/4
f 115/21/4 113/21/4 116/21/4
f 124/30/5 118/30/5 117/30/5
f 125/30/5 118/30/5 124/30/5
f 126/9/5 120/9/5 119/9/5
f 127/38/5 121/38/5 120/38/5
f 127/9/5 120/9/5 126/9/5
f 128/15/5 122/15/5 121/15/5
f 128/38/5 121/38/5 127/38/5
f 129/37/5 123/37/5 122/37/5
f 129/15/5 122/15/5 128/15/5
f 130/26/5 124/26/5 123/26/5
f 130/37/5 123/37/5 129/37/5
f 131/48/5 125/48/5 124/48/5
f 131/26/5 124/26/5 130/26/5
f 132/48/5 125/48/5 131/48/5
f 133/6/5 127/6/5 126/6/5
f 134/34/5 128/34/5 127/34/5
f 134/6/5 127/6/5 133/6/5
f 135/44/5 129/44/5 128/44/5
f 135/34/5 128/34/5 134/34/5
f 136/8/5 130/8/5 129/8/5
f 136/44/5 129/44/5 135/44/5
f 137/49/5 131/49/5 130/49/5
f 137/8/5 130/8/5 136/8/5
f 138/24/5 132/24/5 131/24/5
f 138/49/5 131/49/5 137/49/5
f 139/24/5 132/24/5 138/24/5
f 140/16/5 134/16/5 133/16/5
f 141/45/5 135/45/5 134/45/5
f 141/16/5 134/16/5 140/16/5
f 142/12/5 136/12/5 135/12/5
f 142/45/5 135/45/5 141/45/5
f 143/51/5 137/51/5 136/51/5
f 143/12/5 136/12/5 142/12/5
f 144/20/5 138/20/5 137/20/5
f 144/51/5 137/51/5 143/51/5
f 145/2/5 139/2/5 138/2/5
f 145/20/5 138/20/5 144/20/5
f 146/2/5 139/2/5 145/2/5
f 147/23/5 141/23/5 140/23/5
f 148/11/5 142/11/5 141/11/5
f 148/23/5 141/23/5 147/23/5
f 149/25/5 143/25/5 142/25/5
f 149/11/5 142/11/5 148/11/5
f 150/3/5 144/3/5 143/3/5
f 150/25/5 143/25/5 149/25/5
f 151/28/5 145/28/5 144/28/5
f 151/3/5 144/3/5 150/3/5
f 152/32/5 146/32/5 145/32/5
f 152/28/5 145/28/5 151/28/5
f 153/32/5 146/32/5 152/32/5
f 154/36/5 148/36/5 147/36/5
f 155/40/5 149/40/5 148/40/5
f 155/36/5 148/36/5 154/36/5
f 156/43/5 150/43/5 149/43/5
f 156/40/5 149/40/5 155/40/5
f 157/47/5 151/47/5 150/47/5
f 157/43/5 150/43/5 156/43/5
f 158/41/5 152/41/5 151/41/5
f 158/47/5 151/47/5 157/47/5
f 159/46/5 153/46/5 152/46/5
f 159/41/5 152/41/5 158/41/5
f 160/46/5 153/46/5 159/46/5
f 161/14/5 155/14/5 154/14/5
f 162/23/5 156/23/5 155/23/5
f 162/14/5 155/14/5 161/14/5
f 163/21/5 157/21/5 156/21/5
f 163/23/5 156/23/5 162/23/5
f 164/10/5 158/10/5 157/10/5
f 164/21/5 157/21/5 163/21/5
f 165/19/5 159/19/5 158/19/5
f 165/10/5 158/10/5 164/10/5
f 166/29/5 160/29/5 159/29/5
f 166/19/5 159/19/5 165/19/5
f 167/29/5 160/29/5 166/29/5
f 168/27/5 162/27/5 161/27/5
f 169/35/5 163/35/5 162/35/5
f 169/27/5 162/27/5 168/27/5
f 170/13/5 164/13/5 163/13/5
f 170/35/5 163/35/5 169/35/5
f 171/50/5 165/50/5 164/50/5
f 171/13/5 164/13/5 170/13/5
f 172/42/5 166/42/5 165/42/5
f 172/50/5 165/50/5 171/50/5
f 173/21/5 167/21/5 166/21/5
f 173/42/5 166/42/5 172/42/5
f 174/21/5 167/21/5 173/21/5
f 175/30/6 176/30/6 181/30/6
f 181/30/6 176/30/6 182/30/6
f 177/38/6 178/38/6 183/38/6
f 178/15/6 179/15/6 184/15/6
f 183/38/6 178/38/6 184/38/6
f 179/37/6 180/37/6 185/37/6
f 184/15/6 179/15/6 185/15/6
f 180/26/6 181/26/6 186/26/6
f 185/37/6 180/37/6 186/37/6
f 181/48/6 182/48/6 187/48/6
f 186/26/6 181/26/6 187/26/6
f 187/48/6 182/48/6 188/48/6
f 183/34/6 184/34/6 189/34/6
f 184/44/6 185/44/6 190/44/6
f 189/34/6 184/34/6 190/34/6
f 185/8/6 186/8/6 191/8/6
f 190/44/6 185/44/6 191/44/6
f 186/49/6 187/49/6 192/49/6
f 191/8/6 186/8/6 192/8/6
f 187/24/6 188/24/6 193/24/6
f 192/49/6 187/49/6 193/49/6
f 193/24/6 188/24/6 194/24/6
f 189/45/6 190/45/6 195/45/6
f 190/12/6 191/12/6 196/12/6
f 195/45/6 190/45/6 196/45/6
f 191/51/6 192/51/6 197/51/6
f 196/12/6 191/12/6 197/12/6
f 192/20/6 193/20/6 198/20/6
f 197/51/6 192/51/6 198/51/6
f 193/2/6 194/2/6 199/2/6
f 198/20/6 193/20/6 199/20/6
f 199/2/6 194/2/6 200/2/6
f 195/11/6 196/11/6 201/11/6
f 196/25/6 197/25/6 202/25/6
f 201/11/6 196/11/6 202/11/6
f 197/3/6 198/3/6 203/3/6
f 202/25/6 197/25/6 203/25/6
f 198/28/6 199/28/6 204/28/6
f 203/3/6 198/3/6 204/3/6
f 199/32/6 200/32/6 205/32/6
f 204/28/6 199/28/6 205/28/6
f 205/32/6 200/32/6 206/32/6
f 201/40/6 202/40/6 207/40/6
f 202/43/6 203/43/6 208/43/6
f 207/40/6 202/40/6 208/40/6
f 203/47/6 204/47/6 209/47/6
f 208/43/6 203/43/6 209/43/6
f 204/41/6 205/41/6 210/41/6
f 209/47/6 204/47/6 210/47/6
f 205/46/6 206/46/6 211/46/6
f 210/41/6 205/41/6 211/41/6
f 211/46/6 206/46/6 212/46/6
f 209/10/6 210/10/6 213/10/6
f 210/19/6 211/19/6 214/19/6
f 213/10/6 210/10/6 214/10/6
f 211/29/6 212/29/6 215/29/6
f 214/19/6 211/19/6 215/19/6
f 215/29/6 212/29/6 216/29/6
f 215/21/6 216/21/6 217/21/6
f 217/21/6 216/21/6 218/21/6
f 219/7/6 220/7/6 221/7/6
f 221/7/6 220/7/6 222/7/6
f 221/2/6 222/2/6 223/2/6
f 223/2/6 222/2/6 224/2/6
f 223/22/6 224/22/6 225/22/6
f 225/22/6 224/22/6 226/22/6
f 225/18/6 226/18/6 227/18/6
f 227/18/6 226/18/6 228/18/6
f 227/39/6 228/39/6 229/39/6
f 229/39/6 228/39/6 230/39/6
f 229/1/6 230/1/6 233/1/6
f 230/27/6 231/27/6 234/27/6
f 233/1/6 230/1/6 234/1/6
f 231/17/6 232/17/6 235/17/6
f 234/27/6 231/27/6 235/27/6
f 235/17/6 232/17/6 236/17/6
f 233/31/6 234/31/6 239/31/6
f 234/33/6 235/33/6 240/33/6
f 239/31/6 234/31/6 240/31/6
f 235/24/6 236/24/6 241/24/6
f 240/33/6 235/33/6 241/33/6
f 236/5/6 237/5/6 242/5/6
f 241/24/6 236/24/6 242/24/6
f 237/4/6 238/4/6 243/4/6
f 242/5/6 237/5/6 243/5/6
f 243/4/6 238/4/6 244/4/6
