# Blender 3.4.1
# www.blender.org
mtllib wheel.mtl
o wheel
v -0.100000 0.000000 0.200000
v -0.100000 0.100000 0.100000
v -0.100000 0.000000 0.100000
v -0.100000 -0.100000 0.100000
v -0.100000 -0.100000 0.000000
v -0.100000 -0.200000 0.000000
v -0.100000 -0.200000 0.100000
v -0.100000 -0.100000 0.200000
v -0.100000 0.000000 0.000000
v -0.100000 0.100000 0.000000
v -0.100000 0.000000 -0.100000
v -0.100000 -0.100000 -0.100000
v 0.000000 0.000000 0.100000
v 0.000000 0.100000 0.100000
v 0.000000 0.000000 0.200000
v 0.000000 -0.100000 0.100000
v 0.000000 -0.100000 0.200000
v 0.000000 -0.200000 0.100000
v 0.000000 0.000000 0.000000
v 0.000000 0.000000 -0.100000
v 0.000000 0.100000 0.000000
v 0.000000 -0.200000 0.000000
v 0.000000 -0.100000 0.000000
v 0.000000 -0.100000 -0.100000
v -0.100000 0.000000 0.000000
v 0.000000 0.000000 0.000000
v 0.000000 0.000000 0.100000
v -0.100000 0.000000 0.100000
v 0.000000 -0.100000 0.100000
v -0.100000 -0.100000 0.100000
v -0.100000 0.000000 0.100000
v 0.000000 0.000000 0.100000
v 0.000000 -0.100000 0.000000
v -0.100000 -0.100000 0.000000
v -0.100000 -0.100000 0.100000
v 0.000000 -0.100000 0.100000
v 0.000000 0.000000 0.000000
v -0.100000 0.000000 0.000000
v -0.100000 -0.100000 0.000000
v 0.000000 -0.100000 0.000000
v 0.000000 -0.100000 -0.100000
v -0.100000 -0.100000 -0.100000
v -0.100000 0.000000 -0.100000
v 0.000000 0.000000 -0.100000
v -0.100000 -0.100000 -0.100000
v 0.000000 -0.100000 -0.100000
v 0.000000 -0.200000 0.000000
v -0.100000 -0.200000 0.000000
v -0.100000 -0.200000 0.000000
v 0.000000 -0.200000 0.000000
v 0.000000 -0.200000 0.100000
v -0.100000 -0.200000 0.100000
v -0.100000 -0.200000 0.100000
v 0.000000 -0.200000 0.100000
v 0.000000 -0.100000 0.200000
v -0.100000 -0.100000 0.200000
v -0.100000 -0.100000 0.200000
v 0.000000 -0.100000 0.200000
v 0.000000 0.000000 0.200000
v -0.100000 0.000000 0.200000
v -0.100000 0.000000 0.200000
v 0.000000 0.000000 0.200000
v 0.000000 0.100000 0.100000
v -0.100000 0.100000 0.100000
v -0.100000 0.100000 0.100000
v 0.000000 0.100000 0.100000
v 0.000000 0.100000 0.000000
v -0.100000 0.100000 0.000000
v -0.100000 0.100000 0.000000
v 0.000000 0.100000 0.000000
v 0.000000 0.000000 -0.100000
v -0.100000 0.000000 -0.100000
vn -1.0000 -0.0000 -0.0000
vn 1.0000 -0.0000 -0.0000
vn -0.0000 -1.0000 -0.0000
vn -0.0000 -0.0000 -1.0000
vn -0.0000 1.0000 -0.0000
vn -0.0000 -0.0000 1.0000
vn -0.0000 -0.7071 -0.7071
vn -0.0000 -0.7071 0.7071
vn -0.0000 0.7071 0.7071
vn -0.0000 0.7071 -0.7071
s 0
usemtl App0
f 1//1 2//1 3//1
f 4//1 5//1 6//1
f 6//1 7//1 4//1
f 3//1 4//1 8//1
f 7//1 8//1 4//1
f 9//1 3//1 2//1
f 8//1 1//1 3//1
f 10//1 11//1 9//1
f 11//1 12//1 5//1
f 2//1 10//1 9//1
f 5//1 12//1 6//1
f 5//1 9//1 11//1
f 13//2 14//2 15//2
f 16//2 17//2 18//2
f 19//2 20//2 21//2
f 22//2 23//2 16//2
f 17//2 16//2 13//2
f 24//2 20//2 19//2
f 22//2 24//2 23//2
f 14//2 13//2 19//2
f 16//2 18//2 22//2
f 19//2 21//2 14//2
f 13//2 15//2 17//2
f 19//2 23//2 24//2
f 25//3 26//3 27//3
f 27//3 28//3 25//3
f 29//4 30//4 31//4
f 31//4 32//4 29//4
f 33//5 34//5 35//5
f 35//5 36//5 33//5
f 37//6 38//6 39//6
f 39//6 40//6 37//6
f 41//4 42//4 43//4
f 43//4 44//4 41//4
f 45//7 46//7 47//7
f 47//7 48//7 45//7
f 49//3 50//3 51//3
f 51//3 52//3 49//3
f 53//8 54//8 55//8
f 55//8 56//8 53//8
f 57//6 58//6 59//6
f 59//6 60//6 57//6
f 61//9 62//9 63//9
f 63//9 64//9 61//9
f 65//5 66//5 67//5
f 67//5 68//5 65//5
f 69//10 70//10 71//10
f 71//10 72//10 69//10
