# Blender 3.4.1
# www.blender.org
mtllib tank_blue_track.mtl
o Plane
v 0.500000 -0.100000 -1.000000
v 0.500000 0.100000 -1.000000
v 0.500000 0.100000 -0.600000
v 0.500000 0.000000 -0.600000
v 0.500000 -0.300000 -0.795936
v 0.500000 -0.400000 -0.600000
v 0.500000 0.000000 -0.700000
v 0.500000 -0.200000 -0.700000
v 0.500000 -0.300000 -0.600000
v 0.500000 -0.300000 1.000000
v 0.500000 -0.200000 1.100000
v 0.500000 -0.200000 1.200000
v 0.500000 0.000000 1.200000
v 0.500000 0.000000 1.100000
v 0.500000 0.100000 1.100000
v 0.500000 0.100000 1.400000
v 0.500000 -0.200000 1.400000
v 0.500000 -0.300000 1.300000
v 0.500000 -0.400000 1.100000
v 0.800000 -0.100000 -1.000000
v 0.800000 0.100000 -1.000000
v 0.800000 0.100000 -0.600000
v 0.800000 -0.000000 -0.600000
v 0.800000 -0.300000 -0.795936
v 0.800000 -0.000000 -0.700000
v 0.800000 -0.200000 -0.700000
v 0.800000 -0.300000 -0.600000
v 0.800000 -0.300000 1.000000
v 0.800000 -0.200000 1.100000
v 0.800000 -0.200000 1.200000
v 0.800000 -0.000000 1.200000
v 0.800000 -0.000000 1.100000
v 0.800000 0.100000 1.100000
v 0.800000 0.100000 1.400000
v 0.800000 -0.200000 1.400000
v 0.800000 -0.300000 1.300000
v 0.800000 -0.400000 1.100000
v 0.800000 -0.400000 -0.600000
vn -1.0000 -0.0000 -0.0000
vn 1.0000 -0.0000 -0.0000
vn -0.0000 1.0000 -0.0000
vn -0.0000 -0.8907 -0.4546
vn -0.0000 -1.0000 -0.0000
vn -0.0000 -0.0000 -1.0000
vn -0.0000 -0.0000 1.0000
vn -0.0000 0.7071 0.7071
vn -0.0000 -0.7142 -0.7000
vn -0.0000 -0.7071 0.7071
vn -0.0000 0.7071 -0.7071
vn -0.0000 -0.8944 0.4472
vt 0.000000 0.000000
vt 0.000000 0.000000
vt 0.000000 0.000000
vt 0.000000 0.000000
vt 0.000000 0.000000
vt 0.000000 0.000000
vt 0.000000 0.000000
vt 0.000000 0.000000
vt 0.000000 0.000000
vt 0.000000 0.000000
vt 0.000000 0.000000
vt 0.000000 0.000000
vt 0.000000 0.000000
vt 0.000000 0.000000
vt 0.000000 0.000000
vt 0.000000 0.000000
vt 0.000000 0.000000
vt 0.000000 0.000000
vt 0.000000 0.000000
vt 0.000000 0.000000
vt 0.000000 0.000000
vt 0.000000 0.000000
vt 0.000000 0.000000
vt 0.000000 0.000000
vt 0.000000 0.000000
vt 0.000000 0.000000
vt 0.000000 0.000000
vt 0.000000 0.000000
vt 0.000000 0.000000
vt 0.000000 0.000000
vt 0.000000 0.000000
vt 0.000000 0.000000
vt 0.000000 0.000000
vt 0.000000 0.000000
vt 0.000000 0.000000
vt 0.000000 0.000000
vt 0.000000 0.000000
vt 0.000000 0.000000
s 0
f 1/1/1 5/5/1 6/6/1 19/19/1 18/18/1 17/17/1 16/16/1 15/15/1 14/14/1 13/13/1 12/12/1 11/11/1 10/10/1 9/9/1 8/8/1 7/7/1 4/4/1 3/3/1 2/2/1
f 20/20/2 21/21/2 22/22/2 23/23/2 25/25/2 26/26/2 27/27/2 28/28/2 29/29/2 30/30/2 31/31/2 32/32/2 33/33/2 34/34/2 35/35/2 36/36/2 37/37/2 38/38/2 24/24/2
f 11/11/3 12/12/3 30/30/3 29/29/3
f 6/6/4 5/5/4 24/24/4 38/38/4
f 19/19/5 6/6/5 38/38/5 37/37/5
f 12/12/6 13/13/6 31/31/6 30/30/6
f 4/4/5 7/7/5 25/25/5 23/23/5
f 13/13/5 14/14/5 32/32/5 31/31/5
f 7/7/7 8/8/7 26/26/7 25/25/7
f 14/14/6 15/15/6 33/33/6 32/32/6
f 8/8/8 9/9/8 27/27/8 26/26/8
f 5/5/9 1/1/9 20/20/9 24/24/9
f 15/15/3 16/16/3 34/34/3 33/33/3
f 1/1/6 2/2/6 21/21/6 20/20/6
f 16/16/7 17/17/7 35/35/7 34/34/7
f 9/9/3 10/10/3 28/28/3 27/27/3
f 2/2/3 3/3/3 22/22/3 21/21/3
f 17/17/10 18/18/10 36/36/10 35/35/10
f 10/10/11 11/11/11 29/29/11 28/28/11
f 3/3/7 4/4/7 23/23/7 22/22/7
f 18/18/12 19/19/12 37/37/12 36/36/12
