# Blender 3.4.1
# www.blender.org
mtllib RM.mtl
o RM
v 0.200000 0.300000 -0.600000
v 0.200000 0.300000 -0.100000
v 0.200000 0.200000 -0.100000
v 0.200000 -0.100000 0.499900
v 0.200000 0.100000 0.000000
v 0.200000 -0.100000 0.200000
v 0.200000 -0.100000 0.100000
v 0.200000 0.000000 0.100000
v 0.200000 -0.200000 0.499900
v 0.200000 -0.200000 0.200000
v 0.200000 0.000000 0.000000
v 0.200000 0.200000 -0.600000
v 0.200000 0.100000 -0.100000
v -0.200000 0.300000 -0.100000
v -0.200000 0.300000 -0.600000
v -0.200000 0.200000 -0.600000
v -0.200000 0.000000 0.100000
v -0.200000 -0.100000 0.499900
v -0.200000 0.100000 0.000000
v -0.200000 -0.100000 0.200000
v -0.200000 -0.200000 0.200000
v -0.200000 -0.200000 0.499900
v -0.200000 0.200000 -0.100000
v -0.200000 0.000000 0.000000
v -0.200000 0.100000 -0.100000
v -0.200000 -0.100000 0.100000
v 0.200000 -0.100000 0.499900
v -0.200000 -0.100000 0.499900
v -0.200000 -0.200000 0.499900
v 0.200000 -0.200000 0.499900
v -0.200000 -0.200000 0.499900
v -0.200000 -0.200000 0.200000
v -0.200000 -0.100000 0.200000
v -0.200000 -0.100000 0.100000
v -0.200000 0.000000 0.100000
v -0.200000 0.000000 0.000000
v -0.200000 0.100000 0.000000
v -0.200000 0.100000 -0.100000
v -0.200000 0.200000 -0.100000
v -0.200000 0.200000 -0.600000
v 0.200000 0.300000 -0.600000
v -0.200000 0.300000 -0.600000
v -0.200000 0.300000 -0.100000
v 0.200000 0.300000 -0.100000
v -0.200000 -0.100000 0.499900
v 0.200000 -0.100000 0.499900
v 0.200000 0.300000 -0.100000
v -0.200000 0.300000 -0.100000
vn 1.0000 -0.0000 -0.0000
vn -1.0000 -0.0000 -0.0000
vn -0.0000 -0.0000 1.0000
vn -0.0000 1.0000 -0.0000
vn -0.0000 0.8320 0.5548
s 0
usemtl App0.003
f 1//1 2//1 3//1
f 2//1 4//1 5//1
f 3//1 2//1 5//1
f 6//1 7//1 8//1
f 4//1 9//1 10//1
f 8//1 11//1 5//1
f 3//1 12//1 1//1
f 10//1 6//1 4//1
f 5//1 4//1 8//1
f 8//1 4//1 6//1
f 5//1 13//1 3//1
f 14//2 15//2 16//2
f 17//2 18//2 19//2
f 20//2 21//2 22//2
f 19//2 14//2 23//2
f 19//2 24//2 17//2
f 23//2 25//2 19//2
f 22//2 18//2 20//2
f 17//2 26//2 20//2
f 19//2 18//2 14//2
f 16//2 23//2 14//2
f 20//2 18//2 17//2
f 27//3 28//3 29//3
f 29//3 30//3 27//3
f 41//4 42//4 43//4
f 43//4 44//4 41//4
f 45//5 46//5 47//5
f 47//5 48//5 45//5
