# Blender 3.4.1
# www.blender.org
mtllib RL.mtl
o RL
v 0.300000 -0.100000 0.100000
v 0.300000 -0.100000 -0.100000
v 0.300000 0.000000 -0.100000
v 0.300000 -0.100000 0.200000
v 0.300000 0.100000 -0.200000
v 0.300000 0.300000 -0.200000
v 0.300000 0.100000 -0.300000
v 0.300000 0.300000 -0.300000
v 0.300000 -0.200000 0.200000
v 0.300000 -0.200000 0.100000
v 0.300000 0.000000 -0.200000
v -0.300000 -0.100000 0.100000
v -0.300000 -0.200000 0.100000
v -0.300000 -0.200000 0.200000
v -0.300000 0.100000 -0.200000
v -0.300000 0.300000 -0.200000
v -0.300000 0.300000 -0.300000
v -0.300000 0.100000 -0.300000
v -0.300000 0.000000 -0.200000
v -0.300000 0.000000 -0.100000
v -0.300000 -0.100000 0.200000
v -0.300000 -0.100000 -0.100000
v -0.300000 -0.200000 0.200000
v -0.300000 -0.200000 0.100000
v -0.300000 -0.100000 0.100000
v -0.300000 -0.100000 -0.100000
v -0.300000 0.000000 -0.100000
v -0.300000 0.000000 -0.200000
v -0.300000 0.100000 -0.200000
v -0.300000 0.100000 -0.300000
v -0.300000 0.300000 -0.200000
v 0.300000 0.300000 -0.200000
v 0.300000 0.300000 -0.300000
v -0.300000 0.300000 -0.300000
v 0.300000 0.300000 -0.200000
v -0.300000 0.300000 -0.200000
v -0.300000 -0.100000 0.200000
v 0.300000 -0.100000 0.200000
v -0.300000 -0.200000 0.200000
v 0.300000 -0.200000 0.200000
v 0.300000 -0.100000 0.200000
v -0.300000 -0.100000 0.200000
vn 1.0000 -0.0000 -0.0000
vn -1.0000 -0.0000 -0.0000
vn -0.0000 1.0000 -0.0000
vn -0.0000 0.7071 0.7071
vn -0.0000 -0.0000 1.0000
s 0
usemtl App0.005
f 1//1 2//1 3//1
f 3//1 4//1 1//1
f 5//1 6//1 3//1
f 5//1 7//1 8//1
f 4//1 9//1 10//1
f 10//1 1//1 4//1
f 3//1 6//1 4//1
f 8//1 6//1 5//1
f 3//1 11//1 5//1
f 12//2 13//2 14//2
f 15//2 16//2 17//2
f 17//2 18//2 15//2
f 15//2 19//2 20//2
f 20//2 16//2 15//2
f 12//2 21//2 20//2
f 21//2 16//2 20//2
f 14//2 21//2 12//2
f 20//2 22//2 12//2
f 31//3 32//3 33//3
f 33//3 34//3 31//3
f 35//4 36//4 37//4
f 37//4 38//4 35//4
f 39//5 40//5 41//5
f 41//5 42//5 39//5
