# Blender 3.4.1
# www.blender.org
mtllib walker_minigun_gun.mtl
o Untitled
v -0.400000 -0.100000 1.000000
v -0.400000 -0.100000 0.900000
v -0.400000 -0.100000 0.800000
v -0.400000 -0.100000 0.500000
v -0.400000 -0.100000 0.200000
v -0.400000 -0.100000 0.100000
v -0.400000 -0.000000 0.700000
v -0.100000 -0.300000 1.200000
v -0.100000 -0.200000 1.000000
v -0.100000 -0.200000 0.900000
v -0.100000 -0.200000 0.200000
v -0.100000 -0.100000 1.200000
v -0.100000 -0.100000 1.000000
v -0.100000 -0.100000 0.900000
v -0.100000 -0.100000 0.200000
v -0.100000 -0.100000 0.100000
v -0.100000 -0.100000 -0.100000
v -0.100000 -0.000000 1.300000
v -0.100000 0.100000 1.000000
v -0.100000 0.100000 0.900000
v -0.100000 0.100000 0.600000
v -0.100000 0.100000 0.400000
v -0.100000 0.100000 0.200000
v -0.100000 0.100000 -0.100000
v -0.100000 0.200000 1.200000
v -0.100000 0.200000 1.000000
v -0.100000 0.200000 0.900000
v -0.100000 0.200000 0.600000
v -0.100000 0.200000 0.400000
v -0.100000 0.200000 0.200000
v -0.100000 0.200000 -0.100000
v 0.200000 -0.200000 1.300000
v 0.200000 -0.100000 1.200000
v 0.200000 -0.100000 0.400000
v 0.200000 -0.100000 -0.100000
v 0.200000 -0.000000 1.200000
v 0.200000 -0.000000 1.000000
v 0.200000 -0.000000 0.400000
v 0.200000 0.000000 -0.100000
v -0.200000 -0.100000 1.200000
v -0.200000 -0.100000 0.900000
v -0.200000 -0.100000 0.800000
v -0.200000 -0.100000 0.500000
v -0.200000 -0.100000 0.100000
v -0.200000 -0.000000 1.000000
v -0.200000 -0.000000 0.900000
v -0.200000 -0.000000 0.700000
v -0.200000 -0.000000 0.500000
v -0.200000 -0.000000 0.100000
v 0.100000 -0.300000 1.300000
v 0.100000 -0.200000 0.900000
v 0.100000 -0.200000 0.200000
v 0.100000 -0.100000 1.300000
v 0.100000 -0.100000 -0.100000
v 0.100000 0.100000 1.000000
v 0.100000 0.100000 0.700000
v 0.100000 0.100000 0.100000
v 0.100000 0.100000 -0.100000
v 0.100000 0.200000 1.200000
v 0.100000 0.200000 0.900000
v 0.100000 0.200000 0.400000
v 0.100000 0.200000 0.200000
v 0.100000 0.200000 0.100000
v 0.400000 -0.200000 1.200000
v 0.400000 -0.100000 1.000000
v 0.400000 -0.000000 1.300000
v 0.400000 -0.000000 1.200000
v 0.400000 -0.000000 1.000000
v 0.400000 -0.000000 0.900000
v 0.400000 -0.000000 0.500000
v 0.400000 -0.000000 0.400000
v -0.400000 -0.200000 1.300000
v -0.100000 -0.300000 1.300000
v -0.100000 -0.100000 1.300000
v -0.100000 0.200000 1.300000
v -0.200000 -0.100000 1.000000
v -0.100000 -0.000000 1.000000
v 0.100000 -0.300000 1.000000
v 0.200000 -0.200000 1.000000
v 0.200000 -0.100000 1.000000
v 0.300000 -0.200000 1.000000
v -0.400000 0.000000 -0.100000
v -0.100000 -0.200000 -0.100000
v 0.100000 -0.300000 1.200000
v -0.100000 -0.300000 1.000000
v -0.200000 -0.200000 1.300000
v 0.400000 -0.200000 1.300000
v -0.400000 -0.200000 1.200000
v -0.300000 -0.200000 1.200000
v -0.200000 -0.200000 1.200000
v 0.200000 -0.200000 1.200000
v 0.300000 -0.200000 1.200000
v -0.400000 -0.200000 1.000000
v -0.300000 -0.200000 1.000000
v -0.200000 -0.200000 1.000000
v 0.100000 -0.200000 1.000000
v 0.400000 -0.200000 1.000000
v -0.100000 -0.200000 0.100000
v 0.100000 -0.200000 0.100000
v 0.100000 -0.200000 -0.100000
v -0.300000 -0.100000 1.000000
v 0.300000 -0.100000 1.000000
v 0.200000 -0.100000 0.900000
v 0.400000 -0.100000 0.900000
v -0.400000 -0.100000 0.700000
v -0.200000 -0.100000 0.700000
v -0.300000 -0.100000 0.600000
v -0.200000 -0.100000 0.600000
v -0.300000 -0.100000 0.500000
v 0.200000 -0.100000 0.500000
v 0.400000 -0.100000 0.500000
v -0.400000 -0.100000 0.400000
v -0.300000 -0.100000 0.400000
v 0.400000 -0.100000 0.400000
v -0.200000 -0.100000 0.200000
v -0.400000 -0.100000 -0.100000
v -0.200000 -0.100000 -0.100000
v 0.400000 -0.100000 -0.100000
v 0.100000 -0.000000 1.300000
v -0.100000 -0.000000 1.200000
v 0.100000 -0.000000 1.200000
v 0.100000 -0.000000 1.000000
v 0.100000 0.100000 0.900000
v 0.000000 0.100000 0.700000
v 0.000000 0.100000 0.600000
v 0.100000 0.100000 0.600000
v 0.000000 0.100000 0.400000
v 0.100000 0.100000 0.400000
v 0.000000 0.100000 0.300000
v 0.100000 0.100000 0.300000
v 0.100000 0.100000 0.200000
v -0.100000 0.100000 0.100000
v 0.100000 -0.100000 1.200000
v 0.100000 -0.100000 1.000000
v 0.100000 -0.100000 0.900000
v 0.100000 -0.100000 0.200000
v 0.100000 -0.100000 0.100000
v -0.400000 -0.000000 1.300000
v -0.200000 -0.000000 1.300000
v 0.200000 -0.000000 1.300000
v -0.400000 -0.000000 1.200000
v -0.200000 -0.000000 1.200000
v -0.400000 -0.000000 1.000000
v -0.400000 -0.000000 0.900000
v 0.200000 -0.000000 0.900000
v -0.400000 -0.000000 0.800000
v -0.200000 -0.000000 0.800000
v -0.300000 -0.000000 0.600000
v -0.200000 -0.000000 0.600000
v -0.400000 -0.000000 0.500000
v -0.300000 -0.000000 0.500000
v 0.200000 -0.000000 0.500000
v -0.400000 -0.000000 0.400000
v -0.300000 -0.000000 0.400000
v -0.400000 -0.000000 0.200000
v -0.200000 -0.000000 0.200000
v -0.400000 -0.000000 0.100000
v -0.200000 0.000000 -0.100000
v 0.400000 0.000000 -0.100000
v 0.100000 0.200000 1.300000
v 0.100000 0.200000 1.000000
v 0.000000 0.200000 0.700000
v 0.100000 0.200000 0.700000
v 0.000000 0.200000 0.600000
v 0.100000 0.200000 0.600000
v 0.000000 0.200000 0.400000
v 0.000000 0.200000 0.300000
v 0.100000 0.200000 0.300000
v -0.100000 0.200000 0.100000
v 0.100000 0.200000 -0.100000
vn -1.0000 -0.0000 -0.0000
vn 1.0000 -0.0000 -0.0000
vn -0.0000 -0.0000 1.0000
vn -0.0000 -0.0000 -1.0000
vn -0.0000 -1.0000 -0.0000
vn -0.0000 1.0000 -0.0000
vt 0.416016 0.500000
vt 0.419922 0.500000
vt 0.419922 0.500000
vt 0.412109 0.500000
vt 0.412109 0.500000
vt 0.419922 0.500000
vt 0.416016 0.500000
vt 0.419922 0.500000
vt 0.412109 0.500000
vt 0.419922 0.500000
vt 0.419922 0.500000
vt 0.416016 0.500000
vt 0.419922 0.500000
vt 0.416016 0.500000
vt 0.939453 0.500000
vt 0.416016 0.500000
vt 0.416016 0.500000
vt 0.419922 0.500000
vt 0.419922 0.500000
vt 0.412109 0.500000
vt 0.412109 0.500000
vt 0.419922 0.500000
vt 0.939453 0.500000
vt 0.416016 0.500000
vt 0.416016 0.500000
vt 0.419922 0.500000
vt 0.419922 0.500000
vt 0.412109 0.500000
vt 0.412109 0.500000
vt 0.419922 0.500000
vt 0.419922 0.500000
vt 0.416016 0.500000
vt 0.416016 0.500000
vt 0.939453 0.500000
vt 0.416016 0.500000
vt 0.419922 0.500000
vt 0.419922 0.500000
vt 0.412109 0.500000
vt 0.412109 0.500000
vt 0.419922 0.500000
vt 0.419922 0.500000
vt 0.412109 0.500000
vt 0.412109 0.500000
vt 0.419922 0.500000
vt 0.416016 0.500000
vt 0.939453 0.500000
vt 0.416016 0.500000
vt 0.416016 0.500000
vt 0.419922 0.500000
vt 0.419922 0.500000
vt 0.412109 0.500000
vt 0.412109 0.500000
vt 0.419922 0.500000
vt 0.419922 0.500000
vt 0.412109 0.500000
vt 0.412109 0.500000
vt 0.419922 0.500000
vt 0.416016 0.500000
vt 0.939453 0.500000
vt 0.419922 0.500000
vt 0.416016 0.500000
vt 0.939453 0.500000
vt 0.419922 0.500000
vt 0.416016 0.500000
vt 0.416016 0.500000
vt 0.939453 0.500000
vt 0.416016 0.500000
vt 0.416016 0.500000
vt 0.419922 0.500000
vt 0.419922 0.500000
vt 0.416016 0.500000
vt 0.416016 0.500000
vt 0.419922 0.500000
vt 0.416016 0.500000
vt 0.939453 0.500000
vt 0.419922 0.500000
vt 0.412109 0.500000
vt 0.412109 0.500000
vt 0.419922 0.500000
vt 0.419922 0.500000
vt 0.412109 0.500000
vt 0.419922 0.500000
vt 0.416016 0.500000
vt 0.416016 0.500000
vt 0.419922 0.500000
vt 0.419922 0.500000
vt 0.412109 0.500000
vt 0.419922 0.500000
vt 0.416016 0.500000
vt 0.419922 0.500000
vt 0.412109 0.500000
vt 0.419922 0.500000
vt 0.416016 0.500000
vt 0.939453 0.500000
vt 0.419922 0.500000
vt 0.412109 0.500000
vt 0.412109 0.500000
vt 0.419922 0.500000
vt 0.939453 0.500000
vt 0.416016 0.500000
vt 0.416016 0.500000
vt 0.419922 0.500000
vt 0.412109 0.500000
vt 0.419922 0.500000
vt 0.419922 0.500000
vt 0.416016 0.500000
vt 0.416016 0.500000
vt 0.939453 0.500000
vt 0.416016 0.500000
vt 0.419922 0.500000
vt 0.412109 0.500000
vt 0.416016 0.500000
vt 0.419922 0.500000
vt 0.412109 0.500000
vt 0.419922 0.500000
vt 0.419922 0.500000
vt 0.416016 0.500000
vt 0.939453 0.500000
vt 0.416016 0.500000
vt 0.416016 0.500000
vt 0.419922 0.500000
vt 0.939453 0.500000
vt 0.939453 0.500000
vt 0.416016 0.500000
vt 0.416016 0.500000
vt 0.419922 0.500000
vt 0.419922 0.500000
vt 0.412109 0.500000
vt 0.412109 0.500000
vt 0.419922 0.500000
vt 0.419922 0.500000
vt 0.416016 0.500000
vt 0.939453 0.500000
vt 0.939453 0.500000
vt 0.939453 0.500000
vt 0.939453 0.500000
vt 0.416016 0.500000
vt 0.419922 0.500000
vt 0.416016 0.500000
vt 0.416016 0.500000
vt 0.419922 0.500000
vt 0.416016 0.500000
vt 0.419922 0.500000
vt 0.419922 0.500000
vt 0.416016 0.500000
vt 0.416016 0.500000
vt 0.416016 0.500000
vt 0.939453 0.500000
vt 0.416016 0.500000
vt 0.416016 0.500000
vt 0.939453 0.500000
vt 0.939453 0.500000
vt 0.939453 0.500000
vt 0.416016 0.500000
vt 0.939453 0.500000
vt 0.419922 0.500000
vt 0.416016 0.500000
vt 0.939453 0.500000
vt 0.419922 0.500000
vt 0.939453 0.500000
vt 0.419922 0.500000
vt 0.939453 0.500000
vt 0.416016 0.500000
vt 0.419922 0.500000
vt 0.416016 0.500000
vt 0.416016 0.500000
vt 0.419922 0.500000
vt 0.419922 0.500000
vt 0.416016 0.500000
vt 0.419922 0.500000
vt 0.416016 0.500000
vt 0.419922 0.500000
vt 0.416016 0.500000
vt 0.419922 0.500000
vt 0.416016 0.500000
vt 0.416016 0.500000
vt 0.416016 0.500000
vt 0.419922 0.500000
vt 0.416016 0.500000
vt 0.419922 0.500000
vt 0.419922 0.500000
vt 0.412109 0.500000
vt 0.419922 0.500000
vt 0.412109 0.500000
vt 0.419922 0.500000
vt 0.416016 0.500000
vt 0.419922 0.500000
vt 0.416016 0.500000
vt 0.419922 0.500000
vt 0.416016 0.500000
vt 0.416016 0.500000
vt 0.419922 0.500000
vt 0.416016 0.500000
vt 0.412109 0.500000
vt 0.419922 0.500000
vt 0.412109 0.500000
vt 0.419922 0.500000
vt 0.412109 0.500000
vt 0.419922 0.500000
vt 0.419922 0.500000
vt 0.412109 0.500000
vt 0.419922 0.500000
vt 0.412109 0.500000
vt 0.419922 0.500000
vt 0.416016 0.500000
vt 0.412109 0.500000
vt 0.419922 0.500000
vt 0.416016 0.500000
vt 0.416016 0.500000
vt 0.416016 0.500000
vt 0.939453 0.500000
vt 0.939453 0.500000
vt 0.416016 0.500000
vt 0.939453 0.500000
vt 0.416016 0.500000
vt 0.416016 0.500000
vt 0.419922 0.500000
vt 0.412109 0.500000
vt 0.419922 0.500000
vt 0.412109 0.500000
vt 0.412109 0.500000
vt 0.416016 0.500000
vt 0.419922 0.500000
vt 0.419922 0.500000
vt 0.416016 0.500000
vt 0.416016 0.500000
vt 0.412109 0.500000
vt 0.419922 0.500000
vt 0.416016 0.500000
vt 0.419922 0.500000
vt 0.419922 0.500000
vt 0.412109 0.500000
vt 0.419922 0.500000
vt 0.412109 0.500000
vt 0.412109 0.500000
vt 0.419922 0.500000
vt 0.419922 0.500000
vt 0.416016 0.500000
vt 0.939453 0.500000
vt 0.416016 0.500000
vt 0.416016 0.500000
vt 0.419922 0.500000
vt 0.419922 0.500000
vt 0.412109 0.500000
vt 0.412109 0.500000
vt 0.419922 0.500000
vt 0.419922 0.500000
vt 0.416016 0.500000
vt 0.939453 0.500000
vt 0.939453 0.500000
vt 0.939453 0.500000
vt 0.939453 0.500000
vt 0.416016 0.500000
vt 0.939453 0.500000
vt 0.416016 0.500000
vt 0.416016 0.500000
vt 0.419922 0.500000
vt 0.419922 0.500000
vt 0.412109 0.500000
vt 0.419922 0.500000
vt 0.412109 0.500000
vt 0.412109 0.500000
vt 0.419922 0.500000
vt 0.412109 0.500000
vt 0.419922 0.500000
vt 0.419922 0.500000
vt 0.416016 0.500000
vt 0.416016 0.500000
vt 0.419922 0.500000
vt 0.416016 0.500000
vt 0.419922 0.500000
vt 0.416016 0.500000
vt 0.412109 0.500000
vt 0.419922 0.500000
vt 0.412109 0.500000
vt 0.419922 0.500000
vt 0.419922 0.500000
vt 0.412109 0.500000
vt 0.419922 0.500000
vt 0.412109 0.500000
vt 0.412109 0.500000
vt 0.419922 0.500000
vt 0.412109 0.500000
vt 0.419922 0.500000
vt 0.419922 0.500000
vt 0.416016 0.500000
vt 0.416016 0.500000
vt 0.416016 0.500000
vt 0.939453 0.500000
vt 0.416016 0.500000
vt 0.419922 0.500000
vt 0.419922 0.500000
vt 0.412109 0.500000
vt 0.412109 0.500000
vt 0.419922 0.500000
vt 0.412109 0.500000
vt 0.416016 0.500000
vt 0.419922 0.500000
vt 0.419922 0.500000
vt 0.416016 0.500000
vt 0.416016 0.500000
vt 0.412109 0.500000
vt 0.419922 0.500000
vt 0.419922 0.500000
vt 0.412109 0.500000
vt 0.419922 0.500000
vt 0.412109 0.500000
vt 0.419922 0.500000
vt 0.416016 0.500000
vt 0.416016 0.500000
s 0
usemtl palette
f 1/1/1 93/165/1 88/154/1
f 138/249/1 88/153/1 72/133/1
f 141/253/1 1/1/1 88/154/1
f 141/252/1 88/153/1 138/249/1
f 143/257/1 2/3/1 1/2/1
f 143/256/1 1/1/1 141/253/1
f 144/259/1 3/5/1 2/4/1
f 144/258/1 2/3/1 143/257/1
f 146/263/1 105/185/1 3/6/1
f 146/262/1 3/5/1 144/259/1
f 7/14/1 4/7/1 105/186/1
f 7/13/1 105/185/1 146/263/1
f 150/271/1 112/200/1 4/8/1
f 150/270/1 4/7/1 7/14/1
f 153/278/1 5/9/1 112/201/1
f 153/277/1 112/200/1 150/271/1
f 155/282/1 6/11/1 5/10/1
f 155/281/1 5/9/1 153/278/1
f 157/286/1 116/208/1 6/12/1
f 157/285/1 6/11/1 155/282/1
f 82/146/1 116/208/1 157/286/1
f 9/17/1 85/150/1 8/16/1
f 74/135/1 8/15/1 73/134/1
f 12/24/1 9/17/1 8/16/1
f 12/23/1 8/15/1 74/135/1
f 13/26/1 10/19/1 9/18/1
f 13/25/1 9/17/1 12/24/1
f 14/28/1 11/21/1 10/20/1
f 14/27/1 10/19/1 13/26/1
f 15/30/1 98/172/1 11/22/1
f 15/29/1 11/21/1 14/28/1
f 16/32/1 83/147/1 98/173/1
f 16/31/1 98/172/1 15/30/1
f 17/33/1 83/147/1 16/32/1
f 19/35/1 77/139/1 120/213/1
f 75/136/1 120/212/1 18/34/1
f 25/47/1 19/35/1 120/213/1
f 25/46/1 120/212/1 75/136/1
f 26/49/1 20/37/1 19/36/1
f 26/48/1 19/35/1 25/47/1
f 27/51/1 21/39/1 20/38/1
f 27/50/1 20/37/1 26/49/1
f 28/53/1 22/41/1 21/40/1
f 28/52/1 21/39/1 27/51/1
f 29/55/1 23/43/1 22/42/1
f 29/54/1 22/41/1 28/53/1
f 30/57/1 132/237/1 23/44/1
f 30/56/1 23/43/1 29/55/1
f 169/309/1 24/45/1 132/238/1
f 169/308/1 132/237/1 30/57/1
f 31/58/1 24/45/1 169/309/1
f 33/62/1 91/160/1 32/59/1
f 33/60/1 79/141/1 91/161/1
f 80/143/1 79/141/1 33/60/1
f 140/251/1 33/62/1 32/59/1
f 36/67/1 80/142/1 33/61/1
f 36/66/1 33/62/1 140/251/1
f 37/69/1 103/181/1 80/143/1
f 37/68/1 80/142/1 36/67/1
f 145/261/1 110/196/1 103/182/1
f 145/260/1 103/181/1 37/69/1
f 152/276/1 34/63/1 110/197/1
f 152/275/1 110/196/1 145/261/1
f 38/71/1 35/65/1 34/64/1
f 38/70/1 34/63/1 152/276/1
f 39/72/1 35/65/1 38/71/1
f 86/151/2 90/158/2 40/75/2
f 90/159/2 95/168/2 40/73/2
f 40/73/2 95/168/2 76/138/2
f 86/151/2 40/75/2 139/250/2
f 40/74/2 76/137/2 142/255/2
f 139/250/2 40/75/2 142/254/2
f 76/138/2 41/76/2 45/85/2
f 142/255/2 76/137/2 45/84/2
f 41/77/2 42/78/2 46/87/2
f 45/85/2 41/76/2 46/86/2
f 42/79/2 106/187/2 147/265/2
f 46/87/2 42/78/2 147/264/2
f 106/188/2 108/191/2 47/89/2
f 147/265/2 106/187/2 47/88/2
f 108/192/2 43/80/2 149/269/2
f 47/89/2 108/191/2 149/268/2
f 43/81/2 115/206/2 48/91/2
f 149/269/2 43/80/2 48/90/2
f 115/207/2 44/82/2 156/284/2
f 48/91/2 115/206/2 156/283/2
f 44/83/2 117/209/2 49/93/2
f 156/284/2 44/82/2 49/92/2
f 49/93/2 117/209/2 158/287/2
f 84/149/2 78/140/2 96/169/2
f 50/94/2 84/148/2 53/99/2
f 84/149/2 96/169/2 133/240/2
f 53/99/2 84/148/2 133/239/2
f 96/170/2 51/95/2 134/242/2
f 133/240/2 96/169/2 134/241/2
f 51/96/2 52/97/2 135/244/2
f 134/242/2 51/95/2 135/243/2
f 52/98/2 99/174/2 136/246/2
f 135/244/2 52/97/2 136/245/2
f 99/175/2 100/176/2 137/248/2
f 136/246/2 99/174/2 137/247/2
f 137/248/2 100/176/2 54/100/2
f 121/215/2 122/216/2 55/101/2
f 119/211/2 121/214/2 160/289/2
f 121/215/2 55/101/2 59/109/2
f 160/289/2 121/214/2 59/108/2
f 55/102/2 123/217/2 161/291/2
f 59/109/2 55/101/2 161/290/2
f 123/218/2 56/103/2 60/111/2
f 161/291/2 123/217/2 60/110/2
f 56/104/2 126/224/2 163/295/2
f 60/111/2 56/103/2 163/294/2
f 126/225/2 128/229/2 165/300/2
f 163/295/2 126/224/2 165/299/2
f 128/230/2 130/233/2 61/113/2
f 165/300/2 128/229/2 61/112/2
f 130/234/2 131/235/2 168/307/2
f 61/113/2 130/233/2 168/306/2
f 131/236/2 57/105/2 62/115/2
f 168/307/2 131/235/2 62/114/2
f 57/106/2 58/107/2 63/117/2
f 62/115/2 57/105/2 63/116/2
f 63/117/2 58/107/2 170/310/2
f 64/119/2 97/171/2 65/120/2
f 87/152/2 64/118/2 66/122/2
f 64/119/2 65/120/2 67/124/2
f 66/122/2 64/118/2 67/123/2
f 65/121/2 104/183/2 68/126/2
f 67/124/2 65/120/2 68/125/2
f 104/184/2 111/198/2 69/128/2
f 68/126/2 104/183/2 69/127/2
f 111/199/2 114/204/2 70/130/2
f 69/128/2 111/198/2 70/129/2
f 114/205/2 118/210/2 71/132/2
f 70/130/2 114/204/2 71/131/2
f 71/132/2 118/210/2 159/288/2
f 86/151/3 138/249/3 72/133/3
f 139/250/3 138/249/3 86/151/3
f 50/94/3 74/135/3 73/134/3
f 53/99/3 74/135/3 50/94/3
f 119/211/3 75/136/3 18/34/3
f 160/289/3 75/136/3 119/211/3
f 87/152/3 140/251/3 32/59/3
f 66/122/3 140/251/3 87/152/3
f 93/165/4 1/1/4 94/166/4
f 94/166/4 1/1/4 101/177/4
f 94/167/4 101/178/4 95/168/4
f 95/168/4 101/178/4 76/138/4
f 85/150/4 9/17/4 78/140/4
f 78/140/4 9/17/4 96/169/4
f 77/139/4 19/35/4 122/216/4
f 122/216/4 19/35/4 55/101/4
f 79/141/4 80/143/4 81/144/4
f 81/144/4 80/143/4 102/180/4
f 81/145/4 102/179/4 97/171/4
f 97/171/4 102/179/4 65/120/4
f 116/208/4 82/146/4 117/209/4
f 117/209/4 82/146/4 158/287/4
f 83/147/4 17/33/4 100/176/4
f 100/176/4 17/33/4 54/100/4
f 24/45/4 31/58/4 58/107/4
f 58/107/4 31/58/4 170/310/4
f 35/65/4 39/72/4 118/210/4
f 118/210/4 39/72/4 159/288/4
f 8/15/5 50/94/5 73/134/5
f 84/148/5 50/94/5 8/15/5
f 85/150/5 84/149/5 8/16/5
f 78/140/5 84/149/5 85/150/5
f 88/153/5 86/151/5 72/133/5
f 89/155/5 86/151/5 88/153/5
f 90/158/5 86/151/5 89/155/5
f 91/160/5 87/152/5 32/59/5
f 92/162/5 87/152/5 91/160/5
f 64/118/5 87/152/5 92/162/5
f 93/165/5 89/157/5 88/154/5
f 94/167/5 90/159/5 89/156/5
f 94/166/5 89/157/5 93/165/5
f 95/168/5 90/159/5 94/167/5
f 79/141/5 92/164/5 91/161/5
f 81/145/5 64/119/5 92/163/5
f 81/144/5 92/164/5 79/141/5
f 97/171/5 64/119/5 81/145/5
f 10/19/5 96/170/5 9/18/5
f 51/95/5 96/170/5 10/19/5
f 11/21/5 51/96/5 10/20/5
f 52/97/5 51/96/5 11/21/5
f 98/172/5 52/98/5 11/22/5
f 99/174/5 52/98/5 98/172/5
f 83/147/5 99/175/5 98/173/5
f 100/176/5 99/175/5 83/147/5
f 2/3/5 101/178/5 1/2/5
f 2/3/5 76/138/5 101/178/5
f 41/76/5 76/138/5 2/3/5
f 103/181/5 65/121/5 102/180/5
f 103/181/5 102/180/5 80/143/5
f 104/183/5 65/121/5 103/181/5
f 3/5/5 41/77/5 2/4/5
f 42/78/5 41/77/5 3/5/5
f 105/185/5 42/79/5 3/6/5
f 106/187/5 42/79/5 105/185/5
f 107/190/5 106/188/5 105/186/5
f 108/191/5 106/188/5 107/190/5
f 4/7/5 107/190/5 105/186/5
f 109/195/5 108/192/5 107/189/5
f 109/193/5 107/190/5 4/7/5
f 43/80/5 108/192/5 109/195/5
f 110/196/5 104/184/5 103/182/5
f 111/198/5 104/184/5 110/196/5
f 112/200/5 109/195/5 4/8/5
f 113/203/5 43/81/5 109/194/5
f 113/202/5 109/195/5 112/200/5
f 34/63/5 111/199/5 110/197/5
f 114/204/5 111/199/5 34/63/5
f 5/9/5 113/203/5 112/201/5
f 115/206/5 43/81/5 113/203/5
f 115/206/5 113/203/5 5/9/5
f 6/11/5 115/207/5 5/10/5
f 44/82/5 115/207/5 6/11/5
f 116/208/5 44/83/5 6/12/5
f 117/209/5 44/83/5 116/208/5
f 35/65/5 114/205/5 34/64/5
f 118/210/5 114/205/5 35/65/5
f 120/212/5 119/211/5 18/34/5
f 121/214/5 119/211/5 120/212/5
f 77/139/5 121/215/5 120/213/5
f 122/216/5 121/215/5 77/139/5
f 20/37/5 55/102/5 19/36/5
f 123/217/5 55/102/5 20/37/5
f 124/220/5 123/218/5 20/38/5
f 56/103/5 123/218/5 124/220/5
f 21/39/5 124/220/5 20/38/5
f 125/223/5 56/104/5 124/219/5
f 125/221/5 124/220/5 21/39/5
f 126/224/5 56/104/5 125/223/5
f 22/41/5 125/223/5 21/40/5
f 127/226/5 126/225/5 125/222/5
f 127/228/5 125/223/5 22/41/5
f 128/229/5 126/225/5 127/226/5
f 129/232/5 127/227/5 22/42/5
f 129/231/5 128/230/5 127/228/5
f 130/233/5 128/230/5 129/231/5
f 23/43/5 129/232/5 22/42/5
f 23/43/5 130/234/5 129/232/5
f 131/235/5 130/234/5 23/43/5
f 132/237/5 131/236/5 23/44/5
f 57/105/5 131/236/5 132/237/5
f 24/45/5 57/106/5 132/238/5
f 58/107/5 57/106/5 24/45/5
f 74/135/6 53/99/6 12/23/6
f 12/23/6 53/99/6 133/239/6
f 12/24/6 133/240/6 13/25/6
f 13/25/6 133/240/6 134/241/6
f 13/26/6 134/242/6 14/27/6
f 14/27/6 134/242/6 135/243/6
f 14/28/6 135/244/6 15/29/6
f 15/29/6 135/244/6 136/245/6
f 15/30/6 136/246/6 16/31/6
f 16/31/6 136/246/6 137/247/6
f 16/32/6 137/248/6 17/33/6
f 17/33/6 137/248/6 54/100/6
f 138/249/6 139/250/6 141/252/6
f 141/252/6 139/250/6 142/254/6
f 140/251/6 66/122/6 36/66/6
f 36/66/6 66/122/6 67/123/6
f 141/253/6 142/255/6 143/256/6
f 143/256/6 142/255/6 45/84/6
f 36/67/6 67/124/6 37/68/6
f 37/68/6 67/124/6 68/125/6
f 143/257/6 45/85/6 144/258/6
f 144/258/6 45/85/6 46/86/6
f 37/69/6 68/126/6 145/260/6
f 145/260/6 68/126/6 69/127/6
f 144/259/6 46/87/6 146/262/6
f 146/262/6 46/87/6 147/264/6
f 146/263/6 147/265/6 7/13/6
f 7/13/6 147/265/6 47/88/6
f 7/14/6 47/89/6 148/267/6
f 148/267/6 47/89/6 149/268/6
f 7/14/6 148/267/6 150/270/6
f 148/266/6 149/269/6 151/274/6
f 150/270/6 148/267/6 151/272/6
f 151/274/6 149/269/6 48/90/6
f 145/261/6 69/128/6 152/275/6
f 152/275/6 69/128/6 70/129/6
f 150/271/6 151/274/6 153/277/6
f 151/273/6 48/91/6 154/280/6
f 153/277/6 151/274/6 154/279/6
f 152/276/6 70/130/6 38/70/6
f 38/70/6 70/130/6 71/131/6
f 153/278/6 154/280/6 155/281/6
f 154/280/6 48/91/6 156/283/6
f 155/281/6 154/280/6 156/283/6
f 155/282/6 156/284/6 157/285/6
f 157/285/6 156/284/6 49/92/6
f 157/286/6 49/93/6 82/146/6
f 82/146/6 49/93/6 158/287/6
f 38/71/6 71/132/6 39/72/6
f 39/72/6 71/132/6 159/288/6
f 75/136/6 160/289/6 25/46/6
f 25/46/6 160/289/6 59/108/6
f 25/47/6 59/109/6 26/48/6
f 26/48/6 59/109/6 161/290/6
f 26/49/6 161/291/6 27/50/6
f 27/50/6 161/291/6 60/110/6
f 27/51/6 60/111/6 162/293/6
f 162/293/6 60/111/6 163/294/6
f 27/51/6 162/293/6 28/52/6
f 162/292/6 163/295/6 164/298/6
f 28/52/6 162/293/6 164/296/6
f 164/298/6 163/295/6 165/299/6
f 28/53/6 164/298/6 29/54/6
f 164/297/6 165/300/6 166/301/6
f 29/54/6 164/298/6 166/303/6
f 166/301/6 165/300/6 61/112/6
f 29/55/6 166/302/6 167/305/6
f 166/303/6 61/113/6 167/304/6
f 167/304/6 61/113/6 168/306/6
f 29/55/6 167/305/6 30/56/6
f 167/305/6 168/307/6 30/56/6
f 30/56/6 168/307/6 62/114/6
f 30/57/6 62/115/6 169/308/6
f 169/308/6 62/115/6 63/116/6
f 169/309/6 63/117/6 31/58/6
f 31/58/6 63/117/6 170/310/6
