# Blender 3.4.1
# www.blender.org
mtllib walker_axis_outline.mtl
o Untitled
v -0.800000 -0.200000 0.600000
v -0.800000 0.200000 -0.400000
v -0.700000 -0.200000 -0.700000
v -0.700000 0.300000 0.600000
v -0.700000 0.300000 -0.600000
v -0.700000 0.300000 -0.700000
v -0.500000 0.300000 0.900000
v -0.500000 0.300000 -0.900000
v 0.500000 0.300000 -0.900000
v 0.600000 -0.200000 0.800000
v 0.600000 -0.200000 -0.700000
v 0.600000 -0.200000 -0.800000
v 0.600000 0.300000 0.700000
v 0.700000 -0.200000 -0.700000
v 0.700000 0.300000 0.600000
v 0.700000 0.300000 -0.600000
v 0.800000 -0.200000 -0.400000
v 0.800000 0.200000 -0.400000
v 0.800000 0.300000 0.600000
v 1.700000 -0.200000 0.400000
v -0.600000 0.300000 0.800000
v 0.500000 0.300000 0.800000
v -0.600000 0.300000 0.700000
v 0.700000 -0.200000 0.700000
v 0.700000 0.300000 0.700000
v -0.800000 0.300000 0.600000
v 0.800000 -0.200000 0.600000
v -1.700000 -0.200000 0.400000
v -1.700000 0.200000 0.400000
v -0.800000 -0.200000 0.400000
v 0.800000 0.200000 0.400000
v 1.700000 -0.200000 -0.400000
v 1.700000 0.200000 -0.400000
v -0.800000 -0.200000 -0.600000
v -0.800000 0.300000 -0.600000
v -0.700000 -0.200000 -0.600000
v 0.800000 -0.200000 -0.600000
v 0.800000 0.300000 -0.600000
v -0.600000 -0.200000 -0.700000
v 0.600000 0.300000 -0.700000
v 0.700000 0.300000 -0.700000
v -0.500000 -0.200000 -0.800000
v 0.500000 -0.200000 -0.800000
v 0.500000 0.300000 -0.800000
v 0.500000 -0.200000 -0.900000
v -0.500000 -0.200000 0.900000
v 0.500000 -0.200000 0.900000
v -0.600000 -0.200000 0.800000
v -0.500000 -0.200000 0.800000
v 0.500000 -0.200000 0.800000
v -0.700000 -0.200000 0.700000
v -0.600000 -0.200000 0.700000
v 0.600000 -0.200000 0.700000
v -0.700000 -0.200000 0.600000
v 0.700000 -0.200000 0.600000
v 0.800000 -0.200000 0.400000
v -1.700000 -0.200000 -0.400000
v -0.800000 -0.200000 -0.400000
v 0.700000 -0.200000 -0.600000
v -0.600000 -0.200000 -0.800000
v -0.500000 -0.200000 -0.900000
v -0.800000 0.200000 0.400000
v 1.700000 0.200000 0.400000
v -1.700000 0.200000 -0.400000
v 0.500000 0.300000 0.900000
v -0.500000 0.300000 0.800000
v 0.600000 0.300000 0.800000
v -0.700000 0.300000 0.700000
v -0.600000 0.300000 -0.700000
v -0.600000 0.300000 -0.800000
v -0.500000 0.300000 -0.800000
v 0.600000 0.300000 -0.800000
v -0.817321 -0.217321 0.617320
v -0.827136 0.209045 -0.409045
v -0.717321 -0.217320 -0.717321
v -0.709045 0.327136 0.609045
v -0.709045 0.327136 -0.609045
v -0.717321 0.317321 -0.717320
v -0.517321 0.317320 0.917321
v -0.517321 0.317321 -0.917320
v 0.517321 0.317321 -0.917320
v 0.617321 -0.217321 0.817320
v 0.609045 -0.227136 -0.709045
v 0.617321 -0.217320 -0.817321
v 0.609045 0.327136 0.709045
v 0.717321 -0.217320 -0.717321
v 0.709045 0.327136 0.609045
v 0.709045 0.327136 -0.609045
v 0.809045 -0.227136 -0.409045
v 0.827136 0.209045 -0.409045
v 0.817321 0.317320 0.617321
v 1.717321 -0.217321 0.417320
v -0.617321 0.317320 0.817321
v 0.509045 0.327136 0.809045
v -0.609045 0.327136 0.709045
v 0.717321 -0.217321 0.717320
v 0.717321 0.317320 0.717321
v -0.817321 0.317320 0.617321
v 0.817321 -0.217321 0.617320
v -1.717321 -0.217321 0.417320
v -1.717321 0.217320 0.417321
v -0.809045 -0.227136 0.409045
v 0.827136 0.209045 0.409045
v 1.717321 -0.217320 -0.417321
v 1.717321 0.217321 -0.417320
v -0.817321 -0.217320 -0.617321
v -0.817321 0.317321 -0.617320
v -0.709045 -0.227136 -0.609045
v 0.817321 -0.217320 -0.617321
v 0.817321 0.317321 -0.617320
v -0.609045 -0.227136 -0.709045
v 0.609045 0.327136 -0.709045
v 0.717321 0.317321 -0.717320
v -0.509045 -0.227136 -0.809045
v 0.509045 -0.227136 -0.809045
v 0.509045 0.327136 -0.809045
v 0.517321 -0.217320 -0.917321
v -0.517321 -0.217321 0.917320
v 0.517321 -0.217321 0.917320
v -0.617321 -0.217321 0.817320
v -0.509045 -0.227136 0.809045
v 0.509045 -0.227136 0.809045
v -0.717321 -0.217321 0.717320
v -0.609045 -0.227136 0.709045
v 0.609045 -0.227136 0.709045
v -0.709045 -0.227136 0.609045
v 0.709045 -0.227136 0.609045
v 0.809045 -0.227136 0.409045
v -1.717321 -0.217320 -0.417321
v -0.809045 -0.227136 -0.409045
v 0.709045 -0.227136 -0.609045
v -0.617321 -0.217320 -0.817321
v -0.517321 -0.217320 -0.917321
v -0.827136 0.209045 0.409045
v 1.717321 0.217320 0.417321
v -1.717321 0.217321 -0.417320
v 0.517321 0.317320 0.917321
v -0.509045 0.327136 0.809045
v 0.617321 0.317320 0.817321
v -0.717321 0.317320 0.717321
v -0.609045 0.327136 -0.709045
v -0.617321 0.317321 -0.817320
v -0.509045 0.327136 -0.809045
v 0.617321 0.317321 -0.817320
vn -1.0000 -0.0000 -0.0000
vn 1.0000 -0.0000 -0.0000
vn -0.0000 -0.0000 1.0000
vn -0.0000 -0.0000 -1.0000
vn -0.0000 -1.0000 -0.0000
vn -0.0000 1.0000 -0.0000
vn 0.9984 0.0414 0.0377
vn 0.9984 0.0414 -0.0377
vn 0.9989 -0.0000 -0.0471
vn 0.9959 -0.0903 -0.0000
vn 0.9989 -0.0000 0.0471
vn 0.9971 -0.0000 0.0762
vn 0.9971 -0.0000 -0.0762
vn -0.9971 -0.0000 0.0762
vn -0.9971 -0.0000 -0.0762
vn -0.9984 0.0414 0.0377
vn -0.9984 0.0414 -0.0377
vn -0.9989 -0.0000 -0.0471
vn -0.9959 -0.0903 -0.0000
vn -0.9989 -0.0000 0.0471
vn -0.0762 -0.0000 -0.9971
vn 0.0762 -0.0000 -0.9971
vn -0.0091 -0.0000 -1.0000
vn -0.0093 -0.0004 -1.0000
vn 0.0091 -0.0004 -1.0000
vn 0.0093 -0.0000 -1.0000
vn -0.0091 -0.0000 1.0000
vn -0.0093 -0.0004 1.0000
vn 0.0091 -0.0004 1.0000
vn 0.0093 -0.0000 1.0000
vn -0.0762 -0.0000 0.9971
vn 0.0762 -0.0000 0.9971
vn -0.0000 0.9959 -0.0903
vn 0.0836 0.9930 -0.0836
vn -0.0882 0.1415 0.9860
vn -0.0756 -0.0062 0.9971
vn 0.0869 0.9953 -0.0435
vn -0.1118 0.5176 0.8483
vn -0.0000 0.9989 -0.0471
vn 0.0108 0.9999 -0.0000
vn -0.0112 0.9989 0.0462
vn -0.0000 0.9999 0.0119
vn 0.0112 0.9989 -0.0462
vn -0.0000 0.9999 -0.0119
vn -0.0108 0.9999 -0.0000
vn -0.0000 0.9989 0.0471
vn 0.1118 0.5176 -0.8483
vn -0.0869 0.9953 0.0435
vn -0.0000 0.9959 0.0903
vn 0.0756 -0.0062 -0.9971
vn -0.0836 0.9930 0.0836
vn 0.0882 0.1415 -0.9860
vn -0.0093 -1.0000 -0.0000
vn 0.0093 -1.0000 -0.0000
vn -0.0000 -0.9959 -0.0903
vn 0.0836 -0.9930 -0.0836
vn -0.0882 -0.1415 0.9860
vn -0.0756 0.0062 0.9971
vn 0.0903 -0.9959 -0.0000
vn -0.0995 -0.9863 0.1317
vn -0.0000 -1.0000 0.0080
vn 0.0995 -0.9863 -0.1317
vn -0.0000 -1.0000 -0.0080
vn -0.0903 -0.9959 -0.0000
vn -0.0000 -0.9959 0.0903
vn 0.0756 0.0062 -0.9971
vn -0.0836 -0.9930 0.0836
vn 0.0882 -0.1415 -0.9860
vt 0.412109 0.500000
vt 0.412109 0.500000
vt 0.412109 0.500000
vt 0.412109 0.500000
vt 0.412109 0.500000
vt 0.412109 0.500000
vt 0.412109 0.500000
vt 0.412109 0.500000
vt 0.412109 0.500000
vt 0.412109 0.500000
vt 0.412109 0.500000
vt 0.412109 0.500000
vt 0.412109 0.500000
vt 0.412109 0.500000
vt 0.412109 0.500000
vt 0.412109 0.500000
vt 0.412109 0.500000
vt 0.412109 0.500000
vt 0.412109 0.500000
vt 0.412109 0.500000
vt 0.412109 0.500000
vt 0.412109 0.500000
vt 0.412109 0.500000
vt 0.412109 0.500000
vt 0.412109 0.500000
vt 0.412109 0.500000
vt 0.412109 0.500000
vt 0.412109 0.500000
vt 0.412109 0.500000
vt 0.412109 0.500000
vt 0.412109 0.500000
vt 0.412109 0.500000
vt 0.412109 0.500000
vt 0.412109 0.500000
vt 0.412109 0.500000
vt 0.412109 0.500000
vt 0.412109 0.500000
vt 0.412109 0.500000
vt 0.412109 0.500000
vt 0.412109 0.500000
vt 0.412109 0.500000
vt 0.412109 0.500000
vt 0.412109 0.500000
vt 0.412109 0.500000
vt 0.412109 0.500000
vt 0.412109 0.500000
vt 0.412109 0.500000
vt 0.412109 0.500000
vt 0.412109 0.500000
vt 0.412109 0.500000
vt 0.412109 0.500000
vt 0.412109 0.500000
vt 0.412109 0.500000
vt 0.412109 0.500000
vt 0.412109 0.500000
vt 0.412109 0.500000
vt 0.412109 0.500000
vt 0.412109 0.500000
vt 0.412109 0.500000
vt 0.412109 0.500000
vt 0.412109 0.500000
vt 0.412109 0.500000
vt 0.412109 0.500000
vt 0.412109 0.500000
vt 0.412109 0.500000
vt 0.412109 0.500000
vt 0.412109 0.500000
vt 0.412109 0.500000
vt 0.412109 0.500000
vt 0.412109 0.500000
vt 0.412109 0.500000
vt 0.412109 0.500000
vt 0.412109 0.500000
vt 0.412109 0.500000
vt 0.412109 0.500000
vt 0.412109 0.500000
vt 0.412109 0.500000
vt 0.412109 0.500000
vt 0.412109 0.500000
vt 0.412109 0.500000
vt 0.412109 0.500000
vt 0.412109 0.500000
vt 0.412109 0.500000
vt 0.412109 0.500000
vt 0.412109 0.500000
vt 0.412109 0.500000
vt 0.412109 0.500000
vt 0.412109 0.500000
vt 0.412109 0.500000
vt 0.412109 0.500000
vt 0.412109 0.500000
vt 0.412109 0.500000
vt 0.412109 0.500000
vt 0.412109 0.500000
vt 0.412109 0.500000
vt 0.412109 0.500000
vt 0.412109 0.500000
vt 0.412109 0.500000
vt 0.412109 0.500000
vt 0.412109 0.500000
vt 0.412109 0.500000
vt 0.412109 0.500000
vt 0.412109 0.500000
vt 0.412109 0.500000
vt 0.412109 0.500000
vt 0.412109 0.500000
vt 0.412109 0.500000
vt 0.412109 0.500000
vt 0.412109 0.500000
vt 0.412109 0.500000
vt 0.412109 0.500000
vt 0.412109 0.500000
vt 0.412109 0.500000
vt 0.412109 0.500000
vt 0.412109 0.500000
vt 0.412109 0.500000
vt 0.412109 0.500000
vt 0.412109 0.500000
vt 0.412109 0.500000
vt 0.412109 0.500000
vt 0.412109 0.500000
vt 0.412109 0.500000
vt 0.412109 0.500000
vt 0.412109 0.500000
vt 0.412109 0.500000
vt 0.412109 0.500000
vt 0.412109 0.500000
vt 0.412109 0.500000
vt 0.412109 0.500000
vt 0.412109 0.500000
vt 0.412109 0.500000
vt 0.412109 0.500000
vt 0.412109 0.500000
vt 0.412109 0.500000
vt 0.412109 0.500000
vt 0.412109 0.500000
vt 0.412109 0.500000
vt 0.412109 0.500000
vt 0.412109 0.500000
vt 0.412109 0.500000
vt 0.412109 0.500000
vt 0.412109 0.500000
vt 0.412109 0.500000
vt 0.412109 0.500000
s 0
usemtl Material.001
f 29/29/1 57/57/1 28/28/1
f 64/64/1 57/57/1 29/29/1
f 62/62/1 30/30/1 1/1/1
f 2/2/1 34/34/1 58/58/1
f 26/26/1 62/62/1 1/1/1
f 26/26/1 2/2/1 62/62/1
f 35/35/1 34/34/1 2/2/1
f 35/35/1 2/2/1 26/26/1
f 68/68/1 54/54/1 51/51/1
f 4/4/1 54/54/1 68/68/1
f 5/5/1 3/3/1 36/36/1
f 6/6/1 3/3/1 5/5/1
f 21/21/1 52/52/1 48/48/1
f 23/23/1 52/52/1 21/21/1
f 69/69/1 60/60/1 39/39/1
f 70/70/1 60/60/1 69/69/1
f 7/7/1 49/49/1 46/46/1
f 66/66/1 49/49/1 7/7/1
f 71/71/1 61/61/1 42/42/1
f 8/8/1 61/61/1 71/71/1
f 47/47/2 50/50/2 65/65/2
f 65/65/2 50/50/2 22/22/2
f 43/43/2 45/45/2 44/44/2
f 44/44/2 45/45/2 9/9/2
f 10/10/2 53/53/2 67/67/2
f 67/67/2 53/53/2 13/13/2
f 11/11/2 12/12/2 40/40/2
f 40/40/2 12/12/2 72/72/2
f 24/24/2 55/55/2 25/25/2
f 25/25/2 55/55/2 15/15/2
f 59/59/2 14/14/2 16/16/2
f 16/16/2 14/14/2 41/41/2
f 27/27/2 56/56/2 31/31/2
f 17/17/2 37/37/2 18/18/2
f 27/27/2 31/31/2 19/19/2
f 31/31/2 18/18/2 19/19/2
f 18/18/2 37/37/2 38/38/2
f 19/19/2 18/18/2 38/38/2
f 20/20/2 32/32/2 63/63/2
f 63/63/2 32/32/2 33/33/2
f 47/47/3 7/7/3 46/46/3
f 65/65/3 7/7/3 47/47/3
f 49/49/3 21/21/3 48/48/3
f 66/66/3 21/21/3 49/49/3
f 10/10/3 22/22/3 50/50/3
f 67/67/3 22/22/3 10/10/3
f 52/52/3 68/68/3 51/51/3
f 23/23/3 68/68/3 52/52/3
f 24/24/3 13/13/3 53/53/3
f 25/25/3 13/13/3 24/24/3
f 54/54/3 26/26/3 1/1/3
f 4/4/3 26/26/3 54/54/3
f 27/27/3 15/15/3 55/55/3
f 19/19/3 15/15/3 27/27/3
f 30/30/3 29/29/3 28/28/3
f 62/62/3 29/29/3 30/30/3
f 20/20/3 31/31/3 56/56/3
f 63/63/3 31/31/3 20/20/3
f 57/57/4 64/64/4 58/58/4
f 58/58/4 64/64/4 2/2/4
f 17/17/4 18/18/4 32/32/4
f 32/32/4 18/18/4 33/33/4
f 34/34/4 35/35/4 36/36/4
f 36/36/4 35/35/4 5/5/4
f 59/59/4 16/16/4 37/37/4
f 37/37/4 16/16/4 38/38/4
f 3/3/4 6/6/4 39/39/4
f 39/39/4 6/6/4 69/69/4
f 11/11/4 40/40/4 14/14/4
f 14/14/4 40/40/4 41/41/4
f 60/60/4 70/70/4 42/42/4
f 42/42/4 70/70/4 71/71/4
f 43/43/4 44/44/4 12/12/4
f 12/12/4 44/44/4 72/72/4
f 61/61/4 8/8/4 45/45/4
f 45/45/4 8/8/4 9/9/4
f 49/49/5 47/47/5 46/46/5
f 50/50/5 47/47/5 49/49/5
f 52/52/5 49/49/5 48/48/5
f 52/52/5 10/10/5 50/50/5
f 52/52/5 50/50/5 49/49/5
f 53/53/5 10/10/5 52/52/5
f 54/54/5 52/52/5 51/51/5
f 54/54/5 24/24/5 53/53/5
f 54/54/5 53/53/5 52/52/5
f 55/55/5 24/24/5 54/54/5
f 30/30/5 54/54/5 1/1/5
f 30/30/5 27/27/5 55/55/5
f 30/30/5 55/55/5 54/54/5
f 56/56/5 27/27/5 30/30/5
f 57/57/5 30/30/5 28/28/5
f 57/57/5 20/20/5 56/56/5
f 57/57/5 56/56/5 30/30/5
f 58/58/5 20/20/5 57/57/5
f 17/17/5 20/20/5 58/58/5
f 32/32/5 20/20/5 17/17/5
f 34/34/5 17/17/5 58/58/5
f 36/36/5 17/17/5 34/34/5
f 59/59/5 17/17/5 36/36/5
f 37/37/5 17/17/5 59/59/5
f 3/3/5 59/59/5 36/36/5
f 39/39/5 59/59/5 3/3/5
f 11/11/5 59/59/5 39/39/5
f 14/14/5 59/59/5 11/11/5
f 60/60/5 11/11/5 39/39/5
f 42/42/5 11/11/5 60/60/5
f 43/43/5 11/11/5 42/42/5
f 12/12/5 11/11/5 43/43/5
f 61/61/5 43/43/5 42/42/5
f 45/45/5 43/43/5 61/61/5
f 29/29/6 62/62/6 64/64/6
f 64/64/6 62/62/6 2/2/6
f 31/31/6 63/63/6 18/18/6
f 18/18/6 63/63/6 33/33/6
f 7/7/6 65/65/6 66/66/6
f 66/66/6 65/65/6 22/22/6
f 21/21/6 66/66/6 23/23/6
f 22/22/6 67/67/6 23/23/6
f 66/66/6 22/22/6 23/23/6
f 23/23/6 67/67/6 13/13/6
f 68/68/6 23/23/6 4/4/6
f 13/13/6 25/25/6 4/4/6
f 23/23/6 13/13/6 4/4/6
f 4/4/6 25/25/6 15/15/6
f 26/26/6 4/4/6 35/35/6
f 15/15/6 19/19/6 35/35/6
f 4/4/6 15/15/6 35/35/6
f 35/35/6 19/19/6 5/5/6
f 5/5/6 19/19/6 16/16/6
f 16/16/6 19/19/6 38/38/6
f 5/5/6 16/16/6 6/6/6
f 6/6/6 16/16/6 69/69/6
f 69/69/6 16/16/6 40/40/6
f 40/40/6 16/16/6 41/41/6
f 69/69/6 40/40/6 70/70/6
f 70/70/6 40/40/6 71/71/6
f 71/71/6 40/40/6 44/44/6
f 44/44/6 40/40/6 72/72/6
f 71/71/6 44/44/6 8/8/6
f 8/8/6 44/44/6 9/9/6
f 101/101/2 100/100/2 129/129/2
f 136/136/2 101/101/2 129/129/2
f 134/134/7 73/73/7 102/102/7
f 74/74/8 130/130/8 106/106/8
f 98/98/9 73/73/9 134/134/9
f 98/98/10 134/134/10 74/74/10
f 107/107/11 74/74/11 106/106/11
f 107/107/10 98/98/10 74/74/10
f 140/140/12 123/123/12 126/126/12
f 76/76/12 140/140/12 126/126/12
f 77/77/13 108/108/13 75/75/13
f 78/78/13 77/77/13 75/75/13
f 93/93/12 120/120/12 124/124/12
f 95/95/12 93/93/12 124/124/12
f 141/141/13 111/111/13 132/132/13
f 142/142/13 141/141/13 132/132/13
f 79/79/12 118/118/12 121/121/12
f 138/138/12 79/79/12 121/121/12
f 143/143/13 114/114/13 133/133/13
f 80/80/13 143/143/13 133/133/13
f 119/119/14 137/137/14 122/122/14
f 137/137/14 94/94/14 122/122/14
f 115/115/15 116/116/15 117/117/15
f 116/116/15 81/81/15 117/117/15
f 82/82/14 139/139/14 125/125/14
f 139/139/14 85/85/14 125/125/14
f 83/83/15 112/112/15 84/84/15
f 112/112/15 144/144/15 84/84/15
f 96/96/14 97/97/14 127/127/14
f 97/97/14 87/87/14 127/127/14
f 131/131/15 88/88/15 86/86/15
f 88/88/15 113/113/15 86/86/15
f 99/99/16 103/103/16 128/128/16
f 89/89/17 90/90/17 109/109/17
f 99/99/18 91/91/18 103/103/18
f 103/103/19 91/91/19 90/90/19
f 90/90/20 110/110/20 109/109/20
f 91/91/19 110/110/19 90/90/19
f 92/92/1 135/135/1 104/104/1
f 135/135/1 105/105/1 104/104/1
f 119/119/4 118/118/4 79/79/4
f 137/137/4 119/119/4 79/79/4
f 121/121/21 120/120/21 93/93/21
f 138/138/21 121/121/21 93/93/21
f 82/82/22 122/122/22 94/94/22
f 139/139/22 82/82/22 94/94/22
f 124/124/21 123/123/21 140/140/21
f 95/95/21 124/124/21 140/140/21
f 96/96/22 125/125/22 85/85/22
f 97/97/22 96/96/22 85/85/22
f 126/126/21 73/73/21 98/98/21
f 76/76/21 126/126/21 98/98/21
f 99/99/22 127/127/22 87/87/22
f 91/91/22 99/99/22 87/87/22
f 102/102/23 100/100/23 101/101/23
f 134/134/24 102/102/24 101/101/24
f 92/92/25 128/128/25 103/103/25
f 135/135/26 92/92/26 103/103/26
f 129/129/27 130/130/27 136/136/27
f 130/130/28 74/74/28 136/136/28
f 89/89/29 104/104/29 90/90/29
f 104/104/30 105/105/30 90/90/30
f 106/106/31 108/108/31 107/107/31
f 108/108/31 77/77/31 107/107/31
f 131/131/32 109/109/32 88/88/32
f 109/109/32 110/110/32 88/88/32
f 75/75/31 111/111/31 78/78/31
f 111/111/31 141/141/31 78/78/31
f 83/83/32 86/86/32 112/112/32
f 86/86/32 113/113/32 112/112/32
f 132/132/31 114/114/31 142/142/31
f 114/114/31 143/143/31 142/142/31
f 115/115/32 84/84/32 116/116/32
f 84/84/32 144/144/32 116/116/32
f 133/133/3 117/117/3 80/80/3
f 117/117/3 81/81/3 80/80/3
f 121/121/33 118/118/33 119/119/33
f 122/122/33 121/121/33 119/119/33
f 124/124/34 120/120/34 121/121/34
f 124/124/35 122/122/35 82/82/35
f 124/124/6 121/121/6 122/122/6
f 125/125/33 124/124/33 82/82/33
f 126/126/34 123/123/34 124/124/34
f 126/126/36 125/125/36 96/96/36
f 126/126/6 124/124/6 125/125/6
f 127/127/33 126/126/33 96/96/33
f 102/102/37 73/73/37 126/126/37
f 102/102/38 127/127/38 99/99/38
f 102/102/6 126/126/6 127/127/6
f 128/128/39 102/102/39 99/99/39
f 129/129/40 100/100/40 102/102/40
f 129/129/41 128/128/41 92/92/41
f 129/129/42 102/102/42 128/128/42
f 130/130/43 129/129/43 92/92/43
f 89/89/44 130/130/44 92/92/44
f 104/104/45 89/89/45 92/92/45
f 106/106/46 130/130/46 89/89/46
f 108/108/47 106/106/47 89/89/47
f 131/131/6 108/108/6 89/89/6
f 109/109/48 131/131/48 89/89/48
f 75/75/49 108/108/49 131/131/49
f 111/111/50 75/75/50 131/131/50
f 83/83/6 111/111/6 131/131/6
f 86/86/51 83/83/51 131/131/51
f 132/132/49 111/111/49 83/83/49
f 114/114/52 132/132/52 83/83/52
f 115/115/6 114/114/6 83/83/6
f 84/84/51 115/115/51 83/83/51
f 133/133/49 114/114/49 115/115/49
f 117/117/49 133/133/49 115/115/49
f 101/101/53 136/136/53 134/134/53
f 136/136/53 74/74/53 134/134/53
f 103/103/54 90/90/54 135/135/54
f 90/90/54 105/105/54 135/135/54
f 79/79/55 138/138/55 137/137/55
f 138/138/55 94/94/55 137/137/55
f 93/93/56 95/95/56 138/138/56
f 94/94/57 95/95/57 139/139/57
f 138/138/5 95/95/5 94/94/5
f 95/95/55 85/85/55 139/139/55
f 140/140/56 76/76/56 95/95/56
f 85/85/58 76/76/58 97/97/58
f 95/95/5 76/76/5 85/85/5
f 76/76/55 87/87/55 97/97/55
f 98/98/59 107/107/59 76/76/59
f 87/87/60 107/107/60 91/91/60
f 76/76/61 107/107/61 87/87/61
f 107/107/62 77/77/62 91/91/62
f 77/77/63 88/88/63 91/91/63
f 88/88/64 110/110/64 91/91/64
f 77/77/65 78/78/65 88/88/65
f 78/78/66 141/141/66 88/88/66
f 141/141/5 112/112/5 88/88/5
f 112/112/67 113/113/67 88/88/67
f 141/141/65 142/142/65 112/112/65
f 142/142/68 143/143/68 112/112/68
f 143/143/5 116/116/5 112/112/5
f 116/116/67 144/144/67 112/112/67
f 143/143/65 80/80/65 116/116/65
f 80/80/65 81/81/65 116/116/65
