# Blender 3.4.1
# www.blender.org
mtllib walker_cannon_gun_outline.mtl
o Untitled
v -0.100000 -0.100000 1.600000
v -0.100000 -0.100000 1.300000
v -0.100000 -0.100000 0.700000
v -0.100000 -0.100000 0.200000
v -0.100000 -0.100000 0.100000
v -0.100000 -0.100000 -0.000000
v -0.100000 -0.000000 1.400000
v -0.100000 -0.000000 1.300000
v -0.100000 -0.000000 1.100000
v -0.100000 -0.000000 0.800000
v -0.100000 -0.000000 0.700000
v -0.100000 -0.000000 0.600000
v -0.100000 -0.000000 0.500000
v -0.100000 -0.000000 0.400000
v -0.100000 -0.000000 0.300000
v -0.100000 -0.000000 0.200000
v -0.100000 0.100000 1.500000
v -0.100000 0.100000 1.300000
v -0.100000 0.100000 1.100000
v -0.100000 0.100000 0.800000
v -0.100000 0.100000 0.600000
v -0.100000 0.100000 0.500000
v -0.100000 0.100000 0.400000
v -0.100000 0.100000 0.300000
v -0.100000 0.100000 0.200000
v -0.100000 0.100000 0.100000
v -0.100000 0.100000 0.000000
v -0.100000 0.100000 -0.100000
v 0.100000 -0.100000 1.400000
v 0.100000 -0.100000 1.300000
v 0.100000 -0.100000 1.200000
v 0.100000 -0.100000 1.000000
v 0.100000 -0.100000 0.600000
v 0.100000 -0.100000 0.500000
v 0.100000 -0.100000 0.400000
v 0.100000 -0.100000 0.200000
v 0.100000 -0.100000 0.100000
v 0.100000 -0.100000 -0.000000
v 0.100000 -0.000000 1.200000
v 0.100000 -0.000000 1.100000
v 0.100000 -0.000000 0.800000
v 0.100000 -0.000000 0.600000
v 0.100000 -0.000000 0.500000
v 0.100000 -0.000000 0.400000
v 0.100000 -0.000000 0.300000
v 0.100000 0.100000 1.500000
v 0.100000 0.100000 1.300000
v 0.100000 0.100000 0.100000
v -0.100000 0.100000 1.600000
v 0.100000 -0.100000 1.600000
v 0.100000 0.100000 1.600000
v 0.100000 -0.100000 -0.100000
v 0.100000 0.100000 -0.100000
v -0.100000 -0.100000 1.500000
v 0.100000 -0.100000 1.500000
v -0.100000 -0.100000 1.400000
v 0.000000 -0.100000 1.300000
v 0.000000 -0.100000 1.200000
v -0.100000 -0.100000 1.100000
v 0.000000 -0.100000 1.100000
v 0.100000 -0.100000 1.100000
v 0.000000 -0.100000 1.000000
v 0.000000 -0.100000 0.800000
v 0.100000 -0.100000 0.800000
v 0.000000 -0.100000 0.700000
v 0.000000 -0.100000 0.600000
v -0.100000 -0.100000 0.500000
v 0.000000 -0.100000 0.500000
v 0.000000 -0.100000 0.400000
v 0.000000 -0.100000 0.200000
v -0.100000 -0.100000 -0.100000
v 0.000000 0.100000 1.400000
v 0.100000 0.100000 1.400000
v 0.000000 0.100000 1.300000
v 0.000000 0.100000 1.200000
v 0.100000 0.100000 1.200000
v 0.000000 0.100000 1.100000
v 0.000000 0.100000 1.000000
v 0.100000 0.100000 1.000000
v 0.000000 0.100000 0.800000
v 0.100000 0.100000 0.600000
v 0.000000 0.100000 0.500000
v 0.000000 0.100000 0.400000
v 0.100000 0.100000 0.400000
v 0.000000 0.100000 0.300000
v 0.100000 0.100000 0.300000
v 0.000000 0.100000 0.200000
v 0.100000 0.100000 0.200000
v 0.100000 0.100000 0.000000
v -0.117321 -0.117321 1.617321
v -0.121213 -0.121213 1.300000
v -0.121213 -0.121213 0.700000
v -0.121213 -0.121213 0.200000
v -0.121213 -0.121213 0.100000
v -0.121213 -0.121213 -0.000000
v -0.130000 -0.000000 1.400000
v -0.130000 -0.000000 1.300000
v -0.130000 -0.000000 1.100000
v -0.130000 -0.000000 0.800000
v -0.130000 -0.000000 0.700000
v -0.130000 -0.000000 0.600000
v -0.130000 -0.000000 0.500000
v -0.130000 -0.000000 0.400000
v -0.130000 -0.000000 0.300000
v -0.130000 -0.000000 0.200000
v -0.121213 0.121213 1.500000
v -0.121213 0.121213 1.300000
v -0.121213 0.121213 1.100000
v -0.121213 0.121213 0.800000
v -0.121213 0.121213 0.600000
v -0.121213 0.121213 0.500000
v -0.121213 0.121213 0.400000
v -0.121213 0.121213 0.300000
v -0.121213 0.121213 0.200000
v -0.121213 0.121213 0.100000
v -0.121213 0.121213 0.000000
v -0.117321 0.117321 -0.117320
v 0.121213 -0.121213 1.400000
v 0.121213 -0.121213 1.300000
v 0.121213 -0.121213 1.200000
v 0.121213 -0.121213 1.000000
v 0.121213 -0.121213 0.600000
v 0.121213 -0.121213 0.500000
v 0.121213 -0.121213 0.400000
v 0.121213 -0.121213 0.200000
v 0.121213 -0.121213 0.100000
v 0.121213 -0.121213 -0.000000
v 0.130000 -0.000000 1.200000
v 0.130000 -0.000000 1.100000
v 0.130000 -0.000000 0.800000
v 0.130000 -0.000000 0.600000
v 0.130000 -0.000000 0.500000
v 0.130000 -0.000000 0.400000
v 0.130000 -0.000000 0.300000
v 0.121213 0.121213 1.500000
v 0.121213 0.121213 1.300000
v 0.121213 0.121213 0.100000
v -0.117321 0.117320 1.617321
v 0.117321 -0.117321 1.617321
v 0.117321 0.117320 1.617321
v 0.117321 -0.117320 -0.117321
v 0.117321 0.117321 -0.117320
v -0.121213 -0.121213 1.500000
v 0.121213 -0.121213 1.500000
v -0.121213 -0.121213 1.400000
v 0.000000 -0.130000 1.300000
v 0.000000 -0.130000 1.200000
v -0.121213 -0.121213 1.100000
v 0.000000 -0.130000 1.100000
v 0.121213 -0.121213 1.100000
v 0.000000 -0.130000 1.000000
v 0.000000 -0.130000 0.800000
v 0.121213 -0.121213 0.800000
v 0.000000 -0.130000 0.700000
v 0.000000 -0.130000 0.600000
v -0.121213 -0.121213 0.500000
v 0.000000 -0.130000 0.500000
v 0.000000 -0.130000 0.400000
v 0.000000 -0.130000 0.200000
v -0.117321 -0.117320 -0.117321
v 0.000000 0.130000 1.400000
v 0.121213 0.121213 1.400000
v 0.000000 0.130000 1.300000
v 0.000000 0.130000 1.200000
v 0.121213 0.121213 1.200000
v 0.000000 0.130000 1.100000
v 0.000000 0.130000 1.000000
v 0.121213 0.121213 1.000000
v 0.000000 0.130000 0.800000
v 0.121213 0.121213 0.600000
v 0.000000 0.130000 0.500000
v 0.000000 0.130000 0.400000
v 0.121213 0.121213 0.400000
v 0.000000 0.130000 0.300000
v 0.121213 0.121213 0.300000
v 0.000000 0.130000 0.200000
v 0.121213 0.121213 0.200000
v 0.121213 0.121213 0.000000
vn -1.0000 -0.0000 -0.0000
vn 1.0000 -0.0000 -0.0000
vn -0.0000 -0.0000 1.0000
vn -0.0000 -0.0000 -1.0000
vn -0.0000 -1.0000 -0.0000
vn -0.0000 1.0000 -0.0000
vn 0.9974 0.0723 -0.0000
vn 0.9994 -0.0000 -0.0332
vn 0.9962 -0.0000 -0.0875
vn 0.9995 -0.0000 -0.0332
vn 0.9974 -0.0723 -0.0000
vn 0.9824 -0.0712 0.1726
vn 0.9995 -0.0000 0.0332
vn -0.9974 0.0723 -0.0000
vn -0.9995 -0.0000 -0.0332
vn -0.9962 -0.0000 -0.0875
vn -0.9974 -0.0723 -0.0000
vn -0.9962 -0.0000 0.0875
vn -0.9990 -0.0000 -0.0439
vn -0.9824 -0.0712 0.1726
vn -0.9995 -0.0000 0.0332
vn -0.0000 0.9995 -0.0332
vn 0.0712 0.9824 -0.1726
vn -0.0723 0.9974 -0.0000
vn 0.0723 0.9974 -0.0000
vn -0.0712 0.9824 0.1726
vn -0.0000 0.9995 0.0332
vn -0.0000 0.9994 0.0332
vn -0.0000 -0.9995 -0.0332
vn -0.0000 -0.9962 -0.0875
vn -0.0723 -0.9974 -0.0000
vn 0.0723 -0.9974 -0.0000
vn -0.0000 -0.9990 0.0439
vn 0.0712 -0.9824 -0.1726
vn -0.0712 -0.9824 0.1726
vn -0.0000 -0.9995 0.0332
vt 0.939453 0.500000
vt 0.412109 0.500000
vt 0.419922 0.500000
vt 0.416016 0.500000
vt 0.408203 0.500000
vt 0.412109 0.500000
vt 0.416016 0.500000
vt 0.416016 0.500000
vt 0.419922 0.500000
vt 0.419922 0.500000
vt 0.412109 0.500000
vt 0.412109 0.500000
vt 0.419922 0.500000
vt 0.412109 0.500000
vt 0.416016 0.500000
vt 0.419922 0.500000
vt 0.419922 0.500000
vt 0.416016 0.500000
vt 0.419922 0.500000
vt 0.416016 0.500000
vt 0.408203 0.500000
vt 0.416016 0.500000
vt 0.408203 0.500000
vt 0.419922 0.500000
vt 0.416016 0.500000
vt 0.408203 0.500000
vt 0.412109 0.500000
vt 0.419922 0.500000
vt 0.419922 0.500000
vt 0.412109 0.500000
vt 0.412109 0.500000
vt 0.408203 0.500000
vt 0.419922 0.500000
vt 0.412109 0.500000
vt 0.416016 0.500000
vt 0.408203 0.500000
vt 0.939453 0.500000
vt 0.419922 0.500000
vt 0.419922 0.500000
vt 0.416016 0.500000
vt 0.416016 0.500000
vt 0.419922 0.500000
vt 0.419922 0.500000
vt 0.416016 0.500000
vt 0.416016 0.500000
vt 0.419922 0.500000
vt 0.419922 0.500000
vt 0.412109 0.500000
vt 0.412109 0.500000
vt 0.419922 0.500000
vt 0.419922 0.500000
vt 0.408203 0.500000
vt 0.408203 0.500000
vt 0.416016 0.500000
vt 0.416016 0.500000
vt 0.419922 0.500000
vt 0.419922 0.500000
vt 0.412109 0.500000
vt 0.412109 0.500000
vt 0.419922 0.500000
vt 0.412109 0.500000
vt 0.412109 0.500000
vt 0.408203 0.500000
vt 0.408203 0.500000
vt 0.412109 0.500000
vt 0.419922 0.500000
vt 0.416016 0.500000
vt 0.408203 0.500000
vt 0.419922 0.500000
vt 0.419922 0.500000
vt 0.412109 0.500000
vt 0.412109 0.500000
vt 0.419922 0.500000
vt 0.419922 0.500000
vt 0.416016 0.500000
vt 0.416016 0.500000
vt 0.419922 0.500000
vt 0.419922 0.500000
vt 0.412109 0.500000
vt 0.412109 0.500000
vt 0.419922 0.500000
vt 0.408203 0.500000
vt 0.412109 0.500000
vt 0.419922 0.500000
vt 0.408203 0.500000
vt 0.416016 0.500000
vt 0.408203 0.500000
vt 0.416016 0.500000
vt 0.419922 0.500000
vt 0.412109 0.500000
vt 0.419922 0.500000
vt 0.412109 0.500000
vt 0.416016 0.500000
vt 0.419922 0.500000
vt 0.419922 0.500000
vt 0.416016 0.500000
vt 0.939453 0.500000
vt 0.419922 0.500000
vt 0.412109 0.500000
vt 0.408203 0.500000
vt 0.416016 0.500000
vt 0.419922 0.500000
vt 0.939453 0.500000
vt 0.939453 0.500000
vt 0.939453 0.500000
vt 0.412109 0.500000
vt 0.412109 0.500000
vt 0.939453 0.500000
vt 0.419922 0.500000
vt 0.939453 0.500000
vt 0.419922 0.500000
vt 0.419922 0.500000
vt 0.412109 0.500000
vt 0.412109 0.500000
vt 0.419922 0.500000
vt 0.408203 0.500000
vt 0.408203 0.500000
vt 0.412109 0.500000
vt 0.419922 0.500000
vt 0.419922 0.500000
vt 0.416016 0.500000
vt 0.412109 0.500000
vt 0.416016 0.500000
vt 0.419922 0.500000
vt 0.412109 0.500000
vt 0.419922 0.500000
vt 0.419922 0.500000
vt 0.416016 0.500000
vt 0.408203 0.500000
vt 0.416016 0.500000
vt 0.416016 0.500000
vt 0.408203 0.500000
vt 0.416016 0.500000
vt 0.408203 0.500000
vt 0.419922 0.500000
vt 0.408203 0.500000
vt 0.408203 0.500000
vt 0.412109 0.500000
vt 0.408203 0.500000
vt 0.419922 0.500000
vt 0.412109 0.500000
vt 0.419922 0.500000
vt 0.412109 0.500000
vt 0.412109 0.500000
vt 0.419922 0.500000
vt 0.416016 0.500000
vt 0.412109 0.500000
vt 0.412109 0.500000
vt 0.419922 0.500000
vt 0.419922 0.500000
vt 0.412109 0.500000
vt 0.419922 0.500000
vt 0.412109 0.500000
vt 0.416016 0.500000
vt 0.408203 0.500000
vt 0.408203 0.500000
vt 0.419922 0.500000
vt 0.416016 0.500000
vt 0.408203 0.500000
vt 0.419922 0.500000
vt 0.416016 0.500000
vt 0.419922 0.500000
vt 0.416016 0.500000
vt 0.419922 0.500000
vt 0.419922 0.500000
vt 0.416016 0.500000
vt 0.419922 0.500000
vt 0.416016 0.500000
vt 0.416016 0.500000
vt 0.419922 0.500000
vt 0.419922 0.500000
vt 0.412109 0.500000
vt 0.412109 0.500000
vt 0.416016 0.500000
vt 0.419922 0.500000
vt 0.419922 0.500000
vt 0.416016 0.500000
vt 0.416016 0.500000
vt 0.419922 0.500000
vt 0.408203 0.500000
vt 0.416016 0.500000
vt 0.419922 0.500000
vt 0.408203 0.500000
vt 0.419922 0.500000
vt 0.416016 0.500000
vt 0.419922 0.500000
vt 0.416016 0.500000
vt 0.419922 0.500000
vt 0.412109 0.500000
vt 0.939453 0.500000
vt 0.412109 0.500000
vt 0.419922 0.500000
vt 0.416016 0.500000
vt 0.408203 0.500000
vt 0.412109 0.500000
vt 0.416016 0.500000
vt 0.416016 0.500000
vt 0.419922 0.500000
vt 0.419922 0.500000
vt 0.412109 0.500000
vt 0.412109 0.500000
vt 0.419922 0.500000
vt 0.412109 0.500000
vt 0.416016 0.500000
vt 0.419922 0.500000
vt 0.419922 0.500000
vt 0.416016 0.500000
vt 0.419922 0.500000
vt 0.416016 0.500000
vt 0.408203 0.500000
vt 0.416016 0.500000
vt 0.408203 0.500000
vt 0.419922 0.500000
vt 0.416016 0.500000
vt 0.408203 0.500000
vt 0.412109 0.500000
vt 0.419922 0.500000
vt 0.419922 0.500000
vt 0.412109 0.500000
vt 0.412109 0.500000
vt 0.408203 0.500000
vt 0.419922 0.500000
vt 0.412109 0.500000
vt 0.416016 0.500000
vt 0.408203 0.500000
vt 0.939453 0.500000
vt 0.419922 0.500000
vt 0.419922 0.500000
vt 0.416016 0.500000
vt 0.416016 0.500000
vt 0.419922 0.500000
vt 0.419922 0.500000
vt 0.416016 0.500000
vt 0.416016 0.500000
vt 0.419922 0.500000
vt 0.419922 0.500000
vt 0.412109 0.500000
vt 0.412109 0.500000
vt 0.419922 0.500000
vt 0.419922 0.500000
vt 0.408203 0.500000
vt 0.408203 0.500000
vt 0.416016 0.500000
vt 0.416016 0.500000
vt 0.419922 0.500000
vt 0.419922 0.500000
vt 0.412109 0.500000
vt 0.412109 0.500000
vt 0.419922 0.500000
vt 0.412109 0.500000
vt 0.412109 0.500000
vt 0.408203 0.500000
vt 0.408203 0.500000
vt 0.412109 0.500000
vt 0.419922 0.500000
vt 0.416016 0.500000
vt 0.408203 0.500000
vt 0.419922 0.500000
vt 0.419922 0.500000
vt 0.412109 0.500000
vt 0.412109 0.500000
vt 0.419922 0.500000
vt 0.419922 0.500000
vt 0.416016 0.500000
vt 0.416016 0.500000
vt 0.419922 0.500000
vt 0.419922 0.500000
vt 0.412109 0.500000
vt 0.412109 0.500000
vt 0.419922 0.500000
vt 0.408203 0.500000
vt 0.412109 0.500000
vt 0.419922 0.500000
vt 0.408203 0.500000
vt 0.416016 0.500000
vt 0.408203 0.500000
vt 0.416016 0.500000
vt 0.419922 0.500000
vt 0.412109 0.500000
vt 0.419922 0.500000
vt 0.412109 0.500000
vt 0.416016 0.500000
vt 0.419922 0.500000
vt 0.419922 0.500000
vt 0.416016 0.500000
vt 0.939453 0.500000
vt 0.419922 0.500000
vt 0.412109 0.500000
vt 0.408203 0.500000
vt 0.416016 0.500000
vt 0.419922 0.500000
vt 0.939453 0.500000
vt 0.939453 0.500000
vt 0.939453 0.500000
vt 0.412109 0.500000
vt 0.412109 0.500000
vt 0.939453 0.500000
vt 0.419922 0.500000
vt 0.939453 0.500000
vt 0.419922 0.500000
vt 0.419922 0.500000
vt 0.412109 0.500000
vt 0.412109 0.500000
vt 0.419922 0.500000
vt 0.408203 0.500000
vt 0.408203 0.500000
vt 0.412109 0.500000
vt 0.419922 0.500000
vt 0.419922 0.500000
vt 0.416016 0.500000
vt 0.412109 0.500000
vt 0.416016 0.500000
vt 0.419922 0.500000
vt 0.412109 0.500000
vt 0.419922 0.500000
vt 0.419922 0.500000
vt 0.416016 0.500000
vt 0.408203 0.500000
vt 0.416016 0.500000
vt 0.416016 0.500000
vt 0.408203 0.500000
vt 0.416016 0.500000
vt 0.408203 0.500000
vt 0.419922 0.500000
vt 0.408203 0.500000
vt 0.408203 0.500000
vt 0.412109 0.500000
vt 0.408203 0.500000
vt 0.419922 0.500000
vt 0.412109 0.500000
vt 0.419922 0.500000
vt 0.412109 0.500000
vt 0.412109 0.500000
vt 0.419922 0.500000
vt 0.416016 0.500000
vt 0.412109 0.500000
vt 0.412109 0.500000
vt 0.419922 0.500000
vt 0.419922 0.500000
vt 0.412109 0.500000
vt 0.419922 0.500000
vt 0.412109 0.500000
vt 0.416016 0.500000
vt 0.408203 0.500000
vt 0.408203 0.500000
vt 0.419922 0.500000
vt 0.416016 0.500000
vt 0.408203 0.500000
vt 0.419922 0.500000
vt 0.416016 0.500000
vt 0.419922 0.500000
vt 0.416016 0.500000
vt 0.419922 0.500000
vt 0.419922 0.500000
vt 0.416016 0.500000
vt 0.419922 0.500000
vt 0.416016 0.500000
vt 0.416016 0.500000
vt 0.419922 0.500000
vt 0.419922 0.500000
vt 0.412109 0.500000
vt 0.412109 0.500000
vt 0.416016 0.500000
vt 0.419922 0.500000
vt 0.419922 0.500000
vt 0.416016 0.500000
vt 0.416016 0.500000
vt 0.419922 0.500000
vt 0.408203 0.500000
vt 0.416016 0.500000
vt 0.419922 0.500000
vt 0.408203 0.500000
vt 0.419922 0.500000
vt 0.416016 0.500000
vt 0.419922 0.500000
vt 0.416016 0.500000
vt 0.419922 0.500000
vt 0.412109 0.500000
s 0
usemtl Material.001
f 7/13/1 56/112/1 54/109/1
f 7/12/1 2/2/1 56/113/1
f 8/16/1 59/120/1 2/3/1
f 8/14/1 2/2/1 7/12/1
f 9/18/1 3/4/1 59/121/1
f 9/17/1 59/120/1 8/16/1
f 10/20/1 3/4/1 9/18/1
f 11/21/1 67/137/1 3/5/1
f 11/22/1 3/4/1 10/20/1
f 12/23/1 67/137/1 11/21/1
f 13/27/1 4/6/1 67/138/1
f 13/26/1 67/137/1 12/23/1
f 14/30/1 4/6/1 13/27/1
f 15/31/1 4/6/1 14/30/1
f 16/35/1 5/8/1 4/7/1
f 16/34/1 4/6/1 15/31/1
f 49/103/1 54/108/1 1/1/1
f 17/38/1 7/13/1 54/109/1
f 17/37/1 54/108/1 49/103/1
f 17/38/1 8/16/1 7/13/1
f 18/40/1 9/18/1 8/15/1
f 18/39/1 8/16/1 17/38/1
f 19/42/1 10/19/1 9/17/1
f 19/41/1 9/18/1 18/40/1
f 20/44/1 12/25/1 11/22/1
f 20/43/1 10/19/1 19/42/1
f 20/44/1 11/22/1 10/20/1
f 21/46/1 13/28/1 12/24/1
f 21/45/1 12/25/1 20/44/1
f 22/48/1 14/30/1 13/27/1
f 22/47/1 13/28/1 21/46/1
f 23/50/1 15/33/1 14/29/1
f 23/49/1 14/30/1 22/48/1
f 24/52/1 16/36/1 15/32/1
f 24/51/1 15/33/1 23/50/1
f 25/54/1 5/8/1 16/35/1
f 25/53/1 16/36/1 24/52/1
f 26/56/1 6/10/1 5/9/1
f 26/55/1 5/8/1 25/54/1
f 27/58/1 71/147/1 6/11/1
f 27/57/1 6/10/1 26/56/1
f 28/59/1 71/147/1 27/58/1
f 30/63/2 31/64/2 39/82/2
f 31/65/2 61/125/2 39/80/2
f 61/126/2 32/66/2 40/84/2
f 39/80/2 61/125/2 40/83/2
f 32/67/2 64/131/2 41/86/2
f 64/132/2 33/68/2 41/85/2
f 33/69/2 34/70/2 42/89/2
f 41/85/2 33/68/2 42/87/2
f 34/71/2 35/72/2 43/90/2
f 42/89/2 34/70/2 43/91/2
f 35/73/2 36/74/2 44/94/2
f 43/90/2 35/72/2 44/92/2
f 44/94/2 36/74/2 45/95/2
f 50/104/2 55/110/2 51/105/2
f 55/111/2 29/60/2 46/98/2
f 51/105/2 55/110/2 46/97/2
f 29/61/2 30/62/2 73/151/2
f 46/98/2 29/60/2 73/150/2
f 30/63/2 39/82/2 47/100/2
f 73/151/2 30/62/2 47/99/2
f 39/81/2 40/84/2 76/160/2
f 47/100/2 39/82/2 76/159/2
f 40/84/2 32/66/2 79/165/2
f 76/160/2 40/84/2 79/165/2
f 32/67/2 41/86/2 79/166/2
f 41/86/2 42/88/2 79/166/2
f 43/91/2 44/94/2 81/170/2
f 79/166/2 42/88/2 81/169/2
f 42/89/2 43/91/2 81/170/2
f 44/93/2 45/96/2 84/177/2
f 81/170/2 44/94/2 84/176/2
f 45/95/2 36/74/2 86/182/2
f 84/177/2 45/96/2 86/181/2
f 36/75/2 37/76/2 88/187/2
f 86/182/2 36/74/2 88/186/2
f 37/77/2 38/78/2 48/102/2
f 88/187/2 37/76/2 48/101/2
f 38/79/2 52/106/2 89/189/2
f 48/102/2 38/78/2 89/188/2
f 89/189/2 52/106/2 53/107/2
f 50/104/3 49/103/3 1/1/3
f 51/105/3 49/103/3 50/104/3
f 71/147/4 28/59/4 52/106/4
f 52/106/4 28/59/4 53/107/4
f 54/108/5 50/104/5 1/1/5
f 55/110/5 50/104/5 54/108/5
f 56/112/5 55/111/5 54/109/5
f 29/60/5 55/111/5 56/112/5
f 2/2/5 29/61/5 56/113/5
f 57/114/5 29/61/5 2/2/5
f 30/62/5 29/61/5 57/114/5
f 58/119/5 57/115/5 2/3/5
f 58/117/5 30/63/5 57/116/5
f 31/64/5 30/63/5 58/117/5
f 59/120/5 58/119/5 2/3/5
f 60/122/5 31/65/5 58/118/5
f 60/124/5 58/119/5 59/120/5
f 61/125/5 31/65/5 60/122/5
f 62/128/5 60/123/5 59/121/5
f 62/127/5 61/126/5 60/124/5
f 32/66/5 61/126/5 62/127/5
f 63/130/5 62/128/5 59/121/5
f 63/130/5 32/67/5 62/128/5
f 64/131/5 32/67/5 63/130/5
f 3/4/5 63/130/5 59/121/5
f 65/134/5 64/132/5 63/129/5
f 65/133/5 63/130/5 3/4/5
f 66/136/5 65/134/5 3/5/5
f 66/136/5 64/132/5 65/134/5
f 33/68/5 64/132/5 66/136/5
f 67/137/5 66/136/5 3/5/5
f 68/140/5 33/69/5 66/135/5
f 68/139/5 66/136/5 67/137/5
f 34/70/5 33/69/5 68/140/5
f 69/143/5 68/141/5 67/138/5
f 69/143/5 34/71/5 68/141/5
f 35/72/5 34/71/5 69/143/5
f 4/6/5 69/143/5 67/138/5
f 70/145/5 35/73/5 69/142/5
f 70/144/5 69/143/5 4/6/5
f 36/74/5 35/73/5 70/145/5
f 5/8/5 70/146/5 4/7/5
f 5/8/5 36/75/5 70/146/5
f 37/76/5 36/75/5 5/8/5
f 6/10/5 37/77/5 5/9/5
f 38/78/5 37/77/5 6/10/5
f 71/147/5 38/79/5 6/11/5
f 52/106/5 38/79/5 71/147/5
f 49/103/6 51/105/6 17/37/6
f 17/37/6 51/105/6 46/97/6
f 17/38/6 46/98/6 72/149/6
f 72/149/6 46/98/6 73/150/6
f 17/38/6 72/149/6 18/39/6
f 72/148/6 73/151/6 74/153/6
f 18/39/6 72/149/6 74/152/6
f 74/153/6 73/151/6 47/99/6
f 18/40/6 74/154/6 75/158/6
f 74/155/6 47/100/6 75/156/6
f 75/156/6 47/100/6 76/159/6
f 18/40/6 75/158/6 19/41/6
f 75/157/6 76/160/6 77/162/6
f 19/41/6 75/158/6 77/161/6
f 19/42/6 77/162/6 78/164/6
f 77/162/6 76/160/6 78/164/6
f 78/164/6 76/160/6 79/165/6
f 19/42/6 78/164/6 20/43/6
f 78/163/6 79/166/6 80/168/6
f 20/43/6 78/164/6 80/167/6
f 20/44/6 80/168/6 21/45/6
f 80/168/6 79/166/6 81/169/6
f 21/45/6 80/168/6 81/169/6
f 21/46/6 81/170/6 22/47/6
f 22/47/6 81/170/6 82/171/6
f 22/48/6 82/172/6 23/49/6
f 82/171/6 81/170/6 83/175/6
f 23/49/6 82/172/6 83/173/6
f 83/175/6 81/170/6 84/176/6
f 23/50/6 83/175/6 24/51/6
f 83/174/6 84/177/6 85/178/6
f 24/51/6 83/175/6 85/179/6
f 85/178/6 84/177/6 86/181/6
f 24/52/6 85/180/6 25/53/6
f 85/179/6 86/182/6 87/184/6
f 25/53/6 85/180/6 87/183/6
f 87/184/6 86/182/6 88/186/6
f 25/54/6 87/185/6 26/55/6
f 87/185/6 88/187/6 26/55/6
f 26/55/6 88/187/6 48/101/6
f 26/56/6 48/102/6 27/57/6
f 27/57/6 48/102/6 89/188/6
f 27/58/6 89/189/6 28/59/6
f 28/59/6 89/189/6 53/107/6
f 96/202/7 143/298/7 145/301/7
f 96/201/7 145/302/7 91/191/7
f 97/205/7 91/192/7 148/309/7
f 97/203/7 96/201/7 91/191/7
f 98/207/7 148/310/7 92/193/7
f 98/206/7 97/205/7 148/309/7
f 99/209/7 98/207/7 92/193/7
f 100/210/7 92/194/7 156/326/7
f 100/211/7 99/209/7 92/193/7
f 101/212/7 100/210/7 156/326/7
f 102/216/7 156/327/7 93/195/7
f 102/215/7 101/212/7 156/326/7
f 103/219/7 102/216/7 93/195/7
f 104/220/7 103/219/7 93/195/7
f 105/224/7 93/196/7 94/197/7
f 105/223/7 104/220/7 93/195/7
f 138/292/8 90/190/8 143/297/8
f 106/227/9 143/298/9 96/202/9
f 106/226/10 138/292/10 143/297/10
f 106/227/11 96/202/11 97/205/11
f 107/229/11 97/204/11 98/207/11
f 107/228/11 106/227/11 97/205/11
f 108/231/11 98/206/11 99/208/11
f 108/230/11 107/229/11 98/207/11
f 109/233/11 100/211/11 101/214/11
f 109/232/11 108/231/11 99/208/11
f 109/233/11 99/209/11 100/211/11
f 110/235/11 101/213/11 102/217/11
f 110/234/11 109/233/11 101/214/11
f 111/237/11 102/216/11 103/219/11
f 111/236/11 110/235/11 102/217/11
f 112/239/11 103/218/11 104/222/11
f 112/238/11 111/237/11 103/219/11
f 113/241/11 104/221/11 105/225/11
f 113/240/11 112/239/11 104/222/11
f 114/243/12 105/224/12 94/197/12
f 114/242/11 113/241/11 105/225/11
f 115/245/2 94/198/2 95/199/2
f 115/244/2 114/243/2 94/197/2
f 116/247/13 95/200/13 160/336/13
f 116/246/2 115/245/2 95/199/2
f 117/248/13 116/247/13 160/336/13
f 119/252/14 128/271/14 120/253/14
f 120/254/14 128/269/14 150/314/14
f 150/315/14 129/273/14 121/255/14
f 128/269/14 129/272/14 150/314/14
f 121/256/14 130/275/14 153/320/14
f 153/321/14 130/274/14 122/257/14
f 122/258/14 131/278/14 123/259/14
f 130/274/14 131/276/14 122/257/14
f 123/260/14 132/279/14 124/261/14
f 131/278/14 132/280/14 123/259/14
f 124/262/14 133/283/14 125/263/14
f 132/279/14 133/281/14 124/261/14
f 133/283/14 134/284/14 125/263/14
f 139/293/15 140/294/15 144/299/15
f 144/300/1 135/287/1 118/249/1
f 140/294/15 135/286/15 144/299/15
f 118/250/1 162/340/1 119/251/1
f 135/287/1 162/339/1 118/249/1
f 119/252/16 136/289/16 128/271/16
f 162/340/1 136/288/1 119/251/1
f 128/270/17 165/349/17 129/273/17
f 136/289/17 165/348/17 128/271/17
f 129/273/18 168/354/18 121/255/18
f 165/349/17 168/354/17 129/273/17
f 121/256/19 168/355/19 130/275/19
f 130/275/17 168/355/17 131/277/17
f 132/280/17 170/359/17 133/283/17
f 168/355/17 170/358/17 131/277/17
f 131/278/17 170/359/17 132/280/17
f 133/282/17 173/366/17 134/285/17
f 170/359/17 173/365/17 133/283/17
f 134/284/20 175/371/20 125/263/20
f 173/366/17 175/370/17 134/285/17
f 125/264/1 177/376/1 126/265/1
f 175/371/1 177/375/1 125/263/1
f 126/266/1 137/291/1 127/267/1
f 177/376/1 137/290/1 126/265/1
f 127/268/21 178/378/21 141/295/21
f 137/291/1 178/377/1 127/267/1
f 178/378/21 142/296/21 141/295/21
f 139/293/4 90/190/4 138/292/4
f 140/294/4 139/293/4 138/292/4
f 160/336/3 141/295/3 117/248/3
f 141/295/3 142/296/3 117/248/3
f 143/297/22 90/190/22 139/293/22
f 144/299/22 143/297/22 139/293/22
f 145/301/6 143/298/6 144/300/6
f 118/249/6 145/301/6 144/300/6
f 91/191/6 145/302/6 118/250/6
f 146/303/23 91/191/23 118/250/23
f 119/251/24 146/303/24 118/250/24
f 147/308/25 91/192/25 146/304/25
f 147/306/24 146/305/24 119/252/24
f 120/253/24 147/306/24 119/252/24
f 148/309/25 91/192/25 147/308/25
f 149/311/24 147/307/24 120/254/24
f 149/313/25 148/309/25 147/308/25
f 150/314/24 149/311/24 120/254/24
f 151/317/25 148/310/25 149/312/25
f 151/316/24 149/313/24 150/315/24
f 121/255/24 151/316/24 150/315/24
f 152/319/25 148/310/25 151/317/25
f 152/319/24 151/317/24 121/256/24
f 153/320/24 152/319/24 121/256/24
f 92/193/25 148/310/25 152/319/25
f 154/323/24 152/318/24 153/321/24
f 154/322/25 92/193/25 152/319/25
f 155/325/25 92/194/25 154/323/25
f 155/325/24 154/323/24 153/321/24
f 122/257/24 155/325/24 153/321/24
f 156/326/25 92/194/25 155/325/25
f 157/329/24 155/324/24 122/258/24
f 157/328/25 156/326/25 155/325/25
f 123/259/24 157/329/24 122/258/24
f 158/332/25 156/327/25 157/330/25
f 158/332/24 157/330/24 123/260/24
f 124/261/24 158/332/24 123/260/24
f 93/195/25 156/327/25 158/332/25
f 159/334/24 158/331/24 124/262/24
f 159/333/25 93/195/25 158/332/25
f 125/263/24 159/334/24 124/262/24
f 94/197/25 93/196/25 159/335/25
f 94/197/26 159/335/26 125/264/26
f 126/265/6 94/197/6 125/264/6
f 95/199/6 94/198/6 126/266/6
f 127/267/6 95/199/6 126/266/6
f 160/336/27 95/200/27 127/268/27
f 141/295/28 160/336/28 127/268/28
f 138/292/29 106/226/29 140/294/29
f 106/226/29 135/286/29 140/294/29
f 106/227/30 161/338/30 135/287/30
f 161/338/31 162/339/31 135/287/31
f 106/227/32 107/228/32 161/338/32
f 161/337/31 163/342/31 162/340/31
f 107/228/32 163/341/32 161/338/32
f 163/342/31 136/288/31 162/340/31
f 107/229/32 164/347/32 163/343/32
f 163/344/31 164/345/31 136/289/31
f 164/345/31 165/348/31 136/289/31
f 107/229/32 108/230/32 164/347/32
f 164/346/31 166/351/31 165/349/31
f 108/230/32 166/350/32 164/347/32
f 108/231/32 167/353/32 166/351/32
f 166/351/31 167/353/31 165/349/31
f 167/353/31 168/354/31 165/349/31
f 108/231/32 109/232/32 167/353/32
f 167/352/31 169/357/31 168/355/31
f 109/232/32 169/356/32 167/353/32
f 109/233/32 110/234/32 169/357/32
f 169/357/31 170/358/31 168/355/31
f 110/234/33 170/358/33 169/357/33
f 110/235/5 111/236/5 170/359/5
f 111/236/34 171/360/34 170/359/34
f 111/237/32 112/238/32 171/361/32
f 171/360/31 172/364/31 170/359/31
f 112/238/32 172/362/32 171/361/32
f 172/364/31 173/365/31 170/359/31
f 112/239/32 113/240/32 172/364/32
f 172/363/31 174/367/31 173/366/31
f 113/240/32 174/368/32 172/364/32
f 174/367/31 175/370/31 173/366/31
f 113/241/32 114/242/32 174/369/32
f 174/368/31 176/373/31 175/371/31
f 114/242/32 176/372/32 174/369/32
f 176/373/31 177/375/31 175/371/31
f 114/243/32 115/244/32 176/374/32
f 176/374/35 115/244/35 177/376/35
f 115/244/5 137/290/5 177/376/5
f 115/245/5 116/246/5 137/291/5
f 116/246/5 178/377/5 137/291/5
f 116/247/36 117/248/36 178/378/36
f 117/248/36 142/296/36 178/378/36
