# ProBuilder 5.0.7
# https://unity3d.com/unity/features/worldbuilding/probuilder
# 19.01.2025 18:06:56

mtllib ./centralRock_4.mtl
o centralRock_4

g centralRock_4
v 6 0 -6
v 6 0 -5
v 5 0 -6
v 5 0 -5
v 6 0 -4
v 5 0 -4
v 6 0 -3
v 5 0 -3
v 6 0 -2
v 5 0 -2
v 6 0 -1
v 5 0 -1
v 6 0 0
v 5 0 0
v 6 0 1
v 5 0 1
v 6 0 2
v 5 0 2
v 6 0 3
v 5 0 3
v 6 0 4
v 5 0 4
v 6 0 5
v 5 0 5
v 6 0 6
v 5 0 6
v 4 0 -6
v 4 0 -5
v 4 0 -4
v 4 0 -3
v 4 0 -2
v 4 0 -1
v 4 0 0
v 4 0 1
v 4 0 2
v 4 0 3
v 4 0 4
v 4 0 5
v 4 0 6
v 3 0 -6
v 3 0 -5
v 3 0 -4
v 3 0 -3
v 3 0 -2
v 3 0 -1
v 3 0 0
v 3 0 1
v 3 0 2
v 3 0 3
v 3 0 4
v 3 0 5
v 3 0 6
v 2 0 -6
v 2 0 -5
v 2 0 -4
v 2 0 -3
v 2 0 -2
v 2 0.9042444 -1
v 2 0.9042444 0
v 2 0.9042444 1
v 2 0.9042444 2
v 2 0 3
v 2 0 4
v 2 0 5
v 2 0 6
v 1 0 -6
v 1 0 -5
v 1 0 -4
v 1 0 -3
v 1 0.9042444 -2
v 1 0.9042444 -1
v 1 1.597886 0
v 1 1.597886 1
v 1 1.568407 2
v 1 0.9042444 3
v 1 0 4
v 1 0 5
v 1 0 6
v 0 0 -6
v 0 0 -5
v 0 0 -4
v 0 0 -3
v 0 0.9042444 -2
v 0 0.9042444 -1
v 0 1.612266 0
v 0 0.8515699 1
v 0 1.568407 2
v 0 0.9042444 3
v 0 0 4
v 0 0 5
v 0 0 6
v -1 0 -6
v -1 0 -5
v -1 0 -4
v -1 0 -3
v -1 0.9042444 -2
v -1 0.9042444 -1
v -1 1.612266 0
v -1 0.8515699 1
v -1 1.589846 2
v -1 0.9042444 3
v -1 0 4
v -1 0 5
v -1 0 6
v -2 0 -6
v -2 0 -5
v -2 0 -4
v -2 0 -3
v -2 0.9042444 -2
v -2 0.9042444 -1
v -2 1.60617 0
v -2 1.602575 1
v -2 1.602575 2
v -2 0.9042444 3
v -2 0 4
v -2 0 5
v -2 0 6
v -3 0 -6
v -3 0 -5
v -3 0 -4
v -3 0 -3
v -3 0 -2
v -3 0.9042444 -1
v -3 0.9042444 0
v -3 0.9042444 1
v -3 0.9042444 2
v -3 0 3
v -3 0 4
v -3 0 5
v -3 0 6
v -4 0 -6
v -4 0 -5
v -4 0 -4
v -4 0 -3
v -4 0 -2
v -4 0 -1
v -4 0 0
v -4 0 1
v -4 0 2
v -4 0 3
v -4 0 4
v -4 0 5
v -4 0 6
v -5 0 -6
v -5 0 -5
v -5 0 -4
v -5 0 -3
v -5 0 -2
v -5 0 -1
v -5 0 0
v -5 0 1
v -5 0 2
v -5 0 3
v -5 0 4
v -5 0 5
v -5 0 6
v -6 0 -6
v -6 0 -5
v -6 0 -4
v -6 0 -3
v -6 0 -2
v -6 0 -1
v -6 0 0
v -6 0 1
v -6 0 2
v -6 0 3
v -6 0 4
v -6 0 5
v -6 0 6

vt -6 -6
vt -6 -5
vt -5 -6
vt -5 -5
vt -6 -4
vt -5 -4
vt -6 -3
vt -5 -3
vt -6 -2
vt -5 -2
vt -6 -1
vt -5 -1
vt -6 0
vt -5 0
vt -6 1
vt -5 1
vt -6 2
vt -5 2
vt -6 3
vt -5 3
vt -6 4
vt -5 4
vt -6 5
vt -5 5
vt -6 6
vt -5 6
vt -4 -6
vt -4 -5
vt -4 -4
vt -4 -3
vt -4 -2
vt -4 -1
vt -4 0
vt -4 1
vt -4 2
vt -4 3
vt -4 4
vt -4 5
vt -4 6
vt -3 -6
vt -3 -5
vt -3 -4
vt -3 -3
vt -3 -2
vt -3 -1
vt -3 0
vt -3 1
vt -3 2
vt -3 3
vt -3 4
vt -3 5
vt -3 6
vt -2 -6
vt -2 -5
vt -2 -4
vt -2 -3
vt -2 -2
vt -2 -1
vt -2.22518 -1
vt -2.22518 0
vt -0.8769746 -1
vt -0.8769746 0
vt -2.22518 1
vt -0.8769746 1
vt -2.22518 2
vt -0.8769746 2
vt -2.22518 3
vt -1.483453 3
vt -2 3
vt -2 4
vt -2 5
vt -2 6
vt -1 -6
vt -1 -5
vt -1 -4
vt -1 -3
vt -1 -2
vt -1.483453 -0.9138135
vt -0.8769746 0.2902802
vt -0.135248 -0.9138136
vt -0.135248 -0.08331332
vt -2 0
vt -1 -1
vt -1 0
vt -1.127984 0
vt -1.127984 1
vt 0.08903658 0
vt 0.08903658 1
vt -1.127984 2
vt 0.07223527 2
vt -1.165745 0.4785694
vt -1.666023 1.73052
vt 0.03471771 0.4785694
vt -0.3327338 1.610194
vt -1.483453 4
vt -0.135248 3
vt -0.7417267 4
vt -1 4
vt -1 5
vt -1 6
vt 0 -6
vt 0 -5
vt 0 -4
vt 0 -3
vt -1 -2.22518
vt -1 -0.8769746
vt 0 -2.22518
vt 0 -0.8769746
vt 0 -2
vt 0 -1
vt -1 -0.3063045
vt -1 0.9107156
vt 0 -0.3063045
vt 0 0.9189116
vt -0.9769211 0
vt -0.9769211 1
vt 0.02318234 0
vt 0.01224449 1
vt -1.757124 0.9836027
vt -1.739493 1.983882
vt -0.5093313 0.9836027
vt -0.9380778 1.969756
vt -1 0.7982941
vt -1 1.998757
vt 0 0.7982941
vt 0 1.998757
vt -1 1.618701
vt -1 2.966907
vt 0 1.618701
vt 0 2.966907
vt 0 4
vt 0 5
vt 0 6
vt 1 -6
vt 1 -5
vt 1 -4
vt 1 -3
vt 1 -2.22518
vt 1 -0.8769746
vt 1 -2
vt 1 -1
vt 0 -0.2936289
vt 0 0.9316442
vt 1 -0.2936289
vt 1 0.9316442
vt 0 -0.976121
vt 0 0.2803257
vt 1 -0.976121
vt 1 0.2803257
vt 0 1.308885
vt 0 2.539274
vt 1 1.308885
vt 1 2.551764
vt 0.03361672 0.7987489
vt 0.01938128 1.999128
vt 1.033846 0.7987489
vt 1.019152 2.010984
vt 1 1.618701
vt 1 2.966907
vt 1 4
vt 1 5
vt 1 6
vt 2 -6
vt 2 -5
vt 2 -4
vt 2 -3
vt 2 -2.22518
vt 2 -0.8769746
vt 2 -2
vt 2 -1
vt 2 -0.2936289
vt 2 0.9281219
vt 0.9901538 -0.9797818
vt 0.9947906 0.2766564
vt 1.990172 -0.9797818
vt 1.990194 -0.1817046
vt 1.310994 0.9020217
vt 1.754339 2.063269
vt 2.561597 0.9020217
vt 2.561597 1.763164
vt 1.020155 0.757905
vt 1.011429 1.97033
vt 2.020236 0.757905
vt 2.011348 1.977527
vt 2 1.618701
vt 2 2.966907
vt 2 4
vt 2 5
vt 2 6
vt 3 -6
vt 3 -5
vt 3 -4
vt 3 -3
vt 3 -2.22518
vt 3 -1.483453
vt 0.8769746 -2
vt 0.8769746 -1
vt 2.22518 -2
vt 1.618701 -1
vt 2 -0.2989845
vt 2 0.9227765
vt 3 -0.2989845
vt 3 0.5195063
vt 0.714205 -0.007249257
vt 0.7162704 0.9927551
vt 1.935966 -0.007249257
vt 1.935966 0.9927464
vt 0.7222048 1
vt 0.7222048 2
vt 1.941904 1
vt 1.941904 2
vt 0.7222047 0.5138547
vt 1.122029 1.666159
vt 1.941904 0.5138547
vt 2.459623 1.750042
vt 0.8769746 1.37072
vt 1.483453 2.574814
vt 2.22518 1.37072
vt 2.22518 2.201221
vt 3 4
vt 3 5
vt 3 6
vt 4 -6
vt 4 -5
vt 4 -4
vt 4 -3
vt 3 -2
vt 4 -2
vt 3 -0.135248
vt 4 -1.483453
vt 4 -0.7417267
vt 1.618701 0
vt 2.966907 -1
vt 2.966907 0
vt 1.618701 1
vt 2.966907 1
vt 1.618701 2
vt 2.966907 2
vt 1.618701 0.1666266
vt 2.966907 0.1666266
vt 2.966907 0.9971268
vt 3 3
vt 4 3
vt 4 4
vt 4 5
vt 4 6
vt 5 -6
vt 5 -5
vt 5 -4
vt 5 -3
vt 5 -2
vt 4 -1
vt 5 -1
vt 4 0
vt 5 0
vt 4 1
vt 5 1
vt 4 2
vt 5 2
vt 5 3
vt 5 4
vt 5 5
vt 5 6
vt 6 -6
vt 6 -5
vt 6 -4
vt 6 -3
vt 6 -2
vt 6 -1
vt 6 0
vt 6 1
vt 6 2
vt 6 3
vt 6 4
vt 6 5
vt 6 6

vn 0 1 0
vn 0.2785092 0.8080021 -0.2785092
vn 0.5570183 0.6160042 -0.5570183
vn 0.6707022 0.7417267 0
vn 0.3353511 0.7417267 0.3353511
vn 0 0.7417267 0.6707022
vn 0.2475853 0.8569356 -0.2475853
vn 0.4951705 0.7138713 -0.4951705
vn 0.5699505 0.8216791 0
vn 0.5615195 0.8272199 0.01227429
vn 0.5530885 0.8327608 0.02454858
vn 0.4419147 0.6653712 0.6016582
vn 0.5217865 0.6653712 0.5217865
vn 0.6016582 0.6653712 0.4419147
vn 0 0.7417267 -0.6707022
vn 0 0.8216791 -0.5699505
vn 0.005867763 0.8188837 -0.5738792
vn 0.01173553 0.8160883 -0.577808
vn 0.01437873 0.9998966 0
vn -0.248156 0.8420895 0.2602654
vn -0.5106907 0.6842825 0.5205309
vn -0.5979418 0.8011915 0.02361796
vn -0.2989709 0.8069715 -0.2794963
vn 0 0.8127515 -0.5826105
vn 0 0.8330117 0.5532553
vn 0 0.8161446 -0.5778478
vn 0 0.7958953 0.6054343
vn 0.008622445 0.8085683 -0.5882343
vn 0.01724489 0.8043851 -0.593858
vn 0.01785576 0.832879 0.5531671
vn 0.008927879 0.8288257 0.559316
vn 0 0.8247724 0.565465
vn -0.002494585 0.8173126 -0.5761802
vn -0.004989169 0.8184806 -0.5745126
vn -0.00485144 0.7958859 0.6054271
vn 0.2978302 0.7977483 0.3041509
vn 0.6005118 0.7996107 0.002874596
vn 0.5171285 0.6885818 -0.5083632
vn 0.2649285 0.8442504 -0.2541816
vn 0.01272849 0.999919 0
vn 0.01049838 0.8247269 0.5654337
vn 0.005249191 0.8223007 0.5689886
vn 0 0.8198744 0.5725435
vn -0.3353511 0.7417267 -0.3353511
vn -0.6707022 0.7417267 0
vn 0 0.8184907 -0.5745197
vn -0.2872598 0.8184907 -0.2872598
vn -0.5745197 0.8184907 0
vn -0.5745173 0.8184872 0.002942457
vn -0.5735304 0.8191808 0.001471228
vn -0.5725435 0.8198744 0
vn -0.4968682 0.7115083 0.4968682
vn -0.5269433 0.6637563 0.5269433
vn -0.5570183 0.6160042 0.5570183
vn -0.2785092 0.8080021 0.2785092

usemtl RockDarkBase
f 3/3/1 4/4/1 2/2/1 1/1/1
f 4/4/1 6/6/1 5/5/1 2/2/1
f 6/6/1 8/8/1 7/7/1 5/5/1
f 8/8/1 10/10/1 9/9/1 7/7/1
f 10/10/1 12/12/1 11/11/1 9/9/1
f 12/12/1 14/14/1 13/13/1 11/11/1
f 14/14/1 16/16/1 15/15/1 13/13/1
f 16/16/1 18/18/1 17/17/1 15/15/1
f 18/18/1 20/20/1 19/19/1 17/17/1
f 20/20/1 22/22/1 21/21/1 19/19/1
f 22/22/1 24/24/1 23/23/1 21/21/1
f 24/24/1 26/26/1 25/25/1 23/23/1
f 27/27/1 28/28/1 4/4/1 3/3/1
f 28/28/1 29/29/1 6/6/1 4/4/1
f 29/29/1 30/30/1 8/8/1 6/6/1
f 30/30/1 31/31/1 10/10/1 8/8/1
f 31/31/1 32/32/1 12/12/1 10/10/1
f 32/32/1 33/33/1 14/14/1 12/12/1
f 33/33/1 34/34/1 16/16/1 14/14/1
f 34/34/1 35/35/1 18/18/1 16/16/1
f 35/35/1 36/36/1 20/20/1 18/18/1
f 36/36/1 37/37/1 22/22/1 20/20/1
f 37/37/1 38/38/1 24/24/1 22/22/1
f 38/38/1 39/39/1 26/26/1 24/24/1
f 40/40/1 41/41/1 28/28/1 27/27/1
f 41/41/1 42/42/1 29/29/1 28/28/1
f 42/42/1 43/43/1 30/30/1 29/29/1
f 43/43/1 44/44/1 31/31/1 30/30/1
f 44/44/1 45/45/1 32/32/1 31/31/1
f 45/45/1 46/46/1 33/33/1 32/32/1
f 46/46/1 47/47/1 34/34/1 33/33/1
f 47/47/1 48/48/1 35/35/1 34/34/1
f 48/48/1 49/49/1 36/36/1 35/35/1
f 49/49/1 50/50/1 37/37/1 36/36/1
f 50/50/1 51/51/1 38/38/1 37/37/1
f 51/51/1 52/52/1 39/39/1 38/38/1
f 53/53/1 54/54/1 41/41/1 40/40/1
f 54/54/1 55/55/1 42/42/1 41/41/1
f 55/55/1 56/56/1 43/43/1 42/42/1
f 56/56/1 57/57/1 44/44/1 43/43/1
f 61/66/5 62/68/6 49/67/5 48/65/4
f 62/69/1 63/70/1 50/50/1 49/49/1
f 63/70/1 64/71/1 51/51/1 50/50/1
f 64/71/1 65/72/1 52/52/1 51/51/1
f 66/73/1 67/74/1 54/54/1 53/53/1
f 67/74/1 68/75/1 55/55/1 54/54/1
f 68/75/1 69/76/1 56/56/1 55/55/1
f 70/80/2 71/81/1 58/79/2 57/78/3
f 74/93/13 75/94/14 62/92/13 61/91/12
f 75/96/5 76/97/6 63/95/5 62/68/4
f 76/98/1 77/99/1 64/71/1 63/70/1
f 77/99/1 78/100/1 65/72/1 64/71/1
f 79/101/1 80/102/1 67/74/1 66/73/1
f 80/102/1 81/103/1 68/75/1 67/74/1
f 81/103/1 82/104/1 69/76/1 68/75/1
f 86/121/23 87/122/24 74/120/23 73/119/22
f 89/131/1 90/132/1 77/99/1 76/98/1
f 90/132/1 91/133/1 78/100/1 77/99/1
f 92/134/1 93/135/1 80/102/1 79/101/1
f 93/135/1 94/136/1 81/103/1 80/102/1
f 94/136/1 95/137/1 82/104/1 81/103/1
f 102/160/1 103/161/1 90/132/1 89/131/1
f 103/161/1 104/162/1 91/133/1 90/132/1
f 105/163/1 106/164/1 93/135/1 92/134/1
f 106/164/1 107/165/1 94/136/1 93/135/1
f 107/165/1 108/166/1 95/137/1 94/136/1
f 115/187/1 116/188/1 103/161/1 102/160/1
f 116/188/1 117/189/1 104/162/1 103/161/1
f 118/190/1 119/191/1 106/164/1 105/163/1
f 119/191/1 120/192/1 107/165/1 106/164/1
f 120/192/1 121/193/1 108/166/1 107/165/1
f 122/198/44 123/199/15 110/197/44 109/196/45
f 126/214/53 127/215/54 114/213/53 113/212/52
f 127/218/55 128/219/1 115/217/55 114/216/54
f 128/220/1 129/221/1 116/188/1 115/187/1
f 129/221/1 130/222/1 117/189/1 116/188/1
f 131/223/1 132/224/1 119/191/1 118/190/1
f 132/224/1 133/225/1 120/192/1 119/191/1
f 133/225/1 134/226/1 121/193/1 120/192/1
f 134/226/1 135/228/1 122/227/1 121/193/1
f 139/240/55 140/241/1 127/218/55 126/239/54
f 140/243/1 141/244/1 128/220/1 127/242/1
f 141/244/1 142/245/1 129/221/1 128/220/1
f 142/245/1 143/246/1 130/222/1 129/221/1
f 144/247/1 145/248/1 132/224/1 131/223/1
f 145/248/1 146/249/1 133/225/1 132/224/1
f 146/249/1 147/250/1 134/226/1 133/225/1
f 147/250/1 148/251/1 135/228/1 134/226/1
f 148/251/1 149/253/1 136/252/1 135/228/1
f 149/253/1 150/255/1 137/254/1 136/252/1
f 150/255/1 151/257/1 138/256/1 137/254/1
f 151/257/1 152/259/1 139/258/1 138/256/1
f 152/259/1 153/260/1 140/243/1 139/258/1
f 153/260/1 154/261/1 141/244/1 140/243/1
f 154/261/1 155/262/1 142/245/1 141/244/1
f 155/262/1 156/263/1 143/246/1 142/245/1
f 157/264/1 158/265/1 145/248/1 144/247/1
f 158/265/1 159/266/1 146/249/1 145/248/1
f 159/266/1 160/267/1 147/250/1 146/249/1
f 160/267/1 161/268/1 148/251/1 147/250/1
f 161/268/1 162/269/1 149/253/1 148/251/1
f 162/269/1 163/270/1 150/255/1 149/253/1
f 163/270/1 164/271/1 151/257/1 150/255/1
f 164/271/1 165/272/1 152/259/1 151/257/1
f 165/272/1 166/273/1 153/260/1 152/259/1
f 166/273/1 167/274/1 154/261/1 153/260/1
f 167/274/1 168/275/1 155/262/1 154/261/1
f 168/275/1 169/276/1 156/263/1 155/262/1

usemtl RockDarkAll
f 83/109/1 84/110/1 71/83/1 70/77/1
f 98/148/27 99/149/27 86/147/27 85/146/27

usemtl RockDarkVert
f 82/107/15 83/108/15 70/106/15 69/105/15
f 84/113/17 85/114/18 72/112/17 71/111/16
f 99/152/28 100/153/29 87/151/28 86/150/24
f 114/185/6 115/186/6 102/159/6 101/158/6
f 121/194/44 122/195/45 109/168/44 108/167/15
f 123/202/47 124/203/48 111/201/47 110/200/46
f 135/230/44 136/231/45 123/229/44 122/195/15

usemtl RockDarkHor
f 69/76/2 70/77/3 57/57/2 56/56/1
f 72/87/9 73/88/9 60/86/9 59/85/9
f 73/88/10 74/90/11 61/89/10 60/86/9
f 85/117/20 86/118/21 73/116/20 72/115/19
f 111/175/36 112/176/37 99/174/36 98/173/35
f 124/206/50 125/207/51 112/205/50 111/204/49
f 136/233/45 137/234/45 124/232/45 123/199/45

usemtl RedSandAll
f 96/140/1 97/141/1 84/110/1 83/109/1
f 109/169/1 110/170/1 97/141/1 96/140/1

usemtl RedSandHor
f 57/57/2 58/58/3 45/45/2 44/44/1
f 58/61/4 59/62/4 46/60/4 45/59/4
f 60/64/4 61/66/4 48/65/4 47/63/4
f 125/210/51 126/211/51 113/209/51 112/208/51
f 138/236/45 139/238/45 126/237/45 125/235/45

usemtl RedSandVert
f 87/125/25 88/126/25 75/124/25 74/123/25
f 95/138/15 96/139/15 83/108/15 82/107/15
f 100/156/31 101/157/32 88/155/31 87/154/30
f 110/171/33 111/172/34 98/145/33 97/144/26

usemtl LavaRock
f 59/62/4 60/64/4 47/63/4 46/60/4
f 71/83/7 72/84/8 59/82/7 58/58/1
f 88/129/6 89/130/6 76/128/6 75/127/6
f 97/144/26 98/145/26 85/143/26 84/142/26
f 101/158/6 102/159/6 89/130/6 88/129/6
f 108/167/15 109/168/15 96/139/15 95/138/15
f 112/179/39 113/180/40 100/178/39 99/177/38
f 113/183/42 114/184/43 101/182/42 100/181/41
f 137/234/45 138/236/45 125/235/45 124/232/45

