# ProBuilder 5.0.7
# https://unity3d.com/unity/features/worldbuilding/probuilder
# 19.01.2025 18:06:45

mtllib ./centralRock_3.mtl
o centralRock_3

g centralRock_3
v 6 0 -6
v 6 0 -5
v 5 0 -6
v 5 0 -5
v 6 0 -4
v 5 0 -4
v 6 0 -3
v 5 0 -3
v 6 0 -2
v 5 0 -2
v 6 0 -1
v 5 0 -1
v 6 0 0
v 5 0 0
v 6 0 1
v 5 0 1
v 6 0 2
v 5 0 2
v 6 0 3
v 5 0 3
v 6 0 4
v 5 0 4
v 6 0 5
v 5 0 5
v 6 0 6
v 5 0 6
v 4 0 -6
v 4 0 -5
v 4 0 -4
v 4 0 -3
v 4 0 -2
v 4 0 -1
v 4 0 0
v 4 0 1
v 4 0 2
v 4 0 3
v 4 0 4
v 4 0 5
v 4 0 6
v 3 0 -6
v 3 0 -5
v 3 0 -4
v 3 0 -3
v 3 0 -2
v 3 0 -1
v 3 0 0
v 3 0 1
v 3 0 2
v 3 0 3
v 3 0 4
v 3 0 5
v 3 0 6
v 2 0 -6
v 2 0 -5
v 2 0 -4
v 2 0 -3
v 2 0 -2
v 2.000001 0.9016373 -1
v 2 0.9016373 2.842171E-14
v 2 0.9016373 1
v 2 0.9016373 2
v 2 0 3
v 2 0 4
v 2 0 5
v 2 0 6
v 1 0 -6
v 1 0 -5
v 1 0 -4
v 1 0 -3
v 1 0.9016373 -2
v 1 1.667058 -1
v 1 1.663416 0
v 1 1.663416 1
v 1 1.680633 2.000001
v 1 0.9016373 3.000001
v 1 0 4
v 1 0 5
v 1 0 6
v 0 0 -6
v 0 0 -5
v 0 0 -4
v 0 0 -3
v 0 0.9016373 -2
v 1.421086E-14 1.736861 -1
v 0 0.8732384 0
v 0 0.8732384 1
v -6.776264E-21 1.736861 2.000001
v 1.421085E-14 0.9016373 3.000001
v 0 0 4
v 0 0 5
v 0 0 6
v -1 0 -6
v -1 0 -5
v -1 0 -4
v -1 0 -3
v -1 0.9016373 -2
v -1 1.736861 -1
v -1 0.8732384 0
v -1 0.8732384 1
v -1 1.736861 2.000001
v -1 0.9016373 3.000001
v -1 0 4
v -1 0 5
v -1 0 6
v -2 0 -6
v -2 0 -5
v -2 0 -4
v -2 0 -3
v -2 0.9016373 -2
v -2 1.7489 -1
v -2 1.747636 0
v -2.000001 1.747636 1
v -2 1.751174 2
v -2 0.9016373 3.000001
v -2 0 4
v -2 0 5
v -2 0 6
v -3 0 -6
v -3 0 -5
v -3 0 -4
v -3 0 -3
v -3 0 -2
v -3.000001 0.9016373 -1
v -3.000001 0.9016373 1.421085E-14
v -3.000001 0.9016373 1
v -3.000001 0.9016373 2
v -3 0 3
v -3 0 4
v -3 0 5
v -3 0 6
v -4 0 -6
v -4 0 -5
v -4 0 -4
v -4 0 -3
v -4 0 -2
v -4 0 -1
v -4 0 0
v -4 0 1
v -4 0 2
v -4 0 3
v -4 0 4
v -4 0 5
v -4 0 6
v -5 0 -6
v -5 0 -5
v -5 0 -4
v -5 0 -3
v -5 0 -2
v -5 0 -1
v -5 0 0
v -5 0 1
v -5 0 2
v -5 0 3
v -5 0 4
v -5 0 5
v -5 0 6
v -6 0 -6
v -6 0 -5
v -6 0 -4
v -6 0 -3
v -6 0 -2
v -6 0 -1
v -6 0 0
v -6 0 1
v -6 0 2
v -6 0 3
v -6 0 4
v -6 0 5
v -6 0 6

vt -6 -6
vt -6 -5
vt -5 -6
vt -5 -5
vt -6 -4
vt -5 -4
vt -6 -3
vt -5 -3
vt -6 -2
vt -5 -2
vt -6 -1
vt -5 -1
vt -6 0
vt -5 0
vt -6 1
vt -5 1
vt -6 2
vt -5 2
vt -6 3
vt -5 3
vt -6 4
vt -5 4
vt -6 5
vt -5 5
vt -6 6
vt -5 6
vt -4 -6
vt -4 -5
vt -4 -4
vt -4 -3
vt -4 -2
vt -4 -1
vt -4 0
vt -4 1
vt -4 2
vt -4 3
vt -4 4
vt -4 5
vt -4 6
vt -3 -6
vt -3 -5
vt -3 -4
vt -3 -3
vt -3 -2
vt -3 -1
vt -3 0
vt -3 1
vt -3 2
vt -3 3
vt -3 4
vt -3 5
vt -3 6
vt -2 -6
vt -2 -5
vt -2 -4
vt -2 -3
vt -2 -2
vt -2.000001 -1
vt -2.228067 -1
vt -2.228067 0
vt -0.8816093 -1
vt -0.881609 2.842171E-14
vt -2.228068 1
vt -0.8816096 1
vt -2.228067 2
vt -0.8816093 2
vt -2.228067 3
vt -1.485378 3
vt -2 3
vt -2 4
vt -2 5
vt -2 6
vt -1 -6
vt -1 -5
vt -1 -4
vt -1 -3
vt -1 -2
vt -1.485378 -0.9166375
vt -0.8816093 0.2868626
vt -0.1389199 -0.9166381
vt 0.3736337 0.2305723
vt -1.040146 -1.000001
vt -1.040146 -5.598243E-07
vt 0.2191669 -1.000001
vt 0.2169532 -5.589862E-07
vt -1.044587 2.787238E-07
vt -1.044587 1
vt 0.2125158 2.787237E-07
vt 0.2125158 1
vt -1.044587 2
vt 0.222949 2.000001
vt -1.023681 0.5050962
vt -1.577772 1.73226
vt 0.2439286 0.5050965
vt -0.234795 1.676183
vt -1.485378 4
vt -0.1389203 3.000001
vt -0.7426892 4
vt -1 4
vt -1 5
vt -1 6
vt 0 -6
vt 0 -5
vt 0 -4
vt 0 -3
vt -1 -2.228067
vt -1 -0.8816093
vt 0 -2.228067
vt 0 -0.8816093
vt -1 -1.040146
vt -1 0.2191672
vt 0 -1.040146
vt -1.421086E-14 0.2615937
vt -0.8814899 -1.006289
vt -0.8817436 -0.006281874
vt 0.1209436 -1.006289
vt 0.06080658 -0.003164963
vt -1.815906 0
vt -1.815906 1
vt -0.5413941 0
vt -0.5413941 1
vt -1.815906 1.009164
vt -1.826581 2.009256
vt -0.5413941 1.009164
vt -1.076826 2.018226
vt -0.904074 0.5140738
vt -0.9478061 1.780929
vt 0.09750574 0.5140741
vt 0.05061707 1.815395
vt -1 1.624298
vt -1 2.970756
vt 1.938224E-07 1.624298
vt 0 2.970756
vt 0 4
vt 0 5
vt 0 6
vt 1 -6
vt 1 -5
vt 1 -4
vt 1 -3
vt 1 -2.228067
vt 1 -0.8816093
vt 0 -0.9570293
vt -1.421086E-14 0.3458898
vt 1 -0.9570293
vt 1 0.3458898
vt -1.421086E-14 -1.892065
vt 0 -0.5707605
vt 1 -1.892065
vt 1 -0.5707605
vt 0 0
vt 0 1
vt 1 0
vt 1 1
vt 0 1.327589
vt 6.776264E-21 2.648893
vt 1 1.327589
vt 1 2.648894
vt 3.458657E-07 0.4216179
vt 1.795454E-07 1.724537
vt 1.000001 0.4216182
vt 1 1.724537
vt 1 1.624298
vt 1 2.970755
vt 1 4
vt 1 5
vt 1 6
vt 2 -6
vt 2 -5
vt 2 -4
vt 2 -3
vt 2 -2.228067
vt 2 -0.8816093
vt 2 -0.9570293
vt 2 0.3536077
vt 1.020838 -1.88409
vt 1.010441 -0.5628271
vt 2.02091 -1.88409
vt 2.020895 -1.126412
vt 1.327609 0
vt 1.327609 1
vt 2.655981 0
vt 2.655981 1
vt 1.327609 0.8379162
vt 1.896086 2.030677
vt 2.655981 0.8379159
vt 2.658309 1.67776
vt 1.024755 0.4310369
vt 1.012801 1.733901
vt 2.024857 0.4310359
vt 2.012699 1.743075
vt 2.000001 1.624299
vt 2 2.970756
vt 2 4
vt 2 5
vt 2 6
vt 3 -6
vt 3 -5
vt 3 -4
vt 3 -3
vt 3 -2.228067
vt 3 -1.485378
vt 0.8816088 -0.6228393
vt 0.3142506 0.558668
vt 2.228067 -0.6228387
vt 1.624298 0.5801759
vt 0.3953881 -1.002534
vt 0.3962052 -0.002532938
vt 1.706058 -1.002534
vt 1.706058 -0.002533868
vt 0.3981389 4.043682E-07
vt 0.398139 1.000001
vt 1.707992 4.043682E-07
vt 1.707992 1.000001
vt 0.3981385 1.007089
vt 0.3958532 2.007093
vt 1.707991 1.007089
vt 1.707991 2.007086
vt 0.3904415 0.2497797
vt 0.9404684 1.441075
vt 1.702582 0.2497797
vt 2.286341 1.462654
vt 0.8816084 1.374957
vt 1.485378 2.578456
vt 2.228066 1.374956
vt 2.228066 2.205865
vt 3 4
vt 3 5
vt 3 6
vt 4 -6
vt 4 -5
vt 4 -4
vt 4 -3
vt 3 -2
vt 4 -2
vt 3.000001 -0.1389203
vt 4 -1.485378
vt 4 -0.7426891
vt 1.624298 -1
vt 1.624298 1.421085E-14
vt 2.970756 -1
vt 2.970756 0
vt 1.624298 0.9999998
vt 2.970756 0.9999996
vt 1.624298 1
vt 1.624298 2
vt 2.970756 1
vt 2.970756 2
vt 1.624298 0.1714561
vt 2.970755 0.1714555
vt 2.970755 1.002365
vt 3 3
vt 4 3
vt 4 4
vt 4 5
vt 4 6
vt 5 -6
vt 5 -5
vt 5 -4
vt 5 -3
vt 5 -2
vt 4 -1
vt 5 -1
vt 4 0
vt 5 0
vt 4 1
vt 5 1
vt 4 2
vt 5 2
vt 5 3
vt 5 4
vt 5 5
vt 5 6
vt 6 -6
vt 6 -5
vt 6 -4
vt 6 -3
vt 6 -2
vt 6 -1
vt 6 0
vt 6 1
vt 6 2
vt 6 3
vt 6 4
vt 6 5
vt 6 6

vn 0 1 0
vn 0.2782037 0.8085537 -0.2782037
vn 0.5564075 0.6171073 -0.5564075
vn 0.6696365 0.742689 0
vn 0.3348182 0.7426891 0.3348182
vn 0 0.7426891 0.6696364
vn 0.5379003 0.6478401 -0.5379004
vn 0.5193933 0.6785728 -0.5193934
vn 0.607808 0.794084 2.898254E-07
vn 0.6068926 0.7947804 0.001448741
vn 0.6059772 0.7954768 0.002897191
vn 0.6059797 0.7954801 -1.444768E-07
vn 0.610231 0.7921469 -0.006790655
vn 0.6144824 0.7888135 -0.01358131
vn 0.5007797 0.6428528 0.5796205
vn 0.5402001 0.6428528 0.5402001
vn 0.5796205 0.6428528 0.5007797
vn 0 0.7426891 -0.6696364
vn 0 0.7940839 -0.6078081
vn 0.02674882 0.7802461 -0.6239651
vn 0.05349765 0.7664083 -0.6401222
vn 0.06963297 0.9975661 0.003633217
vn -0.2218091 0.8235527 0.2822948
vn -0.5132511 0.6495393 0.5609564
vn -0.6199843 0.7846142 0
vn -0.6199277 0.7845426 -0.01350778
vn -0.2887059 0.7703434 -0.3332652
vn 0.04251597 0.7561441 -0.6530226
vn 0.04431372 0.7881113 0.6139355
vn 0.02215694 0.7778094 0.6274879
vn 1.528359E-07 0.7675074 0.6410402
vn 0 0.7675074 -0.6410402
vn 0 0.7568284 0.6536136
vn 0 0.7568284 -0.6536136
vn 0.004592583 0.7652221 -0.6437241
vn 0.009185165 0.7629368 -0.6464079
vn 0.009111555 0.756797 0.6535865
vn 0.3336795 0.754799 0.327269
vn 0.6582475 0.752801 0.000951612
vn 0.6582478 0.7528014 0
vn 0.5518695 0.6311424 -0.5450683
vn 0.2830906 0.8155168 -0.274303
vn 0.01431179 0.9998913 -0.003537631
vn 0.01098447 0.7674609 0.6410017
vn 0.005492312 0.7647873 0.6442225
vn 1.543625E-07 0.7621136 0.6474433
vn -0.3348182 0.7426891 -0.3348182
vn -0.6696364 0.7426891 0
vn -0.5667648 0.6285946 -0.5325847
vn -0.5496747 0.6285946 -0.5496748
vn -0.5325846 0.6285946 -0.5667649
vn -0.6464347 0.7629687 0.0009644649
vn -0.6461539 0.7632067 0.0004822324
vn -0.6458731 0.7634448 0
vn -0.6458709 0.7634419 -0.002700912
vn -0.6466571 0.7627777 -0.001350456
vn -0.6474434 0.7621136 0
vn -0.5434788 0.6397356 0.5434787
vn -0.5499432 0.6284214 0.5499431
vn -0.5564076 0.6171072 0.5564075
vn -0.2782038 0.8085536 0.2782038

usemtl RockDarkBase
f 3/3/1 4/4/1 2/2/1 1/1/1
f 4/4/1 6/6/1 5/5/1 2/2/1
f 6/6/1 8/8/1 7/7/1 5/5/1
f 8/8/1 10/10/1 9/9/1 7/7/1
f 10/10/1 12/12/1 11/11/1 9/9/1
f 12/12/1 14/14/1 13/13/1 11/11/1
f 14/14/1 16/16/1 15/15/1 13/13/1
f 16/16/1 18/18/1 17/17/1 15/15/1
f 18/18/1 20/20/1 19/19/1 17/17/1
f 20/20/1 22/22/1 21/21/1 19/19/1
f 22/22/1 24/24/1 23/23/1 21/21/1
f 24/24/1 26/26/1 25/25/1 23/23/1
f 27/27/1 28/28/1 4/4/1 3/3/1
f 28/28/1 29/29/1 6/6/1 4/4/1
f 29/29/1 30/30/1 8/8/1 6/6/1
f 30/30/1 31/31/1 10/10/1 8/8/1
f 31/31/1 32/32/1 12/12/1 10/10/1
f 32/32/1 33/33/1 14/14/1 12/12/1
f 33/33/1 34/34/1 16/16/1 14/14/1
f 34/34/1 35/35/1 18/18/1 16/16/1
f 35/35/1 36/36/1 20/20/1 18/18/1
f 36/36/1 37/37/1 22/22/1 20/20/1
f 37/37/1 38/38/1 24/24/1 22/22/1
f 38/38/1 39/39/1 26/26/1 24/24/1
f 40/40/1 41/41/1 28/28/1 27/27/1
f 41/41/1 42/42/1 29/29/1 28/28/1
f 42/42/1 43/43/1 30/30/1 29/29/1
f 43/43/1 44/44/1 31/31/1 30/30/1
f 44/44/1 45/45/1 32/32/1 31/31/1
f 45/45/1 46/46/1 33/33/1 32/32/1
f 46/46/1 47/47/1 34/34/1 33/33/1
f 47/47/1 48/48/1 35/35/1 34/34/1
f 48/48/1 49/49/1 36/36/1 35/35/1
f 49/49/1 50/50/1 37/37/1 36/36/1
f 50/50/1 51/51/1 38/38/1 37/37/1
f 51/51/1 52/52/1 39/39/1 38/38/1
f 53/53/1 54/54/1 41/41/1 40/40/1
f 54/54/1 55/55/1 42/42/1 41/41/1
f 55/55/1 56/56/1 43/43/1 42/42/1
f 56/56/1 57/57/1 44/44/1 43/43/1
f 61/66/5 62/68/6 49/67/5 48/65/4
f 62/69/1 63/70/1 50/50/1 49/49/1
f 63/70/1 64/71/1 51/51/1 50/50/1
f 64/71/1 65/72/1 52/52/1 51/51/1
f 66/73/1 67/74/1 54/54/1 53/53/1
f 67/74/1 68/75/1 55/55/1 54/54/1
f 68/75/1 69/76/1 56/56/1 55/55/1
f 70/80/7 71/81/8 58/79/7 57/78/3
f 74/94/16 75/95/17 62/93/16 61/92/15
f 75/97/5 76/98/6 63/96/5 62/68/4
f 76/99/1 77/100/1 64/71/1 63/70/1
f 77/100/1 78/101/1 65/72/1 64/71/1
f 79/102/1 80/103/1 67/74/1 66/73/1
f 80/103/1 81/104/1 68/75/1 67/74/1
f 81/104/1 82/105/1 69/76/1 68/75/1
f 87/128/30 88/129/31 75/127/30 74/126/29
f 89/134/1 90/135/1 77/100/1 76/99/1
f 90/135/1 91/136/1 78/101/1 77/100/1
f 92/137/1 93/138/1 80/103/1 79/102/1
f 93/138/1 94/139/1 81/104/1 80/103/1
f 94/139/1 95/140/1 82/105/1 81/104/1
f 102/165/1 103/166/1 90/135/1 89/134/1
f 103/166/1 104/167/1 91/136/1 90/135/1
f 105/168/1 106/169/1 93/138/1 92/137/1
f 106/169/1 107/170/1 94/139/1 93/138/1
f 107/170/1 108/171/1 95/140/1 94/139/1
f 110/178/38 111/179/39 98/177/38 97/176/37
f 115/194/1 116/195/1 103/166/1 102/165/1
f 116/195/1 117/196/1 104/167/1 103/166/1
f 118/197/1 119/198/1 106/169/1 105/168/1
f 119/198/1 120/199/1 107/170/1 106/169/1
f 120/199/1 121/200/1 108/171/1 107/170/1
f 127/225/61 128/226/1 115/224/61 114/223/60
f 128/227/1 129/228/1 116/195/1 115/194/1
f 129/228/1 130/229/1 117/196/1 116/195/1
f 131/230/1 132/231/1 119/198/1 118/197/1
f 132/231/1 133/232/1 120/199/1 119/198/1
f 133/232/1 134/233/1 121/200/1 120/199/1
f 134/233/1 135/235/1 122/234/1 121/200/1
f 139/250/61 140/251/1 127/225/61 126/249/60
f 140/253/1 141/254/1 128/227/1 127/252/1
f 141/254/1 142/255/1 129/228/1 128/227/1
f 142/255/1 143/256/1 130/229/1 129/228/1
f 144/257/1 145/258/1 132/231/1 131/230/1
f 145/258/1 146/259/1 133/232/1 132/231/1
f 146/259/1 147/260/1 134/233/1 133/232/1
f 147/260/1 148/261/1 135/235/1 134/233/1
f 148/261/1 149/263/1 136/262/1 135/235/1
f 149/263/1 150/265/1 137/264/1 136/262/1
f 150/265/1 151/267/1 138/266/1 137/264/1
f 151/267/1 152/269/1 139/268/1 138/266/1
f 152/269/1 153/270/1 140/253/1 139/268/1
f 153/270/1 154/271/1 141/254/1 140/253/1
f 154/271/1 155/272/1 142/255/1 141/254/1
f 155/272/1 156/273/1 143/256/1 142/255/1
f 157/274/1 158/275/1 145/258/1 144/257/1
f 158/275/1 159/276/1 146/259/1 145/258/1
f 159/276/1 160/277/1 147/260/1 146/259/1
f 160/277/1 161/278/1 148/261/1 147/260/1
f 161/278/1 162/279/1 149/263/1 148/261/1
f 162/279/1 163/280/1 150/265/1 149/263/1
f 163/280/1 164/281/1 151/267/1 150/265/1
f 164/281/1 165/282/1 152/269/1 151/267/1
f 165/282/1 166/283/1 153/270/1 152/269/1
f 166/283/1 167/284/1 154/271/1 153/270/1
f 167/284/1 168/285/1 155/272/1 154/271/1
f 168/285/1 169/286/1 156/273/1 155/272/1

usemtl RockDarkAll
f 97/149/33 98/150/33 85/148/33 84/147/33
f 98/153/1 99/154/1 86/152/1 85/151/1

usemtl RockDarkHor
f 57/57/2 58/58/3 45/45/2 44/44/1
f 60/64/4 61/66/4 48/65/4 47/63/4
f 69/76/2 70/77/3 57/57/2 56/56/1
f 111/182/40 112/183/40 99/181/40 98/180/40
f 123/209/53 124/210/54 111/208/53 110/207/52
f 124/213/54 125/214/54 112/212/54 111/211/54
f 125/217/56 126/218/57 113/216/56 112/215/55
f 136/241/48 137/242/48 124/240/48 123/239/48
f 137/242/48 138/244/48 125/243/48 124/240/48
f 138/247/48 139/248/48 126/246/48 125/245/48

usemtl RockDarkVert
f 82/108/18 83/109/18 70/107/18 69/106/18
f 83/112/20 84/113/21 71/111/20 70/110/19
f 88/132/6 89/133/6 76/131/6 75/130/6
f 101/163/6 102/164/6 89/133/6 88/132/6
f 114/192/6 115/193/6 102/164/6 101/163/6
f 135/237/47 136/238/48 123/236/47 122/202/18

usemtl RedSandAll
f 99/157/34 100/158/34 87/156/34 86/155/34

usemtl RedSandHor
f 58/61/4 59/62/4 46/60/4 45/59/4
f 59/62/4 60/64/4 47/63/4 46/60/4
f 71/84/10 72/85/11 59/83/10 58/82/9
f 72/88/12 73/89/12 60/87/12 59/86/12
f 85/120/25 86/121/25 73/119/25 72/118/25

usemtl RedSandVert
f 96/145/32 97/146/32 84/144/32 83/143/32
f 108/172/18 109/173/18 96/142/18 95/141/18
f 109/174/35 110/175/36 97/146/35 96/145/32
f 121/201/47 122/202/48 109/173/47 108/172/18

usemtl RedSandBase
f 113/190/45 114/191/46 101/189/45 100/188/44
f 126/221/59 127/222/60 114/220/59 113/219/58

usemtl LavaRock
f 73/89/13 74/91/14 61/90/13 60/87/12
f 84/116/23 85/117/24 72/115/23 71/114/22
f 86/124/27 87/125/28 74/123/27 73/122/26
f 95/141/18 96/142/18 83/109/18 82/108/18
f 100/161/31 101/162/31 88/160/31 87/159/31
f 112/186/42 113/187/43 100/185/42 99/184/41
f 122/205/50 123/206/51 110/204/50 109/203/49

