# MagicaVoxel @ Ephtracy

# group
o 

# material
mtllib radar_tower_blue.mtl
usemtl palette

# normals
vn -1 0 0
vn 1 0 0
vn 0 0 1
vn 0 0 -1
vn 0 -1 0
vn 0 1 0

# texcoords
vt 0.458984 0.5
vt 0.783203 0.5
vt 0.919922 0.5
vt 0.970703 0.5
vt 0.974609 0.5

# verts
v -0.3 0 0.2
v -0.3 0 -0.2
v -0.3 0.1 0.2
v -0.3 0.1 -0.2
v -0.2 0 0.3
v -0.2 0 0.2
v -0.2 0 -0.2
v -0.2 0 -0.3
v -0.2 0.1 0.3
v -0.2 0.1 0.2
v -0.2 0.1 0.1
v -0.2 0.1 -0.1
v -0.2 0.1 -0.2
v -0.2 0.1 -0.3
v -0.2 0.2 0.2
v -0.2 0.2 0.1
v -0.2 0.2 -0.1
v -0.2 0.2 -0.2
v -0.2 0.3 0.2
v -0.2 0.3 0.1
v -0.2 0.3 0
v -0.2 0.3 -0.1
v -0.2 0.4 0.2
v -0.2 0.4 0.1
v -0.2 0.4 0
v -0.2 0.4 -0.1
v -0.2 0.4 -0.2
v -0.2 0.4 -0.3
v -0.2 0.4 -0.4
v -0.2 0.5 0
v -0.2 0.5 -0.1
v -0.2 0.5 -0.3
v -0.2 0.6 0
v -0.2 0.6 -0.1
v -0.2 0.6 -0.4
v -0.2 0.6 -0.5
v -0.2 0.6 -0.6
v -0.2 0.6 -0.7
v -0.2 0.7 -0.4
v -0.2 0.7 -0.5
v -0.2 0.8 -0.1
v -0.2 0.8 -0.2
v -0.2 0.8 -0.4
v -0.2 0.8 -0.6
v -0.2 0.8 -0.7
v -0.2 0.9 -0.2
v -0.2 0.9 -0.4
v -0.2 0.9 -0.6
v -0.2 0.9 -0.7
v -0.1 0.1 0.2
v -0.1 0.1 0.1
v -0.1 0.1 -0.1
v -0.1 0.1 -0.2
v -0.1 0.2 0.2
v -0.1 0.2 0.1
v -0.1 0.2 -0.1
v -0.1 0.2 -0.2
v 0.1 0.6 -0.2
v 0.1 0.6 -0.3
v 0.1 0.7 -0.2
v 0.1 0.7 -0.3
v 0.1 0.7 -0.4
v 0.1 0.7 -0.6
v 0.1 0.8 -0.2
v 0.1 0.8 -0.3
v 0.1 0.8 -0.4
v 0.1 0.8 -0.5
v 0.1 0.8 -0.6
v -0.1 0.6 -0.2
v -0.1 0.6 -0.3
v -0.1 0.7 -0.3
v -0.1 0.7 -0.4
v -0.1 0.7 -0.5
v -0.1 0.7 -0.6
v -0.1 0.8 -0.2
v -0.1 0.8 -0.3
v -0.1 0.8 -0.4
v -0.1 0.8 -0.6
v 0.1 0.1 0.2
v 0.1 0.1 0.1
v 0.1 0.1 -0.1
v 0.1 0.1 -0.2
v 0.1 0.2 0.2
v 0.1 0.2 0.1
v 0.1 0.2 -0.1
v 0.1 0.2 -0.2
v 0.2 0 0.3
v 0.2 0 0.2
v 0.2 0 -0.2
v 0.2 0 -0.3
v 0.2 0.1 0.3
v 0.2 0.1 0.2
v 0.2 0.1 0.1
v 0.2 0.1 -0.1
v 0.2 0.1 -0.2
v 0.2 0.1 -0.3
v 0.2 0.2 0.2
v 0.2 0.2 0.1
v 0.2 0.2 -0.1
v 0.2 0.2 -0.2
v 0.2 0.3 0.2
v 0.2 0.3 0.1
v 0.2 0.3 -0.1
v 0.2 0.3 -0.2
v 0.2 0.4 0.2
v 0.2 0.4 0.1
v 0.2 0.4 0
v 0.2 0.4 -0.2
v 0.2 0.4 -0.4
v 0.2 0.6 0
v 0.2 0.6 -0.1
v 0.2 0.6 -0.4
v 0.2 0.6 -0.6
v 0.2 0.6 -0.7
v 0.2 0.7 -0.1
v 0.2 0.7 -0.3
v 0.2 0.7 -0.6
v 0.2 0.7 -0.7
v 0.2 0.8 -0.1
v 0.2 0.8 -0.2
v 0.2 0.8 -0.3
v 0.2 0.8 -0.4
v 0.2 0.8 -0.5
v 0.2 0.9 -0.2
v 0.2 0.9 -0.3
v 0.2 0.9 -0.4
v 0.2 0.9 -0.5
v 0.2 0.9 -0.7
v 0.3 0 0.2
v 0.3 0 -0.2
v 0.3 0.1 0.2
v 0.3 0.1 -0.2
v -0.2 0 0.3
v -0.2 0.1 0.3
v 0.2 0 0.3
v 0.2 0.1 0.3
v -0.3 0 0.2
v -0.3 0.1 0.2
v -0.2 0 0.2
v -0.2 0.1 0.2
v -0.2 0.2 0.2
v -0.2 0.3 0.2
v -0.2 0.4 0.2
v -0.1 0.1 0.2
v -0.1 0.2 0.2
v 0 0.2 0.2
v 0 0.3 0.2
v 0 0.4 0.2
v 0.1 0.1 0.2
v 0.1 0.2 0.2
v 0.2 0 0.2
v 0.2 0.1 0.2
v 0.2 0.2 0.2
v 0.2 0.3 0.2
v 0.2 0.4 0.2
v 0.3 0 0.2
v 0.3 0.1 0.2
v -0.2 0.1 0.1
v -0.2 0.2 0.1
v -0.1 0.1 0.1
v -0.1 0.2 0.1
v 0.1 0.1 0.1
v 0.1 0.2 0.1
v 0.2 0.1 0.1
v 0.2 0.2 0.1
v -0.2 0.4 0
v -0.2 0.5 0
v -0.2 0.6 0
v -0.1 0.4 0
v -0.1 0.5 0
v -0.1 0.6 0
v 0 0.4 0
v 0 0.6 0
v 0.1 0.4 0
v 0.1 0.6 0
v 0.2 0.4 0
v 0.2 0.6 0
v -0.2 0.6 -0.1
v -0.2 0.8 -0.1
v -0.1 0.6 -0.1
v -0.1 0.8 -0.1
v 0 0.6 -0.1
v 0 0.8 -0.1
v 0.1 0.6 -0.1
v 0.1 0.7 -0.1
v 0.2 0.6 -0.1
v 0.2 0.7 -0.1
v 0.2 0.8 -0.1
v -0.2 0.8 -0.2
v -0.2 0.9 -0.2
v -0.1 0.8 -0.2
v 0 0.8 -0.2
v 0 0.9 -0.2
v 0.1 0.8 -0.2
v 0.1 0.9 -0.2
v 0.2 0.8 -0.2
v 0.2 0.9 -0.2
v -0.1 0.6 -0.3
v -0.1 0.7 -0.3
v 0.1 0.6 -0.3
v 0.1 0.7 -0.3
v -0.1 0.7 -0.6
v -0.1 0.8 -0.6
v 0 0.7 -0.6
v 0 0.8 -0.6
v 0.1 0.7 -0.6
v 0.1 0.8 -0.6
v -0.2 0.1 -0.1
v -0.2 0.2 -0.1
v -0.1 0.1 -0.1
v -0.1 0.2 -0.1
v 0.1 0.1 -0.1
v 0.1 0.2 -0.1
v 0.2 0.1 -0.1
v 0.2 0.2 -0.1
v -0.3 0 -0.2
v -0.3 0.1 -0.2
v -0.2 0 -0.2
v -0.2 0.1 -0.2
v -0.2 0.2 -0.2
v -0.2 0.4 -0.2
v -0.1 0.1 -0.2
v -0.1 0.2 -0.2
v -0.1 0.4 -0.2
v -0.1 0.6 -0.2
v -0.1 0.8 -0.2
v 0 0.3 -0.2
v 0 0.4 -0.2
v 0 0.6 -0.2
v 0 0.8 -0.2
v 0.1 0.1 -0.2
v 0.1 0.2 -0.2
v 0.1 0.3 -0.2
v 0.1 0.4 -0.2
v 0.1 0.6 -0.2
v 0.1 0.7 -0.2
v 0.1 0.8 -0.2
v 0.2 0 -0.2
v 0.2 0.1 -0.2
v 0.2 0.2 -0.2
v 0.2 0.3 -0.2
v 0.2 0.4 -0.2
v 0.3 0 -0.2
v 0.3 0.1 -0.2
v -0.2 0 -0.3
v -0.2 0.1 -0.3
v 0.2 0 -0.3
v 0.2 0.1 -0.3
v -0.2 0.4 -0.4
v -0.2 0.6 -0.4
v -0.1 0.4 -0.4
v -0.1 0.5 -0.4
v -0.1 0.6 -0.4
v 0 0.5 -0.4
v 0 0.6 -0.4
v 0.1 0.4 -0.4
v 0.1 0.6 -0.4
v 0.2 0.4 -0.4
v 0.2 0.6 -0.4
v -0.2 0.6 -0.7
v -0.2 0.8 -0.7
v -0.2 0.9 -0.7
v -0.1 0.6 -0.7
v -0.1 0.8 -0.7
v -0.1 0.9 -0.7
v 0 0.6 -0.7
v 0 0.7 -0.7
v 0 0.8 -0.7
v 0 0.9 -0.7
v 0.1 0.6 -0.7
v 0.1 0.7 -0.7
v 0.1 0.8 -0.7
v 0.2 0.6 -0.7
v 0.2 0.7 -0.7
v 0.2 0.9 -0.7
v -0.2 0 0.3
v 0.2 0 0.3
v -0.3 0 0.2
v -0.2 0 0.2
v -0.1 0 0.2
v 0.1 0 0.2
v 0.2 0 0.2
v 0.3 0 0.2
v -0.2 0 0.1
v -0.1 0 0.1
v 0.1 0 0.1
v 0.2 0 0.1
v -0.2 0 -0.1
v -0.1 0 -0.1
v 0.1 0 -0.1
v 0.2 0 -0.1
v -0.3 0 -0.2
v -0.2 0 -0.2
v -0.1 0 -0.2
v 0.1 0 -0.2
v 0.2 0 -0.2
v 0.3 0 -0.2
v -0.2 0 -0.3
v 0.2 0 -0.3
v -0.2 0.2 0.2
v -0.1 0.2 0.2
v 0.1 0.2 0.2
v 0.2 0.2 0.2
v -0.2 0.2 0.1
v -0.1 0.2 0.1
v 0.1 0.2 0.1
v 0.2 0.2 0.1
v -0.2 0.2 -0.1
v -0.1 0.2 -0.1
v 0.1 0.2 -0.1
v 0.2 0.2 -0.1
v -0.2 0.2 -0.2
v -0.1 0.2 -0.2
v 0.1 0.2 -0.2
v 0.2 0.2 -0.2
v -0.2 0.4 -0.2
v -0.1 0.4 -0.2
v 0 0.4 -0.2
v 0.1 0.4 -0.2
v 0.2 0.4 -0.2
v -0.2 0.4 -0.3
v -0.1 0.4 -0.3
v 0 0.4 -0.3
v -0.2 0.4 -0.4
v -0.1 0.4 -0.4
v 0.1 0.4 -0.4
v 0.2 0.4 -0.4
v -0.2 0.6 -0.4
v -0.1 0.6 -0.4
v 0 0.6 -0.4
v 0.1 0.6 -0.4
v 0.2 0.6 -0.4
v -0.2 0.6 -0.5
v -0.1 0.6 -0.5
v 0 0.6 -0.5
v -0.2 0.6 -0.6
v -0.1 0.6 -0.6
v 0 0.6 -0.6
v 0.1 0.6 -0.6
v 0.2 0.6 -0.6
v -0.2 0.6 -0.7
v -0.1 0.6 -0.7
v 0 0.6 -0.7
v 0.1 0.6 -0.7
v 0.2 0.6 -0.7
v -0.1 0.8 -0.2
v 0 0.8 -0.2
v 0.1 0.8 -0.2
v -0.1 0.8 -0.3
v 0 0.8 -0.3
v 0.1 0.8 -0.3
v -0.1 0.8 -0.4
v 0 0.8 -0.4
v 0.1 0.8 -0.4
v 0 0.8 -0.5
v 0.1 0.8 -0.5
v -0.1 0.8 -0.6
v 0 0.8 -0.6
v 0.1 0.8 -0.6
v -0.2 0.1 0.3
v 0.2 0.1 0.3
v -0.3 0.1 0.2
v -0.2 0.1 0.2
v -0.1 0.1 0.2
v 0.1 0.1 0.2
v 0.2 0.1 0.2
v 0.3 0.1 0.2
v -0.2 0.1 0.1
v -0.1 0.1 0.1
v 0.1 0.1 0.1
v 0.2 0.1 0.1
v -0.2 0.1 -0.1
v -0.1 0.1 -0.1
v 0.1 0.1 -0.1
v 0.2 0.1 -0.1
v -0.3 0.1 -0.2
v -0.2 0.1 -0.2
v -0.1 0.1 -0.2
v 0.1 0.1 -0.2
v 0.2 0.1 -0.2
v 0.3 0.1 -0.2
v -0.2 0.1 -0.3
v 0.2 0.1 -0.3
v -0.2 0.4 0.2
v 0 0.4 0.2
v 0.2 0.4 0.2
v -0.2 0.4 0.1
v 0 0.4 0.1
v 0.1 0.4 0.1
v 0.2 0.4 0.1
v -0.2 0.4 0
v -0.1 0.4 0
v 0 0.4 0
v 0.1 0.4 0
v 0.2 0.4 0
v -0.2 0.6 0
v -0.1 0.6 0
v 0 0.6 0
v 0.1 0.6 0
v 0.2 0.6 0
v -0.2 0.6 -0.1
v -0.1 0.6 -0.1
v 0 0.6 -0.1
v 0.1 0.6 -0.1
v 0.2 0.6 -0.1
v -0.1 0.6 -0.2
v 0 0.6 -0.2
v 0.1 0.6 -0.2
v -0.1 0.6 -0.3
v 0.1 0.6 -0.3
v -0.1 0.7 -0.3
v 0.1 0.7 -0.3
v -0.1 0.7 -0.4
v 0.1 0.7 -0.4
v -0.1 0.7 -0.5
v 0 0.7 -0.5
v -0.1 0.7 -0.6
v 0 0.7 -0.6
v 0.1 0.7 -0.6
v -0.2 0.8 -0.1
v -0.1 0.8 -0.1
v 0 0.8 -0.1
v 0.2 0.8 -0.1
v -0.2 0.8 -0.2
v -0.1 0.8 -0.2
v 0 0.8 -0.2
v 0.1 0.8 -0.2
v 0.2 0.8 -0.2
v -0.2 0.9 -0.2
v 0 0.9 -0.2
v 0.1 0.9 -0.2
v 0.2 0.9 -0.2
v -0.1 0.9 -0.3
v 0 0.9 -0.3
v 0.1 0.9 -0.3
v 0.2 0.9 -0.3
v -0.2 0.9 -0.4
v -0.1 0.9 -0.4
v 0 0.9 -0.4
v 0.1 0.9 -0.4
v 0.2 0.9 -0.4
v 0 0.9 -0.5
v 0.1 0.9 -0.5
v 0.2 0.9 -0.5
v -0.2 0.9 -0.6
v -0.1 0.9 -0.6
v 0 0.9 -0.6
v 0.1 0.9 -0.6
v -0.2 0.9 -0.7
v -0.1 0.9 -0.7
v 0 0.9 -0.7
v 0.2 0.9 -0.7

# faces
f 3/2/1 2/2/1 1/2/1
f 4/2/1 2/2/1 3/2/1
f 9/2/1 6/2/1 5/2/1
f 10/2/1 6/2/1 9/2/1
f 13/2/1 8/2/1 7/2/1
f 14/2/1 8/2/1 13/2/1
f 16/5/1 12/5/1 11/5/1
f 17/5/1 12/5/1 16/5/1
f 19/3/1 16/3/1 15/3/1
f 20/5/1 18/5/1 17/5/1
f 20/3/1 16/3/1 19/3/1
f 20/5/1 17/5/1 16/5/1
f 21/5/1 18/5/1 20/5/1
f 22/5/1 18/5/1 21/5/1
f 23/1/1 20/1/1 19/1/1
f 24/3/1 21/3/1 20/3/1
f 24/1/1 20/1/1 23/1/1
f 25/4/1 22/4/1 21/4/1
f 25/3/1 21/3/1 24/3/1
f 26/5/1 18/5/1 22/5/1
f 26/4/1 22/4/1 25/4/1
f 27/5/1 18/5/1 26/5/1
f 30/4/1 26/4/1 25/4/1
f 31/3/1 28/3/1 27/3/1
f 31/4/1 26/4/1 30/4/1
f 31/3/1 27/3/1 26/3/1
f 32/1/1 29/1/1 28/1/1
f 32/3/1 28/3/1 31/3/1
f 33/3/1 31/3/1 30/3/1
f 34/1/1 32/1/1 31/1/1
f 34/3/1 31/3/1 33/3/1
f 35/1/1 29/1/1 32/1/1
f 35/1/1 32/1/1 34/1/1
f 39/1/1 35/1/1 34/1/1
f 39/1/1 36/1/1 35/1/1
f 40/3/1 37/3/1 36/3/1
f 40/1/1 36/1/1 39/1/1
f 41/1/1 39/1/1 34/1/1
f 42/1/1 39/1/1 41/1/1
f 43/3/1 40/3/1 39/3/1
f 43/1/1 39/1/1 42/1/1
f 44/1/1 38/1/1 37/1/1
f 44/3/1 40/3/1 43/3/1
f 44/3/1 37/3/1 40/3/1
f 45/1/1 38/1/1 44/1/1
f 46/3/1 43/3/1 42/3/1
f 47/4/1 44/4/1 43/4/1
f 47/3/1 43/3/1 46/3/1
f 48/5/1 45/5/1 44/5/1
f 48/4/1 44/4/1 47/4/1
f 49/5/1 45/5/1 48/5/1
f 54/5/1 51/5/1 50/5/1
f 55/5/1 51/5/1 54/5/1
f 56/5/1 53/5/1 52/5/1
f 57/5/1 53/5/1 56/5/1
f 60/3/1 59/3/1 58/3/1
f 61/3/1 59/3/1 60/3/1
f 64/5/1 61/5/1 60/5/1
f 65/3/1 62/3/1 61/3/1
f 65/5/1 61/5/1 64/5/1
f 66/1/1 63/1/1 62/1/1
f 66/3/1 62/3/1 65/3/1
f 67/1/1 63/1/1 66/1/1
f 68/1/1 63/1/1 67/1/1
f 69/1/2 70/1/2 71/1/2
f 69/1/2 71/1/2 75/1/2
f 71/1/2 72/1/2 75/1/2
f 75/1/2 72/1/2 76/1/2
f 73/3/2 74/3/2 77/3/2
f 76/1/2 72/1/2 77/1/2
f 72/3/2 73/3/2 77/3/2
f 77/3/2 74/3/2 78/3/2
f 79/5/2 80/5/2 83/5/2
f 83/5/2 80/5/2 84/5/2
f 81/5/2 82/5/2 85/5/2
f 85/5/2 82/5/2 86/5/2
f 87/2/2 88/2/2 91/2/2
f 91/2/2 88/2/2 92/2/2
f 89/2/2 90/2/2 95/2/2
f 95/2/2 90/2/2 96/2/2
f 93/5/2 94/5/2 98/5/2
f 98/5/2 94/5/2 99/5/2
f 97/5/2 98/5/2 101/5/2
f 98/4/2 99/4/2 102/4/2
f 101/5/2 98/5/2 102/5/2
f 99/3/2 100/3/2 103/3/2
f 102/4/2 99/4/2 103/4/2
f 103/3/2 100/3/2 104/3/2
f 101/3/2 102/3/2 105/3/2
f 102/1/2 103/1/2 106/1/2
f 105/3/2 102/3/2 106/3/2
f 103/1/2 104/1/2 106/1/2
f 106/1/2 104/1/2 107/1/2
f 107/1/2 104/1/2 108/1/2
f 107/1/2 108/1/2 110/1/2
f 108/1/2 109/1/2 110/1/2
f 110/1/2 109/1/2 111/1/2
f 111/1/2 109/1/2 112/1/2
f 111/3/2 112/3/2 115/3/2
f 115/3/2 112/3/2 116/3/2
f 113/3/2 114/3/2 117/3/2
f 112/1/2 113/1/2 117/1/2
f 117/3/2 114/3/2 118/3/2
f 115/5/2 116/5/2 119/5/2
f 119/5/2 116/5/2 120/5/2
f 116/3/2 112/3/2 121/3/2
f 120/5/2 116/5/2 121/5/2
f 112/1/2 117/1/2 122/1/2
f 121/3/2 112/3/2 122/3/2
f 117/1/2 118/1/2 122/1/2
f 122/1/2 118/1/2 123/1/2
f 120/3/2 121/3/2 124/3/2
f 121/5/2 122/5/2 125/5/2
f 124/3/2 121/3/2 125/3/2
f 122/3/2 123/3/2 126/3/2
f 125/5/2 122/5/2 126/5/2
f 123/1/2 118/1/2 127/1/2
f 126/3/2 123/3/2 127/3/2
f 127/1/2 118/1/2 128/1/2
f 129/2/2 130/2/2 131/2/2
f 131/2/2 130/2/2 132/2/2
f 135/2/3 134/2/3 133/2/3
f 136/2/3 134/2/3 135/2/3
f 139/2/3 138/2/3 137/2/3
f 140/2/3 138/2/3 139/2/3
f 145/3/3 142/3/3 141/3/3
f 146/3/3 142/3/3 145/3/3
f 146/5/3 145/5/3 144/5/3
f 147/1/3 143/1/3 142/1/3
f 147/3/3 142/3/3 146/3/3
f 148/1/3 143/1/3 147/1/3
f 149/5/3 146/5/3 144/5/3
f 149/5/3 147/5/3 146/5/3
f 150/5/3 147/5/3 149/5/3
f 153/5/3 147/5/3 150/5/3
f 154/3/3 148/3/3 147/3/3
f 154/5/3 147/5/3 153/5/3
f 155/3/3 148/3/3 154/3/3
f 156/2/3 152/2/3 151/2/3
f 157/2/3 152/2/3 156/2/3
f 160/5/3 159/5/3 158/5/3
f 161/5/3 159/5/3 160/5/3
f 164/5/3 163/5/3 162/5/3
f 165/5/3 163/5/3 164/5/3
f 169/4/3 167/4/3 166/4/3
f 170/3/3 168/3/3 167/3/3
f 170/4/3 167/4/3 169/4/3
f 171/3/3 168/3/3 170/3/3
f 172/5/3 170/5/3 169/5/3
f 172/5/3 171/5/3 170/5/3
f 173/5/3 171/5/3 172/5/3
f 174/3/3 173/3/3 172/3/3
f 175/3/3 173/3/3 174/3/3
f 176/1/3 175/1/3 174/1/3
f 177/1/3 175/1/3 176/1/3
f 180/1/3 179/1/3 178/1/3
f 181/1/3 179/1/3 180/1/3
f 182/3/3 181/3/3 180/3/3
f 183/3/3 181/3/3 182/3/3
f 184/5/3 183/5/3 182/5/3
f 185/5/3 183/5/3 184/5/3
f 186/3/3 185/3/3 184/3/3
f 187/5/3 183/5/3 185/5/3
f 187/3/3 185/3/3 186/3/3
f 188/5/3 183/5/3 187/5/3
f 191/3/3 190/3/3 189/3/3
f 192/3/3 190/3/3 191/3/3
f 193/3/3 190/3/3 192/3/3
f 194/1/3 193/1/3 192/1/3
f 195/1/3 193/1/3 194/1/3
f 196/3/3 195/3/3 194/3/3
f 197/3/3 195/3/3 196/3/3
f 200/5/3 199/5/3 198/5/3
f 201/5/3 199/5/3 200/5/3
f 204/3/3 203/3/3 202/3/3
f 205/3/3 203/3/3 204/3/3
f 206/3/3 205/3/3 204/3/3
f 207/3/3 205/3/3 206/3/3
f 208/5/4 209/5/4 210/5/4
f 210/5/4 209/5/4 211/5/4
f 212/5/4 213/5/4 214/5/4
f 214/5/4 213/5/4 215/5/4
f 216/2/4 217/2/4 218/2/4
f 218/2/4 217/2/4 219/2/4
f 220/5/4 221/5/4 223/5/4
f 223/5/4 221/5/4 224/5/4
f 222/5/4 223/5/4 227/5/4
f 223/5/4 224/5/4 227/5/4
f 227/5/4 224/5/4 228/5/4
f 225/3/4 226/3/4 229/3/4
f 229/3/4 226/3/4 230/3/4
f 222/5/4 227/5/4 231/5/4
f 231/5/4 227/5/4 232/5/4
f 227/3/4 228/3/4 233/3/4
f 232/5/4 227/5/4 233/5/4
f 233/3/4 228/3/4 234/3/4
f 229/5/4 230/5/4 235/5/4
f 235/5/4 230/5/4 236/5/4
f 236/5/4 230/5/4 237/5/4
f 232/3/4 233/3/4 240/3/4
f 233/1/4 234/1/4 241/1/4
f 240/3/4 233/3/4 241/3/4
f 241/1/4 234/1/4 242/1/4
f 238/2/4 239/2/4 243/2/4
f 243/2/4 239/2/4 244/2/4
f 245/2/4 246/2/4 247/2/4
f 247/2/4 246/2/4 248/2/4
f 249/1/4 250/1/4 251/1/4
f 251/1/4 250/1/4 252/1/4
f 252/1/4 250/1/4 253/1/4
f 251/3/4 252/3/4 254/3/4
f 252/5/4 253/5/4 254/5/4
f 254/5/4 253/5/4 255/5/4
f 251/3/4 254/3/4 256/3/4
f 254/3/4 255/3/4 256/3/4
f 256/3/4 255/3/4 257/3/4
f 256/1/4 257/1/4 258/1/4
f 258/1/4 257/1/4 259/1/4
f 260/1/4 261/1/4 263/1/4
f 261/5/4 262/5/4 264/5/4
f 263/1/4 261/1/4 264/1/4
f 264/5/4 262/5/4 265/5/4
f 263/3/4 264/3/4 266/3/4
f 264/3/4 265/3/4 266/3/4
f 266/3/4 265/3/4 267/3/4
f 267/3/4 265/3/4 268/3/4
f 268/3/4 265/3/4 269/3/4
f 266/5/4 267/5/4 270/5/4
f 267/3/4 268/3/4 271/3/4
f 270/5/4 267/5/4 271/5/4
f 268/1/4 269/1/4 272/1/4
f 271/3/4 268/3/4 272/3/4
f 270/3/4 271/3/4 273/3/4
f 271/1/4 272/1/4 274/1/4
f 273/3/4 271/3/4 274/3/4
f 272/1/4 269/1/4 275/1/4
f 274/1/4 272/1/4 275/1/4
f 279/2/5 277/2/5 276/2/5
f 280/2/5 277/2/5 279/2/5
f 281/2/5 277/2/5 280/2/5
f 282/2/5 277/2/5 281/2/5
f 284/2/5 279/2/5 278/2/5
f 284/2/5 280/2/5 279/2/5
f 285/5/5 281/5/5 280/5/5
f 285/2/5 280/2/5 284/2/5
f 286/2/5 283/2/5 282/2/5
f 286/5/5 281/5/5 285/5/5
f 286/2/5 282/2/5 281/2/5
f 287/2/5 283/2/5 286/2/5
f 288/5/5 285/5/5 284/5/5
f 288/2/5 284/2/5 278/2/5
f 288/5/5 287/5/5 286/5/5
f 288/5/5 286/5/5 285/5/5
f 289/5/5 287/5/5 288/5/5
f 290/5/5 287/5/5 289/5/5
f 291/2/5 283/2/5 287/2/5
f 291/5/5 287/5/5 290/5/5
f 292/2/5 288/2/5 278/2/5
f 292/2/5 289/2/5 288/2/5
f 293/2/5 289/2/5 292/2/5
f 294/5/5 290/5/5 289/5/5
f 294/2/5 289/2/5 293/2/5
f 295/2/5 291/2/5 290/2/5
f 295/5/5 290/5/5 294/5/5
f 296/2/5 283/2/5 291/2/5
f 296/2/5 291/2/5 295/2/5
f 297/2/5 283/2/5 296/2/5
f 298/2/5 295/2/5 294/2/5
f 298/2/5 296/2/5 295/2/5
f 298/2/5 294/2/5 293/2/5
f 299/2/5 296/2/5 298/2/5
f 304/3/5 301/3/5 300/3/5
f 305/3/5 301/3/5 304/3/5
f 306/5/5 303/5/5 302/5/5
f 307/5/5 303/5/5 306/5/5
f 312/5/5 309/5/5 308/5/5
f 313/5/5 309/5/5 312/5/5
f 314/3/5 311/3/5 310/3/5
f 315/3/5 311/3/5 314/3/5
f 321/3/5 317/3/5 316/3/5
f 322/5/5 318/5/5 317/5/5
f 322/3/5 317/3/5 321/3/5
f 323/3/5 319/3/5 318/3/5
f 323/5/5 318/5/5 322/5/5
f 324/1/5 322/1/5 321/1/5
f 325/3/5 323/3/5 322/3/5
f 325/1/5 322/1/5 324/1/5
f 326/1/5 320/1/5 319/1/5
f 326/3/5 323/3/5 325/3/5
f 326/3/5 319/3/5 323/3/5
f 327/1/5 320/1/5 326/1/5
f 333/1/5 329/1/5 328/1/5
f 334/3/5 330/3/5 329/3/5
f 334/1/5 329/1/5 333/1/5
f 334/3/5 331/3/5 330/3/5
f 335/3/5 331/3/5 334/3/5
f 336/3/5 334/3/5 333/3/5
f 337/5/5 335/5/5 334/5/5
f 337/3/5 334/3/5 336/3/5
f 338/3/5 331/3/5 335/3/5
f 338/5/5 335/5/5 337/5/5
f 339/1/5 332/1/5 331/1/5
f 339/3/5 331/3/5 338/3/5
f 340/1/5 332/1/5 339/1/5
f 341/1/5 337/1/5 336/1/5
f 342/3/5 338/3/5 337/3/5
f 342/1/5 337/1/5 341/1/5
f 343/5/5 339/5/5 338/5/5
f 343/3/5 338/3/5 342/3/5
f 344/3/5 340/3/5 339/3/5
f 344/5/5 339/5/5 343/5/5
f 345/3/5 340/3/5 344/3/5
f 349/3/5 347/3/5 346/3/5
f 350/1/5 348/1/5 347/1/5
f 350/3/5 347/3/5 349/3/5
f 351/1/5 348/1/5 350/1/5
f 352/5/5 350/5/5 349/5/5
f 353/3/5 351/3/5 350/3/5
f 353/5/5 350/5/5 352/5/5
f 354/3/5 351/3/5 353/3/5
f 355/5/5 353/5/5 352/5/5
f 355/5/5 354/5/5 353/5/5
f 356/5/5 354/5/5 355/5/5
f 357/5/5 355/5/5 352/5/5
f 358/3/5 356/3/5 355/3/5
f 358/5/5 355/5/5 357/5/5
f 359/3/5 356/3/5 358/3/5
f 360/2/6 361/2/6 363/2/6
f 363/2/6 361/2/6 364/2/6
f 364/2/6 361/2/6 365/2/6
f 365/2/6 361/2/6 366/2/6
f 362/2/6 363/2/6 368/2/6
f 363/2/6 364/2/6 368/2/6
f 368/2/6 364/2/6 369/2/6
f 366/2/6 367/2/6 370/2/6
f 365/2/6 366/2/6 370/2/6
f 370/2/6 367/2/6 371/2/6
f 362/2/6 368/2/6 372/2/6
f 371/2/6 367/2/6 375/2/6
f 372/2/6 373/2/6 376/2/6
f 362/2/6 372/2/6 376/2/6
f 376/2/6 373/2/6 377/2/6
f 377/2/6 373/2/6 378/2/6
f 374/2/6 375/2/6 379/2/6
f 375/2/6 367/2/6 380/2/6
f 379/2/6 375/2/6 380/2/6
f 380/2/6 367/2/6 381/2/6
f 377/2/6 378/2/6 382/2/6
f 378/2/6 379/2/6 382/2/6
f 379/2/6 380/2/6 382/2/6
f 382/2/6 380/2/6 383/2/6
f 384/1/6 385/1/6 387/1/6
f 385/3/6 386/3/6 388/3/6
f 387/1/6 385/1/6 388/1/6
f 388/3/6 386/3/6 389/3/6
f 389/3/6 386/3/6 390/3/6
f 387/3/6 388/3/6 391/3/6
f 388/3/6 389/3/6 391/3/6
f 391/3/6 389/3/6 392/3/6
f 392/3/6 389/3/6 393/3/6
f 389/1/6 390/1/6 394/1/6
f 393/3/6 389/3/6 394/3/6
f 394/1/6 390/1/6 395/1/6
f 396/3/6 397/3/6 401/3/6
f 397/5/6 398/5/6 402/5/6
f 401/3/6 397/3/6 402/3/6
f 398/3/6 399/3/6 403/3/6
f 402/5/6 398/5/6 403/5/6
f 399/1/6 400/1/6 404/1/6
f 403/3/6 399/3/6 404/3/6
f 404/1/6 400/1/6 405/1/6
f 406/5/6 407/5/6 409/5/6
f 407/5/6 408/5/6 409/5/6
f 409/5/6 408/5/6 410/5/6
f 411/5/6 412/5/6 413/5/6
f 413/5/6 412/5/6 414/5/6
f 413/3/6 414/3/6 415/3/6
f 415/3/6 414/3/6 416/3/6
f 415/5/6 416/5/6 417/5/6
f 416/3/6 414/3/6 418/3/6
f 417/5/6 416/5/6 418/5/6
f 418/3/6 414/3/6 419/3/6
f 420/1/6 421/1/6 424/1/6
f 421/3/6 422/3/6 425/3/6
f 424/1/6 421/1/6 425/1/6
f 422/5/6 423/5/6 426/5/6
f 425/3/6 422/3/6 426/3/6
f 426/5/6 423/5/6 427/5/6
f 427/5/6 423/5/6 428/5/6
f 429/3/6 430/3/6 433/3/6
f 430/1/6 431/1/6 434/1/6
f 433/3/6 430/3/6 434/3/6
f 431/3/6 432/3/6 435/3/6
f 434/1/6 431/1/6 435/1/6
f 435/3/6 432/3/6 436/3/6
f 429/3/6 433/3/6 437/3/6
f 433/5/6 434/5/6 438/5/6
f 437/3/6 433/3/6 438/3/6
f 434/3/6 435/3/6 439/3/6
f 438/5/6 434/5/6 439/5/6
f 435/5/6 436/5/6 440/5/6
f 439/3/6 435/3/6 440/3/6
f 440/5/6 436/5/6 441/5/6
f 438/5/6 439/5/6 442/5/6
f 439/5/6 440/5/6 442/5/6
f 440/3/6 441/3/6 443/3/6
f 442/5/6 440/5/6 443/5/6
f 443/3/6 441/3/6 444/3/6
f 437/4/6 438/4/6 445/4/6
f 438/5/6 442/5/6 446/5/6
f 445/4/6 438/4/6 446/4/6
f 442/3/6 443/3/6 447/3/6
f 446/5/6 442/5/6 447/5/6
f 443/1/6 444/1/6 448/1/6
f 447/3/6 443/3/6 448/3/6
f 445/5/6 446/5/6 449/5/6
f 446/3/6 447/3/6 450/3/6
f 449/5/6 446/5/6 450/5/6
f 447/1/6 448/1/6 451/1/6
f 450/3/6 447/3/6 451/3/6
f 448/1/6 444/1/6 452/1/6
f 451/1/6 448/1/6 452/1/6
