# MagicaVoxel @ Ephtracy

# group
o 

# material
mtllib air_def_var1_red_gun.mtl
usemtl palette

# normals
vn -1 0 0
vn 1 0 0
vn 0 0 1
vn 0 0 -1
vn 0 -1 0
vn 0 1 0

# texcoords
vt 0.544922 0.5
vt 0.564453 0.5
vt 0.595703 0.5
vt 0.720703 0.5

# verts
v -0.4 -0.2 1.3
v -0.4 -0.2 1.2
v -0.4 -0.2 1
v -0.4 -0.1 1
v -0.4 -0.1 0.9
v -0.4 -0.1 0.8
v -0.4 -0.1 0.7
v -0.4 -0.1 0.5
v -0.4 -0.1 0.4
v -0.4 -0.1 0.2
v -0.4 -0.1 0.1
v -0.4 -0.1 -0.0999999
v -0.4 0 1.3
v -0.4 0 1.2
v -0.4 0 1
v -0.4 0 0.9
v -0.4 0 0.8
v -0.4 0 0.7
v -0.4 0 0.5
v -0.4 0 0.4
v -0.4 0 0.2
v -0.4 0 0.1
v -0.4 0 -0.0999999
v -0.1 -0.3 1.3
v -0.1 -0.3 1.2
v -0.1 -0.3 1
v -0.1 -0.2 1
v -0.1 -0.2 0.9
v -0.1 -0.2 0.2
v -0.1 -0.2 0.1
v -0.1 -0.2 -0.0999999
v -0.1 -0.1 1.3
v -0.1 -0.1 1.2
v -0.1 -0.1 1
v -0.1 -0.1 0.9
v -0.1 -0.1 0.2
v -0.1 -0.1 0.1
v -0.1 -0.1 -0.0999999
v -0.1 0 1.3
v -0.1 0 1.2
v -0.1 0 1
v -0.1 0.1 1
v -0.1 0.1 0.9
v -0.1 0.1 0.6
v -0.1 0.1 0.4
v -0.1 0.1 0.2
v -0.1 0.1 0.1
v -0.1 0.1 -0.0999999
v -0.1 0.2 1.3
v -0.1 0.2 1.2
v -0.1 0.2 1
v -0.1 0.2 0.9
v -0.1 0.2 0.6
v -0.1 0.2 0.4
v -0.1 0.2 0.2
v -0.1 0.2 0.1
v -0.1 0.2 -0.0999999
v 0.2 -0.2 1.3
v 0.2 -0.2 1.2
v 0.2 -0.2 1
v 0.2 -0.1 1.2
v 0.2 -0.1 1
v 0.2 -0.1 0.9
v 0.2 -0.1 0.5
v 0.2 -0.1 0.4
v 0.2 -0.1 -0.0999999
v 0.2 0 1.3
v 0.2 0 1.2
v 0.2 0 1
v 0.2 0 0.9
v 0.2 0 0.5
v 0.2 0 0.4
v 0.2 0 -0.0999999
v -0.2 -0.2 1.3
v -0.2 -0.2 1.2
v -0.2 -0.2 1
v -0.2 -0.1 1.2
v -0.2 -0.1 1
v -0.2 -0.1 0.9
v -0.2 -0.1 0.8
v -0.2 -0.1 0.7
v -0.2 -0.1 0.6
v -0.2 -0.1 0.5
v -0.2 -0.1 0.2
v -0.2 -0.1 0.1
v -0.2 -0.1 -0.0999999
v -0.2 0 1.3
v -0.2 0 1.2
v -0.2 0 1
v -0.2 0 0.9
v -0.2 0 0.8
v -0.2 0 0.7
v -0.2 0 0.6
v -0.2 0 0.5
v -0.2 0 0.2
v -0.2 0 0.1
v -0.2 0 -0.0999999
v 0.1 -0.3 1.3
v 0.1 -0.3 1.2
v 0.1 -0.3 1
v 0.1 -0.2 1
v 0.1 -0.2 0.9
v 0.1 -0.2 0.2
v 0.1 -0.2 0.1
v 0.1 -0.2 -0.0999999
v 0.1 -0.1 1.3
v 0.1 -0.1 1.2
v 0.1 -0.1 1
v 0.1 -0.1 0.9
v 0.1 -0.1 0.2
v 0.1 -0.1 0.1
v 0.1 -0.1 -0.0999999
v 0.1 0 1.3
v 0.1 0 1.2
v 0.1 0 1
v 0.1 0.1 1
v 0.1 0.1 0.9
v 0.1 0.1 0.7
v 0.1 0.1 0.6
v 0.1 0.1 0.4
v 0.1 0.1 0.3
v 0.1 0.1 0.2
v 0.1 0.1 0.1
v 0.1 0.1 -0.0999999
v 0.1 0.2 1.3
v 0.1 0.2 1.2
v 0.1 0.2 1
v 0.1 0.2 0.9
v 0.1 0.2 0.7
v 0.1 0.2 0.6
v 0.1 0.2 0.4
v 0.1 0.2 0.3
v 0.1 0.2 0.2
v 0.1 0.2 0.1
v 0.1 0.2 -0.0999999
v 0.4 -0.2 1.3
v 0.4 -0.2 1.2
v 0.4 -0.2 1
v 0.4 -0.1 1
v 0.4 -0.1 0.9
v 0.4 -0.1 0.5
v 0.4 -0.1 0.4
v 0.4 -0.1 -0.0999999
v 0.4 0 1.3
v 0.4 0 1.2
v 0.4 0 1
v 0.4 0 0.9
v 0.4 0 0.5
v 0.4 0 0.4
v 0.4 0 -0.0999999
v -0.4 -0.2 1.3
v -0.4 0 1.3
v -0.2 -0.2 1.3
v -0.2 0 1.3
v -0.1 -0.3 1.3
v -0.1 -0.1 1.3
v -0.1 0 1.3
v -0.1 0.2 1.3
v 0.1 -0.3 1.3
v 0.1 -0.1 1.3
v 0.1 0 1.3
v 0.1 0.2 1.3
v 0.2 -0.2 1.3
v 0.2 0 1.3
v 0.4 -0.2 1.3
v 0.4 0 1.3
v -0.4 -0.2 1
v -0.4 -0.1 1
v -0.3 -0.2 1
v -0.3 -0.1 1
v -0.2 -0.2 1
v -0.2 -0.1 1
v -0.1 -0.3 1
v -0.1 -0.2 1
v -0.1 0 1
v -0.1 0.1 1
v 0.1 -0.3 1
v 0.1 -0.2 1
v 0.1 0 1
v 0.1 0.1 1
v 0.2 -0.2 1
v 0.2 -0.1 1
v 0.3 -0.2 1
v 0.3 -0.1 1
v 0.4 -0.2 1
v 0.4 -0.1 1
v -0.4 -0.1 -0.0999999
v -0.4 0 -0.0999999
v -0.2 -0.1 -0.0999999
v -0.2 0 -0.0999999
v -0.1 -0.2 -0.0999999
v -0.1 -0.1 -0.0999999
v -0.1 0.1 -0.0999999
v -0.1 0.2 -0.0999999
v 0.1 -0.2 -0.0999999
v 0.1 -0.1 -0.0999999
v 0.1 0.1 -0.0999999
v 0.1 0.2 -0.0999999
v 0.2 -0.1 -0.0999999
v 0.2 0 -0.0999999
v 0.4 -0.1 -0.0999999
v 0.4 0 -0.0999999
v -0.1 -0.3 1.3
v 0.1 -0.3 1.3
v -0.1 -0.3 1.2
v 0.1 -0.3 1.2
v -0.1 -0.3 1
v 0.1 -0.3 1
v -0.4 -0.2 1.3
v -0.2 -0.2 1.3
v 0.2 -0.2 1.3
v 0.4 -0.2 1.3
v -0.4 -0.2 1.2
v -0.3 -0.2 1.2
v -0.2 -0.2 1.2
v 0.2 -0.2 1.2
v 0.3 -0.2 1.2
v 0.4 -0.2 1.2
v -0.4 -0.2 1
v -0.3 -0.2 1
v -0.2 -0.2 1
v -0.1 -0.2 1
v 0.1 -0.2 1
v 0.2 -0.2 1
v 0.3 -0.2 1
v 0.4 -0.2 1
v -0.1 -0.2 0.9
v 0.1 -0.2 0.9
v -0.1 -0.2 0.2
v 0.1 -0.2 0.2
v -0.1 -0.2 0.1
v 0.1 -0.2 0.1
v -0.1 -0.2 -0.0999999
v 0.1 -0.2 -0.0999999
v -0.4 -0.1 1
v -0.3 -0.1 1
v -0.2 -0.1 1
v 0.2 -0.1 1
v 0.3 -0.1 1
v 0.4 -0.1 1
v -0.4 -0.1 0.9
v -0.2 -0.1 0.9
v 0.2 -0.1 0.9
v 0.4 -0.1 0.9
v -0.4 -0.1 0.8
v -0.2 -0.1 0.8
v -0.4 -0.1 0.7
v -0.2 -0.1 0.7
v -0.3 -0.1 0.6
v -0.2 -0.1 0.6
v -0.4 -0.1 0.5
v -0.3 -0.1 0.5
v -0.2 -0.1 0.5
v 0.2 -0.1 0.5
v 0.4 -0.1 0.5
v -0.4 -0.1 0.4
v -0.3 -0.1 0.4
v 0.2 -0.1 0.4
v 0.4 -0.1 0.4
v -0.4 -0.1 0.2
v -0.2 -0.1 0.2
v -0.4 -0.1 0.1
v -0.2 -0.1 0.1
v -0.4 -0.1 -0.0999999
v -0.2 -0.1 -0.0999999
v 0.2 -0.1 -0.0999999
v 0.4 -0.1 -0.0999999
v -0.1 0 1.3
v 0.1 0 1.3
v -0.1 0 1.2
v 0.1 0 1.2
v -0.1 0 1
v 0.1 0 1
v -0.1 0.1 1
v 0.1 0.1 1
v -0.1 0.1 0.9
v 0.1 0.1 0.9
v 0 0.1 0.7
v 0.1 0.1 0.7
v -0.1 0.1 0.6
v 0 0.1 0.6
v 0.1 0.1 0.6
v -0.1 0.1 0.4
v 0 0.1 0.4
v 0.1 0.1 0.4
v 0 0.1 0.3
v 0.1 0.1 0.3
v -0.1 0.1 0.2
v 0.1 0.1 0.2
v -0.1 0.1 0.1
v 0.1 0.1 0.1
v -0.1 0.1 -0.0999999
v 0.1 0.1 -0.0999999
v -0.1 -0.1 1.3
v 0.1 -0.1 1.3
v -0.1 -0.1 1.2
v 0.1 -0.1 1.2
v -0.1 -0.1 1
v 0.1 -0.1 1
v -0.1 -0.1 0.9
v 0.1 -0.1 0.9
v -0.1 -0.1 0.2
v 0.1 -0.1 0.2
v -0.1 -0.1 0.1
v 0.1 -0.1 0.1
v -0.1 -0.1 -0.0999999
v 0.1 -0.1 -0.0999999
v -0.4 0 1.3
v -0.2 0 1.3
v 0.2 0 1.3
v 0.4 0 1.3
v -0.4 0 1.2
v -0.2 0 1.2
v 0.2 0 1.2
v 0.4 0 1.2
v -0.4 0 1
v -0.2 0 1
v 0.2 0 1
v 0.4 0 1
v -0.4 0 0.9
v -0.2 0 0.9
v 0.2 0 0.9
v 0.4 0 0.9
v -0.4 0 0.8
v -0.2 0 0.8
v -0.4 0 0.7
v -0.2 0 0.7
v -0.3 0 0.6
v -0.2 0 0.6
v -0.4 0 0.5
v -0.3 0 0.5
v -0.2 0 0.5
v 0.2 0 0.5
v 0.4 0 0.5
v -0.4 0 0.4
v -0.3 0 0.4
v 0.2 0 0.4
v 0.4 0 0.4
v -0.4 0 0.2
v -0.2 0 0.2
v -0.4 0 0.1
v -0.2 0 0.1
v -0.4 0 -0.0999999
v -0.2 0 -0.0999999
v 0.2 0 -0.0999999
v 0.4 0 -0.0999999
v -0.1 0.2 1.3
v 0.1 0.2 1.3
v -0.1 0.2 1.2
v 0.1 0.2 1.2
v -0.1 0.2 1
v 0.1 0.2 1
v -0.1 0.2 0.9
v 0.1 0.2 0.9
v 0 0.2 0.7
v 0.1 0.2 0.7
v -0.1 0.2 0.6
v 0 0.2 0.6
v 0.1 0.2 0.6
v -0.1 0.2 0.4
v 0 0.2 0.4
v 0.1 0.2 0.4
v 0 0.2 0.3
v 0.1 0.2 0.3
v -0.1 0.2 0.2
v 0.1 0.2 0.2
v -0.1 0.2 0.1
v 0.1 0.2 0.1
v -0.1 0.2 -0.0999999
v 0.1 0.2 -0.0999999

# faces
f 4/2/1 3/2/1 2/2/1
f 13/4/1 2/4/1 1/4/1
f 14/2/1 4/2/1 2/2/1
f 14/4/1 2/4/1 13/4/1
f 15/1/1 5/1/1 4/1/1
f 15/2/1 4/2/1 14/2/1
f 16/3/1 6/3/1 5/3/1
f 16/1/1 5/1/1 15/1/1
f 17/1/1 7/1/1 6/1/1
f 17/3/1 6/3/1 16/3/1
f 18/2/1 8/2/1 7/2/1
f 18/1/1 7/1/1 17/1/1
f 19/1/1 9/1/1 8/1/1
f 19/2/1 8/2/1 18/2/1
f 20/3/1 10/3/1 9/3/1
f 20/1/1 9/1/1 19/1/1
f 21/1/1 11/1/1 10/1/1
f 21/3/1 10/3/1 20/3/1
f 22/2/1 12/2/1 11/2/1
f 22/1/1 11/1/1 21/1/1
f 23/2/1 12/2/1 22/2/1
f 27/2/1 26/2/1 25/2/1
f 32/4/1 25/4/1 24/4/1
f 33/2/1 27/2/1 25/2/1
f 33/4/1 25/4/1 32/4/1
f 34/1/1 28/1/1 27/1/1
f 34/2/1 27/2/1 33/2/1
f 35/3/1 29/3/1 28/3/1
f 35/1/1 28/1/1 34/1/1
f 36/1/1 30/1/1 29/1/1
f 36/3/1 29/3/1 35/3/1
f 37/2/1 31/2/1 30/2/1
f 37/1/1 30/1/1 36/1/1
f 38/2/1 31/2/1 37/2/1
f 42/2/1 41/2/1 40/2/1
f 49/4/1 40/4/1 39/4/1
f 50/2/1 42/2/1 40/2/1
f 50/4/1 40/4/1 49/4/1
f 51/1/1 43/1/1 42/1/1
f 51/2/1 42/2/1 50/2/1
f 52/3/1 44/3/1 43/3/1
f 52/1/1 43/1/1 51/1/1
f 53/1/1 45/1/1 44/1/1
f 53/3/1 44/3/1 52/3/1
f 54/3/1 46/3/1 45/3/1
f 54/1/1 45/1/1 53/1/1
f 55/1/1 47/1/1 46/1/1
f 55/3/1 46/3/1 54/3/1
f 56/2/1 48/2/1 47/2/1
f 56/1/1 47/1/1 55/1/1
f 57/2/1 48/2/1 56/2/1
f 61/4/1 59/4/1 58/4/1
f 61/1/1 60/1/1 59/1/1
f 62/1/1 60/1/1 61/1/1
f 67/4/1 61/4/1 58/4/1
f 68/2/1 62/2/1 61/2/1
f 68/4/1 61/4/1 67/4/1
f 69/1/1 63/1/1 62/1/1
f 69/2/1 62/2/1 68/2/1
f 70/3/1 64/3/1 63/3/1
f 70/1/1 63/1/1 69/1/1
f 71/1/1 65/1/1 64/1/1
f 71/3/1 64/3/1 70/3/1
f 72/2/1 66/2/1 65/2/1
f 72/1/1 65/1/1 71/1/1
f 73/2/1 66/2/1 72/2/1
f 74/4/2 75/4/2 77/4/2
f 75/1/2 76/1/2 77/1/2
f 77/1/2 76/1/2 78/1/2
f 74/4/2 77/4/2 87/4/2
f 77/2/2 78/2/2 88/2/2
f 87/4/2 77/4/2 88/4/2
f 78/1/2 79/1/2 89/1/2
f 88/2/2 78/2/2 89/2/2
f 79/3/2 80/3/2 90/3/2
f 89/1/2 79/1/2 90/1/2
f 80/1/2 81/1/2 91/1/2
f 90/3/2 80/3/2 91/3/2
f 81/2/2 82/2/2 92/2/2
f 91/1/2 81/1/2 92/1/2
f 82/1/2 83/1/2 93/1/2
f 92/2/2 82/2/2 93/2/2
f 83/3/2 84/3/2 94/3/2
f 93/1/2 83/1/2 94/1/2
f 84/1/2 85/1/2 95/1/2
f 94/3/2 84/3/2 95/3/2
f 85/2/2 86/2/2 96/2/2
f 95/1/2 85/1/2 96/1/2
f 96/2/2 86/2/2 97/2/2
f 99/2/2 100/2/2 101/2/2
f 98/4/2 99/4/2 106/4/2
f 99/2/2 101/2/2 107/2/2
f 106/4/2 99/4/2 107/4/2
f 101/1/2 102/1/2 108/1/2
f 107/2/2 101/2/2 108/2/2
f 102/3/2 103/3/2 109/3/2
f 108/1/2 102/1/2 109/1/2
f 103/1/2 104/1/2 110/1/2
f 109/3/2 103/3/2 110/3/2
f 104/2/2 105/2/2 111/2/2
f 110/1/2 104/1/2 111/1/2
f 111/2/2 105/2/2 112/2/2
f 114/2/2 115/2/2 116/2/2
f 113/4/2 114/4/2 125/4/2
f 114/2/2 116/2/2 126/2/2
f 125/4/2 114/4/2 126/4/2
f 116/1/2 117/1/2 127/1/2
f 126/2/2 116/2/2 127/2/2
f 117/3/2 118/3/2 128/3/2
f 127/1/2 117/1/2 128/1/2
f 118/1/2 119/1/2 129/1/2
f 128/3/2 118/3/2 129/3/2
f 119/2/2 120/2/2 130/2/2
f 129/1/2 119/1/2 130/1/2
f 120/1/2 121/1/2 131/1/2
f 130/2/2 120/2/2 131/2/2
f 121/3/2 122/3/2 132/3/2
f 131/1/2 121/1/2 132/1/2
f 122/1/2 123/1/2 133/1/2
f 132/3/2 122/3/2 133/3/2
f 123/2/2 124/2/2 134/2/2
f 133/1/2 123/1/2 134/1/2
f 134/2/2 124/2/2 135/2/2
f 137/2/2 138/2/2 139/2/2
f 136/4/2 137/4/2 144/4/2
f 137/2/2 139/2/2 145/2/2
f 144/4/2 137/4/2 145/4/2
f 139/1/2 140/1/2 146/1/2
f 145/2/2 139/2/2 146/2/2
f 140/3/2 141/3/2 147/3/2
f 146/1/2 140/1/2 147/1/2
f 141/1/2 142/1/2 148/1/2
f 147/3/2 141/3/2 148/3/2
f 142/2/2 143/2/2 149/2/2
f 148/1/2 142/1/2 149/1/2
f 149/2/2 143/2/2 150/2/2
f 153/4/3 152/4/3 151/4/3
f 154/4/3 152/4/3 153/4/3
f 159/4/3 156/4/3 155/4/3
f 160/4/3 156/4/3 159/4/3
f 161/4/3 158/4/3 157/4/3
f 162/4/3 158/4/3 161/4/3
f 165/4/3 164/4/3 163/4/3
f 166/4/3 164/4/3 165/4/3
f 167/2/4 168/2/4 169/2/4
f 169/2/4 168/2/4 170/2/4
f 169/1/4 170/1/4 171/1/4
f 171/1/4 170/1/4 172/1/4
f 173/2/4 174/2/4 177/2/4
f 177/2/4 174/2/4 178/2/4
f 175/2/4 176/2/4 179/2/4
f 179/2/4 176/2/4 180/2/4
f 181/1/4 182/1/4 183/1/4
f 183/1/4 182/1/4 184/1/4
f 183/2/4 184/2/4 185/2/4
f 185/2/4 184/2/4 186/2/4
f 187/2/4 188/2/4 189/2/4
f 189/2/4 188/2/4 190/2/4
f 191/2/4 192/2/4 195/2/4
f 195/2/4 192/2/4 196/2/4
f 193/2/4 194/2/4 197/2/4
f 197/2/4 194/2/4 198/2/4
f 199/2/4 200/2/4 201/2/4
f 201/2/4 200/2/4 202/2/4
f 205/4/5 204/4/5 203/4/5
f 206/4/5 204/4/5 205/4/5
f 207/2/5 206/2/5 205/2/5
f 208/2/5 206/2/5 207/2/5
f 213/4/5 210/4/5 209/4/5
f 214/4/5 210/4/5 213/4/5
f 215/4/5 210/4/5 214/4/5
f 216/4/5 212/4/5 211/4/5
f 217/4/5 212/4/5 216/4/5
f 218/4/5 212/4/5 217/4/5
f 219/2/5 214/2/5 213/2/5
f 220/1/5 215/1/5 214/1/5
f 220/2/5 214/2/5 219/2/5
f 221/1/5 215/1/5 220/1/5
f 224/1/5 217/1/5 216/1/5
f 225/2/5 218/2/5 217/2/5
f 225/1/5 217/1/5 224/1/5
f 226/2/5 218/2/5 225/2/5
f 227/1/5 223/1/5 222/1/5
f 228/1/5 223/1/5 227/1/5
f 229/3/5 228/3/5 227/3/5
f 230/3/5 228/3/5 229/3/5
f 231/1/5 230/1/5 229/1/5
f 232/1/5 230/1/5 231/1/5
f 233/2/5 232/2/5 231/2/5
f 234/2/5 232/2/5 233/2/5
f 241/1/5 236/1/5 235/1/5
f 241/1/5 237/1/5 236/1/5
f 242/1/5 237/1/5 241/1/5
f 243/1/5 240/1/5 239/1/5
f 243/1/5 239/1/5 238/1/5
f 244/1/5 240/1/5 243/1/5
f 245/3/5 242/3/5 241/3/5
f 246/3/5 242/3/5 245/3/5
f 247/1/5 246/1/5 245/1/5
f 248/1/5 246/1/5 247/1/5
f 249/2/5 248/2/5 247/2/5
f 250/2/5 248/2/5 249/2/5
f 251/2/5 249/2/5 247/2/5
f 252/1/5 250/1/5 249/1/5
f 252/2/5 249/2/5 251/2/5
f 253/1/5 250/1/5 252/1/5
f 254/3/5 244/3/5 243/3/5
f 255/3/5 244/3/5 254/3/5
f 256/1/5 252/1/5 251/1/5
f 257/3/5 253/3/5 252/3/5
f 257/1/5 252/1/5 256/1/5
f 258/1/5 255/1/5 254/1/5
f 259/1/5 255/1/5 258/1/5
f 260/3/5 257/3/5 256/3/5
f 261/3/5 253/3/5 257/3/5
f 261/3/5 257/3/5 260/3/5
f 262/1/5 261/1/5 260/1/5
f 263/1/5 261/1/5 262/1/5
f 264/2/5 263/2/5 262/2/5
f 265/2/5 263/2/5 264/2/5
f 266/2/5 259/2/5 258/2/5
f 267/2/5 259/2/5 266/2/5
f 270/4/5 269/4/5 268/4/5
f 271/4/5 269/4/5 270/4/5
f 272/2/5 271/2/5 270/2/5
f 273/2/5 271/2/5 272/2/5
f 276/1/5 275/1/5 274/1/5
f 277/1/5 275/1/5 276/1/5
f 278/3/5 277/3/5 276/3/5
f 279/3/5 277/3/5 278/3/5
f 280/3/5 278/3/5 276/3/5
f 281/1/5 279/1/5 278/1/5
f 281/3/5 278/3/5 280/3/5
f 282/1/5 279/1/5 281/1/5
f 283/1/5 281/1/5 280/1/5
f 284/2/5 282/2/5 281/2/5
f 284/1/5 281/1/5 283/1/5
f 285/2/5 282/2/5 284/2/5
f 286/3/5 284/3/5 283/3/5
f 286/1/5 285/1/5 284/1/5
f 287/1/5 285/1/5 286/1/5
f 288/3/5 286/3/5 283/3/5
f 288/3/5 287/3/5 286/3/5
f 289/3/5 287/3/5 288/3/5
f 290/1/5 289/1/5 288/1/5
f 291/1/5 289/1/5 290/1/5
f 292/2/5 291/2/5 290/2/5
f 293/2/5 291/2/5 292/2/5
f 294/4/6 295/4/6 296/4/6
f 296/4/6 295/4/6 297/4/6
f 296/2/6 297/2/6 298/2/6
f 298/2/6 297/2/6 299/2/6
f 298/1/6 299/1/6 300/1/6
f 300/1/6 299/1/6 301/1/6
f 300/3/6 301/3/6 302/3/6
f 302/3/6 301/3/6 303/3/6
f 302/1/6 303/1/6 304/1/6
f 304/1/6 303/1/6 305/1/6
f 304/2/6 305/2/6 306/2/6
f 306/2/6 305/2/6 307/2/6
f 308/4/6 309/4/6 312/4/6
f 312/4/6 309/4/6 313/4/6
f 310/4/6 311/4/6 314/4/6
f 314/4/6 311/4/6 315/4/6
f 312/2/6 313/2/6 316/2/6
f 316/2/6 313/2/6 317/2/6
f 314/2/6 315/2/6 318/2/6
f 318/2/6 315/2/6 319/2/6
f 316/1/6 317/1/6 320/1/6
f 320/1/6 317/1/6 321/1/6
f 318/1/6 319/1/6 322/1/6
f 322/1/6 319/1/6 323/1/6
f 320/3/6 321/3/6 324/3/6
f 324/3/6 321/3/6 325/3/6
f 324/1/6 325/1/6 326/1/6
f 326/1/6 325/1/6 327/1/6
f 326/2/6 327/2/6 328/2/6
f 328/2/6 327/2/6 329/2/6
f 326/2/6 328/2/6 330/2/6
f 328/1/6 329/1/6 331/1/6
f 330/2/6 328/2/6 331/2/6
f 331/1/6 329/1/6 332/1/6
f 322/3/6 323/3/6 333/3/6
f 333/3/6 323/3/6 334/3/6
f 330/1/6 331/1/6 335/1/6
f 331/3/6 332/3/6 336/3/6
f 335/1/6 331/1/6 336/1/6
f 333/1/6 334/1/6 337/1/6
f 337/1/6 334/1/6 338/1/6
f 335/3/6 336/3/6 339/3/6
f 336/3/6 332/3/6 340/3/6
f 339/3/6 336/3/6 340/3/6
f 339/1/6 340/1/6 341/1/6
f 341/1/6 340/1/6 342/1/6
f 341/2/6 342/2/6 343/2/6
f 343/2/6 342/2/6 344/2/6
f 337/2/6 338/2/6 345/2/6
f 345/2/6 338/2/6 346/2/6
f 347/4/6 348/4/6 349/4/6
f 349/4/6 348/4/6 350/4/6
f 349/2/6 350/2/6 351/2/6
f 351/2/6 350/2/6 352/2/6
f 351/1/6 352/1/6 353/1/6
f 353/1/6 352/1/6 354/1/6
f 353/3/6 354/3/6 355/3/6
f 355/3/6 354/3/6 356/3/6
f 353/3/6 355/3/6 357/3/6
f 355/1/6 356/1/6 358/1/6
f 357/3/6 355/3/6 358/3/6
f 358/1/6 356/1/6 359/1/6
f 357/1/6 358/1/6 360/1/6
f 358/2/6 359/2/6 361/2/6
f 360/1/6 358/1/6 361/1/6
f 361/2/6 359/2/6 362/2/6
f 360/3/6 361/3/6 363/3/6
f 361/1/6 362/1/6 363/1/6
f 363/1/6 362/1/6 364/1/6
f 360/3/6 363/3/6 365/3/6
f 363/3/6 364/3/6 365/3/6
f 365/3/6 364/3/6 366/3/6
f 365/1/6 366/1/6 367/1/6
f 367/1/6 366/1/6 368/1/6
f 367/2/6 368/2/6 369/2/6
f 369/2/6 368/2/6 370/2/6
