# MagicaVoxel @ Ephtracy

# group
o 

# material
mtllib man_red_arm_down.mtl
usemtl palette

# normals
vn -1 0 0
vn 1 0 0
vn 0 0 1
vn 0 0 -1
vn 0 -1 0
vn 0 1 0

# texcoords
vt 0.412109 0.5
vt 0.416016 0.5
vt 0.787109 0.5
vt 0.947266 0.5

# verts
v -0.1 -0.3 0.2
v -0.1 -0.3 0
v -0.1 -0.2 0.2
v -0.1 -0.2 0
v -0.1 -0.1 0.2
v -0.1 -0.1 0.1
v -0.1 -0.1 0
v -0.1 0 0.2
v -0.1 0 0.1
v -0.1 0 0
v 0.1 -0.3 0.2
v 0.1 -0.3 0
v 0.1 -0.2 0.2
v 0.1 -0.2 0
v 0.1 -0.1 0.2
v 0.1 -0.1 0.1
v 0.1 -0.1 0
v 0.1 0 0.2
v 0.1 0 0.1
v 0.1 0 0
v -0.1 -0.3 0.2
v -0.1 -0.2 0.2
v -0.1 -0.1 0.2
v -0.1 0 0.2
v 0 -0.1 0.2
v 0 0 0.2
v 0.1 -0.3 0.2
v 0.1 -0.2 0.2
v 0.1 -0.1 0.2
v 0.1 0 0.2
v -0.1 -0.3 0
v -0.1 -0.2 0
v -0.1 -0.1 0
v -0.1 0 0
v 0 -0.1 0
v 0 0 0
v 0.1 -0.3 0
v 0.1 -0.2 0
v 0.1 -0.1 0
v 0.1 0 0
v -0.1 -0.3 0.2
v 0.1 -0.3 0.2
v -0.1 -0.3 0
v 0.1 -0.3 0
v -0.1 0 0.2
v 0 0 0.2
v 0.1 0 0.2
v -0.1 0 0.1
v 0 0 0.1
v 0.1 0 0.1
v -0.1 0 0
v 0 0 0
v 0.1 0 0

# faces
f 3/3/1 2/3/1 1/3/1
f 4/3/1 2/3/1 3/3/1
f 5/4/1 4/4/1 3/4/1
f 6/4/1 4/4/1 5/4/1
f 7/4/1 4/4/1 6/4/1
f 8/1/1 6/1/1 5/1/1
f 9/2/1 7/2/1 6/2/1
f 9/1/1 6/1/1 8/1/1
f 10/2/1 7/2/1 9/2/1
f 11/3/2 12/3/2 13/3/2
f 13/3/2 12/3/2 14/3/2
f 13/4/2 14/4/2 15/4/2
f 15/4/2 14/4/2 16/4/2
f 16/4/2 14/4/2 17/4/2
f 15/2/2 16/2/2 18/2/2
f 16/1/2 17/1/2 19/1/2
f 18/2/2 16/2/2 19/2/2
f 19/1/2 17/1/2 20/1/2
f 25/4/3 23/4/3 22/4/3
f 25/1/3 24/1/3 23/1/3
f 26/1/3 24/1/3 25/1/3
f 27/3/3 22/3/3 21/3/3
f 28/4/3 25/4/3 22/4/3
f 28/3/3 22/3/3 27/3/3
f 29/2/3 26/2/3 25/2/3
f 29/4/3 25/4/3 28/4/3
f 30/2/3 26/2/3 29/2/3
f 32/4/4 33/4/4 35/4/4
f 33/2/4 34/2/4 35/2/4
f 35/2/4 34/2/4 36/2/4
f 31/3/4 32/3/4 37/3/4
f 32/4/4 35/4/4 38/4/4
f 37/3/4 32/3/4 38/3/4
f 35/1/4 36/1/4 39/1/4
f 38/4/4 35/4/4 39/4/4
f 39/1/4 36/1/4 40/1/4
f 43/3/5 42/3/5 41/3/5
f 44/3/5 42/3/5 43/3/5
f 45/1/6 46/1/6 48/1/6
f 46/2/6 47/2/6 49/2/6
f 48/1/6 46/1/6 49/1/6
f 49/2/6 47/2/6 50/2/6
f 48/2/6 49/2/6 51/2/6
f 49/1/6 50/1/6 52/1/6
f 51/2/6 49/2/6 52/2/6
f 52/1/6 50/1/6 53/1/6
