# MagicaVoxel @ Ephtracy

# group
o 

# material
mtllib man_red_body.mtl
usemtl palette

# normals
vn -1 0 0
vn 1 0 0
vn 0 0 1
vn 0 0 -1
vn 0 -1 0
vn 0 1 0

# texcoords
vt 0.244141 0.5
vt 0.412109 0.5
vt 0.416016 0.5
vt 0.787109 0.5

# verts
v -0.3 0 0.1
v -0.3 0 -0.1
v -0.3 0.1 0.2
v -0.3 0.1 0.1
v -0.3 0.1 -0.1
v -0.3 0.1 -0.2
v -0.3 0.5 0.2
v -0.3 0.5 0.1
v -0.3 0.5 -0.1
v -0.3 0.5 -0.2
v -0.3 0.6 0.1
v -0.3 0.6 -0.1
v 0.3 0 0.1
v 0.3 0 -0.1
v 0.3 0.1 0.2
v 0.3 0.1 0.1
v 0.3 0.1 -0.1
v 0.3 0.1 -0.2
v 0.3 0.3 0.2
v 0.3 0.3 0.1
v 0.3 0.4 0.2
v 0.3 0.4 0.1
v 0.3 0.5 0.2
v 0.3 0.5 0.1
v 0.3 0.5 -0.1
v 0.3 0.5 -0.2
v 0.3 0.6 0.1
v 0.3 0.6 -0.1
v -0.3 0.1 0.2
v -0.3 0.5 0.2
v -0.2 0.1 0.2
v -0.2 0.3 0.2
v -0.1 0.1 0.2
v -0.1 0.2 0.2
v 0 0.3 0.2
v 0 0.4 0.2
v 0.2 0.2 0.2
v 0.2 0.3 0.2
v 0.3 0.1 0.2
v 0.3 0.3 0.2
v 0.3 0.4 0.2
v 0.3 0.5 0.2
v -0.3 0 0.1
v -0.3 0.1 0.1
v -0.3 0.5 0.1
v -0.3 0.6 0.1
v -0.2 0.1 0.1
v -0.1 0.1 0.1
v -0.1 0.5 0.1
v -0.1 0.6 0.1
v 0.1 0.5 0.1
v 0.1 0.6 0.1
v 0.3 0 0.1
v 0.3 0.1 0.1
v 0.3 0.5 0.1
v 0.3 0.6 0.1
v -0.3 0 -0.1
v -0.3 0.1 -0.1
v -0.3 0.5 -0.1
v -0.3 0.6 -0.1
v 0.1 0.5 -0.1
v 0.2 0.5 -0.1
v 0.3 0 -0.1
v 0.3 0.1 -0.1
v 0.3 0.5 -0.1
v 0.3 0.6 -0.1
v -0.3 0.1 -0.2
v -0.3 0.5 -0.2
v -0.2 0.2 -0.2
v -0.2 0.3 -0.2
v -0.1 0.3 -0.2
v -0.1 0.4 -0.2
v 0.1 0.2 -0.2
v 0.1 0.3 -0.2
v 0.1 0.4 -0.2
v 0.1 0.5 -0.2
v 0.2 0.3 -0.2
v 0.2 0.5 -0.2
v 0.3 0.1 -0.2
v 0.3 0.5 -0.2
v -0.3 0 0.1
v 0.3 0 0.1
v -0.3 0 -0.1
v 0.3 0 -0.1
v -0.3 0.1 0.2
v -0.2 0.1 0.2
v -0.1 0.1 0.2
v 0.3 0.1 0.2
v -0.3 0.1 0.1
v -0.2 0.1 0.1
v -0.1 0.1 0.1
v 0.3 0.1 0.1
v -0.3 0.1 -0.1
v 0.3 0.1 -0.1
v -0.3 0.1 -0.2
v 0.3 0.1 -0.2
v -0.3 0.5 0.2
v 0.3 0.5 0.2
v -0.3 0.5 0.1
v -0.1 0.5 0.1
v 0.1 0.5 0.1
v 0.3 0.5 0.1
v -0.3 0.5 -0.1
v 0.1 0.5 -0.1
v 0.2 0.5 -0.1
v 0.3 0.5 -0.1
v -0.3 0.5 -0.2
v 0.1 0.5 -0.2
v 0.2 0.5 -0.2
v 0.3 0.5 -0.2
v -0.3 0.6 0.1
v -0.1 0.6 0.1
v 0.1 0.6 0.1
v 0.3 0.6 0.1
v -0.1 0.6 0
v 0.1 0.6 0
v -0.3 0.6 -0.1
v 0.3 0.6 -0.1

# faces
f 4/1/1 2/1/1 1/1/1
f 5/1/1 2/1/1 4/1/1
f 7/2/1 4/2/1 3/2/1
f 7/2/1 6/2/1 5/2/1
f 7/2/1 5/2/1 4/2/1
f 8/2/1 6/2/1 7/2/1
f 9/2/1 6/2/1 8/2/1
f 10/2/1 6/2/1 9/2/1
f 11/2/1 9/2/1 8/2/1
f 12/2/1 9/2/1 11/2/1
f 13/1/2 14/1/2 16/1/2
f 16/1/2 14/1/2 17/1/2
f 15/2/2 16/2/2 19/2/2
f 17/2/2 18/2/2 19/2/2
f 16/2/2 17/2/2 19/2/2
f 19/2/2 18/2/2 20/2/2
f 19/3/2 20/3/2 21/3/2
f 20/2/2 18/2/2 22/2/2
f 21/3/2 20/3/2 22/3/2
f 21/2/2 22/2/2 23/2/2
f 22/2/2 18/2/2 24/2/2
f 23/2/2 22/2/2 24/2/2
f 24/2/2 18/2/2 25/2/2
f 25/2/2 18/2/2 26/2/2
f 24/2/2 25/2/2 27/2/2
f 27/2/2 25/2/2 28/2/2
f 31/2/3 30/2/3 29/2/3
f 32/2/3 30/2/3 31/2/3
f 33/3/3 32/3/3 31/3/3
f 34/3/3 32/3/3 33/3/3
f 35/2/3 30/2/3 32/2/3
f 35/3/3 32/3/3 34/3/3
f 36/2/3 30/2/3 35/2/3
f 37/2/3 34/2/3 33/2/3
f 37/3/3 35/3/3 34/3/3
f 37/3/3 36/3/3 35/3/3
f 38/3/3 36/3/3 37/3/3
f 39/2/3 37/2/3 33/2/3
f 39/2/3 38/2/3 37/2/3
f 40/3/3 36/3/3 38/3/3
f 40/2/3 38/2/3 39/2/3
f 41/2/3 30/2/3 36/2/3
f 41/3/3 36/3/3 40/3/3
f 42/2/3 30/2/3 41/2/3
f 47/1/3 44/1/3 43/1/3
f 48/1/3 47/1/3 43/1/3
f 49/2/3 46/2/3 45/2/3
f 50/2/3 46/2/3 49/2/3
f 51/4/3 50/4/3 49/4/3
f 52/4/3 50/4/3 51/4/3
f 53/1/3 48/1/3 43/1/3
f 54/1/3 48/1/3 53/1/3
f 55/2/3 52/2/3 51/2/3
f 56/2/3 52/2/3 55/2/3
f 59/2/4 60/2/4 61/2/4
f 61/2/4 60/2/4 62/2/4
f 57/1/4 58/1/4 63/1/4
f 63/1/4 58/1/4 64/1/4
f 62/2/4 60/2/4 65/2/4
f 65/2/4 60/2/4 66/2/4
f 67/2/4 68/2/4 69/2/4
f 69/2/4 68/2/4 70/2/4
f 69/3/4 70/3/4 71/3/4
f 70/2/4 68/2/4 71/2/4
f 71/2/4 68/2/4 72/2/4
f 67/2/4 69/2/4 73/2/4
f 69/3/4 71/3/4 73/3/4
f 71/3/4 72/3/4 73/3/4
f 73/3/4 72/3/4 74/3/4
f 72/2/4 68/2/4 75/2/4
f 74/3/4 72/3/4 75/3/4
f 75/2/4 68/2/4 76/2/4
f 73/2/4 74/2/4 77/2/4
f 74/3/4 75/3/4 77/3/4
f 75/3/4 76/3/4 77/3/4
f 77/3/4 76/3/4 78/3/4
f 67/2/4 73/2/4 79/2/4
f 73/2/4 77/2/4 79/2/4
f 77/2/4 78/2/4 79/2/4
f 79/2/4 78/2/4 80/2/4
f 83/1/5 82/1/5 81/1/5
f 84/1/5 82/1/5 83/1/5
f 89/2/5 86/2/5 85/2/5
f 90/3/5 87/3/5 86/3/5
f 90/2/5 86/2/5 89/2/5
f 91/2/5 88/2/5 87/2/5
f 91/3/5 87/3/5 90/3/5
f 92/2/5 88/2/5 91/2/5
f 95/2/5 94/2/5 93/2/5
f 96/2/5 94/2/5 95/2/5
f 97/2/6 98/2/6 99/2/6
f 99/2/6 98/2/6 100/2/6
f 100/2/6 98/2/6 101/2/6
f 101/2/6 98/2/6 102/2/6
f 103/2/6 104/2/6 107/2/6
f 104/3/6 105/3/6 108/3/6
f 107/2/6 104/2/6 108/2/6
f 105/2/6 106/2/6 109/2/6
f 108/3/6 105/3/6 109/3/6
f 109/2/6 106/2/6 110/2/6
f 111/2/6 112/2/6 115/2/6
f 112/4/6 113/4/6 115/4/6
f 113/2/6 114/2/6 116/2/6
f 115/4/6 113/4/6 116/4/6
f 111/2/6 115/2/6 117/2/6
f 115/2/6 116/2/6 117/2/6
f 116/2/6 114/2/6 118/2/6
f 117/2/6 116/2/6 118/2/6
