# MagicaVoxel @ Ephtracy

# group
o 

# material
mtllib air_def_hv_var_2_blue_tower_down.mtl
usemtl palette

# normals
vn -1 0 0
vn 1 0 0
vn 0 0 1
vn 0 0 -1
vn 0 -1 0
vn 0 1 0

# texcoords
vt 0.458984 0.5
vt 0.919922 0.5
vt 0.970703 0.5
vt 0.974609 0.5

# verts
v -0.8 0.2 0.4
v -0.8 0.2 0.1
v -0.8 0.4 0.4
v -0.8 0.4 0.1
v -0.7 0.1 0.5
v -0.7 0.1 0
v -0.7 0.2 0.4
v -0.7 0.2 0.1
v -0.7 0.3 0.5
v -0.7 0.3 0.4
v -0.7 0.4 0.5
v -0.7 0.4 0.4
v -0.7 0.4 0.1
v -0.7 0.5 0.4
v -0.7 0.5 0
v -0.3 0.2 0.5
v -0.3 0.2 0.4
v -0.3 0.2 0.3
v -0.3 0.2 0
v -0.3 0.3 0.5
v -0.3 0.3 0.4
v -0.3 0.3 0.3
v -0.3 0.4 0.5
v -0.3 0.4 0.4
v -0.3 0.5 0.4
v -0.3 0.5 0
v -0.2 0 0.1
v -0.2 0 0
v -0.2 0.1 0.1
v -0.2 0.1 0
v 0.1 0.2 0.4
v 0.1 0.2 0.1
v 0.1 0.4 0.4
v 0.1 0.4 0.1
v 0.2 0.1 0.5
v 0.2 0.1 0.1
v 0.2 0.1 0
v 0.2 0.2 0.4
v 0.2 0.2 0.1
v 0.2 0.4 0.5
v 0.2 0.4 0.4
v 0.2 0.4 0.1
v 0.2 0.5 0.4
v 0.2 0.5 0
v 0.6 0.2 0.5
v 0.6 0.2 0
v 0.6 0.4 0.5
v 0.6 0.4 0.4
v 0.6 0.5 0.4
v 0.6 0.5 0
v -0.6 0.2 0.5
v -0.6 0.2 0
v -0.6 0.3 0.5
v -0.6 0.3 0.4
v -0.6 0.4 0.5
v -0.6 0.4 0.4
v -0.6 0.5 0.4
v -0.6 0.5 0
v -0.2 0.1 0.5
v -0.2 0.1 0.3
v -0.2 0.1 0.2
v -0.2 0.1 0.1
v -0.2 0.1 0
v -0.2 0.2 0.4
v -0.2 0.2 0.3
v -0.2 0.2 0.2
v -0.2 0.2 0.1
v -0.2 0.3 0.5
v -0.2 0.3 0.4
v -0.2 0.4 0.5
v -0.2 0.4 0.4
v -0.2 0.4 0.1
v -0.2 0.5 0.4
v -0.2 0.5 0
v -0.1 0.2 0.4
v -0.1 0.2 0.3
v -0.1 0.2 0.1
v -0.1 0.3 0.4
v -0.1 0.3 0.3
v -0.1 0.4 0.4
v -0.1 0.4 0.1
v 0.2 0 0.1
v 0.2 0 0
v 0.2 0.1 0.1
v 0.2 0.1 0
v 0.3 0.2 0.5
v 0.3 0.2 0
v 0.3 0.4 0.5
v 0.3 0.4 0.4
v 0.3 0.5 0.4
v 0.3 0.5 0
v 0.7 0.1 0.5
v 0.7 0.1 0
v 0.7 0.2 0.4
v 0.7 0.2 0.1
v 0.7 0.3 0.4
v 0.7 0.4 0.5
v 0.7 0.4 0.4
v 0.7 0.4 0.3
v 0.7 0.4 0.1
v 0.7 0.5 0.4
v 0.7 0.5 0
v 0.8 0.2 0.4
v 0.8 0.2 0.1
v 0.8 0.3 0.4
v 0.8 0.3 0.3
v 0.8 0.4 0.4
v 0.8 0.4 0.3
v 0.8 0.4 0.1
v -0.7 0.1 0.5
v -0.7 0.3 0.5
v -0.7 0.4 0.5
v -0.6 0.2 0.5
v -0.6 0.3 0.5
v -0.6 0.4 0.5
v -0.5 0.1 0.5
v -0.5 0.2 0.5
v -0.4 0.1 0.5
v -0.4 0.2 0.5
v -0.3 0.2 0.5
v -0.3 0.3 0.5
v -0.3 0.4 0.5
v -0.2 0.1 0.5
v -0.2 0.3 0.5
v -0.2 0.4 0.5
v 0.2 0.1 0.5
v 0.2 0.4 0.5
v 0.3 0.2 0.5
v 0.3 0.4 0.5
v 0.6 0.2 0.5
v 0.6 0.4 0.5
v 0.7 0.1 0.5
v 0.7 0.4 0.5
v -0.8 0.2 0.4
v -0.8 0.4 0.4
v -0.7 0.2 0.4
v -0.7 0.3 0.4
v -0.7 0.4 0.4
v -0.7 0.5 0.4
v -0.6 0.4 0.4
v -0.6 0.5 0.4
v -0.3 0.4 0.4
v -0.3 0.5 0.4
v -0.2 0.2 0.4
v -0.2 0.3 0.4
v -0.2 0.4 0.4
v -0.2 0.5 0.4
v -0.1 0.2 0.4
v -0.1 0.3 0.4
v -0.1 0.4 0.4
v 0.1 0.2 0.4
v 0.1 0.4 0.4
v 0.2 0.2 0.4
v 0.2 0.4 0.4
v 0.2 0.5 0.4
v 0.3 0.4 0.4
v 0.3 0.5 0.4
v 0.6 0.4 0.4
v 0.6 0.5 0.4
v 0.7 0.2 0.4
v 0.7 0.3 0.4
v 0.7 0.4 0.4
v 0.7 0.5 0.4
v 0.8 0.2 0.4
v 0.8 0.3 0.4
v 0.8 0.4 0.4
v -0.2 0 0.1
v -0.2 0.1 0.1
v 0.2 0 0.1
v 0.2 0.1 0.1
v -0.8 0.2 0.1
v -0.8 0.4 0.1
v -0.7 0.2 0.1
v -0.7 0.4 0.1
v -0.2 0.2 0.1
v -0.2 0.4 0.1
v -0.1 0.2 0.1
v -0.1 0.4 0.1
v 0.1 0.2 0.1
v 0.1 0.4 0.1
v 0.2 0.2 0.1
v 0.2 0.4 0.1
v 0.7 0.2 0.1
v 0.7 0.4 0.1
v 0.8 0.2 0.1
v 0.8 0.4 0.1
v -0.7 0.1 0
v -0.7 0.5 0
v -0.6 0.2 0
v -0.6 0.5 0
v -0.3 0.2 0
v -0.3 0.5 0
v -0.2 0 0
v -0.2 0.1 0
v -0.2 0.5 0
v 0.2 0 0
v 0.2 0.1 0
v 0.2 0.5 0
v 0.3 0.2 0
v 0.3 0.5 0
v 0.6 0.2 0
v 0.6 0.5 0
v 0.7 0.1 0
v 0.7 0.5 0
v -0.2 0 0.1
v 0.2 0 0.1
v -0.2 0 0
v 0.2 0 0
v -0.7 0.1 0.5
v -0.5 0.1 0.5
v -0.4 0.1 0.5
v -0.2 0.1 0.5
v 0.2 0.1 0.5
v 0.7 0.1 0.5
v -0.5 0.1 0.4
v -0.4 0.1 0.4
v -0.3 0.1 0.4
v -0.4 0.1 0.3
v -0.3 0.1 0.3
v -0.2 0.1 0.3
v -0.3 0.1 0.2
v -0.2 0.1 0.2
v -0.2 0.1 0.1
v 0.2 0.1 0.1
v -0.7 0.1 0
v -0.2 0.1 0
v 0.2 0.1 0
v 0.7 0.1 0
v -0.8 0.2 0.4
v -0.7 0.2 0.4
v -0.2 0.2 0.4
v -0.1 0.2 0.4
v 0.1 0.2 0.4
v 0.2 0.2 0.4
v 0.7 0.2 0.4
v 0.8 0.2 0.4
v -0.2 0.2 0.3
v -0.1 0.2 0.3
v -0.2 0.2 0.2
v -0.8 0.2 0.1
v -0.7 0.2 0.1
v -0.2 0.2 0.1
v -0.1 0.2 0.1
v 0.1 0.2 0.1
v 0.2 0.2 0.1
v 0.7 0.2 0.1
v 0.8 0.2 0.1
v -0.2 0.1 0.1
v 0.2 0.1 0.1
v -0.2 0.1 0
v 0.2 0.1 0
v -0.6 0.2 0.5
v -0.5 0.2 0.5
v -0.4 0.2 0.5
v -0.3 0.2 0.5
v 0.3 0.2 0.5
v 0.6 0.2 0.5
v -0.5 0.2 0.4
v -0.4 0.2 0.4
v -0.3 0.2 0.4
v -0.4 0.2 0.3
v -0.3 0.2 0.3
v -0.6 0.2 0
v -0.3 0.2 0
v 0.3 0.2 0
v 0.6 0.2 0
v -0.7 0.4 0.5
v -0.6 0.4 0.5
v -0.3 0.4 0.5
v -0.2 0.4 0.5
v 0.2 0.4 0.5
v 0.3 0.4 0.5
v 0.6 0.4 0.5
v 0.7 0.4 0.5
v -0.8 0.4 0.4
v -0.7 0.4 0.4
v -0.6 0.4 0.4
v -0.3 0.4 0.4
v -0.2 0.4 0.4
v -0.1 0.4 0.4
v 0.1 0.4 0.4
v 0.2 0.4 0.4
v 0.3 0.4 0.4
v 0.6 0.4 0.4
v 0.7 0.4 0.4
v 0.8 0.4 0.4
v 0.7 0.4 0.3
v 0.8 0.4 0.3
v -0.8 0.4 0.1
v -0.7 0.4 0.1
v -0.2 0.4 0.1
v -0.1 0.4 0.1
v 0.1 0.4 0.1
v 0.2 0.4 0.1
v 0.7 0.4 0.1
v 0.8 0.4 0.1
v -0.7 0.5 0.4
v -0.6 0.5 0.4
v -0.3 0.5 0.4
v -0.2 0.5 0.4
v 0.2 0.5 0.4
v 0.3 0.5 0.4
v 0.6 0.5 0.4
v 0.7 0.5 0.4
v -0.7 0.5 0
v -0.6 0.5 0
v -0.3 0.5 0
v -0.2 0.5 0
v 0.2 0.5 0
v 0.3 0.5 0
v 0.6 0.5 0
v 0.7 0.5 0

# faces
f 3/4/1 2/4/1 1/4/1
f 4/4/1 2/4/1 3/4/1
f 7/4/1 6/4/1 5/4/1
f 8/4/1 6/4/1 7/4/1
f 9/4/1 7/4/1 5/4/1
f 10/4/1 7/4/1 9/4/1
f 11/3/1 10/3/1 9/3/1
f 12/3/1 10/3/1 11/3/1
f 13/4/1 6/4/1 8/4/1
f 14/4/1 13/4/1 12/4/1
f 15/4/1 6/4/1 13/4/1
f 15/4/1 13/4/1 14/4/1
f 20/1/1 17/1/1 16/1/1
f 21/2/1 18/2/1 17/2/1
f 21/1/1 17/1/1 20/1/1
f 22/4/1 19/4/1 18/4/1
f 22/2/1 18/2/1 21/2/1
f 23/2/1 21/2/1 20/2/1
f 24/4/1 22/4/1 21/4/1
f 24/2/1 21/2/1 23/2/1
f 25/4/1 22/4/1 24/4/1
f 26/4/1 19/4/1 22/4/1
f 26/4/1 22/4/1 25/4/1
f 29/4/1 28/4/1 27/4/1
f 30/4/1 28/4/1 29/4/1
f 33/4/1 32/4/1 31/4/1
f 34/4/1 32/4/1 33/4/1
f 38/4/1 36/4/1 35/4/1
f 38/4/1 37/4/1 36/4/1
f 39/4/1 37/4/1 38/4/1
f 40/4/1 38/4/1 35/4/1
f 41/4/1 38/4/1 40/4/1
f 42/4/1 37/4/1 39/4/1
f 43/4/1 42/4/1 41/4/1
f 44/4/1 37/4/1 42/4/1
f 44/4/1 42/4/1 43/4/1
f 47/4/1 46/4/1 45/4/1
f 48/4/1 46/4/1 47/4/1
f 49/4/1 46/4/1 48/4/1
f 50/4/1 46/4/1 49/4/1
f 51/4/2 52/4/2 53/4/2
f 53/4/2 52/4/2 54/4/2
f 53/3/2 54/3/2 55/3/2
f 54/4/2 52/4/2 56/4/2
f 55/3/2 54/3/2 56/3/2
f 56/4/2 52/4/2 57/4/2
f 57/4/2 52/4/2 58/4/2
f 59/1/2 60/1/2 64/1/2
f 60/2/2 61/2/2 65/2/2
f 64/1/2 60/1/2 65/1/2
f 62/4/2 63/4/2 66/4/2
f 65/2/2 61/2/2 66/2/2
f 61/4/2 62/4/2 66/4/2
f 66/4/2 63/4/2 67/4/2
f 59/1/2 64/1/2 68/1/2
f 68/1/2 64/1/2 69/1/2
f 68/2/2 69/2/2 70/2/2
f 70/2/2 69/2/2 71/2/2
f 67/4/2 63/4/2 72/4/2
f 71/4/2 72/4/2 73/4/2
f 72/4/2 63/4/2 74/4/2
f 73/4/2 72/4/2 74/4/2
f 75/2/2 76/2/2 78/2/2
f 76/4/2 77/4/2 79/4/2
f 78/2/2 76/2/2 79/2/2
f 78/4/2 79/4/2 80/4/2
f 79/4/2 77/4/2 81/4/2
f 80/4/2 79/4/2 81/4/2
f 82/4/2 83/4/2 84/4/2
f 84/4/2 83/4/2 85/4/2
f 86/4/2 87/4/2 88/4/2
f 88/4/2 87/4/2 89/4/2
f 89/4/2 87/4/2 90/4/2
f 90/4/2 87/4/2 91/4/2
f 92/4/2 93/4/2 94/4/2
f 94/4/2 93/4/2 95/4/2
f 92/4/2 94/4/2 96/4/2
f 92/4/2 96/4/2 97/4/2
f 97/4/2 96/4/2 98/4/2
f 95/4/2 93/4/2 100/4/2
f 98/4/2 99/4/2 101/4/2
f 99/4/2 100/4/2 101/4/2
f 100/4/2 93/4/2 102/4/2
f 101/4/2 100/4/2 102/4/2
f 103/4/2 104/4/2 105/4/2
f 105/4/2 104/4/2 106/4/2
f 105/3/2 106/3/2 107/3/2
f 106/4/2 104/4/2 108/4/2
f 107/3/2 106/3/2 108/3/2
f 108/4/2 104/4/2 109/4/2
f 113/4/3 111/4/3 110/4/3
f 114/3/3 112/3/3 111/3/3
f 114/4/3 111/4/3 113/4/3
f 115/3/3 112/3/3 114/3/3
f 116/4/3 113/4/3 110/4/3
f 117/4/3 113/4/3 116/4/3
f 118/2/3 117/2/3 116/2/3
f 119/2/3 117/2/3 118/2/3
f 120/1/3 119/1/3 118/1/3
f 123/1/3 120/1/3 118/1/3
f 123/1/3 121/1/3 120/1/3
f 124/2/3 122/2/3 121/2/3
f 124/1/3 121/1/3 123/1/3
f 125/2/3 122/2/3 124/2/3
f 128/4/3 127/4/3 126/4/3
f 129/4/3 127/4/3 128/4/3
f 130/4/3 128/4/3 126/4/3
f 132/4/3 130/4/3 126/4/3
f 132/4/3 131/4/3 130/4/3
f 133/4/3 131/4/3 132/4/3
f 136/4/3 135/4/3 134/4/3
f 137/4/3 135/4/3 136/4/3
f 138/4/3 135/4/3 137/4/3
f 140/4/3 139/4/3 138/4/3
f 141/4/3 139/4/3 140/4/3
f 146/4/3 143/4/3 142/4/3
f 147/4/3 143/4/3 146/4/3
f 148/2/3 145/2/3 144/2/3
f 149/4/3 146/4/3 145/4/3
f 149/2/3 145/2/3 148/2/3
f 150/4/3 146/4/3 149/4/3
f 153/4/3 152/4/3 151/4/3
f 154/4/3 152/4/3 153/4/3
f 156/4/3 155/4/3 154/4/3
f 157/4/3 155/4/3 156/4/3
f 162/4/3 159/4/3 158/4/3
f 163/4/3 159/4/3 162/4/3
f 164/4/3 161/4/3 160/4/3
f 165/3/3 162/3/3 161/3/3
f 165/4/3 161/4/3 164/4/3
f 166/3/3 162/3/3 165/3/3
f 169/4/3 168/4/3 167/4/3
f 170/4/3 168/4/3 169/4/3
f 171/4/4 172/4/4 173/4/4
f 173/4/4 172/4/4 174/4/4
f 175/4/4 176/4/4 177/4/4
f 177/4/4 176/4/4 178/4/4
f 179/4/4 180/4/4 181/4/4
f 181/4/4 180/4/4 182/4/4
f 183/4/4 184/4/4 185/4/4
f 185/4/4 184/4/4 186/4/4
f 187/4/4 188/4/4 189/4/4
f 189/4/4 188/4/4 190/4/4
f 187/4/4 189/4/4 191/4/4
f 187/4/4 191/4/4 194/4/4
f 191/4/4 192/4/4 194/4/4
f 194/4/4 192/4/4 195/4/4
f 193/4/4 194/4/4 196/4/4
f 196/4/4 194/4/4 197/4/4
f 197/4/4 198/4/4 199/4/4
f 199/4/4 198/4/4 200/4/4
f 197/4/4 199/4/4 201/4/4
f 197/4/4 201/4/4 203/4/4
f 201/4/4 202/4/4 203/4/4
f 203/4/4 202/4/4 204/4/4
f 207/4/5 206/4/5 205/4/5
f 208/4/5 206/4/5 207/4/5
f 215/4/5 210/4/5 209/4/5
f 215/2/5 211/2/5 210/2/5
f 216/1/5 212/1/5 211/1/5
f 216/2/5 211/2/5 215/2/5
f 217/1/5 212/1/5 216/1/5
f 218/4/5 216/4/5 215/4/5
f 218/2/5 217/2/5 216/2/5
f 219/1/5 212/1/5 217/1/5
f 219/2/5 217/2/5 218/2/5
f 220/1/5 212/1/5 219/1/5
f 221/4/5 219/4/5 218/4/5
f 221/2/5 220/2/5 219/2/5
f 222/2/5 220/2/5 221/2/5
f 223/4/5 222/4/5 221/4/5
f 224/4/5 214/4/5 213/4/5
f 225/4/5 223/4/5 221/4/5
f 225/4/5 215/4/5 209/4/5
f 225/4/5 218/4/5 215/4/5
f 225/4/5 221/4/5 218/4/5
f 226/4/5 223/4/5 225/4/5
f 227/4/5 214/4/5 224/4/5
f 228/4/5 214/4/5 227/4/5
f 237/2/5 232/2/5 231/2/5
f 238/2/5 232/2/5 237/2/5
f 239/4/5 238/4/5 237/4/5
f 240/4/5 230/4/5 229/4/5
f 241/4/5 230/4/5 240/4/5
f 242/4/5 238/4/5 239/4/5
f 243/4/5 238/4/5 242/4/5
f 244/4/5 234/4/5 233/4/5
f 245/4/5 234/4/5 244/4/5
f 246/4/5 236/4/5 235/4/5
f 247/4/5 236/4/5 246/4/5
f 248/4/6 249/4/6 250/4/6
f 250/4/6 249/4/6 251/4/6
f 252/4/6 253/4/6 258/4/6
f 253/2/6 254/2/6 258/2/6
f 254/1/6 255/1/6 259/1/6
f 258/2/6 254/2/6 259/2/6
f 259/1/6 255/1/6 260/1/6
f 258/4/6 259/4/6 261/4/6
f 259/2/6 260/2/6 261/2/6
f 261/2/6 260/2/6 262/2/6
f 252/4/6 258/4/6 263/4/6
f 258/4/6 261/4/6 263/4/6
f 261/4/6 262/4/6 263/4/6
f 263/4/6 262/4/6 264/4/6
f 256/4/6 257/4/6 265/4/6
f 265/4/6 257/4/6 266/4/6
f 267/3/6 268/3/6 276/3/6
f 276/3/6 268/3/6 277/3/6
f 269/2/6 270/2/6 278/2/6
f 278/2/6 270/2/6 279/2/6
f 271/4/6 272/4/6 282/4/6
f 282/4/6 272/4/6 283/4/6
f 273/4/6 274/4/6 284/4/6
f 284/4/6 274/4/6 285/4/6
f 285/3/6 286/3/6 287/3/6
f 287/3/6 286/3/6 288/3/6
f 275/4/6 276/4/6 289/4/6
f 289/4/6 276/4/6 290/4/6
f 279/4/6 280/4/6 291/4/6
f 291/4/6 280/4/6 292/4/6
f 281/4/6 282/4/6 293/4/6
f 293/4/6 282/4/6 294/4/6
f 287/4/6 288/4/6 295/4/6
f 295/4/6 288/4/6 296/4/6
f 297/4/6 298/4/6 305/4/6
f 305/4/6 298/4/6 306/4/6
f 299/4/6 300/4/6 307/4/6
f 307/4/6 300/4/6 308/4/6
f 301/4/6 302/4/6 309/4/6
f 309/4/6 302/4/6 310/4/6
f 303/4/6 304/4/6 311/4/6
f 311/4/6 304/4/6 312/4/6
