# MagicaVoxel @ Ephtracy

# group
o 

# material
mtllib air_def_hv_var_2_blue_tower_up.mtl
usemtl palette

# normals
vn -1 0 0
vn 1 0 0
vn 0 0 1
vn 0 0 -1
vn 0 -1 0
vn 0 1 0

# texcoords
vt 0.458984 0.5
vt 0.919922 0.5
vt 0.970703 0.5
vt 0.974609 0.5

# verts
v -0.8 0.3 0.5
v -0.8 0.3 0.2
v -0.8 0.6 0.5
v -0.8 0.6 0.2
v -0.7 0.1 0.6
v -0.7 0.1 0.3
v -0.7 0.1 0.2
v -0.7 0.1 0.1
v -0.7 0.1 5.96046e-08
v -0.7 0.2 0.5
v -0.7 0.2 0.3
v -0.7 0.3 0.5
v -0.7 0.3 0.2
v -0.7 0.4 0.6
v -0.7 0.4 0.5
v -0.7 0.5 0.2
v -0.7 0.5 0.1
v -0.7 0.5 5.96046e-08
v -0.7 0.6 0.6
v -0.7 0.6 0.5
v -0.7 0.6 0.2
v -0.7 0.6 0.1
v -0.7 0.7 0.5
v -0.7 0.7 0.2
v -0.7 0.7 5.96046e-08
v -0.3 0.4 0.6
v -0.3 0.4 0.5
v -0.3 0.4 0.1
v -0.3 0.4 5.96046e-08
v -0.3 0.5 0.6
v -0.3 0.5 0.5
v -0.3 0.5 0.4
v -0.3 0.6 0.6
v -0.3 0.6 0.5
v -0.3 0.7 0.5
v -0.3 0.7 0.4
v -0.3 0.7 5.96046e-08
v -0.2 0 0.1
v -0.2 0 5.96046e-08
v -0.2 0.1 0.1
v -0.2 0.1 5.96046e-08
v 0.1 0.3 0.5
v 0.1 0.3 0.4
v 0.1 0.3 0.3
v 0.1 0.3 0.2
v 0.1 0.4 0.5
v 0.1 0.4 0.4
v 0.1 0.6 0.5
v 0.1 0.6 0.2
v 0.2 0.2 0.1
v 0.2 0.2 5.96046e-08
v 0.2 0.3 0.6
v 0.2 0.3 0.5
v 0.2 0.3 0.2
v 0.2 0.3 0.1
v 0.2 0.4 0.5
v 0.2 0.6 0.6
v 0.2 0.6 0.5
v 0.2 0.6 0.2
v 0.2 0.7 0.5
v 0.2 0.7 5.96046e-08
v 0.6 0.4 0.6
v 0.6 0.4 0.2
v 0.6 0.4 0.1
v 0.6 0.4 5.96046e-08
v 0.6 0.5 0.2
v 0.6 0.5 0.1
v 0.6 0.6 0.6
v 0.6 0.6 0.5
v 0.6 0.7 0.5
v 0.6 0.7 5.96046e-08
v -0.6 0.4 0.6
v -0.6 0.4 0.5
v -0.6 0.4 0.2
v -0.6 0.4 0.1
v -0.6 0.4 5.96046e-08
v -0.6 0.5 0.2
v -0.6 0.5 0.1
v -0.6 0.5 5.96046e-08
v -0.6 0.6 0.6
v -0.6 0.6 0.5
v -0.6 0.6 0.2
v -0.6 0.6 0.1
v -0.6 0.7 0.5
v -0.6 0.7 0.2
v -0.6 0.7 5.96046e-08
v -0.2 0.2 0.1
v -0.2 0.2 5.96046e-08
v -0.2 0.3 0.6
v -0.2 0.3 0.5
v -0.2 0.3 0.2
v -0.2 0.3 0.1
v -0.2 0.4 0.6
v -0.2 0.4 0.5
v -0.2 0.5 0.6
v -0.2 0.5 0.5
v -0.2 0.6 0.6
v -0.2 0.6 0.5
v -0.2 0.6 0.4
v -0.2 0.6 0.2
v -0.2 0.7 0.5
v -0.2 0.7 0.4
v -0.2 0.7 5.96046e-08
v -0.1 0.3 0.5
v -0.1 0.3 0.4
v -0.1 0.3 0.3
v -0.1 0.3 0.2
v -0.1 0.4 0.5
v -0.1 0.4 0.4
v -0.1 0.5 0.5
v -0.1 0.5 0.4
v -0.1 0.6 0.5
v -0.1 0.6 0.4
v -0.1 0.6 0.2
v 0.2 0 0.1
v 0.2 0 5.96046e-08
v 0.2 0.1 0.1
v 0.2 0.1 5.96046e-08
v 0.3 0.4 0.6
v 0.3 0.4 5.96046e-08
v 0.3 0.6 0.6
v 0.3 0.6 0.5
v 0.3 0.7 0.5
v 0.3 0.7 5.96046e-08
v 0.7 0.1 0.6
v 0.7 0.1 0.4
v 0.7 0.1 0.3
v 0.7 0.1 0.2
v 0.7 0.1 0.1
v 0.7 0.1 5.96046e-08
v 0.7 0.3 0.6
v 0.7 0.3 0.5
v 0.7 0.3 0.4
v 0.7 0.3 0.3
v 0.7 0.3 0.2
v 0.7 0.3 0.1
v 0.7 0.4 0.6
v 0.7 0.4 0.5
v 0.7 0.4 0.2
v 0.7 0.4 0.1
v 0.7 0.5 0.5
v 0.7 0.5 0.2
v 0.7 0.5 0.1
v 0.7 0.6 0.6
v 0.7 0.6 0.5
v 0.7 0.6 0.4
v 0.7 0.6 0.2
v 0.7 0.7 0.5
v 0.7 0.7 5.96046e-08
v 0.8 0.3 0.5
v 0.8 0.3 0.3
v 0.8 0.3 0.2
v 0.8 0.4 0.5
v 0.8 0.4 0.4
v 0.8 0.4 0.3
v 0.8 0.4 0.2
v 0.8 0.5 0.5
v 0.8 0.5 0.4
v 0.8 0.5 0.2
v 0.8 0.6 0.5
v 0.8 0.6 0.4
v 0.8 0.6 0.2
v -0.7 0.1 0.6
v -0.7 0.4 0.6
v -0.7 0.6 0.6
v -0.6 0.1 0.6
v -0.6 0.4 0.6
v -0.6 0.6 0.6
v -0.5 0.1 0.6
v -0.5 0.3 0.6
v -0.5 0.4 0.6
v -0.3 0.4 0.6
v -0.3 0.5 0.6
v -0.3 0.6 0.6
v -0.2 0.3 0.6
v -0.2 0.4 0.6
v -0.2 0.5 0.6
v -0.2 0.6 0.6
v -0.1 0.2 0.6
v -0.1 0.3 0.6
v 0 0.1 0.6
v 0 0.2 0.6
v 0 0.3 0.6
v 0.1 0.1 0.6
v 0.1 0.2 0.6
v 0.1 0.3 0.6
v 0.2 0.2 0.6
v 0.2 0.3 0.6
v 0.2 0.6 0.6
v 0.3 0.4 0.6
v 0.3 0.6 0.6
v 0.4 0.1 0.6
v 0.4 0.2 0.6
v 0.5 0.1 0.6
v 0.5 0.2 0.6
v 0.5 0.3 0.6
v 0.6 0.2 0.6
v 0.6 0.3 0.6
v 0.6 0.4 0.6
v 0.6 0.6 0.6
v 0.7 0.1 0.6
v 0.7 0.3 0.6
v 0.7 0.4 0.6
v 0.7 0.6 0.6
v -0.8 0.3 0.5
v -0.8 0.6 0.5
v -0.7 0.3 0.5
v -0.7 0.4 0.5
v -0.7 0.6 0.5
v -0.7 0.7 0.5
v -0.6 0.6 0.5
v -0.6 0.7 0.5
v -0.3 0.6 0.5
v -0.3 0.7 0.5
v -0.2 0.3 0.5
v -0.2 0.4 0.5
v -0.2 0.5 0.5
v -0.2 0.6 0.5
v -0.2 0.7 0.5
v -0.1 0.3 0.5
v -0.1 0.4 0.5
v -0.1 0.5 0.5
v -0.1 0.6 0.5
v 0.1 0.3 0.5
v 0.1 0.4 0.5
v 0.1 0.6 0.5
v 0.2 0.3 0.5
v 0.2 0.4 0.5
v 0.2 0.6 0.5
v 0.2 0.7 0.5
v 0.3 0.6 0.5
v 0.3 0.7 0.5
v 0.6 0.6 0.5
v 0.6 0.7 0.5
v 0.7 0.3 0.5
v 0.7 0.4 0.5
v 0.7 0.5 0.5
v 0.7 0.6 0.5
v 0.7 0.7 0.5
v 0.8 0.3 0.5
v 0.8 0.4 0.5
v 0.8 0.5 0.5
v 0.8 0.6 0.5
v -0.2 0 0.1
v -0.2 0.1 0.1
v 0.2 0 0.1
v 0.2 0.1 0.1
v -0.8 0.3 0.2
v -0.8 0.6 0.2
v -0.7 0.3 0.2
v -0.7 0.5 0.2
v -0.7 0.6 0.2
v -0.2 0.3 0.2
v -0.2 0.6 0.2
v -0.1 0.3 0.2
v -0.1 0.6 0.2
v 0.1 0.3 0.2
v 0.1 0.6 0.2
v 0.2 0.3 0.2
v 0.2 0.6 0.2
v 0.7 0.3 0.2
v 0.7 0.4 0.2
v 0.7 0.5 0.2
v 0.7 0.6 0.2
v 0.8 0.3 0.2
v 0.8 0.4 0.2
v 0.8 0.5 0.2
v 0.8 0.6 0.2
v -0.2 0.2 0.1
v -0.2 0.3 0.1
v 0.2 0.2 0.1
v 0.2 0.3 0.1
v -0.7 0.1 5.96046e-08
v -0.7 0.5 5.96046e-08
v -0.7 0.7 5.96046e-08
v -0.6 0.1 5.96046e-08
v -0.6 0.4 5.96046e-08
v -0.6 0.5 5.96046e-08
v -0.6 0.7 5.96046e-08
v -0.5 0.2 5.96046e-08
v -0.5 0.3 5.96046e-08
v -0.4 0.2 5.96046e-08
v -0.4 0.3 5.96046e-08
v -0.4 0.4 5.96046e-08
v -0.3 0.3 5.96046e-08
v -0.3 0.4 5.96046e-08
v -0.3 0.7 5.96046e-08
v -0.2 0 5.96046e-08
v -0.2 0.1 5.96046e-08
v -0.2 0.2 5.96046e-08
v -0.2 0.7 5.96046e-08
v 0.2 0 5.96046e-08
v 0.2 0.1 5.96046e-08
v 0.2 0.2 5.96046e-08
v 0.2 0.7 5.96046e-08
v 0.3 0.4 5.96046e-08
v 0.3 0.7 5.96046e-08
v 0.4 0.1 5.96046e-08
v 0.4 0.2 5.96046e-08
v 0.5 0.1 5.96046e-08
v 0.5 0.2 5.96046e-08
v 0.5 0.3 5.96046e-08
v 0.6 0.2 5.96046e-08
v 0.6 0.3 5.96046e-08
v 0.6 0.4 5.96046e-08
v 0.6 0.7 5.96046e-08
v 0.7 0.1 5.96046e-08
v 0.7 0.7 5.96046e-08
v -0.2 0 0.1
v 0.2 0 0.1
v -0.2 0 5.96046e-08
v 0.2 0 5.96046e-08
v -0.7 0.1 0.6
v -0.6 0.1 0.6
v -0.5 0.1 0.6
v 0 0.1 0.6
v 0.1 0.1 0.6
v 0.4 0.1 0.6
v 0.5 0.1 0.6
v 0.7 0.1 0.6
v 0 0.1 0.5
v 0.1 0.1 0.5
v 0.4 0.1 0.5
v 0.5 0.1 0.5
v 0.6 0.1 0.5
v 0.5 0.1 0.4
v 0.6 0.1 0.4
v 0.7 0.1 0.4
v -0.7 0.1 0.3
v -0.6 0.1 0.3
v -0.5 0.1 0.3
v 0.6 0.1 0.3
v 0.7 0.1 0.3
v -0.7 0.1 0.2
v -0.6 0.1 0.2
v -0.5 0.1 0.2
v 0.6 0.1 0.2
v 0.7 0.1 0.2
v -0.7 0.1 0.1
v -0.6 0.1 0.1
v -0.5 0.1 0.1
v -0.2 0.1 0.1
v 0.2 0.1 0.1
v 0.4 0.1 0.1
v 0.5 0.1 0.1
v 0.6 0.1 0.1
v 0.7 0.1 0.1
v -0.7 0.1 5.96046e-08
v -0.6 0.1 5.96046e-08
v -0.2 0.1 5.96046e-08
v 0.2 0.1 5.96046e-08
v 0.4 0.1 5.96046e-08
v 0.5 0.1 5.96046e-08
v 0.7 0.1 5.96046e-08
v -0.8 0.3 0.5
v -0.7 0.3 0.5
v 0.7 0.3 0.5
v 0.8 0.3 0.5
v 0.7 0.3 0.4
v 0.7 0.3 0.3
v 0.8 0.3 0.3
v -0.8 0.3 0.2
v -0.7 0.3 0.2
v 0.7 0.3 0.2
v 0.8 0.3 0.2
v -0.2 0.2 0.1
v 0.2 0.2 0.1
v -0.2 0.2 5.96046e-08
v 0.2 0.2 5.96046e-08
v -0.2 0.3 0.6
v -0.1 0.3 0.6
v 0 0.3 0.6
v 0.1 0.3 0.6
v 0.2 0.3 0.6
v -0.2 0.3 0.5
v -0.1 0.3 0.5
v 0 0.3 0.5
v 0.1 0.3 0.5
v 0.2 0.3 0.5
v -0.1 0.3 0.4
v 0.1 0.3 0.4
v -0.1 0.3 0.3
v 0.1 0.3 0.3
v -0.2 0.3 0.2
v -0.1 0.3 0.2
v 0.1 0.3 0.2
v 0.2 0.3 0.2
v -0.2 0.3 0.1
v 0.2 0.3 0.1
v -0.6 0.4 0.6
v -0.5 0.4 0.6
v -0.3 0.4 0.6
v 0.3 0.4 0.6
v 0.6 0.4 0.6
v -0.6 0.4 0.5
v -0.5 0.4 0.5
v -0.3 0.4 0.5
v -0.6 0.4 0.2
v 0.6 0.4 0.2
v -0.6 0.4 0.1
v -0.4 0.4 0.1
v -0.3 0.4 0.1
v 0.6 0.4 0.1
v -0.6 0.4 5.96046e-08
v -0.4 0.4 5.96046e-08
v -0.3 0.4 5.96046e-08
v 0.3 0.4 5.96046e-08
v 0.6 0.4 5.96046e-08
v -0.7 0.6 0.6
v -0.6 0.6 0.6
v -0.3 0.6 0.6
v -0.2 0.6 0.6
v 0.2 0.6 0.6
v 0.3 0.6 0.6
v 0.6 0.6 0.6
v 0.7 0.6 0.6
v -0.8 0.6 0.5
v -0.7 0.6 0.5
v -0.6 0.6 0.5
v -0.3 0.6 0.5
v -0.2 0.6 0.5
v -0.1 0.6 0.5
v 0.1 0.6 0.5
v 0.2 0.6 0.5
v 0.3 0.6 0.5
v 0.6 0.6 0.5
v 0.7 0.6 0.5
v 0.8 0.6 0.5
v -0.2 0.6 0.4
v -0.1 0.6 0.4
v 0.7 0.6 0.4
v 0.8 0.6 0.4
v -0.8 0.6 0.2
v -0.7 0.6 0.2
v -0.2 0.6 0.2
v -0.1 0.6 0.2
v 0.1 0.6 0.2
v 0.2 0.6 0.2
v 0.7 0.6 0.2
v 0.8 0.6 0.2
v -0.7 0.7 0.5
v -0.6 0.7 0.5
v -0.3 0.7 0.5
v -0.2 0.7 0.5
v 0.2 0.7 0.5
v 0.3 0.7 0.5
v 0.6 0.7 0.5
v 0.7 0.7 0.5
v -0.3 0.7 0.4
v -0.2 0.7 0.4
v -0.7 0.7 0.2
v -0.6 0.7 0.2
v -0.7 0.7 5.96046e-08
v -0.6 0.7 5.96046e-08
v -0.3 0.7 5.96046e-08
v -0.2 0.7 5.96046e-08
v 0.2 0.7 5.96046e-08
v 0.3 0.7 5.96046e-08
v 0.6 0.7 5.96046e-08
v 0.7 0.7 5.96046e-08

# faces
f 3/1/1 2/1/1 1/1/1
f 4/1/1 2/1/1 3/1/1
f 10/1/1 6/1/1 5/1/1
f 11/2/1 7/2/1 6/2/1
f 11/1/1 6/1/1 10/1/1
f 12/1/1 10/1/1 5/1/1
f 12/2/1 11/2/1 10/2/1
f 13/2/1 7/2/1 11/2/1
f 13/2/1 11/2/1 12/2/1
f 13/1/1 8/1/1 7/1/1
f 14/1/1 12/1/1 5/1/1
f 15/1/1 12/1/1 14/1/1
f 16/1/1 8/1/1 13/1/1
f 17/2/1 9/2/1 8/2/1
f 17/1/1 8/1/1 16/1/1
f 18/2/1 9/2/1 17/2/1
f 19/2/1 15/2/1 14/2/1
f 20/2/1 15/2/1 19/2/1
f 21/2/1 17/2/1 16/2/1
f 22/4/1 18/4/1 17/4/1
f 22/2/1 17/2/1 21/2/1
f 23/2/1 21/2/1 20/2/1
f 24/4/1 22/4/1 21/4/1
f 24/2/1 21/2/1 23/2/1
f 25/4/1 18/4/1 22/4/1
f 25/4/1 22/4/1 24/4/1
f 30/2/1 27/2/1 26/2/1
f 31/4/1 29/4/1 28/4/1
f 31/2/1 27/2/1 30/2/1
f 31/4/1 28/4/1 27/4/1
f 32/4/1 29/4/1 31/4/1
f 33/1/1 31/1/1 30/1/1
f 34/2/1 32/2/1 31/2/1
f 34/1/1 31/1/1 33/1/1
f 35/2/1 32/2/1 34/2/1
f 36/4/1 29/4/1 32/4/1
f 36/2/1 32/2/1 35/2/1
f 37/4/1 29/4/1 36/4/1
f 40/4/1 39/4/1 38/4/1
f 41/4/1 39/4/1 40/4/1
f 46/2/1 43/2/1 42/2/1
f 47/4/1 45/4/1 44/4/1
f 47/2/1 43/2/1 46/2/1
f 47/4/1 44/4/1 43/4/1
f 48/4/1 47/4/1 46/4/1
f 49/4/1 45/4/1 47/4/1
f 49/4/1 47/4/1 48/4/1
f 55/4/1 51/4/1 50/4/1
f 56/4/1 53/4/1 52/4/1
f 57/4/1 56/4/1 52/4/1
f 58/4/1 56/4/1 57/4/1
f 59/4/1 55/4/1 54/4/1
f 60/4/1 59/4/1 58/4/1
f 61/4/1 55/4/1 59/4/1
f 61/4/1 59/4/1 60/4/1
f 61/4/1 51/4/1 55/4/1
f 66/4/1 63/4/1 62/4/1
f 66/2/1 64/2/1 63/2/1
f 67/4/1 65/4/1 64/4/1
f 67/2/1 64/2/1 66/2/1
f 68/4/1 66/4/1 62/4/1
f 68/4/1 67/4/1 66/4/1
f 69/4/1 67/4/1 68/4/1
f 70/4/1 67/4/1 69/4/1
f 71/4/1 65/4/1 67/4/1
f 71/4/1 67/4/1 70/4/1
f 73/4/2 74/4/2 77/4/2
f 74/1/2 75/1/2 77/1/2
f 75/2/2 76/2/2 78/2/2
f 77/1/2 75/1/2 78/1/2
f 78/2/2 76/2/2 79/2/2
f 72/2/2 73/2/2 80/2/2
f 73/4/2 77/4/2 81/4/2
f 80/2/2 73/2/2 81/2/2
f 77/2/2 78/2/2 82/2/2
f 81/4/2 77/4/2 82/4/2
f 78/4/2 79/4/2 83/4/2
f 82/2/2 78/2/2 83/2/2
f 81/2/2 82/2/2 84/2/2
f 82/4/2 83/4/2 85/4/2
f 84/2/2 82/2/2 85/2/2
f 83/4/2 79/4/2 86/4/2
f 85/4/2 83/4/2 86/4/2
f 87/4/2 88/4/2 92/4/2
f 89/3/2 90/3/2 93/3/2
f 93/3/2 90/3/2 94/3/2
f 93/2/2 94/2/2 95/2/2
f 95/2/2 94/2/2 96/2/2
f 95/1/2 96/1/2 97/1/2
f 97/1/2 96/1/2 98/1/2
f 91/4/2 92/4/2 100/4/2
f 98/2/2 99/2/2 101/2/2
f 99/4/2 100/4/2 102/4/2
f 101/2/2 99/2/2 102/2/2
f 92/4/2 88/4/2 103/4/2
f 102/4/2 100/4/2 103/4/2
f 100/4/2 92/4/2 103/4/2
f 104/2/2 105/2/2 108/2/2
f 106/4/2 107/4/2 109/4/2
f 108/2/2 105/2/2 109/2/2
f 105/4/2 106/4/2 109/4/2
f 108/4/2 109/4/2 110/4/2
f 109/4/2 107/4/2 111/4/2
f 110/4/2 109/4/2 111/4/2
f 110/2/2 111/2/2 112/2/2
f 111/4/2 107/4/2 113/4/2
f 112/2/2 111/2/2 113/2/2
f 113/4/2 107/4/2 114/4/2
f 115/4/2 116/4/2 117/4/2
f 117/4/2 116/4/2 118/4/2
f 119/4/2 120/4/2 121/4/2
f 121/4/2 120/4/2 122/4/2
f 122/4/2 120/4/2 123/4/2
f 123/4/2 120/4/2 124/4/2
f 125/1/2 126/1/2 131/1/2
f 131/1/2 126/1/2 132/1/2
f 126/2/2 127/2/2 133/2/2
f 132/1/2 126/1/2 133/1/2
f 127/4/2 128/4/2 134/4/2
f 133/2/2 127/2/2 134/2/2
f 128/3/2 129/3/2 135/3/2
f 134/4/2 128/4/2 135/4/2
f 129/4/2 130/4/2 136/4/2
f 135/3/2 129/3/2 136/3/2
f 131/2/2 132/2/2 137/2/2
f 137/2/2 132/2/2 138/2/2
f 135/4/2 136/4/2 139/4/2
f 136/4/2 130/4/2 140/4/2
f 139/4/2 136/4/2 140/4/2
f 137/4/2 138/4/2 141/4/2
f 139/2/2 140/2/2 142/2/2
f 140/4/2 130/4/2 143/4/2
f 142/2/2 140/2/2 143/2/2
f 137/4/2 141/4/2 144/4/2
f 144/4/2 141/4/2 145/4/2
f 142/4/2 143/4/2 147/4/2
f 145/4/2 146/4/2 148/4/2
f 146/4/2 147/4/2 148/4/2
f 143/4/2 130/4/2 149/4/2
f 148/4/2 147/4/2 149/4/2
f 147/4/2 143/4/2 149/4/2
f 150/1/2 151/1/2 153/1/2
f 153/1/2 151/1/2 154/1/2
f 151/2/2 152/2/2 155/2/2
f 154/1/2 151/1/2 155/1/2
f 155/2/2 152/2/2 156/2/2
f 153/2/2 154/2/2 157/2/2
f 154/1/2 155/1/2 158/1/2
f 157/2/2 154/2/2 158/2/2
f 155/1/2 156/1/2 158/1/2
f 158/1/2 156/1/2 159/1/2
f 157/4/2 158/4/2 160/4/2
f 158/2/2 159/2/2 161/2/2
f 160/4/2 158/4/2 161/4/2
f 161/2/2 159/2/2 162/2/2
f 166/1/3 164/1/3 163/1/3
f 167/2/3 165/2/3 164/2/3
f 167/1/3 164/1/3 166/1/3
f 168/2/3 165/2/3 167/2/3
f 169/2/3 167/2/3 166/2/3
f 170/2/3 167/2/3 169/2/3
f 171/2/3 167/2/3 170/2/3
f 172/3/3 171/3/3 170/3/3
f 175/4/3 170/4/3 169/4/3
f 175/3/3 172/3/3 170/3/3
f 176/2/3 173/2/3 172/2/3
f 176/3/3 172/3/3 175/3/3
f 177/1/3 174/1/3 173/1/3
f 177/2/3 173/2/3 176/2/3
f 178/1/3 174/1/3 177/1/3
f 179/4/3 175/4/3 169/4/3
f 180/4/3 175/4/3 179/4/3
f 181/4/3 179/4/3 169/4/3
f 182/2/3 180/2/3 179/2/3
f 182/4/3 179/4/3 181/4/3
f 183/2/3 180/2/3 182/2/3
f 184/2/3 182/2/3 181/2/3
f 185/1/3 183/1/3 182/1/3
f 185/2/3 182/2/3 184/2/3
f 186/1/3 183/1/3 185/1/3
f 187/4/3 185/4/3 184/4/3
f 187/2/3 186/2/3 185/2/3
f 188/2/3 186/2/3 187/2/3
f 190/4/3 188/4/3 187/4/3
f 190/4/3 189/4/3 188/4/3
f 191/4/3 189/4/3 190/4/3
f 192/4/3 187/4/3 184/4/3
f 192/4/3 190/4/3 187/4/3
f 193/4/3 190/4/3 192/4/3
f 194/2/3 193/2/3 192/2/3
f 195/4/3 190/4/3 193/4/3
f 195/2/3 193/2/3 194/2/3
f 196/4/3 190/4/3 195/4/3
f 197/1/3 195/1/3 194/1/3
f 197/2/3 196/2/3 195/2/3
f 198/4/3 190/4/3 196/4/3
f 198/2/3 196/2/3 197/2/3
f 199/4/3 190/4/3 198/4/3
f 201/1/3 197/1/3 194/1/3
f 201/1/3 198/1/3 197/1/3
f 202/2/3 199/2/3 198/2/3
f 202/1/3 198/1/3 201/1/3
f 203/4/3 200/4/3 199/4/3
f 203/2/3 199/2/3 202/2/3
f 204/4/3 200/4/3 203/4/3
f 207/1/3 206/1/3 205/1/3
f 208/1/3 206/1/3 207/1/3
f 209/1/3 206/1/3 208/1/3
f 211/2/3 210/2/3 209/2/3
f 212/2/3 210/2/3 211/2/3
f 218/2/3 214/2/3 213/2/3
f 219/2/3 214/2/3 218/2/3
f 220/2/3 216/2/3 215/2/3
f 221/4/3 217/4/3 216/4/3
f 221/2/3 216/2/3 220/2/3
f 222/2/3 218/2/3 217/2/3
f 222/4/3 217/4/3 221/4/3
f 223/2/3 218/2/3 222/2/3
f 227/2/3 225/2/3 224/2/3
f 228/4/3 226/4/3 225/4/3
f 228/2/3 225/2/3 227/2/3
f 229/4/3 226/4/3 228/4/3
f 231/4/3 230/4/3 229/4/3
f 232/4/3 230/4/3 231/4/3
f 238/4/3 234/4/3 233/4/3
f 239/4/3 234/4/3 238/4/3
f 240/1/3 236/1/3 235/1/3
f 241/2/3 237/2/3 236/2/3
f 241/1/3 236/1/3 240/1/3
f 242/4/3 238/4/3 237/4/3
f 242/2/3 237/2/3 241/2/3
f 243/4/3 238/4/3 242/4/3
f 246/4/3 245/4/3 244/4/3
f 247/4/3 245/4/3 246/4/3
f 248/1/4 249/1/4 250/1/4
f 250/1/4 249/1/4 251/1/4
f 251/1/4 249/1/4 252/1/4
f 253/4/4 254/4/4 255/4/4
f 255/4/4 254/4/4 256/4/4
f 257/4/4 258/4/4 259/4/4
f 259/4/4 258/4/4 260/4/4
f 261/2/4 262/2/4 265/2/4
f 262/1/4 263/1/4 266/1/4
f 265/2/4 262/2/4 266/2/4
f 263/2/4 264/2/4 267/2/4
f 266/1/4 263/1/4 267/1/4
f 267/2/4 264/2/4 268/2/4
f 269/4/4 270/4/4 271/4/4
f 271/4/4 270/4/4 272/4/4
f 273/2/4 274/2/4 276/2/4
f 276/2/4 274/2/4 277/2/4
f 274/4/4 275/4/4 278/4/4
f 277/2/4 274/2/4 278/2/4
f 278/4/4 275/4/4 279/4/4
f 276/4/4 277/4/4 280/4/4
f 280/4/4 277/4/4 281/4/4
f 276/4/4 280/4/4 282/4/4
f 280/3/4 281/3/4 282/3/4
f 281/4/4 277/4/4 283/4/4
f 282/3/4 281/3/4 283/3/4
f 283/4/4 277/4/4 284/4/4
f 282/4/4 283/4/4 285/4/4
f 283/3/4 284/3/4 285/3/4
f 285/3/4 284/3/4 286/3/4
f 276/4/4 282/4/4 289/4/4
f 286/4/4 287/4/4 289/4/4
f 282/4/4 285/4/4 289/4/4
f 285/4/4 286/4/4 289/4/4
f 289/4/4 287/4/4 290/4/4
f 290/4/4 287/4/4 291/4/4
f 288/4/4 289/4/4 292/4/4
f 289/4/4 290/4/4 292/4/4
f 292/4/4 290/4/4 293/4/4
f 293/4/4 290/4/4 294/4/4
f 294/4/4 295/4/4 296/4/4
f 293/4/4 294/4/4 296/4/4
f 296/4/4 295/4/4 297/4/4
f 293/4/4 296/4/4 298/4/4
f 298/4/4 296/4/4 299/4/4
f 298/3/4 299/3/4 300/3/4
f 299/4/4 296/4/4 301/4/4
f 300/3/4 299/3/4 301/3/4
f 301/4/4 296/4/4 302/4/4
f 300/4/4 301/4/4 303/4/4
f 301/3/4 302/3/4 303/3/4
f 302/4/4 296/4/4 304/4/4
f 303/3/4 302/3/4 304/3/4
f 304/4/4 296/4/4 305/4/4
f 300/4/4 303/4/4 307/4/4
f 305/4/4 306/4/4 307/4/4
f 304/4/4 305/4/4 307/4/4
f 303/4/4 304/4/4 307/4/4
f 307/4/4 306/4/4 308/4/4
f 311/4/5 310/4/5 309/4/5
f 312/4/5 310/4/5 311/4/5
f 321/4/5 316/4/5 315/4/5
f 321/2/5 317/2/5 316/2/5
f 322/4/5 318/4/5 317/4/5
f 322/2/5 317/2/5 321/2/5
f 323/2/5 319/2/5 318/2/5
f 323/4/5 318/4/5 322/4/5
f 324/1/5 320/1/5 319/1/5
f 324/2/5 319/2/5 323/2/5
f 325/1/5 320/1/5 324/1/5
f 326/4/5 323/4/5 322/4/5
f 326/4/5 322/4/5 321/4/5
f 326/2/5 325/2/5 324/2/5
f 326/4/5 324/4/5 323/4/5
f 327/1/5 320/1/5 325/1/5
f 327/2/5 325/2/5 326/2/5
f 328/1/5 320/1/5 327/1/5
f 329/1/5 314/1/5 313/1/5
f 330/2/5 315/2/5 314/2/5
f 330/1/5 314/1/5 329/1/5
f 331/4/5 326/4/5 321/4/5
f 331/2/5 315/2/5 330/2/5
f 331/4/5 321/4/5 315/4/5
f 331/4/5 327/4/5 326/4/5
f 332/2/5 328/2/5 327/2/5
f 332/4/5 327/4/5 331/4/5
f 333/2/5 328/2/5 332/2/5
f 334/2/5 330/2/5 329/2/5
f 335/4/5 331/4/5 330/4/5
f 335/2/5 330/2/5 334/2/5
f 335/4/5 332/4/5 331/4/5
f 335/4/5 333/4/5 332/4/5
f 336/4/5 333/4/5 335/4/5
f 337/4/5 333/4/5 336/4/5
f 338/4/5 333/4/5 337/4/5
f 339/1/5 335/1/5 334/1/5
f 340/2/5 336/2/5 335/2/5
f 340/1/5 335/1/5 339/1/5
f 341/4/5 337/4/5 336/4/5
f 341/2/5 336/2/5 340/2/5
f 342/4/5 337/4/5 341/4/5
f 343/4/5 337/4/5 342/4/5
f 344/4/5 337/4/5 343/4/5
f 345/4/5 337/4/5 344/4/5
f 346/3/5 338/3/5 337/3/5
f 346/4/5 337/4/5 345/4/5
f 347/3/5 338/3/5 346/3/5
f 348/2/5 340/2/5 339/2/5
f 349/4/5 341/4/5 340/4/5
f 349/2/5 340/2/5 348/2/5
f 349/4/5 342/4/5 341/4/5
f 350/4/5 342/4/5 349/4/5
f 351/4/5 344/4/5 343/4/5
f 352/3/5 345/3/5 344/3/5
f 352/4/5 344/4/5 351/4/5
f 353/4/5 346/4/5 345/4/5
f 353/3/5 345/3/5 352/3/5
f 353/4/5 347/4/5 346/4/5
f 354/4/5 347/4/5 353/4/5
f 359/1/5 358/1/5 357/1/5
f 360/1/5 358/1/5 359/1/5
f 361/1/5 358/1/5 360/1/5
f 362/1/5 356/1/5 355/1/5
f 363/1/5 356/1/5 362/1/5
f 364/2/5 361/2/5 360/2/5
f 365/2/5 361/2/5 364/2/5
f 366/4/6 367/4/6 368/4/6
f 368/4/6 367/4/6 369/4/6
f 370/4/6 371/4/6 375/4/6
f 371/2/6 372/2/6 376/2/6
f 375/4/6 371/4/6 376/4/6
f 372/1/6 373/1/6 377/1/6
f 376/2/6 372/2/6 377/2/6
f 373/2/6 374/2/6 378/2/6
f 377/1/6 373/1/6 378/1/6
f 378/2/6 374/2/6 379/2/6
f 376/1/6 377/1/6 380/1/6
f 377/1/6 378/1/6 380/1/6
f 380/1/6 378/1/6 381/1/6
f 380/2/6 381/2/6 382/2/6
f 382/2/6 381/2/6 383/2/6
f 382/4/6 383/4/6 385/4/6
f 385/4/6 383/4/6 386/4/6
f 385/4/6 386/4/6 388/4/6
f 386/4/6 387/4/6 388/4/6
f 384/4/6 385/4/6 388/4/6
f 388/4/6 387/4/6 389/4/6
f 390/2/6 391/2/6 395/2/6
f 391/3/6 392/3/6 396/3/6
f 395/2/6 391/2/6 396/2/6
f 396/3/6 392/3/6 397/3/6
f 395/4/6 396/4/6 398/4/6
f 396/4/6 397/4/6 398/4/6
f 393/4/6 394/4/6 399/4/6
f 398/4/6 397/4/6 400/4/6
f 400/4/6 397/4/6 401/4/6
f 401/4/6 397/4/6 402/4/6
f 393/4/6 399/4/6 403/4/6
f 400/4/6 401/4/6 404/4/6
f 401/3/6 402/3/6 405/3/6
f 404/4/6 401/4/6 405/4/6
f 405/3/6 402/3/6 406/3/6
f 393/4/6 403/4/6 407/4/6
f 407/4/6 403/4/6 408/4/6
f 409/2/6 410/2/6 418/2/6
f 418/2/6 410/2/6 419/2/6
f 411/1/6 412/1/6 420/1/6
f 420/1/6 412/1/6 421/1/6
f 413/4/6 414/4/6 424/4/6
f 424/4/6 414/4/6 425/4/6
f 415/4/6 416/4/6 426/4/6
f 426/4/6 416/4/6 427/4/6
f 421/2/6 422/2/6 429/2/6
f 429/2/6 422/2/6 430/2/6
f 427/4/6 428/4/6 431/4/6
f 431/4/6 428/4/6 432/4/6
f 417/1/6 418/1/6 433/1/6
f 433/1/6 418/1/6 434/1/6
f 429/4/6 430/4/6 435/4/6
f 435/4/6 430/4/6 436/4/6
f 423/4/6 424/4/6 437/4/6
f 437/4/6 424/4/6 438/4/6
f 431/2/6 432/2/6 439/2/6
f 439/2/6 432/2/6 440/2/6
f 443/2/6 444/2/6 449/2/6
f 449/2/6 444/2/6 450/2/6
f 441/2/6 442/2/6 451/2/6
f 451/2/6 442/2/6 452/2/6
f 451/4/6 452/4/6 453/4/6
f 453/4/6 452/4/6 454/4/6
f 449/4/6 450/4/6 455/4/6
f 455/4/6 450/4/6 456/4/6
f 445/4/6 446/4/6 457/4/6
f 457/4/6 446/4/6 458/4/6
f 447/4/6 448/4/6 459/4/6
f 459/4/6 448/4/6 460/4/6
