# Blender 3.4.1
# www.blender.org
mtllib helicopter_middle_var2_blue_body_glass.mtl
o helicopter_middle_var2_blue_body_glass
v 0.200000 0.400000 -0.700000
v 0.200000 0.400000 -0.499900
v 0.200000 0.200000 -0.499900
v 0.200000 -0.200000 0.600000
v 0.200000 0.100000 -0.400000
v 0.200000 0.200000 -0.700000
v 0.200000 -0.300000 0.100000
v 0.200000 -0.200000 0.100000
v 0.200000 -0.200000 -0.100000
v 0.200000 -0.100000 -0.100000
v 0.200000 -0.300000 0.600000
v 0.200000 -0.100000 -0.300000
v 0.200000 0.000000 -0.300000
v 0.200000 0.000000 -0.400000
v 0.200000 0.100000 -0.499900
v -0.200000 0.200000 -0.700000
v -0.200000 0.200000 -0.499900
v -0.200000 0.400000 -0.499900
v -0.200000 -0.200000 0.100000
v -0.200000 -0.300000 0.100000
v -0.200000 -0.300000 0.600000
v -0.200000 0.400000 -0.700000
v -0.200000 -0.200000 0.600000
v -0.200000 -0.100000 -0.100000
v -0.200000 -0.200000 -0.100000
v -0.200000 0.000000 -0.300000
v -0.200000 -0.100000 -0.300000
v -0.200000 0.100000 -0.400000
v -0.200000 0.000000 -0.400000
v -0.200000 0.100000 -0.499900
v -0.200000 0.200000 -0.700000
v -0.200000 0.200000 -0.499900
v -0.200000 0.100000 -0.499900
v -0.200000 0.100000 -0.400000
v -0.200000 0.000000 -0.400000
v -0.200000 0.000000 -0.300000
v -0.200000 -0.100000 -0.300000
v -0.200000 -0.100000 -0.100000
v -0.200000 -0.200000 -0.100000
v -0.200000 -0.200000 0.100000
v -0.200000 -0.300000 0.100000
v -0.200000 -0.300000 0.600000
v 0.200000 -0.200000 0.600000
v -0.200000 -0.200000 0.600000
v -0.200000 -0.300000 0.600000
v 0.200000 -0.300000 0.600000
v 0.200000 0.400000 -0.499900
v -0.200000 0.400000 -0.499900
v -0.200000 -0.200000 0.600000
v 0.200000 -0.200000 0.600000
v 0.200000 0.400000 -0.700000
v -0.200000 0.400000 -0.700000
v -0.200000 0.400000 -0.499900
v 0.200000 0.400000 -0.499900
vn 1.0000 -0.0000 -0.0000
vn -1.0000 -0.0000 -0.0000
vn -0.0000 -0.0000 1.0000
vn -0.0000 0.8779 0.4789
vn -0.0000 1.0000 -0.0000
s 0
usemtl App0.002
f 1//1 2//1 3//1
f 2//1 4//1 5//1
f 3//1 2//1 5//1
f 3//1 6//1 1//1
f 7//1 8//1 4//1
f 8//1 9//1 10//1
f 10//1 4//1 8//1
f 4//1 11//1 7//1
f 10//1 12//1 13//1
f 5//1 4//1 13//1
f 13//1 4//1 10//1
f 13//1 14//1 5//1
f 5//1 15//1 3//1
f 16//2 17//2 18//2
f 19//2 20//2 21//2
f 18//2 22//2 16//2
f 21//2 23//2 19//2
f 24//2 25//2 19//2
f 19//2 23//2 24//2
f 26//2 27//2 24//2
f 24//2 23//2 26//2
f 28//2 29//2 26//2
f 28//2 18//2 17//2
f 26//2 23//2 28//2
f 17//2 30//2 28//2
f 28//2 23//2 18//2
f 43//3 44//3 45//3
f 45//3 46//3 43//3
f 47//4 48//4 49//4
f 49//4 50//4 47//4
f 51//5 52//5 53//5
f 53//5 54//5 51//5
