# Blender 3.4.1
# www.blender.org
mtllib JR.mtl
o JR
v 0.400000 0.100000 0.499900
v 0.400000 -0.100000 0.499900
v 0.400000 -0.100000 0.400000
v 0.400000 0.200000 0.300000
v 0.400000 0.200000 0.400000
v 0.400000 0.100000 0.400000
v 0.400000 0.100000 0.300000
v -0.400000 0.100000 0.499900
v -0.400000 0.100000 0.400000
v -0.400000 -0.100000 0.400000
v -0.400000 0.200000 0.400000
v -0.400000 0.100000 0.300000
v -0.400000 0.200000 0.300000
v -0.400000 -0.100000 0.499900
v -0.400000 -0.100000 0.499900
v 0.400000 0.100000 0.499900
v -0.400000 0.100000 0.499900
v -0.400000 -0.100000 0.499900
v 0.400000 -0.100000 0.499900
v 0.400000 0.200000 0.400000
v -0.400000 0.200000 0.400000
v -0.400000 0.100000 0.499900
v 0.400000 0.100000 0.499900
v 0.400000 0.200000 0.300000
v -0.400000 0.200000 0.300000
v -0.400000 0.200000 0.400000
v 0.400000 0.200000 0.400000
v -0.400000 0.100000 0.300000
v -0.400000 0.100000 0.400000
v 0.400000 0.100000 0.400000
vn 1.0000 -0.0000 -0.0000
vn -1.0000 -0.0000 -0.0000
vn -0.0000 -0.0000 1.0000
vn -0.0000 0.7068 0.7075
vn -0.0000 1.0000 -0.0000
s 0
usemtl App0.008
f 1//1 2//1 3//1
f 4//1 5//1 6//1
f 3//1 6//1 1//1
f 6//1 5//1 1//1
f 6//1 7//1 4//1
f 8//2 9//2 10//2
f 8//2 11//2 9//2
f 12//2 9//2 11//2
f 11//2 13//2 12//2
f 10//2 14//2 8//2
f 16//3 17//3 18//3
f 18//3 19//3 16//3
f 20//4 21//4 22//4
f 22//4 23//4 20//4
f 24//5 25//5 26//5
f 26//5 27//5 24//5
o Untitled
v -0.500000 -0.200000 0.400000
v -0.500000 -0.200000 -0.000000
v -0.500000 -0.200000 -0.200000
v -0.500000 -0.200000 -0.600000
v -0.500000 -0.000000 0.400000
v -0.500000 -0.000000 0.300000
v -0.500000 0.000000 -0.500000
v -0.500000 0.000000 -0.600000
v -0.500000 0.100000 0.300000
v -0.500000 0.100000 0.000000
v -0.500000 0.100000 -0.200000
v -0.500000 0.100000 -0.500000
v -0.400000 -0.100000 0.400000
v -0.400000 0.200000 0.300000
v 0.400000 -0.200000 0.400000
v 0.400000 -0.200000 -0.600000
v 0.400000 -0.100000 0.400000
v 0.400000 -0.000000 0.400000
v 0.400000 -0.000000 0.300000
v 0.400000 0.000000 -0.600000
v 0.400000 0.100000 -0.500000
v -0.400000 -0.200000 0.400000
v -0.400000 -0.200000 -0.600000
v -0.400000 -0.100000 0.400000
v -0.400000 -0.000000 0.400000
v -0.400000 -0.000000 0.300000
v -0.400000 0.000000 -0.600000
v -0.400000 0.100000 -0.500000
v 0.400000 -0.100000 0.400000
v 0.400000 0.200000 0.300000
v 0.500000 -0.200000 0.400000
v 0.500000 -0.200000 -0.000000
v 0.500000 -0.200000 -0.200000
v 0.500000 -0.200000 -0.600000
v 0.500000 -0.000000 0.400000
v 0.500000 -0.000000 0.300000
v 0.500000 0.000000 -0.500000
v 0.500000 0.000000 -0.600000
v 0.500000 0.100000 0.300000
v 0.500000 0.100000 0.000000
v 0.500000 0.100000 -0.200000
v 0.500000 0.100000 -0.500000
v -0.400000 -0.100000 0.500000
v -0.500000 -0.200000 0.400000
v -0.500000 -0.000000 0.400000
v -0.400000 -0.200000 0.400000
v -0.400000 -0.100000 0.400000
v -0.400000 -0.000000 0.400000
v 0.400000 -0.200000 0.400000
v 0.400000 -0.100000 0.400000
v 0.400000 -0.000000 0.400000
v 0.400000 0.200000 0.400000
v 0.500000 -0.200000 0.400000
v 0.500000 -0.000000 0.400000
v -0.500000 -0.000000 0.300000
v -0.500000 0.100000 0.300000
v -0.400000 -0.000000 0.300000
v -0.400000 0.100000 0.300000
v 0.400000 -0.000000 0.300000
v 0.400000 0.100000 0.300000
v 0.500000 -0.000000 0.300000
v 0.500000 0.100000 0.300000
v -0.500000 -0.200000 -0.200000
v -0.500000 0.100000 -0.200000
v -0.400000 -0.200000 -0.200000
v -0.400000 0.100000 -0.200000
v 0.400000 -0.200000 -0.200000
v 0.400000 0.100000 -0.200000
v 0.500000 -0.200000 -0.200000
v 0.500000 0.100000 -0.200000
v -0.400000 0.100000 0.300000
v -0.500000 -0.200000 -0.000000
v -0.500000 0.100000 0.000000
v -0.400000 -0.200000 -0.000000
v -0.400000 0.100000 0.000000
v 0.400000 -0.200000 -0.000000
v 0.400000 0.100000 0.000000
v 0.500000 -0.200000 -0.000000
v 0.500000 0.100000 0.000000
v -0.500000 0.000000 -0.500000
v -0.500000 0.100000 -0.500000
v -0.400000 0.000000 -0.500000
v -0.400000 0.100000 -0.500000
v 0.400000 0.000000 -0.500000
v 0.400000 0.100000 -0.500000
v 0.500000 0.000000 -0.500000
v 0.500000 0.100000 -0.500000
v -0.500000 -0.200000 -0.600000
v -0.500000 0.000000 -0.600000
v -0.400000 -0.200000 -0.600000
v -0.400000 0.000000 -0.600000
v 0.400000 -0.200000 -0.600000
v 0.400000 0.000000 -0.600000
v 0.500000 -0.200000 -0.600000
v 0.500000 0.000000 -0.600000
v -0.500000 -0.200000 0.400000
v -0.400000 -0.200000 0.400000
v 0.400000 -0.200000 0.400000
v 0.500000 -0.200000 0.400000
v -0.500000 -0.200000 -0.000000
v -0.400000 -0.200000 -0.000000
v 0.400000 -0.200000 -0.000000
v 0.500000 -0.200000 -0.000000
v -0.500000 -0.200000 -0.200000
v -0.400000 -0.200000 -0.200000
v 0.400000 -0.200000 -0.200000
v 0.500000 -0.200000 -0.200000
v -0.500000 -0.200000 -0.600000
v -0.400000 -0.200000 -0.600000
v 0.400000 -0.200000 -0.600000
v 0.500000 -0.200000 -0.600000
v 0.400000 -0.100000 0.400000
v 0.400000 0.100000 0.300000
v -0.500000 -0.000000 0.400000
v -0.400000 -0.000000 0.400000
v 0.400000 -0.000000 0.400000
v 0.500000 -0.000000 0.400000
v -0.500000 -0.000000 0.300000
v -0.400000 -0.000000 0.300000
v 0.400000 -0.000000 0.300000
v 0.500000 -0.000000 0.300000
v -0.500000 0.000000 -0.500000
v -0.400000 0.000000 -0.500000
v 0.400000 0.000000 -0.500000
v 0.500000 0.000000 -0.500000
v -0.500000 0.000000 -0.600000
v -0.400000 0.000000 -0.600000
v 0.400000 0.000000 -0.600000
v 0.500000 0.000000 -0.600000
v -0.400000 0.100000 0.500000
v -0.500000 0.100000 0.300000
v -0.400000 0.100000 0.300000
v 0.400000 0.100000 0.300000
v 0.500000 0.100000 0.300000
v -0.500000 0.100000 0.000000
v -0.400000 0.100000 0.000000
v 0.400000 0.100000 0.000000
v 0.500000 0.100000 0.000000
v -0.500000 0.100000 -0.200000
v -0.400000 0.100000 -0.200000
v 0.400000 0.100000 -0.200000
v 0.500000 0.100000 -0.200000
v -0.500000 0.100000 -0.500000
v -0.400000 0.100000 -0.500000
v 0.400000 0.100000 -0.500000
v 0.500000 0.100000 -0.500000
v 0.400000 0.200000 0.300000
vn -1.0000 -0.0000 -0.0000
vn 1.0000 -0.0000 -0.0000
vn -0.0000 -0.0000 1.0000
vn -0.0000 -0.0000 -1.0000
vn -0.0000 -1.0000 -0.0000
vn -0.0000 1.0000 -0.0000
vt 0.970703 0.500000
vt 0.970703 0.500000
vt 0.970703 0.500000
vt 0.970703 0.500000
vt 0.970703 0.500000
vt 0.970703 0.500000
vt 0.970703 0.500000
vt 0.970703 0.500000
vt 0.970703 0.500000
vt 0.970703 0.500000
vt 0.970703 0.500000
vt 0.970703 0.500000
vt 0.970703 0.500000
vt 0.970703 0.500000
vt 0.970703 0.500000
vt 0.970703 0.500000
vt 0.970703 0.500000
vt 0.970703 0.500000
vt 0.970703 0.500000
vt 0.970703 0.500000
vt 0.970703 0.500000
vt 0.970703 0.500000
vt 0.970703 0.500000
vt 0.970703 0.500000
vt 0.970703 0.500000
vt 0.970703 0.500000
vt 0.970703 0.500000
vt 0.970703 0.500000
vt 0.970703 0.500000
vt 0.970703 0.500000
vt 0.970703 0.500000
vt 0.970703 0.500000
vt 0.970703 0.500000
vt 0.970703 0.500000
vt 0.970703 0.500000
vt 0.970703 0.500000
vt 0.970703 0.500000
vt 0.970703 0.500000
vt 0.970703 0.500000
vt 0.970703 0.500000
vt 0.970703 0.500000
vt 0.970703 0.500000
vt 0.970703 0.500000
vt 0.970703 0.500000
vt 0.970703 0.500000
vt 0.970703 0.500000
vt 0.970703 0.500000
vt 0.970703 0.500000
vt 0.970703 0.500000
vt 0.970703 0.500000
vt 0.970703 0.500000
vt 0.970703 0.500000
vt 0.970703 0.500000
vt 0.970703 0.500000
vt 0.970703 0.500000
vt 0.970703 0.500000
vt 0.970703 0.500000
vt 0.970703 0.500000
vt 0.970703 0.500000
vt 0.970703 0.500000
vt 0.970703 0.500000
vt 0.970703 0.500000
vt 0.970703 0.500000
vt 0.970703 0.500000
vt 0.970703 0.500000
vt 0.970703 0.500000
vt 0.970703 0.500000
vt 0.970703 0.500000
vt 0.970703 0.500000
vt 0.970703 0.500000
vt 0.970703 0.500000
vt 0.970703 0.500000
vt 0.970703 0.500000
vt 0.970703 0.500000
vt 0.970703 0.500000
vt 0.970703 0.500000
vt 0.970703 0.500000
vt 0.970703 0.500000
vt 0.970703 0.500000
vt 0.970703 0.500000
vt 0.970703 0.500000
vt 0.970703 0.500000
vt 0.970703 0.500000
vt 0.970703 0.500000
vt 0.970703 0.500000
vt 0.970703 0.500000
vt 0.970703 0.500000
vt 0.970703 0.500000
vt 0.970703 0.500000
vt 0.970703 0.500000
vt 0.970703 0.500000
vt 0.970703 0.500000
vt 0.970703 0.500000
vt 0.970703 0.500000
vt 0.970703 0.500000
vt 0.970703 0.500000
vt 0.970703 0.500000
vt 0.970703 0.500000
vt 0.970703 0.500000
vt 0.970703 0.500000
vt 0.970703 0.500000
vt 0.970703 0.500000
vt 0.970703 0.500000
vt 0.970703 0.500000
vt 0.970703 0.500000
vt 0.970703 0.500000
vt 0.970703 0.500000
vt 0.970703 0.500000
vt 0.970703 0.500000
vt 0.970703 0.500000
vt 0.970703 0.500000
vt 0.970703 0.500000
vt 0.970703 0.500000
vt 0.970703 0.500000
vt 0.970703 0.500000
vt 0.970703 0.500000
vt 0.970703 0.500000
vt 0.970703 0.500000
vt 0.970703 0.500000
vt 0.970703 0.500000
vt 0.970703 0.500000
vt 0.970703 0.500000
s 0
usemtl palette
f 35/5/6 32/2/6 31/1/6
f 36/6/6 32/2/6 35/5/6
f 37/7/6 34/4/6 33/3/6
f 38/8/6 34/4/6 37/7/6
f 39/9/6 32/2/6 36/6/6
f 40/10/6 32/2/6 39/9/6
f 41/11/6 37/7/6 33/3/6
f 42/12/6 37/7/6 41/11/6
f 61/13/7 62/14/7 65/17/7
f 65/17/7 62/14/7 66/18/7
f 63/15/7 64/16/7 67/19/7
f 67/19/7 64/16/7 68/20/7
f 66/18/7 62/14/7 69/21/7
f 69/21/7 62/14/7 70/22/7
f 63/15/7 67/19/7 71/23/7
f 71/23/7 67/19/7 72/24/7
f 76/27/8 75/26/8 74/25/8
f 77/28/8 75/26/8 76/27/8
f 78/29/8 75/26/8 77/28/8
f 83/33/8 81/32/8 80/31/8
f 83/33/8 80/31/8 79/30/8
f 84/34/8 81/32/8 83/33/8
f 87/37/8 86/36/8 85/35/8
f 88/38/8 86/36/8 87/37/8
f 91/41/8 90/40/8 89/39/8
f 92/42/8 90/40/8 91/41/8
f 95/45/8 94/44/8 93/43/8
f 96/46/8 94/44/8 95/45/8
f 99/49/8 98/48/8 97/47/8
f 100/50/8 98/48/8 99/49/8
f 102/51/9 103/52/9 104/53/9
f 104/53/9 103/52/9 105/54/9
f 106/55/9 107/56/9 108/57/9
f 108/57/9 107/56/9 109/58/9
f 110/59/9 111/60/9 112/61/9
f 112/61/9 111/60/9 113/62/9
f 114/63/9 115/64/9 116/65/9
f 116/65/9 115/64/9 117/66/9
f 118/67/9 119/68/9 120/69/9
f 120/69/9 119/68/9 121/70/9
f 122/71/9 123/72/9 124/73/9
f 124/73/9 123/72/9 125/74/9
f 130/79/10 127/76/10 126/75/10
f 131/80/10 127/76/10 130/79/10
f 132/81/10 129/78/10 128/77/10
f 133/82/10 129/78/10 132/81/10
f 138/87/10 135/84/10 134/83/10
f 139/88/10 135/84/10 138/87/10
f 140/89/10 137/86/10 136/85/10
f 141/90/10 137/86/10 140/89/10
f 144/91/11 145/92/11 148/95/11
f 148/95/11 145/92/11 149/96/11
f 146/93/11 147/94/11 150/97/11
f 150/97/11 147/94/11 151/98/11
f 152/99/11 153/100/11 156/103/11
f 156/103/11 153/100/11 157/104/11
f 154/101/11 155/102/11 158/105/11
f 158/105/11 155/102/11 159/106/11
f 161/107/11 162/108/11 165/111/11
f 165/111/11 162/108/11 166/112/11
f 163/109/11 164/110/11 167/113/11
f 167/113/11 164/110/11 168/114/11
f 169/115/11 170/116/11 173/119/11
f 173/119/11 170/116/11 174/120/11
f 171/117/11 172/118/11 175/121/11
f 175/121/11 172/118/11 176/122/11
l 45 47
l 47 48
l 55 56
l 53 57
l 48 49
l 46 50
l 52 54
l 54 55
