# Blender 3.4.1
# www.blender.org
mtllib tank_var_1_red_barrel.mtl
o Untitled
v -0.100000 -0.100000 1.500000
v -0.100000 -0.100000 1.100000
v -0.100000 -0.100000 0.800000
v -0.100000 -0.100000 0.700000
v -0.100000 -0.100000 0.600000
v -0.100000 -0.100000 0.500000
v -0.100000 -0.100000 0.400000
v -0.100000 -0.100000 0.300000
v -0.100000 -0.100000 0.200000
v -0.100000 -0.100000 0.100000
v -0.100000 -0.100000 -0.000000
v -0.100000 -0.000000 1.500000
v -0.100000 -0.000000 1.400000
v -0.100000 -0.000000 1.300000
v -0.100000 -0.000000 1.200000
v -0.100000 -0.000000 1.100000
v -0.100000 -0.000000 1.000000
v -0.100000 -0.000000 0.900000
v -0.100000 -0.000000 0.800000
v -0.100000 -0.000000 0.700000
v -0.100000 -0.000000 0.600000
v -0.100000 -0.000000 0.500000
v -0.100000 -0.000000 0.400000
v -0.100000 -0.000000 0.300000
v -0.100000 -0.000000 0.200000
v -0.100000 -0.000000 0.100000
v -0.100000 0.100000 1.500000
v -0.100000 0.100000 1.400000
v -0.100000 0.100000 1.300000
v -0.100000 0.100000 1.200000
v -0.100000 0.100000 1.100000
v -0.100000 0.100000 1.000000
v -0.100000 0.100000 0.900000
v -0.100000 0.100000 0.800000
v -0.100000 0.100000 0.700000
v -0.100000 0.100000 0.600000
v -0.100000 0.100000 0.500000
v -0.100000 0.100000 0.400000
v -0.100000 0.100000 0.300000
v -0.100000 0.100000 0.100000
v -0.100000 0.100000 0.000000
v -0.100000 0.100000 -0.100000
v 0.100000 -0.100000 1.500000
v 0.100000 -0.100000 1.400000
v 0.100000 -0.100000 1.200000
v 0.100000 -0.100000 1.100000
v 0.100000 -0.100000 0.900000
v 0.100000 -0.100000 0.800000
v 0.100000 -0.100000 0.600000
v 0.100000 -0.100000 0.500000
v 0.100000 -0.100000 0.400000
v 0.100000 -0.100000 0.300000
v 0.100000 -0.100000 0.200000
v 0.100000 -0.100000 -0.000000
v 0.100000 -0.000000 1.500000
v 0.100000 -0.000000 1.400000
v 0.100000 -0.000000 1.300000
v 0.100000 -0.000000 1.200000
v 0.100000 -0.000000 1.100000
v 0.100000 -0.000000 1.000000
v 0.100000 -0.000000 0.900000
v 0.100000 -0.000000 0.800000
v 0.100000 -0.000000 0.700000
v 0.100000 -0.000000 0.600000
v 0.100000 -0.000000 0.500000
v 0.100000 -0.000000 0.400000
v 0.100000 -0.000000 0.300000
v 0.100000 -0.000000 0.200000
v 0.100000 -0.000000 0.100000
v 0.100000 0.100000 1.500000
v 0.100000 0.100000 1.400000
v 0.100000 0.100000 1.100000
v 0.100000 0.100000 1.000000
v 0.100000 0.100000 0.900000
v 0.100000 0.100000 0.800000
v 0.100000 0.100000 0.700000
v 0.100000 0.100000 0.600000
v 0.100000 0.100000 0.500000
v 0.100000 0.100000 0.400000
v 0.100000 0.100000 0.300000
v 0.100000 0.100000 0.100000
v -0.100000 -0.100000 1.600000
v 0.100000 -0.100000 1.600000
v 0.100000 -0.100000 -0.100000
v 0.100000 0.100000 -0.100000
v 0.000000 -0.100000 1.500000
v -0.100000 -0.100000 1.400000
v 0.000000 -0.100000 1.400000
v -0.100000 -0.100000 1.300000
v 0.000000 -0.100000 1.300000
v 0.100000 -0.100000 1.300000
v -0.100000 -0.100000 1.200000
v 0.000000 -0.100000 1.200000
v 0.000000 -0.100000 1.100000
v -0.100000 -0.100000 1.000000
v 0.000000 -0.100000 1.000000
v 0.100000 -0.100000 1.000000
v -0.100000 -0.100000 0.900000
v 0.000000 -0.100000 0.900000
v 0.000000 -0.100000 0.800000
v 0.000000 -0.100000 0.700000
v 0.100000 -0.100000 0.700000
v 0.000000 -0.100000 0.600000
v 0.000000 -0.100000 0.500000
v 0.000000 -0.100000 0.400000
v 0.000000 -0.100000 0.300000
v 0.000000 -0.100000 0.200000
v 0.000000 -0.100000 0.100000
v 0.100000 -0.100000 0.100000
v -0.100000 -0.100000 -0.100000
v -0.100000 0.100000 1.600000
v 0.100000 0.100000 1.600000
v 0.000000 0.100000 1.500000
v 0.000000 0.100000 1.400000
v 0.000000 0.100000 1.300000
v 0.100000 0.100000 1.300000
v 0.000000 0.100000 1.200000
v 0.100000 0.100000 1.200000
v 0.000000 0.100000 1.100000
v 0.000000 0.100000 1.000000
v 0.000000 0.100000 0.900000
v 0.000000 0.100000 0.800000
v 0.000000 0.100000 0.700000
v 0.000000 0.100000 0.600000
v 0.000000 0.100000 0.500000
v 0.000000 0.100000 0.400000
v 0.000000 0.100000 0.300000
v -0.100000 0.100000 0.200000
v 0.000000 0.100000 0.200000
v 0.100000 0.100000 0.200000
v 0.000000 0.100000 0.100000
v 0.100000 0.100000 0.000000
vn -1.0000 -0.0000 -0.0000
vn 1.0000 -0.0000 -0.0000
vn -0.0000 -0.0000 1.0000
vn -0.0000 -0.0000 -1.0000
vn -0.0000 -1.0000 -0.0000
vn -0.0000 1.0000 -0.0000
vt 0.005859 0.500000
vt 0.943359 0.500000
vt 0.939453 0.500000
vt 0.861328 0.500000
vt 0.978516 0.500000
vt 0.216797 0.500000
vt 0.216797 0.500000
vt 0.048828 0.500000
vt 0.048828 0.500000
vt 0.521484 0.500000
vt 0.521484 0.500000
vt 0.701172 0.500000
vt 0.701172 0.500000
vt 0.091797 0.500000
vt 0.091797 0.500000
vt 0.154297 0.500000
vt 0.154297 0.500000
vt 0.775391 0.500000
vt 0.775391 0.500000
vt 0.544922 0.500000
vt 0.544922 0.500000
vt 0.595703 0.500000
vt 0.943359 0.500000
vt 0.072266 0.500000
vt 0.005859 0.500000
vt 0.943359 0.500000
vt 0.107422 0.500000
vt 0.912109 0.500000
vt 0.072266 0.500000
vt 0.107422 0.500000
vt 0.064453 0.500000
vt 0.927734 0.500000
vt 0.912109 0.500000
vt 0.064453 0.500000
vt 0.939453 0.500000
vt 0.912109 0.500000
vt 0.927734 0.500000
vt 0.939453 0.500000
vt 0.861328 0.500000
vt 0.748047 0.500000
vt 0.912109 0.500000
vt 0.861328 0.500000
vt 0.779297 0.500000
vt 0.314453 0.500000
vt 0.748047 0.500000
vt 0.779297 0.500000
vt 0.978516 0.500000
vt 0.205078 0.500000
vt 0.314453 0.500000
vt 0.978516 0.500000
vt 0.216797 0.500000
vt 0.376953 0.500000
vt 0.205078 0.500000
vt 0.216797 0.500000
vt 0.048828 0.500000
vt 0.810547 0.500000
vt 0.376953 0.500000
vt 0.048828 0.500000
vt 0.521484 0.500000
vt 0.771484 0.500000
vt 0.810547 0.500000
vt 0.521484 0.500000
vt 0.701172 0.500000
vt 0.162109 0.500000
vt 0.771484 0.500000
vt 0.701172 0.500000
vt 0.091797 0.500000
vt 0.845703 0.500000
vt 0.162109 0.500000
vt 0.091797 0.500000
vt 0.154297 0.500000
vt 0.544922 0.500000
vt 0.845703 0.500000
vt 0.154297 0.500000
vt 0.775391 0.500000
vt 0.052734 0.500000
vt 0.544922 0.500000
vt 0.775391 0.500000
vt 0.544922 0.500000
vt 0.052734 0.500000
vt 0.005859 0.500000
vt 0.072266 0.500000
vt 0.072266 0.500000
vt 0.912109 0.500000
vt 0.912109 0.500000
vt 0.927734 0.500000
vt 0.927734 0.500000
vt 0.912109 0.500000
vt 0.912109 0.500000
vt 0.748047 0.500000
vt 0.748047 0.500000
vt 0.314453 0.500000
vt 0.314453 0.500000
vt 0.205078 0.500000
vt 0.205078 0.500000
vt 0.376953 0.500000
vt 0.376953 0.500000
vt 0.810547 0.500000
vt 0.810547 0.500000
vt 0.771484 0.500000
vt 0.771484 0.500000
vt 0.162109 0.500000
vt 0.162109 0.500000
vt 0.845703 0.500000
vt 0.845703 0.500000
vt 0.544922 0.500000
vt 0.052734 0.500000
vt 0.544922 0.500000
vt 0.544922 0.500000
vt 0.595703 0.500000
vt 0.595703 0.500000
vt 0.005859 0.500000
vt 0.861328 0.500000
vt 0.861328 0.500000
vt 0.345703 0.500000
vt 0.056641 0.500000
vt 0.396484 0.500000
vt 0.396484 0.500000
vt 0.107422 0.500000
vt 0.271484 0.500000
vt 0.087891 0.500000
vt 0.087891 0.500000
vt 0.130859 0.500000
vt 0.712891 0.500000
vt 0.576172 0.500000
vt 0.576172 0.500000
vt 0.900391 0.500000
vt 0.900391 0.500000
vt 0.490234 0.500000
vt 0.490234 0.500000
vt 0.556641 0.500000
vt 0.556641 0.500000
vt 0.056641 0.500000
vt 0.544922 0.500000
vt 0.595703 0.500000
vt 0.861328 0.500000
vt 0.634766 0.500000
vt 0.005859 0.500000
vt 0.861328 0.500000
vt 0.345703 0.500000
vt 0.357422 0.500000
vt 0.634766 0.500000
vt 0.345703 0.500000
vt 0.056641 0.500000
vt 0.955078 0.500000
vt 0.357422 0.500000
vt 0.056641 0.500000
vt 0.396484 0.500000
vt 0.224609 0.500000
vt 0.955078 0.500000
vt 0.396484 0.500000
vt 0.107422 0.500000
vt 0.431641 0.500000
vt 0.224609 0.500000
vt 0.107422 0.500000
vt 0.271484 0.500000
vt 0.330078 0.500000
vt 0.431641 0.500000
vt 0.271484 0.500000
vt 0.087891 0.500000
vt 0.982422 0.500000
vt 0.330078 0.500000
vt 0.087891 0.500000
vt 0.130859 0.500000
vt 0.564453 0.500000
vt 0.982422 0.500000
vt 0.130859 0.500000
vt 0.712891 0.500000
vt 0.271484 0.500000
vt 0.564453 0.500000
vt 0.712891 0.500000
vt 0.576172 0.500000
vt 0.451172 0.500000
vt 0.271484 0.500000
vt 0.576172 0.500000
vt 0.900391 0.500000
vt 0.759766 0.500000
vt 0.451172 0.500000
vt 0.900391 0.500000
vt 0.490234 0.500000
vt 0.869141 0.500000
vt 0.759766 0.500000
vt 0.490234 0.500000
vt 0.556641 0.500000
vt 0.275391 0.500000
vt 0.869141 0.500000
vt 0.556641 0.500000
vt 0.056641 0.500000
vt 0.119141 0.500000
vt 0.275391 0.500000
vt 0.056641 0.500000
vt 0.544922 0.500000
vt 0.119141 0.500000
vt 0.005859 0.500000
vt 0.634766 0.500000
vt 0.634766 0.500000
vt 0.357422 0.500000
vt 0.224609 0.500000
vt 0.431641 0.500000
vt 0.431641 0.500000
vt 0.330078 0.500000
vt 0.330078 0.500000
vt 0.982422 0.500000
vt 0.982422 0.500000
vt 0.564453 0.500000
vt 0.564453 0.500000
vt 0.271484 0.500000
vt 0.271484 0.500000
vt 0.451172 0.500000
vt 0.451172 0.500000
vt 0.759766 0.500000
vt 0.759766 0.500000
vt 0.869141 0.500000
vt 0.869141 0.500000
vt 0.275391 0.500000
vt 0.119141 0.500000
vt 0.544922 0.500000
vt 0.005859 0.500000
vt 0.005859 0.500000
vt 0.595703 0.500000
vt 0.595703 0.500000
vt 0.005859 0.500000
vt 0.861328 0.500000
vt 0.943359 0.500000
vt 0.943359 0.500000
vt 0.107422 0.500000
vt 0.943359 0.500000
vt 0.861328 0.500000
vt 0.345703 0.500000
vt 0.107422 0.500000
vt 0.107422 0.500000
vt 0.064453 0.500000
vt 0.107422 0.500000
vt 0.345703 0.500000
vt 0.056641 0.500000
vt 0.064453 0.500000
vt 0.345703 0.500000
vt 0.056641 0.500000
vt 0.064453 0.500000
vt 0.939453 0.500000
vt 0.064453 0.500000
vt 0.056641 0.500000
vt 0.396484 0.500000
vt 0.939453 0.500000
vt 0.939453 0.500000
vt 0.396484 0.500000
vt 0.107422 0.500000
vt 0.861328 0.500000
vt 0.861328 0.500000
vt 0.779297 0.500000
vt 0.861328 0.500000
vt 0.107422 0.500000
vt 0.271484 0.500000
vt 0.779297 0.500000
vt 0.107422 0.500000
vt 0.271484 0.500000
vt 0.779297 0.500000
vt 0.978516 0.500000
vt 0.779297 0.500000
vt 0.271484 0.500000
vt 0.087891 0.500000
vt 0.978516 0.500000
vt 0.978516 0.500000
vt 0.087891 0.500000
vt 0.130859 0.500000
vt 0.216797 0.500000
vt 0.216797 0.500000
vt 0.130859 0.500000
vt 0.712891 0.500000
vt 0.048828 0.500000
vt 0.130859 0.500000
vt 0.712891 0.500000
vt 0.048828 0.500000
vt 0.712891 0.500000
vt 0.576172 0.500000
vt 0.521484 0.500000
vt 0.521484 0.500000
vt 0.576172 0.500000
vt 0.900391 0.500000
vt 0.701172 0.500000
vt 0.701172 0.500000
vt 0.900391 0.500000
vt 0.490234 0.500000
vt 0.091797 0.500000
vt 0.091797 0.500000
vt 0.490234 0.500000
vt 0.556641 0.500000
vt 0.154297 0.500000
vt 0.154297 0.500000
vt 0.556641 0.500000
vt 0.056641 0.500000
vt 0.775391 0.500000
vt 0.775391 0.500000
vt 0.056641 0.500000
vt 0.544922 0.500000
vt 0.056641 0.500000
vt 0.544922 0.500000
vt 0.595703 0.500000
vt 0.005859 0.500000
vt 0.005859 0.500000
vt 0.005859 0.500000
vt 0.634766 0.500000
vt 0.072266 0.500000
vt 0.072266 0.500000
vt 0.634766 0.500000
vt 0.357422 0.500000
vt 0.912109 0.500000
vt 0.912109 0.500000
vt 0.357422 0.500000
vt 0.955078 0.500000
vt 0.927734 0.500000
vt 0.357422 0.500000
vt 0.955078 0.500000
vt 0.927734 0.500000
vt 0.955078 0.500000
vt 0.224609 0.500000
vt 0.912109 0.500000
vt 0.955078 0.500000
vt 0.224609 0.500000
vt 0.912109 0.500000
vt 0.224609 0.500000
vt 0.431641 0.500000
vt 0.748047 0.500000
vt 0.748047 0.500000
vt 0.431641 0.500000
vt 0.330078 0.500000
vt 0.314453 0.500000
vt 0.314453 0.500000
vt 0.330078 0.500000
vt 0.982422 0.500000
vt 0.205078 0.500000
vt 0.205078 0.500000
vt 0.982422 0.500000
vt 0.564453 0.500000
vt 0.376953 0.500000
vt 0.376953 0.500000
vt 0.564453 0.500000
vt 0.271484 0.500000
vt 0.810547 0.500000
vt 0.810547 0.500000
vt 0.271484 0.500000
vt 0.451172 0.500000
vt 0.771484 0.500000
vt 0.771484 0.500000
vt 0.451172 0.500000
vt 0.759766 0.500000
vt 0.162109 0.500000
vt 0.162109 0.500000
vt 0.759766 0.500000
vt 0.869141 0.500000
vt 0.845703 0.500000
vt 0.845703 0.500000
vt 0.869141 0.500000
vt 0.275391 0.500000
vt 0.544922 0.500000
vt 0.544922 0.500000
vt 0.052734 0.500000
vt 0.544922 0.500000
vt 0.275391 0.500000
vt 0.119141 0.500000
vt 0.052734 0.500000
vt 0.275391 0.500000
vt 0.119141 0.500000
vt 0.052734 0.500000
vt 0.119141 0.500000
vt 0.544922 0.500000
vt 0.544922 0.500000
vt 0.595703 0.500000
s 0
usemtl palette.007
f 12/25/1 1/1/1 82/218/1
f 12/23/1 87/225/1 1/2/1
f 13/27/1 89/231/1 87/226/1
f 13/26/1 87/225/1 12/23/1
f 14/31/1 92/239/1 89/232/1
f 14/30/1 89/231/1 13/27/1
f 15/35/1 2/3/1 92/240/1
f 15/34/1 92/239/1 14/31/1
f 16/39/1 95/249/1 2/4/1
f 16/38/1 2/3/1 15/35/1
f 17/43/1 98/257/1 95/250/1
f 17/42/1 95/249/1 16/39/1
f 18/47/1 3/5/1 98/258/1
f 18/46/1 98/257/1 17/43/1
f 19/51/1 4/7/1 3/6/1
f 19/50/1 3/5/1 18/47/1
f 20/55/1 5/9/1 4/8/1
f 20/54/1 4/7/1 19/51/1
f 21/59/1 6/11/1 5/10/1
f 21/58/1 5/9/1 20/55/1
f 22/63/1 7/13/1 6/12/1
f 22/62/1 6/11/1 21/59/1
f 23/67/1 8/15/1 7/14/1
f 23/66/1 7/13/1 22/63/1
f 24/71/1 9/17/1 8/16/1
f 24/70/1 8/15/1 23/67/1
f 25/75/1 10/19/1 9/18/1
f 25/74/1 9/17/1 24/71/1
f 26/79/1 11/21/1 10/20/1
f 26/78/1 10/19/1 25/75/1
f 111/299/1 12/25/1 82/218/1
f 27/82/1 13/29/1 12/24/1
f 27/81/1 12/25/1 111/299/1
f 28/84/1 14/33/1 13/28/1
f 28/83/1 13/29/1 27/82/1
f 29/86/1 15/37/1 14/32/1
f 29/85/1 14/33/1 28/84/1
f 30/88/1 16/41/1 15/36/1
f 30/87/1 15/37/1 29/86/1
f 31/90/1 17/45/1 16/40/1
f 31/89/1 16/41/1 30/88/1
f 32/92/1 18/49/1 17/44/1
f 32/91/1 17/45/1 31/90/1
f 33/94/1 19/53/1 18/48/1
f 33/93/1 18/49/1 32/92/1
f 34/96/1 20/57/1 19/52/1
f 34/95/1 19/53/1 33/94/1
f 35/98/1 21/61/1 20/56/1
f 35/97/1 20/57/1 34/96/1
f 36/100/1 22/65/1 21/60/1
f 36/99/1 21/61/1 35/98/1
f 37/102/1 23/69/1 22/64/1
f 37/101/1 22/65/1 36/100/1
f 38/104/1 24/73/1 23/68/1
f 38/103/1 23/69/1 37/102/1
f 39/106/1 25/77/1 24/72/1
f 39/105/1 24/73/1 38/104/1
f 128/357/1 26/80/1 25/76/1
f 128/356/1 25/77/1 39/106/1
f 40/108/1 11/21/1 26/79/1
f 40/107/1 26/80/1 128/357/1
f 41/110/1 110/298/1 11/22/1
f 41/109/1 11/21/1 40/108/1
f 42/111/1 110/298/1 41/110/1
f 83/219/2 43/112/2 55/138/2
f 43/113/2 44/114/2 55/136/2
f 44/115/2 91/237/2 56/140/2
f 55/136/2 44/114/2 56/139/2
f 91/238/2 45/116/2 57/144/2
f 56/140/2 91/237/2 57/143/2
f 45/117/2 46/118/2 58/148/2
f 57/144/2 45/116/2 58/147/2
f 46/119/2 97/255/2 59/152/2
f 58/148/2 46/118/2 59/151/2
f 97/256/2 47/120/2 60/156/2
f 59/152/2 97/255/2 60/155/2
f 47/121/2 48/122/2 61/160/2
f 60/156/2 47/120/2 61/159/2
f 48/123/2 102/271/2 62/164/2
f 61/160/2 48/122/2 62/163/2
f 102/272/2 49/124/2 63/168/2
f 62/164/2 102/271/2 63/167/2
f 49/125/2 50/126/2 64/172/2
f 63/168/2 49/124/2 64/171/2
f 50/127/2 51/128/2 65/176/2
f 64/172/2 50/126/2 65/175/2
f 51/129/2 52/130/2 66/180/2
f 65/176/2 51/128/2 66/179/2
f 52/131/2 53/132/2 67/184/2
f 66/180/2 52/130/2 67/183/2
f 53/133/2 109/296/2 68/188/2
f 67/184/2 53/132/2 68/187/2
f 109/297/2 54/134/2 69/192/2
f 68/188/2 109/296/2 69/191/2
f 83/219/2 55/138/2 112/300/2
f 55/137/2 56/142/2 70/195/2
f 112/300/2 55/138/2 70/194/2
f 56/141/2 57/146/2 71/197/2
f 70/195/2 56/142/2 71/196/2
f 57/145/2 58/150/2 116/313/2
f 71/197/2 57/146/2 116/312/2
f 58/149/2 59/154/2 118/319/2
f 116/313/2 58/150/2 118/318/2
f 59/153/2 60/158/2 72/199/2
f 118/319/2 59/154/2 72/198/2
f 60/157/2 61/162/2 73/201/2
f 72/199/2 60/158/2 73/200/2
f 61/161/2 62/166/2 74/203/2
f 73/201/2 61/162/2 74/202/2
f 62/165/2 63/170/2 75/205/2
f 74/203/2 62/166/2 75/204/2
f 63/169/2 64/174/2 76/207/2
f 75/205/2 63/170/2 76/206/2
f 64/173/2 65/178/2 77/209/2
f 76/207/2 64/174/2 77/208/2
f 65/177/2 66/182/2 78/211/2
f 77/209/2 65/178/2 78/210/2
f 66/181/2 67/186/2 79/213/2
f 78/211/2 66/182/2 79/212/2
f 67/185/2 68/190/2 80/215/2
f 79/213/2 67/186/2 80/214/2
f 68/189/2 69/193/2 130/363/2
f 80/215/2 68/190/2 130/362/2
f 69/192/2 54/134/2 81/217/2
f 130/363/2 69/193/2 81/216/2
f 54/135/2 84/220/2 132/368/2
f 81/217/2 54/134/2 132/367/2
f 132/368/2 84/220/2 85/221/2
f 83/219/3 111/299/3 82/218/3
f 112/300/3 111/299/3 83/219/3
f 110/298/4 42/111/4 84/220/4
f 84/220/4 42/111/4 85/221/4
f 1/1/5 83/219/5 82/218/5
f 86/222/5 83/219/5 1/1/5
f 43/112/5 83/219/5 86/222/5
f 87/225/5 86/224/5 1/2/5
f 88/228/5 43/113/5 86/223/5
f 88/227/5 86/224/5 87/225/5
f 44/114/5 43/113/5 88/228/5
f 89/231/5 88/230/5 87/226/5
f 90/234/5 44/115/5 88/229/5
f 90/233/5 88/230/5 89/231/5
f 91/237/5 44/115/5 90/234/5
f 92/239/5 90/236/5 89/232/5
f 93/242/5 91/238/5 90/235/5
f 93/241/5 90/236/5 92/239/5
f 45/116/5 91/238/5 93/242/5
f 2/3/5 93/244/5 92/240/5
f 94/246/5 45/117/5 93/243/5
f 94/245/5 93/244/5 2/3/5
f 46/118/5 45/117/5 94/246/5
f 95/249/5 94/248/5 2/4/5
f 96/252/5 46/119/5 94/247/5
f 96/251/5 94/248/5 95/249/5
f 97/255/5 46/119/5 96/252/5
f 98/257/5 96/254/5 95/250/5
f 99/260/5 97/256/5 96/253/5
f 99/259/5 96/254/5 98/257/5
f 47/120/5 97/256/5 99/260/5
f 3/5/5 99/262/5 98/258/5
f 100/264/5 47/121/5 99/261/5
f 100/263/5 99/262/5 3/5/5
f 48/122/5 47/121/5 100/264/5
f 4/7/5 100/266/5 3/6/5
f 101/268/5 48/123/5 100/265/5
f 101/267/5 100/266/5 4/7/5
f 102/271/5 48/123/5 101/268/5
f 5/9/5 101/270/5 4/8/5
f 103/274/5 102/272/5 101/269/5
f 103/273/5 101/270/5 5/9/5
f 49/124/5 102/272/5 103/274/5
f 6/11/5 103/276/5 5/10/5
f 104/278/5 49/125/5 103/275/5
f 104/277/5 103/276/5 6/11/5
f 50/126/5 49/125/5 104/278/5
f 7/13/5 104/280/5 6/12/5
f 105/282/5 50/127/5 104/279/5
f 105/281/5 104/280/5 7/13/5
f 51/128/5 50/127/5 105/282/5
f 8/15/5 105/284/5 7/14/5
f 106/286/5 51/129/5 105/283/5
f 106/285/5 105/284/5 8/15/5
f 52/130/5 51/129/5 106/286/5
f 9/17/5 106/288/5 8/16/5
f 107/290/5 52/131/5 106/287/5
f 107/289/5 106/288/5 9/17/5
f 53/132/5 52/131/5 107/290/5
f 10/19/5 107/292/5 9/18/5
f 108/294/5 53/133/5 107/291/5
f 108/293/5 107/292/5 10/19/5
f 109/296/5 53/133/5 108/294/5
f 11/21/5 108/295/5 10/20/5
f 11/21/5 109/297/5 108/295/5
f 54/134/5 109/297/5 11/21/5
f 110/298/5 54/135/5 11/22/5
f 84/220/5 54/135/5 110/298/5
f 111/299/6 112/300/6 27/81/6
f 27/81/6 112/300/6 113/301/6
f 113/301/6 112/300/6 70/194/6
f 27/82/6 113/303/6 28/83/6
f 113/302/6 70/195/6 114/305/6
f 28/83/6 113/303/6 114/304/6
f 114/305/6 70/195/6 71/196/6
f 28/84/6 114/307/6 29/85/6
f 114/306/6 71/197/6 115/309/6
f 29/85/6 114/307/6 115/308/6
f 115/309/6 71/197/6 116/312/6
f 29/86/6 115/311/6 30/87/6
f 115/310/6 116/313/6 117/315/6
f 30/87/6 115/311/6 117/314/6
f 117/315/6 116/313/6 118/318/6
f 30/88/6 117/317/6 31/89/6
f 117/316/6 118/319/6 119/321/6
f 31/89/6 117/317/6 119/320/6
f 119/321/6 118/319/6 72/198/6
f 31/90/6 119/323/6 32/91/6
f 119/322/6 72/199/6 120/325/6
f 32/91/6 119/323/6 120/324/6
f 120/325/6 72/199/6 73/200/6
f 32/92/6 120/327/6 33/93/6
f 120/326/6 73/201/6 121/329/6
f 33/93/6 120/327/6 121/328/6
f 121/329/6 73/201/6 74/202/6
f 33/94/6 121/331/6 34/95/6
f 121/330/6 74/203/6 122/333/6
f 34/95/6 121/331/6 122/332/6
f 122/333/6 74/203/6 75/204/6
f 34/96/6 122/335/6 35/97/6
f 122/334/6 75/205/6 123/337/6
f 35/97/6 122/335/6 123/336/6
f 123/337/6 75/205/6 76/206/6
f 35/98/6 123/339/6 36/99/6
f 123/338/6 76/207/6 124/341/6
f 36/99/6 123/339/6 124/340/6
f 124/341/6 76/207/6 77/208/6
f 36/100/6 124/343/6 37/101/6
f 124/342/6 77/209/6 125/345/6
f 37/101/6 124/343/6 125/344/6
f 125/345/6 77/209/6 78/210/6
f 37/102/6 125/347/6 38/103/6
f 125/346/6 78/211/6 126/349/6
f 38/103/6 125/347/6 126/348/6
f 126/349/6 78/211/6 79/212/6
f 38/104/6 126/351/6 39/105/6
f 126/350/6 79/213/6 127/353/6
f 39/105/6 126/351/6 127/352/6
f 127/353/6 79/213/6 80/214/6
f 39/106/6 127/355/6 128/356/6
f 127/354/6 80/215/6 129/359/6
f 128/356/6 127/355/6 129/358/6
f 129/359/6 80/215/6 130/362/6
f 128/357/6 129/361/6 40/107/6
f 129/360/6 130/363/6 131/365/6
f 40/107/6 129/361/6 131/364/6
f 131/365/6 130/363/6 81/216/6
f 40/108/6 131/366/6 41/109/6
f 131/366/6 81/217/6 41/109/6
f 41/109/6 81/217/6 132/367/6
f 41/110/6 132/368/6 42/111/6
f 42/111/6 132/368/6 85/221/6
