# ProBuilder 5.0.7
# https://unity3d.com/unity/features/worldbuilding/probuilder
# 19.01.2025 18:01:21

mtllib ./cornerRock_2.mtl
o cornerRock_2

g cornerRock_2
v 8 0 -8
v 8 0 -7
v 7 0 -8
v 7 0 -7
v 8 0 -6
v 7 0 -6
v 8 0 -5
v 7 0 -5
v 8 0 -4
v 7 0 -4
v 8 0 -3
v 7 0 -3
v 8 0 -2
v 7 0 -2
v 8 0 -1
v 7 0 -1
v 8 0 0
v 7 0 0
v 8 0 1
v 7 0 1
v 8 0 2
v 7 0 2
v 8 0 3
v 7 0 3
v 8 0 4
v 7 0 4
v 8 0 5
v 7 0 5
v 8 0 6
v 7 0 6
v 8 0 7
v 7 0 7
v 8 0 8
v 7 0 8
v 6 0 -8
v 6 0 -7
v 6 0 -6
v 6 0 -5
v 6 0 -4
v 6 0 -3
v 6 0 -2
v 6 0 -1
v 6 0 0
v 6 0 1
v 6 0 2
v 6 0 3
v 6 0 4
v 6 0 5
v 6 0 6
v 6 0 7
v 6 0 8
v 5 0 -8
v 5 0 -7
v 5 0 -6
v 5 0 -5
v 5 0 -4
v 5 0 -3
v 5 0 -2
v 5 0 -1
v 5 0 0
v 5 0 1
v 5 0 2
v 5 0 3
v 5 0 4
v 5 0 5
v 5 0 6
v 4.999999 0.8141808 7.000001
v 4.999999 0.8141808 8.000001
v 4 0 -8
v 4 0 -7
v 4 0 -6
v 4 0 -5
v 4 0 -4
v 4 0 -3
v 4 0 -2
v 4 0 -1
v 4 0 0
v 4 0 1
v 4 0 2
v 4 0 3
v 4 0 4
v 4 0 5
v 4 0 6
v 3.999999 0.8141808 7.000001
v 3.999999 0.8141808 8.000001
v 3 0 -8
v 3 0 -7
v 3 0 -6
v 3 0 -5
v 3 0 -4
v 3 0 -3
v 3 0 -2
v 3 0 -1
v 3 0 0
v 3 0 1
v 3 0 2
v 3 0 3
v 3 0 4
v 3 0 5
v 2.999999 0.8141808 6.000001
v 2.999999 1.81114 7.000001
v 2.999999 1.81114 8.000001
v 2 0 -8
v 2 0 -7
v 2 0 -6
v 2 0 -5
v 2 0 -4
v 2 0 -3
v 2 0 -2
v 2 0 -1
v 2 0 0
v 2 0 1
v 2 0 2
v 2 0 3
v 2 0 4
v 1.999999 0.8141808 5.000001
v 1.999999 1.81114 6.000001
v 1.999999 2.761113 7.000001
v 1.999999 2.761113 8.000001
v 1 0 -8
v 1 0 -7
v 1 0 -6
v 1 0 -5
v 1 0 -4
v 1 0 -3
v 1 0 -2
v 1 0 -1
v 1 0 0
v 1 0 1
v 1 0 2
v 1 0 3
v 1 0 4
v 0.999999 0.8141808 5.000001
v 0.999999 1.81114 6.000001
v 0.999999 2.761113 7.000001
v 0.999999 2.761113 8.000001
v 0 0 -8
v 0 0 -7
v 0 0 -6
v 0 0 -5
v 0 0 -4
v 0 0 -3
v 0 0 -2
v 0 0 -1
v 0 0 0
v 0 0 1
v 0 0 2
v 0 0 3
v 0 0.8141808 4
v 0 1.81114 5.000001
v 0 2.761113 6.000001
v 0 2.761113 7.000001
v 0 2.761113 8.000001
v -1 0 -8
v -1 0 -7
v -1 0 -6
v -1 0 -5
v -1 0 -4
v -1 0 -3
v -1 0 -2
v -1 0 -1
v -1 0 0
v -1 0 1
v -1 0 2
v -1 0 3
v -1 0.8141808 4
v -1 1.81114 5.000001
v -1 2.761113 6.000001
v -1 3.65053 7.000001
v -1 3.65053 8.000001
v -2 0 -8
v -2 0 -7
v -2 0 -6
v -2 0 -5
v -2 0 -4
v -2 0 -3
v -2 0 -2
v -2 0 -1
v -2 0 0
v -2 0 1
v -2 0.8141808 2
v -2 0.8141808 3
v -2 1.81114 4
v -2 2.761113 5.000001
v -2 2.761113 6.000001
v -2 3.65053 7.000001
v -2 3.65053 8.000001
v -3 0 -8
v -3 0 -7
v -3 0 -6
v -3 0 -5
v -3 0 -4
v -3 0 -3
v -3 0 -2
v -3 0 -1
v -3 0 0
v -3 0.8141808 1
v -3 1.81114 2
v -3 1.81114 3
v -3 2.761113 4
v -3 2.761113 5.000001
v -3 3.65053 6.000001
v -3 4.564556 7.000001
v -3 4.564556 8.000001
v -4 0 -8
v -4 0 -7
v -4 0 -6
v -4 0 -5
v -4 0 -4
v -4 0 -3
v -4 0 -2
v -4 0 -1
v -4 0 0
v -4 0.8141808 1
v -4 1.81114 2
v -4 2.761113 3
v -4 2.761113 4
v -4 3.65053 5.000001
v -4 4.564556 6.000001
v -4 5.482711 7.000001
v -4 5.482711 8.000001
v -5 0 -8
v -5 0 -7
v -5 0 -6
v -5 0 -5
v -5 0 -4
v -5 0 -3
v -5 0 -2
v -5 0 -1
v -5 0.8141808 0
v -5 1.81114 1
v -5 2.761113 2
v -5 2.761113 3
v -5 3.65053 4
v -5 4.564556 5.000001
v -5 5.482711 6.000001
v -5 4.664974 7.000001
v -5 4.664974 8.000001
v -6 0 -8
v -6 0 -7
v -6 0 -6
v -6 0 -5
v -6 0 -4
v -6 0 -3
v -6 0 -2
v -6 0.8141808 -1
v -6 1.81114 0
v -6 2.761113 1
v -6 2.761113 2
v -6 3.65053 3
v -6 4.564556 4
v -6 5.482711 5.000001
v -6 4.664974 6.000001
v -6 4.682767 7.000001
v -6 4.682767 8.000001
v -7 0 -8
v -7 0 -7
v -7 0 -6
v -7 0 -5
v -7 0 -4
v -7 0.8141808 -3
v -7 0.8141808 -2
v -7 1.81114 -1
v -7 2.761113 0
v -7 2.761113 1
v -7 3.65053 2
v -7 4.564556 3
v -7 5.482711 4
v -7 4.664974 5.000001
v -7 4.682767 6.000001
v -7 4.716074 7.000001
v -7 4.716074 8.000001
v -8 0 -8
v -8 0 -7
v -8 0 -6
v -8 0 -5
v -8 0 -4
v -8 0.8141808 -3
v -8 0.8141808 -2
v -8 1.81114 -1
v -8 2.761113 0
v -8 2.761113 1
v -8 3.65053 2
v -8 4.564556 3
v -8 5.482711 4
v -8 4.664974 5.000001
v -8 4.682767 6.000001
v -8 4.716074 7.000001
v -8 4.716074 8.000001

vt -8 -8
vt -8 -7
vt -7 -8
vt -7 -7
vt -8 -6
vt -7 -6
vt -8 -5
vt -7 -5
vt -8 -4
vt -7 -4
vt -8 -3
vt -7 -3
vt -8 -2
vt -7 -2
vt -8 -1
vt -7 -1
vt -8 0
vt -7 0
vt -8 1
vt -7 1
vt -8 2
vt -7 2
vt -8 3
vt -7 3
vt -8 4
vt -7 4
vt -8 5
vt -7 5
vt -8 6
vt -7 6
vt -8 7
vt -7 7
vt -8 8
vt -7 8
vt -6 -8
vt -6 -7
vt -6 -6
vt -6 -5
vt -6 -4
vt -6 -3
vt -6 -2
vt -6 -1
vt -6 0
vt -6 1
vt -6 2
vt -6 3
vt -6 4
vt -6 5
vt -6 6
vt -6 7
vt -6 8
vt -5 -8
vt -5 -7
vt -5 -6
vt -5 -5
vt -5 -4
vt -5 -3
vt -5 -2
vt -5 -1
vt -5 0
vt -5 1
vt -5 2
vt -5 3
vt -5 4
vt -5 5
vt -5 6
vt -4.999999 7.000001
vt -4.652856 7
vt -4.652856 8
vt -3.363324 7.000001
vt -3.363324 8.000001
vt -4 -8
vt -4 -7
vt -4 -6
vt -4 -5
vt -4 -4
vt -4 -3
vt -4 -2
vt -4 -1
vt -4 0
vt -4 1
vt -4 2
vt -4 3
vt -4 4
vt -4 5
vt -4 6
vt -5 4.652856
vt -4.999999 5.942388
vt -4 4.652856
vt -3.999999 5.942388
vt -4.999999 8.000001
vt -3.999999 7.000001
vt -3.999999 8.000001
vt -3 -8
vt -3 -7
vt -3 -6
vt -3 -5
vt -3 -4
vt -3 -3
vt -3 -2
vt -3 -1
vt -3 0
vt -3 1
vt -3 2
vt -3 3
vt -3 4
vt -3 5
vt -2.999999 6.000001
vt -3.101905 6.421691
vt -2.58785 7.604331
vt -1.812373 6.421692
vt -1.182917 7.680003
vt -2.257895 7.000001
vt -2.257895 8.000001
vt -0.8458298 7.000001
vt -0.8458298 8.000001
vt -2 -8
vt -2 -7
vt -2 -6
vt -2 -5
vt -2 -4
vt -2 -3
vt -2 -2
vt -2 -1
vt -2 0
vt -2 1
vt -2 2
vt -2 3
vt -2 4
vt -1.999999 5.000001
vt -2.326429 5.239051
vt -1.036897 5.239052
vt -0.4074403 6.497364
vt -1.549712 6.455659
vt -0.8458295 7.679782
vt -0.1376468 6.455659
vt 0.5330619 7.66059
vt -0.9276239 7.000001
vt -0.9276239 8.000001
vt 0.4516689 7.000001
vt 0.4516689 8.000001
vt -1 -8
vt -1 -7
vt -1 -6
vt -1 -5
vt -1 -4
vt -1 -3
vt -1 -2
vt -1 -1
vt -1 0
vt -1 1
vt -1 2
vt -1 3
vt -1 4
vt -2 3.101904
vt -1.999999 4.391436
vt -1 3.101904
vt -0.999999 4.391436
vt -1.999999 4.11575
vt -1.999999 5.527815
vt -0.999999 4.11575
vt -0.999999 5.527815
vt -1.999999 5.597459
vt -1.999999 6.976752
vt -0.999999 5.597459
vt -0.999999 6.976752
vt -1.999999 7.000001
vt -1.999999 8.000001
vt -0.999999 7.000001
vt -0.999999 8.000001
vt 0 -8
vt 0 -7
vt 0 -6
vt 0 -5
vt 0 -4
vt 0 -3
vt 0 -2
vt 0 -1
vt 0 0
vt 0 1
vt 0 2
vt 0 3
vt 0 4
vt -0.7754757 3.719339
vt -0.2614196 4.901979
vt 0.5140554 3.719339
vt 1.143513 4.977651
vt -0.133346 4.824325
vt 0.5705366 6.048447
vt 1.278718 4.824325
vt 1.949427 6.029255
vt 0.5223956 6.076874
vt 1.176679 7.291107
vt 1.901688 6.076874
vt 1.901688 6.90044
vt 0 7.000001
vt 0 8.000001
vt 1 -8
vt 1 -7
vt 1 -6
vt 1 -5
vt 1 -4
vt 1 -3
vt 1 -2
vt 1 -1
vt 1 0
vt 1 1
vt 1 2
vt 1 3
vt 0 2.326427
vt 0 3.615958
vt 1 2.326427
vt 1 3.615958
vt 0 3.407568
vt 0 4.819633
vt 1 3.407568
vt 1 4.819633
vt 0 4.87245
vt 0 6.251742
vt 1 4.87245
vt 1 6.251742
vt 0 6.000001
vt 1 6.000001
vt 1 7.000001
vt 1.834993 7.000001
vt 1.834993 8.000001
vt 3.173299 7.000001
vt 3.173299 8.000001
vt 2 -8
vt 2 -7
vt 2 -6
vt 2 -5
vt 2 -4
vt 2 -3
vt 2 -2
vt 2 -1
vt 2 0
vt 2 1
vt 2 2
vt 0.7754757 2
vt 0.7754757 3
vt 2.065007 2
vt 2.065007 3
vt 0.7754757 2.199623
vt 1.289531 3.382263
vt 2.065007 2.199623
vt 2.694464 3.457934
vt 1.283018 3.19299
vt 1.9869 4.417114
vt 2.695083 3.19299
vt 3.365792 4.397922
vt 1.972412 4.471974
vt 2.626696 5.686207
vt 3.351705 4.471974
vt 3.351705 5.295539
vt 1 6.318273
vt 1 7.656579
vt 2 6.318273
vt 2 7.656579
vt 1 8.000001
vt 2 7.000001
vt 2 8.000001
vt 3 -8
vt 3 -7
vt 3 -6
vt 3 -5
vt 3 -4
vt 3 -3
vt 3 -2
vt 3 -1
vt 3 0
vt 3 1
vt 1.550951 0.1714174
vt 2.065007 1.354057
vt 2.840482 0.1714174
vt 3.46994 1.429728
vt 1.991201 2
vt 1.991201 3
vt 3.403266 2
vt 3.403266 3
vt 1.991201 1.968866
vt 3.403266 1.968866
vt 4.073974 3.173797
vt 2.697422 3.257741
vt 4.076714 3.257741
vt 4.076714 4.081307
vt 2 5.000001
vt 2 6.000001
vt 3 5.000001
vt 3 6.000001
vt 3.329419 5.403352
vt 3.920512 6.604049
vt 4.667725 5.403352
vt 5.275172 6.614226
vt 3.939133 7.000001
vt 3.939133 8.000001
vt 5.293918 7.000001
vt 5.293918 8.000001
vt 4 -8
vt 4 -7
vt 4 -6
vt 4 -5
vt 4 -4
vt 4 -3
vt 4 -2
vt 4 -1
vt 4 0
vt 3 1.289531
vt 4 1.289531
vt 3 1.283018
vt 3 2.695083
vt 4 1.283018
vt 4 2.695083
vt 3 2
vt 3 3
vt 4 2
vt 4 3
vt 3.422431 2.043507
vt 4.801723 2.043507
vt 4.801723 2.867072
vt 3 4
vt 4 4
vt 4 5.000001
vt 4.076632 4.202656
vt 5.414938 4.202656
vt 6.022386 5.41353
vt 4.677257 5.348894
vt 5.293918 6.555199
vt 6.032042 5.348894
vt 6.651489 6.556903
vt 5.296925 7.000001
vt 5.296925 8.000001
vt 6.654499 7.000001
vt 6.654499 8.000001
vt 5 -8
vt 5 -7
vt 5 -6
vt 5 -5
vt 5 -4
vt 5 -3
vt 5 -2
vt 5 -1
vt 5 0
vt 3.101903 -1.348297
vt 3.615958 -0.1656568
vt 4.391434 -1.348297
vt 5.020891 -0.08998585
vt 3.407566 -0.4793805
vt 4.111448 0.7447426
vt 4.819631 -0.4793805
vt 5.49034 0.7255509
vt 4.14744 0.8292742
vt 5.526732 0.8292742
vt 5.526732 1.652839
vt 5 3
vt 5 4
vt 4.823845 3.001959
vt 6.162151 3.001959
vt 6.769598 4.212834
vt 5.415381 4.142588
vt 6.770166 4.142588
vt 7.389613 5.350598
vt 6.033533 5.33812
vt 6.654499 6.545352
vt 7.391107 5.33812
vt 6.838055 5.82901
vt -0.3742233 7.000001
vt -0.3742233 8.000001
vt 0.9175559 7.000001
vt 0.9175559 8.000001
vt 6 -8
vt 6 -7
vt 6 -6
vt 6 -5
vt 6 -4
vt 6 -3
vt 6 -2
vt 6 -1
vt 3.877378 -2.530937
vt 5.166909 -2.530937
vt 5.796367 -1.272626
vt 4.115748 -1.703503
vt 5.527813 -1.703504
vt 6.198522 -0.4985722
vt 4.872449 -0.3849587
vt 6.251742 -0.3849587
vt 6.251742 0.4386064
vt 5 2
vt 6 2
vt 6 3
vt 5.571058 1.801261
vt 6.909365 1.801261
vt 7.516812 3.012136
vt 6.153505 2.936283
vt 7.508291 2.936283
vt 8.127737 4.144294
vt 6.770141 4.130888
vt 8.127715 4.130888
vt 7.574663 4.621778
vt 0.3999032 1.106506
vt 0.9175561 2.29003
vt 1.691682 1.106506
vt 1.680419 1.944073
vt 5.082198 7.000001
vt 5.082198 8.000001
vt 6.082356 7.000001
vt 6.082356 8.000001
vt 7 -8
vt 7 -7
vt 7 -6
vt 7 -5
vt 7 -4
vt 7 -3
vt 4.652854 -3
vt 4.652854 -2
vt 5.942385 -3
vt 5.942385 -2
vt 4.652854 -3.713577
vt 5.942385 -3.713577
vt 6.571843 -2.455266
vt 4.823931 -2.927627
vt 6.235996 -2.927627
vt 6.906705 -1.722695
vt 5.597458 -1.599192
vt 6.976751 -1.599192
vt 6.976751 -0.7756265
vt 6 1
vt 7 1
vt 7 2
vt 6.318272 0.6005648
vt 7.656578 0.6005648
vt 8.264025 1.811439
vt 6.89163 1.729977
vt 8.246415 1.729977
vt 8.865862 2.937986
vt 7.506748 2.923657
vt 8.864323 2.923657
vt 8.311271 3.414548
vt 1.174029 -0.07701766
vt 2.465808 -0.07701765
vt 2.454545 0.7605495
vt 6.08204 6.080116
vt 6.082356 7.080275
vt 7.082198 6.080116
vt 7.082791 7.080551
vt 6.152555 7.000001
vt 6.152555 8.000001
vt 7.15311 7.000001
vt 7.15311 8.000001
vt 8 -8
vt 8 -7
vt 8 -6
vt 8 -5
vt 8 -4
vt 7 -3.101903
vt 7 -1.812372
vt 8 -3.101903
vt 8 -1.812372
vt 7 -2
vt 8 -3
vt 8 -2
vt 7 -0.8415301
vt 7 0.5705349
vt 8 -0.8415301
vt 8 0.5705349
vt 7 0.5223938
vt 7 1.901687
vt 8 0.5223938
vt 8 1.901687
vt 7 0
vt 8 0
vt 8 1
vt 7 2.582206
vt 7 3.920512
vt 8 2.582206
vt 8 3.920512
vt 7 3.939132
vt 7 5.293918
vt 8 3.939132
vt 8 5.293918
vt 7 5.296925
vt 7 6.654499
vt 8 5.296925
vt 8 6.654499
vt 7 -0.3742201
vt 7 0.9175597
vt 8 -0.3742201
vt 8 0.9175597
vt 7 5.082199
vt 7 6.082357
vt 8 5.082199
vt 8 6.082357
vt 7 6.152556
vt 7 7.153111
vt 8 6.152556
vt 8 7.153111
vt 7 7.000001
vt 7 8.000001
vt 8 7.000001
vt 8 8.000001

vn 0 1 0
vn 0.2669354 0.8278582 -0.2669354
vn 0.5338708 0.6557165 -0.5338708
vn 0.631377 0.775476 0
vn 0 0.775476 -0.631377
vn 0.555317 0.6171194 -0.555317
vn 0.5767633 0.5785224 -0.5767633
vn 0.7060292 0.7081828 0
vn 0.5719925 0.5878074 -0.5719925
vn 0.5672216 0.5970924 -0.5672216
vn 0.6887392 0.7250092 0
vn 0 0.7081828 -0.7060292
vn 0 0.7250092 -0.6887392
vn 0.283611 0.7985461 -0.2836107
vn 0.2767495 0.8111582 -0.2767495
vn 0.553499 0.6223164 -0.553499
vn 0.6645844 0.7472132 0
vn 0 0.7472132 -0.6645844
vn 0.5563905 0.6171025 -0.5563905
vn 0.5592819 0.6118885 -0.5592819
vn 0.6746647 0.7381244 0
vn 0.5597528 0.6110257 -0.5597528
vn 0.5602238 0.6101628 -0.5602238
vn 0.67632 0.7366079 0
vn 0.01267692 0.6321243 -0.01267692
vn -0.53487 0.6540859 0.53487
vn -0.6330314 0.7741262 0
vn -0.2585414 0.8268847 0.2585414
vn 0.01778707 0.9996836 -0.01778707
vn 0.01778989 0.9998417 0
vn 0.02552839 0.9992881 -0.02552839
vn 0.03326971 0.9988925 -0.03326971
vn 0.03328814 0.9994458 0
vn 0 0.7381244 -0.6746647
vn 0 0.7366079 -0.67632
vn 0 0.7741265 0.633031
vn 0 0.9998417 -0.01778989
vn 0 0.9994458 -0.03328814

usemtl RockDarkBase
f 3/3/1 4/4/1 2/2/1 1/1/1
f 4/4/1 6/6/1 5/5/1 2/2/1
f 6/6/1 8/8/1 7/7/1 5/5/1
f 8/8/1 10/10/1 9/9/1 7/7/1
f 10/10/1 12/12/1 11/11/1 9/9/1
f 12/12/1 14/14/1 13/13/1 11/11/1
f 14/14/1 16/16/1 15/15/1 13/13/1
f 16/16/1 18/18/1 17/17/1 15/15/1
f 18/18/1 20/20/1 19/19/1 17/17/1
f 20/20/1 22/22/1 21/21/1 19/19/1
f 22/22/1 24/24/1 23/23/1 21/21/1
f 24/24/1 26/26/1 25/25/1 23/23/1
f 26/26/1 28/28/1 27/27/1 25/25/1
f 28/28/1 30/30/1 29/29/1 27/27/1
f 30/30/1 32/32/1 31/31/1 29/29/1
f 32/32/1 34/34/1 33/33/1 31/31/1
f 35/35/1 36/36/1 4/4/1 3/3/1
f 36/36/1 37/37/1 6/6/1 4/4/1
f 37/37/1 38/38/1 8/8/1 6/6/1
f 38/38/1 39/39/1 10/10/1 8/8/1
f 39/39/1 40/40/1 12/12/1 10/10/1
f 40/40/1 41/41/1 14/14/1 12/12/1
f 41/41/1 42/42/1 16/16/1 14/14/1
f 42/42/1 43/43/1 18/18/1 16/16/1
f 43/43/1 44/44/1 20/20/1 18/18/1
f 44/44/1 45/45/1 22/22/1 20/20/1
f 45/45/1 46/46/1 24/24/1 22/22/1
f 46/46/1 47/47/1 26/26/1 24/24/1
f 47/47/1 48/48/1 28/28/1 26/26/1
f 48/48/1 49/49/1 30/30/1 28/28/1
f 49/49/1 50/50/1 32/32/1 30/30/1
f 50/50/1 51/51/1 34/34/1 32/32/1
f 52/52/1 53/53/1 36/36/1 35/35/1
f 53/53/1 54/54/1 37/37/1 36/36/1
f 54/54/1 55/55/1 38/38/1 37/37/1
f 55/55/1 56/56/1 39/39/1 38/38/1
f 56/56/1 57/57/1 40/40/1 39/39/1
f 57/57/1 58/58/1 41/41/1 40/40/1
f 58/58/1 59/59/1 42/42/1 41/41/1
f 59/59/1 60/60/1 43/43/1 42/42/1
f 60/60/1 61/61/1 44/44/1 43/43/1
f 61/61/1 62/62/1 45/45/1 44/44/1
f 62/62/1 63/63/1 46/46/1 45/45/1
f 63/63/1 64/64/1 47/47/1 46/46/1
f 64/64/1 65/65/1 48/48/1 47/47/1
f 65/65/1 66/66/1 49/49/1 48/48/1
f 69/72/1 70/73/1 53/53/1 52/52/1
f 70/73/1 71/74/1 54/54/1 53/53/1
f 71/74/1 72/75/1 55/55/1 54/54/1
f 72/75/1 73/76/1 56/56/1 55/55/1
f 73/76/1 74/77/1 57/57/1 56/56/1
f 74/77/1 75/78/1 58/58/1 57/57/1
f 75/78/1 76/79/1 59/59/1 58/58/1
f 76/79/1 77/80/1 60/60/1 59/59/1
f 77/80/1 78/81/1 61/61/1 60/60/1
f 78/81/1 79/82/1 62/62/1 61/61/1
f 79/82/1 80/83/1 63/63/1 62/62/1
f 80/83/1 81/84/1 64/64/1 63/63/1
f 81/84/1 82/85/1 65/65/1 64/64/1
f 82/85/1 83/86/1 66/66/1 65/65/1
f 86/94/1 87/95/1 70/73/1 69/72/1
f 87/95/1 88/96/1 71/74/1 70/73/1
f 88/96/1 89/97/1 72/75/1 71/74/1
f 89/97/1 90/98/1 73/76/1 72/75/1
f 90/98/1 91/99/1 74/77/1 73/76/1
f 91/99/1 92/100/1 75/78/1 74/77/1
f 92/100/1 93/101/1 76/79/1 75/78/1
f 93/101/1 94/102/1 77/80/1 76/79/1
f 94/102/1 95/103/1 78/81/1 77/80/1
f 95/103/1 96/104/1 79/82/1 78/81/1
f 96/104/1 97/105/1 80/83/1 79/82/1
f 97/105/1 98/106/1 81/84/1 80/83/1
f 98/106/1 99/107/1 82/85/1 81/84/1
f 103/117/1 104/118/1 87/95/1 86/94/1
f 104/118/1 105/119/1 88/96/1 87/95/1
f 105/119/1 106/120/1 89/97/1 88/96/1
f 106/120/1 107/121/1 90/98/1 89/97/1
f 107/121/1 108/122/1 91/99/1 90/98/1
f 108/122/1 109/123/1 92/100/1 91/99/1
f 109/123/1 110/124/1 93/101/1 92/100/1
f 110/124/1 111/125/1 94/102/1 93/101/1
f 111/125/1 112/126/1 95/103/1 94/102/1
f 112/126/1 113/127/1 96/104/1 95/103/1
f 113/127/1 114/128/1 97/105/1 96/104/1
f 114/128/1 115/129/1 98/106/1 97/105/1
f 120/142/1 121/143/1 104/118/1 103/117/1
f 121/143/1 122/144/1 105/119/1 104/118/1
f 122/144/1 123/145/1 106/120/1 105/119/1
f 123/145/1 124/146/1 107/121/1 106/120/1
f 124/146/1 125/147/1 108/122/1 107/121/1
f 125/147/1 126/148/1 109/123/1 108/122/1
f 126/148/1 127/149/1 110/124/1 109/123/1
f 127/149/1 128/150/1 111/125/1 110/124/1
f 128/150/1 129/151/1 112/126/1 111/125/1
f 129/151/1 130/152/1 113/127/1 112/126/1
f 130/152/1 131/153/1 114/128/1 113/127/1
f 131/153/1 132/154/1 115/129/1 114/128/1
f 137/171/1 138/172/1 121/143/1 120/142/1
f 138/172/1 139/173/1 122/144/1 121/143/1
f 139/173/1 140/174/1 123/145/1 122/144/1
f 140/174/1 141/175/1 124/146/1 123/145/1
f 141/175/1 142/176/1 125/147/1 124/146/1
f 142/176/1 143/177/1 126/148/1 125/147/1
f 143/177/1 144/178/1 127/149/1 126/148/1
f 144/178/1 145/179/1 128/150/1 127/149/1
f 145/179/1 146/180/1 129/151/1 128/150/1
f 146/180/1 147/181/1 130/152/1 129/151/1
f 147/181/1 148/182/1 131/153/1 130/152/1
f 154/198/1 155/199/1 138/172/1 137/171/1
f 155/199/1 156/200/1 139/173/1 138/172/1
f 156/200/1 157/201/1 140/174/1 139/173/1
f 157/201/1 158/202/1 141/175/1 140/174/1
f 158/202/1 159/203/1 142/176/1 141/175/1
f 159/203/1 160/204/1 143/177/1 142/176/1
f 160/204/1 161/205/1 144/178/1 143/177/1
f 161/205/1 162/206/1 145/179/1 144/178/1
f 162/206/1 163/207/1 146/180/1 145/179/1
f 163/207/1 164/208/1 147/181/1 146/180/1
f 164/208/1 165/209/1 148/182/1 147/181/1
f 171/229/1 172/230/1 155/199/1 154/198/1
f 172/230/1 173/231/1 156/200/1 155/199/1
f 173/231/1 174/232/1 157/201/1 156/200/1
f 174/232/1 175/233/1 158/202/1 157/201/1
f 175/233/1 176/234/1 159/203/1 158/202/1
f 176/234/1 177/235/1 160/204/1 159/203/1
f 177/235/1 178/236/1 161/205/1 160/204/1
f 178/236/1 179/237/1 162/206/1 161/205/1
f 179/237/1 180/238/1 163/207/1 162/206/1
f 188/263/1 189/264/1 172/230/1 171/229/1
f 189/264/1 190/265/1 173/231/1 172/230/1
f 190/265/1 191/266/1 174/232/1 173/231/1
f 191/266/1 192/267/1 175/233/1 174/232/1
f 192/267/1 193/268/1 176/234/1 175/233/1
f 193/268/1 194/269/1 177/235/1 176/234/1
f 194/269/1 195/270/1 178/236/1 177/235/1
f 195/270/1 196/271/1 179/237/1 178/236/1
f 205/299/1 206/300/1 189/264/1 188/263/1
f 206/300/1 207/301/1 190/265/1 189/264/1
f 207/301/1 208/302/1 191/266/1 190/265/1
f 208/302/1 209/303/1 192/267/1 191/266/1
f 209/303/1 210/304/1 193/268/1 192/267/1
f 210/304/1 211/305/1 194/269/1 193/268/1
f 211/305/1 212/306/1 195/270/1 194/269/1
f 212/306/1 213/307/1 196/271/1 195/270/1
f 222/335/1 223/336/1 206/300/1 205/299/1
f 223/336/1 224/337/1 207/301/1 206/300/1
f 224/337/1 225/338/1 208/302/1 207/301/1
f 225/338/1 226/339/1 209/303/1 208/302/1
f 226/339/1 227/340/1 210/304/1 209/303/1
f 227/340/1 228/341/1 211/305/1 210/304/1
f 228/341/1 229/342/1 212/306/1 211/305/1
f 234/358/19 235/359/20 218/325/19 217/357/16
f 239/371/1 240/372/1 223/336/1 222/335/1
f 240/372/1 241/373/1 224/337/1 223/336/1
f 241/373/1 242/374/1 225/338/1 224/337/1
f 242/374/1 243/375/1 226/339/1 225/338/1
f 243/375/1 244/376/1 227/340/1 226/339/1
f 244/376/1 245/377/1 228/341/1 227/340/1
f 250/392/19 251/393/20 234/358/19 233/391/16
f 256/408/1 257/409/1 240/372/1 239/371/1
f 257/409/1 258/410/1 241/373/1 240/372/1
f 258/410/1 259/411/1 242/374/1 241/373/1
f 259/411/1 260/412/1 243/375/1 242/374/1
f 267/434/22 268/435/23 251/395/22 250/433/20
f 273/450/1 274/451/1 257/409/1 256/408/1
f 274/451/1 275/452/1 258/410/1 257/409/1
f 275/452/1 276/453/1 259/411/1 258/410/1
f 276/453/1 277/454/1 260/412/1 259/411/1

usemtl RockDarkAll
f 152/196/1 153/197/1 136/170/1 135/169/1
f 288/499/1 289/500/1 272/498/1 271/497/1

usemtl RockDarkVert
f 277/457/5 278/458/5 261/456/5 260/455/5
f 285/487/36 286/488/36 269/486/36 268/485/36

usemtl RockDarkHor
f 148/182/2 149/183/3 132/154/2 131/153/1
f 217/322/15 218/323/16 201/289/15 200/321/1
f 233/355/15 234/356/16 217/322/15 216/317/1
f 249/389/15 250/390/16 233/355/15 232/388/1
f 260/412/2 261/413/3 244/376/2 243/375/1
f 261/416/4 262/417/4 245/415/4 244/414/4

usemtl MossyRockBase
f 254/406/30 255/407/30 238/405/30 237/404/30
f 271/448/33 272/449/33 255/447/33 254/446/33
f 286/491/37 287/492/37 270/490/37 269/489/37
f 287/495/38 288/496/38 271/494/38 270/493/38

usemtl RedSandAll
f 84/92/1 85/93/1 68/91/1 67/67/1
f 186/261/1 187/262/1 170/260/1 169/224/1
f 278/460/1 279/461/1 262/459/1 261/413/1
f 281/471/1 282/472/1 265/428/1 264/470/1

usemtl RedSandHor
f 66/66/2 67/67/3 50/50/2 49/49/1
f 67/70/4 68/71/4 51/69/4 50/68/4
f 99/107/2 100/108/3 83/86/2 82/85/1
f 115/129/2 116/130/3 99/107/2 98/106/1
f 118/140/11 119/141/11 102/139/11 101/138/11
f 168/223/15 169/224/16 152/196/15 151/222/1
f 196/271/2 197/272/3 180/238/2 179/237/1
f 198/279/8 199/280/8 182/278/8 181/277/8
f 201/289/15 202/290/16 185/288/15 184/287/1
f 203/297/21 204/298/21 187/296/21 186/295/21
f 220/333/24 221/334/24 204/332/24 203/331/24
f 245/377/2 246/378/3 229/342/2 228/341/1
f 265/428/15 266/429/16 249/389/15 248/427/1

usemtl RedSandVert
f 83/89/5 84/90/5 67/88/5 66/87/5
f 133/161/12 134/162/12 117/160/12 116/159/12
f 134/165/13 135/166/13 118/164/13 117/163/13
f 166/216/12 167/217/12 150/215/12 149/214/12
f 185/258/18 186/259/18 169/257/18 168/256/18
f 213/307/5 214/309/5 197/308/5 196/271/5
f 214/312/12 215/313/12 198/311/12 197/310/12
f 279/464/12 280/465/12 263/463/12 262/462/12
f 280/468/13 281/469/13 264/467/13 263/466/13
f 282/475/18 283/476/18 266/474/18 265/473/18
f 283/479/34 284/480/34 267/478/34 266/477/34

usemtl RedSandBase
f 116/132/6 117/133/7 100/111/6 99/131/3
f 117/136/9 118/137/10 101/135/9 100/134/7
f 150/190/9 151/191/10 134/189/9 133/188/7
f 182/246/6 183/247/7 166/245/6 165/244/3
f 183/250/9 184/251/10 167/249/9 166/248/7
f 197/275/6 198/276/7 181/274/6 180/273/3
f 199/282/9 200/283/10 183/250/9 182/281/7
f 202/293/19 203/294/20 186/292/19 185/291/16
f 231/350/9 232/351/10 215/349/9 214/348/7
f 246/380/6 247/381/7 230/346/6 229/379/3
f 247/383/9 248/384/10 231/350/9 230/382/7
f 252/398/25 253/399/26 236/365/25 235/397/23
f 253/402/28 254/403/29 237/401/28 236/400/26
f 263/422/9 264/423/10 247/383/9 246/421/7
f 264/425/14 265/426/1 248/386/14 247/424/10
f 269/440/28 270/441/29 253/402/28 252/439/26
f 270/444/31 271/445/32 254/443/31 253/442/29

usemtl LavaRock
f 100/111/6 101/112/7 84/110/6 83/109/3
f 101/115/8 102/116/8 85/114/8 84/113/8
f 132/157/5 133/158/5 116/156/5 115/155/5
f 135/169/1 136/170/1 119/168/1 118/167/1
f 149/186/6 150/187/7 133/185/6 132/184/3
f 151/194/14 152/195/1 135/193/14 134/192/10
f 165/212/5 166/213/5 149/211/5 148/210/5
f 167/220/13 168/221/13 151/219/13 150/218/13
f 169/227/17 170/228/17 153/226/17 152/225/17
f 180/238/2 181/239/3 164/208/2 163/207/1
f 181/242/4 182/243/4 165/241/4 164/240/4
f 184/254/14 185/255/1 168/253/14 167/252/10
f 200/285/14 201/286/1 184/254/14 183/284/10
f 215/316/14 216/317/10 199/315/14 198/314/1
f 216/319/14 217/320/1 200/285/14 199/318/10
f 218/325/19 219/326/20 202/293/19 201/324/16
f 219/329/22 220/330/23 203/328/22 202/327/20
f 229/342/2 230/343/3 213/307/2 212/306/1
f 230/346/6 231/347/7 214/345/6 213/344/3
f 232/353/14 233/354/1 216/319/14 215/352/10
f 235/361/22 236/362/23 219/329/22 218/360/20
f 236/365/25 237/366/26 220/364/25 219/363/23
f 237/369/27 238/370/27 221/368/27 220/367/27
f 248/386/14 249/387/1 232/353/14 231/385/10
f 251/395/22 252/396/23 235/361/22 234/394/20
f 262/419/6 263/420/7 246/380/6 245/418/3
f 266/431/19 267/432/20 250/392/19 249/430/16
f 268/437/25 269/438/26 252/398/25 251/436/23
f 284/483/35 285/484/35 268/482/35 267/481/35

