# ProBuilder 5.0.7
# https://unity3d.com/unity/features/worldbuilding/probuilder
# 19.01.2025 18:01:27

mtllib ./cornerRock_3.mtl
o cornerRock_3

g cornerRock_3
v 8 0 -8
v 8 0 -7
v 7 0 -8
v 7 0 -7
v 8 0 -6
v 7 0 -6
v 8 0 -5
v 7 0 -5
v 8 0 -4
v 7 0 -4
v 8 0 -3
v 7 0 -3
v 8 0 -2
v 7 0 -2
v 8 0 -1
v 7 0 -1
v 8 0 0
v 7 0 0
v 8 0 1
v 7 0 1
v 8 0 2
v 7 0 2
v 8 0 3
v 7 0 3
v 8 0 4
v 7 0 4
v 8 0 5
v 7 0 5
v 8 0 6
v 7 0 6
v 8 0 7
v 7 0 7
v 8 0 8
v 7 0 8
v 6 0 -8
v 6 0 -7
v 6 0 -6
v 6 0 -5
v 6 0 -4
v 6 0 -3
v 6 0 -2
v 6 0 -1
v 6 0 0
v 6 0 1
v 6 0 2
v 6 0 3
v 6 0 4
v 6 0 5
v 6 0 6
v 6 0 7
v 6 0 8
v 5 0 -8
v 5 0 -7
v 5 0 -6
v 5 0 -5
v 5 0 -4
v 5 0 -3
v 5 0 -2
v 5 0 -1
v 5 0 0
v 5 0 1
v 5 0 2
v 5 0 3
v 5 0 4
v 5 0 5
v 5 0 6
v 5 0.7981074 7
v 5 0.7981074 8
v 4 0 -8
v 4 0 -7
v 4 0 -6
v 4 0 -5
v 4 0 -4
v 4 0 -3
v 4 0 -2
v 4 0 -1
v 4 0 0
v 4 0 1
v 4 0 2
v 4 0 3
v 4 0 4
v 4 0 5
v 4 0 6
v 4 0.7981074 7
v 4 0.7981074 8
v 3 0 -8
v 3 0 -7
v 3 0 -6
v 3 0 -5
v 3 0 -4
v 3 0 -3
v 3 0 -2
v 3 0 -1
v 3 0 0
v 3 0 1
v 3 0 2
v 3 0 3
v 3 0 4
v 3 0 5
v 3 0.7981074 6
v 3 1.751699 7
v 3 1.751699 8
v 2 0 -8
v 2 0 -7
v 2 0 -6
v 2 0 -5
v 2 0 -4
v 2 0 -3
v 2 0 -2
v 2 0 -1
v 2 0 0
v 2 0 1
v 2 0 2
v 2 0 3
v 2 0 4
v 2 0.7981074 5
v 2 1.751699 6
v 2 1.751699 7
v 2 1.751699 8
v 1 0 -8
v 1 0 -7
v 1 0 -6
v 1 0 -5
v 1 0 -4
v 1 0 -3
v 1 0 -2
v 1 0 -1
v 1 0 0
v 1 0 1
v 1 0 2
v 1 0 3
v 1 0 4
v 1 0.7981074 5
v 1 1.751699 6
v 1 2.733643 7
v 1 2.733643 8
v 0 0 -8
v 0 0 -7
v 0 0 -6
v 0 0 -5
v 0 0 -4
v 0 0 -3
v 0 0 -2
v 0 0 -1
v 0 0 0
v 0 0 1
v 0 0 2
v 0 0 3
v 0 0.7981074 4
v 0 1.751699 5
v 0 1.751699 6
v 0 2.733643 7
v 0 2.733643 8
v -1 0 -8
v -1 0 -7
v -1 0 -6
v -1 0 -5
v -1 0 -4
v -1 0 -3
v -1 0 -2
v -1 0 -1
v -1 0 0
v -1 0 1
v -1 0 2
v -1 0 3
v -1 0.7981074 4
v -1 1.751699 5
v -1 1.751699 6
v -1 2.733643 7
v -1 2.733643 8
v -2 0 -8
v -2 0 -7
v -2 0 -6
v -2 0 -5
v -2 0 -4
v -2 0 -3
v -2 0 -2
v -2 0 -1
v -2 0 0
v -2 0 1
v -2 0.7981074 2
v -2 0.7981074 3
v -2 1.751699 4
v -2 1.751699 5
v -2 2.733643 6
v -2 3.622227 7
v -2 3.622227 8
v -3 0 -8
v -3 0 -7
v -3 0 -6
v -3 0 -5
v -3 0 -4
v -3 0 -3
v -3 0 -2
v -3 0 -1
v -3 0 0
v -3 0.7981074 1
v -3 1.751699 2
v -3 1.751699 3
v -3 1.751699 4
v -3 2.733643 5
v -3 3.622227 6
v -3 2.795273 7
v -3 2.795273 8
v -4 0 -8
v -4 0 -7
v -4 0 -6
v -4 0 -5
v -4 0 -4
v -4 0 -3
v -4 0 -2
v -4 0 -1
v -4 0 0
v -4 0.7981074 1
v -4 1.751699 2
v -4 1.751699 3
v -4 2.733643 4
v -4 3.622227 5
v -4 2.795273 6
v -4 2.80664 7
v -4 2.80664 8
v -5 0 -8
v -5 0 -7
v -5 0 -6
v -5 0 -5
v -5 0 -4
v -5 0 -3
v -5 0 -2
v -5 0 -1
v -5 0.7981074 0
v -5 1.751699 1
v -5 1.751699 2
v -5 2.733643 3
v -5 3.622227 4
v -5 2.795273 5
v -5 2.80664 6
v -5 2.851983 7
v -5 2.851983 8
v -6 0 -8
v -6 0 -7
v -6 0 -6
v -6 0 -5
v -6 0 -4
v -6 0 -3
v -6 0 -2
v -6 0.7981074 -1
v -6 1.751699 0
v -6 1.751699 1
v -6 2.733643 2
v -6 3.622227 3
v -6 2.795273 4
v -6 2.80664 5
v -6 2.851983 6
v -6 2.849766 7
v -6 2.849766 8
v -7 0 -8
v -7 0 -7
v -7 0 -6
v -7 0 -5
v -7 0 -4
v -7 0.7981074 -3
v -7 0.7981074 -2
v -7 1.751699 -1
v -7 1.751699 0
v -7 2.733643 1
v -7 3.622227 2
v -7 2.795273 3
v -7 2.80664 4
v -7 2.851983 5
v -7 2.849766 6
v -7 2.850297 7
v -7 2.850297 8
v -8 0 -8
v -8 0 -7
v -8 0 -6
v -8 0 -5
v -8 0 -4
v -8 0.7981074 -3
v -8 0.7981074 -2
v -8 1.751699 -1
v -8 1.751699 0
v -8 2.733643 1
v -8 3.622227 2
v -8 2.795273 3
v -8 2.80664 4
v -8 2.851983 5
v -8 2.849766 6
v -8 2.850297 7
v -8 2.850297 8

vt -8 -8
vt -8 -7
vt -7 -8
vt -7 -7
vt -8 -6
vt -7 -6
vt -8 -5
vt -7 -5
vt -8 -4
vt -7 -4
vt -8 -3
vt -7 -3
vt -8 -2
vt -7 -2
vt -8 -1
vt -7 -1
vt -8 0
vt -7 0
vt -8 1
vt -7 1
vt -8 2
vt -7 2
vt -8 3
vt -7 3
vt -8 4
vt -7 4
vt -8 5
vt -7 5
vt -8 6
vt -7 6
vt -8 7
vt -7 7
vt -8 8
vt -7 8
vt -6 -8
vt -6 -7
vt -6 -6
vt -6 -5
vt -6 -4
vt -6 -3
vt -6 -2
vt -6 -1
vt -6 0
vt -6 1
vt -6 2
vt -6 3
vt -6 4
vt -6 5
vt -6 6
vt -6 7
vt -6 8
vt -5 -8
vt -5 -7
vt -5 -6
vt -5 -5
vt -5 -4
vt -5 -3
vt -5 -2
vt -5 -1
vt -5 0
vt -5 1
vt -5 2
vt -5 3
vt -5 4
vt -5 5
vt -5 6
vt -5 7
vt -4.689539 7
vt -4.689539 8
vt -3.410096 7
vt -3.410096 8
vt -4 -8
vt -4 -7
vt -4 -6
vt -4 -5
vt -4 -4
vt -4 -3
vt -4 -2
vt -4 -1
vt -4 0
vt -4 1
vt -4 2
vt -4 3
vt -4 4
vt -4 5
vt -4 6
vt -5 4.689539
vt -5 5.968983
vt -4 4.689539
vt -4 5.968983
vt -5 8
vt -4 7
vt -4 8
vt -3 -8
vt -3 -7
vt -3 -6
vt -3 -5
vt -3 -4
vt -3 -3
vt -3 -2
vt -3 -1
vt -3 0
vt -3 1
vt -3 2
vt -3 3
vt -3 4
vt -3 5
vt -3 6
vt -3.126359 6.41135
vt -2.628506 7.589958
vt -1.846916 6.41135
vt -1.252073 7.654276
vt -2.344016 7
vt -2.344016 8
vt -0.9622285 7
vt -0.9622285 8
vt -2 -8
vt -2 -7
vt -2 -6
vt -2 -5
vt -2 -4
vt -2 -3
vt -2 -2
vt -2 -1
vt -2 0
vt -2 1
vt -2 2
vt -2 3
vt -2 4
vt -2 5
vt -2.344769 5.232741
vt -1.065326 5.232741
vt -0.4704829 6.475668
vt -1.620316 6.442214
vt -0.9622285 7.657228
vt -0.2385282 6.442214
vt -0.2385282 7.26525
vt -3 7
vt -3 8
vt -2 7
vt -2 8
vt -1 -8
vt -1 -7
vt -1 -6
vt -1 -5
vt -1 -4
vt -1 -3
vt -1 -2
vt -1 -1
vt -1 0
vt -1 1
vt -1 2
vt -1 3
vt -1 4
vt -2 3.126359
vt -2 4.405803
vt -1 3.126359
vt -1 4.405803
vt -2 4.169287
vt -2 5.551075
vt -1 4.169287
vt -1 5.551075
vt -2 6
vt -1 6
vt -1 7
vt -0.1997356 7
vt -0.1997356 8
vt 1.201769 7
vt 1.201769 8
vt 0 -8
vt 0 -7
vt 0 -6
vt 0 -5
vt 0 -4
vt 0 -3
vt 0 -2
vt 0 -1
vt 0 0
vt 0 1
vt 0 2
vt 0 3
vt 0 4
vt -0.7815899 3.723984
vt -0.2837363 4.902592
vt 0.4978535 3.723984
vt 1.092697 4.96691
vt -0.172915 4.835223
vt 0.4851722 6.050237
vt 1.208872 4.835223
vt 1.208872 5.658259
vt -1 5.508417
vt -1 6.909921
vt 0 5.508417
vt 0 6.909921
vt -1 8
vt 0 7
vt 0 8
vt 1 -8
vt 1 -7
vt 1 -6
vt 1 -5
vt 1 -4
vt 1 -3
vt 1 -2
vt 1 -1
vt 1 0
vt 1 1
vt 1 2
vt 1 3
vt 0 2.344769
vt 0 3.624213
vt 1 2.344769
vt 1 3.624213
vt 0 3.445587
vt 0 4.827374
vt 1 3.445587
vt 1 4.827374
vt 0 5
vt 0 6
vt 1 5
vt 1 6
vt 1 5.508417
vt 1 6.909921
vt 1 7
vt 1 8
vt 2 -8
vt 2 -7
vt 2 -6
vt 2 -5
vt 2 -4
vt 2 -3
vt 2 -2
vt 2 -1
vt 2 0
vt 2 1
vt 2 2
vt 0.7815899 2
vt 0.7815899 3
vt 2.061033 2
vt 2.061033 3
vt 0.7815899 2.215225
vt 1.279443 3.393834
vt 2.061033 2.215225
vt 2.655877 3.458152
vt 1.274486 3.228232
vt 1.932573 4.443246
vt 2.656273 3.228232
vt 2.656273 4.051269
vt 2 5
vt 2 6
vt 1.940822 5.229081
vt 2.628807 6.450101
vt 3.342326 5.229081
vt 3.9649 6.411877
vt 2.563308 7
vt 2.563308 8
vt 3.901061 7
vt 3.901061 8
vt 3 -8
vt 3 -7
vt 3 -6
vt 3 -5
vt 3 -4
vt 3 -3
vt 3 -2
vt 3 -1
vt 3 0
vt 3 1
vt 1.56318 0.1881588
vt 2.061033 1.366767
vt 2.842623 0.1881587
vt 3.437466 1.431085
vt 1.998186 2
vt 1.998186 3
vt 3.379973 2
vt 3.379973 3
vt 1.998186 2.013219
vt 3.379973 2.013219
vt 3.379973 2.836255
vt 2 4
vt 3 4
vt 3 5
vt 2.654341 4.008061
vt 4.055845 4.008061
vt 4.678419 5.190857
vt 3.31083 5.393501
vt 3.90106 6.594005
vt 4.648583 5.393501
vt 4.09929 5.884454
vt -0.7670999 7
vt -0.7670999 8
vt 0.5305337 7
vt 0.5305337 8
vt 4 -8
vt 4 -7
vt 4 -6
vt 4 -5
vt 4 -4
vt 4 -3
vt 4 -2
vt 4 -1
vt 4 0
vt 3 1.279443
vt 4 1.279443
vt 3 1.274486
vt 3 2.656273
vt 4 1.274486
vt 4 2.656273
vt 3 2
vt 3 3
vt 4 2
vt 4 3
vt 4 4
vt 3.36786 2.78704
vt 4.769364 2.78704
vt 5.391938 3.969837
vt 4.058352 4.192997
vt 5.396105 4.192997
vt 4.846812 4.683949
vt 0.003533716 2.532232
vt 0.5305337 3.718033
vt 1.301167 2.532232
vt 1.293923 3.370836
vt 3.031578 7
vt 3.031578 8
vt 4.031642 7
vt 4.031642 8
vt 5 -8
vt 5 -7
vt 5 -6
vt 5 -5
vt 5 -4
vt 5 -3
vt 5 -2
vt 5 -1
vt 5 0
vt 3.126359 -1.320599
vt 3.624213 -0.1419911
vt 4.405803 -1.320599
vt 5.000646 -0.07767272
vt 3.445587 -0.4168083
vt 4.103674 0.7982052
vt 4.827374 -0.4168083
vt 4.827374 0.4062278
vt 5 2
vt 5 3
vt 4.081379 1.56602
vt 5.482883 1.56602
vt 6.105457 2.748817
vt 4.805875 2.992492
vt 6.143628 2.992492
vt 5.594335 3.483445
vt 0.7741674 1.346431
vt 2.071801 1.346431
vt 2.064557 2.185035
vt 4.031513 6.030863
vt 4.031642 7.030928
vt 5.031578 6.030863
vt 5.032093 7.031313
vt 4.123026 7
vt 4.123026 8
vt 5.124054 7
vt 5.124054 8
vt 6 -8
vt 6 -7
vt 6 -6
vt 6 -5
vt 6 -4
vt 6 -3
vt 6 -2
vt 6 -1
vt 3.907949 -2.499207
vt 5.187393 -2.499207
vt 5.782236 -1.256281
vt 4.169287 -1.631822
vt 5.551075 -1.631822
vt 5.551075 -0.8087857
vt 5 1
vt 6 1
vt 6 2
vt 4.794899 0.345
vt 6.196403 0.3450001
vt 6.818976 1.527796
vt 5.553398 1.791988
vt 6.89115 1.791988
vt 6.341857 2.282941
vt 1.544801 0.1606302
vt 2.842435 0.1606303
vt 2.835191 0.9992345
vt 5.031448 5.030798
vt 6.031513 5.030798
vt 6.032028 6.031249
vt 5.122 6.110476
vt 5.124053 7.111502
vt 6.123027 6.110476
vt 6.122927 7.109352
vt 4.993664 7
vt 4.993664 8
vt 5.993667 7
vt 5.993667 8
vt 7 -8
vt 7 -7
vt 7 -6
vt 7 -5
vt 7 -4
vt 7 -3
vt 4.689539 -3
vt 4.689539 -2
vt 5.968983 -3
vt 5.968983 -2
vt 4.689539 -3.677816
vt 5.968983 -3.677816
vt 6.563826 -2.434889
vt 4.892987 -2.846835
vt 6.274775 -2.846835
vt 6.274775 -2.023799
vt 6 0
vt 7 0
vt 7 1
vt 5.508418 -0.8760202
vt 6.909922 -0.8760202
vt 7.532495 0.3067762
vt 6.30092 0.591484
vt 7.638672 0.591484
vt 7.089379 1.082437
vt 2.315435 -1.025171
vt 3.613068 -1.025171
vt 3.605824 -0.1865665
vt 6.031384 4.030734
vt 7.031448 4.030734
vt 7.031964 5.031185
vt 6.120973 5.109451
vt 7.122001 5.109451
vt 7.1219 6.108327
vt 5.993662 5.993632
vt 5.993667 6.993635
vt 6.993664 5.993632
vt 6.993663 6.993629
vt 6.001513 7
vt 6.001513 8
vt 7.001513 7
vt 7.001513 8
vt 8 -8
vt 8 -7
vt 8 -6
vt 8 -5
vt 8 -4
vt 7 -3.126359
vt 7 -1.846916
vt 8 -3.126359
vt 8 -1.846916
vt 7 -2
vt 8 -3
vt 8 -2
vt 7 -0.8966153
vt 7 0.4851722
vt 8 -0.8966153
vt 8 0.4851722
vt 7 -1
vt 8 -1
vt 8 0
vt 7 1.227303
vt 7 2.628807
vt 8 1.227303
vt 8 2.628807
vt 7 2.563308
vt 7 3.90106
vt 8 2.563308
vt 8 3.90106
vt 7 -0.7670999
vt 7 0.5305337
vt 8 -0.7670999
vt 8 0.5305337
vt 7 3.031578
vt 7 4.031642
vt 8 3.031578
vt 8 4.031642
vt 7 4.123026
vt 7 5.124053
vt 8 4.123026
vt 8 5.124053
vt 7 4.993664
vt 7 5.993667
vt 8 4.993664
vt 8 5.993667
vt 7 6.001513
vt 7 7.001513
vt 8 6.001513
vt 8 7.001513
vt 7 7
vt 7 8
vt 8 7
vt 8 8

vn 0 1 0
vn 0.2646311 0.8315732 -0.2646311
vn 0.5292621 0.6631465 -0.5292621
vn 0.6237926 0.7815899 0
vn 0 0.7815899 -0.6237926
vn 0.5486256 0.629389 -0.5486256
vn 0.5679891 0.5956315 -0.5679891
vn 0.6901144 0.7237003 0
vn 0.2839945 0.7978158 -0.2839945
vn 0 0.7237003 -0.6901144
vn 0.2869059 0.7921816 -0.2869059
vn 0.5738117 0.5843631 -0.5738117
vn 0.7006357 0.7135192 0
vn 0 0.7135192 -0.7006357
vn 0.5635549 0.6035184 -0.5635549
vn 0.5532981 0.6226737 -0.5532981
vn 0.6642366 0.7475225 0
vn 0.007936776 0.6362791 -0.007936776
vn -0.5374245 0.6498845 0.5374245
vn -0.6372785 0.7706336 0
vn -0.2630296 0.8248776 0.2630296
vn 0.01136538 0.9998708 -0.01136538
vn 0.01136611 0.9999354 0
vn 0.02830792 0.9989105 -0.02830792
vn 0.04525046 0.9979503 -0.04525046
vn 0.04529686 0.9989736 0
vn 0.02151659 0.9989727 -0.02151659
vn -0.002217282 0.9999951 0.002217282
vn -0.002217287 0.9999976 0
vn -0.0008430427 0.9999974 0.0008430427
vn 0.0005311965 0.9999998 -0.0005311965
vn 0.0005311965 0.9999999 0
vn 0 0.7475225 -0.6642366
vn 0 0.7706336 0.6372785
vn 0 0.9999354 -0.01136611
vn 0 0.9989736 -0.04529686
vn 0 0.9999976 0.002217287
vn 0 0.9999999 -0.0005311965

usemtl RockDarkBase
f 3/3/1 4/4/1 2/2/1 1/1/1
f 4/4/1 6/6/1 5/5/1 2/2/1
f 6/6/1 8/8/1 7/7/1 5/5/1
f 8/8/1 10/10/1 9/9/1 7/7/1
f 10/10/1 12/12/1 11/11/1 9/9/1
f 12/12/1 14/14/1 13/13/1 11/11/1
f 14/14/1 16/16/1 15/15/1 13/13/1
f 16/16/1 18/18/1 17/17/1 15/15/1
f 18/18/1 20/20/1 19/19/1 17/17/1
f 20/20/1 22/22/1 21/21/1 19/19/1
f 22/22/1 24/24/1 23/23/1 21/21/1
f 24/24/1 26/26/1 25/25/1 23/23/1
f 26/26/1 28/28/1 27/27/1 25/25/1
f 28/28/1 30/30/1 29/29/1 27/27/1
f 30/30/1 32/32/1 31/31/1 29/29/1
f 32/32/1 34/34/1 33/33/1 31/31/1
f 35/35/1 36/36/1 4/4/1 3/3/1
f 36/36/1 37/37/1 6/6/1 4/4/1
f 37/37/1 38/38/1 8/8/1 6/6/1
f 38/38/1 39/39/1 10/10/1 8/8/1
f 39/39/1 40/40/1 12/12/1 10/10/1
f 40/40/1 41/41/1 14/14/1 12/12/1
f 41/41/1 42/42/1 16/16/1 14/14/1
f 42/42/1 43/43/1 18/18/1 16/16/1
f 43/43/1 44/44/1 20/20/1 18/18/1
f 44/44/1 45/45/1 22/22/1 20/20/1
f 45/45/1 46/46/1 24/24/1 22/22/1
f 46/46/1 47/47/1 26/26/1 24/24/1
f 47/47/1 48/48/1 28/28/1 26/26/1
f 48/48/1 49/49/1 30/30/1 28/28/1
f 49/49/1 50/50/1 32/32/1 30/30/1
f 50/50/1 51/51/1 34/34/1 32/32/1
f 52/52/1 53/53/1 36/36/1 35/35/1
f 53/53/1 54/54/1 37/37/1 36/36/1
f 54/54/1 55/55/1 38/38/1 37/37/1
f 55/55/1 56/56/1 39/39/1 38/38/1
f 56/56/1 57/57/1 40/40/1 39/39/1
f 57/57/1 58/58/1 41/41/1 40/40/1
f 58/58/1 59/59/1 42/42/1 41/41/1
f 59/59/1 60/60/1 43/43/1 42/42/1
f 60/60/1 61/61/1 44/44/1 43/43/1
f 61/61/1 62/62/1 45/45/1 44/44/1
f 62/62/1 63/63/1 46/46/1 45/45/1
f 63/63/1 64/64/1 47/47/1 46/46/1
f 64/64/1 65/65/1 48/48/1 47/47/1
f 65/65/1 66/66/1 49/49/1 48/48/1
f 69/72/1 70/73/1 53/53/1 52/52/1
f 70/73/1 71/74/1 54/54/1 53/53/1
f 71/74/1 72/75/1 55/55/1 54/54/1
f 72/75/1 73/76/1 56/56/1 55/55/1
f 73/76/1 74/77/1 57/57/1 56/56/1
f 74/77/1 75/78/1 58/58/1 57/57/1
f 75/78/1 76/79/1 59/59/1 58/58/1
f 76/79/1 77/80/1 60/60/1 59/59/1
f 77/80/1 78/81/1 61/61/1 60/60/1
f 78/81/1 79/82/1 62/62/1 61/61/1
f 79/82/1 80/83/1 63/63/1 62/62/1
f 80/83/1 81/84/1 64/64/1 63/63/1
f 81/84/1 82/85/1 65/65/1 64/64/1
f 82/85/1 83/86/1 66/66/1 65/65/1
f 86/94/1 87/95/1 70/73/1 69/72/1
f 87/95/1 88/96/1 71/74/1 70/73/1
f 88/96/1 89/97/1 72/75/1 71/74/1
f 89/97/1 90/98/1 73/76/1 72/75/1
f 90/98/1 91/99/1 74/77/1 73/76/1
f 91/99/1 92/100/1 75/78/1 74/77/1
f 92/100/1 93/101/1 76/79/1 75/78/1
f 93/101/1 94/102/1 77/80/1 76/79/1
f 94/102/1 95/103/1 78/81/1 77/80/1
f 95/103/1 96/104/1 79/82/1 78/81/1
f 96/104/1 97/105/1 80/83/1 79/82/1
f 97/105/1 98/106/1 81/84/1 80/83/1
f 98/106/1 99/107/1 82/85/1 81/84/1
f 103/117/1 104/118/1 87/95/1 86/94/1
f 104/118/1 105/119/1 88/96/1 87/95/1
f 105/119/1 106/120/1 89/97/1 88/96/1
f 106/120/1 107/121/1 90/98/1 89/97/1
f 107/121/1 108/122/1 91/99/1 90/98/1
f 108/122/1 109/123/1 92/100/1 91/99/1
f 109/123/1 110/124/1 93/101/1 92/100/1
f 110/124/1 111/125/1 94/102/1 93/101/1
f 111/125/1 112/126/1 95/103/1 94/102/1
f 112/126/1 113/127/1 96/104/1 95/103/1
f 113/127/1 114/128/1 97/105/1 96/104/1
f 114/128/1 115/129/1 98/106/1 97/105/1
f 120/142/1 121/143/1 104/118/1 103/117/1
f 121/143/1 122/144/1 105/119/1 104/118/1
f 122/144/1 123/145/1 106/120/1 105/119/1
f 123/145/1 124/146/1 107/121/1 106/120/1
f 124/146/1 125/147/1 108/122/1 107/121/1
f 125/147/1 126/148/1 109/123/1 108/122/1
f 126/148/1 127/149/1 110/124/1 109/123/1
f 127/149/1 128/150/1 111/125/1 110/124/1
f 128/150/1 129/151/1 112/126/1 111/125/1
f 129/151/1 130/152/1 113/127/1 112/126/1
f 130/152/1 131/153/1 114/128/1 113/127/1
f 131/153/1 132/154/1 115/129/1 114/128/1
f 137/170/1 138/171/1 121/143/1 120/142/1
f 138/171/1 139/172/1 122/144/1 121/143/1
f 139/172/1 140/173/1 123/145/1 122/144/1
f 140/173/1 141/174/1 124/146/1 123/145/1
f 141/174/1 142/175/1 125/147/1 124/146/1
f 142/175/1 143/176/1 126/148/1 125/147/1
f 143/176/1 144/177/1 127/149/1 126/148/1
f 144/177/1 145/178/1 128/150/1 127/149/1
f 145/178/1 146/179/1 129/151/1 128/150/1
f 146/179/1 147/180/1 130/152/1 129/151/1
f 147/180/1 148/181/1 131/153/1 130/152/1
f 149/185/6 150/186/7 133/184/6 132/183/3
f 150/189/9 151/190/1 134/188/9 133/187/7
f 154/198/1 155/199/1 138/171/1 137/170/1
f 155/199/1 156/200/1 139/172/1 138/171/1
f 156/200/1 157/201/1 140/173/1 139/172/1
f 157/201/1 158/202/1 141/174/1 140/173/1
f 158/202/1 159/203/1 142/175/1 141/174/1
f 159/203/1 160/204/1 143/176/1 142/175/1
f 160/204/1 161/205/1 144/177/1 143/176/1
f 161/205/1 162/206/1 145/178/1 144/177/1
f 162/206/1 163/207/1 146/179/1 145/178/1
f 163/207/1 164/208/1 147/180/1 146/179/1
f 164/208/1 165/209/1 148/181/1 147/180/1
f 171/226/1 172/227/1 155/199/1 154/198/1
f 172/227/1 173/228/1 156/200/1 155/199/1
f 173/228/1 174/229/1 157/201/1 156/200/1
f 174/229/1 175/230/1 158/202/1 157/201/1
f 175/230/1 176/231/1 159/203/1 158/202/1
f 176/231/1 177/232/1 160/204/1 159/203/1
f 177/232/1 178/233/1 161/205/1 160/204/1
f 178/233/1 179/234/1 162/206/1 161/205/1
f 179/234/1 180/235/1 163/207/1 162/206/1
f 182/243/6 183/244/7 166/242/6 165/241/3
f 183/247/9 184/248/1 167/246/9 166/245/7
f 188/259/1 189/260/1 172/227/1 171/226/1
f 189/260/1 190/261/1 173/228/1 172/227/1
f 190/261/1 191/262/1 174/229/1 173/228/1
f 191/262/1 192/263/1 175/230/1 174/229/1
f 192/263/1 193/264/1 176/231/1 175/230/1
f 193/264/1 194/265/1 177/232/1 176/231/1
f 194/265/1 195/266/1 178/233/1 177/232/1
f 195/266/1 196/267/1 179/234/1 178/233/1
f 205/294/1 206/295/1 189/260/1 188/259/1
f 206/295/1 207/296/1 190/261/1 189/260/1
f 207/296/1 208/297/1 191/262/1 190/261/1
f 208/297/1 209/298/1 192/263/1 191/262/1
f 209/298/1 210/299/1 193/264/1 192/263/1
f 210/299/1 211/300/1 194/265/1 193/264/1
f 211/300/1 212/301/1 195/266/1 194/265/1
f 212/301/1 213/302/1 196/267/1 195/266/1
f 217/315/15 218/316/16 201/284/15 200/314/12
f 218/318/18 219/319/19 202/288/18 201/317/16
f 222/328/1 223/329/1 206/295/1 205/294/1
f 223/329/1 224/330/1 207/296/1 206/295/1
f 224/330/1 225/331/1 208/297/1 207/296/1
f 225/331/1 226/332/1 209/298/1 208/297/1
f 226/332/1 227/333/1 210/299/1 209/298/1
f 227/333/1 228/334/1 211/300/1 210/299/1
f 228/334/1 229/335/1 212/301/1 211/300/1
f 230/339/6 231/340/7 214/338/6 213/337/3
f 236/358/24 237/359/25 220/357/24 219/356/22
f 239/364/1 240/365/1 223/329/1 222/328/1
f 240/365/1 241/366/1 224/330/1 223/329/1
f 241/366/1 242/367/1 225/331/1 224/330/1
f 242/367/1 243/368/1 226/332/1 225/331/1
f 243/368/1 244/369/1 227/333/1 226/332/1
f 244/369/1 245/370/1 228/334/1 227/333/1
f 246/373/6 247/374/7 230/339/6 229/372/3
f 247/376/9 248/377/1 231/343/9 230/375/7
f 256/401/1 257/402/1 240/365/1 239/364/1
f 257/402/1 258/403/1 241/366/1 240/365/1
f 258/403/1 259/404/1 242/367/1 241/366/1
f 259/404/1 260/405/1 243/368/1 242/367/1
f 262/412/6 263/413/7 246/373/6 245/411/3
f 263/415/9 264/416/1 247/376/9 246/414/7
f 265/421/15 266/422/16 249/382/15 248/420/12
f 266/424/18 267/425/19 250/385/18 249/423/16
f 270/437/30 271/438/31 254/436/30 253/435/28
f 273/443/1 274/444/1 257/402/1 256/401/1
f 274/444/1 275/445/1 258/403/1 257/402/1
f 275/445/1 276/446/1 259/404/1 258/403/1
f 276/446/1 277/447/1 260/405/1 259/404/1

usemtl RockDarkAll
f 152/196/1 153/197/1 136/195/1 135/165/1
f 167/220/1 168/221/1 151/219/1 150/218/1
f 283/472/34 284/473/34 267/471/34 266/470/34
f 288/492/1 289/493/1 272/491/1 271/490/1

usemtl RockDarkHor
f 66/66/2 67/67/3 50/50/2 49/49/1
f 67/70/4 68/71/4 51/69/4 50/68/4
f 148/181/2 149/182/3 132/154/2 131/153/1
f 184/249/11 185/250/12 168/221/11 167/220/1
f 200/281/11 201/282/12 184/249/11 183/280/1
f 219/322/21 220/323/22 203/321/21 202/320/19
f 229/335/2 230/336/3 213/302/2 212/301/1
f 245/370/2 246/371/3 229/335/2 228/334/1
f 248/379/11 249/380/12 232/345/11 231/378/1
f 260/405/2 261/406/3 244/369/2 243/368/1
f 264/418/11 265/419/12 248/379/11 247/417/1

usemtl RockDarkVert
f 83/89/5 84/90/5 67/88/5 66/87/5
f 165/212/5 166/213/5 149/211/5 148/210/5
f 166/216/10 167/217/10 150/215/10 149/214/10
f 168/222/14 169/223/14 152/194/14 151/193/14
f 281/464/14 282/465/14 265/463/14 264/462/14
f 282/468/33 283/469/33 266/467/33 265/466/33
f 284/476/35 285/477/35 268/475/35 267/474/35
f 287/488/38 288/489/38 271/487/38 270/486/38

usemtl MossyRockBase
f 220/326/23 221/327/23 204/325/23 203/324/23
f 235/354/21 236/355/22 219/322/21 218/353/19
f 237/362/26 238/363/26 221/361/26 220/360/26
f 253/395/27 254/396/28 237/394/27 236/393/25
f 267/427/21 268/428/22 251/388/21 250/426/19
f 285/480/36 286/481/36 269/479/36 268/478/36
f 286/484/37 287/485/37 270/483/37 269/482/37

usemtl RedSandAll
f 84/92/1 85/93/1 68/91/1 67/67/1
f 118/140/1 119/141/1 102/139/1 101/138/1
f 203/292/20 204/293/20 187/291/20 186/290/20
f 215/311/1 216/312/1 199/310/1 198/309/1
f 278/453/1 279/454/1 262/452/1 261/406/1

usemtl RedSandHor
f 99/107/2 100/108/3 83/86/2 82/85/1
f 101/115/8 102/116/8 85/114/8 84/113/8
f 134/164/11 135/165/12 118/140/11 117/163/1
f 135/168/13 136/169/13 119/167/13 118/166/13
f 180/235/2 181/236/3 164/208/2 163/207/1
f 186/257/17 187/258/17 170/256/17 169/255/17
f 196/267/2 197/268/3 180/235/2 179/234/1
f 198/275/8 199/276/8 182/274/8 181/273/8
f 232/345/11 233/346/12 216/312/11 215/311/1
f 251/388/21 252/389/22 235/354/21 234/387/19

usemtl RedSandVert
f 133/161/10 134/162/10 117/160/10 116/159/10
f 214/307/10 215/308/10 198/306/10 197/305/10
f 254/399/29 255/400/29 238/398/29 237/397/29
f 271/441/32 272/442/32 255/440/32 254/439/32
f 279/457/10 280/458/10 263/456/10 262/455/10

usemtl RedSandBase
f 100/111/6 101/112/7 84/110/6 83/109/3
f 116/132/6 117/133/7 100/111/6 99/131/3
f 117/136/9 118/137/1 101/135/9 100/134/7
f 197/271/6 198/272/7 181/270/6 180/269/3
f 199/278/9 200/279/1 183/247/9 182/277/7
f 202/288/18 203/289/19 186/287/18 185/286/16
f 231/343/9 232/344/1 215/342/9 214/341/7
f 233/348/15 234/349/16 217/315/15 216/347/12
f 234/351/18 235/352/19 218/318/18 217/350/16
f 250/385/18 251/386/19 234/351/18 233/384/16
f 252/391/24 253/392/25 236/358/24 235/390/22
f 268/430/24 269/431/25 252/391/24 251/429/22
f 269/433/27 270/434/28 253/395/27 252/432/25

usemtl LavaRock
f 115/129/2 116/130/3 99/107/2 98/106/1
f 132/157/5 133/158/5 116/156/5 115/155/5
f 151/193/14 152/194/14 135/192/14 134/191/14
f 169/224/1 170/225/1 153/197/1 152/196/1
f 181/239/4 182/240/4 165/238/4 164/237/4
f 185/253/15 186/254/16 169/252/15 168/251/12
f 201/284/15 202/285/16 185/253/15 184/283/12
f 213/302/5 214/304/5 197/303/5 196/267/5
f 216/312/11 217/313/12 200/281/11 199/310/1
f 249/382/15 250/383/16 233/348/15 232/381/12
f 261/409/4 262/410/4 245/408/4 244/407/4
f 277/450/5 278/451/5 261/449/5 260/448/5
f 280/460/1 281/461/1 264/418/1 263/459/1

