# MagicaVoxel @ Ephtracy

# group
o 

# material
mtllib man_leg_down.mtl
usemtl palette

# normals
vn -1 0 0
vn 1 0 0
vn 0 0 1
vn 0 0 -1
vn 0 -1 0
vn 0 1 0

# texcoords
vt 0.244141 0.5
vt 0.947266 0.5

# verts
v -0.1 -0.3 0
v -0.1 -0.3 -0.1
v -0.1 -0.3 -0.2
v -0.1 -0.2 0
v -0.1 -0.2 -0.1
v -0.1 -0.1 0
v -0.1 -0.1 -0.1
v -0.1 0 0
v -0.1 0 -0.1
v -0.1 0 -0.2
v 0.1 -0.3 0
v 0.1 -0.3 -0.1
v 0.1 -0.3 -0.2
v 0.1 -0.2 0
v 0.1 -0.2 -0.1
v 0.1 -0.1 0
v 0.1 -0.1 -0.2
v 0.1 0 0
v 0.1 0 -0.2
v -0.1 -0.3 0
v -0.1 -0.2 0
v -0.1 -0.1 0
v -0.1 0 0
v 0.1 -0.3 0
v 0.1 -0.2 0
v 0.1 -0.1 0
v 0.1 0 0
v -0.1 -0.3 -0.2
v -0.1 0 -0.2
v 0 -0.1 -0.2
v 0 0 -0.2
v 0.1 -0.3 -0.2
v 0.1 -0.1 -0.2
v 0.1 0 -0.2
v -0.1 -0.3 0
v 0.1 -0.3 0
v -0.1 -0.3 -0.1
v 0.1 -0.3 -0.1
v -0.1 -0.3 -0.2
v 0.1 -0.3 -0.2
v -0.1 0 0
v 0.1 0 0
v -0.1 0 -0.1
v 0 0 -0.1
v -0.1 0 -0.2
v 0 0 -0.2
v 0.1 0 -0.2

# faces
f 4/2/1 2/2/1 1/2/1
f 5/1/1 3/1/1 2/1/1
f 5/2/1 2/2/1 4/2/1
f 6/1/1 5/1/1 4/1/1
f 7/1/1 3/1/1 5/1/1
f 7/1/1 5/1/1 6/1/1
f 8/2/1 7/2/1 6/2/1
f 9/1/1 3/1/1 7/1/1
f 9/2/1 7/2/1 8/2/1
f 10/1/1 3/1/1 9/1/1
f 11/2/2 12/2/2 14/2/2
f 12/1/2 13/1/2 15/1/2
f 14/2/2 12/2/2 15/2/2
f 14/1/2 15/1/2 16/1/2
f 15/1/2 13/1/2 17/1/2
f 16/1/2 15/1/2 17/1/2
f 16/2/2 17/2/2 18/2/2
f 18/2/2 17/2/2 19/2/2
f 24/2/3 21/2/3 20/2/3
f 25/1/3 22/1/3 21/1/3
f 25/2/3 21/2/3 24/2/3
f 26/2/3 23/2/3 22/2/3
f 26/1/3 22/1/3 25/1/3
f 27/2/3 23/2/3 26/2/3
f 28/1/4 29/1/4 30/1/4
f 30/1/4 29/1/4 31/1/4
f 28/1/4 30/1/4 32/1/4
f 30/2/4 31/2/4 33/2/4
f 32/1/4 30/1/4 33/1/4
f 33/2/4 31/2/4 34/2/4
f 37/2/5 36/2/5 35/2/5
f 38/2/5 36/2/5 37/2/5
f 39/1/5 38/1/5 37/1/5
f 40/1/5 38/1/5 39/1/5
f 41/2/6 42/2/6 43/2/6
f 43/2/6 42/2/6 44/2/6
f 43/1/6 44/1/6 45/1/6
f 44/2/6 42/2/6 46/2/6
f 45/1/6 44/1/6 46/1/6
f 46/2/6 42/2/6 47/2/6
