# MagicaVoxel @ Ephtracy

# group
o 

# material
mtllib man_red.mtl
usemtl palette

# normals
vn -1 0 0
vn 1 0 0
vn 0 0 1
vn 0 0 -1
vn 0 -1 0
vn 0 1 0

# texcoords
vt 0.244141 0.5
vt 0.564453 0.5
vt 0.595703 0.5
vt 0.787109 0.5
vt 0.939453 0.5
vt 0.947266 0.5

# verts
v -0.5 0.4 0.1
v -0.5 0.4 -0.1
v -0.5 0.5 0.1
v -0.5 0.5 -0.1
v -0.5 0.6 0.1
v -0.5 0.6 0
v -0.5 0.6 -0.1
v -0.5 0.7 0
v -0.5 0.7 -0.1
v -0.5 0.8 0
v -0.5 0.8 -0.1
v -0.5 0.9 0.1
v -0.5 0.9 0
v -0.5 0.9 -0.1
v -0.5 1 0.1
v -0.5 1 0
v -0.5 1 -0.1
v -0.4 1.1 -0.1
v -0.4 1.1 -0.3
v -0.4 1.2 0.3
v -0.4 1.2 -0.1
v -0.4 1.2 -0.2
v -0.4 1.3 0.1
v -0.4 1.3 -0.1
v -0.4 1.4 0.1
v -0.4 1.4 -0.2
v -0.4 1.5 0.3
v -0.4 1.5 -0.3
v -0.3 0 0.1
v -0.3 0 0
v -0.3 0 -0.1
v -0.3 0.1 0.1
v -0.3 0.1 0
v -0.3 0.2 0.1
v -0.3 0.2 0
v -0.3 0.3 0.1
v -0.3 0.3 0
v -0.3 0.4 0.1
v -0.3 0.4 -0.1
v -0.3 0.5 0.2
v -0.3 0.5 0.1
v -0.3 0.5 -0.1
v -0.3 0.5 -0.2
v -0.3 0.6 0.1
v -0.3 0.6 -0.1
v -0.3 0.7 0.1
v -0.3 0.9 0.2
v -0.3 0.9 0.1
v -0.3 0.9 -0.1
v -0.3 0.9 -0.2
v -0.3 1 0.3
v -0.3 1 0.1
v -0.3 1 0
v -0.3 1 -0.1
v -0.3 1 -0.3
v -0.3 1.1 -0.1
v -0.3 1.1 -0.3
v -0.3 1.1 -0.4
v -0.3 1.2 0.3
v -0.3 1.2 -0.1
v -0.3 1.3 0.4
v -0.3 1.3 0.3
v -0.3 1.5 0.4
v -0.3 1.5 0.3
v -0.3 1.5 -0.3
v -0.3 1.5 -0.4
v -0.3 1.6 0.3
v -0.3 1.6 -0.3
v 0.1 0 0.1
v 0.1 0 0
v 0.1 0 -0.1
v 0.1 0.1 0.1
v 0.1 0.1 0
v 0.1 0.4 0.1
v 0.1 0.4 -0.1
v -0.1 0 0.1
v -0.1 0 0
v -0.1 0 -0.1
v -0.1 0.1 0.1
v -0.1 0.1 0
v -0.1 0.2 0.1
v -0.1 0.2 -0.1
v -0.1 0.3 0
v -0.1 0.3 -0.1
v -0.1 0.4 0.1
v -0.1 0.4 0
v -0.1 0.4 -0.1
v 0.3 0 0.1
v 0.3 0 0
v 0.3 0 -0.1
v 0.3 0.1 0.1
v 0.3 0.1 0
v 0.3 0.2 0
v 0.3 0.2 -0.1
v 0.3 0.3 0.1
v 0.3 0.3 0
v 0.3 0.4 0.1
v 0.3 0.4 -0.1
v 0.3 0.5 0.2
v 0.3 0.5 0.1
v 0.3 0.5 -0.1
v 0.3 0.5 -0.2
v 0.3 0.6 0.1
v 0.3 0.6 -0.1
v 0.3 0.7 0.2
v 0.3 0.7 0.1
v 0.3 0.7 -0.1
v 0.3 0.8 0.2
v 0.3 0.8 0.1
v 0.3 0.9 0.2
v 0.3 0.9 0.1
v 0.3 0.9 -0.1
v 0.3 0.9 -0.2
v 0.3 1 0.3
v 0.3 1 0.1
v 0.3 1 -0.1
v 0.3 1 -0.3
v 0.3 1.1 -0.1
v 0.3 1.1 -0.3
v 0.3 1.1 -0.4
v 0.3 1.2 0.3
v 0.3 1.2 -0.1
v 0.3 1.3 0.4
v 0.3 1.3 0.3
v 0.3 1.5 0.4
v 0.3 1.5 0.3
v 0.3 1.5 -0.3
v 0.3 1.5 -0.4
v 0.3 1.6 0.3
v 0.3 1.6 -0.3
v 0.4 1.1 -0.1
v 0.4 1.1 -0.3
v 0.4 1.2 0.3
v 0.4 1.2 -0.1
v 0.4 1.2 -0.2
v 0.4 1.3 0.2
v 0.4 1.3 -0.1
v 0.4 1.4 0.2
v 0.4 1.4 -0.2
v 0.4 1.5 0.3
v 0.4 1.5 -0.3
v 0.5 0.4 0.1
v 0.5 0.4 -0.1
v 0.5 0.5 0.1
v 0.5 0.5 -0.1
v 0.5 0.6 0.1
v 0.5 0.6 0
v 0.5 0.6 -0.1
v 0.5 0.7 0.1
v 0.5 0.7 0
v 0.5 0.8 0
v 0.5 0.8 -0.1
v 0.5 0.9 0.1
v 0.5 0.9 0
v 0.5 0.9 -0.1
v 0.5 1 0.1
v 0.5 1 0
v 0.5 1 -0.1
v -0.3 1.3 0.4
v -0.3 1.5 0.4
v -0.1 1.4 0.4
v -0.1 1.5 0.4
v 0 1.4 0.4
v 0 1.5 0.4
v 0.1 1.4 0.4
v 0.1 1.5 0.4
v 0.2 1.4 0.4
v 0.2 1.5 0.4
v 0.3 1.3 0.4
v 0.3 1.5 0.4
v -0.4 1.2 0.3
v -0.4 1.5 0.3
v -0.3 1 0.3
v -0.3 1.2 0.3
v -0.3 1.3 0.3
v -0.3 1.5 0.3
v -0.3 1.6 0.3
v -0.2 1.2 0.3
v -0.2 1.3 0.3
v -0.1 1.2 0.3
v -0.1 1.3 0.3
v -0.1 1.5 0.3
v 0 1.5 0.3
v 0.1 1.2 0.3
v 0.1 1.3 0.3
v 0.1 1.5 0.3
v 0.2 1.2 0.3
v 0.2 1.3 0.3
v 0.2 1.5 0.3
v 0.3 1 0.3
v 0.3 1.2 0.3
v 0.3 1.3 0.3
v 0.3 1.5 0.3
v 0.3 1.6 0.3
v 0.4 1.2 0.3
v 0.4 1.5 0.3
v -0.3 0.5 0.2
v -0.3 0.9 0.2
v -0.2 0.5 0.2
v -0.2 0.7 0.2
v -0.1 0.5 0.2
v -0.1 0.6 0.2
v 0 0.7 0.2
v 0 0.8 0.2
v 0.2 0.6 0.2
v 0.2 0.7 0.2
v 0.3 0.5 0.2
v 0.3 0.7 0.2
v 0.3 0.8 0.2
v 0.3 0.9 0.2
v -0.5 0.4 0.1
v -0.5 0.5 0.1
v -0.5 0.6 0.1
v -0.5 0.9 0.1
v -0.5 1 0.1
v -0.4 0.6 0.1
v -0.4 0.7 0.1
v -0.4 0.9 0.1
v -0.4 1 0.1
v -0.3 0 0.1
v -0.3 0.1 0.1
v -0.3 0.2 0.1
v -0.3 0.3 0.1
v -0.3 0.4 0.1
v -0.3 0.5 0.1
v -0.3 0.6 0.1
v -0.3 0.7 0.1
v -0.3 0.9 0.1
v -0.3 1 0.1
v -0.2 0.3 0.1
v -0.2 0.4 0.1
v -0.2 0.5 0.1
v -0.1 0 0.1
v -0.1 0.1 0.1
v -0.1 0.2 0.1
v -0.1 0.4 0.1
v -0.1 0.5 0.1
v -0.1 0.9 0.1
v -0.1 1 0.1
v 0.1 0 0.1
v 0.1 0.1 0.1
v 0.1 0.4 0.1
v 0.1 0.9 0.1
v 0.1 1 0.1
v 0.2 0.1 0.1
v 0.2 0.3 0.1
v 0.3 0 0.1
v 0.3 0.1 0.1
v 0.3 0.3 0.1
v 0.3 0.4 0.1
v 0.3 0.5 0.1
v 0.3 0.6 0.1
v 0.3 0.7 0.1
v 0.3 0.8 0.1
v 0.3 0.9 0.1
v 0.3 1 0.1
v 0.4 0.6 0.1
v 0.4 0.7 0.1
v 0.4 0.9 0.1
v 0.4 1 0.1
v 0.5 0.4 0.1
v 0.5 0.5 0.1
v 0.5 0.6 0.1
v 0.5 0.7 0.1
v 0.5 0.9 0.1
v 0.5 1 0.1
v -0.4 1.1 -0.1
v -0.4 1.2 -0.1
v -0.3 1.1 -0.1
v -0.3 1.2 -0.1
v 0.3 1.1 -0.1
v 0.3 1.2 -0.1
v 0.4 1.1 -0.1
v 0.4 1.2 -0.1
v -0.5 0.4 -0.1
v -0.5 0.5 -0.1
v -0.5 0.6 -0.1
v -0.5 0.7 -0.1
v -0.5 0.8 -0.1
v -0.5 0.9 -0.1
v -0.5 1 -0.1
v -0.4 0.6 -0.1
v -0.4 0.7 -0.1
v -0.4 0.8 -0.1
v -0.4 0.9 -0.1
v -0.4 1 -0.1
v -0.3 0 -0.1
v -0.3 0.4 -0.1
v -0.3 0.5 -0.1
v -0.3 0.6 -0.1
v -0.3 0.9 -0.1
v -0.3 1 -0.1
v -0.2 0.2 -0.1
v -0.2 0.3 -0.1
v -0.1 0 -0.1
v -0.1 0.2 -0.1
v -0.1 0.3 -0.1
v -0.1 0.4 -0.1
v 0.1 0 -0.1
v 0.1 0.4 -0.1
v 0.1 0.9 -0.1
v 0.2 0 -0.1
v 0.2 0.2 -0.1
v 0.2 0.9 -0.1
v 0.3 0 -0.1
v 0.3 0.2 -0.1
v 0.3 0.4 -0.1
v 0.3 0.5 -0.1
v 0.3 0.6 -0.1
v 0.3 0.7 -0.1
v 0.3 0.9 -0.1
v 0.3 1 -0.1
v 0.4 0.6 -0.1
v 0.4 0.7 -0.1
v 0.4 0.8 -0.1
v 0.4 0.9 -0.1
v 0.5 0.4 -0.1
v 0.5 0.5 -0.1
v 0.5 0.6 -0.1
v 0.5 0.8 -0.1
v 0.5 0.9 -0.1
v 0.5 1 -0.1
v -0.3 0.5 -0.2
v -0.3 0.9 -0.2
v -0.2 0.6 -0.2
v -0.2 0.7 -0.2
v -0.1 0.7 -0.2
v -0.1 0.8 -0.2
v 0.1 0.6 -0.2
v 0.1 0.7 -0.2
v 0.1 0.8 -0.2
v 0.1 0.9 -0.2
v 0.2 0.7 -0.2
v 0.2 0.9 -0.2
v 0.3 0.5 -0.2
v 0.3 0.9 -0.2
v -0.4 1.1 -0.3
v -0.4 1.5 -0.3
v -0.3 1 -0.3
v -0.3 1.1 -0.3
v -0.3 1.5 -0.3
v -0.3 1.6 -0.3
v -0.2 1.5 -0.3
v -0.1 1.5 -0.3
v 0.1 1.5 -0.3
v 0.2 1.5 -0.3
v 0.3 1 -0.3
v 0.3 1.1 -0.3
v 0.3 1.5 -0.3
v 0.3 1.6 -0.3
v 0.4 1.1 -0.3
v 0.4 1.5 -0.3
v -0.3 1.1 -0.4
v -0.3 1.5 -0.4
v -0.2 1.3 -0.4
v -0.2 1.5 -0.4
v -0.1 1.2 -0.4
v -0.1 1.3 -0.4
v -0.1 1.4 -0.4
v -0.1 1.5 -0.4
v 0 1.3 -0.4
v 0 1.4 -0.4
v 0.1 1.2 -0.4
v 0.1 1.3 -0.4
v 0.1 1.5 -0.4
v 0.2 1.3 -0.4
v 0.2 1.5 -0.4
v 0.3 1.1 -0.4
v 0.3 1.5 -0.4
v -0.3 0 0.1
v -0.1 0 0.1
v 0.1 0 0.1
v 0.3 0 0.1
v -0.3 0 0
v -0.1 0 0
v 0.1 0 0
v 0.2 0 0
v 0.3 0 0
v -0.3 0 -0.1
v -0.1 0 -0.1
v 0.1 0 -0.1
v 0.2 0 -0.1
v 0.3 0 -0.1
v -0.5 0.4 0.1
v -0.3 0.4 0.1
v -0.1 0.4 0.1
v 0.1 0.4 0.1
v 0.3 0.4 0.1
v 0.5 0.4 0.1
v -0.1 0.4 0
v -0.5 0.4 -0.1
v -0.3 0.4 -0.1
v -0.1 0.4 -0.1
v 0.1 0.4 -0.1
v 0.3 0.4 -0.1
v 0.5 0.4 -0.1
v -0.3 0.5 0.2
v -0.2 0.5 0.2
v -0.1 0.5 0.2
v 0.3 0.5 0.2
v -0.3 0.5 0.1
v -0.2 0.5 0.1
v -0.1 0.5 0.1
v 0.3 0.5 0.1
v -0.3 0.5 -0.1
v 0.3 0.5 -0.1
v -0.3 0.5 -0.2
v 0.3 0.5 -0.2
v -0.3 1 0.3
v 0.3 1 0.3
v -0.3 1 0.1
v -0.1 1 0.1
v 0.1 1 0.1
v 0.3 1 0.1
v -0.3 1 -0.1
v 0.3 1 -0.1
v -0.3 1 -0.3
v 0.3 1 -0.3
v -0.4 1.1 -0.1
v -0.3 1.1 -0.1
v 0.3 1.1 -0.1
v 0.4 1.1 -0.1
v -0.4 1.1 -0.3
v -0.3 1.1 -0.3
v 0.3 1.1 -0.3
v 0.4 1.1 -0.3
v -0.3 1.1 -0.4
v 0.3 1.1 -0.4
v -0.4 1.2 0.3
v -0.3 1.2 0.3
v 0.3 1.2 0.3
v 0.4 1.2 0.3
v -0.4 1.2 -0.1
v -0.3 1.2 -0.1
v 0.3 1.2 -0.1
v 0.4 1.2 -0.1
v -0.3 1.3 0.4
v 0.3 1.3 0.4
v -0.3 1.3 0.3
v -0.2 1.3 0.3
v -0.1 1.3 0.3
v 0.1 1.3 0.3
v 0.2 1.3 0.3
v 0.3 1.3 0.3
v -0.3 0.9 0.2
v 0.3 0.9 0.2
v -0.3 0.9 0.1
v -0.1 0.9 0.1
v 0.1 0.9 0.1
v 0.3 0.9 0.1
v -0.3 0.9 -0.1
v 0.1 0.9 -0.1
v 0.2 0.9 -0.1
v 0.3 0.9 -0.1
v -0.3 0.9 -0.2
v 0.1 0.9 -0.2
v 0.2 0.9 -0.2
v 0.3 0.9 -0.2
v -0.5 1 0.1
v -0.4 1 0.1
v -0.3 1 0.1
v 0.3 1 0.1
v 0.4 1 0.1
v 0.5 1 0.1
v -0.5 1 0
v -0.4 1 0
v -0.3 1 0
v 0.4 1 0
v 0.5 1 0
v -0.5 1 -0.1
v -0.4 1 -0.1
v -0.3 1 -0.1
v 0.3 1 -0.1
v 0.5 1 -0.1
v -0.3 1.5 0.4
v -0.1 1.5 0.4
v 0 1.5 0.4
v 0.1 1.5 0.4
v 0.2 1.5 0.4
v 0.3 1.5 0.4
v -0.4 1.5 0.3
v -0.3 1.5 0.3
v -0.1 1.5 0.3
v 0 1.5 0.3
v 0.1 1.5 0.3
v 0.2 1.5 0.3
v 0.3 1.5 0.3
v 0.4 1.5 0.3
v -0.4 1.5 -0.3
v -0.3 1.5 -0.3
v -0.2 1.5 -0.3
v -0.1 1.5 -0.3
v 0.1 1.5 -0.3
v 0.2 1.5 -0.3
v 0.3 1.5 -0.3
v 0.4 1.5 -0.3
v -0.3 1.5 -0.4
v -0.2 1.5 -0.4
v -0.1 1.5 -0.4
v 0.1 1.5 -0.4
v 0.2 1.5 -0.4
v 0.3 1.5 -0.4
v -0.3 1.6 0.3
v 0.3 1.6 0.3
v -0.1 1.6 0.1
v 0.2 1.6 0.1
v -0.2 1.6 0
v -0.1 1.6 0
v 0 1.6 0
v 0.1 1.6 0
v -0.2 1.6 -0.1
v 0 1.6 -0.1
v 0.1 1.6 -0.1
v 0.2 1.6 -0.1
v -0.3 1.6 -0.3
v 0.3 1.6 -0.3

# faces
f 3/4/1 2/4/1 1/4/1
f 4/4/1 2/4/1 3/4/1
f 5/5/1 4/5/1 3/5/1
f 6/5/1 4/5/1 5/5/1
f 7/5/1 4/5/1 6/5/1
f 8/3/1 6/3/1 5/3/1
f 8/2/1 7/2/1 6/2/1
f 9/2/1 7/2/1 8/2/1
f 10/3/1 8/3/1 5/3/1
f 10/3/1 9/3/1 8/3/1
f 11/3/1 9/3/1 10/3/1
f 12/3/1 10/3/1 5/3/1
f 13/2/1 11/2/1 10/2/1
f 13/3/1 10/3/1 12/3/1
f 14/2/1 11/2/1 13/2/1
f 15/2/1 13/2/1 12/2/1
f 16/3/1 14/3/1 13/3/1
f 16/2/1 13/2/1 15/2/1
f 17/3/1 14/3/1 16/3/1
f 21/6/1 19/6/1 18/6/1
f 22/6/1 19/6/1 21/6/1
f 23/6/1 21/6/1 20/6/1
f 24/3/1 22/3/1 21/3/1
f 24/6/1 21/6/1 23/6/1
f 25/6/1 23/6/1 20/6/1
f 25/3/1 24/3/1 23/3/1
f 26/6/1 19/6/1 22/6/1
f 26/3/1 24/3/1 25/3/1
f 26/3/1 22/3/1 24/3/1
f 27/6/1 25/6/1 20/6/1
f 27/6/1 26/6/1 25/6/1
f 28/6/1 19/6/1 26/6/1
f 28/6/1 26/6/1 27/6/1
f 32/5/1 30/5/1 29/5/1
f 33/1/1 31/1/1 30/1/1
f 33/5/1 30/5/1 32/5/1
f 34/1/1 33/1/1 32/1/1
f 35/1/1 31/1/1 33/1/1
f 35/1/1 33/1/1 34/1/1
f 36/6/1 35/6/1 34/6/1
f 37/1/1 31/1/1 35/1/1
f 37/6/1 35/6/1 36/6/1
f 38/1/1 37/1/1 36/1/1
f 39/1/1 31/1/1 37/1/1
f 39/1/1 37/1/1 38/1/1
f 44/3/1 41/3/1 40/3/1
f 45/3/1 43/3/1 42/3/1
f 46/3/1 44/3/1 40/3/1
f 47/3/1 46/3/1 40/3/1
f 48/3/1 46/3/1 47/3/1
f 49/3/1 43/3/1 45/3/1
f 50/3/1 43/3/1 49/3/1
f 56/4/1 54/4/1 53/4/1
f 56/6/1 55/6/1 54/6/1
f 56/4/1 53/4/1 52/4/1
f 56/4/1 52/4/1 51/4/1
f 57/6/1 55/6/1 56/6/1
f 59/4/1 56/4/1 51/4/1
f 60/4/1 56/4/1 59/4/1
f 63/6/1 62/6/1 61/6/1
f 64/6/1 62/6/1 63/6/1
f 65/6/1 58/6/1 57/6/1
f 66/6/1 58/6/1 65/6/1
f 67/6/1 65/6/1 64/6/1
f 68/6/1 65/6/1 67/6/1
f 72/5/1 70/5/1 69/5/1
f 73/1/1 71/1/1 70/1/1
f 73/5/1 70/5/1 72/5/1
f 74/1/1 73/1/1 72/1/1
f 75/1/1 71/1/1 73/1/1
f 75/1/1 73/1/1 74/1/1
f 76/5/2 77/5/2 79/5/2
f 77/1/2 78/1/2 80/1/2
f 79/5/2 77/5/2 80/5/2
f 79/1/2 80/1/2 81/1/2
f 80/1/2 78/1/2 82/1/2
f 81/1/2 80/1/2 82/1/2
f 81/6/2 82/6/2 83/6/2
f 83/6/2 82/6/2 84/6/2
f 81/6/2 83/6/2 85/6/2
f 83/1/2 84/1/2 86/1/2
f 85/6/2 83/6/2 86/6/2
f 86/1/2 84/1/2 87/1/2
f 88/5/2 89/5/2 91/5/2
f 89/6/2 90/6/2 92/6/2
f 91/5/2 89/5/2 92/5/2
f 91/6/2 92/6/2 93/6/2
f 92/6/2 90/6/2 93/6/2
f 93/6/2 90/6/2 94/6/2
f 91/6/2 93/6/2 95/6/2
f 93/1/2 94/1/2 96/1/2
f 95/6/2 93/6/2 96/6/2
f 95/1/2 96/1/2 97/1/2
f 96/1/2 94/1/2 98/1/2
f 97/1/2 96/1/2 98/1/2
f 99/3/2 100/3/2 103/3/2
f 101/3/2 102/3/2 104/3/2
f 99/3/2 103/3/2 105/3/2
f 105/3/2 103/3/2 106/3/2
f 104/3/2 102/3/2 107/3/2
f 105/2/2 106/2/2 108/2/2
f 108/2/2 106/2/2 109/2/2
f 108/3/2 109/3/2 110/3/2
f 110/3/2 109/3/2 111/3/2
f 107/3/2 102/3/2 112/3/2
f 112/3/2 102/3/2 113/3/2
f 115/4/2 116/4/2 118/4/2
f 116/6/2 117/6/2 118/6/2
f 114/4/2 115/4/2 118/4/2
f 118/6/2 117/6/2 119/6/2
f 114/4/2 118/4/2 121/4/2
f 121/4/2 118/4/2 122/4/2
f 123/6/2 124/6/2 125/6/2
f 125/6/2 124/6/2 126/6/2
f 119/6/2 120/6/2 127/6/2
f 127/6/2 120/6/2 128/6/2
f 126/6/2 127/6/2 129/6/2
f 129/6/2 127/6/2 130/6/2
f 131/6/2 132/6/2 134/6/2
f 134/6/2 132/6/2 135/6/2
f 133/6/2 134/6/2 136/6/2
f 134/3/2 135/3/2 137/3/2
f 136/6/2 134/6/2 137/6/2
f 133/6/2 136/6/2 138/6/2
f 136/3/2 137/3/2 138/3/2
f 135/6/2 132/6/2 139/6/2
f 138/3/2 137/3/2 139/3/2
f 137/3/2 135/3/2 139/3/2
f 133/6/2 138/6/2 140/6/2
f 138/6/2 139/6/2 140/6/2
f 139/6/2 132/6/2 141/6/2
f 140/6/2 139/6/2 141/6/2
f 142/4/2 143/4/2 144/4/2
f 144/4/2 143/4/2 145/4/2
f 144/5/2 145/5/2 146/5/2
f 146/5/2 145/5/2 147/5/2
f 147/5/2 145/5/2 148/5/2
f 146/2/2 147/2/2 149/2/2
f 147/3/2 148/3/2 150/3/2
f 149/2/2 147/2/2 150/2/2
f 149/3/2 150/3/2 151/3/2
f 150/3/2 148/3/2 151/3/2
f 151/3/2 148/3/2 152/3/2
f 149/3/2 151/3/2 153/3/2
f 151/2/2 152/2/2 154/2/2
f 153/3/2 151/3/2 154/3/2
f 154/2/2 152/2/2 155/2/2
f 153/2/2 154/2/2 156/2/2
f 154/3/2 155/3/2 157/3/2
f 156/2/2 154/2/2 157/2/2
f 157/3/2 155/3/2 158/3/2
f 161/6/3 160/6/3 159/6/3
f 162/6/3 160/6/3 161/6/3
f 163/6/3 161/6/3 159/6/3
f 163/3/3 162/3/3 161/3/3
f 164/3/3 162/3/3 163/3/3
f 165/6/3 163/6/3 159/6/3
f 165/6/3 164/6/3 163/6/3
f 166/6/3 164/6/3 165/6/3
f 167/6/3 165/6/3 159/6/3
f 167/3/3 166/3/3 165/3/3
f 168/3/3 166/3/3 167/3/3
f 169/6/3 167/6/3 159/6/3
f 169/6/3 168/6/3 167/6/3
f 170/6/3 168/6/3 169/6/3
f 174/6/3 172/6/3 171/6/3
f 175/6/3 172/6/3 174/6/3
f 176/6/3 172/6/3 175/6/3
f 178/4/3 174/4/3 173/4/3
f 178/4/3 175/4/3 174/4/3
f 179/4/3 175/4/3 178/4/3
f 180/4/3 178/4/3 173/4/3
f 180/5/3 179/5/3 178/5/3
f 181/5/3 179/5/3 180/5/3
f 182/6/3 177/6/3 176/6/3
f 183/6/3 177/6/3 182/6/3
f 184/4/3 181/4/3 180/4/3
f 184/4/3 180/4/3 173/4/3
f 185/4/3 181/4/3 184/4/3
f 186/6/3 177/6/3 183/6/3
f 187/5/3 185/5/3 184/5/3
f 187/4/3 184/4/3 173/4/3
f 188/5/3 185/5/3 187/5/3
f 189/6/3 177/6/3 186/6/3
f 190/4/3 188/4/3 187/4/3
f 190/4/3 187/4/3 173/4/3
f 191/4/3 188/4/3 190/4/3
f 192/4/3 188/4/3 191/4/3
f 193/6/3 177/6/3 189/6/3
f 194/6/3 177/6/3 193/6/3
f 195/6/3 192/6/3 191/6/3
f 195/6/3 193/6/3 192/6/3
f 196/6/3 193/6/3 195/6/3
f 199/3/3 198/3/3 197/3/3
f 200/3/3 198/3/3 199/3/3
f 201/2/3 200/2/3 199/2/3
f 202/2/3 200/2/3 201/2/3
f 203/3/3 198/3/3 200/3/3
f 203/2/3 200/2/3 202/2/3
f 204/3/3 198/3/3 203/3/3
f 205/3/3 202/3/3 201/3/3
f 205/2/3 203/2/3 202/2/3
f 205/2/3 204/2/3 203/2/3
f 206/2/3 204/2/3 205/2/3
f 207/3/3 205/3/3 201/3/3
f 207/3/3 206/3/3 205/3/3
f 208/2/3 204/2/3 206/2/3
f 208/3/3 206/3/3 207/3/3
f 209/3/3 198/3/3 204/3/3
f 209/2/3 204/2/3 208/2/3
f 210/3/3 198/3/3 209/3/3
f 216/5/3 213/5/3 212/5/3
f 216/3/3 214/3/3 213/3/3
f 217/3/3 214/3/3 216/3/3
f 218/2/3 215/2/3 214/2/3
f 218/3/3 214/3/3 217/3/3
f 219/2/3 215/2/3 218/2/3
f 224/4/3 212/4/3 211/4/3
f 225/5/3 216/5/3 212/5/3
f 225/4/3 212/4/3 224/4/3
f 226/2/3 217/2/3 216/2/3
f 226/5/3 216/5/3 225/5/3
f 227/3/3 218/3/3 217/3/3
f 227/2/3 217/2/3 226/2/3
f 227/3/3 219/3/3 218/3/3
f 228/3/3 219/3/3 227/3/3
f 229/3/3 219/3/3 228/3/3
f 230/6/3 223/6/3 222/6/3
f 230/1/3 225/1/3 224/1/3
f 230/1/3 224/1/3 223/1/3
f 231/1/3 225/1/3 230/1/3
f 232/1/3 225/1/3 231/1/3
f 233/5/3 221/5/3 220/5/3
f 234/1/3 222/1/3 221/1/3
f 234/5/3 221/5/3 233/5/3
f 235/6/3 230/6/3 222/6/3
f 235/1/3 222/1/3 234/1/3
f 235/6/3 231/6/3 230/6/3
f 236/1/3 232/1/3 231/1/3
f 236/6/3 231/6/3 235/6/3
f 237/1/3 232/1/3 236/1/3
f 238/3/3 229/3/3 228/3/3
f 239/3/3 229/3/3 238/3/3
f 242/1/3 237/1/3 236/1/3
f 243/4/3 239/4/3 238/4/3
f 244/4/3 239/4/3 243/4/3
f 245/5/3 241/5/3 240/5/3
f 245/1/3 242/1/3 241/1/3
f 246/1/3 242/1/3 245/1/3
f 247/5/3 245/5/3 240/5/3
f 248/6/3 246/6/3 245/6/3
f 248/5/3 245/5/3 247/5/3
f 249/1/3 242/1/3 246/1/3
f 249/6/3 246/6/3 248/6/3
f 250/1/3 237/1/3 242/1/3
f 250/1/3 242/1/3 249/1/3
f 251/1/3 237/1/3 250/1/3
f 255/3/3 244/3/3 243/3/3
f 256/3/3 244/3/3 255/3/3
f 257/3/3 254/3/3 253/3/3
f 257/3/3 256/3/3 255/3/3
f 257/3/3 255/3/3 254/3/3
f 257/3/3 253/3/3 252/3/3
f 257/5/3 252/5/3 251/5/3
f 258/3/3 256/3/3 257/3/3
f 259/3/3 256/3/3 258/3/3
f 260/3/3 256/3/3 259/3/3
f 261/4/3 251/4/3 250/4/3
f 262/5/3 257/5/3 251/5/3
f 262/4/3 251/4/3 261/4/3
f 263/2/3 258/2/3 257/2/3
f 263/5/3 257/5/3 262/5/3
f 264/3/3 259/3/3 258/3/3
f 264/2/3 258/2/3 263/2/3
f 265/2/3 260/2/3 259/2/3
f 265/3/3 259/3/3 264/3/3
f 266/2/3 260/2/3 265/2/3
f 269/6/3 268/6/3 267/6/3
f 270/6/3 268/6/3 269/6/3
f 273/6/3 272/6/3 271/6/3
f 274/6/3 272/6/3 273/6/3
f 276/5/4 277/5/4 282/5/4
f 277/2/4 278/2/4 282/2/4
f 278/3/4 279/3/4 283/3/4
f 282/2/4 278/2/4 283/2/4
f 279/2/4 280/2/4 284/2/4
f 283/3/4 279/3/4 284/3/4
f 280/3/4 281/3/4 285/3/4
f 284/2/4 280/2/4 285/2/4
f 285/3/4 281/3/4 286/3/4
f 275/4/4 276/4/4 288/4/4
f 276/5/4 282/5/4 289/5/4
f 288/4/4 276/4/4 289/4/4
f 283/3/4 284/3/4 290/3/4
f 289/5/4 282/5/4 290/5/4
f 282/3/4 283/3/4 290/3/4
f 284/3/4 285/3/4 290/3/4
f 285/2/4 286/2/4 291/2/4
f 290/3/4 285/3/4 291/3/4
f 291/2/4 286/2/4 292/2/4
f 288/1/4 289/1/4 293/1/4
f 287/1/4 288/1/4 293/1/4
f 293/1/4 289/1/4 294/1/4
f 287/1/4 293/1/4 295/1/4
f 293/6/4 294/6/4 296/6/4
f 295/1/4 293/1/4 296/1/4
f 294/1/4 289/1/4 297/1/4
f 296/6/4 294/6/4 297/6/4
f 297/1/4 289/1/4 298/1/4
f 298/1/4 289/1/4 300/1/4
f 291/3/4 292/3/4 301/3/4
f 299/1/4 300/1/4 302/1/4
f 302/1/4 300/1/4 303/1/4
f 301/3/4 292/3/4 304/3/4
f 302/6/4 303/6/4 305/6/4
f 303/1/4 300/1/4 306/1/4
f 305/6/4 303/6/4 306/6/4
f 300/1/4 289/1/4 307/1/4
f 306/1/4 300/1/4 307/1/4
f 307/1/4 289/1/4 308/1/4
f 304/3/4 292/3/4 311/3/4
f 311/3/4 292/3/4 312/3/4
f 309/2/4 310/2/4 313/2/4
f 308/5/4 309/5/4 313/5/4
f 311/3/4 312/3/4 314/3/4
f 313/2/4 310/2/4 314/2/4
f 310/3/4 311/3/4 314/3/4
f 314/3/4 312/3/4 315/3/4
f 315/3/4 312/3/4 316/3/4
f 307/4/4 308/4/4 317/4/4
f 308/5/4 313/5/4 318/5/4
f 317/4/4 308/4/4 318/4/4
f 313/3/4 314/3/4 319/3/4
f 318/5/4 313/5/4 319/5/4
f 314/3/4 315/3/4 319/3/4
f 315/2/4 316/2/4 320/2/4
f 319/3/4 315/3/4 320/3/4
f 316/3/4 312/3/4 321/3/4
f 320/2/4 316/2/4 321/2/4
f 321/3/4 312/3/4 322/3/4
f 323/3/4 324/3/4 325/3/4
f 325/3/4 324/3/4 326/3/4
f 325/2/4 326/2/4 327/2/4
f 326/3/4 324/3/4 327/3/4
f 327/3/4 324/3/4 328/3/4
f 323/3/4 325/3/4 329/3/4
f 325/2/4 327/2/4 329/2/4
f 327/2/4 328/2/4 329/2/4
f 329/2/4 328/2/4 330/2/4
f 328/3/4 324/3/4 331/3/4
f 330/2/4 328/2/4 331/2/4
f 331/3/4 324/3/4 332/3/4
f 329/3/4 330/3/4 333/3/4
f 330/2/4 331/2/4 333/2/4
f 331/2/4 332/2/4 333/2/4
f 333/2/4 332/2/4 334/2/4
f 323/3/4 329/3/4 335/3/4
f 329/3/4 333/3/4 335/3/4
f 333/3/4 334/3/4 335/3/4
f 335/3/4 334/3/4 336/3/4
f 337/6/4 338/6/4 340/6/4
f 340/6/4 338/6/4 341/6/4
f 341/6/4 342/6/4 343/6/4
f 343/6/4 342/6/4 344/6/4
f 344/6/4 342/6/4 345/6/4
f 345/6/4 342/6/4 346/6/4
f 339/6/4 340/6/4 347/6/4
f 347/6/4 340/6/4 348/6/4
f 346/6/4 342/6/4 349/6/4
f 349/6/4 342/6/4 350/6/4
f 348/6/4 349/6/4 351/6/4
f 351/6/4 349/6/4 352/6/4
f 353/6/4 354/6/4 355/6/4
f 355/6/4 354/6/4 356/6/4
f 353/6/4 355/6/4 357/6/4
f 355/3/4 356/3/4 358/3/4
f 357/6/4 355/6/4 358/6/4
f 358/3/4 356/3/4 359/3/4
f 359/3/4 356/3/4 360/3/4
f 357/3/4 358/3/4 361/3/4
f 358/3/4 359/3/4 361/3/4
f 359/6/4 360/6/4 362/6/4
f 361/3/4 359/3/4 362/3/4
f 353/6/4 357/6/4 363/6/4
f 357/3/4 361/3/4 363/3/4
f 361/6/4 362/6/4 364/6/4
f 363/3/4 361/3/4 364/3/4
f 362/6/4 360/6/4 365/6/4
f 364/6/4 362/6/4 365/6/4
f 363/6/4 364/6/4 366/6/4
f 364/3/4 365/3/4 366/3/4
f 366/3/4 365/3/4 367/3/4
f 353/6/4 363/6/4 368/6/4
f 363/6/4 366/6/4 368/6/4
f 366/6/4 367/6/4 368/6/4
f 368/6/4 367/6/4 369/6/4
f 374/5/5 371/5/5 370/5/5
f 375/5/5 371/5/5 374/5/5
f 376/5/5 373/5/5 372/5/5
f 377/5/5 373/5/5 376/5/5
f 378/5/5 373/5/5 377/5/5
f 379/1/5 375/1/5 374/1/5
f 380/1/5 375/1/5 379/1/5
f 381/1/5 377/1/5 376/1/5
f 382/6/5 378/6/5 377/6/5
f 382/1/5 377/1/5 381/1/5
f 383/6/5 378/6/5 382/6/5
f 390/1/5 387/1/5 386/1/5
f 391/4/5 385/4/5 384/4/5
f 392/4/5 385/4/5 391/4/5
f 393/1/5 387/1/5 390/1/5
f 394/1/5 387/1/5 393/1/5
f 395/4/5 389/4/5 388/4/5
f 396/4/5 389/4/5 395/4/5
f 401/3/5 398/3/5 397/3/5
f 402/2/5 399/2/5 398/2/5
f 402/3/5 398/3/5 401/3/5
f 403/3/5 400/3/5 399/3/5
f 403/2/5 399/2/5 402/2/5
f 404/3/5 400/3/5 403/3/5
f 407/3/5 406/3/5 405/3/5
f 408/3/5 406/3/5 407/3/5
f 411/4/5 410/4/5 409/4/5
f 412/4/5 410/4/5 411/4/5
f 413/4/5 410/4/5 412/4/5
f 414/4/5 410/4/5 413/4/5
f 417/6/5 416/6/5 415/6/5
f 418/6/5 416/6/5 417/6/5
f 423/6/5 420/6/5 419/6/5
f 424/6/5 420/6/5 423/6/5
f 425/6/5 422/6/5 421/6/5
f 426/6/5 422/6/5 425/6/5
f 427/6/5 425/6/5 424/6/5
f 428/6/5 425/6/5 427/6/5
f 433/6/5 430/6/5 429/6/5
f 434/6/5 430/6/5 433/6/5
f 435/6/5 432/6/5 431/6/5
f 436/6/5 432/6/5 435/6/5
f 439/6/5 438/6/5 437/6/5
f 440/6/5 438/6/5 439/6/5
f 441/6/5 438/6/5 440/6/5
f 442/6/5 438/6/5 441/6/5
f 443/6/5 438/6/5 442/6/5
f 444/6/5 438/6/5 443/6/5
f 445/3/6 446/3/6 447/3/6
f 447/3/6 446/3/6 448/3/6
f 448/3/6 446/3/6 449/3/6
f 449/3/6 446/3/6 450/3/6
f 451/3/6 452/3/6 455/3/6
f 452/2/6 453/2/6 456/2/6
f 455/3/6 452/3/6 456/3/6
f 453/3/6 454/3/6 457/3/6
f 456/2/6 453/2/6 457/2/6
f 457/3/6 454/3/6 458/3/6
f 459/2/6 460/2/6 465/2/6
f 460/3/6 461/3/6 466/3/6
f 465/2/6 460/2/6 466/2/6
f 466/3/6 461/3/6 467/3/6
f 463/2/6 464/2/6 468/2/6
f 462/3/6 463/3/6 468/3/6
f 468/2/6 464/2/6 469/2/6
f 465/3/6 466/3/6 470/3/6
f 466/2/6 467/2/6 471/2/6
f 470/3/6 466/3/6 471/3/6
f 471/2/6 467/2/6 472/2/6
f 462/3/6 468/3/6 473/3/6
f 468/3/6 469/3/6 473/3/6
f 473/3/6 469/3/6 474/3/6
f 475/6/6 476/6/6 482/6/6
f 476/3/6 477/3/6 483/3/6
f 482/6/6 476/6/6 483/6/6
f 477/6/6 478/6/6 484/6/6
f 483/3/6 477/3/6 484/3/6
f 478/3/6 479/3/6 485/3/6
f 484/6/6 478/6/6 485/6/6
f 479/6/6 480/6/6 486/6/6
f 485/3/6 479/3/6 486/3/6
f 486/6/6 480/6/6 487/6/6
f 481/6/6 482/6/6 489/6/6
f 489/6/6 482/6/6 490/6/6
f 487/6/6 488/6/6 495/6/6
f 495/6/6 488/6/6 496/6/6
f 490/6/6 491/6/6 497/6/6
f 491/3/6 492/3/6 498/3/6
f 497/6/6 491/6/6 498/6/6
f 492/6/6 493/6/6 499/6/6
f 498/3/6 492/3/6 499/3/6
f 493/3/6 494/3/6 500/3/6
f 499/6/6 493/6/6 500/6/6
f 494/6/6 495/6/6 501/6/6
f 500/3/6 494/3/6 501/3/6
f 501/6/6 495/6/6 502/6/6
f 503/6/6 504/6/6 505/6/6
f 505/6/6 504/6/6 506/6/6
f 503/6/6 505/6/6 507/6/6
f 505/3/6 506/3/6 508/3/6
f 507/6/6 505/6/6 508/6/6
f 508/3/6 506/3/6 509/3/6
f 509/3/6 506/3/6 510/3/6
f 503/6/6 507/6/6 511/6/6
f 507/3/6 508/3/6 511/3/6
f 508/3/6 509/3/6 511/3/6
f 509/6/6 510/6/6 512/6/6
f 511/3/6 509/3/6 512/3/6
f 510/3/6 506/3/6 513/3/6
f 512/6/6 510/6/6 513/6/6
f 506/6/6 504/6/6 514/6/6
f 513/3/6 506/3/6 514/3/6
f 512/6/6 513/6/6 515/6/6
f 511/6/6 512/6/6 515/6/6
f 513/6/6 514/6/6 515/6/6
f 503/6/6 511/6/6 515/6/6
f 514/6/6 504/6/6 516/6/6
f 515/6/6 514/6/6 516/6/6
