# MagicaVoxel @ Ephtracy

# group
o 

# material
mtllib man_blue.mtl
usemtl palette

# normals
vn -1 0 0
vn 1 0 0
vn 0 0 1
vn 0 0 -1
vn 0 -1 0
vn 0 1 0

# texcoords
vt 0.244141 0.5
vt 0.458984 0.5
vt 0.787109 0.5
vt 0.947266 0.5
vt 0.974609 0.5

# verts
v -0.5 0.4 0.1
v -0.5 0.4 -0.1
v -0.5 0.5 0.1
v -0.5 0.5 -0.1
v -0.5 0.6 0.1
v -0.5 0.6 0
v -0.5 0.6 -0.1
v -0.5 0.7 0
v -0.5 0.7 -0.1
v -0.5 0.8 0
v -0.5 0.8 -0.1
v -0.5 0.9 0.1
v -0.5 0.9 0
v -0.5 0.9 -0.1
v -0.5 1 0.1
v -0.5 1 0
v -0.5 1 -0.1
v -0.4 1.1 -0.1
v -0.4 1.1 -0.3
v -0.4 1.2 0.3
v -0.4 1.2 -0.1
v -0.4 1.2 -0.2
v -0.4 1.3 0.1
v -0.4 1.3 -0.1
v -0.4 1.4 0.1
v -0.4 1.4 -0.2
v -0.4 1.5 0.3
v -0.4 1.5 -0.3
v -0.3 0 0.1
v -0.3 0 0
v -0.3 0 -0.1
v -0.3 0.1 0.1
v -0.3 0.1 0
v -0.3 0.2 0.1
v -0.3 0.2 0
v -0.3 0.3 0.1
v -0.3 0.3 0
v -0.3 0.4 0.1
v -0.3 0.4 -0.1
v -0.3 0.5 0.2
v -0.3 0.5 0.1
v -0.3 0.5 -0.1
v -0.3 0.5 -0.2
v -0.3 0.6 0.1
v -0.3 0.6 -0.1
v -0.3 0.7 0.1
v -0.3 0.9 0.2
v -0.3 0.9 0.1
v -0.3 0.9 -0.1
v -0.3 0.9 -0.2
v -0.3 1 0.3
v -0.3 1 0.1
v -0.3 1 0
v -0.3 1 -0.1
v -0.3 1 -0.3
v -0.3 1.1 -0.1
v -0.3 1.1 -0.3
v -0.3 1.1 -0.4
v -0.3 1.2 0.3
v -0.3 1.2 -0.1
v -0.3 1.3 0.4
v -0.3 1.3 0.3
v -0.3 1.5 0.4
v -0.3 1.5 0.3
v -0.3 1.5 -0.3
v -0.3 1.5 -0.4
v -0.3 1.6 0.3
v -0.3 1.6 -0.3
v 0.1 0 0.1
v 0.1 0 0
v 0.1 0 -0.1
v 0.1 0.1 0.1
v 0.1 0.1 0
v 0.1 0.4 0.1
v 0.1 0.4 -0.1
v -0.1 0 0.1
v -0.1 0 0
v -0.1 0 -0.1
v -0.1 0.1 0.1
v -0.1 0.1 0
v -0.1 0.2 0.1
v -0.1 0.2 -0.1
v -0.1 0.3 0
v -0.1 0.3 -0.1
v -0.1 0.4 0.1
v -0.1 0.4 0
v -0.1 0.4 -0.1
v 0.3 0 0.1
v 0.3 0 -0.1
v 0.3 0.2 0
v 0.3 0.2 -0.1
v 0.3 0.3 0.1
v 0.3 0.3 0
v 0.3 0.4 0.1
v 0.3 0.4 -0.1
v 0.3 0.5 0.2
v 0.3 0.5 0.1
v 0.3 0.5 -0.1
v 0.3 0.5 -0.2
v 0.3 0.6 0.1
v 0.3 0.6 -0.1
v 0.3 0.7 0.2
v 0.3 0.7 0.1
v 0.3 0.7 -0.1
v 0.3 0.8 0.2
v 0.3 0.8 0.1
v 0.3 0.9 0.2
v 0.3 0.9 0.1
v 0.3 0.9 -0.1
v 0.3 0.9 -0.2
v 0.3 1 0.3
v 0.3 1 0.1
v 0.3 1 -0.1
v 0.3 1 -0.3
v 0.3 1.1 -0.1
v 0.3 1.1 -0.3
v 0.3 1.1 -0.4
v 0.3 1.2 0.3
v 0.3 1.2 -0.1
v 0.3 1.3 0.4
v 0.3 1.3 0.3
v 0.3 1.5 0.4
v 0.3 1.5 0.3
v 0.3 1.5 -0.3
v 0.3 1.5 -0.4
v 0.3 1.6 0.3
v 0.3 1.6 -0.3
v 0.4 1.1 -0.1
v 0.4 1.1 -0.3
v 0.4 1.2 0.3
v 0.4 1.2 -0.1
v 0.4 1.2 -0.2
v 0.4 1.3 0.2
v 0.4 1.3 -0.1
v 0.4 1.4 0.2
v 0.4 1.4 -0.2
v 0.4 1.5 0.3
v 0.4 1.5 -0.3
v 0.5 0.4 0.1
v 0.5 0.4 -0.1
v 0.5 0.5 0.1
v 0.5 0.5 -0.1
v 0.5 0.6 0.1
v 0.5 0.6 0
v 0.5 0.6 -0.1
v 0.5 0.7 0.1
v 0.5 0.7 0
v 0.5 0.8 0
v 0.5 0.8 -0.1
v 0.5 0.9 0.1
v 0.5 0.9 0
v 0.5 0.9 -0.1
v 0.5 1 0.1
v 0.5 1 0
v 0.5 1 -0.1
v -0.3 1.3 0.4
v -0.3 1.5 0.4
v -0.1 1.4 0.4
v -0.1 1.5 0.4
v 0 1.4 0.4
v 0 1.5 0.4
v 0.1 1.4 0.4
v 0.1 1.5 0.4
v 0.2 1.4 0.4
v 0.2 1.5 0.4
v 0.3 1.3 0.4
v 0.3 1.5 0.4
v -0.4 1.2 0.3
v -0.4 1.5 0.3
v -0.3 1 0.3
v -0.3 1.2 0.3
v -0.3 1.3 0.3
v -0.3 1.5 0.3
v -0.3 1.6 0.3
v -0.2 1.2 0.3
v -0.2 1.3 0.3
v -0.1 1.2 0.3
v -0.1 1.3 0.3
v -0.1 1.5 0.3
v 0 1.5 0.3
v 0.1 1.2 0.3
v 0.1 1.3 0.3
v 0.1 1.5 0.3
v 0.2 1.2 0.3
v 0.2 1.3 0.3
v 0.2 1.5 0.3
v 0.3 1 0.3
v 0.3 1.2 0.3
v 0.3 1.3 0.3
v 0.3 1.5 0.3
v 0.3 1.6 0.3
v 0.4 1.2 0.3
v 0.4 1.5 0.3
v -0.3 0.5 0.2
v -0.3 0.9 0.2
v -0.2 0.5 0.2
v -0.2 0.7 0.2
v -0.1 0.5 0.2
v -0.1 0.6 0.2
v 0 0.7 0.2
v 0 0.8 0.2
v 0.2 0.6 0.2
v 0.2 0.7 0.2
v 0.3 0.5 0.2
v 0.3 0.7 0.2
v 0.3 0.8 0.2
v 0.3 0.9 0.2
v -0.5 0.4 0.1
v -0.5 0.5 0.1
v -0.5 0.6 0.1
v -0.5 0.9 0.1
v -0.5 1 0.1
v -0.4 0.6 0.1
v -0.4 0.7 0.1
v -0.4 0.9 0.1
v -0.4 1 0.1
v -0.3 0 0.1
v -0.3 0.1 0.1
v -0.3 0.2 0.1
v -0.3 0.3 0.1
v -0.3 0.4 0.1
v -0.3 0.5 0.1
v -0.3 0.6 0.1
v -0.3 0.7 0.1
v -0.3 0.9 0.1
v -0.3 1 0.1
v -0.2 0.3 0.1
v -0.2 0.4 0.1
v -0.2 0.5 0.1
v -0.1 0 0.1
v -0.1 0.1 0.1
v -0.1 0.2 0.1
v -0.1 0.4 0.1
v -0.1 0.5 0.1
v -0.1 0.9 0.1
v -0.1 1 0.1
v 0.1 0 0.1
v 0.1 0.1 0.1
v 0.1 0.4 0.1
v 0.1 0.9 0.1
v 0.1 1 0.1
v 0.2 0.1 0.1
v 0.2 0.3 0.1
v 0.3 0 0.1
v 0.3 0.3 0.1
v 0.3 0.4 0.1
v 0.3 0.5 0.1
v 0.3 0.6 0.1
v 0.3 0.7 0.1
v 0.3 0.8 0.1
v 0.3 0.9 0.1
v 0.3 1 0.1
v 0.4 0.6 0.1
v 0.4 0.7 0.1
v 0.4 0.9 0.1
v 0.4 1 0.1
v 0.5 0.4 0.1
v 0.5 0.5 0.1
v 0.5 0.6 0.1
v 0.5 0.7 0.1
v 0.5 0.9 0.1
v 0.5 1 0.1
v -0.4 1.1 -0.1
v -0.4 1.2 -0.1
v -0.3 1.1 -0.1
v -0.3 1.2 -0.1
v 0.3 1.1 -0.1
v 0.3 1.2 -0.1
v 0.4 1.1 -0.1
v 0.4 1.2 -0.1
v -0.5 0.4 -0.1
v -0.5 0.5 -0.1
v -0.5 0.6 -0.1
v -0.5 0.7 -0.1
v -0.5 0.8 -0.1
v -0.5 0.9 -0.1
v -0.5 1 -0.1
v -0.4 0.6 -0.1
v -0.4 0.7 -0.1
v -0.4 0.8 -0.1
v -0.4 0.9 -0.1
v -0.4 1 -0.1
v -0.3 0 -0.1
v -0.3 0.4 -0.1
v -0.3 0.5 -0.1
v -0.3 0.6 -0.1
v -0.3 0.9 -0.1
v -0.3 1 -0.1
v -0.2 0.2 -0.1
v -0.2 0.3 -0.1
v -0.1 0 -0.1
v -0.1 0.2 -0.1
v -0.1 0.3 -0.1
v -0.1 0.4 -0.1
v 0.1 0 -0.1
v 0.1 0.4 -0.1
v 0.1 0.9 -0.1
v 0.2 0 -0.1
v 0.2 0.2 -0.1
v 0.2 0.9 -0.1
v 0.3 0 -0.1
v 0.3 0.2 -0.1
v 0.3 0.4 -0.1
v 0.3 0.5 -0.1
v 0.3 0.6 -0.1
v 0.3 0.7 -0.1
v 0.3 0.9 -0.1
v 0.3 1 -0.1
v 0.4 0.6 -0.1
v 0.4 0.7 -0.1
v 0.4 0.8 -0.1
v 0.4 0.9 -0.1
v 0.5 0.4 -0.1
v 0.5 0.5 -0.1
v 0.5 0.6 -0.1
v 0.5 0.8 -0.1
v 0.5 0.9 -0.1
v 0.5 1 -0.1
v -0.3 0.5 -0.2
v -0.3 0.9 -0.2
v -0.2 0.6 -0.2
v -0.2 0.7 -0.2
v -0.1 0.7 -0.2
v -0.1 0.8 -0.2
v 0.1 0.6 -0.2
v 0.1 0.7 -0.2
v 0.1 0.8 -0.2
v 0.1 0.9 -0.2
v 0.2 0.7 -0.2
v 0.2 0.9 -0.2
v 0.3 0.5 -0.2
v 0.3 0.9 -0.2
v -0.4 1.1 -0.3
v -0.4 1.5 -0.3
v -0.3 1 -0.3
v -0.3 1.1 -0.3
v -0.3 1.5 -0.3
v -0.3 1.6 -0.3
v -0.2 1.5 -0.3
v -0.1 1.5 -0.3
v 0.1 1.5 -0.3
v 0.2 1.5 -0.3
v 0.3 1 -0.3
v 0.3 1.1 -0.3
v 0.3 1.5 -0.3
v 0.3 1.6 -0.3
v 0.4 1.1 -0.3
v 0.4 1.5 -0.3
v -0.3 1.1 -0.4
v -0.3 1.5 -0.4
v -0.2 1.3 -0.4
v -0.2 1.5 -0.4
v -0.1 1.2 -0.4
v -0.1 1.3 -0.4
v -0.1 1.4 -0.4
v -0.1 1.5 -0.4
v 0 1.3 -0.4
v 0 1.4 -0.4
v 0.1 1.2 -0.4
v 0.1 1.3 -0.4
v 0.1 1.5 -0.4
v 0.2 1.3 -0.4
v 0.2 1.5 -0.4
v 0.3 1.1 -0.4
v 0.3 1.5 -0.4
v -0.3 0 0.1
v -0.1 0 0.1
v 0.1 0 0.1
v 0.3 0 0.1
v -0.3 0 0
v -0.1 0 0
v 0.1 0 0
v 0.2 0 0
v -0.3 0 -0.1
v -0.1 0 -0.1
v 0.1 0 -0.1
v 0.2 0 -0.1
v 0.3 0 -0.1
v -0.5 0.4 0.1
v -0.3 0.4 0.1
v -0.1 0.4 0.1
v 0.1 0.4 0.1
v 0.3 0.4 0.1
v 0.5 0.4 0.1
v -0.1 0.4 0
v -0.5 0.4 -0.1
v -0.3 0.4 -0.1
v -0.1 0.4 -0.1
v 0.1 0.4 -0.1
v 0.3 0.4 -0.1
v 0.5 0.4 -0.1
v -0.3 0.5 0.2
v -0.2 0.5 0.2
v -0.1 0.5 0.2
v 0.3 0.5 0.2
v -0.3 0.5 0.1
v -0.2 0.5 0.1
v -0.1 0.5 0.1
v 0.3 0.5 0.1
v -0.3 0.5 -0.1
v 0.3 0.5 -0.1
v -0.3 0.5 -0.2
v 0.3 0.5 -0.2
v -0.3 1 0.3
v 0.3 1 0.3
v -0.3 1 0.1
v -0.1 1 0.1
v 0.1 1 0.1
v 0.3 1 0.1
v -0.3 1 -0.1
v 0.3 1 -0.1
v -0.3 1 -0.3
v 0.3 1 -0.3
v -0.4 1.1 -0.1
v -0.3 1.1 -0.1
v 0.3 1.1 -0.1
v 0.4 1.1 -0.1
v -0.4 1.1 -0.3
v -0.3 1.1 -0.3
v 0.3 1.1 -0.3
v 0.4 1.1 -0.3
v -0.3 1.1 -0.4
v 0.3 1.1 -0.4
v -0.4 1.2 0.3
v -0.3 1.2 0.3
v 0.3 1.2 0.3
v 0.4 1.2 0.3
v -0.4 1.2 -0.1
v -0.3 1.2 -0.1
v 0.3 1.2 -0.1
v 0.4 1.2 -0.1
v -0.3 1.3 0.4
v 0.3 1.3 0.4
v -0.3 1.3 0.3
v -0.2 1.3 0.3
v -0.1 1.3 0.3
v 0.1 1.3 0.3
v 0.2 1.3 0.3
v 0.3 1.3 0.3
v -0.3 0.9 0.2
v 0.3 0.9 0.2
v -0.3 0.9 0.1
v -0.1 0.9 0.1
v 0.1 0.9 0.1
v 0.3 0.9 0.1
v -0.3 0.9 -0.1
v 0.1 0.9 -0.1
v 0.2 0.9 -0.1
v 0.3 0.9 -0.1
v -0.3 0.9 -0.2
v 0.1 0.9 -0.2
v 0.2 0.9 -0.2
v 0.3 0.9 -0.2
v -0.5 1 0.1
v -0.4 1 0.1
v -0.3 1 0.1
v 0.3 1 0.1
v 0.4 1 0.1
v 0.5 1 0.1
v -0.5 1 0
v -0.4 1 0
v -0.3 1 0
v 0.4 1 0
v 0.5 1 0
v -0.5 1 -0.1
v -0.4 1 -0.1
v -0.3 1 -0.1
v 0.3 1 -0.1
v 0.5 1 -0.1
v -0.3 1.5 0.4
v -0.1 1.5 0.4
v 0 1.5 0.4
v 0.1 1.5 0.4
v 0.2 1.5 0.4
v 0.3 1.5 0.4
v -0.4 1.5 0.3
v -0.3 1.5 0.3
v -0.1 1.5 0.3
v 0 1.5 0.3
v 0.1 1.5 0.3
v 0.2 1.5 0.3
v 0.3 1.5 0.3
v 0.4 1.5 0.3
v -0.4 1.5 -0.3
v -0.3 1.5 -0.3
v -0.2 1.5 -0.3
v -0.1 1.5 -0.3
v 0.1 1.5 -0.3
v 0.2 1.5 -0.3
v 0.3 1.5 -0.3
v 0.4 1.5 -0.3
v -0.3 1.5 -0.4
v -0.2 1.5 -0.4
v -0.1 1.5 -0.4
v 0.1 1.5 -0.4
v 0.2 1.5 -0.4
v 0.3 1.5 -0.4
v -0.3 1.6 0.3
v 0.3 1.6 0.3
v -0.1 1.6 0.1
v 0.2 1.6 0.1
v -0.2 1.6 0
v -0.1 1.6 0
v 0 1.6 0
v 0.1 1.6 0
v -0.2 1.6 -0.1
v 0 1.6 -0.1
v 0.1 1.6 -0.1
v 0.2 1.6 -0.1
v -0.3 1.6 -0.3
v 0.3 1.6 -0.3

# faces
f 3/3/1 2/3/1 1/3/1
f 4/3/1 2/3/1 3/3/1
f 5/4/1 4/4/1 3/4/1
f 6/4/1 4/4/1 5/4/1
f 7/4/1 4/4/1 6/4/1
f 8/5/1 6/5/1 5/5/1
f 8/2/1 7/2/1 6/2/1
f 9/2/1 7/2/1 8/2/1
f 10/5/1 8/5/1 5/5/1
f 10/5/1 9/5/1 8/5/1
f 11/5/1 9/5/1 10/5/1
f 12/5/1 10/5/1 5/5/1
f 13/2/1 11/2/1 10/2/1
f 13/5/1 10/5/1 12/5/1
f 14/2/1 11/2/1 13/2/1
f 15/2/1 13/2/1 12/2/1
f 16/5/1 14/5/1 13/5/1
f 16/2/1 13/2/1 15/2/1
f 17/5/1 14/5/1 16/5/1
f 21/4/1 19/4/1 18/4/1
f 22/4/1 19/4/1 21/4/1
f 23/4/1 21/4/1 20/4/1
f 24/5/1 22/5/1 21/5/1
f 24/4/1 21/4/1 23/4/1
f 25/4/1 23/4/1 20/4/1
f 25/5/1 24/5/1 23/5/1
f 26/4/1 19/4/1 22/4/1
f 26/5/1 24/5/1 25/5/1
f 26/5/1 22/5/1 24/5/1
f 27/4/1 25/4/1 20/4/1
f 27/4/1 26/4/1 25/4/1
f 28/4/1 19/4/1 26/4/1
f 28/4/1 26/4/1 27/4/1
f 32/4/1 30/4/1 29/4/1
f 33/1/1 31/1/1 30/1/1
f 33/4/1 30/4/1 32/4/1
f 34/1/1 33/1/1 32/1/1
f 35/1/1 31/1/1 33/1/1
f 35/1/1 33/1/1 34/1/1
f 36/4/1 35/4/1 34/4/1
f 37/1/1 31/1/1 35/1/1
f 37/4/1 35/4/1 36/4/1
f 38/1/1 37/1/1 36/1/1
f 39/1/1 31/1/1 37/1/1
f 39/1/1 37/1/1 38/1/1
f 44/5/1 41/5/1 40/5/1
f 45/5/1 43/5/1 42/5/1
f 46/5/1 44/5/1 40/5/1
f 47/5/1 46/5/1 40/5/1
f 48/5/1 46/5/1 47/5/1
f 49/5/1 43/5/1 45/5/1
f 50/5/1 43/5/1 49/5/1
f 56/3/1 54/3/1 53/3/1
f 56/4/1 55/4/1 54/4/1
f 56/3/1 53/3/1 52/3/1
f 56/3/1 52/3/1 51/3/1
f 57/4/1 55/4/1 56/4/1
f 59/3/1 56/3/1 51/3/1
f 60/3/1 56/3/1 59/3/1
f 63/4/1 62/4/1 61/4/1
f 64/4/1 62/4/1 63/4/1
f 65/4/1 58/4/1 57/4/1
f 66/4/1 58/4/1 65/4/1
f 67/4/1 65/4/1 64/4/1
f 68/4/1 65/4/1 67/4/1
f 72/4/1 70/4/1 69/4/1
f 73/1/1 71/1/1 70/1/1
f 73/4/1 70/4/1 72/4/1
f 74/1/1 73/1/1 72/1/1
f 75/1/1 71/1/1 73/1/1
f 75/1/1 73/1/1 74/1/1
f 76/4/2 77/4/2 79/4/2
f 77/1/2 78/1/2 80/1/2
f 79/4/2 77/4/2 80/4/2
f 79/1/2 80/1/2 81/1/2
f 80/1/2 78/1/2 82/1/2
f 81/1/2 80/1/2 82/1/2
f 81/4/2 82/4/2 83/4/2
f 83/4/2 82/4/2 84/4/2
f 81/4/2 83/4/2 85/4/2
f 83/1/2 84/1/2 86/1/2
f 85/4/2 83/4/2 86/4/2
f 86/1/2 84/1/2 87/1/2
f 88/4/2 89/4/2 90/4/2
f 90/4/2 89/4/2 91/4/2
f 88/4/2 90/4/2 92/4/2
f 90/1/2 91/1/2 93/1/2
f 92/4/2 90/4/2 93/4/2
f 92/1/2 93/1/2 94/1/2
f 93/1/2 91/1/2 95/1/2
f 94/1/2 93/1/2 95/1/2
f 96/5/2 97/5/2 100/5/2
f 98/5/2 99/5/2 101/5/2
f 96/5/2 100/5/2 102/5/2
f 102/5/2 100/5/2 103/5/2
f 101/5/2 99/5/2 104/5/2
f 102/2/2 103/2/2 105/2/2
f 105/2/2 103/2/2 106/2/2
f 105/5/2 106/5/2 107/5/2
f 107/5/2 106/5/2 108/5/2
f 104/5/2 99/5/2 109/5/2
f 109/5/2 99/5/2 110/5/2
f 112/3/2 113/3/2 115/3/2
f 113/4/2 114/4/2 115/4/2
f 111/3/2 112/3/2 115/3/2
f 115/4/2 114/4/2 116/4/2
f 111/3/2 115/3/2 118/3/2
f 118/3/2 115/3/2 119/3/2
f 120/4/2 121/4/2 122/4/2
f 122/4/2 121/4/2 123/4/2
f 116/4/2 117/4/2 124/4/2
f 124/4/2 117/4/2 125/4/2
f 123/4/2 124/4/2 126/4/2
f 126/4/2 124/4/2 127/4/2
f 128/4/2 129/4/2 131/4/2
f 131/4/2 129/4/2 132/4/2
f 130/4/2 131/4/2 133/4/2
f 131/5/2 132/5/2 134/5/2
f 133/4/2 131/4/2 134/4/2
f 130/4/2 133/4/2 135/4/2
f 133/5/2 134/5/2 135/5/2
f 132/4/2 129/4/2 136/4/2
f 135/5/2 134/5/2 136/5/2
f 134/5/2 132/5/2 136/5/2
f 130/4/2 135/4/2 137/4/2
f 135/4/2 136/4/2 137/4/2
f 136/4/2 129/4/2 138/4/2
f 137/4/2 136/4/2 138/4/2
f 139/3/2 140/3/2 141/3/2
f 141/3/2 140/3/2 142/3/2
f 141/4/2 142/4/2 143/4/2
f 143/4/2 142/4/2 144/4/2
f 144/4/2 142/4/2 145/4/2
f 143/2/2 144/2/2 146/2/2
f 144/5/2 145/5/2 147/5/2
f 146/2/2 144/2/2 147/2/2
f 146/5/2 147/5/2 148/5/2
f 147/5/2 145/5/2 148/5/2
f 148/5/2 145/5/2 149/5/2
f 146/5/2 148/5/2 150/5/2
f 148/2/2 149/2/2 151/2/2
f 150/5/2 148/5/2 151/5/2
f 151/2/2 149/2/2 152/2/2
f 150/2/2 151/2/2 153/2/2
f 151/5/2 152/5/2 154/5/2
f 153/2/2 151/2/2 154/2/2
f 154/5/2 152/5/2 155/5/2
f 158/4/3 157/4/3 156/4/3
f 159/4/3 157/4/3 158/4/3
f 160/4/3 158/4/3 156/4/3
f 160/5/3 159/5/3 158/5/3
f 161/5/3 159/5/3 160/5/3
f 162/4/3 160/4/3 156/4/3
f 162/4/3 161/4/3 160/4/3
f 163/4/3 161/4/3 162/4/3
f 164/4/3 162/4/3 156/4/3
f 164/5/3 163/5/3 162/5/3
f 165/5/3 163/5/3 164/5/3
f 166/4/3 164/4/3 156/4/3
f 166/4/3 165/4/3 164/4/3
f 167/4/3 165/4/3 166/4/3
f 171/4/3 169/4/3 168/4/3
f 172/4/3 169/4/3 171/4/3
f 173/4/3 169/4/3 172/4/3
f 175/3/3 171/3/3 170/3/3
f 175/3/3 172/3/3 171/3/3
f 176/3/3 172/3/3 175/3/3
f 177/3/3 175/3/3 170/3/3
f 177/4/3 176/4/3 175/4/3
f 178/4/3 176/4/3 177/4/3
f 179/4/3 174/4/3 173/4/3
f 180/4/3 174/4/3 179/4/3
f 181/3/3 178/3/3 177/3/3
f 181/3/3 177/3/3 170/3/3
f 182/3/3 178/3/3 181/3/3
f 183/4/3 174/4/3 180/4/3
f 184/4/3 182/4/3 181/4/3
f 184/3/3 181/3/3 170/3/3
f 185/4/3 182/4/3 184/4/3
f 186/4/3 174/4/3 183/4/3
f 187/3/3 185/3/3 184/3/3
f 187/3/3 184/3/3 170/3/3
f 188/3/3 185/3/3 187/3/3
f 189/3/3 185/3/3 188/3/3
f 190/4/3 174/4/3 186/4/3
f 191/4/3 174/4/3 190/4/3
f 192/4/3 189/4/3 188/4/3
f 192/4/3 190/4/3 189/4/3
f 193/4/3 190/4/3 192/4/3
f 196/5/3 195/5/3 194/5/3
f 197/5/3 195/5/3 196/5/3
f 198/2/3 197/2/3 196/2/3
f 199/2/3 197/2/3 198/2/3
f 200/5/3 195/5/3 197/5/3
f 200/2/3 197/2/3 199/2/3
f 201/5/3 195/5/3 200/5/3
f 202/5/3 199/5/3 198/5/3
f 202/2/3 200/2/3 199/2/3
f 202/2/3 201/2/3 200/2/3
f 203/2/3 201/2/3 202/2/3
f 204/5/3 202/5/3 198/5/3
f 204/5/3 203/5/3 202/5/3
f 205/2/3 201/2/3 203/2/3
f 205/5/3 203/5/3 204/5/3
f 206/5/3 195/5/3 201/5/3
f 206/2/3 201/2/3 205/2/3
f 207/5/3 195/5/3 206/5/3
f 213/4/3 210/4/3 209/4/3
f 213/5/3 211/5/3 210/5/3
f 214/5/3 211/5/3 213/5/3
f 215/2/3 212/2/3 211/2/3
f 215/5/3 211/5/3 214/5/3
f 216/2/3 212/2/3 215/2/3
f 221/3/3 209/3/3 208/3/3
f 222/4/3 213/4/3 209/4/3
f 222/3/3 209/3/3 221/3/3
f 223/2/3 214/2/3 213/2/3
f 223/4/3 213/4/3 222/4/3
f 224/5/3 215/5/3 214/5/3
f 224/2/3 214/2/3 223/2/3
f 224/5/3 216/5/3 215/5/3
f 225/5/3 216/5/3 224/5/3
f 226/5/3 216/5/3 225/5/3
f 227/4/3 220/4/3 219/4/3
f 227/1/3 222/1/3 221/1/3
f 227/1/3 221/1/3 220/1/3
f 228/1/3 222/1/3 227/1/3
f 229/1/3 222/1/3 228/1/3
f 230/4/3 218/4/3 217/4/3
f 231/1/3 219/1/3 218/1/3
f 231/4/3 218/4/3 230/4/3
f 232/4/3 227/4/3 219/4/3
f 232/1/3 219/1/3 231/1/3
f 232/4/3 228/4/3 227/4/3
f 233/1/3 229/1/3 228/1/3
f 233/4/3 228/4/3 232/4/3
f 234/1/3 229/1/3 233/1/3
f 235/5/3 226/5/3 225/5/3
f 236/5/3 226/5/3 235/5/3
f 239/1/3 234/1/3 233/1/3
f 240/3/3 236/3/3 235/3/3
f 241/3/3 236/3/3 240/3/3
f 242/4/3 238/4/3 237/4/3
f 242/1/3 239/1/3 238/1/3
f 243/1/3 239/1/3 242/1/3
f 244/4/3 242/4/3 237/4/3
f 244/4/3 243/4/3 242/4/3
f 245/1/3 239/1/3 243/1/3
f 245/4/3 243/4/3 244/4/3
f 246/1/3 234/1/3 239/1/3
f 246/1/3 239/1/3 245/1/3
f 247/1/3 234/1/3 246/1/3
f 251/5/3 241/5/3 240/5/3
f 252/5/3 241/5/3 251/5/3
f 253/5/3 250/5/3 249/5/3
f 253/5/3 252/5/3 251/5/3
f 253/5/3 251/5/3 250/5/3
f 253/5/3 249/5/3 248/5/3
f 253/4/3 248/4/3 247/4/3
f 254/5/3 252/5/3 253/5/3
f 255/5/3 252/5/3 254/5/3
f 256/5/3 252/5/3 255/5/3
f 257/3/3 247/3/3 246/3/3
f 258/4/3 253/4/3 247/4/3
f 258/3/3 247/3/3 257/3/3
f 259/2/3 254/2/3 253/2/3
f 259/4/3 253/4/3 258/4/3
f 260/5/3 255/5/3 254/5/3
f 260/2/3 254/2/3 259/2/3
f 261/2/3 256/2/3 255/2/3
f 261/5/3 255/5/3 260/5/3
f 262/2/3 256/2/3 261/2/3
f 265/4/3 264/4/3 263/4/3
f 266/4/3 264/4/3 265/4/3
f 269/4/3 268/4/3 267/4/3
f 270/4/3 268/4/3 269/4/3
f 272/4/4 273/4/4 278/4/4
f 273/2/4 274/2/4 278/2/4
f 274/5/4 275/5/4 279/5/4
f 278/2/4 274/2/4 279/2/4
f 275/2/4 276/2/4 280/2/4
f 279/5/4 275/5/4 280/5/4
f 276/5/4 277/5/4 281/5/4
f 280/2/4 276/2/4 281/2/4
f 281/5/4 277/5/4 282/5/4
f 271/3/4 272/3/4 284/3/4
f 272/4/4 278/4/4 285/4/4
f 284/3/4 272/3/4 285/3/4
f 279/5/4 280/5/4 286/5/4
f 285/4/4 278/4/4 286/4/4
f 278/5/4 279/5/4 286/5/4
f 280/5/4 281/5/4 286/5/4
f 281/2/4 282/2/4 287/2/4
f 286/5/4 281/5/4 287/5/4
f 287/2/4 282/2/4 288/2/4
f 284/1/4 285/1/4 289/1/4
f 283/1/4 284/1/4 289/1/4
f 289/1/4 285/1/4 290/1/4
f 283/1/4 289/1/4 291/1/4
f 289/4/4 290/4/4 292/4/4
f 291/1/4 289/1/4 292/1/4
f 290/1/4 285/1/4 293/1/4
f 292/4/4 290/4/4 293/4/4
f 293/1/4 285/1/4 294/1/4
f 294/1/4 285/1/4 296/1/4
f 287/5/4 288/5/4 297/5/4
f 295/1/4 296/1/4 298/1/4
f 298/1/4 296/1/4 299/1/4
f 297/5/4 288/5/4 300/5/4
f 298/4/4 299/4/4 301/4/4
f 299/1/4 296/1/4 302/1/4
f 301/4/4 299/4/4 302/4/4
f 296/1/4 285/1/4 303/1/4
f 302/1/4 296/1/4 303/1/4
f 303/1/4 285/1/4 304/1/4
f 300/5/4 288/5/4 307/5/4
f 307/5/4 288/5/4 308/5/4
f 305/2/4 306/2/4 309/2/4
f 304/4/4 305/4/4 309/4/4
f 307/5/4 308/5/4 310/5/4
f 309/2/4 306/2/4 310/2/4
f 306/5/4 307/5/4 310/5/4
f 310/5/4 308/5/4 311/5/4
f 311/5/4 308/5/4 312/5/4
f 303/3/4 304/3/4 313/3/4
f 304/4/4 309/4/4 314/4/4
f 313/3/4 304/3/4 314/3/4
f 309/5/4 310/5/4 315/5/4
f 314/4/4 309/4/4 315/4/4
f 310/5/4 311/5/4 315/5/4
f 311/2/4 312/2/4 316/2/4
f 315/5/4 311/5/4 316/5/4
f 312/5/4 308/5/4 317/5/4
f 316/2/4 312/2/4 317/2/4
f 317/5/4 308/5/4 318/5/4
f 319/5/4 320/5/4 321/5/4
f 321/5/4 320/5/4 322/5/4
f 321/2/4 322/2/4 323/2/4
f 322/5/4 320/5/4 323/5/4
f 323/5/4 320/5/4 324/5/4
f 319/5/4 321/5/4 325/5/4
f 321/2/4 323/2/4 325/2/4
f 323/2/4 324/2/4 325/2/4
f 325/2/4 324/2/4 326/2/4
f 324/5/4 320/5/4 327/5/4
f 326/2/4 324/2/4 327/2/4
f 327/5/4 320/5/4 328/5/4
f 325/5/4 326/5/4 329/5/4
f 326/2/4 327/2/4 329/2/4
f 327/2/4 328/2/4 329/2/4
f 329/2/4 328/2/4 330/2/4
f 319/5/4 325/5/4 331/5/4
f 325/5/4 329/5/4 331/5/4
f 329/5/4 330/5/4 331/5/4
f 331/5/4 330/5/4 332/5/4
f 333/4/4 334/4/4 336/4/4
f 336/4/4 334/4/4 337/4/4
f 337/4/4 338/4/4 339/4/4
f 339/4/4 338/4/4 340/4/4
f 340/4/4 338/4/4 341/4/4
f 341/4/4 338/4/4 342/4/4
f 335/4/4 336/4/4 343/4/4
f 343/4/4 336/4/4 344/4/4
f 342/4/4 338/4/4 345/4/4
f 345/4/4 338/4/4 346/4/4
f 344/4/4 345/4/4 347/4/4
f 347/4/4 345/4/4 348/4/4
f 349/4/4 350/4/4 351/4/4
f 351/4/4 350/4/4 352/4/4
f 349/4/4 351/4/4 353/4/4
f 351/5/4 352/5/4 354/5/4
f 353/4/4 351/4/4 354/4/4
f 354/5/4 352/5/4 355/5/4
f 355/5/4 352/5/4 356/5/4
f 353/5/4 354/5/4 357/5/4
f 354/5/4 355/5/4 357/5/4
f 355/4/4 356/4/4 358/4/4
f 357/5/4 355/5/4 358/5/4
f 349/4/4 353/4/4 359/4/4
f 353/5/4 357/5/4 359/5/4
f 357/4/4 358/4/4 360/4/4
f 359/5/4 357/5/4 360/5/4
f 358/4/4 356/4/4 361/4/4
f 360/4/4 358/4/4 361/4/4
f 359/4/4 360/4/4 362/4/4
f 360/5/4 361/5/4 362/5/4
f 362/5/4 361/5/4 363/5/4
f 349/4/4 359/4/4 364/4/4
f 359/4/4 362/4/4 364/4/4
f 362/4/4 363/4/4 364/4/4
f 364/4/4 363/4/4 365/4/4
f 370/4/5 367/4/5 366/4/5
f 371/4/5 367/4/5 370/4/5
f 372/4/5 369/4/5 368/4/5
f 373/4/5 369/4/5 372/4/5
f 374/1/5 371/1/5 370/1/5
f 375/1/5 371/1/5 374/1/5
f 376/1/5 373/1/5 372/1/5
f 377/4/5 369/4/5 373/4/5
f 377/1/5 373/1/5 376/1/5
f 378/4/5 369/4/5 377/4/5
f 385/1/5 382/1/5 381/1/5
f 386/3/5 380/3/5 379/3/5
f 387/3/5 380/3/5 386/3/5
f 388/1/5 382/1/5 385/1/5
f 389/1/5 382/1/5 388/1/5
f 390/3/5 384/3/5 383/3/5
f 391/3/5 384/3/5 390/3/5
f 396/5/5 393/5/5 392/5/5
f 397/2/5 394/2/5 393/2/5
f 397/5/5 393/5/5 396/5/5
f 398/5/5 395/5/5 394/5/5
f 398/2/5 394/2/5 397/2/5
f 399/5/5 395/5/5 398/5/5
f 402/5/5 401/5/5 400/5/5
f 403/5/5 401/5/5 402/5/5
f 406/3/5 405/3/5 404/3/5
f 407/3/5 405/3/5 406/3/5
f 408/3/5 405/3/5 407/3/5
f 409/3/5 405/3/5 408/3/5
f 412/4/5 411/4/5 410/4/5
f 413/4/5 411/4/5 412/4/5
f 418/4/5 415/4/5 414/4/5
f 419/4/5 415/4/5 418/4/5
f 420/4/5 417/4/5 416/4/5
f 421/4/5 417/4/5 420/4/5
f 422/4/5 420/4/5 419/4/5
f 423/4/5 420/4/5 422/4/5
f 428/4/5 425/4/5 424/4/5
f 429/4/5 425/4/5 428/4/5
f 430/4/5 427/4/5 426/4/5
f 431/4/5 427/4/5 430/4/5
f 434/4/5 433/4/5 432/4/5
f 435/4/5 433/4/5 434/4/5
f 436/4/5 433/4/5 435/4/5
f 437/4/5 433/4/5 436/4/5
f 438/4/5 433/4/5 437/4/5
f 439/4/5 433/4/5 438/4/5
f 440/5/6 441/5/6 442/5/6
f 442/5/6 441/5/6 443/5/6
f 443/5/6 441/5/6 444/5/6
f 444/5/6 441/5/6 445/5/6
f 446/5/6 447/5/6 450/5/6
f 447/2/6 448/2/6 451/2/6
f 450/5/6 447/5/6 451/5/6
f 448/5/6 449/5/6 452/5/6
f 451/2/6 448/2/6 452/2/6
f 452/5/6 449/5/6 453/5/6
f 454/2/6 455/2/6 460/2/6
f 455/5/6 456/5/6 461/5/6
f 460/2/6 455/2/6 461/2/6
f 461/5/6 456/5/6 462/5/6
f 458/2/6 459/2/6 463/2/6
f 457/5/6 458/5/6 463/5/6
f 463/2/6 459/2/6 464/2/6
f 460/5/6 461/5/6 465/5/6
f 461/2/6 462/2/6 466/2/6
f 465/5/6 461/5/6 466/5/6
f 466/2/6 462/2/6 467/2/6
f 457/5/6 463/5/6 468/5/6
f 463/5/6 464/5/6 468/5/6
f 468/5/6 464/5/6 469/5/6
f 470/4/6 471/4/6 477/4/6
f 471/5/6 472/5/6 478/5/6
f 477/4/6 471/4/6 478/4/6
f 472/4/6 473/4/6 479/4/6
f 478/5/6 472/5/6 479/5/6
f 473/5/6 474/5/6 480/5/6
f 479/4/6 473/4/6 480/4/6
f 474/4/6 475/4/6 481/4/6
f 480/5/6 474/5/6 481/5/6
f 481/4/6 475/4/6 482/4/6
f 476/4/6 477/4/6 484/4/6
f 484/4/6 477/4/6 485/4/6
f 482/4/6 483/4/6 490/4/6
f 490/4/6 483/4/6 491/4/6
f 485/4/6 486/4/6 492/4/6
f 486/5/6 487/5/6 493/5/6
f 492/4/6 486/4/6 493/4/6
f 487/4/6 488/4/6 494/4/6
f 493/5/6 487/5/6 494/5/6
f 488/5/6 489/5/6 495/5/6
f 494/4/6 488/4/6 495/4/6
f 489/4/6 490/4/6 496/4/6
f 495/5/6 489/5/6 496/5/6
f 496/4/6 490/4/6 497/4/6
f 498/4/6 499/4/6 500/4/6
f 500/4/6 499/4/6 501/4/6
f 498/4/6 500/4/6 502/4/6
f 500/5/6 501/5/6 503/5/6
f 502/4/6 500/4/6 503/4/6
f 503/5/6 501/5/6 504/5/6
f 504/5/6 501/5/6 505/5/6
f 498/4/6 502/4/6 506/4/6
f 502/5/6 503/5/6 506/5/6
f 503/5/6 504/5/6 506/5/6
f 504/4/6 505/4/6 507/4/6
f 506/5/6 504/5/6 507/5/6
f 505/5/6 501/5/6 508/5/6
f 507/4/6 505/4/6 508/4/6
f 501/4/6 499/4/6 509/4/6
f 508/5/6 501/5/6 509/5/6
f 507/4/6 508/4/6 510/4/6
f 506/4/6 507/4/6 510/4/6
f 508/4/6 509/4/6 510/4/6
f 498/4/6 506/4/6 510/4/6
f 509/4/6 499/4/6 511/4/6
f 510/4/6 509/4/6 511/4/6
