# ProBuilder 5.0.7
# https://unity3d.com/unity/features/worldbuilding/probuilder
# 19.01.2025 18:04:12

mtllib ./sideRock_2.mtl
o sideRock_2

g sideRock_2
v 8 0 -8
v 8 0 -7
v 7 0 -8
v 7 0 -7
v 8 0 -6
v 7 0 -6
v 8 0 -5
v 7 0 -5
v 8 0 -4
v 7 0 -4
v 8 0 -3
v 7 0 -3
v 8 0 -2
v 7 0 -2
v 8 0 -1
v 7 0 -1
v 8 0 0
v 7 0 0
v 8 0 1
v 7 0 1
v 8 0 2
v 7 0 2
v 8 0 3
v 7 0 3
v 8 0 4
v 7 0 4
v 8 0 5
v 7 0 5
v 8 0 6
v 7 0 6
v 8 0 7
v 7 0 7
v 8 0 8
v 7 0.5924986 8
v 6 0 -8
v 6 0 -7
v 6 0 -6
v 6 0 -5
v 6 0 -4
v 6 0 -3
v 6 0 -2
v 6 0 -1
v 6 0 0
v 6 0 1
v 6 0 2
v 6 0 3
v 6 0 4
v 6 0 5
v 6 0 6
v 6 0 7
v 6 0.5924986 8
v 5 0 -8
v 5 0 -7
v 5 0 -6
v 5 0 -5
v 5 0 -4
v 5 0 -3
v 5 0 -2
v 5 0 -1
v 5 0 0
v 5 0 1
v 5 0 2
v 5 0 3
v 5 0 4
v 5 0 5
v 5 1.007389 6
v 5 1.007389 7
v 5 1.007389 8
v 4 0 -8
v 4 0 -7
v 4 0 -6
v 4 0 -5
v 4 0 -4
v 4 0 -3
v 4 0 -2
v 4 0 -1
v 4 0 0
v 4 0 1
v 4 0 2
v 4 0 3
v 4 1.007389 4
v 4 1.007389 5
v 4 1.912317 6
v 4 1.912317 7
v 4 1.912317 8
v 3 0 -8
v 3 0 -7
v 3 0 -6
v 3 0 -5
v 3 0 -4
v 3 0 -3
v 3 0 -2
v 3 0 -1
v 3 0 0
v 3 0 1
v 3 0 2
v 3 0 3
v 3 1.007389 4
v 3 1.912317 5
v 3 1.912317 6
v 3 1.912317 7
v 3 1.912317 8
v 2 0 -8
v 2 0 -7
v 2 0 -6
v 2 0 -5
v 2 0 -4
v 2 0 -3
v 2 0 -2
v 2 0 -1
v 2 0 0
v 2 0 1
v 2 0 2
v 2 1.007389 3
v 2 1.912317 4
v 2 1.912317 5
v 2 3.019619 6
v 2 3.019619 7
v 2 3.019619 8
v 1 0 -8
v 1 0 -7
v 1 0 -6
v 1 0 -5
v 1 0 -4
v 1 0 -3
v 1 0 -2
v 1 0 -1
v 1 0 0
v 1 0 1
v 1 0 2
v 1 1.007389 3
v 1 1.912317 4
v 1 1.912317 5
v 1 3.019619 6
v 1 2.276983 7
v 1 2.276983 8
v 0 0 -8
v 0 0 -7
v 0 0 -6
v 0 0 -5
v 0 0 -4
v 0 0 -3
v 0 0 -2
v 0 0 -1
v 0 0 0
v 0 0 1
v 0 0 2
v 0 1.007389 3
v 0 1.912317 4
v 0 1.912317 5
v 0 3.019619 6
v 0 2.276983 7
v 0 2.276983 8
v -1 0 -8
v -1 0 -7
v -1 0 -6
v -1 0 -5
v -1 0 -4
v -1 0 -3
v -1 0 -2
v -1 0 -1
v -1 0 0
v -1 0 1
v -1 0 2
v -1 1.007389 3
v -1 1.912317 4
v -1 1.912317 5
v -1 3.019619 6
v -1 2.276983 7
v -1 2.276983 8
v -2 0 -8
v -2 0 -7
v -2 0 -6
v -2 0 -5
v -2 0 -4
v -2 0 -3
v -2 0 -2
v -2 0 -1
v -2 0 0
v -2 0 1
v -2 0 2
v -2 1.007389 3
v -2 1.912317 4
v -2 1.912317 5
v -2 3.019619 6
v -2 3.019619 7
v -2 3.019619 8
v -3 0 -8
v -3 0 -7
v -3 0 -6
v -3 0 -5
v -3 0 -4
v -3 0 -3
v -3 0 -2
v -3 0 -1
v -3 0 0
v -3 0 1
v -3 0 2
v -3 0 3
v -3 1.007389 4
v -3 1.912317 5
v -3 1.912317 6
v -3 1.912317 7
v -3 1.912317 8
v -4 0 -8
v -4 0 -7
v -4 0 -6
v -4 0 -5
v -4 0 -4
v -4 0 -3
v -4 0 -2
v -4 0 -1
v -4 0 0
v -4 0 1
v -4 0 2
v -4 0 3
v -4 1.007389 4
v -4 1.007389 5
v -4 1.912317 6
v -4 1.912317 7
v -4 1.912317 8
v -5 0 -8
v -5 0 -7
v -5 0 -6
v -5 0 -5
v -5 0 -4
v -5 0 -3
v -5 0 -2
v -5 0 -1
v -5 0 0
v -5 0 1
v -5 0 2
v -5 0 3
v -5 0 4
v -5 0 5
v -5 1.007389 6
v -5 1.007389 7
v -5 1.007389 8
v -6 0 -8
v -6 0 -7
v -6 0 -6
v -6 0 -5
v -6 0 -4
v -6 0 -3
v -6 0 -2
v -6 0 -1
v -6 0 0
v -6 0 1
v -6 0 2
v -6 0 3
v -6 0 4
v -6 0 5
v -6 0 6
v -6 0 7
v -6 0.56656 8
v -7 0 -8
v -7 0 -7
v -7 0 -6
v -7 0 -5
v -7 0 -4
v -7 0 -3
v -7 0 -2
v -7 0 -1
v -7 0 0
v -7 0 1
v -7 0 2
v -7 0 3
v -7 0 4
v -7 0 5
v -7 0 6
v -7 0 7
v -7 0.56656 8
v -8 0 -8
v -8 0 -7
v -8 0 -6
v -8 0 -5
v -8 0 -4
v -8 0 -3
v -8 0 -2
v -8 0 -1
v -8 0 0
v -8 0 1
v -8 0 2
v -8 0 3
v -8 0 4
v -8 0 5
v -8 0 6
v -8 0 7
v -8 0 8

vt -8 -8
vt -8 -7
vt -7 -8
vt -7 -7
vt -8 -6
vt -7 -6
vt -8 -5
vt -7 -5
vt -8 -4
vt -7 -4
vt -8 -3
vt -7 -3
vt -8 -2
vt -7 -2
vt -8 -1
vt -7 -1
vt -8 0
vt -7 0
vt -8 1
vt -7 1
vt -8 2
vt -7 2
vt -8 3
vt -7 3
vt -8 4
vt -7 4
vt -8 5
vt -7 5
vt -8 6
vt -7 6
vt -8 7
vt -7 7
vt -8 8
vt -7 8
vt -6 -8
vt -6 -7
vt -6 -6
vt -6 -5
vt -6 -4
vt -6 -3
vt -6 -2
vt -6 -1
vt -6 0
vt -6 1
vt -6 2
vt -6 3
vt -6 4
vt -6 5
vt -6 6
vt -6 7
vt -7 6.022289
vt -7 7.184638
vt -6 6.022289
vt -6 7.184638
vt -5 -8
vt -5 -7
vt -5 -6
vt -5 -5
vt -5 -4
vt -5 -3
vt -5 -2
vt -5 -1
vt -5 0
vt -5 1
vt -5 2
vt -5 3
vt -5 4
vt -5 5
vt -5 6
vt -6 -4.226995
vt -7 -4.226995
vt -6 -2.807546
vt -7 -2.807546
vt -9.075561 -1.055182
vt -9.937526 -0.2753931
vt -8.568593 0.2706454
vt -9.430559 0.600242
vt -4 -8
vt -4 -7
vt -4 -6
vt -4 -5
vt -4 -4
vt -4 -3
vt -4 -2
vt -4 -1
vt -4 0
vt -4 1
vt -4 2
vt -4 3
vt -4 4
vt -4 -3.522496
vt -5 -3.522496
vt -4 -2.103047
vt -5 -2.103047
vt -7.071068 0
vt -7.778175 1.230786
vt -6.363961 1.230786
vt -7.071068 2.377707
vt -3.031434 6
vt -3.031434 7
vt -1.68277 6
vt -1.68277 7
vt -3.031434 8
vt -1.68277 8
vt -3 -8
vt -3 -7
vt -3 -6
vt -3 -5
vt -3 -4
vt -3 -3
vt -3 -2
vt -3 -1
vt -3 0
vt -3 1
vt -3 2
vt -3 3
vt -4 2.113497
vt -4 3.532946
vt -3 2.113497
vt -3 3.532946
vt -4 5
vt -3 4
vt -3 5
vt -2.28996 6.063575
vt -1.68277 7.267824
vt -0.9412958 6.063575
vt -0.9412958 6.893968
vt -4 6
vt -4 7
vt -3 6
vt -3 7
vt -4 8
vt -3 8
vt -2 -8
vt -2 -7
vt -2 -6
vt -2 -5
vt -2 -4
vt -2 -3
vt -2 -2
vt -2 -1
vt -2 0
vt -2 1
vt -2 2
vt -2 3
vt -4.242641 0
vt -4.949748 1.230786
vt -3.535534 1.230786
vt -4.242641 2.377707
vt -1.548485 4.859326
vt -0.1998212 4.859326
vt -0.1998212 5.689719
vt -2 5
vt -2 6
vt -6 -0.591472
vt -7 -0.591472
vt -6 0.9005461
vt -7 0.9005461
vt -8 -0.591472
vt -8 0.9005461
vt -1 -8
vt -1 -7
vt -1 -6
vt -1 -5
vt -1 -4
vt -1 -3
vt -1 -2
vt -1 -1
vt -1 0
vt -1 1
vt -1 2
vt -2 1.408998
vt -2 2.828447
vt -1 1.408998
vt -1 2.828447
vt -2 2.900363
vt -2 4.249027
vt -1 2.900363
vt -1 4.249027
vt -2 4
vt -1 4
vt -1 5
vt -2 4.770392
vt -2 6.262411
vt -1 4.770392
vt -1 6.262411
vt -2 7
vt -1 6
vt -1 7
vt -3.405984 7
vt -3.405984 8
vt -2.160388 7
vt -2.160388 8
vt 0 -8
vt 0 -7
vt 0 -6
vt 0 -5
vt 0 -4
vt 0 -3
vt 0 -2
vt 0 -1
vt 0 0
vt 0 1
vt 0 2
vt 0 1.408998
vt 0 2.828447
vt 0 2.900363
vt 0 4.249027
vt 0 4
vt 0 5
vt 0 4.770392
vt 0 6.262411
vt -1 3.016645
vt -1 4.262241
vt 0 3.016645
vt 0 4.262241
vt -1 8
vt 0 7
vt 0 8
vt 1 -8
vt 1 -7
vt 1 -6
vt 1 -5
vt 1 -4
vt 1 -3
vt 1 -2
vt 1 -1
vt 1 0
vt 1 1
vt 1 2
vt 1 1.408998
vt 1 2.828447
vt 1 2.900363
vt 1 4.249027
vt 1 4
vt 1 5
vt 1 4.770392
vt 1 6.262411
vt 1 3.016645
vt 1 4.262241
vt 1 7
vt 1 8
vt 2 -8
vt 2 -7
vt 2 -6
vt 2 -5
vt 2 -4
vt 2 -3
vt 2 -2
vt 2 -1
vt 2 0
vt 2 1
vt 2 2
vt 2 1.408998
vt 2 2.828447
vt 2 2.900363
vt 2 4.249027
vt 2 4
vt 2 5
vt 2 4.770392
vt 2 6.262411
vt 2 3.016645
vt 2 3.819474
vt 2.160388 7
vt 2.160388 8
vt 3.405984 7
vt 3.405984 8
vt 3 -8
vt 3 -7
vt 3 -6
vt 3 -5
vt 3 -4
vt 3 -3
vt 3 -2
vt 3 -1
vt 3 0
vt 3 1
vt 3 2
vt 3 1.408998
vt 3 2.113497
vt 3.568302 1.117456
vt 4.312228 2.242386
vt 4.236564 -0.1348454
vt 4.98049 1.072508
vt 0.1998212 4
vt 0.1998212 5
vt 1.548485 4
vt 0.9412958 5
vt 3 4.770392
vt 3 5.440626
vt 6 0.9005461
vt 7 0.9005461
vt 6 -0.591472
vt 7 -0.591472
vt 8 0.9005461
vt 8 -0.591472
vt 4 -8
vt 4 -7
vt 4 -6
vt 4 -5
vt 4 -4
vt 4 -3
vt 4 -2
vt 4 -1
vt 4 0
vt 4 1
vt 4 2
vt 3 3
vt 4 3
vt 3 3.532946
vt 4 2.113497
vt 4 3.532946
vt 3 3.641838
vt 3 4.990501
vt 4 3.641838
vt 4 4.383312
vt 0.9412958 6
vt 2.28996 5
vt 1.68277 6
vt 3 6
vt 3 7
vt 4 6
vt 4 7
vt 3 8
vt 4 8
vt 5 -8
vt 5 -7
vt 5 -6
vt 5 -5
vt 5 -4
vt 5 -3
vt 5 -2
vt 5 -1
vt 5 0
vt 5 1
vt 5 2
vt 5 3
vt 5 2.113497
vt 5 2.817997
vt 4 -2.103047
vt 5 -2.103047
vt 4 -3.522496
vt 5 -3.522496
vt 6.392678 1.027559
vt 7.136604 2.152489
vt 7.060939 -0.2247423
vt 7.804866 0.9826109
vt 1.68277 7
vt 3.031434 6
vt 3.031434 7
vt 1.68277 8
vt 3.031434 8
vt 6 -8
vt 6 -7
vt 6 -6
vt 6 -5
vt 6 -4
vt 6 -3
vt 6 -2
vt 6 -1
vt 6 0
vt 6 1
vt 6 2
vt 6 3
vt 5 4
vt 6 4
vt 5 5
vt 6 5
vt 5 3.522496
vt 5 4.941944
vt 6 3.522496
vt 6 4.226995
vt 6 -2.807546
vt 7 -2.807546
vt 6 -4.226995
vt 7 -4.226995
vt 8 -2.807546
vt 8 -3.824904
vt 7 -8
vt 7 -7
vt 7 -6
vt 7 -5
vt 7 -4
vt 7 -3
vt 7 -2
vt 7 -1
vt 7 0
vt 7 1
vt 7 2
vt 7 3
vt 7 4
vt 7 5
vt 6 6
vt 7 6
vt 6 7
vt 7 7
vt 6 6.090434
vt 6 7.239778
vt 7 6.090434
vt 7 7.239778
vt 8 -8
vt 8 -7
vt 8 -6
vt 8 -5
vt 8 -4
vt 8 -3
vt 8 -2
vt 8 -1
vt 8 0
vt 8 1
vt 8 2
vt 8 3
vt 8 4
vt 8 5
vt 8 6
vt 8 7
vt 8 6.090434
vt 8 6.960496

vn 0 1 0
vn 0.227072 0.8832448 -0.227072
vn 0.454144 0.7664896 -0.454144
vn 0 0.860327 -0.5097426
vn 0.289381 0.7872583 -0.289381
vn 0.5787619 0.5745167 -0.5787619
vn 0.7097049 0.7044991 0
vn 0.6549381 0.6501341 -0.3852035
vn 0.5190777 0.7868962 -0.1926018
vn 0.3832172 0.9236583 0
vn 0.5679699 0.595116 -0.5679699
vn 0.5571779 0.6157154 -0.5571779
vn 0.6709809 0.7414746 0
vn 0 0.7044991 -0.7097049
vn 0.278589 0.8078578 -0.278589
vn 0.2979792 0.7691038 -0.2979792
vn 0.5959584 0.5382075 -0.5959584
vn 0.7421507 0.6702331 0
vn 0 0.7414746 -0.6709809
vn 0 0.6702331 -0.7421507
vn -0.25605 0.8447852 0.25605
vn -0.5121 0.6895703 0.5121
vn -0.5962098 0.8028287 0
vn 0 0.8028287 0.5962098
vn 0.2981049 0.8028287 0.2981049
vn 0.5962098 0.8028287 0
vn -0.3548524 0.7044991 -0.3548524
vn -0.7097049 0.7044991 0
vn -0.5984368 0.5940472 -0.5375698
vn -0.5680033 0.5940472 -0.5680033
vn -0.5375698 0.5940472 -0.5984368
vn -0.6709809 0.7414746 0
vn -0.3354904 0.7414746 -0.3354904
vn -0.3710753 0.6702331 -0.3710753
vn -0.7421507 0.6702331 0
vn -0.5339082 0.7584288 -0.2301249
vn -0.3581115 0.8123585 -0.4602498
vn 0 0.870062 -0.4929423
vn -0.2464712 0.870062 -0.2464712
vn -0.4929423 0.870062 0

usemtl RockDarkBase
f 3/3/1 4/4/1 2/2/1 1/1/1
f 4/4/1 6/6/1 5/5/1 2/2/1
f 6/6/1 8/8/1 7/7/1 5/5/1
f 8/8/1 10/10/1 9/9/1 7/7/1
f 10/10/1 12/12/1 11/11/1 9/9/1
f 12/12/1 14/14/1 13/13/1 11/11/1
f 14/14/1 16/16/1 15/15/1 13/13/1
f 16/16/1 18/18/1 17/17/1 15/15/1
f 18/18/1 20/20/1 19/19/1 17/17/1
f 20/20/1 22/22/1 21/21/1 19/19/1
f 22/22/1 24/24/1 23/23/1 21/21/1
f 24/24/1 26/26/1 25/25/1 23/23/1
f 26/26/1 28/28/1 27/27/1 25/25/1
f 28/28/1 30/30/1 29/29/1 27/27/1
f 30/30/1 32/32/1 31/31/1 29/29/1
f 32/32/2 34/34/3 33/33/2 31/31/1
f 35/35/1 36/36/1 4/4/1 3/3/1
f 36/36/1 37/37/1 6/6/1 4/4/1
f 37/37/1 38/38/1 8/8/1 6/6/1
f 38/38/1 39/39/1 10/10/1 8/8/1
f 39/39/1 40/40/1 12/12/1 10/10/1
f 40/40/1 41/41/1 14/14/1 12/12/1
f 41/41/1 42/42/1 16/16/1 14/14/1
f 42/42/1 43/43/1 18/18/1 16/16/1
f 43/43/1 44/44/1 20/20/1 18/18/1
f 44/44/1 45/45/1 22/22/1 20/20/1
f 45/45/1 46/46/1 24/24/1 22/22/1
f 46/46/1 47/47/1 26/26/1 24/24/1
f 47/47/1 48/48/1 28/28/1 26/26/1
f 48/48/1 49/49/1 30/30/1 28/28/1
f 49/49/1 50/50/1 32/32/1 30/30/1
f 52/55/1 53/56/1 36/36/1 35/35/1
f 53/56/1 54/57/1 37/37/1 36/36/1
f 54/57/1 55/58/1 38/38/1 37/37/1
f 55/58/1 56/59/1 39/39/1 38/38/1
f 56/59/1 57/60/1 40/40/1 39/39/1
f 57/60/1 58/61/1 41/41/1 40/40/1
f 58/61/1 59/62/1 42/42/1 41/41/1
f 59/62/1 60/63/1 43/43/1 42/42/1
f 60/63/1 61/64/1 44/44/1 43/43/1
f 61/64/1 62/65/1 45/45/1 44/44/1
f 62/65/1 63/66/1 46/46/1 45/45/1
f 63/66/1 64/67/1 47/47/1 46/46/1
f 64/67/1 65/68/1 48/48/1 47/47/1
f 69/78/1 70/79/1 53/56/1 52/55/1
f 70/79/1 71/80/1 54/57/1 53/56/1
f 71/80/1 72/81/1 55/58/1 54/57/1
f 72/81/1 73/82/1 56/59/1 55/58/1
f 73/82/1 74/83/1 57/60/1 56/59/1
f 74/83/1 75/84/1 58/61/1 57/60/1
f 75/84/1 76/85/1 59/62/1 58/61/1
f 76/85/1 77/86/1 60/63/1 59/62/1
f 77/86/1 78/87/1 61/64/1 60/63/1
f 78/87/1 79/88/1 62/65/1 61/64/1
f 79/88/1 80/89/1 63/66/1 62/65/1
f 82/97/11 83/98/12 66/96/11 65/95/6
f 86/105/1 87/106/1 70/79/1 69/78/1
f 87/106/1 88/107/1 71/80/1 70/79/1
f 88/107/1 89/108/1 72/81/1 71/80/1
f 89/108/1 90/109/1 73/82/1 72/81/1
f 90/109/1 91/110/1 74/83/1 73/82/1
f 91/110/1 92/111/1 75/84/1 74/83/1
f 92/111/1 93/112/1 76/85/1 75/84/1
f 93/112/1 94/113/1 77/86/1 76/85/1
f 94/113/1 95/114/1 78/87/1 77/86/1
f 95/114/1 96/115/1 79/88/1 78/87/1
f 96/115/1 97/116/1 80/89/1 79/88/1
f 103/134/1 104/135/1 87/106/1 86/105/1
f 104/135/1 105/136/1 88/107/1 87/106/1
f 105/136/1 106/137/1 89/108/1 88/107/1
f 106/137/1 107/138/1 90/109/1 89/108/1
f 107/138/1 108/139/1 91/110/1 90/109/1
f 108/139/1 109/140/1 92/111/1 91/110/1
f 109/140/1 110/141/1 93/112/1 92/111/1
f 110/141/1 111/142/1 94/113/1 93/112/1
f 111/142/1 112/143/1 95/114/1 94/113/1
f 112/143/1 113/144/1 96/115/1 95/114/1
f 120/161/1 121/162/1 104/135/1 103/134/1
f 121/162/1 122/163/1 105/136/1 104/135/1
f 122/163/1 123/164/1 106/137/1 105/136/1
f 123/164/1 124/165/1 107/138/1 106/137/1
f 124/165/1 125/166/1 108/139/1 107/138/1
f 125/166/1 126/167/1 109/140/1 108/139/1
f 126/167/1 127/168/1 110/141/1 109/140/1
f 127/168/1 128/169/1 111/142/1 110/141/1
f 128/169/1 129/170/1 112/143/1 111/142/1
f 129/170/1 130/171/1 113/144/1 112/143/1
f 137/194/1 138/195/1 121/162/1 120/161/1
f 138/195/1 139/196/1 122/163/1 121/162/1
f 139/196/1 140/197/1 123/164/1 122/163/1
f 140/197/1 141/198/1 124/165/1 123/164/1
f 141/198/1 142/199/1 125/166/1 124/165/1
f 142/199/1 143/200/1 126/167/1 125/166/1
f 143/200/1 144/201/1 127/168/1 126/167/1
f 144/201/1 145/202/1 128/169/1 127/168/1
f 145/202/1 146/203/1 129/170/1 128/169/1
f 146/203/1 147/204/1 130/171/1 129/170/1
f 154/220/1 155/221/1 138/195/1 137/194/1
f 155/221/1 156/222/1 139/196/1 138/195/1
f 156/222/1 157/223/1 140/197/1 139/196/1
f 157/223/1 158/224/1 141/198/1 140/197/1
f 158/224/1 159/225/1 142/199/1 141/198/1
f 159/225/1 160/226/1 143/200/1 142/199/1
f 160/226/1 161/227/1 144/201/1 143/200/1
f 161/227/1 162/228/1 145/202/1 144/201/1
f 162/228/1 163/229/1 146/203/1 145/202/1
f 163/229/1 164/230/1 147/204/1 146/203/1
f 171/243/1 172/244/1 155/221/1 154/220/1
f 172/244/1 173/245/1 156/222/1 155/221/1
f 173/245/1 174/246/1 157/223/1 156/222/1
f 174/246/1 175/247/1 158/224/1 157/223/1
f 175/247/1 176/248/1 159/225/1 158/224/1
f 176/248/1 177/249/1 160/226/1 159/225/1
f 177/249/1 178/250/1 161/227/1 160/226/1
f 178/250/1 179/251/1 162/228/1 161/227/1
f 179/251/1 180/252/1 163/229/1 162/228/1
f 180/252/1 181/253/1 164/230/1 163/229/1
f 188/268/1 189/269/1 172/244/1 171/243/1
f 189/269/1 190/270/1 173/245/1 172/244/1
f 190/270/1 191/271/1 174/246/1 173/245/1
f 191/271/1 192/272/1 175/247/1 174/246/1
f 192/272/1 193/273/1 176/248/1 175/247/1
f 193/273/1 194/274/1 177/249/1 176/248/1
f 194/274/1 195/275/1 178/250/1 177/249/1
f 195/275/1 196/276/1 179/251/1 178/250/1
f 196/276/1 197/277/1 180/252/1 179/251/1
f 197/277/1 198/278/1 181/253/1 180/252/1
f 205/297/1 206/298/1 189/269/1 188/268/1
f 206/298/1 207/299/1 190/270/1 189/269/1
f 207/299/1 208/300/1 191/271/1 190/270/1
f 208/300/1 209/301/1 192/272/1 191/271/1
f 209/301/1 210/302/1 193/273/1 192/272/1
f 210/302/1 211/303/1 194/274/1 193/273/1
f 211/303/1 212/304/1 195/275/1 194/274/1
f 212/304/1 213/305/1 196/276/1 195/275/1
f 213/305/1 214/306/1 197/277/1 196/276/1
f 214/306/1 215/307/1 198/278/1 197/277/1
f 215/307/1 216/309/1 199/308/1 198/278/1
f 222/326/1 223/327/1 206/298/1 205/297/1
f 223/327/1 224/328/1 207/299/1 206/298/1
f 224/328/1 225/329/1 208/300/1 207/299/1
f 225/329/1 226/330/1 209/301/1 208/300/1
f 226/330/1 227/331/1 210/302/1 209/301/1
f 227/331/1 228/332/1 211/303/1 210/302/1
f 228/332/1 229/333/1 212/304/1 211/303/1
f 229/333/1 230/334/1 213/305/1 212/304/1
f 230/334/1 231/335/1 214/306/1 213/305/1
f 231/335/1 232/336/1 215/307/1 214/306/1
f 232/336/1 233/337/1 216/309/1 215/307/1
f 235/346/30 236/347/31 219/345/30 218/344/29
f 239/353/1 240/354/1 223/327/1 222/326/1
f 240/354/1 241/355/1 224/328/1 223/327/1
f 241/355/1 242/356/1 225/329/1 224/328/1
f 242/356/1 243/357/1 226/330/1 225/329/1
f 243/357/1 244/358/1 227/331/1 226/330/1
f 244/358/1 245/359/1 228/332/1 227/331/1
f 245/359/1 246/360/1 229/333/1 228/332/1
f 246/360/1 247/361/1 230/334/1 229/333/1
f 247/361/1 248/362/1 231/335/1 230/334/1
f 248/362/1 249/363/1 232/336/1 231/335/1
f 249/363/1 250/364/1 233/337/1 232/336/1
f 250/364/1 251/366/1 234/365/1 233/337/1
f 251/366/1 252/368/1 235/367/1 234/365/1
f 256/379/1 257/380/1 240/354/1 239/353/1
f 257/380/1 258/381/1 241/355/1 240/354/1
f 258/381/1 259/382/1 242/356/1 241/355/1
f 259/382/1 260/383/1 243/357/1 242/356/1
f 260/383/1 261/384/1 244/358/1 243/357/1
f 261/384/1 262/385/1 245/359/1 244/358/1
f 262/385/1 263/386/1 246/360/1 245/359/1
f 263/386/1 264/387/1 247/361/1 246/360/1
f 264/387/1 265/388/1 248/362/1 247/361/1
f 265/388/1 266/389/1 249/363/1 248/362/1
f 266/389/1 267/390/1 250/364/1 249/363/1
f 267/390/1 268/391/1 251/366/1 250/364/1
f 268/391/1 269/392/1 252/368/1 251/366/1
f 269/392/1 270/394/1 253/393/1 252/368/1
f 270/394/1 271/396/1 254/395/1 253/393/1
f 273/401/1 274/402/1 257/380/1 256/379/1
f 274/402/1 275/403/1 258/381/1 257/380/1
f 275/403/1 276/404/1 259/382/1 258/381/1
f 276/404/1 277/405/1 260/383/1 259/382/1
f 277/405/1 278/406/1 261/384/1 260/383/1
f 278/406/1 279/407/1 262/385/1 261/384/1
f 279/407/1 280/408/1 263/386/1 262/385/1
f 280/408/1 281/409/1 264/387/1 263/386/1
f 281/409/1 282/410/1 265/388/1 264/387/1
f 282/410/1 283/411/1 266/389/1 265/388/1
f 283/411/1 284/412/1 267/390/1 266/389/1
f 284/412/1 285/413/1 268/391/1 267/390/1
f 285/413/1 286/414/1 269/392/1 268/391/1
f 286/414/1 287/415/1 270/394/1 269/392/1
f 287/415/1 288/416/1 271/396/1 270/394/1
f 288/417/39 289/418/40 272/400/39 271/399/38

usemtl RockDarkAll
f 100/130/1 101/131/1 84/129/1 83/128/1
f 101/131/1 102/133/1 85/132/1 84/129/1
f 166/235/1 167/236/1 150/210/1 149/209/1
f 219/322/1 220/323/1 203/321/1 202/320/1
f 220/323/1 221/325/1 204/324/1 203/321/1

usemtl RockDarkVert
f 50/53/4 51/54/4 34/52/4 32/51/4
f 66/72/7 67/73/7 50/71/7 49/70/7
f 67/76/9 68/77/10 51/75/9 50/74/8
f 81/93/7 82/94/7 65/92/7 64/91/7
f 117/157/18 118/158/18 101/156/18 100/155/18
f 118/158/18 119/160/18 102/159/18 101/156/18
f 135/192/23 136/193/23 119/191/23 118/190/23
f 150/211/20 151/212/20 134/186/20 133/185/20
f 151/215/24 152/216/24 135/214/24 134/213/24
f 164/231/14 165/232/14 148/206/14 147/205/14
f 203/294/35 204/296/35 187/295/35 186/292/35
f 233/338/27 234/339/28 217/312/27 216/311/14
f 234/342/28 235/343/28 218/341/28 217/340/28
f 252/371/27 253/372/28 236/370/27 235/369/14
f 253/375/28 254/376/28 237/374/28 236/373/28
f 254/376/36 255/378/37 238/377/36 237/374/28
f 271/399/38 272/400/38 255/398/38 254/397/38

usemtl RockDarkHor
f 65/68/5 66/69/6 49/49/5 48/48/1
f 80/89/5 81/90/6 64/67/5 63/66/1
f 83/101/13 84/102/13 67/100/13 66/99/13
f 84/102/13 85/104/13 68/103/13 67/100/13
f 134/188/21 135/189/22 118/187/21 117/154/1
f 236/349/32 237/350/32 220/348/32 219/319/32
f 237/350/32 238/352/32 221/351/32 220/348/32

usemtl MossyRockBase
f 152/218/1 153/219/1 136/217/1 135/189/1

usemtl RedSandAll
f 132/181/1 133/182/1 116/153/1 115/180/1
f 169/241/1 170/242/1 153/219/1 152/218/1

usemtl RedSandVert
f 97/119/14 98/120/14 81/118/14 80/117/14
f 130/174/14 131/175/14 114/173/14 113/172/14
f 131/178/19 132/179/19 115/177/19 114/176/19
f 168/239/24 169/240/24 152/216/24 151/215/24
f 182/256/19 183/257/19 166/234/19 165/233/19
f 184/260/20 185/261/20 168/238/20 167/237/20
f 185/262/25 186/263/26 169/240/25 168/239/24
f 198/279/27 199/280/28 182/255/27 181/254/14
f 216/311/14 217/312/14 200/310/14 199/280/14
f 217/315/33 218/316/32 201/314/33 200/313/19

usemtl RedSandHor
f 98/122/15 99/123/12 82/121/15 81/90/1
f 116/153/16 117/154/17 100/130/16 99/123/1
f 200/287/33 201/288/19 184/286/33 183/285/32

usemtl RedSandBase
f 99/126/15 100/127/1 83/125/15 82/124/12
f 114/148/11 115/149/12 98/147/11 97/146/6
f 115/151/15 116/152/1 99/126/15 98/150/12
f 199/283/30 200/284/31 183/282/30 182/281/29
f 201/289/34 202/290/35 185/261/34 184/260/20

usemtl LavaRock
f 113/144/5 114/145/6 97/116/5 96/115/1
f 133/185/20 134/186/20 117/184/20 116/183/20
f 147/205/14 148/206/14 131/175/14 130/174/14
f 148/207/19 149/208/19 132/179/19 131/178/19
f 149/209/1 150/210/1 133/182/1 132/181/1
f 165/233/19 166/234/19 149/208/19 148/207/19
f 167/237/20 168/238/20 151/212/20 150/211/20
f 181/254/14 182/255/14 165/232/14 164/231/14
f 183/258/1 184/259/1 167/236/1 166/235/1
f 186/266/26 187/267/26 170/265/26 169/264/26
f 202/293/35 203/294/35 186/292/35 185/291/35
f 218/318/33 219/319/19 202/317/33 201/288/32

