# ProBuilder 5.0.7
# https://unity3d.com/unity/features/worldbuilding/probuilder
# 19.01.2025 18:04:27

mtllib ./sideRock_4.mtl
o sideRock_4

g sideRock_4
v 8 0 -8
v 8 0 -7
v 7 0 -8
v 7 0 -7
v 8 0 -6
v 7 0 -6
v 8 0 -5
v 7 0 -5
v 8 0 -4
v 7 0 -4
v 8 0 -3
v 7 0 -3
v 8 0 -2
v 7 0 -2
v 8 0 -1
v 7 0 -1
v 8 0 0
v 7 0 0
v 8 0 1
v 7 0 1
v 8 0 2
v 7 0 2
v 8 0 3
v 7 0 3
v 8 0 4
v 7 0 4
v 8 0 5
v 7 0 5
v 8 0 6
v 7 0 6
v 8 0 7
v 7 0 7
v 8 0 8
v 7 0.5860635 8
v 6 0 -8
v 6 0 -7
v 6 0 -6
v 6 0 -5
v 6 0 -4
v 6 0 -3
v 6 0 -2
v 6 0 -1
v 6 0 0
v 6 0 1
v 6 0 2
v 6 0 3
v 6 0 4
v 6 0 5
v 6 0 6
v 6 0 7
v 5.960217 1.019366 8
v 5 0 -8
v 5 0 -7
v 5 0 -6
v 5 0 -5
v 5 0 -4
v 5 0 -3
v 5 0 -2
v 5 0 -1
v 5 0 0
v 5 0 1
v 5 0 2
v 5 0 3
v 5 0 4
v 5 0 5
v 5 0.9105109 6
v 5 0.9105109 7
v 5 0.9105109 8
v 4 0 -8
v 4 0 -7
v 4 0 -6
v 4 0 -5
v 4 0 -4
v 4 0 -3
v 4 0 -2
v 4 0 -1
v 4 0 0
v 4 0 1
v 4 0 2
v 4 0 3
v 4 0.9105109 4
v 4 0.9105109 5
v 4 1.830691 6
v 4 1.830691 7
v 4 1.830691 8
v 3 0 -8
v 3 0 -7
v 3 0 -6
v 3 0 -5
v 3 0 -4
v 3 0 -3
v 3 0 -2
v 3 0 -1
v 3 0 0
v 3 0 1
v 3 0 2
v 3 0 3
v 3 0.9105109 4
v 3 1.830691 5
v 3 2.906487 6
v 3 2.906487 7
v 3 2.906487 8
v 2 0 -8
v 2 0 -7
v 2 0 -6
v 2 0 -5
v 2 0 -4
v 2 0 -3
v 2 0 -2
v 2 0 -1
v 2 0 0
v 2 0 1
v 2 0 2
v 2 0.9105109 3
v 2 1.830691 4
v 2 2.906487 5
v 2 2.95401 6
v 2 2.024113 7
v 2 2.024113 8
v 1 0 -8
v 1 0 -7
v 1 0 -6
v 1 0 -5
v 1 0 -4
v 1 0 -3
v 1 0 -2
v 1 0 -1
v 1 0 0
v 1 0 1
v 1 0 2
v 1 0.9105109 3
v 1 1.830691 4
v 1 2.906487 5
v 1 2.024113 6
v 1 2.024113 7
v 1 2.024113 8
v 0 0 -8
v 0 0 -7
v 0 0 -6
v 0 0 -5
v 0 0 -4
v 0 0 -3
v 0 0 -2
v 0 0 -1
v 0 0 0
v 0 0 1
v 0 0 2
v 0 0.9105109 3
v 0 1.830691 4
v 0 2.906487 5
v 0 2.024113 6
v 0 2.03088 7
v 0 2.03088 8
v -1 0 -8
v -1 0 -7
v -1 0 -6
v -1 0 -5
v -1 0 -4
v -1 0 -3
v -1 0 -2
v -1 0 -1
v -1 0 0
v -1 0 1
v -1 0 2
v -1 0.9105109 3
v -1 1.830691 4
v -1 2.906487 5
v -1 2.024113 6
v -1 2.03088 7
v -1 2.03088 8
v -2 0 -8
v -2 0 -7
v -2 0 -6
v -2 0 -5
v -2 0 -4
v -2 0 -3
v -2 0 -2
v -2 0 -1
v -2 0 0
v -2 0 1
v -2 0 2
v -2 0.9105109 3
v -2 1.830691 4
v -2 2.906487 5
v -2 2.95401 6
v -2 2.024113 7
v -2 2.024113 8
v -3 0 -8
v -3 0 -7
v -3 0 -6
v -3 0 -5
v -3 0 -4
v -3 0 -3
v -3 0 -2
v -3 0 -1
v -3 0 0
v -3 0 1
v -3 0 2
v -3 0 3
v -3 0.9105109 4
v -3 1.830691 5
v -3 2.906487 6
v -3 2.906487 7
v -3 2.906487 8
v -4 0 -8
v -4 0 -7
v -4 0 -6
v -4 0 -5
v -4 0 -4
v -4 0 -3
v -4 0 -2
v -4 0 -1
v -4 0 0
v -4 0 1
v -4 0 2
v -4 0 3
v -4 0.9105109 4
v -4 0.9105109 5
v -4 1.830691 6
v -4 1.830691 7
v -4 1.830691 8
v -5 0 -8
v -5 0 -7
v -5 0 -6
v -5 0 -5
v -5 0 -4
v -5 0 -3
v -5 0 -2
v -5 0 -1
v -5 0 0
v -5 0 1
v -5 0 2
v -5 0 3
v -5 0 4
v -5 0 5
v -5 0.9105109 6
v -5 0.9105109 7
v -5 0.9105109 8
v -6 0 -8
v -6 0 -7
v -6 0 -6
v -6 0 -5
v -6 0 -4
v -6 0 -3
v -6 0 -2
v -6 0 -1
v -6 0 0
v -6 0 1
v -6 0 2
v -6 0 3
v -6 0 4
v -6 0 5
v -6 0 6
v -6 0 7
v -6 0.4991767 8
v -7 0 -8
v -7 0 -7
v -7 0 -6
v -7 0 -5
v -7 0 -4
v -7 0 -3
v -7 0 -2
v -7 0 -1
v -7 0 0
v -7 0 1
v -7 0 2
v -7 0 3
v -7 0 4
v -7 0 5
v -7 0 6
v -7 0 7
v -7 0.4991767 8
v -8 0 -8
v -8 0 -7
v -8 0 -6
v -8 0 -5
v -8 0 -4
v -8 0 -3
v -8 0 -2
v -8 0 -1
v -8 0 0
v -8 0 1
v -8 0 2
v -8 0 3
v -8 0 4
v -8 0 5
v -8 0 6
v -8 0 7
v -8 0 8

vt -8 -8
vt -8 -7
vt -7 -8
vt -7 -7
vt -8 -6
vt -7 -6
vt -8 -5
vt -7 -5
vt -8 -4
vt -7 -4
vt -8 -3
vt -7 -3
vt -8 -2
vt -7 -2
vt -8 -1
vt -7 -1
vt -8 0
vt -7 0
vt -8 1
vt -7 1
vt -8 2
vt -7 2
vt -8 3
vt -7 3
vt -8 4
vt -7 4
vt -8 5
vt -7 5
vt -8 6
vt -7 6
vt -8 7
vt -7 7
vt -8 8
vt -7 8
vt -6 -8
vt -6 -7
vt -6 -6
vt -6 -5
vt -6 -4
vt -6 -3
vt -6 -2
vt -6 -1
vt -6 0
vt -6 1
vt -6 2
vt -6 3
vt -6 4
vt -6 5
vt -6 6
vt -6 7
vt -7 6.039263
vt -7 7.198345
vt -6 6.039263
vt -5.960217 7.417435
vt -5 -8
vt -5 -7
vt -5 -6
vt -5 -5
vt -5 -4
vt -5 -3
vt -5 -2
vt -5 -1
vt -5 0
vt -5 1
vt -5 2
vt -5 3
vt -5 4
vt -5 5
vt -5 6
vt -4.436503 6
vt -4.436503 7
vt -3.084087 6
vt -3.084087 7
vt -4.436503 8.03724
vt -3.720802 9.27355
vt -3.084087 8.03724
vt -3.084087 8.846099
vt -4 -8
vt -4 -7
vt -4 -6
vt -4 -5
vt -4 -4
vt -4 -3
vt -4 -2
vt -4 -1
vt -4 0
vt -4 1
vt -4 2
vt -4 3
vt -4 4
vt -3.697086 4
vt -3.697086 5
vt -2.34467 4
vt -2.34467 5
vt -3.697086 6.027566
vt -3.084087 7.233079
vt -2.34467 6.027566
vt -1.725161 7.237072
vt -3.062792 6
vt -3.062792 7
vt -1.703847 6
vt -1.703847 7
vt -3.062792 8
vt -1.703847 8
vt -3 -8
vt -3 -7
vt -3 -6
vt -3 -5
vt -3 -4
vt -3 -3
vt -3 -2
vt -3 -1
vt -3 0
vt -3 1
vt -3 2
vt -3 3
vt -4 2.218252
vt -4 3.570668
vt -3 2.218252
vt -3 3.570668
vt -4 5
vt -3 4
vt -3 5
vt -2.326927 6.034435
vt -1.703847 7.24212
vt -0.9679821 6.034435
vt -0.2395305 7.306324
vt -6 -1.382468
vt -7 -1.382468
vt -6 0.08631945
vt -7 0.08631945
vt -8 -1.382468
vt -8 0.08631945
vt -2 -8
vt -2 -7
vt -2 -6
vt -2 -5
vt -2 -4
vt -2 -3
vt -2 -2
vt -2 -1
vt -2 0
vt -2 1
vt -2 2
vt -2 3
vt -2.218252 3.616539
vt -1.605253 4.822053
vt -0.8658354 3.616539
vt -0.2463264 4.826046
vt -1.591062 4.82675
vt -0.2321171 4.82675
vt 0.4963344 6.098639
vt -5.656854 2.306591
vt -6.363961 3.593967
vt -4.949748 3.593967
vt -5.656854 4.022067
vt -2.858647 6
vt -2.858647 7
vt -1.857519 6
vt -1.901661 7
vt -4.17251 7
vt -4.17251 8
vt -2.838875 7
vt -2.838875 8
vt -1 -8
vt -1 -7
vt -1 -6
vt -1 -5
vt -1 -4
vt -1 -3
vt -1 -2
vt -1 -1
vt -1 0
vt -1 1
vt -1 2
vt -2 1.478834
vt -2 2.831251
vt -1 1.478834
vt -1 2.831251
vt -2 2.824127
vt -2 4.183073
vt -1 2.824127
vt -1 4.183073
vt -2 4.064203
vt -2 5.53299
vt -1 4.064203
vt -1 5.53299
vt -2 5.132334
vt -2 6.133463
vt -1 5.132334
vt -1 6.089321
vt -3.476218 4.508294
vt -2.842983 5.718138
vt -2.110674 4.508294
vt -2.110674 5.334846
vt -2 7
vt -2 8
vt -1 7
vt -1 8
vt 0 -8
vt 0 -7
vt 0 -6
vt 0 -5
vt 0 -4
vt 0 -3
vt 0 -2
vt 0 -1
vt 0 0
vt 0 1
vt 0 2
vt 0 1.478834
vt 0 2.831251
vt 0 2.824127
vt 0 4.183073
vt 0 4.064203
vt 0 5.53299
vt -1 1.82613
vt -1 3.159766
vt 0 1.82613
vt 0 3.159766
vt -1 6
vt 0 6
vt 0 7
vt -0.9862802 7
vt -0.9862802 8
vt 0.01374272 7
vt 0.01374272 8
vt 1 -8
vt 1 -7
vt 1 -6
vt 1 -5
vt 1 -4
vt 1 -3
vt 1 -2
vt 1 -1
vt 1 0
vt 1 1
vt 1 2
vt 1 1.478834
vt 1 2.831251
vt 1 2.824127
vt 1 4.183073
vt 1 4.064203
vt 1 5.53299
vt 1 1.82613
vt 1 3.159766
vt 0 6.01356
vt 0 7.013583
vt 1 6.01356
vt 1 7.013583
vt 0 8
vt 1 7
vt 1 8
vt 2 -8
vt 2 -7
vt 2 -6
vt 2 -5
vt 2 -4
vt 2 -3
vt 2 -2
vt 2 -1
vt 2 0
vt 2 1
vt 2 2
vt 2 1.478834
vt 2 2.831251
vt 2 2.824127
vt 2 4.183073
vt 2 4.064203
vt 2 5.53299
vt 2 1.82613
vt 2 2.544518
vt 2.110674 6.003897
vt 2.115282 7.00391
vt 3.476217 6.003897
vt 2.842983 7.00051
vt 0.9862344 7
vt 0.9862344 8
vt 1.986257 7
vt 1.986257 8
vt 3 -8
vt 3 -7
vt 3 -6
vt 3 -5
vt 3 -4
vt 3 -3
vt 3 -2
vt 3 -1
vt 3 0
vt 3 1
vt 3 2
vt 3 1.478834
vt 3 2.218252
vt 0.8658354 3.616496
vt 0.2463264 4.826017
vt 2.218252 3.616496
vt 1.605253 4.821995
vt 4.11988 2.499001
vt 4.769885 3.81613
vt 4.879809 1.372396
vt 5.529815 2.562423
vt 5.083393 0.9203077
vt 6.082418 0.9851624
vt 5.127525 -0.5478163
vt 6.126551 0.2705239
vt 1.857519 2.323425
vt 1.901661 3.688255
vt 2.858647 2.323425
vt 2.858647 3.056117
vt 2.838875 7
vt 2.838875 8
vt 4.17251 7
vt 4.17251 8
vt 4 -8
vt 4 -7
vt 4 -6
vt 4 -5
vt 4 -4
vt 4 -3
vt 4 -2
vt 4 -1
vt 4 0
vt 4 1
vt 4 2
vt 3 3
vt 4 3
vt 3 3.570668
vt 4 2.218252
vt 4 3.570668
vt 3 3.559993
vt 3 4.918938
vt 4 3.559993
vt 4 4.295857
vt 6.17982 3.879552
vt 6.289744 1.435818
vt 6.93975 2.625845
vt 6 0.08631945
vt 7 0.08631945
vt 6 -1.382468
vt 7 -1.382468
vt 8 0.08631945
vt 8 -1.382468
vt 5 -8
vt 5 -7
vt 5 -6
vt 5 -5
vt 5 -4
vt 5 -3
vt 5 -2
vt 5 -1
vt 5 0
vt 5 1
vt 5 2
vt 5 3
vt 5 2.218252
vt 5 2.957669
vt 2.34467 4
vt 2.34467 5
vt 3.697086 4
vt 3.697086 5
vt 2.34467 6.027494
vt 1.725161 7.237015
vt 3.697086 6.027494
vt 3.084087 7.232993
vt 1.703847 6
vt 1.703847 7
vt 3.062792 6
vt 3.062792 7
vt 1.703847 8
vt 3.062792 8
vt 6 -8
vt 6 -7
vt 6 -6
vt 6 -5
vt 6 -4
vt 6 -3
vt 6 -2
vt 6 -1
vt 6 0
vt 6 1
vt 6 2
vt 6 3
vt 5 4
vt 6 4
vt 5 5
vt 6 5
vt 5 3.697086
vt 5 5.049502
vt 6 3.697086
vt 6 4.436503
vt 3.084087 6
vt 3.084087 7
vt 4.436503 6
vt 4.436503 7
vt 3.084087 8
vt 4.100434 8
vt 7 -8
vt 7 -7
vt 7 -6
vt 7 -5
vt 7 -4
vt 7 -3
vt 7 -2
vt 7 -1
vt 7 0
vt 7 1
vt 7 2
vt 7 3
vt 7 4
vt 7 5
vt 6 6
vt 7 6
vt 6 7
vt 7 7
vt 6 6.263052
vt 6 7.380717
vt 7 6.263052
vt 7 7.380717
vt 8 -8
vt 8 -7
vt 8 -6
vt 8 -5
vt 8 -4
vt 8 -3
vt 8 -2
vt 8 -1
vt 8 0
vt 8 1
vt 8 2
vt 8 3
vt 8 4
vt 8 5
vt 8 6
vt 8 7
vt 8 6.263052
vt 8 7.157773

vn 0 1 0
vn 0.2256133 0.884964 -0.2256133
vn 0.4512267 0.7699279 -0.4512267
vn 0 0.862752 -0.5056275
vn 0.1411452 0.7700775 -0.5924596
vn 0.2822905 0.6774031 -0.6792917
vn 0.2792369 0.8066815 -0.2792369
vn 0.5584737 0.613363 -0.5584737
vn 0.6732475 0.7394173 0
vn 0.5445622 0.5980842 -0.5880029
vn 0.2159591 0.7958598 -0.2940014
vn -0.1126439 0.9936354 0
vn 0.5595783 0.6113409 -0.5595783
vn 0.560683 0.6093187 -0.560683
vn 0.6771284 0.7358649 0
vn 0 0.7394173 -0.6732475
vn 0.2803415 0.8046594 -0.2803415
vn 0.5757884 0.5792904 -0.5757884
vn 0.5908938 0.5492622 -0.5908938
vn 0.7324379 0.6808338 0
vn 0.3191552 0.7735057 -0.3191552
vn 0.04741653 0.9977491 -0.04741653
vn 0.04746993 0.9988727 0
vn -0.2476276 0.8069733 0.2859778
vn -0.5427252 0.615074 0.5719557
vn -0.6616305 0.7498301 0
vn 0 0.7358649 -0.6771284
vn 0 0.6808338 -0.7324379
vn 0 0.9988727 -0.04746993
vn -0.2859778 0.8069733 0.2476276
vn -0.5719557 0.615074 0.5427252
vn -0.5628595 0.6052921 0.5628595
vn -0.2814297 0.802646 0.2814297
vn 0 0.7498301 0.6616305
vn 0.003383362 0.9999771 -0.003383362
vn 0.006766725 0.9999542 -0.006766725
vn 0.006766879 0.9999771 0
vn 0 0.9999771 -0.006766879
vn 0.3402801 0.7408481 0.3134248
vn 0.6805603 0.7318661 -0.03478084
vn 0.6809639 0.7323002 -0.0049555
vn 0.3380042 0.7323002 0.3380042
vn -0.0049555 0.7323002 0.6809639
vn -0.006766879 0.9999771 0
vn -0.3366237 0.7394173 -0.3366237
vn -0.6732475 0.7394173 0
vn -0.5566233 0.6113308 -0.5625345
vn -0.5595789 0.6113308 -0.5595789
vn -0.5625345 0.6113308 -0.5566233
vn -0.5309065 0.5769593 -0.6206902
vn -0.5757983 0.5769593 -0.5757983
vn -0.6206902 0.5769593 -0.5309065
vn -0.7320548 0.6804777 -0.03233869
vn -0.3821968 0.6804777 -0.3821968
vn -0.03233869 0.6804777 -0.7320548
vn -0.03478084 0.7318661 0.6805603
vn 0.3134248 0.7408481 0.3402801
vn 0.6616305 0.7498301 0
vn -0.3385642 0.7358649 -0.3385642
vn -0.6771284 0.7358649 0
vn -0.7324379 0.6808338 0
vn -0.5093147 0.7895399 -0.20957
vn -0.3453819 0.8396625 -0.4191399
vn 0 0.8947217 -0.4466242
vn -0.2233121 0.8947217 -0.2233121
vn -0.4466242 0.8947217 0

usemtl RockDarkBase
f 3/3/1 4/4/1 2/2/1 1/1/1
f 4/4/1 6/6/1 5/5/1 2/2/1
f 6/6/1 8/8/1 7/7/1 5/5/1
f 8/8/1 10/10/1 9/9/1 7/7/1
f 10/10/1 12/12/1 11/11/1 9/9/1
f 12/12/1 14/14/1 13/13/1 11/11/1
f 14/14/1 16/16/1 15/15/1 13/13/1
f 16/16/1 18/18/1 17/17/1 15/15/1
f 18/18/1 20/20/1 19/19/1 17/17/1
f 20/20/1 22/22/1 21/21/1 19/19/1
f 22/22/1 24/24/1 23/23/1 21/21/1
f 24/24/1 26/26/1 25/25/1 23/23/1
f 26/26/1 28/28/1 27/27/1 25/25/1
f 28/28/1 30/30/1 29/29/1 27/27/1
f 30/30/1 32/32/1 31/31/1 29/29/1
f 32/32/2 34/34/3 33/33/2 31/31/1
f 35/35/1 36/36/1 4/4/1 3/3/1
f 36/36/1 37/37/1 6/6/1 4/4/1
f 37/37/1 38/38/1 8/8/1 6/6/1
f 38/38/1 39/39/1 10/10/1 8/8/1
f 39/39/1 40/40/1 12/12/1 10/10/1
f 40/40/1 41/41/1 14/14/1 12/12/1
f 41/41/1 42/42/1 16/16/1 14/14/1
f 42/42/1 43/43/1 18/18/1 16/16/1
f 43/43/1 44/44/1 20/20/1 18/18/1
f 44/44/1 45/45/1 22/22/1 20/20/1
f 45/45/1 46/46/1 24/24/1 22/22/1
f 46/46/1 47/47/1 26/26/1 24/24/1
f 47/47/1 48/48/1 28/28/1 26/26/1
f 48/48/1 49/49/1 30/30/1 28/28/1
f 49/49/1 50/50/1 32/32/1 30/30/1
f 52/55/1 53/56/1 36/36/1 35/35/1
f 53/56/1 54/57/1 37/37/1 36/36/1
f 54/57/1 55/58/1 38/38/1 37/37/1
f 55/58/1 56/59/1 39/39/1 38/38/1
f 56/59/1 57/60/1 40/40/1 39/39/1
f 57/60/1 58/61/1 41/41/1 40/40/1
f 58/61/1 59/62/1 42/42/1 41/41/1
f 59/62/1 60/63/1 43/43/1 42/42/1
f 60/63/1 61/64/1 44/44/1 43/43/1
f 61/64/1 62/65/1 45/45/1 44/44/1
f 62/65/1 63/66/1 46/46/1 45/45/1
f 63/66/1 64/67/1 47/47/1 46/46/1
f 64/67/1 65/68/1 48/48/1 47/47/1
f 69/78/1 70/79/1 53/56/1 52/55/1
f 70/79/1 71/80/1 54/57/1 53/56/1
f 71/80/1 72/81/1 55/58/1 54/57/1
f 72/81/1 73/82/1 56/59/1 55/58/1
f 73/82/1 74/83/1 57/60/1 56/59/1
f 74/83/1 75/84/1 58/61/1 57/60/1
f 75/84/1 76/85/1 59/62/1 58/61/1
f 76/85/1 77/86/1 60/63/1 59/62/1
f 77/86/1 78/87/1 61/64/1 60/63/1
f 78/87/1 79/88/1 62/65/1 61/64/1
f 79/88/1 80/89/1 63/66/1 62/65/1
f 86/105/1 87/106/1 70/79/1 69/78/1
f 87/106/1 88/107/1 71/80/1 70/79/1
f 88/107/1 89/108/1 72/81/1 71/80/1
f 89/108/1 90/109/1 73/82/1 72/81/1
f 90/109/1 91/110/1 74/83/1 73/82/1
f 91/110/1 92/111/1 75/84/1 74/83/1
f 92/111/1 93/112/1 76/85/1 75/84/1
f 93/112/1 94/113/1 77/86/1 76/85/1
f 94/113/1 95/114/1 78/87/1 77/86/1
f 95/114/1 96/115/1 79/88/1 78/87/1
f 96/115/1 97/116/1 80/89/1 79/88/1
f 103/134/1 104/135/1 87/106/1 86/105/1
f 104/135/1 105/136/1 88/107/1 87/106/1
f 105/136/1 106/137/1 89/108/1 88/107/1
f 106/137/1 107/138/1 90/109/1 89/108/1
f 107/138/1 108/139/1 91/110/1 90/109/1
f 108/139/1 109/140/1 92/111/1 91/110/1
f 109/140/1 110/141/1 93/112/1 92/111/1
f 110/141/1 111/142/1 94/113/1 93/112/1
f 111/142/1 112/143/1 95/114/1 94/113/1
f 112/143/1 113/144/1 96/115/1 95/114/1
f 120/165/1 121/166/1 104/135/1 103/134/1
f 121/166/1 122/167/1 105/136/1 104/135/1
f 122/167/1 123/168/1 106/137/1 105/136/1
f 123/168/1 124/169/1 107/138/1 106/137/1
f 124/169/1 125/170/1 108/139/1 107/138/1
f 125/170/1 126/171/1 109/140/1 108/139/1
f 126/171/1 127/172/1 110/141/1 109/140/1
f 127/172/1 128/173/1 111/142/1 110/141/1
f 128/173/1 129/174/1 112/143/1 111/142/1
f 129/174/1 130/175/1 113/144/1 112/143/1
f 137/200/1 138/201/1 121/166/1 120/165/1
f 138/201/1 139/202/1 122/167/1 121/166/1
f 139/202/1 140/203/1 123/168/1 122/167/1
f 140/203/1 141/204/1 124/169/1 123/168/1
f 141/204/1 142/205/1 125/170/1 124/169/1
f 142/205/1 143/206/1 126/171/1 125/170/1
f 143/206/1 144/207/1 127/172/1 126/171/1
f 144/207/1 145/208/1 128/173/1 127/172/1
f 145/208/1 146/209/1 129/174/1 128/173/1
f 146/209/1 147/210/1 130/175/1 129/174/1
f 154/228/1 155/229/1 138/201/1 137/200/1
f 155/229/1 156/230/1 139/202/1 138/201/1
f 156/230/1 157/231/1 140/203/1 139/202/1
f 157/231/1 158/232/1 141/204/1 140/203/1
f 158/232/1 159/233/1 142/205/1 141/204/1
f 159/233/1 160/234/1 143/206/1 142/205/1
f 160/234/1 161/235/1 144/207/1 143/206/1
f 161/235/1 162/236/1 145/208/1 144/207/1
f 162/236/1 163/237/1 146/209/1 145/208/1
f 163/237/1 164/238/1 147/210/1 146/209/1
f 171/254/1 172/255/1 155/229/1 154/228/1
f 172/255/1 173/256/1 156/230/1 155/229/1
f 173/256/1 174/257/1 157/231/1 156/230/1
f 174/257/1 175/258/1 158/232/1 157/231/1
f 175/258/1 176/259/1 159/233/1 158/232/1
f 176/259/1 177/260/1 160/234/1 159/233/1
f 177/260/1 178/261/1 161/235/1 160/234/1
f 178/261/1 179/262/1 162/236/1 161/235/1
f 179/262/1 180/263/1 163/237/1 162/236/1
f 180/263/1 181/264/1 164/238/1 163/237/1
f 188/281/1 189/282/1 172/255/1 171/254/1
f 189/282/1 190/283/1 173/256/1 172/255/1
f 190/283/1 191/284/1 174/257/1 173/256/1
f 191/284/1 192/285/1 175/258/1 174/257/1
f 192/285/1 193/286/1 176/259/1 175/258/1
f 193/286/1 194/287/1 177/260/1 176/259/1
f 194/287/1 195/288/1 178/261/1 177/260/1
f 195/288/1 196/289/1 179/262/1 178/261/1
f 196/289/1 197/290/1 180/263/1 179/262/1
f 197/290/1 198/291/1 181/264/1 180/263/1
f 199/296/48 200/297/49 183/295/48 182/294/47
f 205/314/1 206/315/1 189/282/1 188/281/1
f 206/315/1 207/316/1 190/283/1 189/282/1
f 207/316/1 208/317/1 191/284/1 190/283/1
f 208/317/1 209/318/1 192/285/1 191/284/1
f 209/318/1 210/319/1 193/286/1 192/285/1
f 210/319/1 211/320/1 194/287/1 193/286/1
f 211/320/1 212/321/1 195/288/1 194/287/1
f 212/321/1 213/322/1 196/289/1 195/288/1
f 213/322/1 214/323/1 197/290/1 196/289/1
f 214/323/1 215/324/1 198/291/1 197/290/1
f 215/324/1 216/326/1 199/325/1 198/291/1
f 218/335/51 219/336/52 202/334/51 201/301/50
f 222/343/1 223/344/1 206/315/1 205/314/1
f 223/344/1 224/345/1 207/316/1 206/315/1
f 224/345/1 225/346/1 208/317/1 207/316/1
f 225/346/1 226/347/1 209/318/1 208/317/1
f 226/347/1 227/348/1 210/319/1 209/318/1
f 227/348/1 228/349/1 211/320/1 210/319/1
f 228/349/1 229/350/1 212/321/1 211/320/1
f 229/350/1 230/351/1 213/322/1 212/321/1
f 230/351/1 231/352/1 214/323/1 213/322/1
f 231/352/1 232/353/1 215/324/1 214/323/1
f 232/353/1 233/354/1 216/326/1 215/324/1
f 235/363/48 236/364/49 219/362/48 218/361/47
f 239/371/1 240/372/1 223/344/1 222/343/1
f 240/372/1 241/373/1 224/345/1 223/344/1
f 241/373/1 242/374/1 225/346/1 224/345/1
f 242/374/1 243/375/1 226/347/1 225/346/1
f 243/375/1 244/376/1 227/348/1 226/347/1
f 244/376/1 245/377/1 228/349/1 227/348/1
f 245/377/1 246/378/1 229/350/1 228/349/1
f 246/378/1 247/379/1 230/351/1 229/350/1
f 247/379/1 248/380/1 231/352/1 230/351/1
f 248/380/1 249/381/1 232/353/1 231/352/1
f 249/381/1 250/382/1 233/354/1 232/353/1
f 250/382/1 251/384/1 234/383/1 233/354/1
f 251/384/1 252/386/1 235/385/1 234/383/1
f 256/397/1 257/398/1 240/372/1 239/371/1
f 257/398/1 258/399/1 241/373/1 240/372/1
f 258/399/1 259/400/1 242/374/1 241/373/1
f 259/400/1 260/401/1 243/375/1 242/374/1
f 260/401/1 261/402/1 244/376/1 243/375/1
f 261/402/1 262/403/1 245/377/1 244/376/1
f 262/403/1 263/404/1 246/378/1 245/377/1
f 263/404/1 264/405/1 247/379/1 246/378/1
f 264/405/1 265/406/1 248/380/1 247/379/1
f 265/406/1 266/407/1 249/381/1 248/380/1
f 266/407/1 267/408/1 250/382/1 249/381/1
f 267/408/1 268/409/1 251/384/1 250/382/1
f 268/409/1 269/410/1 252/386/1 251/384/1
f 269/410/1 270/412/1 253/411/1 252/386/1
f 270/412/1 271/414/1 254/413/1 253/411/1
f 273/419/1 274/420/1 257/398/1 256/397/1
f 274/420/1 275/421/1 258/399/1 257/398/1
f 275/421/1 276/422/1 259/400/1 258/399/1
f 276/422/1 277/423/1 260/401/1 259/400/1
f 277/423/1 278/424/1 261/402/1 260/401/1
f 278/424/1 279/425/1 262/403/1 261/402/1
f 279/425/1 280/426/1 263/404/1 262/403/1
f 280/426/1 281/427/1 264/405/1 263/404/1
f 281/427/1 282/428/1 265/406/1 264/405/1
f 282/428/1 283/429/1 266/407/1 265/406/1
f 283/429/1 284/430/1 267/408/1 266/407/1
f 284/430/1 285/431/1 268/409/1 267/408/1
f 285/431/1 286/432/1 269/410/1 268/409/1
f 286/432/1 287/433/1 270/412/1 269/410/1
f 287/433/1 288/434/1 271/414/1 270/412/1
f 288/435/65 289/436/66 272/418/65 271/417/64

usemtl RockDarkAll
f 134/194/33 135/195/1 118/193/33 117/192/32
f 135/198/1 136/199/1 119/197/1 118/196/1

usemtl RockDarkHor
f 65/68/7 66/69/8 49/49/7 48/48/1
f 80/89/7 81/90/8 64/67/7 63/66/1
f 81/93/9 82/94/9 65/92/9 64/91/9
f 117/159/24 118/160/25 101/158/24 100/157/23
f 118/163/26 119/164/26 102/162/26 101/161/26
f 234/359/46 235/360/46 218/358/46 217/357/46
f 236/367/60 237/368/60 220/366/60 219/365/60
f 253/393/46 254/394/46 237/392/46 236/391/46
f 254/394/62 255/396/63 238/395/62 237/392/46

usemtl RockDarkVert
f 50/53/5 51/54/6 34/52/5 32/51/4
f 97/119/16 98/120/16 81/118/16 80/117/16
f 101/131/20 102/133/20 85/132/20 84/129/20
f 147/211/16 148/212/16 131/179/16 130/178/16
f 150/219/34 151/220/34 134/218/34 133/217/34
f 164/239/16 165/240/16 148/212/16 147/211/16
f 165/241/27 166/242/27 149/214/27 148/213/27
f 181/265/16 182/266/16 165/240/16 164/239/16
f 182/267/27 183/268/27 166/242/27 165/241/27
f 198/292/45 199/293/46 182/266/45 181/265/16
f 216/328/16 217/329/16 200/327/16 199/293/16
f 217/332/59 218/333/60 201/331/59 200/330/27
f 219/339/61 220/340/61 203/338/61 202/337/61
f 233/355/45 234/356/46 217/329/45 216/328/16
f 252/389/45 253/390/46 236/388/45 235/387/16
f 271/417/64 272/418/64 255/416/64 254/415/64

usemtl MossyRockBase
f 151/222/35 152/223/36 135/198/35 134/221/1

usemtl RedSandAll
f 169/252/1 170/253/1 153/251/1 152/223/1

usemtl RedSandVert
f 98/122/17 99/123/14 82/121/17 81/90/1
f 113/144/7 114/145/8 97/116/7 96/115/1
f 131/182/27 132/183/27 115/181/27 114/180/27
f 132/186/28 133/187/28 116/185/28 115/184/28
f 152/226/37 153/227/37 136/225/37 135/224/37
f 168/249/38 169/250/38 152/248/38 151/247/38
f 183/269/28 184/270/28 167/244/28 166/243/28
f 184/271/39 185/272/40 168/246/39 167/245/34
f 185/275/42 186/276/43 169/274/42 168/273/41
f 186/279/44 187/280/44 170/278/44 169/277/44
f 220/340/61 221/342/61 204/341/61 203/338/61

usemtl RedSandHor
f 66/72/9 67/73/9 50/71/9 49/70/9
f 83/101/15 84/102/15 67/100/15 66/99/15
f 84/102/15 85/104/15 68/103/15 67/100/15
f 237/368/60 238/370/60 221/369/60 220/366/60

usemtl RedSandBase
f 67/76/11 68/77/12 51/75/11 50/74/10
f 99/126/18 100/127/19 83/125/18 82/124/14
f 114/148/13 115/149/14 98/147/13 97/146/8
f 115/151/18 116/152/19 99/126/18 98/150/14
f 116/155/21 117/156/22 100/154/21 99/153/19
f 200/300/51 201/301/52 184/299/51 183/298/50
f 201/304/54 202/305/55 185/303/54 184/302/53

usemtl LavaRock
f 82/97/13 83/98/14 66/96/13 65/95/8
f 100/130/20 101/131/20 84/129/20 83/128/20
f 130/178/16 131/179/16 114/177/16 113/176/16
f 133/190/30 134/191/31 117/189/30 116/188/29
f 148/213/27 149/214/27 132/183/27 131/182/27
f 149/215/28 150/216/28 133/187/28 132/186/28
f 166/243/28 167/244/28 150/216/28 149/215/28
f 167/245/34 168/246/34 151/220/34 150/219/34
f 202/308/57 203/309/58 186/307/57 185/306/56
f 203/312/58 204/313/58 187/311/58 186/310/58

