# MagicaVoxel @ Ephtracy

# group
o 

# material
mtllib man_blue_head.mtl
usemtl palette

# normals
vn -1 0 0
vn 1 0 0
vn 0 0 1
vn 0 0 -1
vn 0 -1 0
vn 0 1 0

# texcoords
vt 0.787109 0.5
vt 0.947266 0.5
vt 0.974609 0.5

# verts
v -0.4 0.1 -0.1
v -0.4 0.1 -0.3
v -0.4 0.2 0.3
v -0.4 0.2 -0.1
v -0.4 0.2 -0.2
v -0.4 0.3 0.1
v -0.4 0.3 -0.1
v -0.4 0.4 0.1
v -0.4 0.4 -0.2
v -0.4 0.5 0.3
v -0.4 0.5 -0.3
v -0.3 0 0.3
v -0.3 0 -0.1
v -0.3 0 -0.3
v -0.3 0.1 -0.1
v -0.3 0.1 -0.3
v -0.3 0.1 -0.4
v -0.3 0.2 0.3
v -0.3 0.2 -0.1
v -0.3 0.3 0.4
v -0.3 0.3 0.3
v -0.3 0.5 0.4
v -0.3 0.5 0.3
v -0.3 0.5 -0.3
v -0.3 0.5 -0.4
v -0.3 0.6 0.3
v -0.3 0.6 -0.3
v 0.3 0 0.3
v 0.3 0 -0.1
v 0.3 0 -0.3
v 0.3 0.1 -0.1
v 0.3 0.1 -0.3
v 0.3 0.1 -0.4
v 0.3 0.2 0.3
v 0.3 0.2 -0.1
v 0.3 0.3 0.4
v 0.3 0.3 0.3
v 0.3 0.5 0.4
v 0.3 0.5 0.3
v 0.3 0.5 -0.3
v 0.3 0.5 -0.4
v 0.3 0.6 0.3
v 0.3 0.6 -0.3
v 0.4 0.1 -0.1
v 0.4 0.1 -0.3
v 0.4 0.2 0.3
v 0.4 0.2 -0.1
v 0.4 0.2 -0.2
v 0.4 0.3 0.2
v 0.4 0.3 -0.1
v 0.4 0.4 0.2
v 0.4 0.4 -0.2
v 0.4 0.5 0.3
v 0.4 0.5 -0.3
v -0.3 0.3 0.4
v -0.3 0.5 0.4
v -0.1 0.4 0.4
v -0.1 0.5 0.4
v 0 0.4 0.4
v 0 0.5 0.4
v 0.1 0.4 0.4
v 0.1 0.5 0.4
v 0.2 0.4 0.4
v 0.2 0.5 0.4
v 0.3 0.3 0.4
v 0.3 0.5 0.4
v -0.4 0.2 0.3
v -0.4 0.5 0.3
v -0.3 0 0.3
v -0.3 0.2 0.3
v -0.3 0.3 0.3
v -0.3 0.5 0.3
v -0.3 0.6 0.3
v -0.2 0.2 0.3
v -0.2 0.3 0.3
v -0.1 0.2 0.3
v -0.1 0.3 0.3
v -0.1 0.5 0.3
v 0 0.5 0.3
v 0.1 0.2 0.3
v 0.1 0.3 0.3
v 0.1 0.5 0.3
v 0.2 0.2 0.3
v 0.2 0.3 0.3
v 0.2 0.5 0.3
v 0.3 0 0.3
v 0.3 0.2 0.3
v 0.3 0.3 0.3
v 0.3 0.5 0.3
v 0.3 0.6 0.3
v 0.4 0.2 0.3
v 0.4 0.5 0.3
v -0.4 0.1 -0.1
v -0.4 0.2 -0.1
v -0.3 0.1 -0.1
v -0.3 0.2 -0.1
v 0.3 0.1 -0.1
v 0.3 0.2 -0.1
v 0.4 0.1 -0.1
v 0.4 0.2 -0.1
v -0.4 0.1 -0.3
v -0.4 0.5 -0.3
v -0.3 0 -0.3
v -0.3 0.1 -0.3
v -0.3 0.5 -0.3
v -0.3 0.6 -0.3
v -0.2 0.5 -0.3
v -0.1 0.5 -0.3
v 0.1 0.5 -0.3
v 0.2 0.5 -0.3
v 0.3 0 -0.3
v 0.3 0.1 -0.3
v 0.3 0.5 -0.3
v 0.3 0.6 -0.3
v 0.4 0.1 -0.3
v 0.4 0.5 -0.3
v -0.3 0.1 -0.4
v -0.3 0.5 -0.4
v -0.2 0.3 -0.4
v -0.2 0.5 -0.4
v -0.1 0.2 -0.4
v -0.1 0.3 -0.4
v -0.1 0.4 -0.4
v -0.1 0.5 -0.4
v 0 0.3 -0.4
v 0 0.4 -0.4
v 0.1 0.2 -0.4
v 0.1 0.3 -0.4
v 0.1 0.5 -0.4
v 0.2 0.3 -0.4
v 0.2 0.5 -0.4
v 0.3 0.1 -0.4
v 0.3 0.5 -0.4
v -0.3 0 0.3
v 0.3 0 0.3
v -0.3 0 -0.1
v 0.3 0 -0.1
v -0.3 0 -0.3
v 0.3 0 -0.3
v -0.4 0.1 -0.1
v -0.3 0.1 -0.1
v 0.3 0.1 -0.1
v 0.4 0.1 -0.1
v -0.4 0.1 -0.3
v -0.3 0.1 -0.3
v 0.3 0.1 -0.3
v 0.4 0.1 -0.3
v -0.3 0.1 -0.4
v 0.3 0.1 -0.4
v -0.4 0.2 0.3
v -0.3 0.2 0.3
v 0.3 0.2 0.3
v 0.4 0.2 0.3
v -0.4 0.2 -0.1
v -0.3 0.2 -0.1
v 0.3 0.2 -0.1
v 0.4 0.2 -0.1
v -0.3 0.3 0.4
v 0.3 0.3 0.4
v -0.3 0.3 0.3
v -0.2 0.3 0.3
v -0.1 0.3 0.3
v 0.1 0.3 0.3
v 0.2 0.3 0.3
v 0.3 0.3 0.3
v -0.3 0.5 0.4
v -0.1 0.5 0.4
v 0 0.5 0.4
v 0.1 0.5 0.4
v 0.2 0.5 0.4
v 0.3 0.5 0.4
v -0.4 0.5 0.3
v -0.3 0.5 0.3
v -0.1 0.5 0.3
v 0 0.5 0.3
v 0.1 0.5 0.3
v 0.2 0.5 0.3
v 0.3 0.5 0.3
v 0.4 0.5 0.3
v -0.4 0.5 -0.3
v -0.3 0.5 -0.3
v -0.2 0.5 -0.3
v -0.1 0.5 -0.3
v 0.1 0.5 -0.3
v 0.2 0.5 -0.3
v 0.3 0.5 -0.3
v 0.4 0.5 -0.3
v -0.3 0.5 -0.4
v -0.2 0.5 -0.4
v -0.1 0.5 -0.4
v 0.1 0.5 -0.4
v 0.2 0.5 -0.4
v 0.3 0.5 -0.4
v -0.3 0.6 0.3
v 0.3 0.6 0.3
v -0.1 0.6 0.1
v 0.2 0.6 0.1
v -0.2 0.6 0
v -0.1 0.6 0
v 0 0.6 0
v 0.1 0.6 0
v -0.2 0.6 -0.1
v 0 0.6 -0.1
v 0.1 0.6 -0.1
v 0.2 0.6 -0.1
v -0.3 0.6 -0.3
v 0.3 0.6 -0.3

# faces
f 4/2/1 2/2/1 1/2/1
f 5/2/1 2/2/1 4/2/1
f 6/2/1 4/2/1 3/2/1
f 7/3/1 5/3/1 4/3/1
f 7/2/1 4/2/1 6/2/1
f 8/2/1 6/2/1 3/2/1
f 8/3/1 7/3/1 6/3/1
f 9/2/1 2/2/1 5/2/1
f 9/3/1 7/3/1 8/3/1
f 9/3/1 5/3/1 7/3/1
f 10/2/1 8/2/1 3/2/1
f 10/2/1 9/2/1 8/2/1
f 11/2/1 2/2/1 9/2/1
f 11/2/1 9/2/1 10/2/1
f 15/1/1 13/1/1 12/1/1
f 15/2/1 14/2/1 13/2/1
f 16/2/1 14/2/1 15/2/1
f 18/1/1 15/1/1 12/1/1
f 19/1/1 15/1/1 18/1/1
f 22/2/1 21/2/1 20/2/1
f 23/2/1 21/2/1 22/2/1
f 24/2/1 17/2/1 16/2/1
f 25/2/1 17/2/1 24/2/1
f 26/2/1 24/2/1 23/2/1
f 27/2/1 24/2/1 26/2/1
f 28/1/2 29/1/2 31/1/2
f 29/2/2 30/2/2 31/2/2
f 31/2/2 30/2/2 32/2/2
f 28/1/2 31/1/2 34/1/2
f 34/1/2 31/1/2 35/1/2
f 36/2/2 37/2/2 38/2/2
f 38/2/2 37/2/2 39/2/2
f 32/2/2 33/2/2 40/2/2
f 40/2/2 33/2/2 41/2/2
f 39/2/2 40/2/2 42/2/2
f 42/2/2 40/2/2 43/2/2
f 44/2/2 45/2/2 47/2/2
f 47/2/2 45/2/2 48/2/2
f 46/2/2 47/2/2 49/2/2
f 47/3/2 48/3/2 50/3/2
f 49/2/2 47/2/2 50/2/2
f 46/2/2 49/2/2 51/2/2
f 49/3/2 50/3/2 51/3/2
f 48/2/2 45/2/2 52/2/2
f 51/3/2 50/3/2 52/3/2
f 50/3/2 48/3/2 52/3/2
f 46/2/2 51/2/2 53/2/2
f 51/2/2 52/2/2 53/2/2
f 52/2/2 45/2/2 54/2/2
f 53/2/2 52/2/2 54/2/2
f 57/2/3 56/2/3 55/2/3
f 58/2/3 56/2/3 57/2/3
f 59/2/3 57/2/3 55/2/3
f 59/3/3 58/3/3 57/3/3
f 60/3/3 58/3/3 59/3/3
f 61/2/3 59/2/3 55/2/3
f 61/2/3 60/2/3 59/2/3
f 62/2/3 60/2/3 61/2/3
f 63/2/3 61/2/3 55/2/3
f 63/3/3 62/3/3 61/3/3
f 64/3/3 62/3/3 63/3/3
f 65/2/3 63/2/3 55/2/3
f 65/2/3 64/2/3 63/2/3
f 66/2/3 64/2/3 65/2/3
f 70/2/3 68/2/3 67/2/3
f 71/2/3 68/2/3 70/2/3
f 72/2/3 68/2/3 71/2/3
f 74/1/3 70/1/3 69/1/3
f 74/1/3 71/1/3 70/1/3
f 75/1/3 71/1/3 74/1/3
f 76/1/3 74/1/3 69/1/3
f 76/2/3 75/2/3 74/2/3
f 77/2/3 75/2/3 76/2/3
f 78/2/3 73/2/3 72/2/3
f 79/2/3 73/2/3 78/2/3
f 80/1/3 77/1/3 76/1/3
f 80/1/3 76/1/3 69/1/3
f 81/1/3 77/1/3 80/1/3
f 82/2/3 73/2/3 79/2/3
f 83/2/3 81/2/3 80/2/3
f 83/1/3 80/1/3 69/1/3
f 84/2/3 81/2/3 83/2/3
f 85/2/3 73/2/3 82/2/3
f 86/1/3 84/1/3 83/1/3
f 86/1/3 83/1/3 69/1/3
f 87/1/3 84/1/3 86/1/3
f 88/1/3 84/1/3 87/1/3
f 89/2/3 73/2/3 85/2/3
f 90/2/3 73/2/3 89/2/3
f 91/2/3 88/2/3 87/2/3
f 91/2/3 89/2/3 88/2/3
f 92/2/3 89/2/3 91/2/3
f 95/2/3 94/2/3 93/2/3
f 96/2/3 94/2/3 95/2/3
f 99/2/3 98/2/3 97/2/3
f 100/2/3 98/2/3 99/2/3
f 101/2/4 102/2/4 104/2/4
f 104/2/4 102/2/4 105/2/4
f 105/2/4 106/2/4 107/2/4
f 107/2/4 106/2/4 108/2/4
f 108/2/4 106/2/4 109/2/4
f 109/2/4 106/2/4 110/2/4
f 103/2/4 104/2/4 111/2/4
f 111/2/4 104/2/4 112/2/4
f 110/2/4 106/2/4 113/2/4
f 113/2/4 106/2/4 114/2/4
f 112/2/4 113/2/4 115/2/4
f 115/2/4 113/2/4 116/2/4
f 117/2/4 118/2/4 119/2/4
f 119/2/4 118/2/4 120/2/4
f 117/2/4 119/2/4 121/2/4
f 119/3/4 120/3/4 122/3/4
f 121/2/4 119/2/4 122/2/4
f 122/3/4 120/3/4 123/3/4
f 123/3/4 120/3/4 124/3/4
f 121/3/4 122/3/4 125/3/4
f 122/3/4 123/3/4 125/3/4
f 123/2/4 124/2/4 126/2/4
f 125/3/4 123/3/4 126/3/4
f 117/2/4 121/2/4 127/2/4
f 121/3/4 125/3/4 127/3/4
f 125/2/4 126/2/4 128/2/4
f 127/3/4 125/3/4 128/3/4
f 126/2/4 124/2/4 129/2/4
f 128/2/4 126/2/4 129/2/4
f 127/2/4 128/2/4 130/2/4
f 128/3/4 129/3/4 130/3/4
f 130/3/4 129/3/4 131/3/4
f 117/2/4 127/2/4 132/2/4
f 127/2/4 130/2/4 132/2/4
f 130/2/4 131/2/4 132/2/4
f 132/2/4 131/2/4 133/2/4
f 136/1/5 135/1/5 134/1/5
f 137/1/5 135/1/5 136/1/5
f 138/2/5 137/2/5 136/2/5
f 139/2/5 137/2/5 138/2/5
f 144/2/5 141/2/5 140/2/5
f 145/2/5 141/2/5 144/2/5
f 146/2/5 143/2/5 142/2/5
f 147/2/5 143/2/5 146/2/5
f 148/2/5 146/2/5 145/2/5
f 149/2/5 146/2/5 148/2/5
f 154/2/5 151/2/5 150/2/5
f 155/2/5 151/2/5 154/2/5
f 156/2/5 153/2/5 152/2/5
f 157/2/5 153/2/5 156/2/5
f 160/2/5 159/2/5 158/2/5
f 161/2/5 159/2/5 160/2/5
f 162/2/5 159/2/5 161/2/5
f 163/2/5 159/2/5 162/2/5
f 164/2/5 159/2/5 163/2/5
f 165/2/5 159/2/5 164/2/5
f 166/2/6 167/2/6 173/2/6
f 167/3/6 168/3/6 174/3/6
f 173/2/6 167/2/6 174/2/6
f 168/2/6 169/2/6 175/2/6
f 174/3/6 168/3/6 175/3/6
f 169/3/6 170/3/6 176/3/6
f 175/2/6 169/2/6 176/2/6
f 170/2/6 171/2/6 177/2/6
f 176/3/6 170/3/6 177/3/6
f 177/2/6 171/2/6 178/2/6
f 172/2/6 173/2/6 180/2/6
f 180/2/6 173/2/6 181/2/6
f 178/2/6 179/2/6 186/2/6
f 186/2/6 179/2/6 187/2/6
f 181/2/6 182/2/6 188/2/6
f 182/3/6 183/3/6 189/3/6
f 188/2/6 182/2/6 189/2/6
f 183/2/6 184/2/6 190/2/6
f 189/3/6 183/3/6 190/3/6
f 184/3/6 185/3/6 191/3/6
f 190/2/6 184/2/6 191/2/6
f 185/2/6 186/2/6 192/2/6
f 191/3/6 185/3/6 192/3/6
f 192/2/6 186/2/6 193/2/6
f 194/2/6 195/2/6 196/2/6
f 196/2/6 195/2/6 197/2/6
f 194/2/6 196/2/6 198/2/6
f 196/3/6 197/3/6 199/3/6
f 198/2/6 196/2/6 199/2/6
f 199/3/6 197/3/6 200/3/6
f 200/3/6 197/3/6 201/3/6
f 194/2/6 198/2/6 202/2/6
f 198/3/6 199/3/6 202/3/6
f 199/3/6 200/3/6 202/3/6
f 200/2/6 201/2/6 203/2/6
f 202/3/6 200/3/6 203/3/6
f 201/3/6 197/3/6 204/3/6
f 203/2/6 201/2/6 204/2/6
f 197/2/6 195/2/6 205/2/6
f 204/3/6 197/3/6 205/3/6
f 203/2/6 204/2/6 206/2/6
f 202/2/6 203/2/6 206/2/6
f 204/2/6 205/2/6 206/2/6
f 194/2/6 202/2/6 206/2/6
f 205/2/6 195/2/6 207/2/6
f 206/2/6 205/2/6 207/2/6
