# MagicaVoxel @ Ephtracy

# group
o 

# material
mtllib jeep_tower.mtl
usemtl palette

# normals
vn -1 0 0
vn 1 0 0
vn 0 0 1
vn 0 0 -1
vn 0 -1 0
vn 0 1 0

# texcoords
vt 0.720703 0.5
vt 0.783203 0.5

# verts
v -0.6 0 0.1
v -0.6 0 -0.4
v -0.6 0.3 0.1
v -0.6 0.3 -0.4
v -0.6 0.6 -0.1
v -0.6 0.6 -0.2
v -0.6 0.7 5.96046e-08
v -0.6 0.7 -0.1
v -0.6 0.7 -0.2
v -0.6 0.7 -0.3
v -0.6 0.8 5.96046e-08
v -0.6 0.8 -0.1
v -0.6 0.8 -0.2
v -0.6 0.8 -0.3
v -0.6 0.9 -0.1
v -0.6 0.9 -0.2
v -0.5 0 0.3
v -0.5 0 0.1
v -0.5 0 -0.4
v -0.5 0 -0.6
v -0.5 0.3 0.3
v -0.5 0.3 0.1
v -0.5 0.3 5.96046e-08
v -0.5 0.3 -0.3
v -0.5 0.3 -0.4
v -0.5 0.3 -0.6
v -0.5 0.6 -0.1
v -0.5 0.6 -0.2
v -0.5 0.7 5.96046e-08
v -0.5 0.7 -0.1
v -0.5 0.7 -0.2
v -0.5 0.7 -0.3
v -0.5 0.8 5.96046e-08
v -0.5 0.8 -0.1
v -0.5 0.8 -0.2
v -0.5 0.8 -0.3
v -0.5 0.9 5.96046e-08
v -0.5 0.9 -0.1
v -0.5 0.9 -0.2
v -0.5 0.9 -0.3
v -0.4 0 0.4
v -0.4 0 0.3
v -0.4 0 -0.6
v -0.4 0 -0.7
v -0.4 0.3 0.4
v -0.4 0.3 0.3
v -0.4 0.3 -0.6
v -0.4 0.3 -0.7
v -0.3 0 0.5
v -0.3 0 0.4
v -0.3 0 -0.7
v -0.3 0 -0.8
v -0.3 0.3 0.5
v -0.3 0.3 0.4
v -0.3 0.3 -0.7
v -0.3 0.3 -0.8
v -0.1 0 0.6
v -0.1 0 0.5
v -0.1 0 -0.8
v -0.1 0 -0.9
v -0.1 0.3 0.6
v -0.1 0.3 0.5
v -0.1 0.3 -0.8
v -0.1 0.3 -0.9
v 0.6 0.3 5.96046e-08
v 0.6 0.3 -0.3
v 0.6 0.9 5.96046e-08
v 0.6 0.9 -0.3
v -0.3 0.3 5.96046e-08
v -0.3 0.3 -0.3
v -0.3 0.9 5.96046e-08
v -0.3 0.9 -0.3
v 0.4 0 0.6
v 0.4 0 0.5
v 0.4 0 -0.8
v 0.4 0 -0.9
v 0.4 0.3 0.6
v 0.4 0.3 0.5
v 0.4 0.3 -0.8
v 0.4 0.3 -0.9
v 0.6 0 0.5
v 0.6 0 0.4
v 0.6 0 -0.7
v 0.6 0 -0.8
v 0.6 0.3 0.5
v 0.6 0.3 0.4
v 0.6 0.3 -0.7
v 0.6 0.3 -0.8
v 0.7 0 0.4
v 0.7 0 0.3
v 0.7 0 -0.6
v 0.7 0 -0.7
v 0.7 0.3 0.4
v 0.7 0.3 0.3
v 0.7 0.3 -0.6
v 0.7 0.3 -0.7
v 0.8 0 0.3
v 0.8 0 0.1
v 0.8 0 -0.4
v 0.8 0 -0.6
v 0.8 0.3 0.3
v 0.8 0.3 0.1
v 0.8 0.3 5.96046e-08
v 0.8 0.3 -0.3
v 0.8 0.3 -0.4
v 0.8 0.3 -0.6
v 0.8 0.6 -0.1
v 0.8 0.6 -0.2
v 0.8 0.7 5.96046e-08
v 0.8 0.7 -0.1
v 0.8 0.7 -0.2
v 0.8 0.7 -0.3
v 0.8 0.8 5.96046e-08
v 0.8 0.8 -0.1
v 0.8 0.8 -0.2
v 0.8 0.8 -0.3
v 0.8 0.9 5.96046e-08
v 0.8 0.9 -0.1
v 0.8 0.9 -0.2
v 0.8 0.9 -0.3
v 0.9 0 0.1
v 0.9 0 -0.4
v 0.9 0.3 0.1
v 0.9 0.3 -0.4
v 0.9 0.6 -0.1
v 0.9 0.6 -0.2
v 0.9 0.7 5.96046e-08
v 0.9 0.7 -0.1
v 0.9 0.7 -0.2
v 0.9 0.7 -0.3
v 0.9 0.8 5.96046e-08
v 0.9 0.8 -0.1
v 0.9 0.8 -0.2
v 0.9 0.8 -0.3
v 0.9 0.9 -0.1
v 0.9 0.9 -0.2
v -0.1 0 0.6
v -0.1 0.3 0.6
v 0.4 0 0.6
v 0.4 0.3 0.6
v -0.3 0 0.5
v -0.3 0.3 0.5
v -0.1 0 0.5
v -0.1 0.3 0.5
v 0.4 0 0.5
v 0.4 0.3 0.5
v 0.6 0 0.5
v 0.6 0.3 0.5
v -0.4 0 0.4
v -0.4 0.3 0.4
v -0.3 0 0.4
v -0.3 0.3 0.4
v 0.6 0 0.4
v 0.6 0.3 0.4
v 0.7 0 0.4
v 0.7 0.3 0.4
v -0.5 0 0.3
v -0.5 0.3 0.3
v -0.4 0 0.3
v -0.4 0.3 0.3
v 0.7 0 0.3
v 0.7 0.3 0.3
v 0.8 0 0.3
v 0.8 0.3 0.3
v -0.6 0 0.1
v -0.6 0.3 0.1
v -0.5 0 0.1
v -0.5 0.3 0.1
v 0.8 0 0.1
v 0.8 0.3 0.1
v 0.9 0 0.1
v 0.9 0.3 0.1
v -0.6 0.7 5.96046e-08
v -0.6 0.8 5.96046e-08
v -0.5 0.3 5.96046e-08
v -0.5 0.7 5.96046e-08
v -0.5 0.8 5.96046e-08
v -0.5 0.9 5.96046e-08
v -0.3 0.3 5.96046e-08
v -0.3 0.9 5.96046e-08
v 0.6 0.3 5.96046e-08
v 0.6 0.9 5.96046e-08
v 0.8 0.3 5.96046e-08
v 0.8 0.7 5.96046e-08
v 0.8 0.8 5.96046e-08
v 0.8 0.9 5.96046e-08
v 0.9 0.7 5.96046e-08
v 0.9 0.8 5.96046e-08
v -0.6 0.6 -0.1
v -0.6 0.7 -0.1
v -0.6 0.8 -0.1
v -0.6 0.9 -0.1
v -0.5 0.6 -0.1
v -0.5 0.7 -0.1
v -0.5 0.8 -0.1
v -0.5 0.9 -0.1
v 0.8 0.6 -0.1
v 0.8 0.7 -0.1
v 0.8 0.8 -0.1
v 0.8 0.9 -0.1
v 0.9 0.6 -0.1
v 0.9 0.7 -0.1
v 0.9 0.8 -0.1
v 0.9 0.9 -0.1
v -0.6 0.6 -0.2
v -0.6 0.7 -0.2
v -0.6 0.8 -0.2
v -0.6 0.9 -0.2
v -0.5 0.6 -0.2
v -0.5 0.7 -0.2
v -0.5 0.8 -0.2
v -0.5 0.9 -0.2
v 0.8 0.6 -0.2
v 0.8 0.7 -0.2
v 0.8 0.8 -0.2
v 0.8 0.9 -0.2
v 0.9 0.6 -0.2
v 0.9 0.7 -0.2
v 0.9 0.8 -0.2
v 0.9 0.9 -0.2
v -0.6 0.7 -0.3
v -0.6 0.8 -0.3
v -0.5 0.3 -0.3
v -0.5 0.7 -0.3
v -0.5 0.8 -0.3
v -0.5 0.9 -0.3
v -0.3 0.3 -0.3
v -0.3 0.9 -0.3
v 0.6 0.3 -0.3
v 0.6 0.9 -0.3
v 0.8 0.3 -0.3
v 0.8 0.7 -0.3
v 0.8 0.8 -0.3
v 0.8 0.9 -0.3
v 0.9 0.7 -0.3
v 0.9 0.8 -0.3
v -0.6 0 -0.4
v -0.6 0.3 -0.4
v -0.5 0 -0.4
v -0.5 0.3 -0.4
v 0.8 0 -0.4
v 0.8 0.3 -0.4
v 0.9 0 -0.4
v 0.9 0.3 -0.4
v -0.5 0 -0.6
v -0.5 0.3 -0.6
v -0.4 0 -0.6
v -0.4 0.3 -0.6
v 0.7 0 -0.6
v 0.7 0.3 -0.6
v 0.8 0 -0.6
v 0.8 0.3 -0.6
v -0.4 0 -0.7
v -0.4 0.3 -0.7
v -0.3 0 -0.7
v -0.3 0.3 -0.7
v 0.6 0 -0.7
v 0.6 0.3 -0.7
v 0.7 0 -0.7
v 0.7 0.3 -0.7
v -0.3 0 -0.8
v -0.3 0.3 -0.8
v -0.1 0 -0.8
v -0.1 0.3 -0.8
v 0.4 0 -0.8
v 0.4 0.3 -0.8
v 0.6 0 -0.8
v 0.6 0.3 -0.8
v -0.1 0 -0.9
v -0.1 0.3 -0.9
v 0.4 0 -0.9
v 0.4 0.3 -0.9
v -0.1 0 0.6
v 0.4 0 0.6
v -0.3 0 0.5
v -0.1 0 0.5
v 0.4 0 0.5
v 0.6 0 0.5
v -0.4 0 0.4
v -0.3 0 0.4
v 0.6 0 0.4
v 0.7 0 0.4
v -0.5 0 0.3
v -0.4 0 0.3
v 0.7 0 0.3
v 0.8 0 0.3
v -0.6 0 0.1
v -0.5 0 0.1
v 0.8 0 0.1
v 0.9 0 0.1
v -0.6 0 -0.4
v -0.5 0 -0.4
v 0.8 0 -0.4
v 0.9 0 -0.4
v -0.5 0 -0.6
v -0.4 0 -0.6
v 0.7 0 -0.6
v 0.8 0 -0.6
v -0.4 0 -0.7
v -0.3 0 -0.7
v 0.6 0 -0.7
v 0.7 0 -0.7
v -0.3 0 -0.8
v -0.1 0 -0.8
v 0.4 0 -0.8
v 0.6 0 -0.8
v -0.1 0 -0.9
v 0.4 0 -0.9
v -0.6 0.6 -0.1
v -0.5 0.6 -0.1
v 0.8 0.6 -0.1
v 0.9 0.6 -0.1
v -0.6 0.6 -0.2
v -0.5 0.6 -0.2
v 0.8 0.6 -0.2
v 0.9 0.6 -0.2
v -0.6 0.7 5.96046e-08
v -0.5 0.7 5.96046e-08
v 0.8 0.7 5.96046e-08
v 0.9 0.7 5.96046e-08
v -0.6 0.7 -0.1
v -0.5 0.7 -0.1
v 0.8 0.7 -0.1
v 0.9 0.7 -0.1
v -0.6 0.7 -0.2
v -0.5 0.7 -0.2
v 0.8 0.7 -0.2
v 0.9 0.7 -0.2
v -0.6 0.7 -0.3
v -0.5 0.7 -0.3
v 0.8 0.7 -0.3
v 0.9 0.7 -0.3
v -0.1 0.3 0.6
v 0.4 0.3 0.6
v -0.3 0.3 0.5
v -0.1 0.3 0.5
v 0.4 0.3 0.5
v 0.6 0.3 0.5
v -0.4 0.3 0.4
v -0.3 0.3 0.4
v 0.6 0.3 0.4
v 0.7 0.3 0.4
v -0.5 0.3 0.3
v -0.4 0.3 0.3
v 0.7 0.3 0.3
v 0.8 0.3 0.3
v -0.6 0.3 0.1
v -0.5 0.3 0.1
v 0.8 0.3 0.1
v 0.9 0.3 0.1
v -0.5 0.3 5.96046e-08
v -0.3 0.3 5.96046e-08
v 0.6 0.3 5.96046e-08
v 0.8 0.3 5.96046e-08
v -0.5 0.3 -0.3
v -0.3 0.3 -0.3
v 0.6 0.3 -0.3
v 0.8 0.3 -0.3
v -0.6 0.3 -0.4
v -0.5 0.3 -0.4
v 0.8 0.3 -0.4
v 0.9 0.3 -0.4
v -0.5 0.3 -0.6
v -0.4 0.3 -0.6
v 0.7 0.3 -0.6
v 0.8 0.3 -0.6
v -0.4 0.3 -0.7
v -0.3 0.3 -0.7
v 0.6 0.3 -0.7
v 0.7 0.3 -0.7
v -0.3 0.3 -0.8
v -0.1 0.3 -0.8
v 0.4 0.3 -0.8
v 0.6 0.3 -0.8
v -0.1 0.3 -0.9
v 0.4 0.3 -0.9
v -0.6 0.8 5.96046e-08
v -0.5 0.8 5.96046e-08
v 0.8 0.8 5.96046e-08
v 0.9 0.8 5.96046e-08
v -0.6 0.8 -0.1
v -0.5 0.8 -0.1
v 0.8 0.8 -0.1
v 0.9 0.8 -0.1
v -0.6 0.8 -0.2
v -0.5 0.8 -0.2
v 0.8 0.8 -0.2
v 0.9 0.8 -0.2
v -0.6 0.8 -0.3
v -0.5 0.8 -0.3
v 0.8 0.8 -0.3
v 0.9 0.8 -0.3
v -0.5 0.9 5.96046e-08
v -0.3 0.9 5.96046e-08
v 0.6 0.9 5.96046e-08
v 0.8 0.9 5.96046e-08
v -0.6 0.9 -0.1
v -0.5 0.9 -0.1
v 0.8 0.9 -0.1
v 0.9 0.9 -0.1
v -0.6 0.9 -0.2
v -0.5 0.9 -0.2
v 0.8 0.9 -0.2
v 0.9 0.9 -0.2
v -0.5 0.9 -0.3
v -0.3 0.9 -0.3
v 0.6 0.9 -0.3
v 0.8 0.9 -0.3

# faces
f 3/2/1 2/2/1 1/2/1
f 4/2/1 2/2/1 3/2/1
f 8/2/1 6/2/1 5/2/1
f 9/2/1 6/2/1 8/2/1
f 11/2/1 8/2/1 7/2/1
f 11/2/1 10/2/1 9/2/1
f 11/2/1 9/2/1 8/2/1
f 12/2/1 10/2/1 11/2/1
f 13/2/1 10/2/1 12/2/1
f 14/2/1 10/2/1 13/2/1
f 15/2/1 13/2/1 12/2/1
f 16/2/1 13/2/1 15/2/1
f 21/2/1 18/2/1 17/2/1
f 22/2/1 18/2/1 21/2/1
f 25/2/1 20/2/1 19/2/1
f 26/2/1 20/2/1 25/2/1
f 27/1/1 24/1/1 23/1/1
f 28/1/1 24/1/1 27/1/1
f 29/1/1 27/1/1 23/1/1
f 30/1/1 27/1/1 29/1/1
f 31/1/1 24/1/1 28/1/1
f 32/1/1 24/1/1 31/1/1
f 37/1/1 34/1/1 33/1/1
f 38/1/1 34/1/1 37/1/1
f 39/1/1 36/1/1 35/1/1
f 40/1/1 36/1/1 39/1/1
f 45/2/1 42/2/1 41/2/1
f 46/2/1 42/2/1 45/2/1
f 47/2/1 44/2/1 43/2/1
f 48/2/1 44/2/1 47/2/1
f 53/2/1 50/2/1 49/2/1
f 54/2/1 50/2/1 53/2/1
f 55/2/1 52/2/1 51/2/1
f 56/2/1 52/2/1 55/2/1
f 61/2/1 58/2/1 57/2/1
f 62/2/1 58/2/1 61/2/1
f 63/2/1 60/2/1 59/2/1
f 64/2/1 60/2/1 63/2/1
f 67/1/1 66/1/1 65/1/1
f 68/1/1 66/1/1 67/1/1
f 69/1/2 70/1/2 71/1/2
f 71/1/2 70/1/2 72/1/2
f 73/2/2 74/2/2 77/2/2
f 77/2/2 74/2/2 78/2/2
f 75/2/2 76/2/2 79/2/2
f 79/2/2 76/2/2 80/2/2
f 81/2/2 82/2/2 85/2/2
f 85/2/2 82/2/2 86/2/2
f 83/2/2 84/2/2 87/2/2
f 87/2/2 84/2/2 88/2/2
f 89/2/2 90/2/2 93/2/2
f 93/2/2 90/2/2 94/2/2
f 91/2/2 92/2/2 95/2/2
f 95/2/2 92/2/2 96/2/2
f 97/2/2 98/2/2 101/2/2
f 101/2/2 98/2/2 102/2/2
f 99/2/2 100/2/2 105/2/2
f 105/2/2 100/2/2 106/2/2
f 103/1/2 104/1/2 107/1/2
f 107/1/2 104/1/2 108/1/2
f 103/1/2 107/1/2 109/1/2
f 109/1/2 107/1/2 110/1/2
f 108/1/2 104/1/2 111/1/2
f 111/1/2 104/1/2 112/1/2
f 113/1/2 114/1/2 117/1/2
f 117/1/2 114/1/2 118/1/2
f 115/1/2 116/1/2 119/1/2
f 119/1/2 116/1/2 120/1/2
f 121/2/2 122/2/2 123/2/2
f 123/2/2 122/2/2 124/2/2
f 125/2/2 126/2/2 128/2/2
f 128/2/2 126/2/2 129/2/2
f 127/2/2 128/2/2 131/2/2
f 129/2/2 130/2/2 131/2/2
f 128/2/2 129/2/2 131/2/2
f 131/2/2 130/2/2 132/2/2
f 132/2/2 130/2/2 133/2/2
f 133/2/2 130/2/2 134/2/2
f 132/2/2 133/2/2 135/2/2
f 135/2/2 133/2/2 136/2/2
f 139/2/3 138/2/3 137/2/3
f 140/2/3 138/2/3 139/2/3
f 143/2/3 142/2/3 141/2/3
f 144/2/3 142/2/3 143/2/3
f 147/2/3 146/2/3 145/2/3
f 148/2/3 146/2/3 147/2/3
f 151/2/3 150/2/3 149/2/3
f 152/2/3 150/2/3 151/2/3
f 155/2/3 154/2/3 153/2/3
f 156/2/3 154/2/3 155/2/3
f 159/2/3 158/2/3 157/2/3
f 160/2/3 158/2/3 159/2/3
f 163/2/3 162/2/3 161/2/3
f 164/2/3 162/2/3 163/2/3
f 167/2/3 166/2/3 165/2/3
f 168/2/3 166/2/3 167/2/3
f 171/2/3 170/2/3 169/2/3
f 172/2/3 170/2/3 171/2/3
f 176/2/3 174/2/3 173/2/3
f 177/2/3 174/2/3 176/2/3
f 179/1/3 176/1/3 175/1/3
f 179/1/3 178/1/3 177/1/3
f 179/1/3 177/1/3 176/1/3
f 180/1/3 178/1/3 179/1/3
f 183/1/3 182/1/3 181/1/3
f 184/1/3 182/1/3 183/1/3
f 185/1/3 182/1/3 184/1/3
f 186/1/3 182/1/3 185/1/3
f 187/2/3 185/2/3 184/2/3
f 188/2/3 185/2/3 187/2/3
f 193/2/3 190/2/3 189/2/3
f 194/2/3 190/2/3 193/2/3
f 195/2/3 192/2/3 191/2/3
f 196/2/3 192/2/3 195/2/3
f 201/2/3 198/2/3 197/2/3
f 202/2/3 198/2/3 201/2/3
f 203/2/3 200/2/3 199/2/3
f 204/2/3 200/2/3 203/2/3
f 205/2/4 206/2/4 209/2/4
f 209/2/4 206/2/4 210/2/4
f 207/2/4 208/2/4 211/2/4
f 211/2/4 208/2/4 212/2/4
f 213/2/4 214/2/4 217/2/4
f 217/2/4 214/2/4 218/2/4
f 215/2/4 216/2/4 219/2/4
f 219/2/4 216/2/4 220/2/4
f 221/2/4 222/2/4 224/2/4
f 224/2/4 222/2/4 225/2/4
f 223/1/4 224/1/4 227/1/4
f 225/1/4 226/1/4 227/1/4
f 224/1/4 225/1/4 227/1/4
f 227/1/4 226/1/4 228/1/4
f 229/1/4 230/1/4 231/1/4
f 231/1/4 230/1/4 232/1/4
f 232/1/4 230/1/4 233/1/4
f 233/1/4 230/1/4 234/1/4
f 232/2/4 233/2/4 235/2/4
f 235/2/4 233/2/4 236/2/4
f 237/2/4 238/2/4 239/2/4
f 239/2/4 238/2/4 240/2/4
f 241/2/4 242/2/4 243/2/4
f 243/2/4 242/2/4 244/2/4
f 245/2/4 246/2/4 247/2/4
f 247/2/4 246/2/4 248/2/4
f 249/2/4 250/2/4 251/2/4
f 251/2/4 250/2/4 252/2/4
f 253/2/4 254/2/4 255/2/4
f 255/2/4 254/2/4 256/2/4
f 257/2/4 258/2/4 259/2/4
f 259/2/4 258/2/4 260/2/4
f 261/2/4 262/2/4 263/2/4
f 263/2/4 262/2/4 264/2/4
f 265/2/4 266/2/4 267/2/4
f 267/2/4 266/2/4 268/2/4
f 269/2/4 270/2/4 271/2/4
f 271/2/4 270/2/4 272/2/4
f 276/2/5 274/2/5 273/2/5
f 277/2/5 274/2/5 276/2/5
f 280/2/5 276/2/5 275/2/5
f 280/2/5 278/2/5 277/2/5
f 280/2/5 277/2/5 276/2/5
f 281/2/5 278/2/5 280/2/5
f 284/2/5 280/2/5 279/2/5
f 284/2/5 282/2/5 281/2/5
f 284/2/5 281/2/5 280/2/5
f 285/2/5 282/2/5 284/2/5
f 288/2/5 284/2/5 283/2/5
f 288/2/5 286/2/5 285/2/5
f 288/2/5 285/2/5 284/2/5
f 289/2/5 286/2/5 288/2/5
f 291/2/5 288/2/5 287/2/5
f 291/2/5 290/2/5 289/2/5
f 291/2/5 289/2/5 288/2/5
f 292/2/5 290/2/5 291/2/5
f 293/2/5 290/2/5 292/2/5
f 294/2/5 290/2/5 293/2/5
f 295/2/5 293/2/5 292/2/5
f 296/2/5 293/2/5 295/2/5
f 297/2/5 293/2/5 296/2/5
f 298/2/5 293/2/5 297/2/5
f 299/2/5 297/2/5 296/2/5
f 300/2/5 297/2/5 299/2/5
f 301/2/5 297/2/5 300/2/5
f 302/2/5 297/2/5 301/2/5
f 303/2/5 301/2/5 300/2/5
f 304/2/5 301/2/5 303/2/5
f 305/2/5 301/2/5 304/2/5
f 306/2/5 301/2/5 305/2/5
f 307/2/5 305/2/5 304/2/5
f 308/2/5 305/2/5 307/2/5
f 313/2/5 310/2/5 309/2/5
f 314/2/5 310/2/5 313/2/5
f 315/2/5 312/2/5 311/2/5
f 316/2/5 312/2/5 315/2/5
f 321/2/5 318/2/5 317/2/5
f 322/2/5 318/2/5 321/2/5
f 323/2/5 320/2/5 319/2/5
f 324/2/5 320/2/5 323/2/5
f 329/2/5 326/2/5 325/2/5
f 330/2/5 326/2/5 329/2/5
f 331/2/5 328/2/5 327/2/5
f 332/2/5 328/2/5 331/2/5
f 333/2/6 334/2/6 336/2/6
f 336/2/6 334/2/6 337/2/6
f 335/2/6 336/2/6 340/2/6
f 337/2/6 338/2/6 340/2/6
f 336/2/6 337/2/6 340/2/6
f 340/2/6 338/2/6 341/2/6
f 339/2/6 340/2/6 344/2/6
f 341/2/6 342/2/6 344/2/6
f 340/2/6 341/2/6 344/2/6
f 344/2/6 342/2/6 345/2/6
f 343/2/6 344/2/6 348/2/6
f 345/2/6 346/2/6 348/2/6
f 344/2/6 345/2/6 348/2/6
f 348/2/6 346/2/6 349/2/6
f 347/2/6 348/2/6 351/2/6
f 349/2/6 350/2/6 351/2/6
f 348/2/6 349/2/6 351/2/6
f 351/2/6 350/2/6 352/2/6
f 352/2/6 350/2/6 353/2/6
f 353/2/6 350/2/6 354/2/6
f 347/2/6 351/2/6 355/2/6
f 352/2/6 353/2/6 356/2/6
f 356/2/6 353/2/6 357/2/6
f 354/2/6 350/2/6 358/2/6
f 356/2/6 357/2/6 359/2/6
f 357/2/6 358/2/6 359/2/6
f 347/2/6 355/2/6 359/2/6
f 355/2/6 356/2/6 359/2/6
f 359/2/6 358/2/6 360/2/6
f 358/2/6 350/2/6 361/2/6
f 360/2/6 358/2/6 361/2/6
f 361/2/6 350/2/6 362/2/6
f 360/2/6 361/2/6 363/2/6
f 363/2/6 361/2/6 364/2/6
f 364/2/6 361/2/6 365/2/6
f 365/2/6 361/2/6 366/2/6
f 364/2/6 365/2/6 367/2/6
f 367/2/6 365/2/6 368/2/6
f 368/2/6 365/2/6 369/2/6
f 369/2/6 365/2/6 370/2/6
f 368/2/6 369/2/6 371/2/6
f 371/2/6 369/2/6 372/2/6
f 372/2/6 369/2/6 373/2/6
f 373/2/6 369/2/6 374/2/6
f 372/2/6 373/2/6 375/2/6
f 375/2/6 373/2/6 376/2/6
f 377/2/6 378/2/6 381/2/6
f 381/2/6 378/2/6 382/2/6
f 379/2/6 380/2/6 383/2/6
f 383/2/6 380/2/6 384/2/6
f 385/2/6 386/2/6 389/2/6
f 389/2/6 386/2/6 390/2/6
f 387/2/6 388/2/6 391/2/6
f 391/2/6 388/2/6 392/2/6
f 393/1/6 394/1/6 398/1/6
f 395/1/6 396/1/6 399/1/6
f 397/2/6 398/2/6 401/2/6
f 398/1/6 394/1/6 402/1/6
f 401/2/6 398/2/6 402/2/6
f 399/2/6 400/2/6 403/2/6
f 395/1/6 399/1/6 403/1/6
f 403/2/6 400/2/6 404/2/6
f 402/1/6 394/1/6 405/1/6
f 405/1/6 394/1/6 406/1/6
f 395/1/6 403/1/6 407/1/6
f 407/1/6 403/1/6 408/1/6
