# Blender 3.4.1
# www.blender.org
mtllib ADR.mtl
o ADR
v 0.600000 0.000000 0.100000
v 0.600000 0.100000 0.000000
v 0.600000 0.200000 0.200000
v 0.600000 0.100000 0.300000
v 0.600000 -0.100000 0.300000
v 0.600000 -0.100000 0.100000
v 0.600000 0.200000 -0.100000
v 0.600000 0.000000 0.000000
v 0.600000 0.100000 -0.100000
v -0.600000 0.000000 0.100000
v -0.600000 0.100000 0.300000
v -0.600000 0.200000 0.200000
v -0.600000 -0.100000 0.300000
v -0.600000 0.100000 0.000000
v -0.600000 0.000000 0.000000
v -0.600000 0.200000 -0.100000
v -0.600000 0.100000 -0.100000
v -0.600000 -0.100000 0.100000
v 0.600000 0.100000 0.300000
v -0.600000 0.100000 0.300000
v -0.600000 -0.100000 0.300000
v 0.600000 -0.100000 0.300000
v -0.600000 -0.100000 0.300000
v -0.600000 -0.100000 0.100000
v -0.600000 0.000000 0.100000
v -0.600000 0.000000 0.000000
v -0.600000 0.100000 0.000000
v -0.600000 0.100000 -0.100000
v 0.600000 0.200000 -0.100000
v -0.600000 0.200000 -0.100000
v -0.600000 0.200000 0.200000
v 0.600000 0.200000 0.200000
v 0.600000 0.200000 0.200000
v -0.600000 0.200000 0.200000
v -0.600000 0.100000 0.300000
v 0.600000 0.100000 0.300000
vn 1.0000 -0.0000 -0.0000
vn -1.0000 -0.0000 -0.0000
vn -0.0000 -0.0000 1.0000
vn -0.0000 1.0000 -0.0000
vn -0.0000 0.7071 0.7071
s 0
usemtl App0.006
f 1//1 2//1 3//1
f 3//1 4//1 1//1
f 5//1 6//1 1//1
f 7//1 3//1 2//1
f 1//1 4//1 5//1
f 1//1 8//1 2//1
f 2//1 9//1 7//1
f 10//2 11//2 12//2
f 13//2 11//2 10//2
f 14//2 15//2 10//2
f 12//2 14//2 10//2
f 16//2 17//2 14//2
f 14//2 12//2 16//2
f 10//2 18//2 13//2
f 19//3 20//3 21//3
f 21//3 22//3 19//3
f 29//4 30//4 31//4
f 31//4 32//4 29//4
f 33//5 34//5 35//5
f 35//5 36//5 33//5
