# MagicaVoxel @ Ephtracy

# group
o 

# material
mtllib unguid_missile.mtl
usemtl palette

# normals
vn 0 0 1
vn 0 0 -1
vn 1 0 0
vn -1 0 0
vn 0 -1 0
vn 0 1 0

# texcoords
vt 0.783203 0.5
vt 0.787109 0.5
vt 0.939453 0.5

# verts
v -0.1 -0.2 1.1
v -0.2 -0.2 1.1
v -0.1 -0.1 1.1
v -0.2 -0.1 1.1
v -0.1 -0.3 1
v -0.2 -0.3 1
v 0 -0.2 1
v -0.1 -0.2 1
v -0.2 -0.2 1
v -0.3 -0.2 1
v 0 -0.1 1
v -0.1 -0.1 1
v -0.2 -0.1 1
v -0.3 -0.1 1
v -0.1 0 1
v -0.2 0 1
v 0 -0.3 0.9
v -0.1 -0.3 0.9
v -0.2 -0.3 0.9
v -0.3 -0.3 0.9
v 0 -0.2 0.9
v -0.1 -0.2 0.9
v -0.2 -0.2 0.9
v -0.3 -0.2 0.9
v 0 -0.1 0.9
v -0.1 -0.1 0.9
v -0.2 -0.1 0.9
v -0.3 -0.1 0.9
v 0 0 0.9
v -0.1 0 0.9
v -0.2 0 0.9
v -0.3 0 0.9
v 0 -0.3 -0.5
v -0.1 -0.3 -0.5
v -0.2 -0.3 -0.5
v -0.3 -0.3 -0.5
v 0 -0.2 -0.5
v -0.1 -0.2 -0.5
v -0.2 -0.2 -0.5
v -0.3 -0.2 -0.5
v 0 -0.1 -0.5
v -0.1 -0.1 -0.5
v -0.2 -0.1 -0.5
v -0.3 -0.1 -0.5
v 0 0 -0.5
v -0.1 0 -0.5
v -0.2 0 -0.5
v -0.3 0 -0.5
v -0.1 -0.4 -0.6
v -0.2 -0.4 -0.6
v -0.1 -0.3 -0.6
v -0.2 -0.3 -0.6
v 0.1 -0.2 -0.6
v 0 -0.2 -0.6
v -0.3 -0.2 -0.6
v -0.4 -0.2 -0.6
v 0.1 -0.1 -0.6
v 0 -0.1 -0.6
v -0.3 -0.1 -0.6
v -0.4 -0.1 -0.6
v -0.1 0 -0.6
v -0.2 0 -0.6
v -0.1 0.1 -0.6
v -0.2 0.1 -0.6
v -0.1 -0.5 -0.7
v -0.2 -0.5 -0.7
v -0.1 -0.4 -0.7
v -0.2 -0.4 -0.7
v 0.2 -0.2 -0.7
v 0.1 -0.2 -0.7
v -0.4 -0.2 -0.7
v -0.5 -0.2 -0.7
v 0.2 -0.1 -0.7
v 0.1 -0.1 -0.7
v -0.4 -0.1 -0.7
v -0.5 -0.1 -0.7
v -0.1 0.1 -0.7
v -0.2 0.1 -0.7
v -0.1 0.2 -0.7
v -0.2 0.2 -0.7
v 0 -0.3 0.7
v -0.1 -0.3 0.7
v -0.2 -0.3 0.7
v -0.3 -0.3 0.7
v 0 -0.2 0.7
v -0.1 -0.2 0.7
v -0.2 -0.2 0.7
v -0.3 -0.2 0.7
v 0 -0.1 0.7
v -0.1 -0.1 0.7
v -0.2 -0.1 0.7
v -0.3 -0.1 0.7
v 0 0 0.7
v -0.1 0 0.7
v -0.2 0 0.7
v -0.3 0 0.7
v -0.1 -0.5 -0.9
v -0.2 -0.5 -0.9
v 0 -0.3 -0.9
v -0.1 -0.3 -0.9
v -0.2 -0.3 -0.9
v -0.3 -0.3 -0.9
v 0.2 -0.2 -0.9
v 0 -0.2 -0.9
v -0.3 -0.2 -0.9
v -0.5 -0.2 -0.9
v 0.2 -0.1 -0.9
v 0 -0.1 -0.9
v -0.3 -0.1 -0.9
v -0.5 -0.1 -0.9
v 0 0 -0.9
v -0.1 0 -0.9
v -0.2 0 -0.9
v -0.3 0 -0.9
v -0.1 0.2 -0.9
v -0.2 0.2 -0.9
v 0.2 -0.2 -0.7
v 0.2 -0.1 -0.7
v 0.2 -0.2 -0.9
v 0.2 -0.1 -0.9
v 0.1 -0.2 -0.6
v 0.1 -0.1 -0.6
v 0.1 -0.2 -0.7
v 0.1 -0.1 -0.7
v 0 -0.2 1
v 0 -0.1 1
v 0 -0.3 0.9
v 0 -0.2 0.9
v 0 -0.1 0.9
v 0 0 0.9
v 0 -0.3 0.7
v 0 -0.2 0.7
v 0 -0.1 0.7
v 0 0 0.7
v 0 -0.2 0.6
v 0 -0.1 0.6
v 0 -0.3 -0.5
v 0 -0.2 -0.5
v 0 -0.1 -0.5
v 0 0 -0.5
v 0 -0.2 -0.6
v 0 -0.1 -0.6
v 0 -0.3 -0.8
v 0 -0.2 -0.8
v 0 -0.1 -0.8
v 0 0 -0.8
v 0 -0.3 -0.9
v 0 -0.2 -0.9
v 0 -0.1 -0.9
v 0 0 -0.9
v -0.1 -0.2 1.1
v -0.1 -0.1 1.1
v -0.1 -0.3 1
v -0.1 -0.2 1
v -0.1 -0.1 1
v -0.1 0 1
v -0.1 -0.3 0.9
v -0.1 -0.2 0.9
v -0.1 -0.1 0.9
v -0.1 0 0.9
v -0.1 -0.3 0.7
v -0.1 -0.2 0.7
v -0.1 -0.1 0.7
v -0.1 0 0.7
v -0.1 -0.3 0.6
v -0.1 -0.2 0.6
v -0.1 -0.1 0.6
v -0.1 0 0.6
v -0.1 -0.3 -0.5
v -0.1 -0.2 -0.5
v -0.1 -0.1 -0.5
v -0.1 0 -0.5
v -0.1 -0.4 -0.6
v -0.1 -0.3 -0.6
v -0.1 0 -0.6
v -0.1 0.1 -0.6
v -0.1 -0.5 -0.7
v -0.1 -0.4 -0.7
v -0.1 0.1 -0.7
v -0.1 0.2 -0.7
v -0.1 -0.3 -0.8
v -0.1 0 -0.8
v -0.1 -0.5 -0.9
v -0.1 -0.3 -0.9
v -0.1 0 -0.9
v -0.1 0.2 -0.9
v -0.2 -0.2 1.1
v -0.2 -0.1 1.1
v -0.2 -0.3 1
v -0.2 -0.2 1
v -0.2 -0.1 1
v -0.2 0 1
v -0.2 -0.3 0.9
v -0.2 -0.2 0.9
v -0.2 -0.1 0.9
v -0.2 0 0.9
v -0.2 -0.3 0.7
v -0.2 -0.2 0.7
v -0.2 -0.1 0.7
v -0.2 0 0.7
v -0.2 -0.3 0.6
v -0.2 -0.2 0.6
v -0.2 -0.1 0.6
v -0.2 0 0.6
v -0.2 -0.3 -0.5
v -0.2 -0.2 -0.5
v -0.2 -0.1 -0.5
v -0.2 0 -0.5
v -0.2 -0.4 -0.6
v -0.2 -0.3 -0.6
v -0.2 0 -0.6
v -0.2 0.1 -0.6
v -0.2 -0.5 -0.7
v -0.2 -0.4 -0.7
v -0.2 0.1 -0.7
v -0.2 0.2 -0.7
v -0.2 -0.3 -0.8
v -0.2 0 -0.8
v -0.2 -0.5 -0.9
v -0.2 -0.3 -0.9
v -0.2 0 -0.9
v -0.2 0.2 -0.9
v -0.3 -0.2 1
v -0.3 -0.1 1
v -0.3 -0.3 0.9
v -0.3 -0.2 0.9
v -0.3 -0.1 0.9
v -0.3 0 0.9
v -0.3 -0.3 0.7
v -0.3 -0.2 0.7
v -0.3 -0.1 0.7
v -0.3 0 0.7
v -0.3 -0.2 0.6
v -0.3 -0.1 0.6
v -0.3 -0.3 -0.5
v -0.3 -0.2 -0.5
v -0.3 -0.1 -0.5
v -0.3 0 -0.5
v -0.3 -0.2 -0.6
v -0.3 -0.1 -0.6
v -0.3 -0.3 -0.8
v -0.3 -0.2 -0.8
v -0.3 -0.1 -0.8
v -0.3 0 -0.8
v -0.3 -0.3 -0.9
v -0.3 -0.2 -0.9
v -0.3 -0.1 -0.9
v -0.3 0 -0.9
v -0.4 -0.2 -0.6
v -0.4 -0.1 -0.6
v -0.4 -0.2 -0.7
v -0.4 -0.1 -0.7
v -0.5 -0.2 -0.7
v -0.5 -0.1 -0.7
v -0.5 -0.2 -0.9
v -0.5 -0.1 -0.9
v -0.1 -0.5 -0.7
v -0.1 -0.5 -0.9
v -0.2 -0.5 -0.7
v -0.2 -0.5 -0.9
v -0.1 -0.4 -0.6
v -0.1 -0.4 -0.7
v -0.2 -0.4 -0.6
v -0.2 -0.4 -0.7
v 0 -0.3 0.9
v 0 -0.3 0.7
v 0 -0.3 -0.5
v 0 -0.3 -0.8
v 0 -0.3 -0.9
v -0.1 -0.3 1
v -0.1 -0.3 0.9
v -0.1 -0.3 0.7
v -0.1 -0.3 0.6
v -0.1 -0.3 -0.5
v -0.1 -0.3 -0.6
v -0.1 -0.3 -0.8
v -0.1 -0.3 -0.9
v -0.2 -0.3 1
v -0.2 -0.3 0.9
v -0.2 -0.3 0.7
v -0.2 -0.3 0.6
v -0.2 -0.3 -0.5
v -0.2 -0.3 -0.6
v -0.2 -0.3 -0.8
v -0.2 -0.3 -0.9
v -0.3 -0.3 0.9
v -0.3 -0.3 0.7
v -0.3 -0.3 -0.5
v -0.3 -0.3 -0.8
v -0.3 -0.3 -0.9
v 0.2 -0.2 -0.7
v 0.2 -0.2 -0.9
v 0.1 -0.2 -0.6
v 0.1 -0.2 -0.7
v 0 -0.2 1
v 0 -0.2 0.9
v 0 -0.2 0.7
v 0 -0.2 0.6
v 0 -0.2 -0.5
v 0 -0.2 -0.6
v 0 -0.2 -0.8
v 0 -0.2 -0.9
v -0.1 -0.2 1.1
v -0.1 -0.2 1
v -0.1 -0.2 0.9
v -0.1 -0.2 0.7
v -0.1 -0.2 0.6
v -0.1 -0.2 -0.5
v -0.2 -0.2 1.1
v -0.2 -0.2 1
v -0.2 -0.2 0.9
v -0.2 -0.2 0.7
v -0.2 -0.2 0.6
v -0.2 -0.2 -0.5
v -0.3 -0.2 1
v -0.3 -0.2 0.9
v -0.3 -0.2 0.7
v -0.3 -0.2 0.6
v -0.3 -0.2 -0.5
v -0.3 -0.2 -0.6
v -0.3 -0.2 -0.8
v -0.3 -0.2 -0.9
v -0.4 -0.2 -0.6
v -0.4 -0.2 -0.7
v -0.5 -0.2 -0.7
v -0.5 -0.2 -0.9
v 0.2 -0.1 -0.7
v 0.2 -0.1 -0.9
v 0.1 -0.1 -0.6
v 0.1 -0.1 -0.7
v 0 -0.1 1
v 0 -0.1 0.9
v 0 -0.1 0.7
v 0 -0.1 0.6
v 0 -0.1 -0.5
v 0 -0.1 -0.6
v 0 -0.1 -0.8
v 0 -0.1 -0.9
v -0.1 -0.1 1.1
v -0.1 -0.1 1
v -0.1 -0.1 0.9
v -0.1 -0.1 0.7
v -0.1 -0.1 0.6
v -0.1 -0.1 -0.5
v -0.2 -0.1 1.1
v -0.2 -0.1 1
v -0.2 -0.1 0.9
v -0.2 -0.1 0.7
v -0.2 -0.1 0.6
v -0.2 -0.1 -0.5
v -0.3 -0.1 1
v -0.3 -0.1 0.9
v -0.3 -0.1 0.7
v -0.3 -0.1 0.6
v -0.3 -0.1 -0.5
v -0.3 -0.1 -0.6
v -0.3 -0.1 -0.8
v -0.3 -0.1 -0.9
v -0.4 -0.1 -0.6
v -0.4 -0.1 -0.7
v -0.5 -0.1 -0.7
v -0.5 -0.1 -0.9
v 0 0 0.9
v 0 0 0.7
v 0 0 -0.5
v 0 0 -0.8
v 0 0 -0.9
v -0.1 0 1
v -0.1 0 0.9
v -0.1 0 0.7
v -0.1 0 0.6
v -0.1 0 -0.5
v -0.1 0 -0.6
v -0.1 0 -0.8
v -0.1 0 -0.9
v -0.2 0 1
v -0.2 0 0.9
v -0.2 0 0.7
v -0.2 0 0.6
v -0.2 0 -0.5
v -0.2 0 -0.6
v -0.2 0 -0.8
v -0.2 0 -0.9
v -0.3 0 0.9
v -0.3 0 0.7
v -0.3 0 -0.5
v -0.3 0 -0.8
v -0.3 0 -0.9
v -0.1 0.1 -0.6
v -0.1 0.1 -0.7
v -0.2 0.1 -0.6
v -0.2 0.1 -0.7
v -0.1 0.2 -0.7
v -0.1 0.2 -0.9
v -0.2 0.2 -0.7
v -0.2 0.2 -0.9

# faces
f 3/2/1 2/2/1 1/2/1
f 4/2/1 2/2/1 3/2/1
f 8/2/1 6/2/1 5/2/1
f 9/2/1 6/2/1 8/2/1
f 11/2/1 8/2/1 7/2/1
f 12/2/1 8/2/1 11/2/1
f 13/2/1 10/2/1 9/2/1
f 14/2/1 10/2/1 13/2/1
f 15/2/1 13/2/1 12/2/1
f 16/2/1 13/2/1 15/2/1
f 21/2/1 18/2/1 17/2/1
f 22/2/1 18/2/1 21/2/1
f 23/2/1 20/2/1 19/2/1
f 24/2/1 20/2/1 23/2/1
f 29/2/1 26/2/1 25/2/1
f 30/2/1 26/2/1 29/2/1
f 31/2/1 28/2/1 27/2/1
f 32/2/1 28/2/1 31/2/1
f 37/1/1 34/1/1 33/1/1
f 38/1/1 34/1/1 37/1/1
f 39/1/1 36/1/1 35/1/1
f 40/1/1 36/1/1 39/1/1
f 45/1/1 42/1/1 41/1/1
f 46/1/1 42/1/1 45/1/1
f 47/1/1 44/1/1 43/1/1
f 48/1/1 44/1/1 47/1/1
f 51/1/1 50/1/1 49/1/1
f 52/1/1 50/1/1 51/1/1
f 57/1/1 54/1/1 53/1/1
f 58/1/1 54/1/1 57/1/1
f 59/1/1 56/1/1 55/1/1
f 60/1/1 56/1/1 59/1/1
f 63/1/1 62/1/1 61/1/1
f 64/1/1 62/1/1 63/1/1
f 67/1/1 66/1/1 65/1/1
f 68/1/1 66/1/1 67/1/1
f 73/1/1 70/1/1 69/1/1
f 74/1/1 70/1/1 73/1/1
f 75/1/1 72/1/1 71/1/1
f 76/1/1 72/1/1 75/1/1
f 79/1/1 78/1/1 77/1/1
f 80/1/1 78/1/1 79/1/1
f 81/2/2 82/2/2 85/2/2
f 85/2/2 82/2/2 86/2/2
f 83/2/2 84/2/2 87/2/2
f 87/2/2 84/2/2 88/2/2
f 89/2/2 90/2/2 93/2/2
f 93/2/2 90/2/2 94/2/2
f 91/2/2 92/2/2 95/2/2
f 95/2/2 92/2/2 96/2/2
f 97/1/2 98/1/2 100/1/2
f 100/1/2 98/1/2 101/1/2
f 99/3/2 100/3/2 104/3/2
f 101/3/2 102/3/2 104/3/2
f 100/3/2 101/3/2 104/3/2
f 104/3/2 102/3/2 105/3/2
f 103/1/2 104/1/2 107/1/2
f 104/3/2 105/3/2 108/3/2
f 107/1/2 104/1/2 108/1/2
f 105/1/2 106/1/2 109/1/2
f 108/3/2 105/3/2 109/3/2
f 109/1/2 106/1/2 110/1/2
f 108/3/2 109/3/2 111/3/2
f 111/3/2 109/3/2 112/3/2
f 112/3/2 109/3/2 113/3/2
f 113/3/2 109/3/2 114/3/2
f 112/1/2 113/1/2 115/1/2
f 115/1/2 113/1/2 116/1/2
f 119/1/3 118/1/3 117/1/3
f 120/1/3 118/1/3 119/1/3
f 123/1/3 122/1/3 121/1/3
f 124/1/3 122/1/3 123/1/3
f 128/2/3 126/2/3 125/2/3
f 129/2/3 126/2/3 128/2/3
f 131/2/3 128/2/3 127/2/3
f 131/2/3 130/2/3 129/2/3
f 131/2/3 129/2/3 128/2/3
f 132/2/3 130/2/3 131/2/3
f 133/2/3 130/2/3 132/2/3
f 134/2/3 130/2/3 133/2/3
f 135/2/3 133/2/3 132/2/3
f 136/2/3 133/2/3 135/2/3
f 138/1/3 136/1/3 135/1/3
f 139/1/3 136/1/3 138/1/3
f 141/1/3 139/1/3 138/1/3
f 141/1/3 140/1/3 139/1/3
f 141/1/3 138/1/3 137/1/3
f 142/1/3 140/1/3 141/1/3
f 143/1/3 141/1/3 137/1/3
f 144/1/3 141/1/3 143/1/3
f 145/1/3 140/1/3 142/1/3
f 146/1/3 140/1/3 145/1/3
f 147/3/3 144/3/3 143/3/3
f 148/3/3 144/3/3 147/3/3
f 149/3/3 146/3/3 145/3/3
f 150/3/3 146/3/3 149/3/3
f 154/2/3 152/2/3 151/2/3
f 155/2/3 152/2/3 154/2/3
f 157/2/3 154/2/3 153/2/3
f 158/2/3 154/2/3 157/2/3
f 159/2/3 156/2/3 155/2/3
f 160/2/3 156/2/3 159/2/3
f 165/2/3 162/2/3 161/2/3
f 166/2/3 162/2/3 165/2/3
f 167/2/3 164/2/3 163/2/3
f 168/2/3 164/2/3 167/2/3
f 169/1/3 166/1/3 165/1/3
f 170/1/3 166/1/3 169/1/3
f 171/1/3 168/1/3 167/1/3
f 172/1/3 168/1/3 171/1/3
f 178/1/3 174/1/3 173/1/3
f 179/1/3 176/1/3 175/1/3
f 181/1/3 178/1/3 177/1/3
f 181/1/3 174/1/3 178/1/3
f 182/1/3 180/1/3 179/1/3
f 182/1/3 179/1/3 175/1/3
f 183/1/3 181/1/3 177/1/3
f 184/1/3 181/1/3 183/1/3
f 185/1/3 180/1/3 182/1/3
f 186/1/3 180/1/3 185/1/3
f 187/2/4 188/2/4 190/2/4
f 190/2/4 188/2/4 191/2/4
f 189/2/4 190/2/4 193/2/4
f 193/2/4 190/2/4 194/2/4
f 191/2/4 192/2/4 195/2/4
f 195/2/4 192/2/4 196/2/4
f 197/2/4 198/2/4 201/2/4
f 201/2/4 198/2/4 202/2/4
f 199/2/4 200/2/4 203/2/4
f 203/2/4 200/2/4 204/2/4
f 201/1/4 202/1/4 205/1/4
f 205/1/4 202/1/4 206/1/4
f 203/1/4 204/1/4 207/1/4
f 207/1/4 204/1/4 208/1/4
f 209/1/4 210/1/4 214/1/4
f 211/1/4 212/1/4 215/1/4
f 213/1/4 214/1/4 217/1/4
f 214/1/4 210/1/4 217/1/4
f 215/1/4 216/1/4 218/1/4
f 211/1/4 215/1/4 218/1/4
f 213/1/4 217/1/4 219/1/4
f 219/1/4 217/1/4 220/1/4
f 218/1/4 216/1/4 221/1/4
f 221/1/4 216/1/4 222/1/4
f 223/2/4 224/2/4 226/2/4
f 226/2/4 224/2/4 227/2/4
f 225/2/4 226/2/4 229/2/4
f 227/2/4 228/2/4 229/2/4
f 226/2/4 227/2/4 229/2/4
f 229/2/4 228/2/4 230/2/4
f 230/2/4 228/2/4 231/2/4
f 231/2/4 228/2/4 232/2/4
f 230/2/4 231/2/4 233/2/4
f 233/2/4 231/2/4 234/2/4
f 233/1/4 234/1/4 236/1/4
f 236/1/4 234/1/4 237/1/4
f 236/1/4 237/1/4 239/1/4
f 237/1/4 238/1/4 239/1/4
f 235/1/4 236/1/4 239/1/4
f 239/1/4 238/1/4 240/1/4
f 235/1/4 239/1/4 241/1/4
f 241/1/4 239/1/4 242/1/4
f 240/1/4 238/1/4 243/1/4
f 243/1/4 238/1/4 244/1/4
f 241/3/4 242/3/4 245/3/4
f 245/3/4 242/3/4 246/3/4
f 243/3/4 244/3/4 247/3/4
f 247/3/4 244/3/4 248/3/4
f 249/1/4 250/1/4 251/1/4
f 251/1/4 250/1/4 252/1/4
f 253/1/4 254/1/4 255/1/4
f 255/1/4 254/1/4 256/1/4
f 259/1/5 258/1/5 257/1/5
f 260/1/5 258/1/5 259/1/5
f 263/1/5 262/1/5 261/1/5
f 264/1/5 262/1/5 263/1/5
f 271/2/5 266/2/5 265/2/5
f 272/2/5 266/2/5 271/2/5
f 274/1/5 268/1/5 267/1/5
f 275/1/5 268/1/5 274/1/5
f 276/3/5 269/3/5 268/3/5
f 276/1/5 268/1/5 275/1/5
f 277/3/5 269/3/5 276/3/5
f 278/2/5 273/2/5 272/2/5
f 278/2/5 271/2/5 270/2/5
f 278/2/5 272/2/5 271/2/5
f 279/2/5 273/2/5 278/2/5
f 280/2/5 273/2/5 279/2/5
f 281/1/5 275/1/5 274/1/5
f 281/2/5 273/2/5 280/2/5
f 281/1/5 274/1/5 273/1/5
f 282/1/5 275/1/5 281/1/5
f 283/1/5 275/1/5 282/1/5
f 286/2/5 280/2/5 279/2/5
f 287/2/5 280/2/5 286/2/5
f 288/1/5 284/1/5 283/1/5
f 288/1/5 283/1/5 282/1/5
f 289/3/5 285/3/5 284/3/5
f 289/1/5 284/1/5 288/1/5
f 290/3/5 285/3/5 289/3/5
f 294/1/5 292/1/5 291/1/5
f 300/1/5 294/1/5 293/1/5
f 301/1/5 292/1/5 294/1/5
f 301/1/5 294/1/5 300/1/5
f 302/1/5 292/1/5 301/1/5
f 304/2/5 296/2/5 295/2/5
f 305/2/5 296/2/5 304/2/5
f 306/2/5 298/2/5 297/2/5
f 307/1/5 299/1/5 298/1/5
f 307/2/5 298/2/5 306/2/5
f 308/1/5 299/1/5 307/1/5
f 309/2/5 304/2/5 303/2/5
f 310/2/5 304/2/5 309/2/5
f 315/2/5 311/2/5 310/2/5
f 316/2/5 311/2/5 315/2/5
f 317/2/5 313/2/5 312/2/5
f 318/1/5 314/1/5 313/1/5
f 318/2/5 313/2/5 317/2/5
f 319/1/5 314/1/5 318/1/5
f 323/1/5 322/1/5 321/1/5
f 323/1/5 321/1/5 320/1/5
f 324/1/5 322/1/5 323/1/5
f 325/1/5 322/1/5 324/1/5
f 326/1/5 322/1/5 325/1/5
f 327/1/6 328/1/6 330/1/6
f 329/1/6 330/1/6 336/1/6
f 330/1/6 328/1/6 337/1/6
f 336/1/6 330/1/6 337/1/6
f 337/1/6 328/1/6 338/1/6
f 331/2/6 332/2/6 340/2/6
f 340/2/6 332/2/6 341/2/6
f 333/2/6 334/2/6 342/2/6
f 334/1/6 335/1/6 343/1/6
f 342/2/6 334/2/6 343/2/6
f 343/1/6 335/1/6 344/1/6
f 339/2/6 340/2/6 345/2/6
f 345/2/6 340/2/6 346/2/6
f 346/2/6 347/2/6 351/2/6
f 351/2/6 347/2/6 352/2/6
f 348/2/6 349/2/6 353/2/6
f 349/1/6 350/1/6 354/1/6
f 353/2/6 349/2/6 354/2/6
f 354/1/6 350/1/6 355/1/6
f 357/1/6 358/1/6 359/1/6
f 356/1/6 357/1/6 359/1/6
f 359/1/6 358/1/6 360/1/6
f 360/1/6 358/1/6 361/1/6
f 361/1/6 358/1/6 362/1/6
f 363/2/6 364/2/6 369/2/6
f 369/2/6 364/2/6 370/2/6
f 365/1/6 366/1/6 372/1/6
f 372/1/6 366/1/6 373/1/6
f 366/3/6 367/3/6 374/3/6
f 373/1/6 366/1/6 374/1/6
f 374/3/6 367/3/6 375/3/6
f 370/2/6 371/2/6 376/2/6
f 368/2/6 369/2/6 376/2/6
f 369/2/6 370/2/6 376/2/6
f 376/2/6 371/2/6 377/2/6
f 377/2/6 371/2/6 378/2/6
f 372/1/6 373/1/6 379/1/6
f 378/2/6 371/2/6 379/2/6
f 371/1/6 372/1/6 379/1/6
f 379/1/6 373/1/6 380/1/6
f 380/1/6 373/1/6 381/1/6
f 377/2/6 378/2/6 384/2/6
f 384/2/6 378/2/6 385/2/6
f 381/1/6 382/1/6 386/1/6
f 380/1/6 381/1/6 386/1/6
f 382/3/6 383/3/6 387/3/6
f 386/1/6 382/1/6 387/1/6
f 387/3/6 383/3/6 388/3/6
f 389/1/6 390/1/6 391/1/6
f 391/1/6 390/1/6 392/1/6
f 393/1/6 394/1/6 395/1/6
f 395/1/6 394/1/6 396/1/6
